<?xml version="1.0" encoding="UTF-8"?>
<svg id="Layer_2" data-name="Layer 2" xmlns="http://www.w3.org/2000/svg" viewBox="0 0 427.82 401.31">
  <g id="outlines">
    <g id="Page_2" data-name="Page 2">
      <g id="Frame_8" data-name="Frame 8">
        <g id="_10_Years_Ago" data-name="10 Years Ago">
          <g id="Trees">
            <g>
              <g>
                <g>
                  <path d="M65.71,245.85l4.01,2.05,5.26,2.68c-.27.05-.52.15-.75.32-.74.52-.68,1.21-.76,2.22l-.34-.02-11.52-3.02c1.17-2.05.75-4.75.53-6.05l3.57,1.82Z" fill="#f47820"/>
                  <path d="M139.27,252.4l-4.86,3.17-2.45-1.73,6.02-5.14.03.08c.05,1.26.37,2.58,1.26,3.62Z" fill="#f47820"/>
                  <path d="M160.47,313.42l-3.16,3.16-.12.06c-.73-1.61-2.08-2.94-3.65-4.15l7.62-5.26.13-.04c.35,1.1.74,1.66,1.15,2.09.43.46.89.8,1.39,1.05l-.11.2-1.83,1.47-.18.18-.19.18-1.05,1.06Z" fill="#f47820"/>
                  <path d="M39.6,309.71l-.82,2.2-4.74-3.24c.93-.26,1.78-.67,2.54-1.44l3.02,2.48Z" fill="#f47820"/>
                  <path d="M124.43,374.26c.74.88,2.42,3.29,1.62,7.86l-31.49-.11c.57-1.81,1.84-4.77,4.86-7.21,6.96-5.64,20.31-6.15,25.01-.54Z" fill="#020202"/>
                  <path d="M86.92,374.95c.74.82,2.42,3.06,1.62,7.31l-31.49-.1c.57-1.69,1.84-4.44,4.85-6.71,6.97-5.25,20.32-5.72,25.02-.5Z" fill="#020202"/>
                  <path d="M119.3,368.52l-15.39.27-5.77-29.95-11.27,31.87-23.36.83c3.57-5.22,19.24-51.67,19.24-51.67l1.64.04,23.64.65,1.02.04.08,1.2,4.12,16.21s4.95,13.74,4.95,14.57,1.1,15.94,1.1,15.94Z" fill="#f7ec13"/>
                  <path d="M127.05,283.08l-.47.11-9.35,6.32-.6.26c-1.26-3.19-3.64-5.03-4.48-5.62,0,0-2.47,5.77-2.75,7.14-.27,1.38-1.1,15.39-1.1,16.49,0,.71.35,6.35.59,10.26.06,1.01.12,1.9.16,2.56l-1.02-.04-23.64-.65v-.04c3.64-.84,6.45-7.98,4.4-12.09-.44-.89-1.06-1.53-1.77-2.03l2.32-7.31c2.79-13.62,2.49-16.77,1.65-17.04-.88-.28-2.79,3.11-6.6,9.89l-6.43-4.79c.13-.23.26-.46.39-.7,3.02-5.38,4.53-8.07,7.69-10.99,4-3.7,7.38-4.79,9.41-7.84l.21.14c3.57,2.75,7.42,4.12,8.52,4.12s5.63-.13,6.05-.13,1.37-.55,1.37-.55l4.67-3.44.35-.31c.96,1.1,1.94,2.14,2.95,3.33.65.78,4.66,5.67,7.48,12.95Z" fill="#6abd45"/>
                  <path d="M47.02,291.57l8.51-3.02c-.9,1.43-1.57,3.05-1.64,4.94-.1,2.83,1.27,2.71.83,4.68-.64,2.87-3.84,4.43-7.18,6.05l-6.47.08,3.2-6.41,2.75-6.32Z" fill="#fff"/>
                  <path d="M46.47,281.95l.55,9.62-2.75,6.32-5.22-6.32-.28.03c-.44-5.14-1.31-8.6.56-9.92,1.26-.89,2.15.35,3.57-.55.34-.22.62-.5.83-.83l2.74,1.65Z" fill="#fff"/>
                  <path d="M62.96,271.23l.07.09c-2.09,1.68-4.46,3.39-4.19,5.41l-11.27,4.58,6.05-7.33,4.67-2.47,4.67-.28Z" fill="#fff"/>
                  <path d="M60.76,279.48c.9,2.89-2.92,5.38-5.22,9.07h0l-8.51,3.02-.55-9.62-2.74-1.65c2.24-3.39-1.42-12.16,2.19-14.84,2.15-1.6,4.61.68,6.6-1.1l1.1,9.62-6.05,7.33,11.27-4.58c.19,1.41,1.44,1.2,1.92,2.75Z" fill="#fff"/>
                  <path d="M73.13,253.1l.34.02c-.06.67-.18,1.47-.62,2.45-2.38,5.29-9.7,5.62-9.62,8.24l-4.85,1.28.18-12.87c.86-.18,1.71-.47,2.48-1.32.23-.26.42-.53.57-.82l11.52,3.02Z" fill="#fff"/>
                  <path d="M65.98,267.11c.24,1.49-1.26,2.84-2.95,4.21l-.07-.09-4.67.28.09-6.42,4.85-1.28c.05,1.51,2.47,1.55,2.75,3.3Z" fill="#fff"/>
                  <path d="M58.56,252.22l-.18,12.87-.37.1.28,6.32-4.67,2.47-1.1-9.62c2.72-2.43-.67-7.77,2.2-10.71,1.15-1.19,2.51-1.16,3.84-1.43Z" fill="#fff"/>
                  <path d="M39.05,291.57l5.22,6.32-3.2,6.41-2.48,4.03-.36-4.12-.16-.03c.15-.6.3-1.31.43-2.17.63-3.96.52-7.46.27-10.41l.28-.03Z" fill="#fff"/>
                  <path d="M161.29,307.19l-.13.04-7.62,5.26c-1.39-1.07-2.94-2.06-4.36-3.06l.25-.36,4.58-14.66.33-.2,6.36,10.83.09-.02c.15.9.32,1.61.5,2.17Z" fill="#fff"/>
                  <path d="M150.12,287.02l4.22,7.19-.33.2-4.58,14.66-.25.36c-2.47-1.74-4.56-3.55-4.74-6-.15-2.02,1.18-1.69,1.49-4.51.2-1.81-.19-3.44-.83-4.94l5.02-6.96Z" fill="#fff"/>
                  <path d="M160.79,305.02l-.09.02-6.36-10.83-4.22-7.19,4.21-5.82.78.11.36-.11c.22.78.61,1.42,1.24,1.84,1.4.93,2.31-.29,3.56.63,2.9,2.14-1.12,9.44.36,20.35.05.36.1.69.16,1Z" fill="#fff"/>
                  <path d="M155.47,281.2l-.36.11-9.59-10.21.02-.04.07.04.62-6.37.4-.05c.16.52.42.98.85,1.38,1.95,1.82,4.45-.4,6.57,1.25,3.24,2.52.3,10.01,1.42,13.89Z" fill="#fff"/>
                  <path d="M154.33,281.2l-11.08-1.52c-1.29-2.96-6.31-5.98-5.48-8.61.48-1.52,2.44-1.43,3.03-2.45l4.74,2.44-.02.04,9.59,10.21-.78-.11Z" fill="#fff"/>
                  <path d="M154.33,281.2l-4.21,5.82-5.02,6.96c-1.72-4.07-5.27-7.15-3.94-9.92.7-1.46,1.91-1.07,2.3-2.44.18-.64.08-1.29-.21-1.94l11.08,1.52Z" fill="#fff"/>
                  <path d="M140.04,253.1l.49,7.71-8.04-5.52h-.05c.03-.57-.03-1.02-.48-1.45l2.45,1.73,4.86-3.17c.25.29.51.52.77.7Z" fill="#fff"/>
                  <path d="M146.63,264.68l-.4.05-5.7-3.92-.49-7.71c1.75,1.21,3.87.45,5.49,2.2,2.35,2.53.24,6.65,1.1,9.38Z" fill="#fff"/>
                  <path d="M140.53,260.81l5.7,3.92-.62,6.37-.07-.04-4.74-2.44c.09-.12.14-.26.17-.42.47-2.58-6.73-3.96-8.33-9.54-.43-1.53-.22-2.57-.2-3.37h.05l8.04,5.52Z" fill="#fff"/>
                  <path d="M88.43,203.91l2.19,1.09c-.36,1.47-1.46,4.77-1.46,4.77l-3.67,5.13-5.13,3.3s-3.29.73-4.39.73h-5.87l3.3-2.57,7.33-2.93,4.4-4.39,3.3-5.13Z" fill="#fff"/>
                  <path d="M131.3,213.43c2.19-.73,1.83,3.67,1.83,3.67,0,0-.74,1.46-4.77,1.83-4.03.36-1.46,0-4.76-.73-3.3-.74-1.1,0-4.4-1.1-3.29-1.1-1.1-.74-4.39-2.2-3.3-1.47-1.1-.37-2.93-1.83-1.84-1.47-2.94-1.84-4.77-3.3-.96-.77-1.62-1.34-2.35-1.97-.65-.57-1.37-1.19-2.4-2.05.29.1,4.83,1.89,7.32,4.02,2.56,2.2,1.46.36,2.56,1.1,1.1.73,4.4,2.2,4.4,2.2,0,0,5.5,1.46,6.96,1.46s5.5-.36,7.7-1.1Z" fill="#fff"/>
                  <path d="M147.78,218.2c0,1.83-.36,2.56-.36,4.39s-.37,3.67-1.83,6.23c-1.47,2.57-2.2,2.93-3.3,4.76-1.1,1.84-3.67,5.13-3.67,5.13-.36-5.13,1.47-13.92,1.47-13.92,0,0,.37-3.66-.37-5.13-.73-1.46.37-1.46-2.2-5.13-2.56-3.66,4.03,0-2.56-3.66-6.6-3.67-1.1-2.57-7.7-3.67-6.59-1.1-1.83.37-8.06-1.1-6.23-1.46-3.29-.73-7.32-1.46-4.04-.73-.37-.73-4.04-.73h-5.86l4.4-3.3c2.2-1.1-.37-.37,4.03-1.47s2.2-1.1,7.69-1.1,2.57,0,7.33.74c4.77.73,2.57-.37,7.33,1.83s1.1-.37,6.6,4.39c5.49,4.77,3.29,1.84,5.86,6.6q2.56,4.76,2.56,6.6Z" fill="#fff"/>
                  <path d="M69.08,221.83c-.36,1.07-.39,1.23-.62,2.41-1.57,7.85,8.84,14.8,10.44,15.94,5.64,4.02,11.84,4.53,15.71,7.05l-.6.64c-1.31,1.93-4.3,5.24-7.42,5.78-4.85.83-9-3.59-11.61-3.07l-5.26-2.68.02-.03,1.46-5.86s0-2.93-.36-5.13c-.37-2.2-4.03-5.86-4.03-5.86,0,0-1.84-9.16-2.2-10.26-.37-1.1,1.1-5.86,1.1-6.96s.36-2.2,1.1-3.67c.73-1.46,8.79-6.22,9.89-6.22s6.23-3.3,11.73-2.2c1.38.27-5.9-5.31-13.2-5.13-7.96.19-12.76,5.64-13.92,6.96-1.1,1.25-6.74,7.95-5.13,15.02.85,3.73,3.01,4.5,6.6,11.73,1.44,2.91,2.38,5.39,2.93,6.96v8.6l-3.57-1.82c-1.71-10.08-12.25-12.52-14.3-20.34-2.69-10.29,9.96-27.5,26.11-29.4,8.6-1.02,15.51,2.62,18.41,4.39l3.85,3.85,10.44-5.49c2.95-1.71,12.42-2.74,21-1.53,16.1,2.28,28.36,19.77,25.43,30-2.23,7.76-12.82,9.97-14.75,20-.15.75-.37,1.98-.32,3.27l-.03-.08-6.02,5.14c-2.24-2.13-7.49,2.61-12.64.93-3-.98-4.79-3.76-5.81-5.85l-.04-.1.33-.12c2.32-.85,4.15-.48,6.32-.28,3.59.34,7.86.73,10.99-1.09,2.35-1.38,3.37-3.6,4.12-5.23,2.99-6.46-2.19-17.03-2.19-17.03,0,0-1.35.03-4.68,0,0,0-3.26-.04-7.14-.83-8.1-1.64-22.26-15.94-22.26-15.94l-3.3-.27s-1.15,2.45-1.37,3.57c-1.24,6.37-14.13,11.52-21.99,10.99-.71-.05-2.59-.58-3.22-.76ZM102.36,205.75c1.03.86,1.75,1.48,2.4,2.05.73.63,1.39,1.2,2.35,1.97,1.83,1.46,2.93,1.83,4.77,3.3,1.83,1.46-.37.36,2.93,1.83,3.29,1.46,1.1,1.1,4.39,2.2,3.3,1.1,1.1.36,4.4,1.1,3.3.73.73,1.09,4.76.73,4.03-.37,4.77-1.83,4.77-1.83,0,0,.36-4.4-1.83-3.67-2.2.74-6.23,1.1-7.7,1.1s-6.96-1.46-6.96-1.46c0,0-3.3-1.47-4.4-2.2-1.1-.74,0,1.1-2.56-1.1-2.49-2.13-7.03-3.92-7.32-4.02ZM147.42,222.59c0-1.83.36-2.56.36-4.39s0-1.84-2.56-6.6c-2.57-4.76-.37-1.83-5.86-6.6-5.5-4.76-1.84-2.19-6.6-4.39s-2.56-1.1-7.33-1.83c-4.76-.74-1.83-.74-7.33-.74s-3.29,0-7.69,1.1-1.83.37-4.03,1.47l-4.4,3.3h5.86c3.67,0,0,0,4.04.73,4.03.73,1.09,0,7.32,1.46,6.23,1.47,1.47,0,8.06,1.1,6.6,1.1,1.1,0,7.7,3.67,6.59,3.66,0,0,2.56,3.66,2.57,3.67,1.47,3.67,2.2,5.13.74,1.47.37,5.13.37,5.13,0,0-1.83,8.79-1.47,13.92,0,0,2.57-3.29,3.67-5.13,1.1-1.83,1.83-2.19,3.3-4.76,1.46-2.56,1.83-4.4,1.83-6.23ZM90.62,205l-2.19-1.09-3.3,5.13-4.4,4.39-7.33,2.93-3.3,2.57h5.87c1.1,0,4.39-.73,4.39-.73l5.13-3.3,3.67-5.13s1.1-3.3,1.46-4.77Z" fill="#fff"/>
                  <path d="M75.23,196.58c7.3-.18,14.58,5.4,13.2,5.13-5.5-1.1-10.63,2.2-11.73,2.2s-9.16,4.76-9.89,6.22c-.74,1.47-1.1,2.57-1.1,3.67s-1.47,5.86-1.1,6.96c.36,1.1,2.2,10.26,2.2,10.26,0,0,3.66,3.66,4.03,5.86.36,2.2.36,5.13.36,5.13l-1.46,5.86-.02.03-4.01-2.05v-8.6c-.55-1.57-1.49-4.05-2.93-6.96-3.59-7.23-5.75-8-6.6-11.73-1.61-7.07,4.03-13.77,5.13-15.02,1.16-1.32,5.96-6.77,13.92-6.96Z" fill="#fff"/>
                  <path d="M88.79,307.78c2.05,4.11-.76,11.25-4.4,12.09-.5.12-11.83-8.07-12.64-15.38-.62-5.64,1.84-10.21,6.21-17.99l6.43,4.79c-4.15,7.4-4.23,8.76-3.84,9.9.93,2.77,4.16,2.91,6.47,4.56.71.5,1.33,1.14,1.77,2.03Z" fill="#905f26"/>
                  <path d="M129.74,294.32c.38,4.35.62,7.07-.83,10.17-2.82,6.06-10.16,9.51-16.21,12.36-1.04.49-1.91.87-2.47,1.1l-.28-11.27,1.93-1.37c1.15-.98,3.45-3.22,4.67-6.87.46-1.4,1.29-3.98.55-7.15-.13-.54-.29-1.04-.47-1.52l.6-.26,9.35-6.32.47-.11c1.29,3.31,2.33,7.11,2.69,11.24Z" fill="#905f26"/>
                  <path d="M133.04,225.07s5.18,10.57,2.19,17.03c-.75,1.63-1.77,3.85-4.12,5.23-3.13,1.82-7.4,1.43-10.99,1.09-2.17-.2-4-.57-6.32.28l-.33.12c-.89.34-1.98.82-2.69,1.8-1.96,2.69.23,7.29,1.37,9.62,1.43,2.91,2.92,4.81,4.47,6.56l-.35.31-4.67,3.44s-.96.55-1.37.55-4.95.13-6.05.13-4.95-1.37-8.52-4.12l-.21-.14c.4-.6.75-1.27,1.04-2.06.68-1.86.85-3.82,1.1-6.59.32-3.67.74-6.02,0-7.7-.66-1.49-1.7-2.55-2.98-3.39-3.87-2.52-10.07-3.03-15.71-7.05-1.6-1.14-12.01-8.09-10.44-15.94.23-1.18.26-1.34.62-2.41.63.18,2.51.71,3.22.76,7.86.53,20.75-4.62,21.99-10.99.22-1.12,1.37-3.57,1.37-3.57l3.3.27s14.16,14.3,22.26,15.94c3.88.79,7.14.83,7.14.83,3.33.03,4.68,0,4.68,0ZM121.04,233.58c.84-1.17,1.1-2.87.55-4.3-.65-1.65-4.13-2.93-4.95-3.39l-29.68-.37-1.1.28-.3.09c-3.1.95-5.01,2.76-4.92,4.4.06,1.07.97,1.83,1.74,2.47,2.14,1.78,5.27,2.46,8.15,1.83,1.79-.39,1.31-.81,5.04-2.38,2.01-.84,3.93-1.63,6.5-1.92,1.91-.22,3.27-.37,4.77.27,2.15.93,2.07,2.43,3.94,3.76,2.97,2.12,8.31,1.97,10.26-.74Z" fill="#905f26"/>
                  <path d="M121.59,229.28c.55,1.43.29,3.13-.55,4.3-1.95,2.71-7.29,2.86-10.26.74-1.87-1.33-1.79-2.83-3.94-3.76-1.5-.64-2.86-.49-4.77-.27-2.57.29-4.49,1.08-6.5,1.92-3.73,1.57-3.25,1.99-5.04,2.38-2.88.63-6.01-.05-8.15-1.83-.77-.64-1.68-1.4-1.74-2.47-.09-1.64,1.82-3.45,4.92-4.4l.3-.09,1.1-.28,29.68.37c.82.46,4.3,1.74,4.95,3.39ZM115.63,230.1c0-.65-.57-1.19-1.28-1.19s-1.28.54-1.28,1.19.57,1.19,1.28,1.19,1.28-.53,1.28-1.19ZM90.26,229.92c0-.66-.58-1.19-1.29-1.19s-1.28.53-1.28,1.19.58,1.19,1.28,1.19,1.29-.53,1.29-1.19Z" fill="#fff"/>
                  <ellipse cx="114.35" cy="230.1" rx="1.28" ry="1.19" fill="#231f20"/>
                  <path d="M88.97,228.73c.71,0,1.29.53,1.29,1.19s-.58,1.19-1.29,1.19-1.28-.53-1.28-1.19.58-1.19,1.28-1.19Z" fill="#231f20"/>
                </g>
                <g>
                  <path d="M87.02,305.75l2.32-7.31c2.79-13.62,2.49-16.77,1.65-17.04-.88-.28-2.79,3.11-6.6,9.89-4.15,7.4-4.23,8.76-3.84,9.9.93,2.77,4.16,2.91,6.47,4.56.71.5,1.33,1.14,1.77,2.03,2.05,4.11-.76,11.25-4.4,12.09-.5.12-11.83-8.07-12.64-15.38-.62-5.64,1.84-10.21,6.21-17.99.13-.23.26-.46.39-.7,3.02-5.38,4.53-8.07,7.69-10.99,4-3.7,7.38-4.79,9.41-7.84.4-.6.75-1.27,1.04-2.06.68-1.86.85-3.82,1.1-6.59.32-3.67.74-6.02,0-7.7-.66-1.49-1.7-2.55-2.98-3.39-3.87-2.52-10.07-3.03-15.71-7.05-1.6-1.14-12.01-8.09-10.44-15.94.23-1.18.26-1.34.62-2.41.06-.18.12-.38.2-.61" fill="none" stroke="#231f20" stroke-miterlimit="10" stroke-width="2"/>
                  <path d="M68.87,221.77s.08.02.21.06c.63.18,2.51.71,3.22.76,7.86.53,20.75-4.62,21.99-10.99.22-1.12,1.37-3.57,1.37-3.57l3.3.27s14.16,14.3,22.26,15.94c3.88.79,7.14.83,7.14.83,3.33.03,4.68,0,4.68,0,0,0,5.18,10.57,2.19,17.03-.75,1.63-1.77,3.85-4.12,5.23-3.13,1.82-7.4,1.43-10.99,1.09-2.17-.2-4-.57-6.32.28l-.33.12c-.89.34-1.98.82-2.69,1.8-1.96,2.69.23,7.29,1.37,9.62,1.43,2.91,2.92,4.81,4.47,6.56.96,1.1,1.94,2.14,2.95,3.33.65.78,4.66,5.67,7.48,12.95,1.29,3.31,2.33,7.11,2.69,11.24.38,4.35.62,7.07-.83,10.17-2.82,6.06-10.16,9.51-16.21,12.36-1.04.49-1.91.87-2.47,1.1l-.28-11.27,1.93-1.37c1.15-.98,3.45-3.22,4.67-6.87.46-1.4,1.29-3.98.55-7.15-.13-.54-.29-1.04-.47-1.52-1.26-3.19-3.64-5.03-4.48-5.62,0,0-2.47,5.77-2.75,7.14-.27,1.38-1.1,15.39-1.1,16.49,0,.71.35,6.35.59,10.26.06,1.01.12,1.9.16,2.56l.08,1.2,4.12,16.21s4.95,13.74,4.95,14.57,1.1,15.94,1.1,15.94l-15.39.27-5.77-29.95-11.27,31.87-23.36.83c3.57-5.22,19.24-51.67,19.24-51.67l1.64.04,23.64.65" fill="none" stroke="#231f20" stroke-miterlimit="10" stroke-width="2"/>
                  <path d="M88.54,382.26c.8-4.25-.88-6.49-1.62-7.31-4.7-5.22-18.05-4.75-25.02.5-3.01,2.27-4.28,5.02-4.85,6.71l31.49.1Z" fill="none" stroke="#231f20" stroke-miterlimit="10" stroke-width="2"/>
                  <path d="M126.05,382.12c.8-4.57-.88-6.98-1.62-7.86-4.7-5.61-18.05-5.1-25.01.54-3.02,2.44-4.29,5.4-4.86,7.21l31.49.11Z" fill="none" stroke="#231f20" stroke-miterlimit="10" stroke-width="2"/>
                  <polyline points="95.8 284.42 95.94 288.13 97.45 289.51 99.78 289.65 100.88 288.55 100.88 284.84" fill="none" stroke="#231f20" stroke-miterlimit="10" stroke-width="2"/>
                  <polyline points="77.94 286.49 77.96 286.5 84.39 291.29" fill="none" stroke="#231f20" stroke-miterlimit="10" stroke-width="2"/>
                  <line x1="117.23" y1="289.51" x2="126.58" y2="283.19" fill="none" stroke="#231f20" stroke-miterlimit="10" stroke-width="2"/>
                  <path d="M95.66,267.11c3.57,2.75,7.42,4.12,8.52,4.12s5.63-.13,6.05-.13,1.37-.55,1.37-.55l4.67-3.44" fill="none" stroke="#231f20" stroke-miterlimit="10" stroke-width="2"/>
                  <path d="M105.14,222.87c.62-.07,5.29-1.17,5.29-1.17l-1.23,2.47,4.67-1.17" fill="none" stroke="#231f20" stroke-miterlimit="10" stroke-width=".75"/>
                  <path d="M93.39,222.39c-.61-.07-5.29-1.17-5.29-1.17l1.24,2.47-4.67-1.17" fill="none" stroke="#231f20" stroke-miterlimit="10" stroke-width=".75"/>
                  <path d="M85.86,225.8l-.3.09c-3.1.95-5.01,2.76-4.92,4.4.06,1.07.97,1.83,1.74,2.47,2.14,1.78,5.27,2.46,8.15,1.83,1.79-.39,1.31-.81,5.04-2.38,2.01-.84,3.93-1.63,6.5-1.92,1.91-.22,3.27-.37,4.77.27,2.15.93,2.07,2.43,3.94,3.76,2.97,2.12,8.31,1.97,10.26-.74.84-1.17,1.1-2.87.55-4.3-.65-1.65-4.13-2.93-4.95-3.39l-29.68-.37-1.1.28Z" fill="none" stroke="#231f20" stroke-miterlimit="10" stroke-width=".75"/>
                  <polyline points="100.7 233.95 100.43 236.61 103.91 236.7" fill="none" stroke="#231f20" stroke-miterlimit="10" stroke-width=".75"/>
                  <polyline points="79.45 235.23 81.1 234.78 81.37 236.88 83.39 236.61 83.84 238.17 85.77 236.33 87.05 237.07" fill="none" stroke="#231f20" stroke-miterlimit="10" stroke-width=".75"/>
                  <polyline points="116.18 239.62 116.73 238.62 118.38 239.26 118.84 237.24 120.94 238.62 121.13 236.42 122.41 238.42" fill="none" stroke="#231f20" stroke-miterlimit="10" stroke-width=".75"/>
                  <path d="M90.26,229.92c0,.66-.58,1.19-1.29,1.19s-1.28-.53-1.28-1.19.58-1.19,1.28-1.19,1.29.53,1.29,1.19Z" fill="none" stroke="#231f20" stroke-miterlimit="10" stroke-width=".75"/>
                  <ellipse cx="114.35" cy="230.1" rx="1.28" ry="1.19" fill="none" stroke="#231f20" stroke-miterlimit="10" stroke-width=".75"/>
                  <path d="M106.44,243.61c-.84-2.6-4.13-3.87-7.36-2.83" fill="none" stroke="#231f20" stroke-miterlimit="10" stroke-width=".75"/>
                  <path d="M20.64,315.48c1.18-1.75,2.93-3.69,5.5-4.95,3.07-1.51,5.72-1.25,7.9-1.86.93-.26,1.78-.67,2.54-1.44.53-.53,1.03-1.27,1.49-3.05.15-.6.3-1.31.43-2.17.63-3.96.52-7.46.27-10.41-.44-5.14-1.31-8.6.56-9.92,1.26-.89,2.15.35,3.57-.55.34-.22.62-.5.83-.83,2.24-3.39-1.42-12.16,2.19-14.84,2.15-1.6,4.61.68,6.6-1.1,2.72-2.43-.67-7.77,2.2-10.71,1.15-1.19,2.51-1.16,3.84-1.43.86-.18,1.71-.47,2.48-1.32.23-.26.42-.53.57-.82,1.17-2.05.75-4.75.53-6.05-1.71-10.08-12.25-12.52-14.3-20.34-2.69-10.29,9.96-27.5,26.11-29.4,8.6-1.02,15.51,2.62,18.41,4.39l3.85,3.85,10.44-5.49c2.95-1.71,12.42-2.74,21-1.53,16.1,2.28,28.36,19.77,25.43,30-2.23,7.76-12.82,9.97-14.75,20-.15.75-.37,1.98-.32,3.27.05,1.26.37,2.58,1.26,3.62.25.29.51.52.77.7,1.75,1.21,3.87.45,5.49,2.2,2.35,2.53.24,6.65,1.1,9.38.16.52.42.98.85,1.38,1.95,1.82,4.45-.4,6.57,1.25,3.24,2.52.3,10.01,1.42,13.89.22.78.61,1.42,1.24,1.84,1.4.93,2.31-.29,3.56.63,2.9,2.14-1.12,9.44.36,20.35.05.36.1.69.16,1,.15.9.32,1.61.5,2.17.35,1.1.74,1.66,1.15,2.09.43.46.89.8,1.39,1.05,2.35,1.23,5.39.63,8.97,2.49,2.53,1.32,4.24,3.3,5.38,5.07" fill="none" stroke="#231f20" stroke-miterlimit="10" stroke-width=".75"/>
                  <path d="M55.53,288.55c-.9,1.43-1.57,3.05-1.64,4.94-.1,2.83,1.27,2.71.83,4.68-.64,2.87-3.84,4.43-7.18,6.05-3.3,1.6-6.73,3.27-7.94,6.31-.3.76-.8,2.03-.55,3.57.3,1.89,1.45,2.49,1.92,4.4.24.92.35,2.28-.27,4.12" fill="none" stroke="#231f20" stroke-miterlimit="10" stroke-width=".75"/>
                  <path d="M94.01,247.87c-1.31,1.93-4.3,5.24-7.42,5.78-4.85.83-9-3.59-11.61-3.07-.27.05-.52.15-.75.32-.74.52-.68,1.21-.76,2.22-.06.67-.18,1.47-.62,2.45-2.38,5.29-9.7,5.62-9.62,8.24.05,1.51,2.47,1.55,2.75,3.3.24,1.49-1.26,2.84-2.95,4.21-2.09,1.68-4.46,3.39-4.19,5.41.19,1.41,1.44,1.2,1.92,2.75.9,2.89-2.92,5.38-5.22,9.07" fill="none" stroke="#231f20" stroke-miterlimit="10" stroke-width=".75"/>
                  <path d="M113.51,248.92c1.02,2.09,2.81,4.87,5.81,5.85,5.15,1.68,10.4-3.06,12.64-.93.45.43.51.88.48,1.45-.02.8-.23,1.84.2,3.37,1.6,5.58,8.8,6.96,8.33,9.54-.03.16-.08.3-.17.42-.59,1.02-2.55.93-3.03,2.45-.83,2.63,4.19,5.65,5.48,8.61.29.65.39,1.3.21,1.94-.39,1.37-1.6.98-2.3,2.44-1.33,2.77,2.22,5.85,3.94,9.92.64,1.5,1.03,3.13.83,4.94-.31,2.82-1.64,2.49-1.49,4.51.18,2.45,2.27,4.26,4.74,6,1.42,1,2.97,1.99,4.36,3.06,1.57,1.21,2.92,2.54,3.65,4.15.18.38.32.78.42,1.2.19.8.5,2.12.03,3.62-.57,1.82-1.79,2.25-2.54,4.07-.36.88-.67,2.21-.32,4.12" fill="none" stroke="#231f20" stroke-miterlimit="10" stroke-width=".75"/>
                  <polyline points="58.56 252 58.56 252.22 58.38 265.09 58.29 271.51 53.62 273.98 52.52 264.36" fill="none" stroke="#231f20" stroke-miterlimit="10" stroke-width=".75"/>
                  <polyline points="62.14 244.03 65.71 245.85 69.72 247.9 74.98 250.58 75.05 250.62" fill="none" stroke="#231f20" stroke-miterlimit="10" stroke-width=".75"/>
                  <polyline points="61.59 250.07 61.61 250.08 73.13 253.1" fill="none" stroke="#231f20" stroke-miterlimit="10" stroke-width=".75"/>
                  <polyline points="63.23 263.81 58.38 265.09 58.01 265.19 58.29 271.51 62.96 271.23" fill="none" stroke="#231f20" stroke-miterlimit="10" stroke-width=".75"/>
                  <polyline points="58.84 276.73 47.57 281.31 53.62 273.98" fill="none" stroke="#231f20" stroke-miterlimit="10" stroke-width=".75"/>
                  <polyline points="43.72 280.3 43.73 280.3 46.47 281.95 47.02 291.57 55.53 288.55 55.54 288.55" fill="none" stroke="#231f20" stroke-miterlimit="10" stroke-width=".75"/>
                  <polyline points="39.05 291.57 44.27 297.89 47.02 291.57" fill="none" stroke="#231f20" stroke-miterlimit="10" stroke-width=".75"/>
                  <polyline points="48.12 304.21 47.54 304.22 41.07 304.3 44.27 297.89" fill="none" stroke="#231f20" stroke-miterlimit="10" stroke-width=".75"/>
                  <polyline points="38.23 304.21 38.59 308.33 41.07 304.3" fill="none" stroke="#231f20" stroke-miterlimit="10" stroke-width=".75"/>
                  <polygon points="36.58 307.23 39.6 309.71 38.78 311.91 34.04 308.67 33.55 308.33 36.58 307.23" fill="none" stroke="#231f20" stroke-miterlimit="10" stroke-width=".75"/>
                  <path d="M34.72,309.5c-1.23.83-2.88,1.1-3.78,1.17-.89.07-7.76,5.7-7.76,5.7" fill="none" stroke="#231f20" stroke-miterlimit="10" stroke-width=".75"/>
                  <path d="M35.89,310.33c-1.51,1.85-2.13,1.78-2.95,1.99-.83.2-3.23,2.33-3.78,3.09s-2.68,3.23-2.68,3.23" fill="none" stroke="#231f20" stroke-miterlimit="10" stroke-width=".75"/>
                  <path d="M37.54,311.22c-.62,1.92-.96,2.47-.48,3.43.48.97.75,1.52,1.03,2,.27.48.55.75.62,2.13.07,1.37,0,2.06-.28,2.88-.27.83-.41,1.31-.41,1.31" fill="none" stroke="#231f20" stroke-miterlimit="10" stroke-width=".75"/>
                  <path d="M36.51,310.74c-1.03,2.61-1.1,3.16-1.51,3.64s-1.45,1.58-1.72,1.79c-.27.2-.96.82-1.44,1.44s-1.72,2.68-1.86,3.02" fill="none" stroke="#231f20" stroke-miterlimit="10" stroke-width=".75"/>
                  <path d="M35,314.38c.2.48-.07,1.65.2,1.92s.48,1.86.48,2.2-.2,1.92-.2,1.92l-.41,1.65" fill="none" stroke="#231f20" stroke-miterlimit="10" stroke-width=".75"/>
                  <polyline points="140.04 253.03 140.04 253.1 140.53 260.81 140.55 261.16" fill="none" stroke="#231f20" stroke-miterlimit="10" stroke-width=".75"/>
                  <polyline points="132.49 255.29 140.53 260.81 146.23 264.73 145.61 271.1 145.54 271.06 140.8 268.62 140.36 268.39" fill="none" stroke="#231f20" stroke-miterlimit="10" stroke-width=".75"/>
                  <polyline points="145.52 271.1 155.11 281.31 154.33 281.2 143.25 279.68 143.11 279.66" fill="none" stroke="#231f20" stroke-miterlimit="10" stroke-width=".75"/>
                  <polyline points="154.38 281.13 154.33 281.2 150.12 287.02 145.1 293.98 144.85 294.32" fill="none" stroke="#231f20" stroke-miterlimit="10" stroke-width=".75"/>
                  <polyline points="160.7 305.04 154.34 294.21 150.12 287.02" fill="none" stroke="#231f20" stroke-miterlimit="10" stroke-width=".75"/>
                  <line x1="154.01" y1="294.41" x2="149.43" y2="309.07" fill="none" stroke="#231f20" stroke-miterlimit="10" stroke-width=".75"/>
                  <polyline points="161.16 307.23 153.54 312.49 153.46 312.55" fill="none" stroke="#231f20" stroke-miterlimit="10" stroke-width=".75"/>
                  <path d="M157.31,316.58l3.16-3.16,1.05-1.06.19-.18.18-.18,1.83-1.47c1.65,5.31,6.05,4.03,6.6,4.22.55.18,4.4,4.21,4.4,4.21" fill="none" stroke="#231f20" stroke-miterlimit="10" stroke-width=".75"/>
                  <path d="M161.71,312.18s1.19,1.56,1.83,2.2,2.01,2.29,2.2,2.93c.18.64.73,1.65,1.19,2.29s.73,1.74,1.19,1.92c.46.19,1.19,1.19,1.19,1.19" fill="none" stroke="#231f20" stroke-miterlimit="10" stroke-width=".75"/>
                  <path d="M159.42,314.56c.46.73.55,2.48.64,3.3s.18,2.93,0,3.48-.09,1.28-.73,2.02c-.65.73-.46.27-.83,1.46-.36,1.19-.55,1.28-.46,2.29.1,1.01.28,2.02.28,2.02" fill="none" stroke="#231f20" stroke-miterlimit="10" stroke-width=".75"/>
                  <path d="M160.43,313.37s.03.03.04.05c1.34,1.62,1.6,2.8,1.79,3.34.18.55.46,2.2.55,2.93s.27,1.38.55,2.29c.27.92.55,2.02.91,2.48.37.45.74,1.19.74,1.19" fill="none" stroke="#231f20" stroke-miterlimit="10" stroke-width=".75"/>
                  <path d="M65.71,246.41v-9.16c-.55-1.57-1.49-4.05-2.93-6.96-3.59-7.23-5.75-8-6.6-11.73-1.61-7.07,4.03-13.77,5.13-15.02,1.16-1.32,5.96-6.77,13.92-6.96,7.3-.18,14.58,5.4,13.2,5.13-5.5-1.1-10.63,2.2-11.73,2.2s-9.16,4.76-9.89,6.22c-.74,1.47-1.1,2.57-1.1,3.67s-1.47,5.86-1.1,6.96c.36,1.1,2.2,10.26,2.2,10.26,0,0,3.66,3.66,4.03,5.86.36,2.2.36,5.13.36,5.13l-1.46,5.86" fill="none" stroke="#231f20" stroke-miterlimit="10" stroke-width=".75"/>
                  <path d="M90.62,205c-.36,1.47-1.46,4.77-1.46,4.77l-3.67,5.13-5.13,3.3s-3.29.73-4.39.73h-5.87l3.3-2.57,7.33-2.93,4.4-4.39,3.3-5.13,2.19,1.09Z" fill="none" stroke="#231f20" stroke-miterlimit="10" stroke-width=".75"/>
                  <path d="M102.36,205.75c1.03.86,1.75,1.48,2.4,2.05.73.63,1.39,1.2,2.35,1.97,1.83,1.46,2.93,1.83,4.77,3.3,1.83,1.46-.37.36,2.93,1.83,3.29,1.46,1.1,1.1,4.39,2.2,3.3,1.1,1.1.36,4.4,1.1,3.3.73.73,1.09,4.76.73,4.03-.37,4.77-1.83,4.77-1.83,0,0,.36-4.4-1.83-3.67-2.2.74-6.23,1.1-7.7,1.1s-6.96-1.46-6.96-1.46c0,0-3.3-1.47-4.4-2.2-1.1-.74,0,1.1-2.56-1.1-2.49-2.13-7.03-3.92-7.32-4.02Z" fill="none" stroke="#231f20" stroke-miterlimit="10" stroke-width=".75"/>
                  <line x1="102.35" y1="205.74" x2="102.36" y2="205.75" fill="none" stroke="#231f20" stroke-miterlimit="10" stroke-width=".75"/>
                  <path d="M106.38,200.61c2.2-1.1-.37-.37,4.03-1.47s2.2-1.1,7.69-1.1,2.57,0,7.33.74c4.77.73,2.57-.37,7.33,1.83s1.1-.37,6.6,4.39c5.49,4.77,3.29,1.84,5.86,6.6q2.56,4.76,2.56,6.6c0,1.83-.36,2.56-.36,4.39s-.37,3.67-1.83,6.23c-1.47,2.57-2.2,2.93-3.3,4.76-1.1,1.84-3.67,5.13-3.67,5.13-.36-5.13,1.47-13.92,1.47-13.92,0,0,.37-3.66-.37-5.13-.73-1.46.37-1.46-2.2-5.13-2.56-3.66,4.03,0-2.56-3.66-6.6-3.67-1.1-2.57-7.7-3.67-6.59-1.1-1.83.37-8.06-1.1-6.23-1.46-3.29-.73-7.32-1.46-4.04-.73-.37-.73-4.04-.73h-5.86l4.4-3.3Z" fill="none" stroke="#231f20" stroke-miterlimit="10" stroke-width=".75"/>
                  <polygon points="131.96 253.84 137.98 248.7 138.01 248.78 139.27 252.4 134.41 255.57 131.96 253.84" fill="none" stroke="#231f20" stroke-miterlimit="10" stroke-width=".75"/>
                </g>
              </g>
              <polyline points="275.38 87.66 289.4 110.75 307.54 128.89" fill="none" stroke="#231f20" stroke-miterlimit="10"/>
              <line x1="298.47" y1="120.64" x2="310.01" y2="114.87" fill="none" stroke="#231f20" stroke-miterlimit="10"/>
              <polyline points="258.07 100.03 287.75 120.64 289.12 122.02" fill="none" stroke="#231f20" stroke-miterlimit="10"/>
              <line x1="266.04" y1="98.11" x2="268.51" y2="107.73" fill="none" stroke="#231f20" stroke-miterlimit="10"/>
              <line x1="263.02" y1="104.43" x2="254.22" y2="105.25" fill="none" stroke="#231f20" stroke-miterlimit="10"/>
              <line x1="276.21" y1="113.77" x2="268.79" y2="118.17" fill="none" stroke="#231f20" stroke-miterlimit="10"/>
              <line x1="267.96" y1="113.77" x2="272.09" y2="115.97" fill="none" stroke="#231f20" stroke-miterlimit="10"/>
              <polyline points="285.55 90.14 288.85 93.71 294.62 85.47" fill="none" stroke="#231f20" stroke-miterlimit="10"/>
              <line x1="276.48" y1="97.83" x2="282.53" y2="100.31" fill="none" stroke="#231f20" stroke-miterlimit="10"/>
              <line x1="289.12" y1="134.93" x2="299.02" y2="125.04" fill="none" stroke="#231f20" stroke-miterlimit="10"/>
              <line x1="292.42" y1="131.63" x2="294.07" y2="133.28" fill="none" stroke="#231f20" stroke-miterlimit="10"/>
              <line x1="289.12" y1="137.4" x2="266.86" y2="125.31" fill="none" stroke="#231f20" stroke-miterlimit="10"/>
              <line x1="270.71" y1="123.66" x2="272.63" y2="128.06" fill="none" stroke="#231f20" stroke-miterlimit="10"/>
              <line x1="275.66" y1="130.26" x2="262.47" y2="136.31" fill="none" stroke="#231f20" stroke-miterlimit="10"/>
              <line x1="281.43" y1="133.56" x2="279.78" y2="129.16" fill="none" stroke="#231f20" stroke-miterlimit="10"/>
              <line x1="293.52" y1="114.32" x2="303.14" y2="97.01" fill="none" stroke="#231f20" stroke-miterlimit="10"/>
              <polyline points="294.07 92.89 298.74 103.88 300.39 101.95 306.99 101.13 311.66 94.26" fill="none" stroke="#231f20" stroke-miterlimit="10"/>
              <line x1="171.5" y1="78.6" x2="171.5" y2="165.98" fill="none" stroke="#231f20" stroke-miterlimit="10"/>
              <polyline points="157.49 76.12 171.5 99.21 189.64 117.34" fill="none" stroke="#231f20" stroke-miterlimit="10"/>
              <line x1="180.57" y1="109.1" x2="192.12" y2="103.33" fill="none" stroke="#231f20" stroke-miterlimit="10"/>
              <polyline points="140.18 88.49 169.86 109.1 171.23 110.47" fill="none" stroke="#231f20" stroke-miterlimit="10"/>
              <line x1="148.15" y1="86.56" x2="150.62" y2="96.18" fill="none" stroke="#231f20" stroke-miterlimit="10"/>
              <line x1="145.12" y1="92.89" x2="136.33" y2="93.71" fill="none" stroke="#231f20" stroke-miterlimit="10"/>
              <line x1="158.31" y1="102.23" x2="150.89" y2="106.63" fill="none" stroke="#231f20" stroke-miterlimit="10"/>
              <line x1="150.07" y1="102.23" x2="154.19" y2="104.43" fill="none" stroke="#231f20" stroke-miterlimit="10"/>
              <polyline points="167.66 78.6 170.96 82.17 176.73 73.92" fill="none" stroke="#231f20" stroke-miterlimit="10"/>
              <line x1="158.59" y1="86.29" x2="164.63" y2="88.76" fill="none" stroke="#231f20" stroke-miterlimit="10"/>
              <line x1="171.23" y1="123.39" x2="181.12" y2="113.5" fill="none" stroke="#231f20" stroke-miterlimit="10"/>
              <line x1="174.53" y1="120.09" x2="176.18" y2="121.74" fill="none" stroke="#231f20" stroke-miterlimit="10"/>
              <line x1="171.23" y1="125.86" x2="148.97" y2="113.77" fill="none" stroke="#231f20" stroke-miterlimit="10"/>
              <line x1="152.82" y1="112.12" x2="154.74" y2="116.52" fill="none" stroke="#231f20" stroke-miterlimit="10"/>
              <line x1="157.76" y1="118.72" x2="144.57" y2="124.76" fill="none" stroke="#231f20" stroke-miterlimit="10"/>
              <line x1="163.54" y1="122.02" x2="161.89" y2="117.62" fill="none" stroke="#231f20" stroke-miterlimit="10"/>
              <line x1="175.63" y1="102.78" x2="185.25" y2="85.47" fill="none" stroke="#231f20" stroke-miterlimit="10"/>
              <polyline points="176.18 81.34 180.85 92.34 182.5 90.41 189.09 89.59 193.76 82.72" fill="none" stroke="#231f20" stroke-miterlimit="10"/>
              <line x1="106.38" y1="62.93" x2="106.38" y2="150.32" fill="none" stroke="#231f20" stroke-miterlimit="10"/>
              <polyline points="92.36 60.46 106.38 83.54 124.51 101.68" fill="none" stroke="#231f20" stroke-miterlimit="10"/>
              <line x1="115.44" y1="93.44" x2="126.99" y2="87.66" fill="none" stroke="#231f20" stroke-miterlimit="10"/>
              <polyline points="75.05 72.82 104.73 93.44 106.1 94.81" fill="none" stroke="#231f20" stroke-miterlimit="10"/>
              <line x1="83.02" y1="70.9" x2="85.49" y2="80.52" fill="none" stroke="#231f20" stroke-miterlimit="10"/>
              <line x1="79.99" y1="77.22" x2="71.2" y2="78.05" fill="none" stroke="#231f20" stroke-miterlimit="10"/>
              <line x1="93.18" y1="86.56" x2="85.76" y2="90.96" fill="none" stroke="#231f20" stroke-miterlimit="10"/>
              <line x1="84.94" y1="86.56" x2="89.06" y2="88.76" fill="none" stroke="#231f20" stroke-miterlimit="10"/>
              <polyline points="102.53 62.93 105.83 66.5 111.6 58.26" fill="none" stroke="#231f20" stroke-miterlimit="10"/>
              <line x1="93.46" y1="70.63" x2="99.5" y2="73.1" fill="none" stroke="#231f20" stroke-miterlimit="10"/>
              <line x1="106.1" y1="107.73" x2="115.99" y2="97.83" fill="none" stroke="#231f20" stroke-miterlimit="10"/>
              <line x1="109.4" y1="104.43" x2="111.05" y2="106.08" fill="none" stroke="#231f20" stroke-miterlimit="10"/>
              <line x1="106.1" y1="110.2" x2="83.84" y2="98.11" fill="none" stroke="#231f20" stroke-miterlimit="10"/>
              <line x1="87.69" y1="96.46" x2="89.61" y2="100.85" fill="none" stroke="#231f20" stroke-miterlimit="10"/>
              <line x1="92.63" y1="103.05" x2="79.44" y2="109.1" fill="none" stroke="#231f20" stroke-miterlimit="10"/>
              <line x1="98.41" y1="106.35" x2="96.76" y2="101.95" fill="none" stroke="#231f20" stroke-miterlimit="10"/>
              <line x1="110.5" y1="87.11" x2="120.12" y2="69.8" fill="none" stroke="#231f20" stroke-miterlimit="10"/>
              <polyline points="111.05 65.68 115.72 76.67 117.37 74.75 123.96 73.92 128.63 67.05" fill="none" stroke="#231f20" stroke-miterlimit="10"/>
              <line x1="320.45" y1="231.11" x2="318.53" y2="235.51" fill="none" stroke="#231f20" stroke-miterlimit="10"/>
              <line x1="315.5" y1="237.71" x2="328.7" y2="243.76" fill="none" stroke="#231f20" stroke-miterlimit="10"/>
              <line x1="309.73" y1="241.01" x2="311.38" y2="236.61" fill="none" stroke="#231f20" stroke-miterlimit="10"/>
              <line x1="297.64" y1="221.77" x2="288.02" y2="204.46" fill="none" stroke="#231f20" stroke-miterlimit="10"/>
              <polyline points="297.09 200.34 292.42 211.33 290.77 209.4 284.18 208.58 279.5 201.71" fill="none" stroke="#231f20" stroke-miterlimit="10"/>
              <line x1="182.22" y1="24.46" x2="182.22" y2="111.85" fill="none" stroke="#231f20" stroke-miterlimit="10"/>
              <polyline points="196.24 21.98 182.22 45.07 164.09 63.21" fill="none" stroke="#231f20" stroke-miterlimit="10"/>
              <line x1="173.15" y1="54.96" x2="161.61" y2="49.19" fill="none" stroke="#231f20" stroke-miterlimit="10"/>
              <polyline points="213.55 34.35 183.87 54.96 182.5 56.34" fill="none" stroke="#231f20" stroke-miterlimit="10"/>
              <line x1="205.58" y1="32.43" x2="203.11" y2="42.05" fill="none" stroke="#231f20" stroke-miterlimit="10"/>
              <line x1="208.6" y1="38.75" x2="217.4" y2="39.57" fill="none" stroke="#231f20" stroke-miterlimit="10"/>
              <line x1="195.41" y1="48.09" x2="202.83" y2="52.49" fill="none" stroke="#231f20" stroke-miterlimit="10"/>
              <line x1="203.66" y1="48.09" x2="199.54" y2="50.29" fill="none" stroke="#231f20" stroke-miterlimit="10"/>
              <polyline points="186.07 24.46 182.77 28.03 177 19.79" fill="none" stroke="#231f20" stroke-miterlimit="10"/>
              <line x1="195.14" y1="32.15" x2="189.09" y2="34.63" fill="none" stroke="#231f20" stroke-miterlimit="10"/>
              <line x1="182.5" y1="69.25" x2="172.6" y2="59.36" fill="none" stroke="#231f20" stroke-miterlimit="10"/>
              <line x1="179.2" y1="65.95" x2="177.55" y2="67.6" fill="none" stroke="#231f20" stroke-miterlimit="10"/>
              <line x1="182.5" y1="71.73" x2="204.76" y2="59.63" fill="none" stroke="#231f20" stroke-miterlimit="10"/>
              <line x1="200.91" y1="57.98" x2="198.99" y2="62.38" fill="none" stroke="#231f20" stroke-miterlimit="10"/>
              <line x1="195.96" y1="64.58" x2="209.15" y2="70.63" fill="none" stroke="#231f20" stroke-miterlimit="10"/>
              <line x1="190.19" y1="67.88" x2="191.84" y2="63.48" fill="none" stroke="#231f20" stroke-miterlimit="10"/>
              <line x1="178.1" y1="48.64" x2="168.48" y2="31.33" fill="none" stroke="#231f20" stroke-miterlimit="10"/>
              <polyline points="177.55 27.21 172.88 38.2 171.23 36.27 164.63 35.45 159.96 28.58" fill="none" stroke="#231f20" stroke-miterlimit="10"/>
              <line x1="254.5" y1="36.82" x2="254.5" y2="124.21" fill="none" stroke="#231f20" stroke-miterlimit="10"/>
              <polyline points="268.51 34.35 254.5 57.44 236.36 75.57" fill="none" stroke="#231f20" stroke-miterlimit="10"/>
              <line x1="245.43" y1="67.33" x2="233.89" y2="61.56" fill="none" stroke="#231f20" stroke-miterlimit="10"/>
              <polyline points="285.83 46.72 256.15 67.33 254.77 68.7" fill="none" stroke="#231f20" stroke-miterlimit="10"/>
              <line x1="277.86" y1="44.79" x2="275.38" y2="54.41" fill="none" stroke="#231f20" stroke-miterlimit="10"/>
              <line x1="280.88" y1="51.11" x2="289.67" y2="51.94" fill="none" stroke="#231f20" stroke-miterlimit="10"/>
              <line x1="267.69" y1="60.46" x2="275.11" y2="64.85" fill="none" stroke="#231f20" stroke-miterlimit="10"/>
              <line x1="275.93" y1="60.46" x2="271.81" y2="62.66" fill="none" stroke="#231f20" stroke-miterlimit="10"/>
              <polyline points="258.34 36.82 255.05 40.4 249.28 32.15" fill="none" stroke="#231f20" stroke-miterlimit="10"/>
              <line x1="267.41" y1="44.52" x2="261.37" y2="46.99" fill="none" stroke="#231f20" stroke-miterlimit="10"/>
              <line x1="254.77" y1="81.62" x2="244.88" y2="71.73" fill="none" stroke="#231f20" stroke-miterlimit="10"/>
              <line x1="251.47" y1="78.32" x2="249.83" y2="79.97" fill="none" stroke="#231f20" stroke-miterlimit="10"/>
              <line x1="254.77" y1="84.09" x2="277.03" y2="72" fill="none" stroke="#231f20" stroke-miterlimit="10"/>
              <line x1="273.18" y1="70.35" x2="271.26" y2="74.75" fill="none" stroke="#231f20" stroke-miterlimit="10"/>
              <line x1="268.24" y1="76.95" x2="281.43" y2="82.99" fill="none" stroke="#231f20" stroke-miterlimit="10"/>
              <line x1="262.47" y1="80.24" x2="264.12" y2="75.85" fill="none" stroke="#231f20" stroke-miterlimit="10"/>
              <line x1="250.38" y1="61.01" x2="240.76" y2="43.69" fill="none" stroke="#231f20" stroke-miterlimit="10"/>
              <polyline points="249.83 39.57 245.15 50.56 243.5 48.64 236.91 47.82 232.24 40.95" fill="none" stroke="#231f20" stroke-miterlimit="10"/>
              <line x1="263.84" y1="119.27" x2="263.84" y2="206.66" fill="none" stroke="#231f20" stroke-miterlimit="10"/>
              <polyline points="277.86 116.79 263.84 139.88 245.7 158.02" fill="none" stroke="#231f20" stroke-miterlimit="10"/>
              <line x1="254.77" y1="149.77" x2="243.23" y2="144" fill="none" stroke="#231f20" stroke-miterlimit="10"/>
              <polyline points="295.17 129.16 265.49 149.77 264.12 151.15" fill="none" stroke="#231f20" stroke-miterlimit="10"/>
              <line x1="287.2" y1="127.24" x2="284.73" y2="136.85" fill="none" stroke="#231f20" stroke-miterlimit="10"/>
              <line x1="290.22" y1="133.56" x2="299.02" y2="134.38" fill="none" stroke="#231f20" stroke-miterlimit="10"/>
              <line x1="277.03" y1="142.9" x2="284.45" y2="147.3" fill="none" stroke="#231f20" stroke-miterlimit="10"/>
              <line x1="285.28" y1="142.9" x2="281.15" y2="145.1" fill="none" stroke="#231f20" stroke-miterlimit="10"/>
              <polyline points="267.69 119.27 264.39 122.84 258.62 114.6" fill="none" stroke="#231f20" stroke-miterlimit="10"/>
              <line x1="276.76" y1="126.96" x2="270.71" y2="129.44" fill="none" stroke="#231f20" stroke-miterlimit="10"/>
              <line x1="264.12" y1="164.06" x2="254.22" y2="154.17" fill="none" stroke="#231f20" stroke-miterlimit="10"/>
              <line x1="260.82" y1="160.76" x2="259.17" y2="162.41" fill="none" stroke="#231f20" stroke-miterlimit="10"/>
              <line x1="264.12" y1="166.53" x2="286.38" y2="154.44" fill="none" stroke="#231f20" stroke-miterlimit="10"/>
              <line x1="282.53" y1="152.79" x2="280.6" y2="157.19" fill="none" stroke="#231f20" stroke-miterlimit="10"/>
              <line x1="277.58" y1="159.39" x2="290.77" y2="165.44" fill="none" stroke="#231f20" stroke-miterlimit="10"/>
              <line x1="271.81" y1="162.69" x2="273.46" y2="158.29" fill="none" stroke="#231f20" stroke-miterlimit="10"/>
              <line x1="259.72" y1="143.45" x2="250.1" y2="126.14" fill="none" stroke="#231f20" stroke-miterlimit="10"/>
              <polyline points="259.17 122.02 254.5 133.01 252.85 131.08 246.25 130.26 241.58 123.39" fill="none" stroke="#231f20" stroke-miterlimit="10"/>
              <line x1="133.58" y1="131.63" x2="133.58" y2="219.02" fill="none" stroke="#231f20" stroke-miterlimit="10"/>
              <polyline points="147.6 129.16 133.58 152.24 115.44 170.38" fill="none" stroke="#231f20" stroke-miterlimit="10"/>
              <line x1="124.51" y1="162.14" x2="112.97" y2="156.37" fill="none" stroke="#231f20" stroke-miterlimit="10"/>
              <polyline points="164.91 141.53 135.23 162.14 133.86 163.51" fill="none" stroke="#231f20" stroke-miterlimit="10"/>
              <line x1="156.94" y1="139.6" x2="154.47" y2="149.22" fill="none" stroke="#231f20" stroke-miterlimit="10"/>
              <line x1="159.96" y1="145.92" x2="168.76" y2="146.75" fill="none" stroke="#231f20" stroke-miterlimit="10"/>
              <line x1="146.77" y1="155.27" x2="154.19" y2="159.66" fill="none" stroke="#231f20" stroke-miterlimit="10"/>
              <line x1="155.02" y1="155.27" x2="150.89" y2="157.47" fill="none" stroke="#231f20" stroke-miterlimit="10"/>
              <polyline points="137.43 131.63 134.13 135.21 128.36 126.96" fill="none" stroke="#231f20" stroke-miterlimit="10"/>
              <line x1="146.5" y1="139.33" x2="140.45" y2="141.8" fill="none" stroke="#231f20" stroke-miterlimit="10"/>
              <line x1="133.86" y1="176.43" x2="123.96" y2="166.53" fill="none" stroke="#231f20" stroke-miterlimit="10"/>
              <line x1="130.56" y1="173.13" x2="128.91" y2="174.78" fill="none" stroke="#231f20" stroke-miterlimit="10"/>
              <line x1="133.86" y1="178.9" x2="156.12" y2="166.81" fill="none" stroke="#231f20" stroke-miterlimit="10"/>
              <line x1="152.27" y1="165.16" x2="150.34" y2="169.56" fill="none" stroke="#231f20" stroke-miterlimit="10"/>
              <line x1="147.32" y1="171.76" x2="160.51" y2="177.8" fill="none" stroke="#231f20" stroke-miterlimit="10"/>
              <line x1="141.55" y1="175.05" x2="143.2" y2="170.66" fill="none" stroke="#231f20" stroke-miterlimit="10"/>
              <line x1="129.46" y1="155.82" x2="119.84" y2="138.5" fill="none" stroke="#231f20" stroke-miterlimit="10"/>
              <polyline points="128.91 134.38 124.24 145.37 122.59 143.45 115.99 142.63 111.32 135.76" fill="none" stroke="#231f20" stroke-miterlimit="10"/>
              <line x1="279.23" y1="330.05" x2="280.88" y2="325.65" fill="none" stroke="#231f20" stroke-miterlimit="10"/>
              <line x1="328.97" y1="151.42" x2="328.97" y2="238.81" fill="none" stroke="#231f20" stroke-miterlimit="10"/>
              <polyline points="342.99 148.95 328.97 172.03 310.83 190.17" fill="none" stroke="#231f20" stroke-miterlimit="10"/>
              <line x1="319.9" y1="181.92" x2="308.36" y2="176.15" fill="none" stroke="#231f20" stroke-miterlimit="10"/>
              <polyline points="360.3 161.31 330.62 181.92 329.25 183.3" fill="none" stroke="#231f20" stroke-miterlimit="10"/>
              <line x1="352.33" y1="159.39" x2="349.86" y2="169.01" fill="none" stroke="#231f20" stroke-miterlimit="10"/>
              <line x1="355.35" y1="165.71" x2="364.15" y2="166.53" fill="none" stroke="#231f20" stroke-miterlimit="10"/>
              <line x1="342.16" y1="175.05" x2="349.58" y2="179.45" fill="none" stroke="#231f20" stroke-miterlimit="10"/>
              <line x1="350.41" y1="175.05" x2="346.28" y2="177.25" fill="none" stroke="#231f20" stroke-miterlimit="10"/>
              <polyline points="332.82 151.42 329.52 154.99 323.75 146.75" fill="none" stroke="#231f20" stroke-miterlimit="10"/>
              <line x1="341.89" y1="159.11" x2="335.84" y2="161.59" fill="none" stroke="#231f20" stroke-miterlimit="10"/>
              <line x1="329.25" y1="196.21" x2="319.35" y2="186.32" fill="none" stroke="#231f20" stroke-miterlimit="10"/>
              <line x1="325.95" y1="192.92" x2="324.3" y2="194.56" fill="none" stroke="#231f20" stroke-miterlimit="10"/>
              <line x1="329.25" y1="198.69" x2="351.5" y2="186.6" fill="none" stroke="#231f20" stroke-miterlimit="10"/>
              <line x1="347.66" y1="184.95" x2="345.73" y2="189.34" fill="none" stroke="#231f20" stroke-miterlimit="10"/>
              <line x1="342.71" y1="191.54" x2="355.9" y2="197.59" fill="none" stroke="#231f20" stroke-miterlimit="10"/>
              <line x1="336.94" y1="194.84" x2="338.59" y2="190.44" fill="none" stroke="#231f20" stroke-miterlimit="10"/>
              <line x1="324.85" y1="175.6" x2="315.23" y2="158.29" fill="none" stroke="#231f20" stroke-miterlimit="10"/>
              <polyline points="324.3 154.17 319.63 165.16 317.98 163.24 311.38 162.41 306.71 155.54" fill="none" stroke="#231f20" stroke-miterlimit="10"/>
              <line x1="289.4" y1="90.14" x2="289.4" y2="177.53" fill="none" stroke="#231f20" stroke-miterlimit="10"/>
              <polygon points="14.04 101.68 14.04 115.15 14.04 199.51 14.04 101.68" fill="none" stroke="#231f20" stroke-miterlimit="10" stroke-width="3"/>
              <polyline points="369.92 56.61 353.7 73.92 364.7 84.92 380.63 108.55" fill="none" stroke="#231f20" stroke-miterlimit="10" stroke-width="3"/>
              <line x1="341.06" y1="64.03" x2="352.6" y2="93.71" fill="none" stroke="#231f20" stroke-miterlimit="10" stroke-width="3"/>
              <line x1="369.92" y1="95.36" x2="382.28" y2="74.75" fill="none" stroke="#231f20" stroke-miterlimit="10" stroke-width="3"/>
              <line x1="374.86" y1="99.48" x2="370.74" y2="113.5" fill="none" stroke="#231f20" stroke-miterlimit="10" stroke-width="3"/>
              <line x1="353.43" y1="110.2" x2="360.85" y2="98.66" fill="none" stroke="#231f20" stroke-miterlimit="10" stroke-width="3"/>
              <line x1="352.6" y1="118.44" x2="342.71" y2="105.25" fill="none" stroke="#231f20" stroke-miterlimit="10" stroke-width="3"/>
              <polygon points="353.7 60.46 353.7 73.92 353.7 158.29 353.7 60.46" fill="none" stroke="#231f20" stroke-miterlimit="10" stroke-width="3"/>
              <polyline points="233.89 54.14 217.67 71.45 228.67 82.44 244.6 106.08" fill="none" stroke="#231f20" stroke-miterlimit="10" stroke-width="3"/>
              <line x1="205.03" y1="61.56" x2="216.57" y2="91.24" fill="none" stroke="#231f20" stroke-miterlimit="10" stroke-width="3"/>
              <line x1="233.89" y1="92.89" x2="246.25" y2="72.27" fill="none" stroke="#231f20" stroke-miterlimit="10" stroke-width="3"/>
              <line x1="238.83" y1="97.01" x2="234.71" y2="111.02" fill="none" stroke="#231f20" stroke-miterlimit="10" stroke-width="3"/>
              <line x1="217.4" y1="107.73" x2="224.82" y2="96.18" fill="none" stroke="#231f20" stroke-miterlimit="10" stroke-width="3"/>
              <line x1="216.57" y1="115.97" x2="206.68" y2="102.78" fill="none" stroke="#231f20" stroke-miterlimit="10" stroke-width="3"/>
              <polygon points="217.67 57.98 217.67 71.45 217.67 155.82 217.67 57.98" fill="none" stroke="#231f20" stroke-miterlimit="10" stroke-width="3"/>
              <ellipse cx="111.32" cy="102.5" rx="52.76" ry="40.4" fill="#68635f" stroke="#231f20" stroke-miterlimit="10"/>
              <ellipse cx="187.17" cy="61.28" rx="52.76" ry="40.4" fill="#68635f"/>
              <ellipse cx="188.82" cy="128.34" rx="52.76" ry="40.4" fill="#595756"/>
              <ellipse cx="195.41" cy="175.6" rx="52.76" ry="40.4" fill="#595756"/>
              <ellipse cx="233.89" cy="152.52" rx="52.76" ry="40.4" fill="#68635f"/>
              <ellipse cx="263.57" cy="133.28" rx="52.76" ry="40.4" fill="#595756" stroke="#231f20" stroke-miterlimit="10"/>
              <ellipse cx="255.32" cy="84.37" rx="52.76" ry="40.4" fill="#68635f"/>
              <ellipse cx="254.22" cy="50.84" rx="52.76" ry="40.4" fill="#595756" stroke="#231f20" stroke-miterlimit="10"/>
              <ellipse cx="376.24" cy="40.4" rx="41.22" ry="40.4" fill="#68635f"/>
              <ellipse cx="339.96" cy="61.28" rx="52.76" ry="40.4" fill="#68635f" stroke="#231f20" stroke-miterlimit="10"/>
              <ellipse cx="346.56" cy="110.75" rx="52.76" ry="40.4" fill="#68635f"/>
              <ellipse cx="378.44" cy="95.91" rx="40.12" ry="40.4" fill="#68635f"/>
              <ellipse cx="380.91" cy="141.53" rx="38.2" ry="40.4" fill="#595756"/>
              <ellipse cx="105.55" cy="57.44" rx="66.78" ry="32.15" fill="#595756"/>
              <ellipse cx="356.73" cy="71.73" rx="66.78" ry="32.15" fill="#595756"/>
              <ellipse cx="313.03" cy="138.5" rx="66.78" ry="32.15" fill="#595756"/>
              <polyline points="30.25 97.83 14.04 115.15 25.03 126.14 40.97 149.77" fill="none" stroke="#231f20" stroke-miterlimit="10" stroke-width="3"/>
              <line x1="1.4" y1="105.25" x2="12.94" y2="134.93" fill="none" stroke="#231f20" stroke-miterlimit="10" stroke-width="3"/>
              <line x1="30.25" y1="136.58" x2="42.62" y2="115.97" fill="none" stroke="#231f20" stroke-miterlimit="10" stroke-width="3"/>
              <line x1="35.2" y1="140.7" x2="31.08" y2="154.72" fill="none" stroke="#231f20" stroke-miterlimit="10" stroke-width="3"/>
              <line x1="13.76" y1="151.42" x2="21.18" y2="139.88" fill="none" stroke="#231f20" stroke-miterlimit="10" stroke-width="3"/>
              <line x1="220.7" y1="179.45" x2="221.52" y2="310.53" fill="none" stroke="#231f20" stroke-miterlimit="10" stroke-width="3"/>
              <line x1="12.94" y1="159.66" x2="3.05" y2="146.47" fill="none" stroke="#231f20" stroke-miterlimit="10" stroke-width="3"/>
              <line x1="200.09" y1="175.33" x2="221.52" y2="205.83" fill="none" stroke="#231f20" stroke-miterlimit="10" stroke-width="3"/>
              <line x1="222.34" y1="223.15" x2="247.9" y2="190.17" fill="none" stroke="#231f20" stroke-miterlimit="10" stroke-width="3"/>
              <line x1="193.49" y1="217.37" x2="220.7" y2="253.65" fill="none" stroke="#231f20" stroke-miterlimit="10" stroke-width="3"/>
              <line x1="220.7" y1="262.72" x2="251.2" y2="232.21" fill="none" stroke="#231f20" stroke-miterlimit="10" stroke-width="3"/>
              <line x1="211.63" y1="176.98" x2="209.98" y2="187.69" fill="none" stroke="#231f20" stroke-miterlimit="10" stroke-width="3"/>
              <line x1="230.59" y1="252" x2="256.15" y2="252" fill="none" stroke="#231f20" stroke-miterlimit="10" stroke-width="3"/>
              <path d="M205.86,182.75l-9.89.82c9.07-.82,9.89-.82,9.89-.82l-.82,18.14" fill="#595756"/>
              <polyline points="232.24 196.76 236.36 206.66 254.5 202.53" fill="none" stroke="#231f20" stroke-miterlimit="10"/>
              <line x1="200.09" y1="212.43" x2="200.09" y2="227.27" fill="none" stroke="#231f20" stroke-miterlimit="10"/>
              <line x1="208.33" y1="237.98" x2="181.95" y2="237.16" fill="none" stroke="#231f20" stroke-miterlimit="10"/>
              <polyline points="238.01 243.76 239.66 228.92 238.01 243.76" fill="none" stroke="#231f20" stroke-miterlimit="10"/>
              <line x1="371.57" y1="237.98" x2="371.57" y2="325.37" fill="none" stroke="#231f20" stroke-miterlimit="10"/>
              <polyline points="53.34 35.18 69.55 52.49 58.56 63.48 42.62 87.11" fill="none" stroke="#231f20" stroke-miterlimit="10" stroke-width="3"/>
              <line x1="82.19" y1="42.6" x2="70.65" y2="72.27" fill="none" stroke="#231f20" stroke-miterlimit="10" stroke-width="3"/>
              <line x1="53.34" y1="73.92" x2="40.97" y2="53.31" fill="none" stroke="#231f20" stroke-miterlimit="10" stroke-width="3"/>
              <line x1="48.39" y1="78.05" x2="52.51" y2="92.06" fill="none" stroke="#231f20" stroke-miterlimit="10" stroke-width="3"/>
              <line x1="69.83" y1="88.76" x2="62.41" y2="77.22" fill="none" stroke="#231f20" stroke-miterlimit="10" stroke-width="3"/>
              <line x1="70.65" y1="97.01" x2="80.54" y2="83.82" fill="none" stroke="#231f20" stroke-miterlimit="10" stroke-width="3"/>
              <polygon points="69.55 39.02 69.55 52.49 69.55 136.85 69.55 39.02" fill="none" stroke="#231f20" stroke-miterlimit="10" stroke-width="3"/>
              <polyline points="383.11 127.51 399.32 144.82 388.33 155.82 372.39 179.45" fill="none" stroke="#231f20" stroke-miterlimit="10" stroke-width="3"/>
              <line x1="411.96" y1="134.93" x2="400.42" y2="164.61" fill="none" stroke="#231f20" stroke-miterlimit="10" stroke-width="3"/>
              <line x1="383.11" y1="166.26" x2="370.74" y2="145.65" fill="none" stroke="#231f20" stroke-miterlimit="10" stroke-width="3"/>
              <line x1="378.16" y1="170.38" x2="382.28" y2="184.4" fill="none" stroke="#231f20" stroke-miterlimit="10" stroke-width="3"/>
              <line x1="399.6" y1="181.1" x2="392.18" y2="169.56" fill="none" stroke="#231f20" stroke-miterlimit="10" stroke-width="3"/>
              <line x1="400.42" y1="189.34" x2="410.31" y2="176.15" fill="none" stroke="#231f20" stroke-miterlimit="10" stroke-width="3"/>
              <polygon points="399.32 131.36 399.32 144.82 399.32 229.19 399.32 131.36" fill="none" stroke="#231f20" stroke-miterlimit="10" stroke-width="3"/>
              <polyline points="394.65 12.09 410.86 29.4 399.87 40.4 383.93 64.03" fill="none" stroke="#231f20" stroke-miterlimit="10" stroke-width="3"/>
              <line x1="423.5" y1="19.51" x2="411.96" y2="49.19" fill="none" stroke="#231f20" stroke-miterlimit="10" stroke-width="3"/>
              <line x1="394.65" y1="50.84" x2="382.28" y2="30.23" fill="none" stroke="#231f20" stroke-miterlimit="10" stroke-width="3"/>
              <line x1="389.7" y1="54.96" x2="393.83" y2="68.98" fill="none" stroke="#231f20" stroke-miterlimit="10" stroke-width="3"/>
              <line x1="411.14" y1="65.68" x2="403.72" y2="54.14" fill="none" stroke="#231f20" stroke-miterlimit="10" stroke-width="3"/>
              <line x1="411.96" y1="73.92" x2="421.86" y2="60.73" fill="none" stroke="#231f20" stroke-miterlimit="10" stroke-width="3"/>
              <polygon points="410.86 15.94 410.86 29.4 410.86 113.77 410.86 15.94" fill="none" stroke="#231f20" stroke-miterlimit="10" stroke-width="3"/>
              <polyline points="357.55 235.51 371.57 258.6 389.7 276.73" fill="none" stroke="#231f20" stroke-miterlimit="10"/>
              <line x1="380.63" y1="268.49" x2="392.18" y2="262.72" fill="none" stroke="#231f20" stroke-miterlimit="10"/>
              <polyline points="340.24 247.88 369.92 268.49 371.29 269.86" fill="none" stroke="#231f20" stroke-miterlimit="10"/>
              <line x1="348.21" y1="245.95" x2="350.68" y2="255.57" fill="none" stroke="#231f20" stroke-miterlimit="10"/>
              <line x1="345.18" y1="252.27" x2="336.39" y2="253.1" fill="none" stroke="#231f20" stroke-miterlimit="10"/>
              <line x1="358.38" y1="261.62" x2="350.96" y2="266.02" fill="none" stroke="#231f20" stroke-miterlimit="10"/>
              <line x1="350.13" y1="261.62" x2="354.25" y2="263.82" fill="none" stroke="#231f20" stroke-miterlimit="10"/>
              <polyline points="367.72 237.98 371.02 241.56 376.79 233.31" fill="none" stroke="#231f20" stroke-miterlimit="10"/>
              <line x1="358.65" y1="245.68" x2="364.7" y2="248.15" fill="none" stroke="#231f20" stroke-miterlimit="10"/>
              <line x1="371.29" y1="282.78" x2="381.18" y2="272.89" fill="none" stroke="#231f20" stroke-miterlimit="10"/>
              <line x1="374.59" y1="279.48" x2="376.24" y2="281.13" fill="none" stroke="#231f20" stroke-miterlimit="10"/>
              <line x1="371.29" y1="285.25" x2="349.03" y2="273.16" fill="none" stroke="#231f20" stroke-miterlimit="10"/>
              <line x1="352.88" y1="271.51" x2="354.8" y2="275.91" fill="none" stroke="#231f20" stroke-miterlimit="10"/>
              <line x1="357.83" y1="278.11" x2="344.63" y2="284.15" fill="none" stroke="#231f20" stroke-miterlimit="10"/>
              <line x1="363.6" y1="281.4" x2="361.95" y2="277.01" fill="none" stroke="#231f20" stroke-miterlimit="10"/>
              <line x1="375.69" y1="262.17" x2="385.31" y2="244.85" fill="none" stroke="#231f20" stroke-miterlimit="10"/>
              <polyline points="376.24 240.73 380.91 251.73 382.56 249.8 389.15 248.98 393.83 242.11" fill="none" stroke="#231f20" stroke-miterlimit="10"/>
              <line x1="301.76" y1="197.59" x2="301.76" y2="284.98" fill="none" stroke="#231f20" stroke-miterlimit="10"/>
              <polyline points="315.78 195.11 301.76 218.2 283.63 236.34" fill="none" stroke="#231f20" stroke-miterlimit="10"/>
              <line x1="292.7" y1="228.09" x2="281.15" y2="222.32" fill="none" stroke="#231f20" stroke-miterlimit="10"/>
              <polyline points="333.09 207.48 303.41 228.09 302.04 229.47" fill="none" stroke="#231f20" stroke-miterlimit="10"/>
              <line x1="325.12" y1="205.56" x2="322.65" y2="215.18" fill="none" stroke="#231f20" stroke-miterlimit="10"/>
              <line x1="328.15" y1="211.88" x2="336.94" y2="212.7" fill="none" stroke="#231f20" stroke-miterlimit="10"/>
              <line x1="314.96" y1="221.22" x2="322.38" y2="225.62" fill="none" stroke="#231f20" stroke-miterlimit="10"/>
              <line x1="323.2" y1="221.22" x2="319.08" y2="223.42" fill="none" stroke="#231f20" stroke-miterlimit="10"/>
              <polyline points="305.61 197.59 302.31 201.16 296.54 192.92" fill="none" stroke="#231f20" stroke-miterlimit="10"/>
              <line x1="314.68" y1="205.28" x2="308.63" y2="207.76" fill="none" stroke="#231f20" stroke-miterlimit="10"/>
              <line x1="302.04" y1="242.38" x2="292.15" y2="232.49" fill="none" stroke="#231f20" stroke-miterlimit="10"/>
              <line x1="298.74" y1="239.08" x2="297.09" y2="240.73" fill="none" stroke="#231f20" stroke-miterlimit="10"/>
              <line x1="302.04" y1="244.85" x2="324.3" y2="232.76" fill="none" stroke="#231f20" stroke-miterlimit="10"/>
              <polyline points="388.05 370.72 397.12 366.6 401.25 374.84 409.49 361.65 417.73 374.02 427.63 369.89" fill="none" stroke="#231f20" stroke-miterlimit="10"/>
              <path d="M9.64,242.93l3.3-5.77s.82,19.79,4.95,7.42l4.12-12.37,5.77,6.6s0-25.56,2.47-18.14,9.07,21.44,9.07,21.44" fill="none" stroke="#231f20" stroke-miterlimit="10"/>
              <path d="M146.5,400.95s3.3-9.07,5.77-7.42,10.72-14.02,10.72-14.02l5.77,9.07h14.02s0,15.66,3.3,11.54" fill="none" stroke="#231f20" stroke-miterlimit="10"/>
            </g>
          </g>
        </g>
      </g>
    </g>
  </g>
</svg>