<?xml version="1.0" encoding="UTF-8"?>
<svg id="Layer_2" data-name="Layer 2" xmlns="http://www.w3.org/2000/svg" viewBox="0 0 864.05 293.4">
  <g id="outlines">
    <g id="Page_3" data-name="Page 3">
      <g id="Frame_15" data-name="Frame 15">
        <g id="Corporate_Interior" data-name="Corporate Interior">
          <g id="Layer_124" data-name="Layer 124">
            <rect x=".5" y="4.13" width="862.78" height="288.77" fill="none" stroke="#231f20" stroke-miterlimit="10"/>
            <ellipse cx="77.64" cy="268.16" rx="28.09" ry="13.98" fill="#434551" stroke="#231f20" stroke-miterlimit="10"/>
            <ellipse cx="171.27" cy="257.41" rx="29.87" ry="19.36" fill="#434551" stroke="#231f20" stroke-miterlimit="10"/>
            <ellipse cx="255.55" cy="262.78" rx="14.27" ry="12.91" fill="#434551" stroke="#231f20" stroke-miterlimit="10"/>
            <ellipse cx="202.93" cy="211.7" rx="14.27" ry="15.59" fill="#434551" stroke="#231f20" stroke-miterlimit="10"/>
            <ellipse cx="331.79" cy="238.58" rx="16.5" ry="17.75" fill="#434551" stroke="#231f20" stroke-miterlimit="10"/>
            <ellipse cx="338.48" cy="202.02" rx="8.92" ry="12.37" fill="#434551" stroke="#231f20" stroke-miterlimit="10"/>
            <ellipse cx="282.3" cy="227.29" rx="8.92" ry="10.75" fill="#434551" stroke="#231f20" stroke-miterlimit="10"/>
            <ellipse cx="410.71" cy="275.15" rx="12.48" ry="11.29" fill="#434551" stroke="#231f20" stroke-miterlimit="10"/>
            <ellipse cx="399.57" cy="238.05" rx="12.04" ry="8.6" fill="#434551" stroke="#231f20" stroke-miterlimit="10"/>
            <ellipse cx="321.98" cy="276.76" rx="9.36" ry="11.83" fill="#434551" stroke="#231f20" stroke-miterlimit="10"/>
            <ellipse cx="470.01" cy="256.87" rx="14.71" ry="12.37" fill="#434551" stroke="#231f20" stroke-miterlimit="10"/>
            <ellipse cx="544.92" cy="273" rx="6.69" ry="11.29" fill="#434551" stroke="#231f20" stroke-miterlimit="10"/>
            <ellipse cx="616.26" cy="266.55" rx="7.58" ry="3.76" fill="#434551" stroke="#231f20" stroke-miterlimit="10"/>
            <ellipse cx="507.02" cy="252.03" rx="11.59" ry="25.81" fill="#434551" stroke="#231f20" stroke-miterlimit="10"/>
            <ellipse cx="702.32" cy="279.45" rx="13.38" ry="8.07" fill="#434551" stroke="#231f20" stroke-miterlimit="10"/>
            <ellipse cx="772.32" cy="281.07" rx="10.26" ry="6.45" fill="#434551" stroke="#231f20" stroke-miterlimit="10"/>
            <ellipse cx="574.35" cy="259.02" rx="12.93" ry="13.44" fill="#434551" stroke="#231f20" stroke-miterlimit="10"/>
            <ellipse cx="434.79" cy="242.89" rx="8.92" ry="15.59" fill="#434551" stroke="#231f20" stroke-miterlimit="10"/>
            <ellipse cx="365.23" cy="269.24" rx="9.81" ry="9.68" fill="#434551" stroke="#231f20" stroke-miterlimit="10"/>
            <rect x=".5" y=".5" width="863.05" height="175.88" fill="#666c7c" stroke="#231f20" stroke-miterlimit="10"/>
            <path d="M612.8,131.59l-.16,4.39s-.41,1.65.14,3.02,2.8,4.47,2.8,4.47" fill="#666c7c" stroke="#231f20" stroke-miterlimit="10"/>
            <polygon points="1.42 233.49 861.9 236.29 862.45 208.25 862.08 177.47 1.52 175.67 1.42 233.49" fill="#62646e" stroke="#56585f" stroke-miterlimit="10"/>
          </g>
        </g>
        <g id="person">
          <g id="Layer_126" data-name="Layer 126">
            <g id="Face">
              <g id="Hair">
                <g id="Outline">
                  <path d="M662.35,272.23v-3.73c-.02-1.56-.13-3.86-.6-6.6-1.13-6.65-3.55-11.28-4.78-13.77-5.19-10.46-8.02-16.15-8.37-22.67-.51-9.35,4.64-9.82,5.98-22.67.32-3.08,1.1-11.34-2.09-20.66-3.83-11.19-9-11.11-11.36-20.95-1.59-6.63-.57-12.17.9-20.09,1.61-8.7,4.03-13.64,5.68-18.36,2.42-6.91,10.4-24.54,2.69-35.87-4.03-5.92-10.86-8.08-13.46-8.9-1.76-.55-10.48-3.29-19.14.29-8.49,3.51-11.19,7.27-17.64,6.6-1.64-.17-20.43-7.15-24.52-8.9-6.67-2.84-18.87,3.93-24.82,12.91-6.89,10.4-4.55,22.48-.9,41.32,3.22,16.61,5.65,15.47,7.48,29.84,0,0,2.21,17.37-.6,35.29-.6,3.82-.97,6.18-1.97,9.46-1.49,4.9-2.83,6.71-3.92,11.48-.14.63-.68,3.03-.99,7.75-.79,11.73.8,22.21,1.2,24.68.94,5.87,1.64,7.45,1.2,11.19-.74,6.25-3.53,8.7-3.29,10.33.67,4.5,25.05,7.07,113.34,2.01" fill="#fff" stroke="#231f20" stroke-miterlimit="10"/>
                  <path d="M581.87,225.84c-1.92,3.57,1.37.27-2.47,4.95s-1.1-.82-4.67,5.5-1.37,0-3.85,7.15-3.02,7.69-2.75,10.99,2.42,8.05,2.42,8.05" fill="#fff" stroke="#231f20" stroke-miterlimit="10"/>
                  <path d="M581.04,251.4s-1.1,7.15-1.1,9.07.55-.55-1.1,3.57-1.92,4.4-2.2,5.5.27,5.22.27,5.22" fill="#fff" stroke="#231f20" stroke-miterlimit="10"/>
                </g>
                <g id="Inside">
                  <g id="Layer_153" data-name="Layer 153">
                    <path d="M578.72,82.85c-3.19-.96,11.48,4.35,9.47,2.3-4.74-4.84-4.9-3.46-8.57-2.77-4.91.91-7.97-1.91-12.16-.96s-8.97,5.55-10.37,6.89c-1.4,1.34-4.98,8.61-5.18,13.2s-.4,20.66,1.4,22.76,1.59,4.78,3.59,8.23c1.99,3.44,3.79,8.8,5.98,14.54,2.19,5.74,1.59,3.63,2.19,11.48.6,7.84-.6,19.13-.8,22s-.4,6.7-.8,13.39c-.4,6.7-.6,11.48-2.39,15.88-1.79,4.4-2.79,1.34-3.39,9.37s-2.59,22.57-2.19,26.4-.8,3.83.4,8.61c1.2,4.78,1.2,4.97,1.2,8.23s-2.79,10.71-2.79,10.71" fill="#fff" stroke="#231f20" stroke-miterlimit="10"/>
                    <path d="M578.62,85.52s-5.49-2.01-5.74-2.01c-.59,0-8.01.1-10.58,3.92s-5.14,2.87-6.33,7.46c-1.19,4.59,2.97,8.99,3.76,12.05s-.2,8.42.59,10.9-3.66,4.69-1.88,9.47,5.83,5.45,8.21,11.19c2.37,5.74,3.76,9.18,4.35,13.58s.2,6.12.4,10.71-.59,18.36-.59,20.09.1,4.78-.79,11.09-1.19,3.73-2.08,11.19-4.75,12.34-5.64,15.78c-.89,3.44-2.97,8.32-2.97,13.49s.89,12.05,1.19,15.49,0,8.32,0,12.05-2.37,12.91-2.37,12.91" fill="#fff" stroke="#231f20" stroke-miterlimit="10"/>
                    <path d="M657.87,272.51s0-4.3-.9-6.6-1.2-7.17-3.29-11.19-.9-5.45-2.99-8.9c-2.09-3.44-4.78-9.47-4.78-9.47,0,0,0-22.38,1.5-28.41,1.5-6.03,1.2-7.75.6-15.78s-.9-5.45-6.88-15.49c-5.98-10.04-1.5-2.58-4.78-13.77-3.29-11.19,0-4.3.9-15.21.9-10.9.3-3.16,2.69-14.06s.3-2.3,3.59-11.48c3.29-9.18.9-2.58,2.69-9.76,1.79-7.17,0-4.88-.3-8.61s1.2-12.91-2.69-16.36-4.78-4.88-7.78-6.31-4.19-1.43-5.08-2.3-3.29.86-10.17,2.58c-6.88,1.72,0,0-7.48,3.16-7.48,3.16,0,0-8.07,2.58l-2.99-.29,3.89,2.58c3.29.29.6,1.15,4.49.29s8.07-2.87,13.76-3.16,13.76,2.87,14.06,4.02,2.39,7.17,2.69,10.33,1.2-.57.3,6.6c-.9,7.17-.9,8.32-2.69,12.63-1.79,4.3-1.79,5.45-3.29,10.62s-1.5-1.72-2.09,7.75-.9,8.03-1.5,15.78c-.6,7.75-4.49-5.16-.6,7.75,3.89,12.91-.9,4.59,3.89,12.91s2.69-.57,4.78,10.33c2.09,10.9,2.39,3.44,2.09,14.06-.3,10.62.9,0-.9,12.34-1.79,12.34-.9,2.01-1.79,12.34-.9,10.33-2.69.29-.9,10.33,1.79,10.04-1.79-3.73,1.79,10.04,3.59,13.77.6,6.31,3.59,13.77,2.99,7.46,8.37,14.06,8.37,14.06" fill="#fff" stroke="#231f20" stroke-miterlimit="10"/>
                    <path d="M626.47,269.36s.3-9.47,1.2-26.11,0,0,1.2-13.2c1.2-13.2,1.2-2.58,3.59-11.76,2.39-9.18,0-.86.3-11.19.3-10.33,0,0-2.09-13.2-2.09-13.2,0-.29-1.79-9.18-1.79-8.9-.6-4.88-1.5-15.21s-.3-3.16-1.2-13.2-.6-2.3-.6-6.31.3-5.45-.3-12.06c-.6-6.61.89-.85,2.99-10.32,2.09-9.47,0-2.01,1.5-8.9,1.5-6.89.3-2.87,2.69-10.33,2.39-7.46.3-3.16-.9-9.47-1.2-6.31-1.2-2.87-6.88-6.31s0,0-6.58-2.58,0,0-3.59-.29c0,0,0-3.73,1.2.86,1.2,4.59-2.99-4.02,1.2,4.59s3.29,2.58,4.19,8.9,2.39-6.89.9,6.31c-1.5,13.2,1.5,1.43-1.5,13.2s-1.2,3.16-2.99,11.76-.6-2.91-2.55,9.45c-1.94,12.36-1.94-1.99-2.84,16.37-.9,18.36-4.78,3.44-1.2,20.37s2.39-3.44,3.59,16.93c1.2,20.37,6.28-2.58,1.2,20.37-5.08,22.96-9.57,12.05-8.07,31.56,1.5,19.51,2.99,19.51,2.99,19.51" fill="#fff" stroke="#231f20" stroke-miterlimit="10"/>
                    <path d="M578.92,84.85c-3.59,1.72-2.99,1.43-5.98,2.58s-4.19-4.02-5.68,7.46-3.82,4.86-1.5,11.48c2.32,6.62.3,2.87,2.09,8.32s5.68,10.9,7.78,14.92c2.09,4.02,2.69-.29,2.39,14.06-.3,14.35-1.2.57-.3,16.07s.6,3.44.9,17.5,2.69-8.32.3,14.06c-2.39,22.38,2.69,6.03-2.39,22.38-5.08,16.36-.9,6.89-5.08,16.36-4.19,9.47-2.39-1.72-4.19,11.76s-1.5,25.82-1.5,25.82l1.5,6.6" fill="none" stroke="#231f20" stroke-miterlimit="10"/>
                    <path d="M562.47,274.23s.9-9.76.9-12.05,0-8.03-.3-9.47,1.5-14.92,1.5-14.92c0,0-.3-3.44,2.39-12.05,2.69-8.61.9-.86,3.59-7.46,2.69-6.6.9-1.72,2.99-8.61,2.09-6.89.9,0,2.39-10.62,1.5-10.62,0-3.16.3-11.19.3-8.03,0-1.15-.28-4.83s-.32-4.64-.32-6.93-.3-3.44-.3-6.31.3-3.16.6-4.59,1.79-5.45,2.39-10.33,2.99-5.16,4.78-9.47.9-2.01.6-9.47l-.3-3.73s-.99,1.58.11-1.44-2.2,4.4,1.37-4.4,3.6-3.11,3.85-10.17,0-9.89,0-9.89" fill="none" stroke="#231f20" stroke-miterlimit="10"/>
                    <path d="M570.54,274.52s-1.2-7.75,0-12.05c1.2-4.3.6-2.01,4.49-12.91,3.89-10.9,0,0-.9-16.07-.9-16.07,0-1.72,0-19.8s0-5.74-.9-16.36c-.9-10.62-.6-2.87-.6-6.89s.6-5.45.9-6.89,2.09-27.26,2.09-27.26c0,0-.65-1.18-.9-3.73s0-.86-1.78-5.46c-1.78-4.6-.16-1.42-.32-5.83s-.3-1.34-1.5-4.21,0-1.15-1.5-3.73-.3-.86-.9-2.58c0,0-1.72-7.7-1.72-8.8s.27-3.02,1.1-4.12,1.37-4.12,4.12-6.6-2.7,3.62,3.02-3.3,15.94-14.29,15.94-14.29" fill="none" stroke="#231f20" stroke-miterlimit="10"/>
                  </g>
                </g>
              </g>
              <g>
                <rect x="559.64" y="86.01" width="76.35" height="45.19" rx="21.99" ry="21.99" fill="#8e5a24"/>
                <rect x="559.64" y="86.01" width="76.35" height="45.19" rx="21.99" ry="21.99" fill="none" stroke="#010101" stroke-miterlimit="10"/>
              </g>
              <path d="M591.97,97.06c1.83.21,3.21.12,4.77,0,7.11-.54,8.63-2.67,14.31-3.25,2.19-.22,7.95-.81,10.97,1.8,3.25,2.81,1.07,7.34.95,7.57-2.16,4.31-8.88,7.03-14.31,6.49-4.74-.47-4.99-3.09-11.93-4.69-1.79-.41-5.55-1.25-10.02-.72-7.66.9-9.74,4.88-14.79,4.33-2.9-.32-5.52-1.8-6.68-3.61-2.57-4.02,1.86-9.97,7.47-11.54,4.1-1.14,8.56.11,9.86.48,3.75,1.06,5.1,2.62,9.38,3.13Z" fill="#fff" stroke="#010101" stroke-miterlimit="10"/>
              <ellipse cx="577.18" cy="101.03" rx="3.82" ry="2.52" fill="none" stroke="#010101" stroke-miterlimit="10"/>
              <path d="M567.36,111.38l.72,2.34s2.15-3.43,2.62-1.98,1.19,2.7,1.19,2.7c0,0,.48-2.52,1.67-1.8s4.29-.18,4.29-.18" fill="none" stroke="#010101" stroke-miterlimit="10"/>
              <path d="M606.72,112.82s-.72,1.44-.24,1.8,4.29-1.44,4.29-1.44l1.43,1.98s.24-1.26,1.91-1.08,1.67-1.8,3.34-.9" fill="none" stroke="#010101" stroke-miterlimit="10"/>
              <ellipse cx="610.89" cy="101.75" rx="3.82" ry="2.52" fill="none" stroke="#010101" stroke-miterlimit="10"/>
              <polyline points="588.99 109.14 588.41 111.68 591.1 113.09" fill="none" stroke="#010101" stroke-miterlimit="10"/>
              <path d="M587.07,119.89c0,1.56,3.6,2.82,8.06,2.82" fill="none" stroke="#010101" stroke-miterlimit="10"/>
              <g id="Hair-2" data-name="Hair">
                <g id="Layer_155" data-name="Layer 155">
                  <path d="M559.64,108l1.07-1.24c.61-1.02,1.51-2.44,2.75-4.03,1.83-2.34,3.83-4.91,6.23-6.23,3.91-2.15,5.56,1.35,12.82,0,3.1-.58,11.02-2.05,12.82-6.23.19-.45.53-1.43,1.47-2.38,1.37-1.39,3.15-1.84,4.4-2.02l-8.79.18-10.77-.05-8.83,1.88-4.95,2.75-3.85,3.48-2.93,5.68-1.44,8.2Z" fill="#fff" stroke="#010101" stroke-miterlimit="10"/>
                  <path d="M599.36,86.06s.2,0,.54-.02c1.73-.05,7.03-.18,7.52.02l4.58.18,4.76.18,3.85.92,4.03,1.28,4.03,2.93,4.03,4.76,2.2,4.4,1.1,6.23-.37,5.31-.37,2.2c-.31-.36-.78-.92-1.28-1.65-1.54-2.23-1.89-3.83-2.56-5.31-.23-.5-1.76-3.76-4.76-5.5-2.91-1.69-4.31-.27-7.69-2.02-2.56-1.32-2-2.25-4.58-3.85-4.14-2.56-6.49-.74-9.53-3.11-2.63-2.06-5.5-6.96-5.5-6.96Z" fill="#fff" stroke="#010101" stroke-miterlimit="10"/>
                  <path d="M600.21,86.45s5.15.69,7.28.89,1.85.14,3.57.41,2.75.27,5.5,1.03,3.77.46,6.18,2.34c3.71,2.89,6.46,7.15,6.94,7.76s1.79,2.47,2.4,3.71,2.2,3.5,2.13,5.63.89,5.22.89,5.22l-2.68-7.08s-2.75-4.74-3.44-5.29c-1.45-1.16-5.15-1.58-7.9-2.82s-1.72-.34-3.85-2.06-3.23-2.4-5.08-3.09,1.03.41-1.85-.69-2.47-.76-4.88-1.92-3.57-2.68-3.57-2.68l-.48-1.1" fill="#fff" stroke="#010101" stroke-miterlimit="10"/>
                  <path d="M602,87.06l1.44.82c1.72.76,4.47.96,5.15,1.17s2.47.48,2.95.55.82.07,2.47.69,2.34.76,3.64,1.44,2.47,2.89,2.82,2.95-.89-.55.96.55,2.2.69,3.37,1.44,1.85,1.58,2.4,1.92,2.89,2.54,2.89,2.54l2.34,5.22" fill="none" stroke="#010101" stroke-miterlimit="10"/>
                  <path d="M598.29,86.38l-5.91,1.24s-.34.27-1.51.27-3.09-.07-3.78-.07-3.16-.14-3.85,0-4.67.76-5.15.89-2.2.69-3.09,1.03-2.61.62-3.85,1.31-2.06,1.1-2.89,1.72-.96,0-1.99,1.44-2.34,2.27-2.54,2.89-1.1,2.13-1.17,2.61-1.37,2.47-1.37,2.82-.69,3.57-.69,3.57l2.2-3.98c1.79-2.54.34-1.51,2.13-3.23s1.79-1.85,2.54-2.47,1.03-1.17,1.99-1.72,4.19-1.72,4.53-1.72.82-.14,1.92,0,.55-.21,2.2.21.62.14,2.89.07,2.34-.21,3.64-.62-2.27,1.17,1.58-.41,4.33-2.27,5.15-2.61,2.2-1.99,2.2-1.99" fill="#fff" stroke="#010101" stroke-miterlimit="10"/>
                </g>
              </g>
            </g>
          </g>
          <g>
            <g>
              <path d="M589.36,144.69c3.33,2.59,8.1,6.25,9.91,7.63h0c1.94,2.22,2.18,2.27,2.18,2.27l-10.07,9.39c1.51.73,3.45,1.88,4.81,3.55.47.58.82,1.16,1.07,1.74-2.97.37-7.61.58-15.09.36.46-7.06-.29-12.11-1.28-12.15h-.01s.32-.12.32-.12l-1.3-4.36c-.88-3.1-1.45-5.62-1.81-7.68-.01-.06-.02-.12-.03-.18-.07-.41-.13-.8-.17-1.18-.6-5.32,1.32-7.01,1.32-7.01,0,0,.53.29,1.81,1.22,1.14.82,2.87,2.13,5.35,4.16.59.49,1.67,1.33,2.96,2.35,0,0,.01,0,.02.01Z" fill="#27aa4a"/>
              <path d="M600.5,258.27l-12.93-9.69-10.08,10.35c-.33-4.84-2.93-11.23-2.98-33.04-.04-16.7-.06-25.54,3.58-36.56.24-.72.56-1.75.93-2.93l3.89-.89c1.42-.31,6.54-3.18,6.54-3.18,1.76-.95,3.81-2.31,5.41-4.15.2-.23.53-.62.91-1.13,2.4-.1,4.37-.36,6.33-.87,1.21-.32,2.29-.68,3.28-1.05.2.58.42,1.18.68,1.82,1.53,3.73,2.34,5.63,4.79,7.4,3.05,2.21,6.84,3.33,9.2,3.89h1.73c.06.15.13.29.19.43,1.55,3.52,1.72,5.01,2.1,6.94.27,1.34.63,2.89,1.62,5.48.91,2.37,1.62,3.75,8.63,15.44,7.73,12.9,8.93,14.7,10.13,18.66,1.11,3.69,1.36,6.43,1.84,11.77.51,5.7,1.74,11.38,2.11,17.08l-34.14-18.72-13.11,13.41-.64-.48Z" fill="#ece70e"/>
              <path d="M649.99,269.92c1.03,1.22,1.87,1.44,1.85,2.11-.08,2.1-8.74,3.57-11.37,4.01-9.08,1.53-16.85,1.12-18.92.98-5-.32-11.11-1.2-12.1-1.34-4.37-.63-4.26-.78-6-.88l.07-.42s-.77-4.07-1.8-9.52l.51.32,12.82-11.65,34.92,16.4Z" fill="#31522a"/>
              <path d="M649.96,269.88s.02.03.04.04l-34.92-16.4-12.82,11.65-.51-.32c-.38-2.05-.8-4.29-1.23-6.59l.64.48,13.11-13.41,34.14,18.72c.03.44.05.88.07,1.32.05,1.22.04,2.76,1.49,4.5Z" fill="#65bc46"/>
              <path d="M621.78,188.26c-.83-1.87-2.11-4.84-2.04-8.79.03-1.66.29-2.87.39-3.42.08-.42.16-.85.22-1.27v-.04c1.31.04,2.54-.06,3.69-.16,2.44-.21,4.69-.4,6.33-.94h0c-.2,5.56-.6,9.99-1.23,11.12-.07.13-.32.53,0,.88.49.56,1.81.38,2.97.9,1.21.54,1.9,1.68,1.27,2.25-.77.69-3.11.22-3.83.95-.43.43.06.92.28,1.36.41.86.13,2.24-3.28,4.48,0,0-.57.4-1.42.23l-.93-.2h-.13c-.38-1.93-.56-3.42-2.1-6.94-.06-.13-.12-.27-.19-.42Z" fill="#8e5a24"/>
              <path d="M595.77,177.06s-.06,0-.09,0c-2.84.12-6.28.03-10.98-.1-1.24-.03-2.36-.06-3.38-.1-4.08-.15-6.6-.43-9.09-1.45-3.33-1.37-4.76-3.27-5.27-4.09-1.26-2.01-.75-3.6.03-6.42,1.52-5.51,2-8.19,4.61-14.31.86-2.04,1.63-3.66,4.18-4.69.78-.31,1.38-.42,2.27-.6h.05c.35,2.05.93,4.58,1.81,7.67l1.3,4.36-.32.12c-.65,0-1.69,2.1-2.65,4.05-.38.75-.62,1.38-.75,1.74-.27.73-.46,1.41-.6,2.01h.03s.65,1.4.65,1.4v2.78c1.64.08,3.17.13,4.6.18,7.48.22,12.12,0,15.09-.36.88-.11,1.61-.23,2.23-.36,1.25-.26,2.76-.4,4.74-.63,1.27-.15,2.73-.33,4.44-.61,2.58-.42,3.99.45,5.2-.19,1.35-.71.13-1.73,1.53-2.99,1.17-1.05,3.7-1.83,5.18-1.5,0,.01,0,.02,0,.03,0,.04.05,0,.08-.01.01,0,.03,0,.04.01,1.83.5.12,2.41,2.25,3.86,2.01,1.36,5.23.83,7.58,1.48.55.15,1.06.37,1.49.7,1.3.99,1.24,2.46.36,3.42-.46.51-1.15.88-2,1.16-1.64.54-3.9.73-6.33.94-1.14.1-2.38.2-3.68.16-1.01-.03-2.05-.14-3.12-.4-2.02-.49-2.05-1.01-3.4-1.3-2.59-.57-4.94.8-8.46,2.1-.99.37-2.07.73-3.28,1.05-1.96.51-3.93.77-6.33.87Z" fill="#8e5a24"/>
              <path d="M630.15,152.29c.33,3.5.46,9.88.37,16.07-2.35-.65-5.57-.12-7.58-1.48-2.14-1.45-.42-3.36-2.25-3.86,0-.03-.02-.02-.04-.01-.03,0-.05-.01-.08-.02-.11-1.47-.21-2.83-.24-4.04-.12-5.55,1.35-10.33,2.9-14.04.64.16,1.52.43,2.41.86,4,1.91,4.38,5.1,4.51,6.52Z" fill="#8e5a24"/>
              <path d="M623.23,144.91c-1.54,3.71-3.01,8.5-2.9,14.04.03,1.21.13,2.57.24,4.04-1.48-.33-4.01.45-5.18,1.5-1.39,1.25-.18,2.28-1.53,2.99-1.22.64-2.62-.23-5.2.19-1.7.27-3.16.46-4.44.61.16-2.4,1.08-3.59,1.47-4.07.52-.62,1.05-1.11,1.43-1.44l-5.68-8.18c2.24.45,7.01-4.59,14.55-10.95.21-.18.42-.35.63-.53,5.48-4.58,8.25-6.86,9.49-6.59,1.42.32-.8,3.37-2.88,8.39Z" fill="#27aa4a"/>
              <path d="M621.78,188.26h-1.73c-2.36-.57-6.15-1.69-9.2-3.9-2.45-1.77-3.26-3.67-4.79-7.4-.26-.63-.49-1.24-.68-1.82,3.51-1.31,5.86-2.67,8.46-2.1,1.34.29,1.38.81,3.4,1.3,1.07.26,2.12.38,3.12.4v.04c-.07.42-.14.85-.22,1.27-.11.55-.37,1.77-.39,3.42-.07,3.95,1.22,6.92,2.04,8.79Z" fill="#27aa4a"/>
              <path d="M620.7,163.02s-.03,0-.04-.01c.02-.01.04-.02.04.01Z" fill="#8e5a24"/>
              <path d="M620.65,163.01s-.08.06-.08.01c0-.01,0-.02,0-.03.03,0,.05.01.08.02Z" fill="#8e5a24"/>
              <path d="M615.59,143.48l.41.16c-7.54,6.36-12.31,11.41-14.55,10.95,0,0-.24-.05-2.18-2.27.91.69,1.07.8-.08-.09.03.03.05.06.08.09-1.82-1.38-6.59-5.04-9.91-7.63.21-.04.16-.13.41-.21,1.21-.37,2.57-1.22,3.43-4.9.45-1.92.77-4.67.1-8.05l.79-.02,21.5,11.97Z" fill="#8e5a24"/>
              <path d="M613.89,141.54l1.69,1.93-21.5-11.97,18.72.09-.31,5.61c0,1.28,1.4,4.34,1.4,4.34Z" fill="#8e5a24"/>
              <path d="M601.45,154.59l5.68,8.18c-.38.32-.91.81-1.43,1.44-.4.48-1.31,1.67-1.47,4.07-1.98.23-3.5.38-4.74.63-.62.13-1.35.25-2.23.36-.25-.58-.6-1.16-1.07-1.74-1.35-1.67-3.3-2.82-4.81-3.55l10.07-9.39Z" fill="#ece70e"/>
              <path d="M603.53,274.38l-.07.42s-.03,0-.05,0c-6.69-.37-20.04-.47-22.02-1.6-2.02-1.15-3.27-5.8-3.77-8.81l9.93-8.26,14.19,8.74c1.02,5.45,1.8,9.52,1.8,9.52Z" fill="#31522a"/>
              <path d="M601.74,264.86l-14.19-8.74-9.93,8.26c-.21-1.26-.29-2.24-.24-2.55.17-.98.19-1.91.13-2.91l10.08-10.35,12.93,9.69c.43,2.3.85,4.54,1.23,6.59Z" fill="#65bc46"/>
              <path d="M579.1,186.23c.53-1.71,1.13-3.88,1.68-6.51.2-.96.38-1.92.53-2.85,1.02.04,2.14.07,3.38.1,4.7.13,8.13.22,10.98.1.03,0,.06,0,.09,0-.38.51-.71.9-.91,1.13-1.6,1.84-3.65,3.2-5.41,4.15,0,0-5.12,2.86-6.54,3.18l-3.89.89c.02-.06.03-.12.05-.18h.03Z" fill="#27aa4a"/>
            </g>
            <g>
              <path d="M595.67,177.07s.06,0,.09,0c2.4-.1,4.37-.36,6.33-.87,1.21-.32,2.29-.68,3.28-1.05,3.51-1.31,5.86-2.67,8.46-2.1,1.34.29,1.38.81,3.4,1.3,1.07.26,2.12.38,3.12.4,1.3.04,2.54-.06,3.68-.16,2.44-.21,4.69-.4,6.33-.94.85-.28,1.54-.65,2-1.16.88-.97.94-2.43-.36-3.42-.43-.33-.93-.55-1.49-.7-2.35-.65-5.57-.12-7.58-1.48-2.14-1.45-.42-3.36-2.25-3.86-.01,0-.03,0-.04-.01-.03,0-.05-.01-.08-.02-1.48-.33-4.01.45-5.18,1.5-1.39,1.25-.18,2.28-1.53,2.99-1.22.64-2.62-.23-5.2.19-1.7.27-3.16.46-4.44.61-1.98.23-3.5.38-4.74.63-.62.13-1.35.25-2.23.36-2.97.37-7.61.58-15.09.36-1.43-.04-2.97-.1-4.62-.18-1.43-.07-2.94-.15-4.54-.24" fill="none" stroke="#010101" stroke-miterlimit="10"/>
              <path d="M578.04,145.32c-.89.17-1.5.28-2.27.6-2.55,1.03-3.32,2.65-4.18,4.69-2.6,6.12-3.08,8.8-4.61,14.31-.78,2.82-1.29,4.4-.03,6.42.51.82,1.95,2.72,5.27,4.09,2.49,1.03,5.01,1.3,9.09,1.45,1.02.04,2.14.07,3.38.1,4.7.13,8.13.22,10.98.1" fill="none" stroke="#010101" stroke-miterlimit="10"/>
              <path d="M593.23,131.23c.02.1.04.19.06.29.68,3.39.35,6.14-.1,8.05-.86,3.68-2.22,4.53-3.43,4.9-.25.08-.2.17-.41.21-.01,0-.02,0-.03,0" fill="none" stroke="#010101" stroke-miterlimit="10"/>
              <path d="M578.06,145.13c.01.06.02.12.03.18.35,2.05.93,4.58,1.81,7.68l1.3,4.36" fill="none" stroke="#010101" stroke-miterlimit="10"/>
              <path d="M599.27,152.32c1.94,2.22,2.18,2.27,2.18,2.27,2.24.45,7.01-4.59,14.55-10.95.21-.18.42-.35.63-.53,5.48-4.58,8.25-6.86,9.49-6.59,1.42.32-.8,3.37-2.88,8.39-1.54,3.71-3.01,8.5-2.9,14.04.03,1.21.13,2.57.24,4.04,0,.01,0,.02,0,.03" fill="none" stroke="#010101" stroke-miterlimit="10"/>
              <path d="M589.36,144.69c3.33,2.59,8.1,6.25,9.91,7.63h0c.91.69,1.07.81-.08-.09.03.03.05.06.08.09" fill="none" stroke="#010101" stroke-miterlimit="10"/>
              <path d="M620.7,163.02s-.02-.02-.04-.01c-.03.02-.08.06-.08.01" fill="none" stroke="#010101" stroke-miterlimit="10"/>
              <path d="M579.07,186.23c-.02.06-.04.12-.05.18-.37,1.17-.69,2.2-.93,2.93-3.64,11.02-3.62,19.86-3.58,36.56.05,21.81,2.66,28.2,2.98,33.04.07.99.04,1.92-.13,2.91-.05.31.03,1.28.24,2.55.5,3.01,1.76,7.66,3.77,8.81,1.98,1.13,15.33,1.23,22.02,1.6.02,0,.03,0,.05,0,1.74.1,1.63.25,6,.88.99.14,7.1,1.02,12.1,1.34,2.07.13,9.84.55,18.92-.98,2.63-.44,11.28-1.91,11.37-4.01.03-.66-.81-.88-1.85-2.11-.01-.01-.02-.03-.04-.04-1.45-1.74-1.44-3.28-1.49-4.5-.02-.44-.04-.88-.07-1.32-.37-5.7-1.6-11.38-2.11-17.08-.48-5.34-.72-8.08-1.84-11.77-1.19-3.96-2.4-5.75-10.13-18.66-7.01-11.7-7.72-13.07-8.63-15.44-.99-2.59-1.35-4.14-1.62-5.48-.38-1.93-.56-3.42-2.1-6.94-.06-.13-.12-.27-.19-.42-.83-1.87-2.11-4.84-2.04-8.79.03-1.66.29-2.87.39-3.42.08-.42.16-.85.22-1.27" fill="none" stroke="#010101" stroke-miterlimit="10"/>
              <path d="M581.33,176.78l-.02.09c-.16.94-.33,1.89-.53,2.85-.55,2.63-1.15,4.8-1.68,6.51-.01.03-.02.06-.03.09" fill="none" stroke="#010101" stroke-miterlimit="10"/>
              <path d="M576.69,166.23c.05-.29.11-.61.19-.95.14-.6.33-1.27.6-2.01.13-.36.38-.98.75-1.74.97-1.95,2.01-4.06,2.65-4.05h.01c.99.04,1.74,5.1,1.28,12.15,0,0,0,.01,0,.02" fill="none" stroke="#010101" stroke-miterlimit="10"/>
              <polyline points="576.91 165.27 577.56 166.67 577.55 169.45" fill="none" stroke="#010101" stroke-miterlimit="10"/>
              <path d="M605.33,174.98c.02.05.04.11.06.17.2.58.42,1.18.68,1.82,1.53,3.73,2.34,5.63,4.79,7.4,3.05,2.21,6.84,3.33,9.2,3.89h1.73s.31,0,.31,0" fill="none" stroke="#010101" stroke-miterlimit="10"/>
              <path d="M597.27,169.3s-.01-.02-.02-.03c-.25-.58-.6-1.16-1.07-1.74-1.35-1.67-3.3-2.82-4.81-3.55l10.07-9.39,5.68,8.18c-.38.32-.91.81-1.43,1.44-.4.48-1.31,1.67-1.47,4.07,0,.01,0,.03,0,.04" fill="none" stroke="#010101" stroke-miterlimit="10"/>
              <path d="M578.79,186.46l.23-.05,3.89-.89c1.42-.31,6.54-3.18,6.54-3.18,1.76-.95,3.81-2.31,5.41-4.15.2-.23.53-.62.91-1.13.02-.02.03-.04.05-.07" fill="none" stroke="#010101" stroke-miterlimit="10"/>
              <path d="M630.39,173.65c-.2,5.55-.6,9.98-1.23,11.12-.07.13-.32.53,0,.88.49.56,1.81.38,2.97.9,1.21.54,1.9,1.68,1.27,2.25-.77.69-3.11.22-3.83.95-.43.43.06.92.28,1.36.41.86.13,2.24-3.28,4.48,0,0-.57.4-1.42.23l-.93-.2" fill="none" stroke="#010101" stroke-miterlimit="10"/>
              <path d="M630.53,168.41v.11" fill="none" stroke="#010101" stroke-miterlimit="10"/>
              <path d="M623.1,144.88s.09.02.14.03c.64.16,1.52.43,2.41.86,4,1.91,4.38,5.1,4.51,6.52.33,3.5.46,9.88.37,16.07v.05" fill="none" stroke="#010101" stroke-miterlimit="10"/>
              <polyline points="600.55 203.89 595.71 208.35 591.2 201.76" fill="none" stroke="#010101" stroke-miterlimit="10"/>
              <path d="M603.53,274.38s-.77-4.07-1.8-9.52c-.38-2.05-.8-4.29-1.23-6.59-1.82-9.78-3.8-20.5-3.79-21.19,0-1.28-1.05-17.97-1.05-17.97l.05-10.75" fill="none" stroke="#010101" stroke-miterlimit="10"/>
              <polyline points="577.32 259.12 577.5 258.93 587.58 248.58 600.5 258.27 601.15 258.75 614.26 245.34 648.39 264.06 648.78 264.27" fill="none" stroke="#010101" stroke-miterlimit="10"/>
              <polyline points="577.58 264.42 577.61 264.38 587.54 256.12 601.74 264.86 602.25 265.17 615.07 253.52 649.99 269.92 651.3 270.54" fill="none" stroke="#010101" stroke-miterlimit="10"/>
            </g>
          </g>
          <polyline points="578.84 148.07 577.47 143.26 577.75 139.74 579.21 136.94 589.34 144.67" fill="none" stroke="#231f20" stroke-miterlimit="10"/>
          <polyline points="612.8 131.59 612.65 135.98 612.78 139 615.59 143.48" fill="none" stroke="#010101" stroke-miterlimit="10"/>
        </g>
      </g>
    </g>
  </g>
</svg>