<?xml version="1.0" encoding="UTF-8"?>
<svg id="Layer_2" data-name="Layer 2" xmlns="http://www.w3.org/2000/svg" viewBox="0 0 769.4 268.81">
  <g id="outlines">
    <g id="Page_3" data-name="Page 3">
      <g id="Frame_16" data-name="Frame 16">
        <g id="Inside_Corporate" data-name="Inside Corporate">
          <polygon points="660.89 206 2.59 98.18 2.59 2.72 662.94 2.72 660.89 206" fill="#f47a20" stroke="#231f20" stroke-miterlimit="10"/>
          <rect x="64.7" y="78.39" width="266.19" height="82.1" fill="#c1bfb0" stroke="#231f20" stroke-miterlimit="10"/>
          <line x1="205.76" y1="80.7" x2="205.76" y2="163.13" fill="none" stroke="#231f20" stroke-miterlimit="10"/>
          <rect x="2.59" y="2.72" width="660.35" height="265.59" fill="none" stroke="#231f20" stroke-miterlimit="10"/>
          <polygon points="3.27 222.81 117.26 205.01 115.89 175.33 .54 185.22 3.27 222.81" fill="#7b7c88" stroke="#231f20" stroke-miterlimit="10"/>
          <polygon points="2.59 157.53 .54 185.22 115.89 175.33 76.3 150.6 2.59 157.53" fill="#9fa0aa" stroke="#231f20" stroke-miterlimit="10"/>
          <polygon points="89.95 64.55 76.3 150.6 2.59 157.53 2.59 72.46 89.95 64.55" fill="#7b7c88" stroke="#231f20" stroke-miterlimit="10"/>
          <polygon points="86.54 80.37 331.57 78.39 332.94 69.49 317.24 55.64 128.86 53.66 89.95 64.55 86.54 80.37" fill="#7b7c88" stroke="#231f20" stroke-miterlimit="10"/>
          <polygon points="285.84 150.6 278.33 178.3 331.57 191.16 339.76 152.58 285.84 150.6" fill="#686a75" stroke="#231f20" stroke-miterlimit="10"/>
          <polygon points="533.6 193.14 531.55 234.68 331.57 191.16 339.76 152.58 533.6 193.14" fill="#7b7c88" stroke="#231f20" stroke-miterlimit="10"/>
          <polygon points="533.6 193.14 339.76 152.58 399.82 139.72 398.46 55.64 382.76 42.78 469.44 19.04 565.68 23.99 567.05 172.36 533.6 193.14" fill="#7b7c88" stroke="#231f20" stroke-miterlimit="10"/>
          <polygon points="531.55 234.68 660.55 241.61 661.24 199.07 533.6 193.14 531.55 234.68" fill="#62646e" stroke="#231f20" stroke-miterlimit="10"/>
          <polygon points="567.05 172.36 533.6 193.14 661.24 199.07 661.24 14.1 565.68 23.99 567.05 172.36" fill="#666c7c" stroke="#231f20" stroke-miterlimit="10"/>
          <ellipse cx="61.63" cy="245.56" rx="21.5" ry="12.86" fill="#434551" stroke="#231f20" stroke-miterlimit="10"/>
          <ellipse cx="133.29" cy="235.67" rx="22.86" ry="17.8" fill="#434551" stroke="#231f20" stroke-miterlimit="10"/>
          <ellipse cx="197.79" cy="240.62" rx="10.92" ry="11.87" fill="#434551" stroke="#231f20" stroke-miterlimit="10"/>
          <ellipse cx="157.52" cy="193.63" rx="10.92" ry="14.34" fill="#434551" stroke="#231f20" stroke-miterlimit="10"/>
          <ellipse cx="256.15" cy="218.36" rx="12.63" ry="16.32" fill="#434551" stroke="#231f20" stroke-miterlimit="10"/>
          <ellipse cx="261.27" cy="184.73" rx="6.83" ry="11.38" fill="#434551" stroke="#231f20" stroke-miterlimit="10"/>
          <ellipse cx="218.27" cy="207.97" rx="6.83" ry="9.89" fill="#434551" stroke="#231f20" stroke-miterlimit="10"/>
          <ellipse cx="316.56" cy="251.99" rx="9.56" ry="10.39" fill="#434551" stroke="#231f20" stroke-miterlimit="10"/>
          <ellipse cx="308.02" cy="217.87" rx="9.21" ry="7.91" fill="#434551" stroke="#231f20" stroke-miterlimit="10"/>
          <ellipse cx="248.64" cy="253.48" rx="7.17" ry="10.88" fill="#434551" stroke="#231f20" stroke-miterlimit="10"/>
          <ellipse cx="361.94" cy="235.18" rx="11.26" ry="11.38" fill="#434551" stroke="#231f20" stroke-miterlimit="10"/>
          <ellipse cx="419.28" cy="250.01" rx="5.12" ry="10.39" fill="#434551" stroke="#231f20" stroke-miterlimit="10"/>
          <ellipse cx="473.88" cy="244.08" rx="5.8" ry="3.46" fill="#434551" stroke="#231f20" stroke-miterlimit="10"/>
          <ellipse cx="390.27" cy="230.73" rx="8.87" ry="23.74" fill="#434551" stroke="#231f20" stroke-miterlimit="10"/>
          <ellipse cx="539.74" cy="255.95" rx="10.24" ry="7.42" fill="#434551" stroke="#231f20" stroke-miterlimit="10"/>
          <ellipse cx="593.32" cy="257.43" rx="7.85" ry="5.93" fill="#434551" stroke="#231f20" stroke-miterlimit="10"/>
          <ellipse cx="441.8" cy="237.16" rx="9.9" ry="12.36" fill="#434551" stroke="#231f20" stroke-miterlimit="10"/>
          <ellipse cx="334.98" cy="222.32" rx="6.83" ry="14.34" fill="#434551" stroke="#231f20" stroke-miterlimit="10"/>
          <ellipse cx="281.75" cy="246.55" rx="7.51" ry="8.9" fill="#434551" stroke="#231f20" stroke-miterlimit="10"/>
          <g>
            <g>
              <path d="M612.09,18.06L628.47.24s-.68,2.97-16.38,17.82Z" fill="#f47a20"/>
              <polygon points="386.18 3.21 382.76 42.79 317.24 55.64 386.18 3.21" fill="#f47a20"/>
              <path d="M274.95,55.62L325.43,1.23c-44.88,49.96-50.08,54.12-50.48,54.39Z" fill="#f47a20"/>
              <path d="M63.8,67.21L160.93,1.23c-67.33,46.51-93.46,63.6-97.14,65.98Z" fill="#f47a20"/>
            </g>
            <g>
              <line x1="58.56" y1="2.22" x2="3.27" y2="29.92" fill="none" stroke="#231f20" stroke-miterlimit="10"/>
              <line x1="2.59" y1="52.67" x2="91.32" y2="3.21" fill="none" stroke="#231f20" stroke-miterlimit="10"/>
              <path d="M160.93,1.23c-67.33,46.51-93.46,63.6-97.14,65.98" fill="none" stroke="#231f20" stroke-miterlimit="10"/>
              <line x1="63.34" y1="67.52" x2="63.8" y2="67.21" fill="none" stroke="#231f20" stroke-miterlimit="10"/>
              <path d="M205.99,3.21l-50.51,50.45" fill="none" stroke="#231f20" stroke-miterlimit="10"/>
              <line x1="279.02" y1="2.22" x2="222.37" y2="53.66" fill="none" stroke="#231f20" stroke-miterlimit="10"/>
              <path d="M325.43,1.23c-44.88,49.96-50.08,54.12-50.48,54.39" fill="none" stroke="#231f20" stroke-miterlimit="10"/>
              <line x1="274.92" y1="55.64" x2="274.95" y2="55.62" fill="none" stroke="#231f20" stroke-miterlimit="10"/>
              <polyline points="386.18 3.21 317.24 55.64 382.76 42.79" fill="none" stroke="#231f20" stroke-miterlimit="10"/>
              <line x1="469.44" y1="19.05" x2="483.09" y2="3.21" fill="none" stroke="#231f20" stroke-miterlimit="10"/>
              <line x1="404.61" y1="33.88" x2="425.08" y2="2.22" fill="none" stroke="#231f20" stroke-miterlimit="10"/>
              <line x1="526.09" y1="20.04" x2="538.38" y2="2.22" fill="none" stroke="#231f20" stroke-miterlimit="10"/>
              <line x1="565.68" y1="23.98" x2="581.38" y2="3.21" fill="none" stroke="#231f20" stroke-miterlimit="10"/>
              <path d="M612.09,18.06c15.7-14.85,16.38-17.82,16.38-17.82" fill="none" stroke="#231f20" stroke-miterlimit="10"/>
            </g>
          </g>
          <g id="No_Entry" data-name="No Entry">
            <g id="Layer_165" data-name="Layer 165">
              <polyline points="275.53 59.38 286.72 63.73 278.35 67.35 290.43 74.31" fill="#7b7c88" stroke="#231f20" stroke-miterlimit="10" stroke-width="2"/>
              <polyline points="138 75.05 138.19 58.3 156.66 58.41 156.47 75.17" fill="#7b7c88" stroke="#231f20" stroke-miterlimit="10" stroke-width="2"/>
              <ellipse cx="172.86" cy="66.9" rx="13" ry="8.15" fill="#7b7c88" stroke="#231f20" stroke-miterlimit="10" stroke-width="2"/>
              <path d="M164.02,64.27c-.6,1.1-3.31,1.55-6.06,1.01s-4.48-1.87-3.88-2.97,3.31-1.55,6.06-1.01,4.48,1.87,3.88,2.97Z" fill="#7b7c88" stroke="#231f20" stroke-miterlimit="10" stroke-width="2"/>
              <path d="M225.8,58.41c-8.64-.36-15.72,3.61-16.02,8.04-.32,4.76,7.27,9.29,16.58,8.72" fill="#7b7c88" stroke="#231f20" stroke-miterlimit="10" stroke-width="2"/>
              <line x1="209.79" y1="66.45" x2="219.4" y2="66.45" fill="#7b7c88" stroke="#231f20" stroke-miterlimit="10" stroke-width="2"/>
              <ellipse cx="224.39" cy="66.56" rx="1.41" ry=".79" fill="#7b7c88" stroke="#231f20" stroke-miterlimit="10" stroke-width="2"/>
              <ellipse cx="258.49" cy="74.15" rx="1.41" ry=".79" fill="#7b7c88" stroke="#231f20" stroke-miterlimit="10" stroke-width="2"/>
              <ellipse cx="274.21" cy="59.38" rx="1.32" ry=".75" fill="#7b7c88" stroke="#231f20" stroke-miterlimit="10" stroke-width="2"/>
              <ellipse cx="273.85" cy="73.99" rx="1.32" ry=".75" fill="#7b7c88" stroke="#231f20" stroke-miterlimit="10" stroke-width="2"/>
              <ellipse cx="290.43" cy="74.31" rx="1.32" ry=".75" fill="#7b7c88" stroke="#231f20" stroke-miterlimit="10" stroke-width="2"/>
              <ellipse cx="287.03" cy="63.67" rx="1.32" ry=".75" fill="#7b7c88" stroke="#231f20" stroke-miterlimit="10" stroke-width="2"/>
              <polyline points="231.27 75.05 231.08 58.52 248.79 58.52 248.79 75.17" fill="#7b7c88" stroke="#231f20" stroke-miterlimit="10" stroke-width="2"/>
              <line x1="253.88" y1="58.75" x2="270.08" y2="58.75" fill="#7b7c88" stroke="#231f20" stroke-miterlimit="10" stroke-width="2"/>
              <line x1="258.78" y1="58.75" x2="258.59" y2="71.2" fill="#7b7c88" stroke="#231f20" stroke-miterlimit="10" stroke-width="2"/>
              <polyline points="274.21 60.13 278.35 67.35 273.85 73.24" fill="#7b7c88" stroke="#231f20" stroke-miterlimit="10" stroke-width="2"/>
              <ellipse cx="304.47" cy="72.05" rx="2.92" ry="3" fill="#7b7c88" stroke="#231f20" stroke-miterlimit="10" stroke-width="2"/>
              <polyline points="299.1 60.01 304.47 69.05 310.64 60.83" fill="#7b7c88" stroke="#231f20" stroke-miterlimit="10" stroke-width="2"/>
            </g>
          </g>
        </g>
        <g id="Alien_Robot" data-name="Alien/Robot">
          <g id="Layer_122" data-name="Layer 122">
            <path d="M220.55,135.78c0,17.39-4.22,32.87-10.78,42.82-4.76,7.22-31.51,5.9-36.53-3.28-5.43-9.91-8.81-23.96-8.81-39.54,0-30.01,12.56-54.34,28.06-54.34s28.06,24.33,28.06,54.34Z" fill="#8ccc93" stroke="#231f20" stroke-miterlimit="10"/>
            <ellipse cx="194.5" cy="119.2" rx="9.13" ry="19.71" fill="#fff" stroke="#231f20" stroke-miterlimit="10"/>
            <ellipse cx="197.17" cy="120.99" rx="2" ry="5.37" stroke="#231f20" stroke-miterlimit="10"/>
            <polygon points="167.1 110.84 154.85 129.05 143.72 128.76 139.71 130.55 142.82 133.53 139.71 137.71 143.27 136.22 141.04 141.89 144.38 138.01 155.07 137.71 163.98 132.34 167.1 110.84" fill="#8ccc93" stroke="#231f20" stroke-miterlimit="10"/>
            <polygon points="217.44 107.26 229.69 125.47 240.82 125.17 244.83 126.96 241.71 129.95 244.83 134.13 241.27 132.64 243.49 138.31 240.15 134.43 229.46 134.13 220.55 128.76 217.44 107.26" fill="#8ccc93" stroke="#231f20" stroke-miterlimit="10"/>
            <g id="Layer_158" data-name="Layer 158">
              <line x1="184.78" y1="150.7" x2="203.46" y2="151.79" fill="none" stroke="#231f20" stroke-miterlimit="10"/>
            </g>
          </g>
          <path d="M663.49,89.69c-7.32,10.6-11.16,46.79,0,150.6l56.61,14.29c.69-1.81,1.78-4.51,3.3-7.69,5.75-12.06,10.24-15.46,14.84-24.18,4.1-7.77,7.33-13.91,6.6-21.44-1.21-12.34-11.69-13.98-13.19-26.38-.89-7.4,2.07-13.17,6.6-21.98,7.4-14.41,12.74-15.34,19.79-26.38,12.78-20.02,11.05-41.75,10.44-47.27-.95-8.66-2.2-19.96-10.99-29.13-12.54-13.09-34.77-15.93-40.12-9.34-1.49,1.83-2.08,4.89-3.85,4.95-1.99.06-2.43-3.79-5.5-6.6-5.46-4.99-14.94-2.71-17.04-2.2-2.05.49-9.65,2.33-13.74,8.79-3.81,6.01-1.42,11.05-2.2,19.24-1.23,12.96-9.19,21.33-11.54,24.73Z" fill="#fff" stroke="#231f20" stroke-miterlimit="10"/>
          <path d="M712.96,252.92s5.5-5.5,7.15-8.79,1.1-2.75,3.3-7.15,6.05-10.44,7.69-13.74,3.85-10.44,2.75-16.49-1.65-8.79-2.75-10.99-3.85-10.44-3.85-15.94-.55-13.74-.55-17.04,9.89-23.63,13.74-29.68,4.4-8.24,8.79-13.74,3.85-3.85,8.24-17.04,2.2-4.95,3.85-15.94.55-8.79-.55-16.49-2.75-5.5-5.5-10.44-3.85-5.5-10.44-10.99-4.95-4.4-12.64-6.6-4.4-1.65-11.54,0l-4.95,5.5c7.15-1.65,8.79-2.75,13.19-1.65s4.95,1.65,8.24,5.5,1.1,0,6.6,7.15,7.69,10.99,8.79,18.69,3.85-.55,1.1,10.99-2.2,10.99-4.4,14.84,1.1-2.2-3.3,7.15-2.75,6.05-7.69,16.49-7.33,13.56-7.33,13.56c0,0-7.51,12.82-9.16,16.67s-3.85,12.64-3.85,15.94,0-.55,0,6.6-.55,4.4-.55,11.54,4.4-4.95-2.2,9.34-4.95,9.34-8.24,18.14,1.1-1.65-3.3,8.79-10.99,21.44-10.99,21.44l20.34,4.4Z" fill="#fff" stroke="#231f20" stroke-miterlimit="10"/>
          <path d="M656.9,111.12s6.05-6.6,9.89-13.74,4.4-7.69,5.5-10.99,2.2-11.54,2.2-11.54l3.3-11.54.55-10.99,3.85-6.05s8.79-3.3,12.09-3.3,5.5,0,7.69,1.65,4.4,2.2,4.4,2.2c-9.89-.55-12.64-1.1-14.84,2.2s-6.05,6.05-6.6,8.79-5.77,17.86-5.77,17.86l-2.47,11.82s-1.65,10.44-2.75,13.74-3.3,9.89-6.6,14.84-10.44,7.69-10.44,7.69" fill="#fff" stroke="#231f20" stroke-miterlimit="10"/>
          <path d="M681.08,244.13s6.05-9.89,7.15-13.19,1.65-3.3,4.95-13.74,2.75-3.3,8.79-18.69.55-1.65,4.95-14.29,2.75-8.24,6.6-18.69.55-4.4,4.95-17.59,4.4-6.6,11.54-18.41,2.2-2.47,3.85-7.97,6.05-9.34,8.79-15.39,2.2-4.4,3.85-9.34,1.65-14.84-1.1-24.18,0,0-4.4-6.05,0-1.65-4.4-6.05-3.3-2.75-7.15-6.6-5.5-3.3-7.69-3.3h-5.5c7.15,4.4,4.95,5.5,8.24,7.15s4.4,1.65,6.6,4.4-.37-2.02,2.2,2.75,3.85,4.95,5.5,9.34,2.2,1.65,1.1,9.89-1.1,8.98-2.75,13.74-2.2,19.24-2.2,19.24" fill="#fff" stroke="#231f20" stroke-miterlimit="10"/>
          <path d="M733.29,102.88s.55.55,0,3.3,0,8.24-3.3,10.99-7.88,6.78-9.71,13.56-.18,4.58-4.58,12.82-3.85,7.15-8.79,15.94-4.4,6.05-6.05,14.84-14.84,21.44-14.84,21.44c0,0-7.69,8.24-7.69,13.74s-2.2,13.74-3.85,16.49-7.15,15.39-7.15,15.39" fill="#fff" stroke="#231f20" stroke-miterlimit="10"/>
          <path d="M689.87,169.38s4.95-5.5-1.1,6.6-7.69,9.89-9.34,16.49-8.24,13.19-8.24,13.19c0,0-2.75,5.5-3.3,8.79s-2.2,7.15-2.2,7.15l-3.3,8.24" fill="#fff" stroke="#231f20" stroke-miterlimit="10"/>
          <path d="M688.23,92.99s7.69-12.64,0,0-9.34,9.89-9.34,17.04-8.24,15.94-8.24,15.94l-11.36,10.63" fill="#fff" stroke="#231f20" stroke-miterlimit="10"/>
          <path d="M708.01,49.02s0-1.1-2.2,1.1-2.75,4.4-4.95,5.5-3.85,2.2-5.5,2.75l-4.95,1.65c-.55-2.75-1.1-3.85,1.1-4.95s1.65.55,4.4-2.2,12.09-3.85,12.09-3.85Z" fill="#fff" stroke="#231f20" stroke-miterlimit="10"/>
          <path d="M703.07,250.18l4.4-10.44s2.2-12.64,4.95-18.14,6.6-12.09,6.6-12.09c0,0,5.5-8,5.5-13.74v-13.74l1.1-9.34.55-6.05" fill="#fff" stroke="#231f20" stroke-miterlimit="10"/>
        </g>
        <g id="Layer_137" data-name="Layer 137">
          <path id="clothing" d="M670.78,131.73l29.4-32.43,5.5,22.26,24.05-10.44-2.34,7.15-8.66,13.88c-4.93,7.08-9.35,12.92-12.78,17.31-10.44,13.35-15.66,20.03-23.22,27.34-3.59,3.48-8.53,7.92-14.02,15.53-2.31,3.2-4.01,5.98-5.08,7.83l-.96-70.08,8.11,1.65Z" fill="#27aa4a" stroke="#231f20" stroke-miterlimit="10"/>
          <path d="M705.72,101.05v2.47s.92-1.1-.37.55-3.57,2.38-3.57,2.38l4.03,13.92,15.94-5.31-.73-10.17-5.59-.64-2.11-.73-7.6-2.47" fill="#8e5a24" stroke="#231f20" stroke-miterlimit="10"/>
          <polygon points="663.22 95.32 693.17 107.41 683.97 117.58 663.08 111.67 663.22 95.32" fill="#8e5a24" stroke="#231f20" stroke-miterlimit="10"/>
          <path d="M662.67,130.08c1.96.51,4.74,1.14,8.11,1.65,8.87,1.33,18.92-1.19,18.92-1.19l3.3-8.06,11.36-1.83,2.56,8.89-10.63,7.24s-4.33,8.93.37,22.35l-3.66,5.86-16.12,17.59-12.46,16.49-.88-34.81-.86-34.16" fill="#ece70e" stroke="#231f20" stroke-miterlimit="10"/>
          <line x1="673.2" y1="155.09" x2="663.53" y2="164.25" fill="#ece70e" stroke="#231f20" stroke-miterlimit="10"/>
        </g>
        <g id="person">
          <g id="Layer_144" data-name="Layer 144">
            <path d="M702.79,59.57c-.98.55-2.26,1.19-3.94,1.72-1.09.35-3.48,1.03-9.16,1.1-6.35.08-8.06.09-8.06.09,0,0-2.76,11.24-2.47,13.19,1.06,7.29,4.9,12.13,5.77,13.19,3.86,4.69,8.16,6.63,15.66,9.89,5.95,2.59,10.95,4.91,18.14,5.77,5.79.69,10.53-.18,16.76-1.83,1.29-.34,5.35-3.27,7.69-8.43,2.03-4.47.37-15.76.37-15.76l-1.83-5.13s-2.74-2.3-5.86-3.66c-4.2-1.84-6.29-2.76-7.69-3.3-4.47-1.73-8.27-3.05-12.09-5.5-1-.64-2.58-1.73-3.3-3.66-.52-1.41-.41-2.8-.39-3.01.16-1.79-.32-2.87-.53-3.04-.46-.37-2.47,4.5-8.24,7.88-.25.14-.52.3-.83.47" fill="#8e5a24" stroke="#231f20" stroke-miterlimit="10"/>
            <ellipse cx="715.16" cy="95.05" rx="6.6" ry="4.26" fill="#fff" stroke="#231f20" stroke-miterlimit="10"/>
            <path d="M688.78,62.96c-.58.41-.41,2.37.27,3.92,1.32,2.96,6.32,3.72,9.34,3.57,3.2-.15,4.28-1.33,8.52-1.37,1.61-.02,2.56-.04,3.85.27,3.16.77,3.8,2.41,7.15,4.12,2.33,1.19,4.28,1.55,6.32,1.92,3.73.69,6.14,1.13,8.24-.27,1.86-1.24,2.48-3.25,2.75-4.12.2-.63-.41-1.82-3.5-3.09-2.34-.96-3.57-1.72-6.25-2.54-4.64-1.43-4.26-1.17-8.11-1.51-2.66-.24-1.81.66-6.25-.07-3.1-.51-4.41-1.97-5.84-2.68-2.76-1.36-1.02-2.27-3.44-1.1s-2.86,1.37-5.22,1.92c-1.99.47-1.37.14-4.74.41" fill="#fff" stroke="#231f20" stroke-miterlimit="10"/>
            <ellipse cx="725.14" cy="69.72" rx="2.47" ry="2.2" fill="none" stroke="#231f20" stroke-miterlimit="10"/>
            <ellipse cx="698.39" cy="64.23" rx="1.83" ry="1.37" fill="none" stroke="#231f20" stroke-miterlimit="10"/>
            <polyline points="707.46 77.05 705.81 81.44 710.49 83.09" fill="none" stroke="#231f20" stroke-miterlimit="10"/>
            <path d="M663.68,130.91c.82.36.92.55,2.38,1.1,2.33.87,4.73.34,6.6,1.28,1.77.98,4.51,2.51,7.88,4.4,2.92,1.64,4.57,2.57,7.51,4.21,4.66,2.6,7.02,3.91,8.43,4.58,4.34,2.06,6.59,3.11,9.89,3.48,2.31.26,5.36.6,8.24-1.1,1.62-.95,2.55-2.29,4.4-4.95,2.29-3.3,3.44-4.95,3.48-7.33.02-.93-.12-3.22-2.2-5.86l6.41-10.81c1.14.33,2.43.92,3.48,2.02,2.69,2.8,2.27,7.24,1.83,11.91-.15,1.62-.35,3.63-1.1,6.23-.84,2.92-2.73,9.51-8.98,14.29-3.96,3.03-7.87,3.95-9.16,4.21-4.81.98-8.64.08-10.44-.37-2.33-.58-5.01-1.98-10.26-4.76-7.1-3.76-6.7-3.92-9.89-5.31-1.51-.66-5.73-2.42-11.36-3.66-3.52-.78-2.68-.27-6.6-1.1-2.58-.55-3.61-.91-4.95-.37-1.57.64-1.89,1.87-3.11,1.83-1.21-.03-2.51-1.28-2.38-2.2.24-1.74,5.53-1.98,5.5-2.75-.02-.4-4.06.7-5.5-1.1-.63-.79-.76-2.12-.18-2.75,1.24-1.36,5.65.66,5.68.55.04-.12-5.7-1.11-6.23-3.66-.25-1.2.66-2.76,1.83-3.11,2.44-.74,5.53,3.86,6.05,3.48.27-.2-4.17-3.93-3.3-6.6.37-1.14,1.71-2.1,2.56-1.83,1.84.57,1.05,4.98,3.48,6.05Z" fill="#8e5a24" stroke="#231f20" stroke-miterlimit="10"/>
          </g>
        </g>
      </g>
    </g>
  </g>
</svg>