<?xml version="1.0" encoding="UTF-8"?>
<svg id="Layer_2" data-name="Layer 2" xmlns="http://www.w3.org/2000/svg" viewBox="0 0 318.42 103.06">
  <g id="outlines">
    <g id="Page_3" data-name="Page 3">
      <g id="frame_13" data-name="frame 13">
        <g id="Frame_13" data-name="Frame 13">
          <g>
            <path d="M268.17,64.43c16,5,33,1,49,3-14,11-33,13-50,14,4,3,13,5,11,8.01-7,9.99-21-4.01-32-3.01-.99,0-4,3-4,6-11-2-26.07-4.9-34.09-13.57l.02-.09c.62.06,1.31-.03,2.06-.33,9.19-1.93,15.1-8.08,18.09-15.72,3.17-8.17,3.01-18.02-.08-26.29-.27-.4-.66-.67-1.15-.84l.09-.2c8.06-.95,16.05-3.95,24.06-5.96,0,5-6,7-7,12.01,18-5.01,35-21,55-17-9.01,9-20,16-31,23,11,3,24-3,33,7-10,5-21,11-33,10Z" fill="#ef4123"/>
            <path d="M258.6.66c2.18.14,4.38.41,6.57.77-12,13-27,22.01-38.97,33.7l-.04.24c-3.38-.54-9.59,1.51-13.58.21-.14-.04-.27-.1-.41-.15,14.99-10,31.99-22.99,46.43-34.77Z" fill="#49a146"/>
            <path d="M232.16,6.43c7.35-4.9,16.71-6.47,26.43-5.78-14.44,11.78-31.44,24.78-46.43,34.77.14.05.27.1.41.15l-3.48.04c-3.37-1.26-17.9-6.6-30.61-9.98,17.86-5.22,36.76-7.26,53.68-19.2Z" fill="#8dc740"/>
            <path d="M228.17,36.43c3.09,8.26,3.26,18.12.08,26.29l-7.08-.29v-4c-5.97,0-11.94-.73-16.67-4.04l5.33-18.5s-.25-.1-.73-.27l3.48-.04c4,1.31,10.2-.74,13.58-.21.31.04.6.12.86.22.49.17.88.44,1.15.84Z" fill="#8dc740"/>
            <path d="M221.17,62.43l7.08.29c-2.98,7.64-8.9,13.78-18.09,15.72-.75.3-1.44.4-2.06.33-3.11-.34-4.78-4.73-6.09-8.29-.07-.24-.13-.49-.18-.73l-.33-.66c-.36-.16-.73-.31-1.09-.46l1.89-6.58c6.08,1.66,12.48,1.98,18.87.38Z" fill="#8dc740"/>
            <path d="M221.17,58.43v4c-6.39,1.61-12.8,1.29-18.87-.38l2.21-7.66c4.73,3.32,10.7,4.04,16.67,4.04Z" fill="#49a146"/>
            <path d="M202.01,70.48c2.73,10.5,15.04,22.07,10.16,26.96-5,4.74-10.49,5.8-16.32,4.77l.14-.71c-7.8-14.06-18.79-25.05-22.45-41.35,14.61,4.11,26.72,9.01,26.72,9.01l.15-.53c.36.15.73.3,1.09.46.16.44.33.91.52,1.38Z" fill="#8dc740"/>
            <path d="M87.79,32.08c.14-.06,1.38-.59,3.19-1.35,1.87-.79,3.74-1.53,5.63-2.23-9.79,3.97-19.11,9.1-28.41,13.2-1.83.8-2.92,1.27-2.92,1.27-.12,4.46,1.88,9.45.89,13.45,13.97-8.98,42.88-9,39.01-30.86,1-.32,2.01-.62,3.01-.9,1.03-.25,2.06-.48,3.1-.69-.17,4.62-1.15,8.55-2.13,13.45,9.99-2.99,20-5,30-4-.96-4.75.8-8.6,3.56-12.41,2.35.03,4.71.12,7.07.26-1.11.72-1.89,1.95-2.2,3.84-.28.75-.73,1.42-1.34,1.98-2.1,2.33-4.11,6.33-1.1,6.33,2,.66,4,1.27,5.95,1.76,1.94.48,3.84.83,5.64.99,7.38,2.24,15.36-5.69,12.44-12.67,2.82.52,6,1.25,9.29,2.13,12.72,3.38,27.24,8.72,30.61,9.98.48.17.73.27.73.27l-5.33,18.5c-.81-.57-1.6-1.22-2.33-1.96-4-4-3-8.99-1-13-6-1-9-6-14.56-5.74-2.45-1.13-4.91-1.14-6.76-.02-6.67.77-4.68,9.76-1.67,13.77,6.6,6.61,15,12.13,24.13,14.62l-1.89,6.58c-19.99-8.41-40.63-14.21-62.45-14.78-2.88-.06-5.74-.03-8.56.11-1.1.05-2.21.11-3.32.2l-.43.02c-7.43.38-14.71,1.6-21.78,3.79-5.79,1.7-11.32,4-16.37,7.05-3.98,2.25-7.88,4.86-11.67,7.87-11.99,9-28,12-43.05,16.54-1.86.24-4.1.51-6.74.81-.53.06-1.09.13-1.66.18l-.05-.35s.67-2.65.67-3.9-.67-2.81-.83-3.28-3.98-4.72-4.48-5.49c-.5-.79-6.79-3.18-9.28-3.66l-.08-.33c2.6-.59,4.67-1.01,6.36-1.35,1.72-.34,3.05-.57,4.14-.8,14.99-8.36,23.99-23.37,41.44-27.46,3.05-1.19,5.72-2.35,8.12-3.48,6.14-3.81,12.45-7,18.87-9.61-.51.45-.99.9-1.48,1.38ZM42.16,65.43c9,4,14-1.99,11.68-12.6,0,0-2.79,1.5-5.72,3.77-2.96,2.84-7.96,7.84-5.96,8.83Z" fill="#f68b1f"/>
            <path d="M204.5,54.39l-2.21,7.66c-9.13-2.49-17.53-8.01-24.13-14.62-3-4-5-13,1.67-13.77,1.85-1.12,4.31-1.11,6.76.02,5.56-.26,8.56,4.74,14.56,5.74-2,4.01-2.99,9,1,13,.73.74,1.52,1.39,2.33,1.96Z" fill="#49a146"/>
            <path d="M201.83,69.75c.05.24.11.49.18.73-.18-.48-.35-.95-.52-1.38l.33.66Z" fill="#49a146"/>
            <path d="M173.53,60.15c-10.92-3.08-23.23-5.72-32.92-5.56-2.88-.17-5.64-.52-8.52-.55-2.02-.02-4.03.01-6.02.11,1.11-.09,2.22-.15,3.32-.2,2.82-.13,5.69-.16,8.56-.11,21.81.57,42.46,6.37,62.45,14.78l-.15.53s-12.11-4.9-26.72-9.01Z" fill="#8dc740"/>
            <path d="M195.98,101.5l-.14.71c-16.29-2.9-35.22-22.22-53.51-23.47-2.32-.55-4.67-1.02-7.03-1.42s-4.74-.69-7.14-.89c-16.99-2-35.81,2.59-52.82-1.41,3.53-4,7.64-7.31,12.15-10.01,5.31-2.99,10.77-5.32,16.37-7.05,7.05-2.07,14.46-3.24,21.78-3.79l.43-.02c1.99-.1,4.01-.13,6.02-.11,2.88.03,5.63.37,8.52.55,9.69-.16,21.99,2.48,32.92,5.56,3.65,16.29,14.64,27.29,22.45,41.35Z" fill="#49a146"/>
            <path d="M169.19,23.51c2.92,6.98-5.06,14.92-12.44,12.67-1.8-.16-3.7-.5-5.64-.99-1.95-.48-3.95-1.09-5.95-1.76-3,0-.99-4,1.1-6.33.61-.56,1.06-1.23,1.34-1.98.31-1.9,1.09-3.12,2.2-3.84,2.7.16,5.42.37,8.13.66,2.55.27,5.1.6,7.65.99,0,0,.03,0,.05,0,1.22.32,2.41.43,3.04.47.17.03.34.05.52.09Z" fill="#569ad3"/>
            <path d="M169.17,23.43l.03.08c-.17-.04-.34-.06-.52-.09.31.01.49.01.49.01Z" fill="#569ad3"/>
            <path d="M166.16,23.03c.8.1,1.64.23,2.51.38-.63-.04-1.82-.14-3.04-.47.17.03.35.05.52.08Z" fill="#f68b1f"/>
            <path d="M163.9,22.33c.53.26,1.11.46,1.68.61-2.55-.39-5.1-.72-7.65-.99-2.71-.29-5.43-.51-8.13-.66.72-.48,1.58-.76,2.55-.87,2.6.23,5.2.58,7.81,1.01.06,0,.14,0,.24,0,1.18.3,2.35.61,3.5.91Z" fill="#569ad3"/>
            <path d="M166.16,19.43c0,.95-4.4,1.88-5.76,1.99-1.2-.3-2.41-.58-3.55-.78-1.62-.28-3.16-.41-4.49-.23-2.93-.29-5.85-.46-8.75-.51,2.63-1.56,4.6-3.51,7.1-5.45v-.03c5.38,1.01,10.59,2.66,15.46,5Z" fill="#8dc740"/>
            <path d="M160.4,21.42c-.1,0-.17,0-.24,0-2.61-.44-5.22-.78-7.81-1.01,1.34-.18,2.88-.06,4.49.23,1.15.2,2.35.48,3.55.78Z" fill="#49a146"/>
            <path d="M150.71,14.43v.03c-2.5,1.94-4.47,3.9-7.1,5.45-1.08-.02-2.14-.02-3.21-.02-6.89-1.01-13.22.68-20.69,1.71-4.79,1.06-8.4,2.08-8.4,2.08,0,.05,0,.1,0,.15-1.04.26-2.07.55-3.1.84-1.01.23-2.03.49-3.03.75-5.36,1.39-10.66,3.14-15.89,5.28,15.69-14.06,39.9-20.33,61.43-16.27Z" fill="#49a146"/>
            <path d="M143.17,20.43c-.14.19-.29.4-.43.59-10.59-.15-21.12.78-31.44,2.95v-.14c9.54-2.46,19.24-3.85,29.1-3.94.91.13,1.84.31,2.77.54Z" fill="#569ad3"/>
            <path d="M111.29,23.98c10.32-2.17,20.85-3.1,31.44-2.95-2.76,3.81-4.52,7.65-3.56,12.41-10-1-20,1-30,4,.98-4.89,1.95-8.83,2.13-13.45Z" fill="#569ad3"/>
            <path d="M119.71,21.61c7.47-1.04,13.8-2.72,20.69-1.71-9.87.1-19.56,1.48-29.1,3.94,0-.05,0-.1,0-.15,0,0,3.61-1.02,8.4-2.08Z" fill="#569ad3"/>
            <path d="M105.16,25.43c1-.27,2.02-.52,3.03-.75-1,.28-2.01.58-3.01.9,0-.04,0-.09-.02-.14Z" fill="#49a146"/>
            <path d="M105.18,25.57c3.86,21.86-25.04,21.88-39.01,30.86.99-4-1-9-.89-13.45,0,0,1.09-.47,2.92-1.27,9.3-4.1,18.61-9.24,28.41-13.2.05-.02.11-.04.16-.07,2.79-1.04,5.59-2,8.41-2.86Z" fill="#569ad3"/>
            <path d="M105.16,25.43c0,.05.02.1.02.14-2.82.86-5.63,1.82-8.41,2.86,2.76-1.1,5.55-2.13,8.39-3.01Z" fill="#569ad3"/>
            <path d="M87.49,65.01c5.05-3.05,10.58-5.35,16.37-7.05-5.6,1.72-11.06,4.06-16.37,7.05Z" fill="#49a146"/>
            <path d="M105.16,25.43c-2.84.87-5.63,1.9-8.39,3.01-.05.03-.11.05-.16.07-1.88.7-3.75,1.45-5.63,2.23-1.81.75-3.05,1.29-3.19,1.35.49-.47.98-.93,1.48-1.38,5.23-2.13,10.53-3.88,15.89-5.28Z" fill="#49a146"/>
            <path d="M53.85,52.83c2.32,10.61-2.69,16.6-11.68,12.6-2-.99,3-5.99,5.96-8.83,2.94-2.27,5.72-3.77,5.72-3.77Z" fill="#569ad3"/>
            <path d="M24.18,82.89c.16.47.83,2.03.83,3.28s-.67,3.9-.67,3.9l.05.35c-2.23.26-4.74.54-7.52.86-5.02.57-8.95.96-12.26-1.34-3.19-2.21-3.91-5.64-3.97-5.96-.06-.3-.8-4.46,1.98-7.48,1.37-1.48,2.96-2,7.62-3.07.04,0,.06-.02.1-.02l.08.33c2.49.49,8.78,2.88,9.28,3.66.5.78,4.31,5.03,4.48,5.49Z" fill="#49a146"/>
          </g>
          <g>
            <path d="M125.64,54.17c-7.32.55-14.73,1.72-21.78,3.79-5.79,1.7-11.32,4-16.37,7.05-4.5,2.7-8.62,6-12.15,10.01,17,4,35.82-.59,52.82,1.41,2.41.2,4.78.5,7.14.89s4.7.86,7.03,1.42c18.3,1.25,37.22,20.57,53.51,23.47,5.83,1.03,11.32-.03,16.32-4.77,4.88-4.89-7.42-16.46-10.16-26.96-.07-.24-.13-.49-.18-.73l-.33-.66c-.36-.16-.73-.31-1.09-.46-19.99-8.41-40.63-14.21-62.45-14.78-2.88-.06-5.74-.03-8.56.11-1.1.05-2.21.11-3.32.2" fill="none" stroke="#231f20" stroke-miterlimit="10"/>
            <path d="M96.61,28.5c-1.88.7-3.75,1.45-5.63,2.23-1.81.75-3.05,1.29-3.19,1.35,0,0-.02,0-.02,0" fill="none" stroke="#231f20" stroke-miterlimit="10"/>
            <path d="M87.79,32.08c.49-.47.98-.93,1.48-1.38,15.69-14.06,39.9-20.33,61.43-16.27,5.38,1.01,10.59,2.66,15.46,5,0,.95-4.4,1.88-5.76,1.99-.1,0-.17,0-.24,0-2.61-.44-5.22-.78-7.81-1.01-2.93-.29-5.85-.46-8.75-.51-1.08-.02-2.14-.02-3.21-.02-9.87.1-19.56,1.48-29.1,3.94-1.04.26-2.07.55-3.1.84-1,.28-2.01.58-3.01.9-2.82.86-5.63,1.82-8.41,2.86" fill="none" stroke="#231f20" stroke-miterlimit="10"/>
            <path d="M173.52,60.12s0,.03,0,.03c3.65,16.29,14.64,27.29,22.45,41.35" fill="none" stroke="#231f20" stroke-miterlimit="10"/>
            <path d="M10.42,73.73c2.49.49,8.78,2.88,9.28,3.66.5.78,4.31,5.03,4.48,5.49s.83,2.03.83,3.28-.67,3.9-.67,3.9" fill="none" stroke="#231f20" stroke-miterlimit="10"/>
            <path d="M53.85,52.83c2.32,10.61-2.69,16.6-11.68,12.6-2-.99,3-5.99,5.96-8.83,2.94-2.27,5.72-3.77,5.72-3.77Z" fill="none" stroke="#231f20" stroke-miterlimit="10"/>
            <path d="M96.61,28.5c-9.79,3.97-19.11,9.1-28.41,13.2-1.83.8-2.92,1.27-2.92,1.27-.12,4.46,1.88,9.45.89,13.45,13.97-8.98,42.88-9,39.01-30.86,0-.04,0-.09-.02-.14-2.84.87-5.63,1.9-8.39,3.01-.05.03-.11.05-.16.07Z" fill="none" stroke="#231f20" stroke-miterlimit="10"/>
            <path d="M140.4,19.89c-6.89-1.01-13.22.68-20.69,1.71-4.79,1.06-8.4,2.08-8.4,2.08,0,.05,0,.1,0,.15v.14c-.17,4.62-1.15,8.55-2.13,13.45,9.99-2.99,20-5,30-4-.96-4.75.8-8.6,3.56-12.41.14-.19.29-.4.43-.59-.93-.23-1.85-.41-2.77-.54Z" fill="none" stroke="#231f20" stroke-miterlimit="10"/>
            <path d="M165.64,22.95c1.22.32,2.41.43,3.04.47.31.01.49.01.49.01l.03.08c2.92,6.98-5.06,14.92-12.44,12.67-1.8-.16-3.7-.5-5.64-.99-1.95-.48-3.95-1.09-5.95-1.76-3,0-.99-4,1.1-6.33.61-.56,1.06-1.23,1.34-1.98.31-1.9,1.09-3.12,2.2-3.84.72-.48,1.58-.76,2.55-.87,1.34-.18,2.88-.06,4.49.23,1.15.2,2.35.48,3.55.78,1.18.3,2.35.61,3.5.91.53.26,1.11.46,1.68.61" fill="none" stroke="#231f20" stroke-miterlimit="10"/>
            <path d="M150.71,14.46c-2.5,1.94-4.47,3.9-7.1,5.45-.05.03-.1.07-.14.09" fill="none" stroke="#231f20" stroke-miterlimit="10"/>
            <path d="M202.29,62.05c-9.13-2.49-17.53-8.01-24.13-14.62-3-4-5-13,1.67-13.77,1.85-1.12,4.31-1.11,6.76.02,5.56-.26,8.56,4.74,14.56,5.74-2,4.01-2.99,9,1,13,.73.74,1.52,1.39,2.33,1.96,4.73,3.32,10.7,4.04,16.67,4.04v4c-6.39,1.61-12.8,1.29-18.87-.38Z" fill="none" stroke="#231f20" stroke-miterlimit="10"/>
            <path d="M201.5,69.09c.16.44.33.91.52,1.38,1.31,3.56,2.98,7.95,6.09,8.29.62.06,1.31-.03,2.06-.33,9.19-1.93,15.1-8.08,18.09-15.72,3.17-8.17,3.01-18.02-.08-26.29-.27-.4-.66-.67-1.15-.84-.26-.1-.55-.17-.86-.22-3.38-.54-9.59,1.51-13.58.21-.14-.04-.27-.1-.41-.15,14.99-10,31.99-22.99,46.43-34.77h0" fill="none" stroke="#231f20" stroke-miterlimit="10"/>
            <path d="M226.2,35.13c11.97-11.7,26.97-20.7,38.97-33.7-2.19-.37-4.39-.63-6.57-.77-9.72-.69-19.08.87-26.43,5.78-16.92,11.94-35.82,13.98-53.68,19.2-.09.02-.17.05-.26.07" fill="none" stroke="#231f20" stroke-miterlimit="10"/>
            <path d="M189.05,27.64c5.56-1.86,10.56-5.86,17.04-8.67" fill="none" stroke="#231f20" stroke-miterlimit="10"/>
            <path d="M227.11,35.38c8.06-.95,16.05-3.95,24.06-5.96,0,5-6,7-7,12.01,18-5.01,35-21,55-17-9.01,9-20,16-31,23,11,3,24-3,33,7-10,5-21,11-33,10,16,5,33,1,49,3-14,11-33,13-50,14,4,3,13,5,11,8.01-7,9.99-21-4.01-32-3.01-.99,0-4,3-4,6-11-2-26.07-4.9-34.09-13.57" fill="none" stroke="#231f20" stroke-miterlimit="10"/>
            <path d="M165.64,22.95s-.05,0-.05,0c-2.55-.39-5.1-.72-7.65-.99-2.71-.29-5.43-.51-8.13-.66-2.36-.14-4.72-.22-7.07-.26-10.59-.15-21.12.78-31.44,2.95-1.04.21-2.07.44-3.1.69-1.01.23-2.03.49-3.03.75-5.36,1.39-10.66,3.14-15.89,5.28-6.42,2.61-12.73,5.8-18.87,9.61-2.41,1.12-5.07,2.29-8.12,3.48-17.45,4.1-26.45,19.1-41.44,27.46-1.09.22-2.42.46-4.14.8-1.69.34-3.76.76-6.36,1.35-.04,0-.06.02-.1.02-4.67,1.07-6.25,1.59-7.62,3.07-2.79,3.01-2.04,7.18-1.98,7.48.06.32.78,3.75,3.97,5.96,3.31,2.3,7.24,1.91,12.26,1.34,2.78-.31,5.28-.59,7.52-.86.57-.06,1.12-.12,1.66-.18,2.64-.3,4.87-.57,6.74-.81,15.05-4.53,31.06-7.53,43.05-16.54,3.79-3.01,7.69-5.63,11.67-7.87,5.31-2.99,10.77-5.32,16.37-7.05,7.06-2.19,14.34-3.41,21.78-3.79l.43-.02c1.99-.1,4.01-.13,6.02-.11,2.88.03,5.63.37,8.52.55,9.69-.16,21.99,2.48,32.92,5.56,14.61,4.11,26.72,9.01,26.72,9.01l.15-.53" fill="none" stroke="#231f20" stroke-miterlimit="10"/>
            <path d="M169.19,23.51c-.17-.04-.34-.06-.52-.09" fill="none" stroke="#231f20" stroke-miterlimit="10"/>
          </g>
        </g>
      </g>
    </g>
  </g>
</svg>