<?xml version="1.0" encoding="UTF-8"?>
<svg id="Layer_2" data-name="Layer 2" xmlns="http://www.w3.org/2000/svg" viewBox="0 0 442.37 405.84">
  <g id="outlines">
    <g id="Page_2" data-name="Page 2">
      <g id="Frame_10" data-name="Frame 10">
        <g id="Person">
          <g id="Layer_103" data-name="Layer 103">
            <g>
              <rect id="Frame_10-2" data-name="Frame 10" x="1.39" y="2.96" width="439.83" height="401.88" fill="#ccbfb2" stroke="#231f20" stroke-miterlimit="10" stroke-width="2"/>
              <g>
                <line x1="303.33" y1="4.13" x2="304.93" y2="2.83" fill="#ccbfb2" stroke="#231f20" stroke-miterlimit="10" stroke-width="2"/>
                <polygon points="439.67 2.52 273.68 3.62 184.64 139.92 184.64 279.53 441.87 279.49 439.67 2.52" fill="#2e2e2e" stroke="#231f20" stroke-miterlimit="10"/>
                <polygon points="342.46 18.44 284.2 18.44 216.05 126.16 344.53 125.19 342.46 18.44" fill="#4d4e4e" stroke="#231f20" stroke-miterlimit="10"/>
                <polyline points="440.76 122.84 381.41 123.16 381.41 18.46 438.41 16.24 440.46 19.47" fill="#4d4e4e" stroke="#231f20" stroke-miterlimit="10"/>
                <rect x="208.28" y="145.42" width="135.21" height="133.56" fill="#4d4e4e" stroke="#231f20" stroke-miterlimit="10"/>
                <rect x="381.41" y="148.72" width="59.36" height="130.78" fill="#4d4e4e" stroke="#231f20" stroke-miterlimit="10"/>
                <polyline points="42.94 98.93 71.24 49.9 42.94 .87 .71 .5 1.07 9.48 37.42 9.39 60.43 49.98 37.42 90.57 .52 90.57" fill="#4d4e4e" stroke="#231f20" stroke-miterlimit="10"/>
                <polygon points="1.62 84.6 28.35 84.5 43.94 53.39 1.07 53.08 1.62 84.6" fill="#9c9fa0" stroke="#231f20" stroke-miterlimit="10"/>
                <polygon points="1.07 47.41 43.94 47.39 28.35 16.28 .8 16.28 1.07 47.41" fill="#9c9fa0" stroke="#231f20" stroke-miterlimit="10"/>
                <polygon points="71.15 147.62 43.39 98.92 71.15 50.22 126.66 50.22 154.42 98.92 126.66 147.62 71.15 147.62" fill="#2e2e2e" stroke="#231f20" stroke-miterlimit="10"/>
                <polygon points="76.03 140.04 53.01 99.45 76.03 58.86 122.06 58.86 145.07 99.45 122.06 140.04 76.03 140.04" fill="#4d4e4e" stroke="#231f20" stroke-miterlimit="10"/>
                <polyline points="128.59 102.86 112.99 133.97 81.8 133.97 66.2 102.86" fill="#9c9fa0" stroke="#231f20" stroke-miterlimit="10"/>
                <polyline points="67.03 95.51 81.64 63.79 110.88 63.79 125.5 95.51" fill="#9c9fa0" stroke="#231f20" stroke-miterlimit="10"/>
                <polygon points="43.67 .76 71.56 50.26 128.17 50.26 154.78 2.79 43.67 .76" fill="#2e2e2e" stroke="#231f20" stroke-miterlimit="10"/>
                <polyline points="144.89 2.79 121.92 42.01 75.89 42.01 52.87 1.42" fill="#4d4e4e" stroke="#231f20" stroke-miterlimit="10"/>
                <polyline points="127.85 2.79 112.35 33.08 81.16 33.08 65.56 1.97" fill="#9c9fa0" stroke="#231f20" stroke-miterlimit="10"/>
                <polyline points="154.32 100.35 125.69 51.71 154.32 3.07 211.58 3.07" fill="#2e2e2e" stroke="#231f20" stroke-miterlimit="10"/>
                <polyline points="158.33 89.28 135.32 48.69 158.33 8.1 204.36 8.1" fill="#4d4e4e" stroke="#231f20" stroke-miterlimit="10"/>
                <polyline points="162.64 81.74 147.04 50.63 180.06 52.17 163.03 81.12" fill="#9c9fa0" stroke="#231f20" stroke-miterlimit="10"/>
                <polygon points="195.29 14.99 164.1 14.99 148.51 46.1 183.55 46.1 201.13 15.71 200.87 14.88 195.29 14.99" fill="#9c9fa0" stroke="#231f20" stroke-miterlimit="10"/>
                <polyline points="43.53 196.45 71.84 147.43 43.53 98.4 .52 98.4 .89 106.76 3.27 106.76" fill="#2e2e2e" stroke="#231f20" stroke-miterlimit="10"/>
                <polyline points=".8 188.21 37.28 188.21 60.29 147.62 37.28 107.03 .89 106.76" fill="#4d4e4e" stroke="#231f20" stroke-miterlimit="10"/>
                <polyline points=".8 182.14 28.21 182.14 43.81 151.03 .52 150.55" fill="#9c9fa0" stroke="#231f20" stroke-miterlimit="10"/>
                <polyline points="43.81 145.03 28.21 113.92 1.07 113.91" fill="#9c9fa0" stroke="#231f20" stroke-miterlimit="10"/>
                <polygon points="70.91 244.82 43.25 195.79 70.91 146.76 126.21 146.76 153.87 195.79 126.21 244.82 70.91 244.82" fill="#2e2e2e" stroke="#231f20" stroke-miterlimit="10"/>
                <polygon points="75.89 236.58 52.87 195.99 75.89 155.39 121.92 155.39 144.94 195.99 121.92 236.58 75.89 236.58" fill="#4d4e4e" stroke="#231f20" stroke-miterlimit="10"/>
                <polyline points="128.45 199.4 112.85 230.51 81.66 230.51 66.06 199.4" fill="#9c9fa0" stroke="#231f20" stroke-miterlimit="10"/>
                <polyline points="66.06 193.4 81.66 162.29 112.85 162.29 128.45 193.4" fill="#9c9fa0" stroke="#231f20" stroke-miterlimit="10"/>
                <polyline points="1.62 294.29 42.43 294.29 70.74 245.26 42.43 196.23 1.07 196.23" fill="#2e2e2e" stroke="#231f20" stroke-miterlimit="10"/>
                <polyline points=".52 285.41 35.63 285.41 58.65 244.82 35.63 204.23 .52 203.6" fill="#4d4e4e" stroke="#231f20" stroke-miterlimit="10"/>
                <polyline points=".8 280.08 27.62 280.08 43.22 248.97 .52 249.12" fill="#9c9fa0" stroke="#231f20" stroke-miterlimit="10"/>
                <polygon points="42.71 242.86 27.11 211.75 .71 211.74 .89 242.7 42.71 242.86" fill="#9c9fa0" stroke="#231f20" stroke-miterlimit="10"/>
                <polygon points="71.56 340.45 43.25 291.43 71.56 242.4 128.17 242.4 156.48 291.43 128.17 340.45 71.56 340.45" fill="#2e2e2e" stroke="#231f20" stroke-miterlimit="10"/>
                <polygon points="75.89 332.21 52.87 291.62 75.89 251.03 121.92 251.03 144.94 291.62 121.92 332.21 75.89 332.21" fill="#4d4e4e" stroke="#231f20" stroke-miterlimit="10"/>
                <polyline points="128.45 295.03 112.85 326.14 81.66 326.14 66.06 295.03" fill="#9c9fa0" stroke="#231f20" stroke-miterlimit="10"/>
                <polyline points="66.06 289.03 81.66 257.92 112.85 257.92 128.45 289.03" fill="#9c9fa0" stroke="#231f20" stroke-miterlimit="10"/>
                <polyline points="1.07 113.91 1.26 144.32 43.03 143.59" fill="#9c9fa0" stroke="#231f20" stroke-miterlimit="10"/>
                <polyline points="25.99 90.09 .52 90.57 .52 98.4 39.18 98.52" fill="#9c9fa0" stroke="#231f20" stroke-miterlimit="10"/>
                <polygon points="440.77 404.84 2.17 404.84 2.17 278.15 48.16 278.15 88.16 278.15 440.77 278.15 440.77 404.84" fill="#975e25" stroke="#231f20" stroke-miterlimit="10"/>
                <path d="M88.09,278.15l-26.98,1.55-3,12.77s-23.98,27.87-24.98,31.35-8.99,19.74-8.99,19.74c0,0-10.99,33.67-12.99,58.06l36.97,1.16s6.99-55.74,12.99-59.22c5.99-3.48,28.97-39.48,28.97-59.22l-2-6.19Z" fill="#b97129" stroke="#231f20" stroke-miterlimit="10"/>
                <path d="M164.02,278.15l-26.98,1.55-3,12.77s-23.98,27.87-24.98,31.35-8.99,19.74-8.99,19.74c0,0-10.99,33.67-12.99,58.06l36.97,1.16s6.99-55.74,12.99-59.22c5.99-3.48,28.97-39.48,28.97-59.22l-2-6.19Z" fill="#b97129" stroke="#231f20" stroke-miterlimit="10"/>
                <path d="M239.95,278.15l-26.98,1.55-3,12.77s-23.98,27.87-24.98,31.35c-1,3.48-8.99,19.74-8.99,19.74,0,0-10.99,33.67-12.99,58.06l36.97,1.16s6.99-55.74,12.99-59.22c5.99-3.48,28.97-39.48,28.97-59.22l-2-6.19Z" fill="#b97129" stroke="#231f20" stroke-miterlimit="10"/>
                <path d="M315.88,278.15l-26.98,1.55-3,12.77s-23.98,27.87-24.98,31.35-8.99,19.74-8.99,19.74c0,0-10.99,33.67-12.99,58.06l36.97,1.16s6.99-55.74,12.99-59.22c5.99-3.48,28.97-39.48,28.97-59.22l-2-6.19Z" fill="#b97129" stroke="#231f20" stroke-miterlimit="10"/>
                <path d="M391.81,278.15l-26.98,1.55-3,12.77s-23.98,27.87-24.98,31.35c-1,3.48-8.99,19.74-8.99,19.74,0,0-10.99,33.67-12.99,58.06l36.97,1.16s6.99-55.74,12.99-59.22c5.99-3.48,28.97-39.48,28.97-59.22l-2-6.19Z" fill="#b97129" stroke="#231f20" stroke-miterlimit="10"/>
                <path d="M437.77,292.47s-23.98,27.87-24.98,31.35-8.99,19.74-8.99,19.74c0,0-10.99,33.67-12.99,58.06l36.97,1.16s6.99-55.74,12.99-59.22v-63.86l-3,12.77Z" fill="#b97129" stroke="#231f20" stroke-miterlimit="10"/>
                <path d="M314.63,108.32c-.28,1.69.36-4.83-.65-5.01s-2.67-.04-3.69-.66c-1.02-.62-3.42-2.79-4.77-3.47-1.35-.68-5.33.35-5.33.35l-3.23,3.78-3.23,3.78s-6.02-.64-7.35-.45-5.55,4.23-5.55,4.23c0,0-2.54,4.34-2.47,6.96.08,2.63-2.07,9.21-2.07,9.21,0,0-3.25,2.9-3.21,4.22s-.74,9.02-.74,9.02l1.97,10.37,1.52,6.37s.44,3.56.58,8.38c.14,4.82.06,13.51.46,15.76s.68,11.88,1.39,13.32c.71,1.43,2.99,10.99,2.99,10.99l.55,7.5.51,6.19-1.85,5.33-1.47,6.71s.08,2.63.48,4.88,3.35,11.93,3.35,11.93c0,0-.35-.5.45,4,.8,4.5-1.54,15.84-1.5,17.16s-.96,12.9-.96,12.9l2.19,17.82,28.89,6.92,72.37,10.79s-2.08-2.55-1.15-5c.93-2.45,1.07-8.96,1.07-8.96,0,0-.41-2.69-2.81-4.86-2.4-2.17-7.66-10.96-7.72-13.15s.12-7.38.12-7.38l2.37-10.47,4.35-10.98,1.16-5.89-1.52-6.37s-1.02-.62-1.07-2.37-2.65-10.93-2.65-10.93l-2.86-6.61-1.27-9.38,1.82-6.21s1.34.24-.14-4.82-1.61-9.44-1.61-9.44l2.17-5.71,1.06-9.39s-.84-5.81-1.54-7.25c-.71-1.43-3.54-7.17-3.54-7.17l-1.21-7.19s-.45-4-.54-7.07c-.09-3.07-.58-8.38-.58-8.38l-1.18-6.31-4.16-5.54s-2.73-2.23-4.77-3.47c-2.04-1.24-5.78-3.65-6.81-4.71s-3.44-3.67-4.15-5.1-2.45-3.92-3.51-5.86c-1.06-1.93-2.45-3.92-4.13-4.22s-5.04-1.34-6.37-1.14c-1.33.2-5.65.73-6.99.49s-4.73-2.16-4.73-2.16l-6.73,3.69Z" fill="#fff" stroke="#231f20" stroke-miterlimit="10"/>
                <path d="M288.34,300.41s.65-.76-.06-2.19-1.44-3.74-1.84-5.99c-.4-2.25.45-7.32.45-7.32l1.15-6.33s.9-3.32.84-5.51c-.06-2.19-.36-12.26-.36-12.26l-1.29-9.81-.3-10.51-.55-7.5,2-11.4.04-10.01s-.46-4.44-.5-5.75-.84-5.81-.84-5.81c0,0-1.17-5.87-2.59-8.74s-1.47-4.62-1.47-4.62l-.15-5.25.89-3.76,1.52-4.95s-.68-.56-.77-3.62c-.09-3.07-.51-6.19-.91-8.44s-2.56-7.86-2.56-7.86c0,0-1.54-7.25-1.94-9.5s-1.08-14.13-1.08-14.13l2.93-2.52,1.21-4.14,3.18-5.53,5.92-2.86,6.26-2.8,2.97-1.21,1.91-3.14s.27-2.13,2.93-2.52c2.66-.4,4-.15,4-.15l1.78,3.8-3.59,2.84-5.26,2.54-3.56,3.72s-1.66.14-2.66.4-8.04,10.32-8.04,10.32l-2.52,5.21s-2.32.46-2.89,3.84c-.57,3.38-1.06,9.39-.35,10.83s4.7,12.6,4.7,12.6l.91,8.44.85,6.25s-1.98,12.28-.19,16.52c1.79,4.24,4.3,10.35,4.3,10.35l.9,8,.15,5.25s-.84,5.51-.11,7.82,1.11,3.68,1.11,3.68l.06,2.19c.05,1.75,1.58,14.22,1.58,14.22l-1.71,10.15-1.59,7.24c-.41,1.85-.47,3.88-.2,5.93l.85,6.27-1.13,12.87-.86,1.63c-1.79,3.38-1.74,8.18.13,12.32l.94,2.93-4.62-1.99Z" fill="none" stroke="#231f20" stroke-miterlimit="10"/>
                <path d="M304.99,226.72s-.08-2.63-.58-4.75-.08-2.92.3-4.88c.39-1.96.13-3.17-.65-7.09s-.72-1.87-.83-5.67c-.11-3.8.58-3.09,1.6-6.1s.81-2.76.27-6.05-1.3-6.62-1.3-6.62l1.87-4.6,1.06-1.84c-.07-2.37.21-2.64-1.17-4.02s-2.2-1.1-1.65-2.47,1.37-3.85,1.37-3.85" fill="none" stroke="#231f20" stroke-miterlimit="10"/>
                <path d="M306.39,259.5c.72,1.87,1.12.2,1.73,6.12.62,5.92.85,6.25.24,8.17-.61,1.92-1.97,8.65-1.95,9.53s-.4,1.38-.12,3.46c.28,2.08,1.49,5.2,1.97,6.45s.66,7.38.66,7.38l-.97,4.76" fill="none" stroke="#231f20" stroke-miterlimit="10"/>
                <path d="M316.2,184.09s0-.38-1.05,1.76c-1.05,2.14-1.51,1.47-1.23,3.55s.76,3.04,1.23,4,.8,4.5.8,4.5c0,0,.05,1.75-.35,3.13s-.57,3.38-.1,4.34,1.02,4.54,1.02,4.54l.08,2.92-.45,7.47" fill="none" stroke="#231f20" stroke-linecap="round" stroke-miterlimit="10"/>
                <path d="M318.95,109.86c.03.88-.59,2.51.77,3.62s1.6,1.45,2.73,1.94,1.37,1.12,3.61,1.81c2.24.69,3.14.85,3.61,1.81s.31,2.96.8,4.5c.49,1.54.74,2.46,1.43,3.45s.7,1.29,1.84,2.07,2.48,1.32,3.16,1.73,3.25,4.65,3.25,4.65c0,0,.1,3.5,1.91,4.41,1.81.9,2.72,1.65,4.07,2.18s1.57.57,2.47.73-.64,1.05.89.16c1.53-.89,4.65-.62,1.72-2.01s-1.51,1.47-2.93-1.4-2.11-3.86-2.59-4.82-.72-1.87-1.2-3.12-.47-.96-1.19-2.83-.95-1.91-2.09-2.99-1.13-.78-2.48-1.32-1.32.34-2.47-.73-1.34-.24-2.06-2.11.25.92-.72-1.87c-.97-2.79.65-.46-1-3.66-1.65-3.2.61-1.92-2.32-3.32s-2.93-1.4-4.03-1.01c-1.1.38-.65.76-2.21.48-1.57-.28.03.88-2.23-.11-2.25-.98-2.73-2.23-2.73-2.23Z" fill="none" stroke="#231f20" stroke-linecap="round" stroke-miterlimit="10"/>
                <path d="M336.72,185.65s1.62,2.03,1.66,3.49-.11,3.76-.29,5.17-.55,3.97-.29,5.17.93,1.33,1.89,3.82c.96,2.5,1.58.86,1.01,4.25-.57,3.38-1.22,3.85-1.18,5.31.04,1.46.57,4.17.63,6.5" fill="none" stroke="#231f20" stroke-linecap="round" stroke-miterlimit="10"/>
                <path d="M348.03,230.51s1.91-3.29,1.87-4.46-1.27-5.46-1.97-6.45-.33-3.54-.33-3.54l.29-5.47s-1.09-6.87-2.47-8.57-1.89-3.82-1.89-3.82l-.13-4.38s.94-5.93.67-7.43-1.65-1.67-1.68-4.08c-.02-1.99.8-4.19.8-4.19-1.37-3.02-3.57-4.4-3.57-4.4" fill="none" stroke="#231f20" stroke-linecap="round" stroke-miterlimit="10"/>
                <path d="M374.75,315.89s-.48-1.25-1.49-5.2c-1-3.96,0,0-2.69-8.32-2.69-8.32,0,0-.2-7.01-.2-7.01.19-1.13.42-8.64s.6-2.22,1.16-5.89c.56-3.67,0,0,.17-1.71.17-1.71,1.35-7.02,1.35-7.02l-1.46-11.88s-1.36-8.67-2.7-16.46c-1.34-7.79-.04-1.46-2.03-8.79s-1-3.66-.95-9.75.14-2.88.9-7.39c.76-4.51.14-2.88.95-5.64.81-2.76,1.02-3.3.17-9.55-.85-6.25-.33-3.84-1.32-7.21-.99-3.37-1.73-5.83-2.94-9.24s-1.54-7.25-4.22-14.99c-2.67-7.74-.71-1.58-1.03-4.83-.32-3.25-.39-5.88-.71-9.13-.32-3.25-.38-5.29-.7-8.84-.33-3.54-.81-5.08-1.11-7.75-.3-2.67-2.39-5.66-2.39-5.66,0,0-3.69-4.44-4.84-5.8s-3.43-3.23-4.56-4.01c-1.13-.78-3.45-3.81-3.45-3.81,0,0-1.45-4.04-3.04-5.19-1.59-1.16-2.77-1.52-2.3-2.74.83-2.18,1.95-1.68,3.53-1.11s3.44,3.52,3.44,3.52c0,0-.46-.37,1.65,3.2,2.11,3.57,1.89,3.82,4.38,5.43,2.49,1.61,6.2,6.63,6.89,7.33.69.7,1.15,1.37,3.23,4.06s1.99-.52,2.38,5.36c.39,5.88.5,1.83.51,9.97s-3.29,1.73.5,9.67c3.79,7.94,5.03,12.52,6.47,15.97,1.43,3.45,1.56,7.83,1.84,9.91s.57,4.17.69,8.55c.13,4.38.45,15.47-.28,21.15-.72,5.68-1.97,1.1-.67,7.72,1.3,6.62,2.41,14.08,3.42,18.33,1.01,4.25,1.21,3.41.71,9.13-.5,5.72,1.29-1.51-.9,7.39-2.19,8.9-3.36,14.5-3.92,18.17-.56,3.67-2.18,1.64-1.93,10.11.25,8.47-.9,7.39.33,11.39,1.23,4-.12-4.09,1.23,4,1.35,8.08,3.06,13.33,3.06,13.33" fill="none" stroke="#231f20" stroke-linecap="round" stroke-miterlimit="10"/>
                <path d="M352.8,149.62c.93,1.33,2.72,1.65,2.79,4.28.08,2.63.51,2.42.12,4.09s.21-.54-.55,3.97c-.76,4.51-1.76,8.4-1.44,11.65s-1.65-3.2,1.11,7.46,4.46,15.9,4.77,18.86c.31,2.96-.1,4.34-.19,8.68-.1,4.34-1.71,2.31-.43,8.35,1.29,6.04-.16,2.3,1.98,7.03,2.14,4.74,3.05-2.07,2.24,8.24-.81,10.31-1.68,3.47-1.44,11.65.24,8.17.8,12.34,1.96,14,1.16,1.66,6.81,12.26,6.81,12.26" fill="none" stroke="#231f20" stroke-linecap="round" stroke-miterlimit="10"/>
                <path d="M347.61,171.53s-.82,2.2-.05,4.45c.9,2.59,1.84,2.07,2.13,4.45.29,2.38.57,4.46.63,6.21s-1.05,9.69-1.02,10.85-.65.46.14,4.67.66,7.38,2.33,11.16c1.67,3.78,1.97,6.45,2.27,9.12s.74,2.46.19,6.42c-.55,3.97-.8,3.05-.48,6.59.33,3.54,1.28,5.75,1.28,5.75.01,5.07-1.36,6.17-2.46,7.27s-4.67,4.12-4.95,5.22-.05,6.36-.05,6.36c-.63,1.19.66,7.52.66,7.52,0,0-.34,3.71-.3,4.88s-.35,3.42,1.07,6.29,1.28,5.75.9,8c-.38,2.26-1.14,6.77-1.1,8.23.04,1.46,2.45,7.7,2.45,7.7l-.26,6.34-1.02,3.3" fill="none" stroke="#231f20" stroke-linecap="round" stroke-miterlimit="10"/>
                <path d="M299.24,165.76l-1.68,4.17s-.21.54-.61,1.92-1.11.09-.78,3.63c.33,3.54,1.07,6.29,1.36,8.37s.78,3.92,1.03,4.83.31,2.96.37,5c.06,2.04-.07,5.21-.21,8.09-.14,2.88-.26,6.34-.23,7.51s1,3.66,1.27,5.46c.27,1.79.44,7.63.44,7.63,0,0,.1,3.5.15,5.25s.12,4.09.12,4.09l-.17,1.71" fill="none" stroke="#231f20" stroke-miterlimit="10"/>
                <path d="M353.38,217.97c2.47,3.3,3.02,3.57,3.3,7.69s.27,8.52.55,12.09,0,14.02-.55,15.11-1.1,4.12-.55,7.15,2.2,4.4,3.02,7.97.27,3.3-.55,6.87-1.65,3.57-1.1,6.32,1.1,6.6,1.1,9.07-.82,4.67-.82,7.15-.27,1.65.55,5.5-1.1,10.72-1.1,10.72" fill="none" stroke="#231f20" stroke-linecap="round" stroke-miterlimit="10"/>
                <path d="M347.61,253.7c-3.02,2.75-4.67,4.4-4.67,8.52s.27,8.79-.55,11.27-.27,2.2-1.37,6.6-1.1,7.97-1.1,10.72,2.2,1.37-.55,3.3-.55,4.12.55,6.32,0,4.12,0,4.12l-1.65,6.32" fill="#fff" stroke="#231f20" stroke-miterlimit="10"/>
                <path d="M320.13,273.21c-.55,1.1-.82-.82-1.1,3.02s0,2.47-1.1,5.77-1.37.82-1.1,4.95,1.37,1.37.82,6.05-1.37,3.57-1.37,6.6,1.1,4.4,1.65,6.05l.82,2.47" fill="#fff" stroke="#231f20" stroke-miterlimit="10"/>
                <path d="M333.32,174c1.92,1.37,2.2,1.92,2.2,2.75s-1.65,4.12-1.65,4.12c0,0-2.2,3.57-1.1,5.77s3.3,4.67,2.47,9.34-4.12,1.1-.55,7.97,4.95,5.5,2.2,11.27-2.47,6.05,1.1,10.17,4.95-.27,1.37,7.97-4.12,6.6-.27,11.54,6.32,1.65,2.75,7.42-4.12,7.15-3.02,9.89,1.92,8.79,1.37,9.62.82,8.24.82,8.24" fill="none" stroke="#231f20" stroke-linecap="round" stroke-miterlimit="10"/>
                <path d="M329.28,112.53c.96,3.02.41,2.2,1.1,3.71s-1.1.96,1.37,2.2,2.89,1.37,4.26,1.79,1.92.41,2.47,1.92-1.1.55.82,2.61,3.44,3.98,3.98,3.98.96.55,0,.55-2.2.27-3.44.14-2.61.14-3.3-.55-2.2-1.24-2.75-1.79-1.92-2.06-2.75-2.75-2.2-1.65-2.47-2.61-.96-.82-1.1-2.89-.55-2.47-.55-3.71.69-2.89.69-2.89l.96-1.1.69,1.37Z" fill="#fff" stroke="#231f20" stroke-miterlimit="10"/>
                <path d="M309.96,111.48c-.82,1.24.14.14-2.2,1.65s-2.2,1.51-4.12,3.3-3.3,3.3-4.4,3.44-.96-.69-2.89.96-4.4,4.4-4.4,4.4l-1.65,1.79c1.37-.14,3.02-1.24,4.12-1.51s2.89-1.65,3.85-2.34,1.1-.55,2.61-1.92,1.79-2.34,3.44-3.44,1.51-1.24,3.02-2.34,1.37.69,1.92-1.65.69-2.34.69-2.34Z" fill="#fff" stroke="#231f20" stroke-miterlimit="10"/>
                <rect x="28.55" y="51.25" width="8.24" height="11.54" fill="#64a350" stroke="#231f20" stroke-miterlimit="10"/>
                <rect x="45.96" y="44.66" width="8.24" height="11.54" fill="#64a350" stroke="#231f20" stroke-miterlimit="10"/>
                <rect x="63.91" y="43.92" width="8.24" height="11.54" fill="#64a350" stroke="#231f20" stroke-miterlimit="10"/>
                <rect x="78.93" y="46.67" width="8.24" height="11.54" fill="#64a350" stroke="#231f20" stroke-miterlimit="10"/>
                <path d="M24.71,65.73h0c-2.08,14.86,1.15,23.86,4.67,29.4,2.7,4.26,5.28,6,15.11,19.24,4.29,5.77,6.18,8.64,6.87,12.92,1.08,6.72-2.03,9.27,0,12.92,3.57,6.41,17.91,6.93,20.34,2.75.45-.77.48-1.89.55-4.12.09-2.88-.37-4.01-.55-6.6-.09-1.23-.29-4.46.55-7.69.64-2.47,1.7-4.15,3.57-6.87,5-7.25,6.58-8.42,9.34-12.64,2.13-3.26,4.25-6.5,5.5-10.99.82-2.96.82-4.9.27-14.84-.93-16.84-1.4-19.53-3.85-21.98-1.59-1.6-3.72-2.44-7.97-4.12-6.33-2.5-11.69-3.11-14.02-3.3-7.6-.62-13.49.73-15.94,1.37-6.54,1.73-11.11,4.48-14.56,6.6-2.69,1.65-4.82,3.22-6.32,4.4l-3.57,3.57Z" fill="#64a350" stroke="#231f20" stroke-miterlimit="10"/>
                <path d="M53.56,222.92c1.75-.6,3.24,4.33,7.69,4.95.28.04.55.06.83.06,5.33.06,10.1-6.15,10.99-5.28.51.5-1.3,2.4-1.65,6.05-.19,1.92.13,3.36.27,4.12,1.38,7.22.1,18.94,3.57,36.55,2.48,12.55,3.23,7.09,6.05,18.69.44,1.81,1.18,5.06,3.57,6.05,2.85,1.17,6.54-1.48,7.15-.55.52.8-2,2.99-1.37,3.85.37.52,1.7.3,2.3.2,1.23-.2,1.63-.64,1.83-.48.54.43-1.08,4.63-4.4,7.42-3.36,2.82-7.24,3.18-8.79,3.3-5.53.43-12.78-1.69-15.39-6.6-.36-.68-.95-1-1.61-.88-.81.14-1.73.94-2.51,2.53-.9,1.82-1.85,3.76-3.85,4.95-2.42,1.44-5.05.99-6.05.82-.39-.07-4.3-.78-6.87-4.12-1.74-2.26-.76-2.98-3.3-7.42-.55-.96-1.45-2.42-1.1-2.75.12-.11.47.02,1.18.29,2.12.8,2.68,1.02,3.49,1.09.42.03.73.01,1,0,.83-.05,2.19-.14,2.3-.55.17-.64-2.61-2.22-5.24-3.15-1.31-.46-2.17-.61-2.18-.97-.02-.6,2.39-.63,4.4-2.2,1.22-.95,1.87-2.15,2.47-3.57,4.16-9.81,4.67-16.76,4.67-16.76,1.01-13.64.55-23.08.55-23.08-.64-13.35-2.24-21.76,0-22.53Z" fill="#64a350" stroke="#231f20" stroke-miterlimit="10"/>
                <line x1="62.08" y1="227.92" x2="64.59" y2="300.35" fill="none" stroke="#231f20" stroke-miterlimit="10"/>
                <path d="M48.89,295.19c1.36-.19,2.44-.61,3.3-1.1,5.08-2.87,7.1-10.73,5.77-19.79l-1.1-48.92" fill="none" stroke="#231f20" stroke-miterlimit="10"/>
                <path d="M66.75,226.49c2.39,34.6,3.85,57.03,3.85,60.18,0,.3-.01,1.6.27,3.3.22,1.28.59,3.52,1.65,5.22,2.25,3.63,7.64,4.94,11.82,4.12,1.89-.37,3.31-1.14,4.12-1.65l2.2-.27" fill="none" stroke="#231f20" stroke-miterlimit="10"/>
                <ellipse cx="41.33" cy="145.28" rx="9.76" ry="3.44" fill="#6abd45" stroke="#231f20" stroke-miterlimit="10"/>
                <ellipse cx="82.55" cy="144.46" rx="9.76" ry="3.44" fill="#6abd45" stroke="#231f20" stroke-miterlimit="10"/>
                <path d="M48.2,139.24c-1.55.43-2.49,1.92-3.02,3.02l3.57,1.92,3.3,2.75c4.4,1.65,8.79,2.47,8.79,2.47l6.87-.27,5.5-1.92.34-.39.39-.45,5.04-5.76-6.87-.82c-.51.47-1.24,1.07-2.2,1.65-.39.24-2.54,1.51-5.5,1.92-4.17.58-7.75-.87-9.62-1.65-3.56-1.49-4.71-2.99-6.6-2.47Z" fill="#086f39" stroke="#231f20" stroke-miterlimit="10"/>
                <path d="M39.55,148.72l-1.65,1.37-1.37,5.22-1.92,48.37c-3.3,2.2-4.12,0-4.12,3.02s-.27,3.85.82,3.85,2.75-.82,1.92.27-1.65,1.65-1.37,2.47,1.92,1.92,1.92,1.92l.82,1.65s.27,1.65,1.1,1.65h3.02s1.65-.55,2.2-1.65l2.75-5.5c1.37.27,1.37.82,2.47.82s1.65.27,1.92-.82.55-2.75,0-3.85-1.92-1.92-1.92-1.92l2.47-44.52c2.2-4.12,2.47-3.3,2.47-3.3l-1.37,74.47,26.11-.27-2.2-73.1c.27-1.65,1.37-2.2,1.37-2.2l11.54,42.6s-.55,2.75-.55,3.57.55,3.57,0,4.67-.27,2.75.82,3.3.82.55,2.47.55-1.1-3.57,2.47-.27,2.47,3.85,4.67,3.02,3.85-1.65,3.85-1.65c0,0,.55-3.57.55-4.67s.27-.27-.27-2.75-1.92-4.12-3.02-4.67-1.1-.82-2.2-1.37-6.6-49.47-6.6-49.47c-.82-1.65-1.65-2.2-1.65-2.2l-10.58.31-2.06-.72-4.13,1.53-6.73,1.21-8.93-.93-4.54-2.27-1.37,1.98-9.21.27Z" fill="#467fbd" stroke="#231f20" stroke-miterlimit="10"/>
                <ellipse cx="63.87" cy="175.65" rx="5.08" ry="5.22" fill="#fff" stroke="#231f20" stroke-miterlimit="10"/>
                <line x1="59.06" y1="181.97" x2="68.68" y2="169.05" fill="none" stroke="#231f20" stroke-miterlimit="10"/>
                <rect x="36.98" y="68.47" width="12.09" height="22.72" fill="#fff" stroke="#231f20" stroke-miterlimit="10"/>
                <rect x="65.19" y="68.11" width="12.09" height="22.72" fill="#fff" stroke="#231f20" stroke-miterlimit="10"/>
                <rect x="67.03" y="75.8" width="6.6" height="13.56" fill="#231f20" stroke="#231f20" stroke-miterlimit="10"/>
                <rect x="39.55" y="76.54" width="7.69" height="12.82" fill="#231f20" stroke="#231f20" stroke-miterlimit="10"/>
                <path d="M49.8,109.51c0-3.65,12.13-6.6,27.11-6.6" fill="none" stroke="#231f20" stroke-miterlimit="10"/>
                <line x1="61.68" y1="161.36" x2="65.12" y2="161.39" fill="none" stroke="#010101" stroke-miterlimit="10" stroke-width=".5"/>
                <line x1="63.35" y1="161.37" x2="63.45" y2="164.41" fill="none" stroke="#010101" stroke-miterlimit="10" stroke-width=".5"/>
                <line x1="56.1" y1="164.49" x2="57.22" y2="161.31" fill="none" stroke="#010101" stroke-miterlimit="10" stroke-width=".5"/>
                <line x1="56.1" y1="164.49" x2="57.22" y2="161.31" fill="none" stroke="#010101" stroke-miterlimit="10" stroke-width=".5"/>
                <line x1="58.34" y1="164.47" x2="57.22" y2="161.3" fill="none" stroke="#010101" stroke-miterlimit="10" stroke-width=".5"/>
                <line x1="58.34" y1="164.47" x2="57.22" y2="161.3" fill="none" stroke="#010101" stroke-miterlimit="10" stroke-width=".5"/>
                <line x1="56.61" y1="163.04" x2="57.82" y2="163.05" fill="none" stroke="#010101" stroke-miterlimit="10" stroke-width=".5"/>
                <line x1="64.86" y1="164.52" x2="65.98" y2="161.34" fill="none" stroke="#010101" stroke-miterlimit="10" stroke-width=".5"/>
                <line x1="64.86" y1="164.52" x2="65.98" y2="161.34" fill="none" stroke="#010101" stroke-miterlimit="10" stroke-width=".5"/>
                <line x1="67.1" y1="164.51" x2="65.98" y2="161.33" fill="none" stroke="#010101" stroke-miterlimit="10" stroke-width=".5"/>
                <line x1="67.1" y1="164.51" x2="65.98" y2="161.33" fill="none" stroke="#010101" stroke-miterlimit="10" stroke-width=".5"/>
                <line x1="65.37" y1="163.07" x2="66.57" y2="163.08" fill="none" stroke="#010101" stroke-miterlimit="10" stroke-width=".5"/>
                <path d="M59.25,164.46l-.04-2.97c0-.08.11-.14.24-.14h1.62c.13,0,.24.06.24.14l.02.91c0,.08-.11.14-.25.14l-1.89-.03" fill="none" stroke="#010101" stroke-linejoin="round" stroke-width=".5"/>
                <path d="M68.08,161.35v3.14" fill="none" stroke="#010101" stroke-miterlimit="10" stroke-width=".5"/>
                <path d="M69.3,164.45l-.06-3.07s.01,0,.02,0l2.43,3.1s.02,0,.02,0v-3.12" fill="none" stroke="#010101" stroke-miterlimit="10" stroke-width=".5"/>
                <path d="M55.55,161.96s-.45-.65-1.05-.58c-.66.07-.94.88-1.01,1.08-.07.2-.2.56-.08.99.13.47.52.9,1.05.94.53.04,1.03-.33,1.21-.9" fill="none" stroke="#010101" stroke-miterlimit="10" stroke-width=".5"/>
                <path d="M284.68,129.48c.02,4.15.36,10.29,1.92,17.59,1.09,5.06,1.63,7.6,3.3,10.44,3.85,6.58,10.37,9.15,17.86,12.09,2.59,1.02,5.07,1.8,7.43,2.39,7.09,1.79,13.15,1.93,18.12,2,6.75.11,10.17-.65,12.92-1.65,5.45-1.98,12.17-6.32,11.54-9.62-.08-.41-.19-.38-1.65-2.2,0,0-.42-.52-5.22-7.15.44-.64,1.09-1.77,1.37-3.3.23-1.24.65-3.54-.82-4.95-1.07-1.02-2.69-1.14-3.85-.82-.22.06-1.49.41-2.29,1.51-.32.44-.28.61-.46.69-.9.38-3.57-2.99-5.5-6.87-2.27-4.57-1.69-6.22-3.85-7.97-1.73-1.4-3.78-1.69-5.5-1.92-3.23-.45-4.06.51-7.69,0-1.39-.19-2.94-.43-4.67-1.37-.46-.25-2.45-1.38-4.12-3.85-2.87-4.23-1.98-8.18-3.57-8.52-.51-.11-.91.23-3.02,2.2-2.39,2.23-4.63,4.37-4.95,4.67-2.28,2.17-3.76,3.58-5.77,4.67-1.54.84-4.14,1.9-7.97,1.92h-3.57Z" fill="#906126" stroke="#020202" stroke-miterlimit="10"/>
                <path d="M296.49,133.33c-.25.19-2.31,1.84-2.47,4.4-.24,3.71,3.63,7.19,7.15,7.69,1.52.22,3.76-.5,8.24-1.92,3.34-1.06,4.22-1.58,5.5-1.1,2.08.78,1.77,2.92,4.12,4.4,1.34.84,2.91.84,6.05.82,4.72-.02,7.09-.03,8.52-1.65,1.63-1.84,1.26-4.56,1.1-5.77-.1-.75-.69-4.5-3.85-6.6-4.29-2.86-10.03-.45-10.44-.27-1.64.71-2.31,1.48-4.12,1.65-1.67.15-2.64-.36-4.95-1.1-1.28-.41-4.17-1.33-7.15-1.65-2.86-.3-5.52-.59-7.69,1.1Z" fill="#fff" stroke="#010101" stroke-linejoin="round" stroke-width=".5"/>
                <ellipse cx="301.16" cy="138.96" rx="1.65" ry="1.79" fill="#fff" stroke="#010101" stroke-linejoin="round" stroke-width=".5"/>
                <ellipse cx="327.55" cy="140.06" rx="1.92" ry="1.51" fill="#fff" stroke="#010101" stroke-linejoin="round" stroke-width=".5"/>
                <path d="M307.21,161.91l13.47-1.92c2.47,1.37,3.02,3.57,3.02,3.57l-3.3,1.1-13.19-2.75Z" fill="#fff" stroke="#010101" stroke-linejoin="round" stroke-width=".5"/>
                <polyline points="309.96 148.44 309.68 149.82 315.18 149.82" fill="none" stroke="#010101" stroke-linejoin="round" stroke-width=".5"/>
                <polyline points="293.47 148.72 295.67 150.92 298.97 150.92 300.06 152.29" fill="none" stroke="#010101" stroke-linejoin="round" stroke-width=".5"/>
                <polyline points="337.16 147.62 334.69 150.64 330.29 150.64 328.64 152.29" fill="none" stroke="#010101" stroke-linejoin="round" stroke-width=".5"/>
                <polygon points="314.08 181.97 320.13 192.69 326.17 184.44 324.8 181.42 324.8 173.73 319.3 172.9 316.55 172.08 316.83 179.5 314.08 181.97" fill="#906126" stroke="#020202" stroke-miterlimit="10"/>
                <path d="M307.85,183.25c-1.1.03-4.65-.04-6.32.82-3.78,1.97-5.51,6.21-6.87,12.37-2.89,13.08-3.76,33.21-2.47,37.92.09.33.46,1.57-.14,2.2-.81.84-2.55-.31-3.44.55-.69.67-.58,2.27.14,2.89.69.59,1.81.19,1.92.55.09.28-.61.51-1.1,1.37-.16.28-.64,1.13-.27,1.79.4.74,1.56.69,1.65.69.65-.04,1.1-.38,1.25-.49.68-.53.79-1.19.95-1.16.32.07-.6,2.81.55,3.85.5.46,1.36.54,1.92.27.94-.45,1.37-2.06,1.37-2.06.48.21,1.53.58,2.75.27.35-.07,1.17-.25,1.65-.96.64-.95.18-2.1.14-2.2-.47-1.13-1.95-.67-2.75-1.65-.77-.94-.41-2.42-.27-3.02.8-3.51,3.85-20.47,4.26-29.68.27-5.91-.43-11.31,1.92-12.23.68-.27,2.23-.08,2.75.14l.41-12.23Z" fill="#906126" stroke="#020202" stroke-miterlimit="10"/>
                <path d="M333.68,183.44c1.1.03,4.65-.04,6.32.82,3.78,1.97,5.51,6.21,6.87,12.37,2.89,13.08,3.76,33.21,2.47,37.92-.09.33-.46,1.57.14,2.2.81.84,2.55-.31,3.44.55.69.67.58,2.27-.14,2.89-.69.59-1.81.19-1.92.55-.09.28.61.51,1.1,1.37.16.28.64,1.13.27,1.79-.4.74-1.56.69-1.65.69-.65-.04-1.1-.38-1.25-.49-.68-.53-.79-1.19-.95-1.16-.32.07.6,2.81-.55,3.85-.5.46-1.36.54-1.92.27-.94-.45-1.37-2.06-1.37-2.06-.48.21-1.53.58-2.75.27-.35-.07-1.17-.25-1.65-.96-.64-.95-.18-2.1-.14-2.2.47-1.13,1.95-.67,2.75-1.65.77-.94.41-2.42.27-3.02-.8-3.51-3.85-20.47-4.26-29.68-.27-5.91.43-11.31-1.92-12.23-.68-.27-2.23-.08-2.75.14l-.41-12.23Z" fill="#906126" stroke="#020202" stroke-miterlimit="10"/>
                <path d="M304.09,238.31c-1.3,4.2-2.53,8.53-3.66,13.01-6.25,24.64-8.26,47.69-8.06,67.97l19.42.37c.18-4.57.42-9.21.73-13.92,1.25-18.7,3.51-36.31,6.41-52.76.1,2.77.3,6.9.73,11.91,1.15,13.2,2.8,18.87,3.66,27.85.55,5.67.9,13.79-.18,23.82l15.57,1.47c0-2.75-.18-3.3-.18-3.3,0-2.23,1.22-33.09.73-48.37-.2-6.34-.87-15.6-3.11-26.93l-.73-1.1-9.16-46.35-10.81-.55-11.36,46.9Z" fill="#ffe600" stroke="#020202" stroke-miterlimit="10"/>
                <path d="M308.49,175.28l-4.4,63.02,3.11-2.02c5.13-4.95,7.69-8.79,8.06-9.89s2.75-17.77,2.75-17.77l-.92-2.93-3.3-4.4,6.32-8.61,5.77,8.24-3.3,5.86c-.18,1.1.92,17.77,1.1,18.5s1.1,6.05,2.02,6.96,3.48,3.85,4.21,3.85,5.5,2.2,5.5,2.2l-2.2-60.46-12.82,14.11-11.91-16.67Z" fill="#65bc46" stroke="#020202" stroke-miterlimit="10"/>
                <rect x="295.3" y="319.47" width="12.46" height="4.95" fill="#231f20" stroke="#020202" stroke-miterlimit="10"/>
                <rect x="325.1" y="317.16" width="10.77" height="4.95" transform="translate(22.5 -21.73) rotate(3.9)" fill="#231f20" stroke="#020202" stroke-miterlimit="10"/>
                <line x1="307.21" y1="161.91" x2="319.12" y2="162.28" fill="#fff" stroke="#231f20" stroke-linecap="round" stroke-linejoin="round" stroke-width=".5"/>
              </g>
            </g>
          </g>
        </g>
      </g>
    </g>
  </g>
</svg>