<?xml version="1.0" encoding="UTF-8"?>
<svg id="Layer_2" data-name="Layer 2" xmlns="http://www.w3.org/2000/svg" xmlns:xlink="http://www.w3.org/1999/xlink" viewBox="0 0 443 316.55">
  <defs>
    <radialGradient id="radial-gradient" cx="217.82" cy="148.2" fx="217.82" fy="148.2" r="163.05" gradientTransform="translate(0 -34.25) scale(1 1.22)" gradientUnits="userSpaceOnUse">
      <stop offset="0" stop-color="#a7b2da"/>
      <stop offset="0" stop-color="#a6b1d9"/>
      <stop offset=".48" stop-color="#636cab"/>
      <stop offset=".83" stop-color="#39418e"/>
      <stop offset="1" stop-color="#2a3183"/>
    </radialGradient>
  </defs>
  <g id="outlines">
    <g id="Page_2" data-name="Page 2">
      <g id="Frame_7" data-name="Frame 7">
        <g id="Layer_36" data-name="Layer 36">
          <g>
            <rect id="Frame_7-2" data-name="Frame 7" x="21.57" y=".5" width="392.51" height="292.4" fill="#a7b2da" stroke="url(#radial-gradient)" stroke-miterlimit="10"/>
            <image width="443" height="315" transform="translate(0 1.55)" xlink:href="Frame 7-1.png"/>
            <g>
              <g>
                <path d="M370.47,197.31c4.06,11.11,1.58,20.88-1.83,37.65-2.53,12.46-6.58,33.04-10.08,56.89h-1.92s0,0,0,0c.41-1.1.14-7.22,0-9.89-.14-2.66-.27-3.45-1.24-5.8-.96-2.35-2.74-20.87-2.88-25.88-.14-5.02.69-6.91,1.1-8s1.51-1.58,4.12-8.16c2.61-6.59,2.89-4.38,4.4-10.5s1.1-7.84,1.51-15.54c.41-7.68-1.38-8.78-1.92-14.58-.55-5.81-1.24-5.02-3.58-11.3-2.33-6.27-3.43-6.9-5.77-11.45-2.33-4.54-1.92-4.08-4.4-7.68-2.47-3.61-2.19-4.08-3.71-5.96-1.51-1.88-2.06-2.83-3.71-4.56-1.64-1.72-2.88-2.82-3.29-2.98-.35-.13-4.91-5.96-6.32-7.77l.27-.27c.35.47.74.95,1.15,1.42,4.71,5.38,7.26,4.36,13.55,12.12,5.05,6.23,5.97,10.05,12.1,21.34,8.55,15.77,10.11,14.49,12.45,20.92Z" fill="#fff"/>
                <path d="M282.68,49.64c2.82-.27,5.53-.19,8.28.41,2.34,1.62,2.61,3.2,4.95,4.92,2.33,1.72,3.02,4.24,5.08,6.27,2.06,2.04,3.3,4.56,5.09,7.22,1.78,2.67,3.84,8.63,5.22,10.83,1.37,2.19,2.75,9.72,3.16,11.76s.27,13.18.69,14.9c.41,1.74-.42,8.63.13,10.36s.96,8.32,1.93,11.3c.96,2.98,3.29,6.59,4.12,7.36.82.79,9.2,6.28,9.2,6.28,0,0,.15.19.42.54,1.41,1.82,5.97,7.65,6.32,7.77.41.16,1.65,1.26,3.29,2.98,1.65,1.72,2.2,2.67,3.71,4.56,1.52,1.88,1.24,2.35,3.71,5.96,2.48,3.61,2.07,3.14,4.4,7.68,2.34,4.56,3.44,5.18,5.77,11.45,2.34,6.28,3.03,5.49,3.58,11.3.54,5.8,2.33,6.9,1.92,14.58-.41,7.7,0,9.42-1.51,15.54s-1.79,3.92-4.4,10.5c-2.61,6.59-3.71,7.07-4.12,8.16s-1.24,2.98-1.1,8c.14,5.01,1.92,23.53,2.88,25.88.97,2.35,1.1,3.14,1.24,5.8.14,2.67.41,8.79,0,9.89h0s-9.89.07-9.89.07v-.07c.65-1.51,2.53-5.89,3.2-8.79.98-4.2,1.73-10.51-.73-23.84-2.15-11.67-3.27-9.76-3.66-15.48-.68-9.81,2.83-12.1,4.03-25.09.5-5.41.21-9.75-.37-18.42-.53-8.01-1.09-15.85-3.66-25.52-1.72-6.46-2.85-10.55-5.87-15.06-2.41-3.6-3.04-2.99-10.62-10.46-8.38-8.23-11.92-13.21-13.19-15.06-2.57-3.71-3.85-5.57-4.77-7.95-.38-.99-.68-1.94-.9-2.85-1.58-6.42.23-11.46-.19-19.74-.46-9.07-3.29-15.74-4.77-19.24-1.61-3.81-6.82-15.72-18.32-23.01-6.78-4.3-13.66-5.67-16.85-6.28-2.62-.5-4.88-.72-6.58-.81,1.21-.45,2.83-.99,5.48-1.7,5.1-1.35,9.52-2.52,13.7-2.92Z" fill="#fff"/>
                <path d="M349.22,259.22c2.46,13.32,1.71,19.64.73,23.84-.67,2.9-2.55,7.28-3.2,8.79v.07l-9.54.06c2.85-6.87,6.61-21.03,6.52-34.01-.07-8.75-1.66-11.27-3.3-25.11-2.14-18.02-.01-18.52-1.83-35.13-1.45-13.13-2.84-24.83-9.16-36.82-4.41-8.36-6.67-8.23-11.38-14.47-.67-.89-1.4-1.91-2.18-3.11-4.67-7.09-7.01-13.33-8.53-19.23l2.86-.78c.22.91.52,1.86.9,2.85.92,2.37,2.2,4.24,4.77,7.95,1.27,1.85,4.81,6.83,13.19,15.06,7.58,7.47,8.21,6.86,10.62,10.46,3.02,4.51,4.15,8.6,5.87,15.06,2.57,9.67,3.13,17.5,3.66,25.52.58,8.67.87,13,.37,18.42-1.2,12.99-4.71,15.29-4.03,25.09.39,5.72,1.51,3.81,3.66,15.48Z" fill="#fff"/>
                <path d="M317.08,148.27l-.1.09c-.55-.61-1.14-1.26-1.77-1.95l2.85.03c4.71,6.23,6.97,6.11,11.38,14.47,6.32,11.99,7.71,23.69,9.16,36.82,1.82,16.61-.31,17.11,1.83,35.13,1.64,13.84,3.23,16.36,3.3,25.11.09,12.98-3.67,27.14-6.52,34.01l-4.65.02c.39-1.83,1.64-11.93,2-18.55.37-6.7-.73-10.05-1.09-15.48-.37-5.43-2.2-7.95-5.5-16.74-3.3-8.78-1.47-10.04-1.47-17.15s.74-10.46,2.2-17.15c1.47-6.7,0-10.46-.73-17.16-.73-6.69-4.03-9.61-7.33-15.47-3.3-5.86-5.49-5.86-7.69-6.28-1.63-.31-3.67-.4-4.61-.41,3.61-11.13,4.06-18.2,4.06-18.2l.13-.79.27-.72c1.56.75,2.87,1.32,3.81,1.71l1.01-.53-.54-.82Z" fill="#fff"/>
                <path d="M333.47,257.97c.36,5.43,1.46,8.78,1.09,15.48-.36,6.62-1.61,16.73-2,18.55l-8.07.05v-.19c-.08-1.3-.08-6.13-.55-8.37-.7-3.31-1.62-5.47-2.57-7.95,0,0-1.9-4.99-3.29-10.05-1.77-6.37-1.46-11.73-1.1-17.98.35-6.19,1.24-10.59,2.56-17.15,1.87-9.26,3.1-11.87,3.67-19.25.33-4.42.21-7.63-.37-10.88-.32-1.78-.96-5.26-2.93-9.2-1.43-2.85-4.01-8-9.16-10.04-1.93-.76-3.65-.83-4.77-.83l-2.38.47-.07-.03c.82-2.08,1.74-4.5,2.82-7.34.75-1.98,1.41-3.86,1.99-5.64.94.01,2.98.1,4.61.41,2.2.42,4.39.42,7.69,6.28,3.3,5.86,6.6,8.78,7.33,15.47.73,6.7,2.2,10.46.73,17.16-1.46,6.69-2.2,10.04-2.2,17.15s-1.83,8.37,1.47,17.15c3.3,8.79,5.13,11.3,5.5,16.74Z" fill="#fff"/>
                <path d="M331.22,141.51l-.27.27c-.27-.34-.42-.54-.42-.54,0,0-8.38-5.49-9.2-6.28-.83-.78-3.16-4.38-4.12-7.36-.97-2.98-1.38-9.58-1.93-11.3s.28-8.62-.13-10.36c-.42-1.72-.28-12.86-.69-14.9s-1.79-9.57-3.16-11.76c-1.38-2.2-3.44-8.16-5.22-10.83-1.79-2.66-3.03-5.17-5.09-7.22-2.06-2.03-2.75-4.54-5.08-6.27-2.34-1.72-2.61-3.3-4.95-4.92,8.81,1.95,14.5,8.55,16.86,11.3,3.25,3.78,7.59,10.18,12.45,31.37,6.69,29.14,3.57,39.15,10.95,48.78Z" fill="#fff"/>
                <path d="M324.49,291.85v.19l-17.48.1c-2.6-5.02-6.38-13.56-7.99-22.89-.86-4.99-2.05-11.9-.73-20.49,1.05-6.84,2.51-7.07,4.4-17.57,1.29-7.22,1.38-11.43,1.1-15.06-.32-4.04-1.07-7.18-1.47-8.79-1.18-4.82-2.75-8.63-4.03-11.29l-.46-2.09-.03-.14c-.12-.46-.26-.9-.4-1.35.44-.53.86-1.07,1.26-1.66,1.56-2.24,2.93-5.27,4.87-10.23l.07.03,2.38-.47c1.12,0,2.84.07,4.77.83,5.15,2.03,7.73,7.18,9.16,10.04,1.97,3.94,2.61,7.42,2.93,9.2.58,3.25.7,6.46.37,10.88-.57,7.38-1.8,9.99-3.67,19.25-1.32,6.55-2.21,10.96-2.56,17.15-.36,6.26-.67,11.61,1.1,17.98,1.39,5.06,3.29,10.05,3.29,10.05.95,2.48,1.87,4.64,2.57,7.95.47,2.24.47,7.07.55,8.37Z" fill="#fff"/>
                <path d="M233.95,72.08l-.11.38c-3.8-1.5-8.67-4.08-13.23-9.01-4.27-4.61-6.73-9.6-8.12-13.21-.06-.15-.12-.29-.19-.42l3.02-.33c1.91,2.84,4.46,5.78,7.86,8.11,5.57,3.8,10.52,3.96,16.85,4.6,10.78,1.07,24.77,2.48,35.18,7.52,10.92,5.31,17.35,14.37,20.15,18.42,9.23,13.31,8.89,23.91,11.99,35.99,1.52,5.89,3.86,12.14,8.53,19.23.78,1.2,1.51,2.21,2.18,3.11l-2.85-.03c-1.9-2.11-4.16-4.69-6.66-7.67-2.87-3.41-8.05-9.75-14.29-18.4-3.53-4.9-4.83-6.99-8.7-12.74l.27-.23-2.56-5.86c.03-5.26-1.02-9.29-1.83-11.71-.9-2.66-1.9-5.65-4.4-8.37-1.88-2.03-3.71-2.96-6.96-4.6-2.93-1.47-5.44-2.67-7.33-2.92-3.12-.42-8.89-1.05-8.89-1.05,0,0-4.94.32-5.91.32-.9,0-12.55-.97-14-1.1Z" fill="#fff"/>
                <path d="M217.19,67.82c-.23-.37-.43-.71-.61-1.03l-2.93-7.11-4.4-10.45c-.23-.55.12-1.18.63-1.18.04,0,.08,0,.12.01.96.17,1.8.81,2.3,1.75.07.14.13.27.19.42,1.39,3.61,3.85,8.6,8.12,13.21,4.56,4.93,9.43,7.51,13.23,9.01,1.71.66,3.2,1.11,4.36,1.45,12.23,3.57,13.94-1.91,21.98,1.26,4.63,1.82,11.09,11.27,23.82,30.12.57.83,1.08,1.61,1.56,2.32,3.87,5.75,5.17,7.84,8.7,12.74,6.24,8.65,11.42,14.99,14.29,18.4,2.5,2.98,4.76,5.56,6.66,7.67.63.7,1.22,1.35,1.77,1.95l.1-.09.54.82-1.01.53c-.94-.39-2.25-.96-3.81-1.71-.75-.37-1.56-.78-2.42-1.22-7.08-3.71-21.16-11.09-27.85-25.52-3.36-7.25-.73-7.41-4.03-15.47-.63-1.55-8.23-19.51-24.18-25.53-13.28-5-21.47,2.37-31.51-5.86-2.64-2.16-4.45-4.61-5.62-6.5Z" fill="#fff"/>
                <path d="M255.89,98.88c-.32-.1-2.92-1.02-3.95-2.34-1.1-1.42-3.44-2.04-5.22-3.61-1.79-1.56-5.77-2.82-7.15-4.08-1.37-1.26-8.79-3.14-11.26-4.09-2.48-.94-3.99-2.03-6.05-3.29s-1.92-2.51-2.89-4.24c-.96-1.72-1.51-2.98-1.92-3.61-.39-.59-.17-3.15-.26-5.82,1.17,1.88,2.98,4.34,5.62,6.5,10.04,8.23,18.23.86,31.51,5.86,15.95,6.02,23.55,23.98,24.18,25.53,3.3,8.06.67,8.22,4.03,15.47,6.69,14.43,20.77,21.81,27.85,25.52.86.45,1.67.86,2.42,1.22l-.27.72c-.41,0-6.73-1.72-8.79-1.88s-5.77-1.26-9.21-2.19c-3.43-.95-4.53-3.61-6.04-4.56-1.51-.94-1.79-4.54-2.75-5.65-.96-1.1-1.51-3.45-3.02-5.48l-.27.05c-1.62-10.18-7.62-21.36-16.5-26.57-3.44-2.01-6.94-2.91-10.08-3.2l.02-.26Z" fill="#fff"/>
                <path d="M312.53,148.63l-.13.79s-.56.42-1.57,1.08l-.08-.15-2.06.79s-4.67,0-6.32.15c-1.65.16-5.22.32-6.6.16-1.37-.16-5.91-1.56-6.59-2.03-.69-.48-4.95-3.14-5.36-3.77-.42-.63-1.79-4.08-1.79-4.08l-.23-.1c1.2-3.54,1.37-7.95.65-12.56l.27-.05c1.51,2.03,2.06,4.38,3.02,5.48.96,1.11,1.24,4.72,2.75,5.65,1.51.95,2.61,3.61,6.04,4.56,3.44.94,7.15,2.03,9.21,2.19s8.38,1.88,8.79,1.88Z" fill="#fff"/>
                <path d="M308.34,167.61c-.58,1.78-1.24,3.66-1.99,5.64-1.08,2.84-2,5.26-2.82,7.34-1.94,4.95-3.31,7.99-4.87,10.23-.4.58-.82,1.13-1.26,1.66-1.78-5.72-4.66-10.88-8.31-15.31-1.79-2.17-3.46-4.73-4.17-7.36-1.5-5.53-2.2-6.59-7.7-11.92-.47-.46-1.01-1.3-1.61-2.41,1.29.82,2.75,1.55,4.36,2.09,12.28,4.09,26.26-4.03,30.86-7.07,1.01-.66,1.57-1.08,1.57-1.08,0,0-.45,7.07-4.06,18.2Z" fill="#8d5923"/>
                <path d="M310.75,150.35l.08.15c-4.6,3.04-18.58,11.15-30.86,7.07-1.61-.54-3.07-1.27-4.36-2.09-.81-1.5-1.72-3.48-2.7-5.69,3.4-1.24,5.64-2.52,7.33-5.09.64-.97,1.15-2.06,1.56-3.23l.23.1s1.37,3.45,1.79,4.08c.41.63,4.67,3.29,5.36,3.77.68.47,5.22,1.87,6.59,2.03,1.38.16,4.95,0,6.6-.16,1.65-.15,6.32-.15,6.32-.15l2.06-.79Z" fill="#fff"/>
                <path d="M310.21,123.34l-2.86.78c-3.1-12.08-2.76-22.67-11.99-35.99-2.8-4.04-9.23-13.11-20.15-18.42-10.41-5.05-24.4-6.45-35.18-7.52-6.33-.64-11.28-.8-16.85-4.6-3.4-2.33-5.95-5.26-7.86-8.11-1.09-1.64-1.98-3.24-2.68-4.68v-2.64c0-.8.64-1.38,1.32-1.22l1.66.41c.84.22,1.6.67,2.22,1.36,2.39,2.61,5.84,5.61,10.47,7.34,4.1,1.54,5,.54,12.09,1.68,1.58.25,2.95.53,4.16.82,6.42,1.51,8.34,3.24,13.79,2.95,2.34-.14,3.18-.51,5.15-1.23,1.7.09,3.96.31,6.58.81,3.19.61,10.07,1.98,16.85,6.28,11.5,7.28,16.71,19.19,18.32,23.01,1.48,3.49,4.31,10.17,4.77,19.24.42,8.28-1.39,13.32.19,19.74Z" fill="#fff"/>
                <path d="M307.01,292.15l-23.01.13-6.78-20.5-.55-10.04c.01-2.67.08-6.42.37-10.88.36-5.63.53-8.45,1.1-10.88,1.57-6.76,3.67-6.59,5.49-14.21.93-3.89,1.34-7.92,1.47-9.21.24-2.49.28-4.62.37-6.27.13-2.67-5.7-7.66-5.7-7.66.06-.02,3.6-1.19,3.66-1.2,1.12-.38,2.32-.83,3.6-1.4,1.03-.47,2.03-.98,3.02-1.54.15-.07.29-.16.44-.24l.54-.32,6.8-3.95.46,2.09c1.28,2.66,2.85,6.47,4.03,11.29.4,1.61,1.15,4.75,1.47,8.79.28,3.63.19,7.84-1.1,15.06-1.89,10.5-3.35,10.73-4.4,17.57-1.32,8.6-.13,15.5.73,20.49,1.61,9.33,5.39,17.87,7.99,22.89Z" fill="#fff"/>
                <path d="M297.8,193.83l.03.14-6.8,3.95c2.37-1.42,4.51-3.19,6.37-5.43.14.45.28.89.4,1.35Z" fill="#4652a3"/>
                <path d="M289.09,177.17c3.65,4.43,6.53,9.59,8.31,15.31-1.86,2.25-4,4.02-6.37,5.43-.32.19-.65.38-.98.56-4.16,2.26-8.93,3.49-14.03,4.28l-1.48-2.76c-.85-2.48-2.08-6.31-3.33-11.11-3.13-11.99-4.09-12.15-3.99-18.91.11-7.71,1.79-5.66-.72-16.18-.08-.34-.31-.97-.65-1.79.85-.19,1.71-.43,2.58-.72.58-.18,1.13-.37,1.66-.54,1.12,1.27,3.01,3.15,5.52,4.73.6,1.11,1.14,1.95,1.61,2.41,5.5,5.33,6.2,6.39,7.7,11.92.71,2.64,2.38,5.19,4.17,7.36Z" fill="#4652a3"/>
                <path d="M291.03,197.91l-.54.32c-.15.08-.29.17-.44.24.33-.18.66-.37.98-.56Z" fill="#4652a3"/>
                <path d="M290.05,198.47c-.99.56-1.99,1.07-3.02,1.54-1.28.57-2.48,1.03-3.6,1.4-.06.01-3.6,1.18-3.66,1.2-.04.01-3.19,1.05-3.24,1.07l-.51-.94c5.1-.79,9.87-2.02,14.03-4.28Z" fill="#4652a3"/>
                <path d="M283.27,101.51l2.56,5.86-.27.23c-.48-.71-.99-1.48-1.56-2.32-12.73-18.85-19.19-28.3-23.82-30.12-8.04-3.16-9.75,2.32-21.98-1.26-1.16-.34-2.65-.79-4.36-1.45l.11-.38c1.45.13,13.1,1.1,14,1.1.97,0,5.91-.32,5.91-.32,0,0,5.77.63,8.89,1.05,1.89.25,4.4,1.45,7.33,2.92,3.25,1.64,5.08,2.57,6.96,4.6,2.5,2.72,3.5,5.71,4.4,8.37.81,2.42,1.86,6.45,1.83,11.71Z" fill="#fff"/>
                <path d="M279.77,202.62s5.83,4.99,5.7,7.66c-.09,1.64-.13,3.78-.37,6.27-.13,1.29-.54,5.32-1.47,9.21-1.82,7.63-3.92,7.46-5.49,14.21-.57,2.43-.74,5.25-1.1,10.88-.29,4.46-.36,8.21-.37,10.88l.55,10.04-5.78-16.78h.01l-1.01-9.57c-.41-6.07-.25-10.89,0-14.23.25-3.28.37-4.92.74-7.11.71-4.28,1.38-5.17,1.09-7.54-.3-2.51-1.4-4.35-2.56-6.27-1.3-2.16-2.69-3.66-3.66-4.6l-2.02-1.68c4.09-.32,8.13-.65,11.99-1.24l.51.94s3.2-1.06,3.24-1.07Z" fill="#fff"/>
                <path d="M180.72,238.04l8.73,7.83,2.76,2.47,24.92,29.28,20.59-21.33c1.96-1.86,3.04-2.89,3.04-3.14,0-.02-.03-.09-.08-.21v-.02s-.65-1.66-.65-1.66l6.69-6.76,13.85-14,1.81-1.84.61,1.78,21.01,61.81-130.99.21,1.11-6.38,5.48-31.48,3.67-21.24,1.65-9.51,1.98,1.77,13.82,12.4Z" fill="#45b649"/>
                <path d="M282.45,128.91c.72,4.61.55,9.02-.65,12.56-.41,1.18-.92,2.26-1.56,3.23-1.69,2.57-3.93,3.85-7.33,5.09-3.22-7.27-7.14-16.93-10.4-19.24-.29-.67-.63-1.38-1.03-2.1-.33-5.5-4.19-9.84-8.92-9.84-.37,0-.74.02-1.09.08-1.81-1.52-4-3.38-6.68-5.67-3.44-2.96-6.05-5.25-8.06-7.04,2.33-2.39,4.09-4.13,7.79-5.5.1-.03.37-.14.78-.26,1.67-.51,5.7-1.51,10.57-1.06,3.14.29,6.64,1.19,10.08,3.2,8.88,5.21,14.88,16.38,16.5,26.57Z" fill="#fff"/>
                <path d="M263.5,54.27c-1.97.72-2.81,1.1-5.15,1.23-5.45.3-7.37-1.44-13.79-2.95l.1-.56c2.19-.63,6.32-2.04,6.32-2.04,0,0,1.23-.31,3.43-.94s3.85-1.11,6.19-1.11h14.15c.82,0,2.88.16,4.94.79,1.37.41,2.43.76,2.99.95-4.18.4-8.6,1.58-13.7,2.92-2.65.71-4.27,1.26-5.48,1.7Z" fill="#fff"/>
                <path d="M246.72,205.27c-1.79.11-3.53.23-5.23.34-1.67.1-3.3.19-4.89.29-5.27.31-10.13.55-14.61.73-7.15.27-13.35.4-18.78.39-10.48-.02-18.12-.57-24.3-1.51-3.18-.48-5.96-1.06-8.55-1.74-1-1.38-1.88-1.39-2.59-.72-1.67-.48-3.27-1-4.87-1.56-1.63-.57-3.15-1.13-4.57-1.68h0c-5.47-2.15-9.48-4.24-12.89-6.34-.42-.25-.83-.51-1.23-.76-1.73-1.11-3.35-2.25-4.9-3.43-.55-.41-1.08-.83-1.61-1.27l1.29-2.21c.7-1.88,1.72-4.82,2.75-8.47,2.59-9.16,1.51-9.62,3.3-14.43.57-1.52,1.11-2.75,1.65-3.81,3.98,1.55,7.32,1.83,8.79,1.93,7.75.55,13.57-2.23,20.06-5.33,8.57-4.09,8.51-6.14,16.77-9.73,5.42-2.35,10.31-4.49,16.76-4.38,3.73.05,5.18.81,18.96,5.33,8.37,2.74,12.56,4.11,13.74,4.38,5.57,1.29,14.19,3.19,24.08.72.34.82.57,1.45.65,1.79,2.51,10.51.83,8.47.72,16.18-.1,6.76.86,6.92,3.99,18.91,1.25,4.8,2.48,8.63,3.33,11.11l1.48,2.76c-3.86.59-7.9.92-11.99,1.24-4.89.39-9.51.73-13.89,1.03-1.16.08-2.3.16-3.42.24ZM203.85,163.69c0-3.21-.06-5.8-.14-5.8s-.14,2.59-.14,5.8.06,5.8.14,5.8.14-2.59.14-5.8Z" fill="#8d5923"/>
                <path d="M275.61,155.48c-2.51-1.58-4.4-3.46-5.52-4.73,1.02-.33,1.96-.64,2.82-.96.98,2.2,1.89,4.19,2.7,5.69Z" fill="#4652a3"/>
                <path d="M272.27,216.55c.29,2.36-.38,3.25-1.09,7.54-.37,2.19-.49,3.84-.74,7.11-.25,3.33-.41,8.15,0,14.23l1.01,9.57h-.01l-8.45-24.52-.61-1.78-1.81,1.84-.25-.32,1.6-5.32.1.03c1.03-2.88,1.55-5.35,1.83-7.11.46-2.9.27-3.88,0-4.6-.24-.62-.76-1.67-3.3-3.35-1.36-.89-3.44-2.08-6.23-2.92l-4.17-1.68v-.23c4.37-.3,8.99-.64,13.88-1.03l2.02,1.68c.97.94,2.36,2.44,3.66,4.6,1.16,1.92,2.26,3.76,2.56,6.27Z" fill="#fff"/>
                <path d="M272.91,149.79c-.86.32-1.8.63-2.82.96-.58-.65-.96-1.14-1.11-1.34-5.04-6.69-3.34-11.66-6.47-18.86,3.26,2.31,7.18,11.96,10.4,19.24Z" fill="#4652a3"/>
                <path d="M261.19,132.07c.15-.64.25-1.31.29-2,.34.07.68.23,1.03.48,3.13,7.2,1.43,12.17,6.47,18.86.15.19.53.69,1.11,1.34-.53.17-1.08.35-1.66.54-.87.29-1.73.53-2.58.72-1.47-3.63-4.93-11.22-6.12-16.41.66-1.04,1.16-2.24,1.46-3.53Z" fill="#4652a3"/>
                <path d="M261.92,224.88l-1.6,5.32.25.32-13.85,14-.28-.35.19-3.77c-.75-5.64.29-9.11,1.46-11.29,1.43-2.65,3.32-3.87,4.03-7.11.18-.81.25-1.59.25-2.34,0-1.52-.3-2.89-.61-3.94-3.47-3.07-4.03-4.18-4.03-4.18-.47-.92-.92-2.37-.74-4.6l-.27-1.67c1.12-.08,2.26-.16,3.42-.24v.23s4.18,1.68,4.18,1.68c2.79.84,4.87,2.03,6.23,2.92,2.54,1.68,3.06,2.73,3.3,3.35.27.72.46,1.7,0,4.6-.28,1.76-.8,4.24-1.83,7.11l-.1-.03Z" fill="#fff"/>
                <path d="M261.48,128.45c.4.72.74,1.43,1.03,2.1-.35-.25-.69-.41-1.03-.48.02-.27.03-.55.03-.83,0-.26-.01-.53-.03-.79Z" fill="#fff"/>
                <path d="M261.48,128.45c.02.26.03.53.03.79,0,.29-.01.56-.03.83-.55-.11-1.08.05-1.57.51-.33.31-.51.81-.57,1.45l-15.48-.32c-.17-.8-.25-1.62-.25-2.48,0-5.42,3.43-9.91,7.86-10.55,7.72,6.51,8.41,6.87,9.81,9.38.07.13.14.25.2.38Z" fill="#fff"/>
                <path d="M261.48,128.45c-.06-.13-.13-.25-.2-.38-1.4-2.51-2.09-2.88-9.81-9.38.35-.06.72-.08,1.09-.08,4.73,0,8.59,4.34,8.92,9.84Z" fill="#fff"/>
                <path d="M259.91,130.59c.49-.47,1.02-.63,1.57-.51-.04.69-.14,1.36-.29,2l-1.85-.03c.06-.64.24-1.14.57-1.45Z" fill="#fff"/>
                <path d="M259.34,132.04l1.85.03c-.3,1.29-.8,2.49-1.46,3.53-.32-1.42-.48-2.65-.39-3.56Z" fill="#fff"/>
                <path d="M165.6,135.6c.21-.9.32-1.85.32-2.82,0-5.87-4-10.62-8.95-10.62s-8.95,4.75-8.95,10.62c0,.86.09,1.69.25,2.49.18.91.47,1.79.84,2.6-3.93.86-4.85,6.83-5.17,7.46-.93,1.78-.83,2.2-4.67,6.28-.61.65-1.16,1.19-1.64,1.64-3.19-3.16-5.98-7.51-10.45-14.51-2.82-4.4-4.23-6.62-4.4-8.15-.01-.07-.01-.14-.02-.21,3.65-1.4,7.78-3.53,11.56-6.7,6.65-5.56,7.23-10.16,11.94-17.31.7-.22,1.39-.4,2.08-.57,2.88-.71,9.91-2.31,17.31.94,3.09,1.36,3.04,2.16,9.07,5.96,4.14,2.63,9.42,5.96,15.94,8.16,3.86,1.3,9.24,3.12,15.94,2.51,7.77-.72,13.32-4.34,19.51-8.47,5.58-3.74,8.37-6.63,10.62-8.93,2.01,1.79,4.62,4.09,8.06,7.04,2.68,2.29,4.87,4.16,6.68,5.67-4.43.64-7.86,5.13-7.86,10.55,0,.86.08,1.68.25,2.48.93,4.67,4.48,8.14,8.7,8.14,2.94,0,5.54-1.68,7.17-4.26,1.19,5.18,4.65,12.78,6.12,16.41-9.89,2.47-18.51.57-24.08-.72-1.18-.27-5.37-1.64-13.74-4.38-13.78-4.52-15.23-5.29-18.96-5.33-6.45-.1-11.34,2.03-16.76,4.38-8.26,3.58-8.2,5.64-16.77,9.73-6.49,3.11-12.31,5.88-20.06,5.33-1.47-.1-4.81-.38-8.79-1.93h0c1.91-3.82,3.6-5.61,5.22-11.87.43-1.68.86-3.32,1.2-4.85,1.17.66,2.48,1.04,3.86,1.04,4.13,0,7.59-3.3,8.63-7.8Z" fill="#fff"/>
                <path d="M243.86,131.72l15.48.32c-.09.91.07,2.15.39,3.56-1.63,2.58-4.23,4.26-7.17,4.26-4.22,0-7.77-3.47-8.7-8.14ZM252.56,139.54c3.38,0,3.39-6.44,0-6.44s-3.38,6.44,0,6.44Z" fill="#fff"/>
                <path d="M255.89,98.88l-.02.26c-4.87-.45-8.9.55-10.57,1.06l-.09-.37c-.55,0-3.99-2.2-5.91-3.14-1.93-.95-3.44-2.51-5.91-3.46-2.47-.94-2.61-2.03-5.08-2.98-2.48-.94-2.07-1.56-3.99-2.35l-.4.24c-1-2.17-2.26-4.91-3.86-8.39-1.02-2.23-1.97-4.2-2.83-5.98l.22-.14c.41.63.96,1.88,1.92,3.61.97,1.72.83,2.98,2.89,4.24s3.57,2.35,6.05,3.29c2.47.95,9.89,2.83,11.26,4.09,1.38,1.26,5.36,2.51,7.15,4.08,1.78,1.56,4.12,2.19,5.22,3.61,1.03,1.32,3.63,2.24,3.95,2.34Z" fill="#fff"/>
                <path d="M252.56,133.1c3.39,0,3.38,6.44,0,6.44s-3.38-6.44,0-6.44Z" fill="#231f20"/>
                <path d="M252.37,219.65c0,.75-.07,1.53-.25,2.34-.71,3.24-2.6,4.46-4.03,7.11-1.17,2.18-2.21,5.65-1.46,11.29l-.19,3.77.28.35-6.69,6.76.37-5.86c.25-1.69.46-4.2,0-7.11-.77-4.83-2.57-5.63-3.67-10.46-1.16-5.11-.34-9.51,0-11.3.79-4.03,2.26-7.01,3.3-8.78l-.11-.11,1.58-1.93v-.11c1.69-.11,3.43-.23,5.22-.34l.27,1.67c-.18,2.23.27,3.68.74,4.6,0,0,.56,1.11,4.03,4.18.31,1.05.61,2.42.61,3.94Z" fill="#fff"/>
                <path d="M245.21,99.84l.09.37c-.41.13-.68.23-.78.26-3.7,1.37-5.46,3.12-7.79,5.5-5.38-4.83-6.44-6.18-7.33-7.39-1.61-2.23-2.32-3.58-5.48-10.44l.4-.24c1.92.79,1.51,1.42,3.99,2.35,2.47.95,2.61,2.04,5.08,2.98,2.47.95,3.98,2.51,5.91,3.46,1.92.94,5.36,3.14,5.91,3.14Z" fill="#fff"/>
                <path d="M239.92,207.65l.11.11c-1.04,1.77-2.51,4.75-3.3,8.78-.34,1.79-1.16,6.19,0,11.3,1.1,4.83,2.9,5.63,3.67,10.46.46,2.91.25,5.42,0,7.11l-.37,5.86-4.84-9.02.08-2.69c-.37-1.61-.97-4.11-1.83-7.11-1.51-5.22-1.89-5.31-2.2-7.54-.67-4.82.51-8.91,1.1-10.87.59-1.99,1.29-3.55,1.83-4.6l2.43-3.55c1.59-.09,3.22-.18,4.89-.29v.11s-1.57,1.93-1.57,1.93Z" fill="#fff"/>
                <path d="M240.76,253.16l-.08-.21c.05.11.08.18.08.21Z" fill="#45b649"/>
                <path d="M240.68,252.96l.08.21-3.04,3.14c-3.9,3.71-11.27,10.67-20.59,21.33l-24.92-29.28c1.6-3.77,2.97-6.72,3.85-8.57,2.36-4.95,4.21-8.31,5.51-10.48,1.46-2.43,2.36-5.23,2.62-8.16.3-3.36.65-7.3.66-7.71.22-4.7.13-5.69.06-5.86l17.09-.7,3.74-.15-.18,12.91c0,4.13,1.04,8.16,3.01,11.62,4.15,7.31,11.22,19.8,12.1,21.68v.02Z" fill="#8d5923"/>
                <path d="M237.72,256.3l3.04-3.14c0,.25-1.08,1.28-3.04,3.14Z" fill="#45b649"/>
                <path d="M235.19,242.26l4.84,9.02.64,1.66c-.88-1.88-7.95-14.37-12.1-21.68-1.97-3.46-3.01-7.49-3.01-11.62l.18-12.91-3.74.15v-.24c4.47-.18,9.33-.42,14.6-.73l-2.43,3.55c-.54,1.05-1.24,2.61-1.83,4.6-.59,1.96-1.77,6.05-1.1,10.87.31,2.23.69,2.32,2.2,7.54.86,3,1.46,5.5,1.83,7.11l-.08,2.69Z" fill="#fff"/>
                <path d="M229.4,98.59c.89,1.21,1.95,2.56,7.33,7.39-2.25,2.29-5.04,5.18-10.62,8.93-6.19,4.13-11.74,7.75-19.51,8.47-6.7.61-12.08-1.21-15.94-2.51-6.52-2.2-11.8-5.54-15.94-8.16-6.03-3.8-5.98-4.6-9.07-5.96-7.4-3.24-14.43-1.64-17.31-.94-.69.17-1.38.35-2.08.57,1.63-2.45,3.74-5.22,6.75-8.41,2.63-2.81,6.17-6.52,11.54-10.05,9.95-6.53,13.66-4.18,21.98-8.78,14.14-7.82,21.99-20.08,21.99-20.08,0,0,2.31,1.63,8.71,14.73.86,1.78,1.81,3.76,2.83,5.98,1.6,3.48,2.86,6.22,3.86,8.39,3.16,6.85,3.87,8.21,5.48,10.44Z" fill="#8d5923"/>
                <path d="M221.99,206.63v.24s-17.08.7-17.08.7c-.03-.08-.06,0-.06,0h.06c.07.17.16,1.15-.06,5.86-.01.41-.36,4.35-.66,7.71-.26,2.93-1.16,5.73-2.62,8.16-1.3,2.17-3.15,5.53-5.51,10.48-.88,1.85-2.25,4.81-3.85,8.57l-2.76-2.47-.35-8.4c-.26-1.51-.82-3.72-2.2-5.86-2.54-3.94-5-3.2-7.33-6.7-2.51-3.77-2.31-8.64-2.2-11.29.14-3.27.88-5.87,1.47-7.54l.07-.58c6.18.94,13.82,1.48,24.3,1.51,5.43.01,11.63-.11,18.78-.39Z" fill="#fff"/>
                <path d="M209.14,40.85c.07,1.63-.5,3.22-1.56,4.32-2.44,2.51-5.68,5.56-6.54,6.36-.62-.18-1.46-.37-2.78-.63-1.53-.31-6.31-1.14-12.46,0-11.02,2.04-14.57,8.24-23.82,12.12-9,3.78-10.5-.06-23.81,1.68-6.2.8-26.4,3.73-41.77,20.92-3.65,4.08-10.29,11.5-13.19,23.43-2.15,8.81-1.31,16.21.36,30.95,1.99,17.52,3.96,16.9,4.03,26.36.13,17.38-6.53,18.77-6.59,34.72-.02,4.99.82,10.02,2.51,16.74,1.26,4.99,2.99,10.89,5.18,18.4,3.39,11.6,6.22,18.39,3.67,26.35-1.36,4.21-3.4,6.2-4.03,11.29-.79,6.32,2.34,14.32,4.27,18.18l-14.76-.1c.44-2.91,1.69-11.68,1.69-15.14,0-4.19,0-11.71-.73-20.08-.73-8.37-1.83-9.2-3.3-13.39-1.46-4.18-4.03-9.2-5.13-14.21-1.1-5.02-2.2-10.05-1.83-13.8.37-3.77,2.56-17.16,3.3-21.34.73-4.19,1.1-16.74,1.1-24.26s-.37-13.39-1.1-18.83c-.74-5.45-3.3-10.46-4.4-15.48-1.1-5.02.73-12.14-.73-21.34-1.47-9.2,4.39-13.8,6.59-20.92,2.2-7.11,8.8-8.78,14.66-12.12s15.39-10.05,21.62-12.97c6.23-2.93,15.39-5.45,17.59-5.45s16.12-2.5,19.05-2.5,13.92-3.35,17.22-5.02c3.3-1.68,10.63-4.6,15.02-8.79l.29-.82c4.13.05,7.91.32,11.07.82,2.05.33,8.22,1.46,13.19-2.5,2.54-2.03,3.97-4.75,4.77-6.7l.73-.86.13.41c.23.71.37,1.46.4,2.23l.09,1.99Z" fill="#fff"/>
                <path d="M207.42,56.76l1.1,2.29s-7.85,12.26-21.99,20.08c-8.32,4.6-12.03,2.25-21.98,8.78-5.37,3.53-8.91,7.24-11.54,10.05-3.01,3.2-5.12,5.96-6.75,8.41-11.96,3.72-24.39,14.56-23.5,24.01-5.47,2.12-9.86,2.66-10.42,2.72-4.89.53-8.84.88-11.11,1.07.19-1.63.41-3.45.66-5.47.39-3.11.76-5.78,2.57-7.95,2.87-3.46,7.41-3.31,9.16-3.36,12.72-.3,31.54-14,39.57-29.27,3.17-6.03,4.17-11.36,9.53-14.65,2.93-1.79,4.19-1.16,11.72-2.51,3.74-.66,11.56-2.1,19.06-5.43,3.39-1.51,8.21-4.08,13.62-8.54.1-.07.2-.16.3-.24Z" fill="#fff"/>
                <path d="M201.04,51.53c.98.29,1.46.56,2.48,1.08.21.1.43.23.65.35l2.98,3.11c-.19.01-.39.02-.6.02-3.27,0-9.03-1.46-14.15-.18-5.95,1.5-9.02,3.03-15.03,5.45-12.97,5.22-18.74,6.18-22.66,7.68l-.05-.16-2.93.83-6.23,1.26c-12.46,1.68-17.96,2.51-23.82,5.02-5.86,2.51-8.79,1.68-13.92,7.54-5.13,5.86-11,7.1-11.73,13.38-.48,4.08-2.8,9.74-4.28,13.67-.8,2.12-1.35,3.73-1.22,4.33.28,1.24,2.2,7.66,3.6,11.68-.74,2.55-1.41,6.06-1.03,10.07.58,6.09,3.26,10.09,4.4,12.14,1.56,2.83,2.21,5.62,2.28,8.61.24,9.38-5.14,20.64-5.58,40.34-.45,20.19,4.87,23.24,3.3,41.41-.05.56-.1,1.14-.16,1.72-1.98-3.74-4.74-8.46-4.97-9.25-.37-1.26-3.67-5.86-5.87-9.21-2.19-3.35-2.93-4.6-2.93-4.6h-.05c-1.69-6.7-2.53-11.74-2.51-16.73.06-15.95,6.72-17.34,6.59-34.72-.07-9.46-2.04-8.84-4.03-26.36-1.67-14.74-2.51-22.14-.36-30.95,2.9-11.93,9.54-19.35,13.19-23.43,15.37-17.18,35.57-20.12,41.77-20.92,13.31-1.74,14.81,2.1,23.81-1.68,9.25-3.88,12.8-10.08,23.82-12.12,6.15-1.14,10.93-.31,12.46,0,1.32.26,2.16.45,2.78.63Z" fill="#fff"/>
                <path d="M206.55,56.09l.57.9c-5.41,4.46-10.23,7.03-13.62,8.54-7.5,3.33-15.32,4.77-19.06,5.43-7.53,1.35-8.79.72-11.72,2.51-5.36,3.29-6.36,8.62-9.53,14.65-8.03,15.28-26.85,28.98-39.57,29.27-1.75.05-6.29-.1-9.16,3.36-1.81,2.17-2.18,4.84-2.57,7.95-.25,2.02-.47,3.84-.66,5.47-.38.03-.72.06-1,.08-1.22-.88-4.07-3.08-4.93-4.72-.28-.53-.69-1.61-1.17-2.96.42-1.46.88-2.6,1.17-3.32,2.17-5.38,5.17-8.39,10.26-13.38,2.9-2.85,6.92-6.76,13.19-10.88,11.23-7.38,14.61-5.5,20.88-11.71,6.07-5.99,3.58-8.4,9.16-14.21,2.04-2.12,3.68-3.16,5.92-4.03,3.92-1.51,9.69-2.47,22.66-7.68,6.01-2.42,9.08-3.95,15.03-5.45,5.12-1.28,10.88.18,14.15.18Z" fill="#fff"/>
                <path d="M204.91,207.56h-.06s.03-.08.06,0Z" fill="#8d5923"/>
                <ellipse cx="203.71" cy="163.69" rx=".14" ry="5.8" fill="#8d5923"/>
                <path d="M189.45,245.88l-8.73-7.83c-1-2.12-4.26-8.8-7.01-12.28-3.3-4.19-1.83-9.62-1.83-9.62,0,0,.36-9.2-1.1-11.71-.14-.24-.28-.46-.42-.65,2.59.67,5.37,1.26,8.55,1.74l-.07.58c-.59,1.67-1.33,4.27-1.47,7.54-.11,2.65-.31,7.52,2.2,11.29,2.33,3.5,4.79,2.76,7.33,6.7,1.38,2.13,1.94,4.35,2.2,5.86l.35,8.4Z" fill="#fff"/>
                <path d="M180.72,238.04l-13.82-12.4.21-.31s-.36-5.02-.36-6.28,0-6.69-.73-8.78c-.48-1.36.26-5.81,1.75-7.23.84.25,1.71.49,2.59.72.14.19.28.41.42.65,1.46,2.51,1.1,11.71,1.1,11.71,0,0-1.47,5.43,1.83,9.62,2.75,3.48,6.01,10.16,7.01,12.28Z" fill="#fff"/>
                <path d="M178.76,45.46l-.29.82c-4.39,4.19-11.72,7.11-15.02,8.79-3.3,1.68-14.29,5.02-17.22,5.02s-16.86,2.5-19.05,2.5-11.36,2.51-17.59,5.45c-6.23,2.92-15.76,9.62-21.62,12.97s-12.46,5.01-14.66,12.12c-2.2,7.11-8.06,11.71-6.59,20.92,1.46,9.2-.37,16.31.73,21.34,1.1,5.02,3.66,10.04,4.4,15.48.73,5.43,1.1,11.29,1.1,18.83s-.37,20.07-1.1,24.26c-.74,4.18-2.93,17.57-3.3,21.34l-.61-.05c.12-1.95.32-5.01.54-8.47.58-9.08,1.26-20.88.8-22.45-.73-2.51-1.83-16.74-2.2-21.34-.36-4.6-7.32-20.07-7.69-25.52-.37-5.43.37-14.23.37-20.08s2.93-7.52,3.66-11.29,2.93-6.69,3.66-9.2c.74-2.51,2.94-6.28,4.4-7.95,1.47-1.68,5.5-6.28,7.33-7.54s9.53-6.27,11.72-8.78c2.2-2.51,6.97-4.6,8.43-6.69.57-.81.86-1.3,1.01-1.61,1.35-.17,3.03-.45,5.22-.9,16-3.37,19.04-8.07,31.51-12.14,11.87-3.86,28.78-5.99,42.06-5.85Z" fill="#fff"/>
                <path d="M167.77,203.05c.71-.67,1.59-.66,2.59.72-.88-.23-1.75-.47-2.59-.72Z" fill="#fff"/>
                <path d="M167.11,225.34l-.21.31-1.98-1.77-1.65,9.51-3.68,21.2c-1.1-2.5-2.01-5.43-3.47-11.68-1.46-6.28-3.66-9.62-4.39-12.14-.74-2.51-.74-10.04-.74-12.12s1.47-8.37,3.3-11.3c1.83-2.92,2.2-4.6,4.03-7.52h.01c1.42.54,2.94,1.1,4.57,1.67,1.6.56,3.2,1.08,4.87,1.56-1.49,1.42-2.23,5.87-1.75,7.23.73,2.09.73,7.52.73,8.78s.36,6.28.36,6.28Z" fill="#fff"/>
                <path d="M165.92,132.78c0,.97-.11,1.92-.32,2.82l-17.29-.34h-.04c-.16-.79-.25-1.62-.25-2.48,0-5.87,4.01-10.62,8.95-10.62s8.95,4.75,8.95,10.62Z" fill="#fff"/>
                <path d="M148.31,135.26l17.29.34c-1.04,4.5-4.5,7.8-8.63,7.8-1.38,0-2.69-.38-3.86-1.04.06-.26.12-.53.17-.79.14-.65.6-1.13,1.19-1.48.18,1.39,1.01,2.64,2.5,2.64,3.38,0,3.39-6.44,0-6.44-1.27,0-2.06.9-2.38,2.03-.98-.14-2.22-.31-3.78-.51-.62-.08-1.19-.06-1.7.07-.37-.81-.66-1.69-.84-2.6h.04Z" fill="#fff"/>
                <path d="M163.27,233.39l-3.67,21.24s-.01-.02-.01-.03l3.68-21.2Z" fill="#45b649"/>
                <path d="M159.59,254.59s.01.02.01.03l-5.48,31.48,5.47-31.51Z" fill="#45b649"/>
                <path d="M159.59,254.59l-5.47,31.51-1.11,6.38-4.95-.03v-.39c.37-3.35,0-9.83,1.1-18.61,1.1-8.79.73-6.28,1.1-12.14s.37-12.55-.73-17.15-1.1-7.54-2.2-12.97-2.57-7.54-3.67-12.14-.36-9.61-.36-15.89,1.66-7.41,2.14-9.69c3.41,2.1,7.42,4.19,12.89,6.32h0s-.01.02-.01.02c-1.83,2.92-2.2,4.6-4.03,7.52-1.83,2.93-3.3,9.2-3.3,11.3s0,9.61.74,12.12c.73,2.51,2.93,5.86,4.39,12.14,1.46,6.25,2.37,9.18,3.47,11.68Z" fill="#fff"/>
                <path d="M156.97,136.29c3.39,0,3.38,6.44,0,6.44-1.49,0-2.32-1.24-2.5-2.64,2.26-1.37,6.28-.94.12-1.77.32-1.13,1.11-2.03,2.38-2.03Z" fill="#231f20"/>
                <path d="M154.59,138.32c6.16.83,2.14.4-.12,1.77-.08-.59-.04-1.2.12-1.77Z" fill="#231f20"/>
                <path d="M154.66,68.88l.05.16c-2.24.87-3.88,1.91-5.92,4.03-5.58,5.81-3.09,8.22-9.16,14.21-6.27,6.21-9.65,4.34-20.88,11.71-6.27,4.12-10.29,8.03-13.19,10.88-5.09,4.99-8.09,8-10.26,13.38-.29.72-.75,1.86-1.17,3.32-1.4-4.02-3.32-10.44-3.6-11.68-.13-.59.42-2.2,1.22-4.33l2.45-.7s4.76-3.77,5.86-4.6,10.26-7.95,13.56-9.62c3.3-1.67,7.33-5.02,8.79-6.27,1.47-1.26,3.67-2.93,5.5-5.45s5.13-4.6,13.19-10.04l10.63-4.19,2.93-.83Z" fill="#fff"/>
                <path d="M154.59,138.32c-.16.57-.2,1.18-.12,1.77-.59.35-1.05.83-1.19,1.48-.05.26-.11.53-.17.79-1.7-.96-3.1-2.53-4-4.49.51-.13,1.08-.15,1.7-.07,1.56.21,2.8.38,3.78.51Z" fill="#fff"/>
                <path d="M153.11,142.36c-.34,1.53-.77,3.17-1.2,4.85-1.62,6.27-3.31,8.05-5.22,11.86-1.82-.71-3.79-1.7-5.77-3.07-1.19-.82-2.26-1.72-3.29-2.75.48-.46,1.03-.99,1.64-1.64,3.84-4.08,3.74-4.5,4.67-6.28.32-.63,1.24-6.6,5.17-7.46.9,1.95,2.3,3.53,4,4.49Z" fill="#4652a3"/>
                <path d="M151.73,69.71l-10.63,4.19c-8.06,5.43-11.36,7.52-13.19,10.04s-4.03,4.19-5.5,5.45c-1.46,1.24-5.49,4.6-8.79,6.27-3.3,1.68-12.46,8.79-13.56,9.62s-5.86,4.6-5.86,4.6l-2.45.7c1.48-3.93,3.8-9.59,4.28-13.67.73-6.28,6.6-7.52,11.73-13.38,5.13-5.86,8.06-5.02,13.92-7.54,5.86-2.51,11.36-3.35,23.82-5.02l6.23-1.26Z" fill="#fff"/>
                <path d="M149.53,244.16c1.1,4.6,1.1,11.29.73,17.15s0,3.35-1.1,12.14c-1.1,8.78-.73,15.26-1.1,18.61v.39l-5.13-.03v-.56c1.1-.42,0-15.06,0-15.06v-22.17c0-6.69.37-9.62,0-13.39-.37-3.76-4.03-12.12-5.49-15.06-1.47-2.92-3.3-10.87-3.67-12.97-.37-2.09,0-10.46,0-11.71s3.3-7.95,4.76-10.87c.33-.65.58-1.07.78-1.34,1.55,1.18,3.17,2.32,4.9,3.43.4.25.81.51,1.23.76-.48,2.28-2.14,3.71-2.14,9.69,0,6.28-.74,11.29.36,15.89s2.57,6.7,3.67,12.14,1.1,8.37,2.2,12.97Z" fill="#fff"/>
                <path d="M146.69,159.07h0c-.54,1.07-1.08,2.31-1.65,3.82-1.79,4.81-.71,5.27-3.3,14.43-1.03,3.65-2.05,6.59-2.75,8.47l-1.29,2.21c-2.42-1.96-4.68-4.06-6.92-6.4.43-3.43-.02-1.27-.22-.24-2.17-2.27-4.32-4.77-6.6-7.58l.47-.54c1.36-1.18,3.06-2.91,4.67-5.33.59-.89,2.49-3.87,3.85-8.47,1.06-3.62,1.75-3.41,4.68-6.2,1.03,1.03,2.1,1.93,3.29,2.75,1.98,1.37,3.95,2.36,5.77,3.07Z" fill="#4652a3"/>
                <path d="M142.93,241.23c.37,3.77,0,6.7,0,13.39v22.17s1.1,14.64,0,15.06v.56l-7.51-.06v-.71c-1.1-4.61-2.38-15.28-2.75-17.79-.36-2.51-1.46-7.95,1.1-14.23,2.57-6.27.73-13.8.73-13.8,0,0-.36-14.21-1.46-18.83-1.1-4.6-3.3-10.87-4.03-14.64-.74-3.77-1.47-9.2-1.47-11.71s1.83-8.78,2.93-16.74c.13-.9.22-1.62.3-2.19l6.57,6.91.36-.62c.53.43,1.06.86,1.61,1.27-.2.26-.45.69-.78,1.34-1.46,2.92-4.76,9.61-4.76,10.87s-.37,9.62,0,11.71c.37,2.1,2.2,10.05,3.67,12.97,1.46,2.93,5.12,11.3,5.49,15.06Z" fill="#fff"/>
                <path d="M146.26,106.37c-4.71,7.15-5.29,11.75-11.94,17.31-3.78,3.17-7.91,5.3-11.56,6.7-.89-9.45,11.54-20.29,23.5-24.01Z" fill="#fff"/>
                <path d="M137.7,188.02l-.36.62-6.57-6.91s0-.08.01-.11c2.24,2.34,4.5,4.44,6.92,6.4Z" fill="#4652a3"/>
                <path d="M130.53,181.49l.24.24c-.08.57-.17,1.29-.3,2.19-1.1,7.96-2.93,14.23-2.93,16.74s.73,7.95,1.47,11.71c.73,3.77,2.93,10.04,4.03,14.64,1.1,4.61,1.46,18.83,1.46,18.83,0,0,1.84,7.54-.73,13.8-2.56,6.28-1.46,11.71-1.1,14.23.37,2.51,1.65,13.18,2.75,17.79v.71l-9.16-.07v-.43c-1.1-2.93-1.28-16.31-1.28-22.59s1.1-10.04,1.1-14.64.73-13.39,1.1-23.43c.36-10.04-2.94-12.97-4.4-18.4-1.47-5.45-2.57-10.88-5.13-19.25-2.57-8.37-2.57-10.04-2.57-13.38s.74-7.54,2.57-10.46c.79-1.27,1.1-1.99,1.2-2.4,1.8,2.34,3.48,4.5,5.11,6.48l-.36.41,6.93,7.28Z" fill="#fff"/>
                <path d="M118.85,167.31c-1.85-2.41-3.82-5.01-5.96-7.85-7.22-9.57-10.69-15.7-12.33-19.5.18-1.69.4-3.58.67-5.78,2.27-.19,6.22-.55,11.11-1.07.56-.06,4.95-.59,10.42-2.72.01.07.01.14.02.21.17,1.53,1.58,3.76,4.4,8.15,4.47,7,7.26,11.35,10.45,14.51-2.93,2.79-3.62,2.58-4.68,6.2-1.36,4.6-3.26,7.58-3.85,8.47-1.61,2.42-3.31,4.16-4.67,5.33l-.47.54c-1.63-1.99-3.31-4.14-5.11-6.48Z" fill="#8d5923"/>
                <path d="M130.56,181.37c.2-1.03.65-3.19.22.24-.08-.08-.15-.16-.22-.24Z" fill="#4652a3"/>
                <path d="M130.78,181.61s-.01.07-.01.11l-.24-.24s.02-.08.03-.11c.07.08.14.16.22.24Z" fill="#4652a3"/>
                <path d="M130.56,181.37s-.02.08-.03.11l-6.93-7.28.36-.41c2.28,2.81,4.43,5.31,6.6,7.58Z" fill="#4652a3"/>
                <path d="M122.78,212.79c1.46,5.43,4.76,8.37,4.4,18.4-.37,10.04-1.1,18.83-1.1,23.43s-1.1,8.37-1.1,14.64.18,19.66,1.28,22.59v.43l-9.35-.07v-.99c.01-2.51.74-8.16.74-10.66s-2.2-10.46-2.2-17.16.37-5.43,1.47-11.29.36-11.71.36-23.01-.73-10.88-1.46-16.31c-.74-5.45-2.57-8.37-3.67-12.97-1.1-4.6-4.03-5.45-4.76-9.2-.73-3.77-.37-6.28-.37-12.56s.37-6.27,1.1-9.61,1.1-5.45,2.2-6.7c1.1-1.24,2.57-2.29,2.57-2.29,2.14,2.84,4.11,5.45,5.96,7.85-.1.41-.41,1.13-1.2,2.4-1.83,2.92-2.57,7.11-2.57,10.46s0,5.01,2.57,13.38c2.56,8.37,3.66,13.8,5.13,19.25Z" fill="#fff"/>
                <path d="M117.65,280.56c0,2.5-.73,8.15-.73,10.66v.99s-11.28-.08-11.28-.08c2.85-5.26,5.78-12.78,4.31-20.79-.89-4.88-2.56-5.25-4.03-11.29-.46-1.86-.68-3.45-.77-5.05-.22-4.08.48-8.31.77-17.96.27-8.52-.21-7.12,0-17.15.35-16,1.49-15.52,1.1-22.59-.14-2.64-.41-4.66-.76-6.4l1.13-.29c.73,3.76,3.66,4.6,4.76,9.2,1.1,4.6,2.93,7.52,3.67,12.97.73,5.43,1.46,5.01,1.46,16.31s.74,17.15-.36,23.01-1.47,4.6-1.47,11.29,2.2,14.65,2.2,17.16Z" fill="#fff"/>
                <path d="M112.89,159.45s-1.47,1.05-2.57,2.29c-1.1,1.26-1.47,3.36-2.2,6.7s-1.1,3.35-1.1,9.61-.36,8.79.37,12.56l-1.13.29c-1.21-6.06-3.43-8.64-5.1-20.79-.65-4.7-.93-8.78-1.04-12.73-.09-3.14-.07-6.2-.06-9.44.01-2.36.18-4.82.5-7.99,1.64,3.8,5.11,9.93,12.33,19.5Z" fill="#fff"/>
                <path d="M109.95,271.35c1.47,8.01-1.46,15.53-4.31,20.79l-8.19-.07c.6-3.97,1.33-13.49,1.15-19.04-.07-2.04-.22-3.76-.41-5.32,1.04-3.49,2.24-9.38,2.24-11.42,0-.24-.01-.5-.03-.81l4.75-.47c.09,1.6.31,3.19.77,5.05,1.47,6.04,3.14,6.42,4.03,11.29Z" fill="#fff"/>
                <path d="M107.02,197.31c.39,7.08-.75,6.6-1.1,22.59-.21,10.02.27,8.63,0,17.15-.29,9.65-.99,13.88-.77,17.96l-4.75.47c-.17-2.9-1.07-8.55-1.07-10.06,0-.62-.87-2.43-1.99-4.56.06-.58.11-1.16.16-1.72,1.57-18.16-3.75-21.22-3.3-41.41.44-19.69,5.82-30.95,5.58-40.34h.34c.11,3.94.39,8.01,1.04,12.72,1.67,12.15,3.89,14.73,5.1,20.79.35,1.75.62,3.77.76,6.4Z" fill="#fff"/>
                <path d="M100.23,134.25c.28-.02.62-.05,1-.08-.27,2.19-.49,4.09-.67,5.78-1.84-4.26-1.41-5.61-1.41-5.61,0,0,.38-.03,1.08-.09Z" fill="#fff"/>
                <path d="M100.56,139.95c-.32,3.17-.49,5.63-.5,7.99,0,3.24-.03,6.3.06,9.44h-.34c-.07-2.98-.72-5.77-2.28-8.6-1.14-2.04-3.82-6.05-4.4-12.14-.38-4.01.29-7.52,1.03-10.07.48,1.35.89,2.43,1.17,2.96.86,1.63,3.71,3.84,4.93,4.72-.7.06-1.08.09-1.08.09,0,0-.43,1.35,1.41,5.61Z" fill="#fff"/>
                <path d="M100.4,255.48c.02.31.03.57.03.81,0,2.03-1.2,7.92-2.24,11.42-.32-2.52-.73-4.66-1.06-7.23-1.06-8.36-.31-14.49.21-19.61,1.12,2.12,1.99,3.94,1.99,4.56,0,1.51.9,7.16,1.07,10.06Z" fill="#fff"/>
                <path d="M99.97,64.35c-.15.31-.44.8-1.01,1.61-1.46,2.09-6.23,4.18-8.43,6.69-2.19,2.51-9.89,7.52-11.72,8.78s-5.86,5.86-7.33,7.54c-1.46,1.67-3.66,5.43-4.4,7.95-.73,2.51-2.93,5.43-3.66,9.2s-3.66,5.45-3.66,11.29-.74,14.65-.37,20.08c.37,5.45,7.33,20.92,7.69,25.52.37,4.6,1.47,18.83,2.2,21.34.46,1.56-.22,13.37-.8,22.45l-.53-.05c.35-7.62-2.13-16.87-5.63-29.92-5.99-22.35-11.28-25.69-12.09-41.42-.12-2.36-.46-11.23,2.2-22.17,4.89-20.13,18.65-41.95,37.74-47.69,4.37-1.31,5.01-.58,9.8-1.19Z" fill="#fff"/>
                <path d="M98.6,273.03c.18,5.55-.55,15.07-1.15,19.04h-2.2c-.71-3.03-1.05-9.08-1.05-11.93s2.2-7.95,3.3-10.46c.21-.48.44-1.16.69-1.98.19,1.56.34,3.28.41,5.32Z" fill="#fff"/>
                <path d="M97.13,260.48c.33,2.57.74,4.7,1.06,7.23-.25.81-.48,1.5-.69,1.98-1.1,2.51-3.3,7.52-3.3,10.46s.34,8.91,1.05,11.92l-2.64-.02c-1.93-3.86-5.06-11.85-4.27-18.18.63-5.09,2.67-7.08,4.03-11.29,2.55-7.96-.28-14.75-3.67-26.35-2.19-7.51-3.92-13.41-5.18-18.4h.05s.74,1.24,2.93,4.59c2.2,3.36,5.5,7.96,5.87,9.21.23.79,2.99,5.5,4.97,9.25-.52,5.13-1.27,11.26-.21,19.61Z" fill="#fff"/>
                <path d="M78.81,256.71c.73,8.37.73,15.89.73,20.08,0,3.46-1.25,12.23-1.69,15.14l-4.54-.03v-.05s.74-23.43,0-30.12c-.73-6.7-2.2-5.45-4.39-9.62-2.2-4.18-2.94-7.11-3.67-9.62s-.36-9.2.73-11.29c1.1-2.09,1.84-12.14,1.84-13.8,0-.23.04-.99.12-2.13l.61.05c-.37,3.76.73,8.78,1.83,13.8,1.1,5.01,3.67,10.04,5.13,14.21,1.47,4.19,2.57,5.02,3.3,13.39Z" fill="#fff"/>
                <path d="M73.31,261.73c.74,6.69,0,30.12,0,30.12v.05l-5.86-.05c-1.56-7.02-1.92-14.89-1.47-19.25.7-6.69,2.25-8.24,1.47-12.55-1.2-6.6-5.49-6.6-8.06-14.23-2.18-6.47-1.11-12.51-.73-14.64,1.32-7.49,4.73-10.55,6.96-15.06,1.45-2.92,2.17-5.99,2.33-9.4l.53.05c-.22,3.46-.42,6.52-.54,8.47-.08,1.14-.12,1.91-.12,2.13,0,1.67-.74,11.71-1.84,13.8-1.09,2.09-1.46,8.78-.73,11.29s1.47,5.45,3.67,9.62c2.19,4.18,3.66,2.92,4.39,9.62Z" fill="#fff"/>
              </g>
              <g>
                <path d="M275.61,155.48c1.29.82,2.75,1.55,4.36,2.09,12.28,4.09,26.26-4.03,30.86-7.07,1.01-.66,1.57-1.08,1.57-1.08,0,0-.45,7.07-4.06,18.2" fill="none" stroke="#231f20" stroke-miterlimit="10"/>
                <path d="M146.26,106.37c1.63-2.45,3.74-5.22,6.75-8.41,2.63-2.81,6.17-6.52,11.54-10.05,9.95-6.53,13.66-4.18,21.98-8.78,14.14-7.82,21.99-20.08,21.99-20.08,0,0,2.31,1.63,8.71,14.73.86,1.78,1.81,3.76,2.83,5.98,1.6,3.48,2.86,6.22,3.86,8.39,3.16,6.85,3.87,8.21,5.48,10.44.89,1.21,1.95,2.56,7.33,7.39" fill="none" stroke="#231f20" stroke-miterlimit="10"/>
                <path d="M101.23,134.17c2.27-.19,6.22-.55,11.11-1.07.56-.06,4.95-.59,10.42-2.72" fill="none" stroke="#231f20" stroke-miterlimit="10"/>
                <path d="M123.96,173.79c-1.63-1.99-3.31-4.14-5.11-6.48-1.85-2.41-3.82-5.01-5.96-7.85-7.22-9.57-10.69-15.7-12.33-19.5" fill="none" stroke="#231f20" stroke-miterlimit="10"/>
                <path d="M167.77,203.05c-1.67-.48-3.27-1-4.87-1.56-1.63-.57-3.15-1.13-4.57-1.68h0c-5.47-2.15-9.48-4.24-12.89-6.34-.42-.25-.83-.51-1.23-.76-1.73-1.11-3.35-2.25-4.9-3.43" fill="none" stroke="#231f20" stroke-miterlimit="10"/>
                <path d="M276.02,202.75c-3.86.59-7.9.92-11.99,1.24-4.89.39-9.51.73-13.89,1.03-1.16.08-2.3.16-3.42.24-1.79.11-3.53.23-5.23.34-1.67.1-3.3.19-4.89.29-5.27.31-10.13.55-14.61.73-7.15.27-13.35.4-18.78.39-10.48-.02-18.12-.57-24.3-1.51-3.18-.48-5.96-1.06-8.55-1.74" fill="none" stroke="#231f20" stroke-miterlimit="10"/>
                <path d="M303.53,180.59c-1.94,4.95-3.31,7.99-4.87,10.23-.4.58-.82,1.13-1.26,1.66" fill="none" stroke="#231f20" stroke-miterlimit="10"/>
                <ellipse cx="203.71" cy="163.69" rx=".14" ry="5.8" fill="none" stroke="#231f20" stroke-miterlimit="10"/>
                <path d="M272.91,149.79c3.4-1.24,5.64-2.52,7.33-5.09.64-.97,1.15-2.06,1.56-3.23,1.2-3.54,1.37-7.95.65-12.56-1.62-10.18-7.62-21.36-16.5-26.57-3.44-2.01-6.94-2.91-10.08-3.2-4.87-.45-8.9.55-10.57,1.06-.41.13-.68.23-.78.26-3.7,1.37-5.46,3.12-7.79,5.5-2.25,2.29-5.04,5.18-10.62,8.93-6.19,4.13-11.74,7.75-19.51,8.47-6.7.61-12.08-1.21-15.94-2.51-6.52-2.2-11.8-5.54-15.94-8.16-6.03-3.8-5.98-4.6-9.07-5.96-7.4-3.24-14.43-1.64-17.31-.94-.69.17-1.38.35-2.08.57-11.96,3.72-24.39,14.56-23.5,24.01.01.07.01.14.02.21.17,1.53,1.58,3.76,4.4,8.15,4.47,7,7.26,11.35,10.45,14.51" fill="none" stroke="#231f20" stroke-miterlimit="10"/>
                <path d="M146.69,159.09c3.98,1.55,7.32,1.83,8.79,1.93,7.75.55,13.57-2.23,20.06-5.33,8.57-4.09,8.51-6.14,16.77-9.73,5.42-2.35,10.31-4.49,16.76-4.38,3.73.05,5.18.81,18.96,5.33,8.37,2.74,12.56,4.11,13.74,4.38,5.57,1.29,14.19,3.19,24.08.72" fill="none" stroke="#231f20" stroke-miterlimit="10"/>
                <path d="M130.77,181.72l-.24-.24-6.93-7.28.36-.41.47-.54c1.36-1.18,3.06-2.91,4.67-5.33.59-.89,2.49-3.87,3.85-8.47,1.06-3.62,1.75-3.41,4.68-6.2.48-.46,1.03-.99,1.64-1.64,3.84-4.08,3.74-4.5,4.67-6.28.32-.63,1.24-6.6,5.17-7.46" fill="none" stroke="#231f20" stroke-miterlimit="10"/>
                <path d="M153.11,142.36c-.34,1.53-.77,3.17-1.2,4.85-1.62,6.27-3.31,8.05-5.22,11.86h0c-.54,1.07-1.08,2.31-1.65,3.82-1.79,4.81-.71,5.27-3.3,14.43-1.03,3.65-2.05,6.59-2.75,8.47l-1.29,2.21" fill="none" stroke="#231f20" stroke-miterlimit="10"/>
                <path d="M259.73,135.6c1.19,5.18,4.65,12.78,6.12,16.41.34.82.57,1.45.65,1.79,2.51,10.51.83,8.47.72,16.18-.1,6.76.86,6.92,3.99,18.91,1.25,4.8,2.48,8.63,3.33,11.11l1.48,2.76.51.94s3.2-1.06,3.24-1.07c.06-.02,3.6-1.19,3.66-1.2,1.12-.38,2.32-.83,3.6-1.4,1.03-.47,2.03-.98,3.02-1.54.15-.07.29-.16.44-.24l.54-.32,6.8-3.95-.03-.14c-.12-.46-.26-.9-.4-1.35-1.78-5.72-4.66-10.88-8.31-15.31-1.79-2.17-3.46-4.73-4.17-7.36-1.5-5.53-2.2-6.59-7.7-11.92-.47-.46-1.01-1.3-1.61-2.41-.81-1.5-1.72-3.48-2.7-5.69-3.22-7.27-7.14-16.93-10.4-19.24-.35-.25-.69-.41-1.03-.48" fill="none" stroke="#231f20" stroke-miterlimit="10"/>
                <path d="M148.27,135.27c-.16-.8-.25-1.63-.25-2.49,0-5.87,4.01-10.62,8.95-10.62s8.95,4.75,8.95,10.62c0,.97-.11,1.92-.32,2.82-1.04,4.5-4.5,7.8-8.63,7.8-1.38,0-2.69-.38-3.86-1.04-1.7-.96-3.1-2.53-4-4.49-.37-.81-.66-1.69-.84-2.6Z" fill="none" stroke="#231f20" stroke-miterlimit="10"/>
                <polyline points="148.31 135.26 165.6 135.6 165.92 135.61" fill="none" stroke="#231f20" stroke-miterlimit="10" stroke-width=".75"/>
                <path d="M261.48,128.45c.02.26.03.53.03.79,0,.29-.01.56-.03.83-.04.69-.14,1.36-.29,2-.3,1.29-.8,2.49-1.46,3.53-1.63,2.58-4.23,4.26-7.17,4.26-4.22,0-7.77-3.47-8.7-8.14-.17-.8-.25-1.62-.25-2.48,0-5.42,3.43-9.91,7.86-10.55.35-.06.72-.08,1.09-.08,4.73,0,8.59,4.34,8.92,9.84Z" fill="none" stroke="#231f20" stroke-miterlimit="10"/>
                <polyline points="243.61 131.72 243.86 131.72 259.34 132.04 261.19 132.07 261.23 132.07" fill="none" stroke="#231f20" stroke-miterlimit="10" stroke-width=".75"/>
                <path d="M204.91,207.56h-.06s.03-.08.06,0Z" fill="none" stroke="#231f20" stroke-miterlimit="10"/>
                <path d="M240.67,252.93c-.88-1.88-7.95-14.37-12.1-21.68-1.97-3.46-3.01-7.49-3.01-11.62l.18-12.91-3.74.15-17.09.7" fill="none" stroke="#231f20" stroke-miterlimit="10"/>
                <path d="M217.13,277.63c9.32-10.65,16.69-17.62,20.59-21.33" fill="none" stroke="#231f20" stroke-miterlimit="10"/>
                <path d="M204.91,207.56c.07.17.16,1.15-.06,5.86-.01.41-.36,4.35-.66,7.71-.26,2.93-1.16,5.73-2.62,8.16-1.3,2.17-3.15,5.53-5.51,10.48-.88,1.85-2.25,4.81-3.85,8.57" fill="none" stroke="#231f20" stroke-miterlimit="10"/>
                <polyline points="262.99 230.46 284 292.28 153.01 292.48" fill="none" stroke="#231f20" stroke-miterlimit="10"/>
                <polyline points="192.21 248.34 217.13 277.63 237.72 256.3 240.76 253.16 240.68 252.96 240.67 252.93 240.03 251.28" fill="none" stroke="#231f20" stroke-miterlimit="10"/>
                <polyline points="154.12 286.1 159.59 254.59 163.27 233.39" fill="none" stroke="#231f20" stroke-miterlimit="10"/>
                <path d="M105.56,292.28s.05-.09.08-.14c2.85-5.26,5.78-12.78,4.31-20.79-.89-4.88-2.56-5.25-4.03-11.29-.46-1.86-.68-3.45-.77-5.05-.22-4.08.48-8.31.77-17.96.27-8.52-.21-7.12,0-17.15.35-16,1.49-15.52,1.1-22.59-.14-2.64-.41-4.66-.76-6.4-1.21-6.06-3.43-8.64-5.1-20.79-.65-4.7-.93-8.78-1.04-12.73-.09-3.14-.07-6.2-.06-9.44.01-2.36.18-4.82.5-7.99.18-1.69.4-3.58.67-5.78.19-1.63.41-3.45.66-5.47.39-3.11.76-5.78,2.57-7.95,2.87-3.46,7.41-3.31,9.16-3.36,12.72-.3,31.54-14,39.57-29.27,3.17-6.03,4.17-11.36,9.53-14.65,2.93-1.79,4.19-1.16,11.72-2.51,3.74-.66,11.56-2.1,19.06-5.43,3.39-1.51,8.21-4.08,13.62-8.54.1-.07.2-.16.3-.24l1.1,2.29" fill="none" stroke="#231f20" stroke-linecap="round" stroke-linejoin="round" stroke-width=".5"/>
                <path d="M92.73,292.28l-.12-.24c-1.93-3.86-5.06-11.85-4.27-18.18.63-5.09,2.67-7.08,4.03-11.29,2.55-7.96-.28-14.75-3.67-26.35-2.19-7.51-3.92-13.41-5.18-18.4-1.69-6.71-2.53-11.75-2.51-16.74.06-15.95,6.72-17.34,6.59-34.72-.07-9.46-2.04-8.84-4.03-26.36-1.67-14.74-2.51-22.14-.36-30.95,2.9-11.93,9.54-19.35,13.19-23.43,15.37-17.18,35.57-20.12,41.77-20.92,13.31-1.74,14.81,2.1,23.81-1.68,9.25-3.88,12.8-10.08,23.82-12.12,6.15-1.14,10.93-.31,12.46,0,1.32.26,2.16.45,2.78.63.98.29,1.46.56,2.48,1.08.21.1.43.23.65.35l2.98,3.11c-.19.01-.39.02-.6.02-3.27,0-9.03-1.46-14.15-.18-5.95,1.5-9.02,3.03-15.03,5.45-12.97,5.22-18.74,6.18-22.66,7.68-2.24.87-3.88,1.91-5.92,4.03-5.58,5.81-3.09,8.22-9.16,14.21-6.27,6.21-9.65,4.34-20.88,11.71-6.27,4.12-10.29,8.03-13.19,10.88-5.09,4.99-8.09,8-10.26,13.38-.29.72-.75,1.86-1.17,3.32-.74,2.55-1.41,6.06-1.03,10.07.58,6.09,3.26,10.09,4.4,12.14,1.56,2.83,2.21,5.62,2.28,8.61.24,9.38-5.14,20.64-5.58,40.34-.45,20.19,4.87,23.24,3.3,41.41-.05.56-.1,1.14-.16,1.72-.52,5.13-1.27,11.26-.21,19.61.33,2.57.74,4.7,1.06,7.23.19,1.56.34,3.28.41,5.32.18,5.55-.55,15.07-1.15,19.04-.05.31-.1.58-.14.82" fill="none" stroke="#231f20" stroke-linecap="round" stroke-linejoin="round" stroke-width=".5"/>
                <path d="M200.82,51.73s.08-.07.22-.21c.86-.8,4.1-3.85,6.54-6.36,1.06-1.1,1.63-2.68,1.56-4.32l-.09-1.99c-.03-.76-.17-1.52-.4-2.23l-.13-.41-.73.86c-.8,1.95-2.23,4.67-4.77,6.7-4.97,3.96-11.14,2.83-13.19,2.5-3.16-.5-6.94-.78-11.07-.82-13.28-.15-30.19,1.99-42.06,5.85-12.47,4.06-15.51,8.77-31.51,12.14-2.19.46-3.87.73-5.22.9-4.79.61-5.43-.13-9.8,1.19-19.09,5.74-32.85,27.56-37.74,47.69-2.66,10.94-2.32,19.81-2.2,22.17.81,15.73,6.1,19.07,12.09,41.42,3.5,13.05,5.98,22.31,5.63,29.92-.16,3.4-.88,6.47-2.33,9.4-2.23,4.51-5.64,7.57-6.96,15.06-.38,2.12-1.45,8.16.73,14.64,2.57,7.63,6.86,7.63,8.06,14.23.78,4.3-.77,5.86-1.47,12.55-.45,4.36-.09,12.23,1.47,19.25l5.86.05,4.54.03,14.76.1,2.64.02h2.2s8.19.08,8.19.08l11.27.08,9.35.07,9.16.07,7.51.06,5.13.03,4.95.03,1.11-6.38,5.48-31.48s-.01-.02-.01-.03c-1.1-2.5-2.01-5.43-3.47-11.68-1.46-6.28-3.66-9.62-4.39-12.14-.74-2.51-.74-10.04-.74-12.12s1.47-8.37,3.3-11.3c1.83-2.92,2.2-4.6,4.03-7.52" fill="none" stroke="#231f20" stroke-linecap="round" stroke-linejoin="round" stroke-width=".5"/>
                <path d="M212.55,44.62c.03.06.06.13.09.18.7,1.44,1.59,3.04,2.68,4.68,1.91,2.84,4.46,5.78,7.86,8.11,5.57,3.8,10.52,3.96,16.85,4.6,10.78,1.07,24.77,2.48,35.18,7.52,10.92,5.31,17.35,14.37,20.15,18.42,9.23,13.31,8.89,23.91,11.99,35.99,1.52,5.89,3.86,12.14,8.53,19.23.78,1.2,1.51,2.21,2.18,3.11,4.71,6.23,6.97,6.11,11.38,14.47,6.32,11.99,7.71,23.69,9.16,36.82,1.82,16.61-.31,17.11,1.83,35.13,1.64,13.84,3.23,16.36,3.3,25.11.09,12.98-3.67,27.14-6.52,34.01-.03.07-.06.13-.08.18" fill="none" stroke="#231f20" stroke-linecap="round" stroke-linejoin="round" stroke-width=".5"/>
                <path d="M316.98,148.36c-.55-.61-1.14-1.26-1.77-1.95-1.9-2.11-4.16-4.69-6.66-7.67-2.87-3.41-8.05-9.75-14.29-18.4-3.53-4.9-4.83-6.99-8.7-12.74-.48-.71-.99-1.48-1.56-2.32-12.73-18.85-19.19-28.3-23.82-30.12-8.04-3.16-9.75,2.32-21.98-1.26-1.16-.34-2.65-.79-4.36-1.45-3.8-1.5-8.67-4.08-13.23-9.01-4.27-4.61-6.73-9.6-8.12-13.21-.06-.15-.12-.29-.19-.42-.5-.94-1.34-1.58-2.3-1.75-.04-.01-.08-.01-.12-.01-.51,0-.86.63-.63,1.18l4.4,10.45,2.93,7.11c.18.32.38.66.61,1.03,1.17,1.88,2.98,4.34,5.62,6.5,10.04,8.23,18.23.86,31.51,5.86,15.95,6.02,23.55,23.98,24.18,25.53,3.3,8.06.67,8.22,4.03,15.47,6.69,14.43,20.77,21.81,27.85,25.52.86.45,1.67.86,2.42,1.22,1.56.75,2.87,1.32,3.81,1.71l1.01-.53-.54-.82-.29-.43" fill="none" stroke="#231f20" stroke-linecap="round" stroke-linejoin="round" stroke-width=".5"/>
                <path d="M307.82,167.6s.19,0,.52.01c.94.01,2.98.1,4.61.41,2.2.42,4.39.42,7.69,6.28,3.3,5.86,6.6,8.78,7.33,15.47.73,6.7,2.2,10.46.73,17.16-1.46,6.69-2.2,10.04-2.2,17.15s-1.83,8.37,1.47,17.15c3.3,8.79,5.13,11.3,5.5,16.74.36,5.43,1.46,8.78,1.09,15.48-.36,6.62-1.61,16.73-2,18.55,0,.02,0,.03,0,.06" fill="none" stroke="#231f20" stroke-linecap="round" stroke-linejoin="round" stroke-width=".5"/>
                <path d="M77.71,292.89s.05-.35.14-.96c.44-2.91,1.69-11.68,1.69-15.14,0-4.19,0-11.71-.73-20.08-.73-8.37-1.83-9.2-3.3-13.39-1.46-4.18-4.03-9.2-5.13-14.21-1.1-5.02-2.2-10.05-1.83-13.8.37-3.77,2.56-17.16,3.3-21.34.73-4.19,1.1-16.74,1.1-24.26s-.37-13.39-1.1-18.83c-.74-5.45-3.3-10.46-4.4-15.48-1.1-5.02.73-12.14-.73-21.34-1.47-9.2,4.39-13.8,6.59-20.92,2.2-7.11,8.8-8.78,14.66-12.12s15.39-10.05,21.62-12.97c6.23-2.93,15.39-5.45,17.59-5.45s16.12-2.5,19.05-2.5,13.92-3.35,17.22-5.02c3.3-1.68,10.63-4.6,15.02-8.79l.29-.82.08-.22" fill="none" stroke="#231f20" stroke-linecap="round" stroke-linejoin="round" stroke-width=".5"/>
                <path d="M100.79,134.66s-.21-.15-.56-.41c-1.22-.88-4.07-3.08-4.93-4.72-.28-.53-.69-1.61-1.17-2.96-1.4-4.02-3.32-10.44-3.6-11.68-.13-.59.42-2.2,1.22-4.33,1.48-3.93,3.8-9.59,4.28-13.67.73-6.28,6.6-7.52,11.73-13.38,5.13-5.86,8.06-5.02,13.92-7.54,5.86-2.51,11.36-3.35,23.82-5.02l6.23-1.26-10.63,4.19c-8.06,5.43-11.36,7.52-13.19,10.04s-4.03,4.19-5.5,5.45c-1.46,1.24-5.49,4.6-8.79,6.27-3.3,1.68-12.46,8.79-13.56,9.62s-5.86,4.6-5.86,4.6l-2.45.7-.48.14" fill="none" stroke="#231f20" stroke-linecap="round" stroke-linejoin="round" stroke-width=".5"/>
                <line x1="151.73" y1="69.71" x2="154.66" y2="68.88" fill="none" stroke="#231f20" stroke-linecap="round" stroke-linejoin="round" stroke-width=".5"/>
                <path d="M100.06,63.86s.14,0-.09.49c-.15.31-.44.8-1.01,1.61-1.46,2.09-6.23,4.18-8.43,6.69-2.19,2.51-9.89,7.52-11.72,8.78s-5.86,5.86-7.33,7.54c-1.46,1.67-3.66,5.43-4.4,7.95-.73,2.51-2.93,5.43-3.66,9.2s-3.66,5.45-3.66,11.29-.74,14.65-.37,20.08c.37,5.45,7.33,20.92,7.69,25.52.37,4.6,1.47,18.83,2.2,21.34.46,1.56-.22,13.37-.8,22.45-.22,3.46-.42,6.52-.54,8.47-.08,1.14-.12,1.91-.12,2.13,0,1.67-.74,11.71-1.84,13.8-1.09,2.09-1.46,8.78-.73,11.29s1.47,5.45,3.67,9.62c2.19,4.18,3.66,2.92,4.39,9.62.74,6.69,0,30.12,0,30.12" fill="none" stroke="#231f20" stroke-linecap="round" stroke-linejoin="round" stroke-width=".5"/>
                <path d="M83.57,217.8s.74,1.26,2.93,4.6c2.2,3.36,5.5,7.96,5.87,9.21.23.79,2.99,5.5,4.97,9.25,1.12,2.12,1.99,3.94,1.99,4.56,0,1.51.9,7.16,1.07,10.06.02.31.03.57.03.81,0,2.03-1.2,7.92-2.24,11.42-.25.81-.48,1.5-.69,1.98-1.1,2.51-3.3,7.52-3.3,10.46s.34,8.91,1.05,11.92c.01.07.03.15.05.22" fill="none" stroke="#231f20" stroke-linecap="round" stroke-linejoin="round" stroke-width=".5"/>
                <path d="M112.89,159.45s-1.47,1.05-2.57,2.29c-1.1,1.26-1.47,3.36-2.2,6.7s-1.1,3.35-1.1,9.61-.36,8.79.37,12.56c.73,3.76,3.66,4.6,4.76,9.2,1.1,4.6,2.93,7.52,3.67,12.97.73,5.43,1.46,5.01,1.46,16.31s.74,17.15-.36,23.01-1.47,4.6-1.47,11.29,2.2,14.65,2.2,17.16-.73,8.15-.73,10.66" fill="none" stroke="#231f20" stroke-linecap="round" stroke-linejoin="round" stroke-width=".5"/>
                <path d="M118.75,166.77s.24,0,.1.54c-.1.41-.41,1.13-1.2,2.4-1.83,2.92-2.57,7.11-2.57,10.46s0,5.01,2.57,13.38c2.56,8.37,3.66,13.8,5.13,19.25,1.46,5.43,4.76,8.37,4.4,18.4-.37,10.04-1.1,18.83-1.1,23.43s-1.1,8.37-1.1,14.64.18,19.66,1.28,22.59" fill="none" stroke="#231f20" stroke-linecap="round" stroke-linejoin="round" stroke-width=".5"/>
                <path d="M130.47,181.83s.03-.14.06-.34c.01-.03.02-.08.03-.11.2-1.03.65-3.19.22.24-.01.03-.01.07-.01.11-.08.57-.17,1.29-.3,2.19-1.1,7.96-2.93,14.23-2.93,16.74s.73,7.95,1.47,11.71c.73,3.77,2.93,10.04,4.03,14.64,1.1,4.61,1.46,18.83,1.46,18.83,0,0,1.84,7.54-.73,13.8-2.56,6.28-1.46,11.71-1.1,14.23.37,2.51,1.65,13.18,2.75,17.79" fill="none" stroke="#231f20" stroke-linecap="round" stroke-linejoin="round" stroke-width=".5"/>
                <path d="M140,189.36s0-1.02-.69-.08c-.2.26-.45.69-.78,1.34-1.46,2.92-4.76,9.61-4.76,10.87s-.37,9.62,0,11.71c.37,2.1,2.2,10.05,3.67,12.97,1.46,2.93,5.12,11.3,5.49,15.06.37,3.77,0,6.7,0,13.39v22.17s1.1,14.64,0,15.06" fill="none" stroke="#231f20" stroke-linecap="round" stroke-linejoin="round" stroke-width=".5"/>
                <path d="M145.5,193.13l-.06.34c-.48,2.28-2.14,3.71-2.14,9.69,0,6.28-.74,11.29.36,15.89s2.57,6.7,3.67,12.14,1.1,8.37,2.2,12.97,1.1,11.29.73,17.15,0,3.35-1.1,12.14c-1.1,8.78-.73,15.26-1.1,18.61" fill="none" stroke="#231f20" stroke-linecap="round" stroke-linejoin="round" stroke-width=".5"/>
                <path d="M167.11,225.34s-.36-5.02-.36-6.28,0-6.69-.73-8.78c-.48-1.36.26-5.81,1.75-7.23.71-.67,1.59-.66,2.59.72.14.19.28.41.42.65,1.46,2.51,1.1,11.71,1.1,11.71,0,0-1.47,5.43,1.83,9.62,2.75,3.48,6.01,10.16,7.01,12.28.21.43.32.67.32.67" fill="none" stroke="#231f20" stroke-linecap="round" stroke-linejoin="round" stroke-width=".5"/>
                <path d="M178.84,206.09c-.59,1.67-1.33,4.27-1.47,7.54-.11,2.65-.31,7.52,2.2,11.29,2.33,3.5,4.79,2.76,7.33,6.7,1.38,2.13,1.94,4.35,2.2,5.86l.35,8.4.02.38" fill="none" stroke="#231f20" stroke-linecap="round" stroke-linejoin="round" stroke-width=".5"/>
                <path d="M263.11,54.24c.13.01.26.01.39.02,1.7.09,3.96.31,6.58.81,3.19.61,10.07,1.98,16.85,6.28,11.5,7.28,16.71,19.19,18.32,23.01,1.48,3.49,4.31,10.17,4.77,19.24.42,8.28-1.39,13.32.19,19.74.22.91.52,1.86.9,2.85.92,2.37,2.2,4.24,4.77,7.95,1.27,1.85,4.81,6.83,13.19,15.06,7.58,7.47,8.21,6.86,10.62,10.46,3.02,4.51,4.15,8.6,5.87,15.06,2.57,9.67,3.13,17.5,3.66,25.52.58,8.67.87,13,.37,18.42-1.2,12.99-4.71,15.29-4.03,25.09.39,5.72,1.51,3.81,3.66,15.48,2.46,13.32,1.71,19.64.73,23.84-.67,2.9-2.55,7.28-3.2,8.79" fill="none" stroke="#231f20" stroke-linecap="round" stroke-linejoin="round" stroke-width=".5"/>
                <path d="M233.8,72.07s.05,0,.15.01c1.45.13,13.1,1.1,14,1.1.97,0,5.91-.32,5.91-.32,0,0,5.77.63,8.89,1.05,1.89.25,4.4,1.45,7.33,2.92,3.25,1.64,5.08,2.57,6.96,4.6,2.5,2.72,3.5,5.71,4.4,8.37.81,2.42,1.86,6.45,1.83,11.71l2.56,5.86" fill="none" stroke="#231f20" stroke-linecap="round" stroke-linejoin="round" stroke-width=".5"/>
                <path d="M324.49,291.85c-.08-1.3-.08-6.13-.55-8.37-.7-3.31-1.62-5.47-2.57-7.95,0,0-1.9-4.99-3.29-10.05-1.77-6.37-1.46-11.73-1.1-17.98.35-6.19,1.24-10.59,2.56-17.15,1.87-9.26,3.1-11.87,3.67-19.25.33-4.42.21-7.63-.37-10.88-.32-1.78-.96-5.26-2.93-9.2-1.43-2.85-4.01-8-9.16-10.04-1.93-.76-3.65-.83-4.77-.83l-2.38.47" fill="none" stroke="#231f20" stroke-linecap="round" stroke-linejoin="round" stroke-width=".5"/>
                <path d="M307.08,292.28s-.04-.08-.07-.13c-2.6-5.02-6.38-13.56-7.99-22.89-.86-4.99-2.05-11.9-.73-20.49,1.05-6.84,2.51-7.07,4.4-17.57,1.29-7.22,1.38-11.43,1.1-15.06-.32-4.04-1.07-7.18-1.47-8.79-1.18-4.82-2.75-8.63-4.03-11.29l-.46-2.09" fill="none" stroke="#231f20" stroke-linecap="round" stroke-linejoin="round" stroke-width=".5"/>
                <path d="M264.03,204l2.02,1.68c.97.94,2.36,2.44,3.66,4.6,1.16,1.92,2.26,3.76,2.56,6.27.29,2.36-.38,3.25-1.09,7.54-.37,2.19-.49,3.84-.74,7.11-.25,3.33-.41,8.15,0,14.23l1.01,9.57" fill="none" stroke="#231f20" stroke-linecap="round" stroke-linejoin="round" stroke-width=".5"/>
                <path d="M262.02,224.92c1.03-2.88,1.55-5.35,1.83-7.11.46-2.9.27-3.88,0-4.6-.24-.62-.76-1.67-3.3-3.35-1.36-.89-3.44-2.08-6.23-2.92l-4.17-1.68" fill="none" stroke="#231f20" stroke-linecap="round" stroke-linejoin="round" stroke-width=".5"/>
                <path d="M277.22,271.77l-5.78-16.78-8.45-24.52-.61-1.78-1.81,1.84-13.85,14-6.69,6.76.37-5.86c.25-1.69.46-4.2,0-7.11-.77-4.83-2.57-5.63-3.67-10.46-1.16-5.11-.34-9.51,0-11.3.79-4.03,2.26-7.01,3.3-8.78" fill="none" stroke="#231f20" stroke-linecap="round" stroke-linejoin="round" stroke-width=".5"/>
                <path d="M236.82,205.57l-.22.32-2.43,3.55c-.54,1.05-1.24,2.61-1.83,4.6-.59,1.96-1.77,6.05-1.1,10.87.31,2.23.69,2.32,2.2,7.54.86,3,1.46,5.5,1.83,7.11l-.08,2.69v.33" fill="none" stroke="#231f20" stroke-linecap="round" stroke-linejoin="round" stroke-width=".5"/>
                <path d="M246.72,205.26h0s.27,1.68.27,1.68c-.18,2.23.27,3.68.74,4.6,0,0,.56,1.11,4.03,4.18.31,1.05.61,2.42.61,3.94,0,.75-.07,1.53-.25,2.34-.71,3.24-2.6,4.46-4.03,7.11-1.17,2.18-2.21,5.65-1.46,11.29l-.19,3.77" fill="none" stroke="#231f20" stroke-linecap="round" stroke-linejoin="round" stroke-width=".5"/>
                <polyline points="241.5 205.72 239.92 207.65 239.57 208.08" fill="none" stroke="#231f20" stroke-linecap="round" stroke-linejoin="round" stroke-width=".5"/>
                <polyline points="262.11 224.24 261.92 224.88 260.32 230.2" fill="none" stroke="#231f20" stroke-linecap="round" stroke-linejoin="round" stroke-width=".5"/>
                <path d="M217.18,67.36c.01.15.01.31.01.46.09,2.67-.13,5.23.26,5.82.41.63.96,1.88,1.92,3.61.97,1.72.83,2.98,2.89,4.24s3.57,2.35,6.05,3.29c2.47.95,9.89,2.83,11.26,4.09,1.38,1.26,5.36,2.51,7.15,4.08,1.78,1.56,4.12,2.19,5.22,3.61,1.03,1.32,3.63,2.24,3.95,2.34.02.01.03.01.03.01" fill="none" stroke="#231f20" stroke-linecap="round" stroke-linejoin="round" stroke-width=".5"/>
                <path d="M282.72,128.86c1.51,2.03,2.06,4.38,3.02,5.48.96,1.11,1.24,4.72,2.75,5.65,1.51.95,2.61,3.61,6.04,4.56,3.44.94,7.15,2.03,9.21,2.19s8.38,1.88,8.79,1.88" fill="none" stroke="#231f20" stroke-linecap="round" stroke-linejoin="round" stroke-width=".5"/>
                <path d="M224.32,87.91c1.92.79,1.51,1.42,3.99,2.35,2.47.95,2.61,2.04,5.08,2.98,2.47.95,3.98,2.51,5.91,3.46,1.92.94,5.36,3.14,5.91,3.14" fill="none" stroke="#231f20" stroke-linecap="round" stroke-linejoin="round" stroke-width=".5"/>
                <path d="M282.03,141.57s1.37,3.45,1.79,4.08c.41.63,4.67,3.29,5.36,3.77.68.47,5.22,1.87,6.59,2.03,1.38.16,4.95,0,6.6-.16,1.65-.15,6.32-.15,6.32-.15l2.06-.79" fill="none" stroke="#231f20" stroke-linecap="round" stroke-linejoin="round" stroke-width=".5"/>
                <path d="M244.66,51.99c2.19-.63,6.32-2.04,6.32-2.04,0,0,1.23-.31,3.43-.94s3.85-1.11,6.19-1.11h14.15c.82,0,2.88.16,4.94.79,1.37.41,2.43.76,2.99.95.29.09.45.15.45.15" fill="none" stroke="#231f20" stroke-linecap="round" stroke-linejoin="round" stroke-width=".5"/>
                <path d="M290.96,50.05c2.34,1.62,2.61,3.2,4.95,4.92,2.33,1.72,3.02,4.24,5.08,6.27,2.06,2.04,3.3,4.56,5.09,7.22,1.78,2.67,3.84,8.63,5.22,10.83,1.37,2.19,2.75,9.72,3.16,11.76s.27,13.18.69,14.9c.41,1.74-.42,8.63.13,10.36s.96,8.32,1.93,11.3c.96,2.98,3.29,6.59,4.12,7.36.82.79,9.2,6.28,9.2,6.28,0,0,.15.19.42.54,1.41,1.82,5.97,7.65,6.32,7.77.41.16,1.65,1.26,3.29,2.98,1.65,1.72,2.2,2.67,3.71,4.56,1.52,1.88,1.24,2.35,3.71,5.96,2.48,3.61,2.07,3.14,4.4,7.68,2.34,4.56,3.44,5.18,5.77,11.45,2.34,6.28,3.03,5.49,3.58,11.3.54,5.8,2.33,6.9,1.92,14.58-.41,7.7,0,9.42-1.51,15.54s-1.79,3.92-4.4,10.5c-2.61,6.59-3.71,7.07-4.12,8.16s-1.24,2.98-1.1,8c.14,5.01,1.92,23.53,2.88,25.88.97,2.35,1.1,3.14,1.24,5.8.14,2.67.41,8.79,0,9.89" fill="none" stroke="#231f20" stroke-linecap="round" stroke-linejoin="round" stroke-width=".5"/>
                <path d="M212.64,45.17v-3c0-.8.64-1.38,1.32-1.22l1.66.41c.84.22,1.6.67,2.22,1.36,2.39,2.61,5.84,5.61,10.47,7.34,4.1,1.54,5,.54,12.09,1.68,1.58.25,2.95.53,4.16.82,6.42,1.51,8.34,3.24,13.79,2.95,2.34-.14,3.18-.51,5.15-1.23,1.21-.45,2.83-.99,5.48-1.7,5.1-1.35,9.52-2.52,13.7-2.92,2.82-.27,5.53-.19,8.28.41,8.81,1.95,14.5,8.55,16.86,11.3,3.25,3.78,7.59,10.18,12.45,31.37,6.69,29.14,3.57,39.15,10.95,48.78.35.47.74.95,1.15,1.42,4.71,5.38,7.26,4.36,13.55,12.12,5.05,6.23,5.97,10.05,12.1,21.34,8.55,15.77,10.11,14.49,12.45,20.92,4.06,11.11,1.58,20.88-1.83,37.65-2.53,12.46-6.58,33.04-10.08,56.89h-1.92s-9.89.07-9.89.07l-9.54.06-4.65.02-8.07.05-17.48.1-23.01.13-6.78-20.5-.55-10.04c.01-2.67.08-6.42.37-10.88.36-5.63.53-8.45,1.1-10.88,1.57-6.76,3.67-6.59,5.49-14.21.93-3.89,1.34-7.92,1.47-9.21.24-2.49.28-4.62.37-6.27.13-2.67-5.7-7.66-5.7-7.66" fill="none" stroke="#231f20" stroke-linecap="round" stroke-linejoin="round" stroke-width=".5"/>
                <polyline points="159.6 254.62 163.27 233.39 164.92 223.88 166.9 225.65 180.72 238.04 189.45 245.88 192.21 248.34" fill="none" stroke="#231f20" stroke-linecap="round" stroke-linejoin="round" stroke-width=".5"/>
                <polyline points="231.33 235.06 235.19 242.26 240.03 251.28" fill="none" stroke="#231f20" stroke-linecap="round" stroke-linejoin="round" stroke-width=".5"/>
              </g>
            </g>
            <line x1="218.69" y1="169.8" x2="203.71" y2="169.49" fill="none" stroke="#231f20" stroke-miterlimit="10"/>
            <path d="M228.47,191.45c-.84-9.31-15.96-15.15-33.78-13.04" fill="none" stroke="#231f20" stroke-miterlimit="10"/>
            <image width="91" height="89" transform="translate(208 120.55)" xlink:href="Frame 7-2.png"/>
            <image width="91" height="89" transform="translate(117 123.55)" xlink:href="Frame 7-3.png"/>
          </g>
        </g>
      </g>
    </g>
  </g>
</svg>