<?xml version="1.0" encoding="UTF-8"?>
<svg id="Layer_2" data-name="Layer 2" xmlns="http://www.w3.org/2000/svg" viewBox="0 0 448.22 401.14">
  <g id="outlines">
    <g id="Page_1" data-name="Page 1">
      <g id="Frame_4" data-name="Frame 4">
        <g id="CORPORATE">
          <g id="Layer_14" data-name="Layer 14">
            <path d="M95.03,211.91c2.1-4.22,6.79-12.18,15.94-18.14,3.69-2.4,19.64-12,35.18-5.5,8.67,3.63,13.14,10.58,16.49,15.94,11.57,18.53,9.68,38.89,8.24,47.82l-75.85-40.12Z" fill="#a4a1a1" stroke="#231f20" stroke-miterlimit="10"/>
            <polygon points="29.63 277.87 14.79 309.75 147.25 360.86 162.64 329.53 29.63 277.87" fill="#a4a1a1" stroke="#231f20" stroke-miterlimit="10"/>
            <polygon points="95.03 211.91 57.11 287.76 139 320.74 170.88 252.04 95.03 211.91" fill="#706d6d" stroke="#231f20" stroke-miterlimit="10"/>
            <polygon points="45.57 321.29 41.17 340.52 120.87 373.5 129.11 354.26 45.57 321.29" fill="#4c4b4c" stroke="#231f20" stroke-miterlimit="10"/>
            <path d="M30.18,336.68l99.48,40.67c-.04,1.16-.25,2.97-1.1,4.95-1.67,3.87-4.84,6.06-7.69,7.69-14.86,8.51-25.83,9.89-25.83,9.89-6.83.86-33.29,4.19-51.66-15.39-17.99-19.16-13.74-44.83-13.19-47.82" fill="#848484" stroke="#231f20" stroke-miterlimit="10"/>
            <ellipse cx="169.23" cy="348.77" rx="10.44" ry="9.34" fill="#b7b7b7" stroke="#231f20" stroke-miterlimit="10"/>
            <ellipse cx="10.94" cy="286.11" rx="10.44" ry="9.34" fill="#b7b7b7" stroke="#231f20" stroke-miterlimit="10"/>
            <rect x="82.39" y="229.5" width="24.73" height="59.36" transform="translate(119.5 -15.67) rotate(25.23)" fill="#dcdbdb" stroke="#231f20" stroke-miterlimit="10"/>
            <rect x="123.06" y="246.54" width="24.73" height="59.36" transform="translate(130.64 -31.38) rotate(25.23)" fill="#dcdbdb" stroke="#231f20" stroke-miterlimit="10"/>
            <line x1="99.16" y1="228.4" x2="73.6" y2="281.71" fill="#dcdbdb" stroke="#231f20" stroke-miterlimit="10"/>
            <line x1="103" y1="230.6" x2="77.45" y2="283.91" fill="#dcdbdb" stroke="#231f20" stroke-miterlimit="10"/>
            <line x1="107.68" y1="232.8" x2="82.12" y2="286.11" fill="#dcdbdb" stroke="#231f20" stroke-miterlimit="10"/>
            <line x1="112.35" y1="235" x2="86.79" y2="288.31" fill="#dcdbdb" stroke="#231f20" stroke-miterlimit="10"/>
            <line x1="117.02" y1="237.2" x2="91.46" y2="290.51" fill="#dcdbdb" stroke="#231f20" stroke-miterlimit="10"/>
            <line x1="140.65" y1="245.44" x2="115.1" y2="298.75" fill="#dcdbdb" stroke="#231f20" stroke-miterlimit="10"/>
            <line x1="144.5" y1="247.36" x2="118.94" y2="300.68" fill="#dcdbdb" stroke="#231f20" stroke-miterlimit="10"/>
            <line x1="148.9" y1="249.56" x2="123.34" y2="302.88" fill="#dcdbdb" stroke="#231f20" stroke-miterlimit="10"/>
            <line x1="153.29" y1="251.76" x2="127.74" y2="305.07" fill="#dcdbdb" stroke="#231f20" stroke-miterlimit="10"/>
            <line x1="157.69" y1="253.96" x2="132.13" y2="307.27" fill="#dcdbdb" stroke="#231f20" stroke-miterlimit="10"/>
          </g>
          <g id="CORPORATE-Text">
            <path d="M44.56,292.83l-11.21-4.42c-.59-.23-1.2-.11-1.35.28l-5.85,14.63c-.16.39.19.9.78,1.14l11.25,4.57" fill="none" stroke="#010101" stroke-linejoin="round" stroke-width="2"/>
            <path d="M48.32,294.6l-5.92,14.8c-.16.39.2.9.79,1.14l7.29,2.92c.59.24,1.2.11,1.36-.28l5.92-14.8c.16-.39-.2-.9-.79-1.14l-7.29-2.92c-.59-.24-1.2-.11-1.36.28Z" fill="none" stroke="#010101" stroke-linejoin="round" stroke-width="2"/>
            <path d="M87.14,309.4l-5.92,14.8c-.16.39.2.9.79,1.14l7.29,2.92c.59.24,1.2.11,1.36-.28l5.92-14.8c.16-.39-.2-.9-.79-1.14l-7.29-2.92c-.59-.24-1.2-.11-1.36.28Z" fill="none" stroke="#010101" stroke-linejoin="round" stroke-width="2"/>
            <path d="M55.52,315.93l6.13-15.32c.16-.39.77-.52,1.37-.27l6.91,2.82c.58.24.93.74.78,1.13l-1.8,4.71c-.15.4-.78.53-1.38.28l-7.64-3.18c-.83-.35,4.63,13.66,4.63,13.66" fill="none" stroke="#010101" stroke-linejoin="round" stroke-width="2"/>
            <path d="M95.17,330.93l6.13-15.32c.16-.39.77-.52,1.37-.27l6.91,2.82c.58.24.93.74.78,1.13l-1.8,4.71c-.15.4-.78.53-1.38.28l-7.55-3.14c-1.86-1.11,4.53,13.62,4.53,13.62" fill="none" stroke="#010101" stroke-linejoin="round" stroke-width="2"/>
            <path d="M68.38,320.48l5.97-15.45c.15-.4.76-.52,1.36-.28l7.2,2.88c.59.24.94.74.79,1.13l-1.82,4.76c-.15.41-.79.53-1.39.27l-8.36-3.53" fill="none" stroke="#010101" stroke-linejoin="round" stroke-width="2"/>
            <path d="M108.04,336.41l9.13-14.23c.21-.33.77-.41,1.31-.19l4.27,1.71c.54.22.9.67.82,1.05l-3.4,16.59" fill="none" stroke="#010101" stroke-linejoin="round" stroke-width="2"/>
            <line x1="114.02" y1="327.14" x2="122.2" y2="330.56" fill="none" stroke="#010101" stroke-linejoin="round" stroke-width="2"/>
            <line x1="127.77" y1="326.47" x2="140.09" y2="331.47" fill="none" stroke="#010101" stroke-linejoin="round" stroke-width="2"/>
            <line x1="133.66" y1="328.83" x2="126.85" y2="344.78" fill="none" stroke="#010101" stroke-linejoin="round" stroke-width="2"/>
            <path d="M153.07,336.48l-8-3.2c-.59-.24-1.2-.11-1.36.28l-5.87,14.68c-.16.39.2.9.79,1.14l7.81,3.12" fill="none" stroke="#010101" stroke-linejoin="round" stroke-width="2"/>
            <line x1="141.7" y1="338.87" x2="147.5" y2="341.19" fill="none" stroke="#010101" stroke-linejoin="round" stroke-width="2"/>
          </g>
        </g>
        <g id="planet">
          <g>
            <path d="M314.21,163.37c-8.83,5.12-14.17,7.79-19.49,8.42-7.72.92-18.77-.26-19.78-.36-1.31-.14-5.58-.63-11.36-.74-1.69-.03-3.11-.02-4.1,0-.92-5.4-1.4-10.97-1.4-16.67,0-5.09.38-10.08,1.12-14.93l6.94,4.85c4.21,2.27,12.85,6.17,24.19,5.87,3.81-.1,11.52-.39,19.42-4.77,2.06-1.14,2.11-1.44,12.09-9.16,3.26-2.52,5.79-4.47,7.73-5.92,2.28-1.71,3.77-2.74,4.73-3.24,6.14-3.14,11.65-3.72,18.68-4.39,12.77-1.22,12.75,1.5,19.79-.37,9.38-2.49,16.35-9.16,19.42-13.92,1.06-1.66,3.03-5.22,4.76-9.53.66-1.65,1.15-3.04,1.47-4.03l.3-.24c5.81,7.18,10.57,15.41,14.05,24.4l-.06.02-1.83,1.47c-3.97,3.38-9.76,7.99-17.22,12.82-4.99,3.23-7.52,4.87-11.36,6.6-3.16,1.42-7.41,2.99-24.19,5.86-13.99,2.39-13.36,1.7-17.22,2.93-6.83,2.19-8.26,4.2-19.78,10.99-2.53,1.49-4.81,2.83-6.9,4.04Z" fill="#4b57a6"/>
            <path d="M419.3,154.02c0,10.07-1.5,19.76-4.25,28.8l-.14-.04-.37-1.09-3.3-2.57c-2.96-1.11-7.65-2.6-13.55-3.3-7.25-.85-10.85.14-21.62.74-11.21.62-16.82.93-20.89,0-9.59-2.21-10.18-6.16-21.98-9.16-1.44-.37-6.6-1.63-13.19-2.94-2.38-.47-4.38-.83-5.8-1.09,2.09-1.21,4.37-2.55,6.9-4.04,11.52-6.79,12.95-8.8,19.78-10.99,3.86-1.23,3.23-.54,17.22-2.93,16.78-2.87,21.03-4.44,24.19-5.86,3.84-1.73,6.37-3.37,11.36-6.6,7.46-4.83,13.25-9.44,17.22-12.82l1.83-1.47.06-.02c4.2,10.85,6.53,22.81,6.53,35.38Z" fill="#1972a8"/>
            <path d="M414.91,182.78l.14.04c-4.67,15.29-12.96,28.73-23.73,39.05l-.23-.25-3.66.37c-3.44.01-8.71-.16-15.03-1.1-12.96-1.92-17.37-4.97-37.37-12.09-6.6-2.35-25.82-9.31-35.91-6.6-1.91.52-4.8,1.73-9.89,2.57-2.73.45-4.97.6-8.06,1.83-.97.38-5.53,2.19-5.32,3.54-8.13-11.24-13.88-24.71-16.37-39.45.99-.02,2.41-.03,4.1,0,5.78.11,10.05.6,11.36.74,1.01.1,12.06,1.28,19.78.36,5.32-.63,10.66-3.3,19.49-8.42,1.42.26,3.42.62,5.8,1.09,6.59,1.31,11.75,2.57,13.19,2.94,11.8,3,12.39,6.95,21.98,9.16,4.07.93,9.68.62,20.89,0,10.77-.6,14.37-1.59,21.62-.74,5.9.7,10.59,2.19,13.55,3.3l3.3,2.57.37,1.09Z" fill="#3a90ba"/>
            <path d="M398.72,94.24l-.3.24c-.32.99-.81,2.38-1.47,4.03-1.73,4.31-3.7,7.87-4.76,9.53-3.07,4.76-10.04,11.43-19.42,13.92-7.04,1.87-7.02-.85-19.79.37-7.03.67-12.54,1.25-18.68,4.39-.96.5-2.45,1.53-4.73,3.24,2.3-3.11,5.68-7.86,9.49-13.86,4.98-7.86,9.19-15.51,9.53-16.12,6.8-12.4,8-16.68,13.55-20.52,3.1-2.15,6.12-3.16,8.07-3.67l4.39-1.46.22-.41c9.09,5.06,17.19,11.99,23.9,20.32ZM374.6,97.04c0-4.85-4.1-8.79-9.16-8.79s-9.16,3.94-9.16,8.79,4.1,8.8,9.16,8.8,9.16-3.94,9.16-8.8Z" fill="#b6dcf4"/>
            <path d="M391.09,221.62l.23.25c-14.12,13.55-32.51,21.74-52.63,21.74-25.22,0-47.75-12.88-62.52-33.05,1.24.78,5.79.24,10.49,1.9,6.69,2.36,7.43,6.96,13.93,12.83.98.89,9.52,8.43,20.88,10.26,2.04.33,3.05.29,23.45-3.3,24.68-4.34,23.34-4.31,24.92-4.4,2.62-.14,7.17-.26,12.82-2.2,3.69-1.26,6.55-2.84,8.43-4.03Z" fill="#2b92d0"/>
            <path d="M387.43,221.99l3.66-.37c-1.88,1.19-4.74,2.77-8.43,4.03-5.65,1.94-10.2,2.06-12.82,2.2-1.58.09-.24.06-24.92,4.4-20.4,3.59-21.41,3.63-23.45,3.3-11.36-1.83-19.9-9.37-20.88-10.26-6.5-5.87-7.24-10.47-13.93-12.83-4.7-1.66-9.25-1.12-10.49-1.9-.01.01-.01,0-.01,0-.1-.14-.21-.28-.31-.42-.21-1.35,4.35-3.16,5.32-3.54,3.09-1.23,5.33-1.38,8.06-1.83,5.09-.84,7.98-2.05,9.89-2.57,10.09-2.71,29.31,4.25,35.91,6.6,20,7.12,24.41,10.17,37.37,12.09,6.32.94,11.59,1.11,15.03,1.1ZM328.07,217.78c0-4.96-4.84-8.98-10.81-8.98s-10.81,4.02-10.81,8.98,4.84,8.97,10.81,8.97,10.81-4.02,10.81-8.97Z" fill="#b6dcf4"/>
            <path d="M374.82,73.92l-.22.41-4.39,1.46c-1.95.51-4.97,1.52-8.07,3.67-5.55,3.84-6.75,8.12-13.55,20.52-.34.61-4.55,8.26-9.53,16.12-3.81,6-7.19,10.75-9.49,13.86-1.94,1.45-4.47,3.4-7.73,5.92-9.98,7.72-10.03,8.02-12.09,9.16-7.9,4.38-15.61,4.67-19.42,4.77-11.34.3-19.98-3.6-24.19-5.87l-6.94-4.85c.84-5.63,2.16-11.08,3.91-16.3,1.21.48,2.88,1.1,4.87,1.74,0,0,4.59,1.46,8.42,2.19,8.35,1.6,19.69-2.69,24.19-4.39,6.52-2.47,12.53-4.75,18.68-10.26,5.07-4.55,8.68-9.91,9.16-10.63,3.17-4.75,3.36-6.63,6.6-10.62,2.52-3.12,4.45-4.5,8.79-8.07,3.32-2.71,8.13-6.77,13.93-12.09l2.35-3.03c5.13,1.56,10.05,3.68,14.72,6.29Z" fill="#2b92d0"/>
            <path d="M365.44,88.25c5.06,0,9.16,3.94,9.16,8.79s-4.1,8.8-9.16,8.8-9.16-3.94-9.16-8.8,4.1-8.79,9.16-8.79Z" fill="#1972a8"/>
            <path d="M360.1,67.63l-2.35,3.03c-5.8,5.32-10.61,9.38-13.93,12.09-4.34,3.57-6.27,4.95-8.79,8.07-3.24,3.99-3.43,5.87-6.6,10.62-.48.72-4.09,6.08-9.16,10.63-6.15,5.51-12.16,7.79-18.68,10.26-4.5,1.7-15.84,5.99-24.19,4.39-3.83-.73-8.42-2.19-8.42-2.19-1.99-.64-3.66-1.26-4.87-1.74,11.41-34.08,40.94-58.36,75.58-58.36,7.41,0,14.59,1.11,21.41,3.2Z" fill="#1972a8"/>
            <path d="M317.26,208.8c5.97,0,10.81,4.02,10.81,8.98s-4.84,8.97-10.81,8.97-10.81-4.02-10.81-8.97,4.84-8.98,10.81-8.98Z" fill="#1972a8"/>
            <path d="M275.85,210.14c.1.14.21.28.31.42-.18-.11-.28-.24-.31-.42Z" fill="#b6dcf4"/>
          </g>
          <g>
            <path d="M275.85,210.14c-8.13-11.24-13.88-24.71-16.37-39.45-.92-5.4-1.4-10.97-1.4-16.67,0-5.09.38-10.08,1.12-14.93.84-5.63,2.16-11.08,3.91-16.3,11.41-34.08,40.94-58.36,75.58-58.36,7.41,0,14.59,1.11,21.41,3.2,5.13,1.56,10.05,3.68,14.72,6.29,9.09,5.06,17.19,11.99,23.9,20.32,5.81,7.18,10.57,15.41,14.05,24.4,4.2,10.85,6.53,22.81,6.53,35.38,0,10.07-1.5,19.76-4.25,28.8-4.67,15.29-12.96,28.73-23.73,39.05-14.12,13.55-32.51,21.74-52.63,21.74-25.22,0-47.75-12.88-62.52-33.05" fill="none" stroke="#231f20" stroke-miterlimit="10" stroke-width=".75"/>
            <path d="M275.85,210.14c-.21-1.35,4.35-3.16,5.32-3.54,3.09-1.23,5.33-1.38,8.06-1.83,5.09-.84,7.98-2.05,9.89-2.57,10.09-2.71,29.31,4.25,35.91,6.6,20,7.12,24.41,10.17,37.37,12.09,6.32.94,11.59,1.11,15.03,1.1l3.66-.37c-1.88,1.19-4.74,2.77-8.43,4.03-5.65,1.94-10.2,2.06-12.82,2.2-1.58.09-.24.06-24.92,4.4-20.4,3.59-21.41,3.63-23.45,3.3-11.36-1.83-19.9-9.37-20.88-10.26-6.5-5.87-7.24-10.47-13.93-12.83-4.7-1.66-9.25-1.12-10.49-1.9-.01.01-.01,0-.01,0-.18-.11-.28-.24-.31-.42Z" fill="none" stroke="#231f20" stroke-miterlimit="10"/>
            <path d="M259.18,170.69h.3c.99-.02,2.41-.03,4.1,0,5.78.11,10.05.6,11.36.74,1.01.1,12.06,1.28,19.78.36,5.32-.63,10.66-3.3,19.49-8.42,2.09-1.21,4.37-2.55,6.9-4.04,11.52-6.79,12.95-8.8,19.78-10.99,3.86-1.23,3.23-.54,17.22-2.93,16.78-2.87,21.03-4.44,24.19-5.86,3.84-1.73,6.37-3.37,11.36-6.6,7.46-4.83,13.25-9.44,17.22-12.82l1.83-1.47" fill="none" stroke="#231f20" stroke-miterlimit="10"/>
            <path d="M398.42,94.48c-.32.99-.81,2.38-1.47,4.03-1.73,4.31-3.7,7.87-4.76,9.53-3.07,4.76-10.04,11.43-19.42,13.92-7.04,1.87-7.02-.85-19.79.37-7.03.67-12.54,1.25-18.68,4.39-.96.5-2.45,1.53-4.73,3.24-1.94,1.45-4.47,3.4-7.73,5.92-9.98,7.72-10.03,8.02-12.09,9.16-7.9,4.38-15.61,4.67-19.42,4.77-11.34.3-19.98-3.6-24.19-5.87l-6.94-4.85-.38-.27" fill="none" stroke="#231f20" stroke-miterlimit="10"/>
            <path d="M262.85,122.69c.08.03.17.07.26.1,1.21.48,2.88,1.1,4.87,1.74,0,0,4.59,1.46,8.42,2.19,8.35,1.6,19.69-2.69,24.19-4.39,6.52-2.47,12.53-4.75,18.68-10.26,5.07-4.55,8.68-9.91,9.16-10.63,3.17-4.75,3.36-6.63,6.6-10.62,2.52-3.12,4.45-4.5,8.79-8.07,3.32-2.71,8.13-6.77,13.93-12.09l2.35-3.03.21-.27" fill="none" stroke="#231f20" stroke-miterlimit="10"/>
            <path d="M329.53,130.02s.03-.04.04-.06c2.3-3.11,5.68-7.86,9.49-13.86,4.98-7.86,9.19-15.51,9.53-16.12,6.8-12.4,8-16.68,13.55-20.52,3.1-2.15,6.12-3.16,8.07-3.67l4.39-1.46" fill="none" stroke="#231f20" stroke-miterlimit="10"/>
            <path d="M374.6,97.04c0,4.86-4.1,8.8-9.16,8.8s-9.16-3.94-9.16-8.8,4.1-8.79,9.16-8.79,9.16,3.94,9.16,8.79Z" fill="none" stroke="#231f20" stroke-miterlimit="10"/>
            <path d="M328.07,217.78c0,4.95-4.84,8.97-10.81,8.97s-10.81-4.02-10.81-8.97,4.84-8.98,10.81-8.98,10.81,4.02,10.81,8.98Z" fill="none" stroke="#231f20" stroke-miterlimit="10"/>
            <path d="M314.14,163.36s.04.01.07.01c1.42.26,3.42.62,5.8,1.09,6.59,1.31,11.75,2.57,13.19,2.94,11.8,3,12.39,6.95,21.98,9.16,4.07.93,9.68.62,20.89,0,10.77-.6,14.37-1.59,21.62-.74,5.9.7,10.59,2.19,13.55,3.3l3.3,2.57.37,1.09" fill="none" stroke="#231f20" stroke-miterlimit="10"/>
          </g>
        </g>
        <g id="Layer_16" data-name="Layer 16">
          <ellipse cx="431.16" cy="44.69" rx="5.16" ry="5.42" transform="translate(51.7 254.23) rotate(-34.83)" fill="#f6881f" stroke="#231f20" stroke-miterlimit="10"/>
          <ellipse cx="438.36" cy="22.88" rx="4.88" ry="5.42" transform="translate(65.44 254.43) rotate(-34.83)" fill="#f6881f" stroke="#231f20" stroke-miterlimit="10"/>
          <ellipse cx="425.79" cy="54.93" rx="5.78" ry="6.64" transform="translate(44.89 253) rotate(-34.83)" fill="#ffd98c" stroke="#231f20" stroke-miterlimit="10"/>
          <ellipse cx="439.74" cy="36.16" rx="7.03" ry="9.21" transform="translate(58.11 257.6) rotate(-34.83)" fill="#ffd98c" stroke="#231f20" stroke-miterlimit="10"/>
          <ellipse cx="441.64" cy="11.84" rx="5.78" ry="6.64" transform="translate(72.34 254.33) rotate(-34.83)" fill="#ffd98c" stroke="#231f20" stroke-miterlimit="10"/>
          <path d="M407.05,48.09c.72,1.43,1.73,3.1,1.73,3.1,1.11,1.83,1.67,2.74,2.45,3.52,1.67,1.67,3.53,2.21,4.52,2.49,2.29.66,4.13.37,5.14.11,2.75-.72,4.28-2.6,5.18-3.71,2.39-2.92,4.28-5.22,5.77-7.02,3.91-4.74,6.5-10.66,7.38-17.28.06-.43.11-.85.14-1.24.54-5.76.15-10.07-.05-11.84-.49-4.31-.46-7.16-.96-8.45-.52-1.36-.81-2.2-2.07-3.79-.54-.68-1.06-1.06-1.6-1.45-2.54-1.83-5.15-1.97-6.65-2.03,0,0-1.37-.06-2.53.12-7.69,1.18-21.49,41.43-18.46,47.46Z" fill="#f6a11d" stroke="#231f20" stroke-miterlimit="10"/>
          <path d="M407.53,47.66c1.66,1.26,3.57.94,5.7.54,6.91-1.27,10.57-6.67,11.31-7.76,2.79-4.18,4.16-8.69,5.27-15.96.55-3.6.4-5.46.6-9.94.11-2.5-.3-3.74-.65-5.18-.26-1.04-1.64-5.25-3.59-6.62-1.57-1.1-3.27-.08-5.21.76-2.85,1.23-5.35,6.39-5.26,6.63.23.62.68.91,1.23,1.4,1.85,1.64,2.79,3.66,3.27,4.69.92,2,1.04,3.72,1.06,4.08.26,4.48-2.86,7.03-3.46,7.53-.69.57-2.71,2.23-5.31,1.95-.77-.08-2.11-.39-3.06-.64-.93-.25-1.71-.5-2.25-.69l-.82-.45c-.11.41-.28,1.02-.47,1.76-.58,2.27-.95,4-.98,4.17-.49,2.36-1.1,10.9,2.64,13.74Z" fill="#fbda81" stroke="#231f20" stroke-miterlimit="10"/>
          <ellipse cx="412.82" cy="20.57" rx="9.63" ry="12.65" transform="translate(62.19 239.44) rotate(-34.83)" fill="#ddd" stroke="#231f20" stroke-miterlimit="10"/>
          <polygon points="400.71 10.81 402.8 13.56 403.93 11.55 404.41 10.91 401.56 9.61 400.71 10.81" fill="#92826f" stroke="#231f20" stroke-miterlimit="10"/>
          <ellipse cx="399.35" cy="8.48" rx="2.22" ry="2.35" transform="translate(66.68 229.58) rotate(-34.83)" fill="#8f978c" stroke="#231f20" stroke-miterlimit="10"/>
          <ellipse cx="418.15" cy="52.05" rx="2.47" ry="2.77" transform="translate(45.17 248.12) rotate(-34.83)" fill="#ffeddf" stroke="#231f20" stroke-miterlimit="10"/>
          <ellipse cx="426.7" cy="45.01" rx="2.47" ry="2.77" transform="translate(50.72 251.74) rotate(-34.83)" fill="#ffeddf" stroke="#231f20" stroke-miterlimit="10"/>
          <ellipse cx="432.95" cy="35.47" rx="2.47" ry="2.77" transform="translate(57.29 253.6) rotate(-34.83)" fill="#ffeddf" stroke="#231f20" stroke-miterlimit="10"/>
          <ellipse cx="434.67" cy="21.85" rx="2.47" ry="2.77" transform="translate(65.37 252.14) rotate(-34.83)" fill="#ffeddf" stroke="#231f20" stroke-miterlimit="10"/>
          <ellipse cx="433.5" cy="9.41" rx="2.47" ry="2.77" transform="translate(72.27 249.25) rotate(-34.83)" fill="#ffeddf" stroke="#231f20" stroke-miterlimit="10"/>
        </g>
      </g>
    </g>
  </g>
</svg>