<?xml version="1.0" encoding="UTF-8"?>
<svg id="Layer_2" data-name="Layer 2" xmlns="http://www.w3.org/2000/svg" viewBox="0 0 409.96 435.47">
  <g id="outlines">
    <g id="Page_1" data-name="Page 1">
      <g id="Frame_5" data-name="Frame 5">
        <g id="floor">
          <g>
            <g>
              <polygon points="403.41 302.79 326.44 224.74 405.05 224.74 405.05 304.8 404.87 304.8 403.41 302.79" fill="#616262"/>
              <polygon points="78.03 224.74 6.58 316.9 6.49 316.9 6.86 224.74 78.03 224.74" fill="#616262"/>
              <polygon points="71.99 433.59 70.5 433.59 10.98 433.05 118.7 224.74 299.53 224.74 403.95 422.61 405.05 424.99 405.05 434.97 71.99 433.59" fill="#4a494a"/>
              <polygon points="118.7 224.74 10.98 433.05 70.5 433.59 6.03 433.32 6.49 316.9 6.58 316.9 78.03 224.74 118.7 224.74" fill="#3b3b3b"/>
              <polygon points="405.05 304.8 405.05 424.99 403.95 422.61 299.53 224.74 326.44 224.74 403.41 302.79 404.87 304.8 405.05 304.8" fill="#3b3b3b"/>
            </g>
            <g>
              <polygon points="6.49 316.9 6.86 224.74 78.03 224.74 118.7 224.74 299.53 224.74 326.44 224.74 405.05 224.74 405.05 304.8 405.05 424.99 405.05 434.97 71.99 433.59 70.5 433.59 6.03 433.32 6.49 316.9" fill="none" stroke="#231f20" stroke-miterlimit="10"/>
              <line x1="78.03" y1="224.74" x2="6.58" y2="316.9" fill="none" stroke="#231f20" stroke-miterlimit="10"/>
              <polyline points="325.36 223.64 326.44 224.74 403.41 302.79 404.87 304.8" fill="none" stroke="#231f20" stroke-miterlimit="10"/>
              <polyline points="299.53 224.74 403.95 422.61 405.05 424.99" fill="none" stroke="#231f20" stroke-miterlimit="10"/>
              <line x1="275.89" y1="319.28" x2="314" y2="434.51" fill="none" stroke="#231f20" stroke-miterlimit="10"/>
              <polyline points="124.57 314.15 71.99 433.59 71.99 433.6 70.5 433.59 10.98 433.05 118.7 224.74" fill="none" stroke="#231f20" stroke-miterlimit="10"/>
            </g>
          </g>
        </g>
        <g id="Planet">
          <path d="M408.91,102.36l-4.76,2.93c-1.03.44-2.55,1.09-4.4,1.83-21.46,8.64-39.01,11.29-54.96,13.56-31.42,4.47-47.13,6.71-58.99,7.69-20.64,1.71-72.71,5.13-137.4-1.83-26.54-2.86-43.15-6.16-57.53-9.89-3.27-.85-21.79-5.71-42.5-13.92-11.67-4.62-21.33-9.24-23.45-10.26-4.12-1.98-7.6-3.75-10.26-5.13l-10.26-6.96V.5h405.07l-.55,101.86Z" fill="#b6dcf4" stroke="#231f20" stroke-miterlimit="10"/>
          <polygon points="409.46 224.19 4.39 224.19 4.39 80.38 4.39 .5 409.46 .5 409.46 224.19" fill="#c4e8ee" opacity=".47" stroke="#231f20" stroke-miterlimit="10" stroke-width=".75"/>
          <path d="M235.23,2.7c-2.4,3.27-8.04,11.89-8.43,24.18-.1,3.22-.3,15.7,8.43,26.75,5.07,6.42,10.84,9.42,15.39,11.73,16.84,8.54,33.14,6.22,37.74,5.5,4.96-.78,15.42-2.54,26.02-10.26,9.53-6.94,14.28-15.14,16.49-19.05,2.1-3.71,5.57-9.98,6.96-19.05,1.27-8.28.24-15.17-.73-19.42" fill="#1972a8" stroke="#231f20" stroke-miterlimit="10"/>
          <g>
            <path d="M4.38,73.05V.87l194.93.37-8.06,6.23C123.11,58,63.2,72.33,15.74,72.69c-1.22.01-2.44.01-3.66,0l-7.7.36Z" fill="#2b92d0"/>
            <g>
              <path d="M4.38,73.05l7.7-.36c1.22.01,2.44.01,3.66,0,47.46-.36,107.37-14.69,175.51-65.22l8.06-6.23" fill="none" stroke="#231f20" stroke-miterlimit="10"/>
              <polyline points="198.23 1.64 199.31 1.24 4.38 .87 4.38 73.05 5.31 72.71" fill="none" stroke="#231f20" stroke-miterlimit="10"/>
            </g>
          </g>
          <g id="text">
            <path d="M1.09,127.07c.37,4.5.37,9.42.75,13.93l72.96-.42c3.66-.16,8.14-.2,13.09.14,4.19.29,6.85.47,9.35,1.27,3.64,1.16,5.1,3.03,4.86,4.5-.48,2.98-8.05,5.03-11.22,5.91-17.64,4.88-32.28,11.14-49.01,16.46-17.11,5.44-24.24,8.03-31.05,12.1-4.22,2.52-6.94,4.78-8.61,6.33-.32,1.74-1.25,7.54,1.12,11.68.44.76,1.16,1.78,3.37,2.67,3.4,1.38,8.22,1.63,10.48,1.69l128.7.98,1.12-17.58-86.43.42-11.97.28c-.15-.48-.28-1.3.37-2.25,0,0,.81-1.18,2.99-2.25,10-4.92,75.58-28.27,75.58-28.27,2.98-1.06,8.69-3.13,12.72-6.47,3.92-3.25,4.56-6.29,4.86-7.88.44-2.31.79-4.16-1.12-6.47-.76-.92-4-4.86-13.47-6.19-4.29-.6-8.54-.77-9.73-.7-10.76.63-48.99.71-114.86.28l-4.86-.14Z" fill="#fff" stroke="#231f20" stroke-miterlimit="10" stroke-width="2"/>
            <g>
              <path d="M391.32,134.88v69.37l-25,.33-.9-9.39c-66.7.99-117.49,1.72-124.12,1.53-1.57-.04-5.49-.16-8.34-1.2-1.81-.67-2.44-1.44-2.68-1.75-1.26-1.62-.52-4.13,4.17-6.01,2.34-.94,6.96-2.99,9.4-4.09.66-.29,1.34-.58,2.09-.85,3.34-1.2,20.62-10.19,31.37-14.39,10.64-4.16,25.25-12.1,54.47-27.96,3.63-1.98,12.56-6.85,29.17-10.6,1.92-.43,3.73-.8,5.34-1.11,1.6-.31,3.03-.55,4.19-.75,9.56-1.68,20.66.85,20.78,4.75l.05,2.13ZM368.92,145.32c.02-.66-2.19-.97-3.37-.47l-74.34,32.57c-1.75.78-.3,1.96,2.44,1.98,11.42.08,36.62-.46,68.56-.49,2.45,0,4.45-.72,4.51-1.61l2.2-31.97Z" fill="#fff"/>
              <g>
                <path d="M391.32,204.25v-69.37l-.05-2.13c-.12-3.9-11.21-6.43-20.78-4.75-1.16.19-2.59.44-4.19.75-1.61.31-3.42.68-5.34,1.11-16.6,3.74-25.54,8.62-29.17,10.6-29.22,15.87-43.84,23.8-54.47,27.96-10.75,4.2-28.03,13.2-31.37,14.39-.75.27-1.43.56-2.09.85-2.44,1.09-7.06,3.15-9.4,4.09-4.69,1.88-5.43,4.38-4.17,6.01.24.31.87,1.08,2.68,1.75,2.85,1.05,6.77,1.16,8.34,1.2,6.63.19,57.42-.54,124.12-1.53l.9,9.39,25-.33Z" fill="none" stroke="#231f20" stroke-miterlimit="10" stroke-width="2"/>
                <path d="M368.92,145.32l-2.2,31.97c-.05.89-2.06,1.61-4.51,1.61-31.94.04-57.15.58-68.56.49-2.74-.02-4.19-1.2-2.44-1.98l74.34-32.57c1.18-.5,3.39-.18,3.37.47Z" fill="none" stroke="#231f20" stroke-miterlimit="10" stroke-width="2"/>
              </g>
            </g>
            <path d="M97.8,226.31v-18.99h-14.59v8.86h-23.01v-9.5h-16.84v20.26h15.71v-8.23h24.69l.56,7.81s14.87.32,13.47-.21Z" fill="#fff" stroke="#231f20" stroke-miterlimit="10" stroke-width="2"/>
            <polygon points="274.59 207.11 279.82 207.11 279.45 212.74 274.59 213.02 274.59 207.11" fill="#fff" stroke="#231f20" stroke-miterlimit="10" stroke-width="2"/>
            <path d="M348.47,206.22l-39.34.17c-.88,0-1.58.28-1.54.62v.04s0,.02,0,.04l-.08,3c0,.33.71.6,1.59.59l22.16-.16h3.37c2.15,0,4.4.04,4.96.14.56.11,3.09.35,3.37.46s1.22.32,1.31.49c.09.18.56.53.65.63.09.11.56.74.56.84s-.37.98-.75,1.06c-.37.07-1.87.67-2.24.81-.37.14-2.15.46-2.43.56s-1.22.46-1.96.6c-.75.14-1.87.28-2.34.39-.47.11-1.87.28-2.24.32-.37.04-1.96.04-2.53.07-.56.04-2.15-.07-3.83.04-1.68.11-4.86.14-5.52.14h-3.65c-2.33,0-4.56.36-6.16.99h0c-1.93.76-3.03,1.77-3.07,2.82l-.19,5c-.01.32.65.58,1.5.59l6.64.1c.87.01,1.59-.24,1.62-.57l.24-3.13c.06-.78,1.06-1.51,2.72-1.97l.3-.08c1.26-.36,2.79-.56,4.37-.57l7.69-.08c2.01-.02,3.94.29,5.28.85l12.54,5.27c.32.13.78.2,1.25.19l6.99-.15c1.37-.03,1.98-.67.96-1.02l-17.53-6.05c-.34-.12-.52-.28-.5-.45h0c.03-.31.72-.56,1.55-.56.27,0,.55,0,.85-.01.8-.03,2.35-.12,5.52-.84,1.82-.42,3.64-.84,5.61-1.62,1.48-.59,2.27-1.07,3.74-1.97,1.5-.92,2.26-1.39,2.62-2.04.18-.32.56-1.04-.09-1.9-.59-.78-1.71-1.26-2.71-1.69-1.31-.56-3.52-1.07-5.37-1.42s-3.83-.52-5.86-.52Z" fill="#fff" stroke="#231f20" stroke-miterlimit="10" stroke-width="2"/>
          </g>
        </g>
        <g id="villlain">
          <g id="Layer_20" data-name="Layer 20">
            <path d="M151.14,106.58s-8.44,3.46-15.39,9.89c-4.94,4.57-7.51,9.11-10.44,14.29-4.19,7.39-7.15,19.79-7.15,19.79,0,0,2.68-1.82,7.69-4.95,4.23-2.64,11.99-7.48,19.79-5.5.9.23,6.92,1.76,8.79,6.6.42,1.08.53,2.07.55,2.75l-2.2,25.28h102.5c-.4-1.61-1.55-20.92,2.47-26.38l4.48-7.19c1.75-2.14,4.41-3.33,7.18-3.19,4.4.22,10.85.98,13.89,3.51,1.1.91,3.02,1.92,3.02,1.92,0,0-.37-3.3-1.37-6.32-3.43-10.3-1.92-11.24-4.4-15.94-1.34-2.53-3.74-7.07-8.52-9.34-7.66-3.64-18.96-2.2-18.96-2.2,0,0-1.26-2.13-3.3-7.15,0,0-2.59-6.36-7.42-14.29-3.17-5.2-6.72-11.03-13.47-16.21-2.44-1.87-8.14-6.15-16.76-7.97-7.93-1.67-14.25-.4-18.96.55-3.73.75-8.78,1.77-14.29,4.95-7,4.04-10.84,9.32-14.56,14.56-8.79,12.38-13.19,22.53-13.19,22.53Z" fill="#d2d2d2" stroke="#231f20" stroke-miterlimit="10"/>
            <path d="M152.78,174.73c-2.66,4.57-5.96,10.59-9.34,17.86-.46.99-7.25,15.68-11.54,30.5-8.09,27.96-7.38,56.73-6.87,67.33l-2.47,136.31h160.67c-.47-7.31-1.26-18.28-2.56-31.6-2.73-27.77-4.49-33.05-5.13-48.37-.48-11.54.53-23.36,2.56-46.53,3.36-38.28,6.32-35.4,5.5-53.5-1.47-32.24-5.08-45.44-10.99-51.3-3.41-3.38-14.94-19.34-17.31-20.7h-102.5Z" fill="#4f459c" stroke="#231f20" stroke-miterlimit="10"/>
          </g>
        </g>
      </g>
    </g>
  </g>
</svg>