<?xml version="1.0" encoding="UTF-8"?>
<svg id="Layer_2" data-name="Layer 2" xmlns="http://www.w3.org/2000/svg" viewBox="0 0 438.5 284.26">
  <g id="outlines">
    <g id="Page_2" data-name="Page 2">
      <g id="Frame_6" data-name="Frame 6">
        <g id="planet">
          <g>
            <g>
              <path d="M437.51,112.71l.48,71.95-8.24-.78c-125.8,12.93-159.11,9.55-160.76,2.34-.28-1.2.64-4.94,2.47-12.42.67-2.74,1.35-5.29,2.01-7.6l.37.09c1.18,1.11,1.56,1.55,4.21,2.06,4.68.9,8.85-1.72,9.9-2.33,11.69-6.74,47.39-.04,83.26-4.66,6.8-.87,16.82-2.56,28.86-6.2l5.77-1.55c12.37-5.43,31.33-20.19,31.33-20.19l.34-20.71Z" fill="#2a62ae"/>
              <path d="M437.32,83.54l.19,29.17-.34,20.71s-18.96,14.75-31.33,20.19l-5.77,1.55c-12.04,3.64-22.06,5.34-28.86,6.2-35.87,4.62-71.57-2.08-83.26,4.66-1.05.6-5.22,3.23-9.9,2.33-2.65-.51-3.03-.95-4.21-2.06l-.37-.09c1.79-6.31,3.36-10.71,3.76-11.82,3.62-9.8,17.94-35.23,46.99-56.66,16.79-12.38,47.95-23.36,64.71-28.6,4.16,1.23,39.94,11.82,48.39,14.42Z" fill="#6b83c1"/>
              <path d="M437.17,61.24l.15,22.31c-8.45-2.61-44.23-13.19-48.39-14.42,5.99-1.86,10.14-3,11.14-3.22,15.04-3.17,27.92-4.27,37.1-4.66Z" fill="#779dd2"/>
            </g>
            <g>
              <path d="M437.32,83.54l-.15-22.31c-9.18.39-22.06,1.49-37.1,4.66-1,.22-5.15,1.36-11.14,3.22-16.76,5.24-47.92,16.22-64.71,28.6-29.05,21.43-43.37,46.86-46.99,56.66-.4,1.1-1.97,5.51-3.76,11.82-.66,2.31-1.34,4.86-2.01,7.6-1.83,7.48-2.75,11.22-2.47,12.42,1.65,7.21,34.96,10.59,160.76-2.34l8.24.78-.48-71.95-.19-29.17Z" fill="none" stroke="#231f20" stroke-miterlimit="10"/>
              <path d="M273.84,166.29c1.18,1.11,1.56,1.55,4.21,2.06,4.68.9,8.85-1.72,9.9-2.33,11.69-6.74,47.39-.04,83.26-4.66,6.8-.87,16.82-2.56,28.86-6.2l5.77-1.55c12.37-5.43,31.33-20.19,31.33-20.19l.34-20.71.48-28.96c-.2-.07-.42-.13-.67-.21-8.45-2.61-44.23-13.19-48.39-14.42-.26-.08-.4-.11-.4-.11" fill="none" stroke="#231f20" stroke-miterlimit="10"/>
            </g>
          </g>
        </g>
        <g id="wallthing_" data-name="wallthing?">
          <rect x=".5" y="181.3" width="437.5" height="101.94" fill="#f79420" stroke="#231f20" stroke-miterlimit="10"/>
          <rect x=".5" y="194.75" width="10.99" height="89.01" fill="#f6ab61" stroke="#231f20" stroke-miterlimit="10"/>
          <rect x="28.53" y="195.27" width="46.72" height="87.97" fill="#f6ab61" stroke="#231f20" stroke-miterlimit="10"/>
          <rect x="113.72" y="195.27" width="46.72" height="87.97" fill="#f6ab61" stroke="#231f20" stroke-miterlimit="10"/>
          <rect x="198.91" y="195.27" width="46.72" height="86.42" fill="#f6ab61" stroke="#231f20" stroke-miterlimit="10"/>
          <rect x="284.1" y="195.27" width="46.72" height="87.97" fill="#f6ab61" stroke="#231f20" stroke-miterlimit="10"/>
          <rect x="369.29" y="195.27" width="46.72" height="87.97" fill="#f6ab61" stroke="#231f20" stroke-miterlimit="10"/>
        </g>
        <g id="Corporate">
          <g id="Layer_74" data-name="Layer 74">
            <path d="M381.87,4.88c-.87-.94-2.75-2.66-5.86-3.62-1.25-.38-6.63-1.85-10.97.73-2.42,1.44-3.38,3.46-4.1,5.02-2.46,5.37-.73,10.4.21,12.57l20.72-14.7Z" fill="#a4a1a1" stroke="#231f20" stroke-miterlimit="10"/>
            <polygon points="405.43 17.59 411.73 24.74 374.47 45.62 368.03 38.64 405.43 17.59" fill="#a4a1a1" stroke="#231f20" stroke-miterlimit="10"/>
            <polygon points="381.87 4.88 397.65 21.74 374.7 35 361.15 19.58 381.87 4.88" fill="#706d6d" stroke="#231f20" stroke-miterlimit="10"/>
            <polygon points="403.05 29.51 405.47 34.1 383.18 47.23 379.59 42.87 403.05 29.51" fill="#4c4b4c" stroke="#231f20" stroke-miterlimit="10"/>
            <path d="M409.63,31.66l-27.86,16.26c.08.29.24.74.61,1.18.72.88,1.81,1.24,2.77,1.48,4.99,1.25,8.39.94,8.39.94,2.12-.19,10.33-.95,14.79-7,4.37-5.92,1.63-12.14,1.29-12.87" fill="#848484" stroke="#231f20" stroke-miterlimit="10"/>
            <ellipse cx="367.12" cy="43.9" rx="3.23" ry="2.42" transform="translate(-2.22 60.95) rotate(-9.46)" fill="#b7b7b7" stroke="#231f20" stroke-miterlimit="10"/>
            <ellipse cx="411.56" cy="18.54" rx="3.23" ry="2.42" transform="translate(2.55 67.91) rotate(-9.46)" fill="#b7b7b7" stroke="#231f20" stroke-miterlimit="10"/>
            <polygon points="393.07 20.81 386.89 24.81 376.18 12.78 382.36 8.77 393.07 20.81" fill="#dcdbdb" stroke="#231f20" stroke-miterlimit="10"/>
            <polygon points="381.71 27.56 375.52 31.57 364.81 19.53 371 15.53 381.71 27.56" fill="#dcdbdb" stroke="#231f20" stroke-miterlimit="10"/>
            <line x1="381.55" y1="9.29" x2="392.31" y2="21.21" fill="#dcdbdb" stroke="#231f20" stroke-miterlimit="10"/>
            <line x1="380.51" y1="10.08" x2="391.27" y2="22" fill="#dcdbdb" stroke="#231f20" stroke-miterlimit="10"/>
            <line x1="379.22" y1="10.91" x2="389.98" y2="22.83" fill="#dcdbdb" stroke="#231f20" stroke-miterlimit="10"/>
            <line x1="377.93" y1="11.75" x2="388.69" y2="23.67" fill="#dcdbdb" stroke="#231f20" stroke-miterlimit="10"/>
            <line x1="376.63" y1="12.59" x2="387.4" y2="24.5" fill="#dcdbdb" stroke="#231f20" stroke-miterlimit="10"/>
            <line x1="369.94" y1="16.09" x2="380.7" y2="28.01" fill="#dcdbdb" stroke="#231f20" stroke-miterlimit="10"/>
            <line x1="368.88" y1="16.81" x2="379.64" y2="28.73" fill="#dcdbdb" stroke="#231f20" stroke-miterlimit="10"/>
            <line x1="367.67" y1="17.63" x2="378.43" y2="29.55" fill="#dcdbdb" stroke="#231f20" stroke-miterlimit="10"/>
            <line x1="366.46" y1="18.45" x2="377.23" y2="30.37" fill="#dcdbdb" stroke="#231f20" stroke-miterlimit="10"/>
            <line x1="365.25" y1="19.27" x2="376.02" y2="31.19" fill="#dcdbdb" stroke="#231f20" stroke-miterlimit="10"/>
          </g>
          <g id="CORPORATE-_TEXT" data-name="CORPORATE- TEXT">
            <path d="M377.52,35.95l-2.24,1.28c-.12.07-.16.2-.1.31l2.44,3.84c.06.1.21.13.33.06l2.28-1.26" fill="none" stroke="#010101" stroke-linejoin="round" stroke-width=".75"/>
            <path d="M378.33,35.58l2.47,3.88c.07.1.22.13.33.06l1.47-.83c.12-.07.16-.21.1-.31l-2.47-3.88c-.07-.1-.22-.13-.33-.06l-1.47.83c-.12.07-.16.21-.1.31Z" fill="none" stroke="#010101" stroke-linejoin="round" stroke-width=".75"/>
            <path d="M388.17,29.74l2.47,3.88c.07.1.22.13.33.06l1.47-.83c.12-.07.16-.21.1-.31l-2.47-3.88c-.07-.1-.22-.13-.33-.06l-1.47.83c-.12.07-.16.21-.1.31Z" fill="none" stroke="#010101" stroke-linejoin="round" stroke-width=".75"/>
            <path d="M384.26,37.7l-2.56-4.02c-.07-.1-.02-.24.1-.31l1.4-.77c.12-.07.27-.04.33.06l.8,1.22c.07.1.02.25-.1.31l-1.56.84c-.17.09,3.45,1.68,3.45,1.68" fill="none" stroke="#010101" stroke-linejoin="round" stroke-width=".75"/>
            <path d="M394.23,31.9l-2.56-4.02c-.07-.1-.02-.24.1-.31l1.4-.77c.12-.07.27-.04.33.06l.8,1.22c.07.1.02.25-.1.31l-1.54.83c-.45.14,3.43,1.69,3.43,1.69" fill="none" stroke="#010101" stroke-linejoin="round" stroke-width=".75"/>
            <path d="M387.42,35.76l-2.6-4.02c-.07-.1-.02-.24.1-.31l1.45-.82c.12-.07.27-.04.33.06l.8,1.23c.07.1.02.25-.1.31l-1.72.91" fill="none" stroke="#010101" stroke-linejoin="round" stroke-width=".75"/>
            <path d="M397.23,30.18l-1.97-4.38c-.05-.1,0-.22.11-.28l.86-.48c.11-.06.25-.04.32.04l3.14,3.74" fill="none" stroke="#010101" stroke-linejoin="round" stroke-width=".75"/>
            <line x1="395.95" y1="27.32" x2="397.62" y2="26.41" fill="none" stroke="#010101" stroke-linejoin="round" stroke-width=".75"/>
            <line x1="397.4" y1="24.6" x2="399.89" y2="23.22" fill="none" stroke="#010101" stroke-linejoin="round" stroke-width=".75"/>
            <line x1="398.58" y1="23.93" x2="401.19" y2="28.2" fill="none" stroke="#010101" stroke-linejoin="round" stroke-width=".75"/>
            <path d="M402.46,21.71l-1.61.91c-.12.07-.16.21-.1.31l2.45,3.85c.07.1.22.13.33.06l1.57-.89" fill="none" stroke="#010101" stroke-linejoin="round" stroke-width=".75"/>
            <line x1="401.66" y1="24.3" x2="402.82" y2="23.64" fill="none" stroke="#010101" stroke-linejoin="round" stroke-width=".75"/>
          </g>
        </g>
        <g id="Person">
          <path d="M85.11,170.95c.59,1.65,1.97,4.55,1.95,6.6-.1,7.79.31,4.99-.96,9.09l-3.11,1.78-29.59,19.79" fill="#f3ae62" stroke="#231f20" stroke-miterlimit="10"/>
          <path d="M92.88,90.6s-.51-.44-.73-2.02c-.06-.43-.04-.85.02-1.22.16-.96,1.38-.34,2.41-.24h0c.43.04,3.82,1.77,3.82,1.77.1.08.18.18.26.28l5.94,7.67c.11.15.21.31.27.48l2.15,5.11" fill="#905f26" stroke="#231f20" stroke-miterlimit="10" stroke-width=".5"/>
          <path d="M86.97,121.61l2.19,1.64s1.44,2.22,1.79,2.9,1.41,6.89,1.41,6.89l2.04,9.03,2.6,11.14.44,1.88s-.3-5.49-.27-5.87,1.6-6.61,1.6-6.61l.99-8.87s1.13-14.71,1.17-15.09.57-10.34.57-10.34l.12-3.76-7.59-9.56-1.09-.99c-.7-.63-1.02-1.54-.87-2.44h0c.11-.64.72-1.08,1.4-1.02l1.66.6,2.82,3.22,6.73,6.08c.16.2,2.34,1.98,2.34,1.98l.75,5.18.04,12.61.95,30.5-1.25,10.15s.71-1.62-.25,1.15-4.56,7.23-4.56,7.23l-4.73,4.75c-2.01.85-3.87.02-3.87.02l-2.82-1.86c-.11-.07-.22-.16-.32-.24l-9.18-7.65,5.18-42.65Z" fill="#905f26" stroke="#231f20" stroke-miterlimit="10" stroke-width=".5"/>
          <path d="M101.37,112.46l-4.1-9.1-2.2-3.74s-.76-.92-1.12-1.47,1.1-1.89,1.1-1.89l6.56,8.29-.24,7.9Z" fill="#905f26" stroke="#231f20" stroke-miterlimit="10" stroke-width=".5"/>
          <path d="M95.96,87.21c.93-.08,2.32-.14,2.9.02.76.21,1.54.61,1.97,1.49.63,1.27,3.25,6.9,3.25,6.9l-6.33-6.93-1.79-1.47Z" fill="#905f26" stroke="#231f20" stroke-miterlimit="10" stroke-width=".5"/>
          <path d="M91.9,55.54c.81.8,1.83,1.93,2.85,3.39.34.49,1.48,2.17,2.58,4.79.57,1.37,1.93,4.94,2.37,9.84.47,5.19-.3,9.67-1.24,13.01l-.13.38-2.88.25-1.97-.54-.84.09-.6.46-.17.81.15,1.36.32,1.42-.43.61.09,1.91,1.48,1.4,1.37,1.56-.59.38-.47,1.04s-.21.24-.13.38c.08.14,1.02,1.35,1.02,1.35l1.67,2.76c-.04.18-.11.42-.21.72-.22.68-.45,1.21-.55,1.42-.65,1.38-1.92,2.45-2.94,3.31-.25.21-.79.65-1.6.89-.25.07-.37.11-.47.09-.75-.16-.87-2.16-1.09-4.48-.14-1.49-.36-2.97-.49-4.47-.18-1.98-.84-4.2-2.16-8.65-1.49-5-2.25-7.52-3.24-8.45-.2-.19-.89-.8-1.08-1.75-.15-.78.11-1.42.26-1.79,1.09-2.58,1.63-3.86,3.09-5.38,1.43-1.48,1.92-1.31,4.45-3.73,1.09-1.04.93-1.04,1.2-1.92.13-.44.61-1.94.75-4.52.15-2.73.41-4.86-.29-6.61l-.1-1.31Z" fill="#905f26" stroke="#231f20" stroke-miterlimit="10" stroke-width=".5"/>
          <g>
            <g>
              <path d="M92.02,282.6l-7.85-.02v-.09s.85-8.89.85-8.89c.13-.11.23-.29.31-.5,1.15-1.83,5.15-8.08,6.51-8.72l.47.03c.08,5.38.03,11.48-.28,18.19Z" fill="#4db748"/>
              <path d="M92.3,264.41l-.47-.03c-1.36.65-5.36,6.89-6.51,8.72.51-1.32.24-4.21.06-4.79-.21-.67-.8-3.2-.8-3.2l-.09-.08,7.6-8.34c.1,2.36.18,4.94.22,7.71Z" fill="#187139"/>
              <path d="M51.27,275.71h-1.05s.21-4.46.21-4.46l.7.16,21.78.26,18.85-21.08c.12,1.84.23,3.87.32,6.1l-7.6,8.34-9.75,10.7h-2.17s0,0-.02,0c-.14-.05-.27-.08-.42-.12l-.16.12h-8.57s-12.12-.04-12.12-.04Z" fill="#8cc787"/>
              <path d="M91.76,250.6l-18.85,21.08-21.78-.26-.7-.16,2.97-63.04,32.9-21.81c-1,5.23,4.62,50.64,5.46,64.19Z" fill="#f9ed30"/>
              <path d="M85.38,268.32c.19.58.45,3.47-.06,4.79-.19.31-.31.5-.31.5-.9.82-6.88,5.59-8.22,5.19-1.26-.36-2.12-2.41-4.23-3.05h2.17s9.75-10.7,9.75-10.7l.09.08s.59,2.53.8,3.2Z" fill="#49b749"/>
              <path d="M84.16,282.49v.09s-23.73-.08-23.73-.08v-.06s5.66-.11,5.66-.11c.39-.87,1-1.78,1.67-2.6.62.3,1.16.5,1.43.56,1.08.24,10.41.86,11.37.82.97-.03,3.59,1.38,3.59,1.38Z" fill="#49b749"/>
              <path d="M85.01,273.61l-.85,8.89s-2.63-1.41-3.59-1.38c-.97.04-10.29-.59-11.37-.82-.28-.06-.81-.27-1.43-.56,1.41-1.77,3.03-3.18,3.03-3.18l1.17-.8h.58s.01,0,.02,0c2.11.65,2.97,2.7,4.23,3.05,1.34.39,7.32-4.37,8.22-5.19Z" fill="#187139"/>
              <path d="M71.96,275.75l-1.17.8s-1.61,1.42-3.03,3.18c-1.83-.86-4.49-2.52-4.37-3.77v-.23s8.57.01,8.57.01Z" fill="#49b749"/>
              <path d="M67.76,279.73c-.66.83-1.27,1.73-1.67,2.6l-5.67.11s-.79-3.33-1.68-4.06c-.9-.74-5.4-1.3-6.31-1.91-.54-.35-.94-.61-1.17-.76l12.12.02v.23c-.12,1.25,2.54,2.9,4.37,3.77Z" fill="#187139"/>
              <path d="M60.43,282.44v.06s-10.63-.03-10.63-.03l.37-5.68.05-1.07h1.05c.24.15.63.41,1.17.76.91.61,5.4,1.17,6.31,1.91.89.73,1.68,4.06,1.68,4.06Z" fill="#4db748"/>
              <path d="M39.88,282.76h-1.93s-2.67-.5-2.67-.5c-.21-.61-.63-1.26-1.1-1.86,2.04-.78,6.14-2.86,6.21-3.64v-.27s7.2.05,7.2.05l.83-.05h.05s-.37,6.34-.37,6.34l-8.23-.07Z" fill="#187139"/>
              <polygon points="23.07 270.17 17.64 266.65 18.74 258.2 34.64 270.61 47.94 270.07 48.65 269.88 48.87 269.89 48.48 276.49 48.43 276.48 47.6 276.53 40.4 276.48 32.71 276.42 23.07 270.17" fill="#8cc787"/>
              <polygon points="54.76 169.88 48.87 269.89 48.65 269.88 47.94 270.07 34.64 270.61 18.74 258.2 26.52 198.63 54.76 169.88" fill="#f9ed30"/>
              <path d="M40.4,276.48v.27c-.07.79-4.17,2.86-6.21,3.64-.84-1.12-1.8-2.04-1.8-2.04l-.92-.69c-1.97-.04-2.95,1.16-4.04,1.2-1.1.05-5.14-3.43-5.74-4.02,0,0,0-.02-.03-.06-.03-.05-.07-.13-.13-.24-.25-.81.34-2.45.56-2.76.22-.3.82-1.34.99-1.63l9.64,6.25,7.69.06Z" fill="#49b749"/>
              <path d="M37.95,282.74l-22.4-.17,1.81-13.87.21.03c.97.55,3.31,4.68,3.94,5.82.02.09.05.17.13.24.03.04.03.06.03.06l-1.77,6.96s3.51-2.28,4.26-2.13,8.1,1,8.97,1.01c.17,0,.54-.11,1.04-.3.46.6.88,1.26,1.1,1.86l2.67.48Z" fill="#4db748"/>
              <path d="M32.38,278.36s.97.92,1.8,2.04c-.5.19-.87.3-1.04.3-.87,0-8.23-.86-8.97-1.01s-4.26,2.13-4.26,2.13l1.77-6.96c.61.59,4.64,4.07,5.74,4.02,1.09-.05,2.08-1.24,4.04-1.2l.92.69Z" fill="#187139"/>
              <path d="M17.64,266.65l5.43,3.52c-.17.29-.77,1.33-.99,1.63-.22.31-.82,1.95-.56,2.76-.63-1.15-2.97-5.28-3.94-5.82l-.21-.03.28-2.05Z" fill="#187139"/>
            </g>
            <g>
              <polygon points="48.87 269.89 54.76 169.88 26.52 198.63 18.74 258.2 17.64 266.65 17.36 268.7 15.56 282.57 37.95 282.74 39.88 282.76 48.11 282.82 48.48 276.49 48.87 269.89" fill="none" stroke="#231f20" stroke-miterlimit="10"/>
              <path d="M50.22,275.72l-.05,1.07-.37,5.68,10.64.03,23.73.08,7.85.02c.31-6.71.36-12.81.28-18.19-.04-2.77-.12-5.35-.22-7.71-.09-2.23-.21-4.27-.32-6.1-.84-13.56-6.46-58.97-5.46-64.19l-32.9,21.81-2.97,63.04-.21,4.46Z" fill="none" stroke="#231f20" stroke-miterlimit="10"/>
              <polyline points="91.76 250.6 72.91 271.68 51.13 271.41 50.43 271.25 50.18 271.19" fill="none" stroke="#231f20" stroke-miterlimit="10"/>
              <polyline points="18.71 258.18 18.74 258.2 34.64 270.61 47.94 270.07 48.65 269.88" fill="none" stroke="#231f20" stroke-miterlimit="10"/>
              <polyline points="17.63 266.65 17.64 266.65 23.07 270.17 32.71 276.42 40.4 276.48 47.6 276.53 48.43 276.48" fill="none" stroke="#231f20" stroke-miterlimit="10"/>
              <polyline points="72.56 275.75 74.73 275.75 84.48 265.05 92.08 256.7 92.16 256.61" fill="none" stroke="#231f20" stroke-miterlimit="10"/>
              <polyline points="49.89 275.71 50.22 275.72 51.27 275.71 63.39 275.73 71.96 275.75 72.54 275.75" fill="none" stroke="#231f20" stroke-miterlimit="10"/>
              <path d="M51.01,275.56s.09.06.26.15c.24.15.63.41,1.17.76.91.61,5.4,1.17,6.31,1.91.89.73,1.68,4.06,1.68,4.06l5.67-.11c.39-.87,1-1.78,1.67-2.6,1.41-1.77,3.03-3.18,3.03-3.18l1.17-.8.16-.12c.15.03.29.07.42.12t.02,0c2.11.65,2.97,2.7,4.23,3.05,1.34.39,7.32-4.37,8.22-5.19.13-.11.23-.29.31-.5.51-1.32.24-4.21.06-4.79-.21-.67-.8-3.2-.8-3.2" fill="none" stroke="#231f20" stroke-miterlimit="10"/>
              <path d="M91.83,264.39c-1.36.65-5.36,6.89-6.51,8.72-.19.31-.31.5-.31.5l-.85,8.89s-2.63-1.41-3.59-1.38c-.97.04-10.29-.59-11.37-.82-.28-.06-.81-.27-1.43-.56-1.83-.86-4.49-2.52-4.37-3.77" fill="none" stroke="#231f20" stroke-miterlimit="10"/>
              <path d="M21.64,274.79c-.07-.07-.11-.15-.13-.24-.25-.81.34-2.45.56-2.76.22-.3.82-1.34.99-1.63.04-.05.05-.08.05-.08" fill="none" stroke="#231f20" stroke-miterlimit="10"/>
              <path d="M47.92,280.38s-.44.11-1.23.34-4.37-.04-5.16.25c-.59.23-1.33,1.27-1.66,1.79-.12.19-.19.3-.19.3l-1.74-.32-2.67-.48c-.21-.61-.63-1.26-1.1-1.86-.84-1.12-1.8-2.04-1.8-2.04l-.92-.69c-1.97-.04-2.95,1.16-4.04,1.2-1.1.05-5.14-3.43-5.74-4.02" fill="none" stroke="#231f20" stroke-miterlimit="10"/>
              <path d="M17.57,268.73c.97.55,3.31,4.68,3.94,5.82.06.11.1.19.13.24.03.04.03.06.03.06l-1.77,6.96s3.51-2.28,4.26-2.13,8.1,1,8.97,1.01c.17,0,.54-.11,1.04-.3,2.04-.78,6.14-2.86,6.21-3.64" fill="none" stroke="#231f20" stroke-miterlimit="10"/>
            </g>
          </g>
          <path d="M99.3,71.64c-.33-.15-.8-.36-1.39-.59-1.2-.49-1.43-.52-1.61-.52-.87-.03-1.52.52-1.84.79-1.09.92-1.18,2.16-1.21,2.61-.04.5-.08,1.1.32,1.74.4.65,1.02.98,1.44,1.2.87.46,1.67.56,2.4.64.57.07,1.41.12,2.41,0l.02-1.29-.53-4.58Z" fill="#fff" opacity=".96" stroke="#231f20" stroke-miterlimit="10" stroke-width=".5"/>
          <g>
            <g>
              <path d="M91.56,110.23c-.07,1.73-.3,2.56-1.69,7.98-2.02,7.89-3.03,11.85-3.1,12.26-1.27,7.31-.82,13.66-.55,17.28.19,2.46.26,1.93.42,4.2,0,.04,0,.09,0,.12l-.85.05c-.39-4.77-2.95-8.6-5.76-12.86-2.5-3.75-3.14-3.65-3.71-5.55-.33-1.09-.92-3.8,2.82-12.21,3.11-6.96,4.67-7.72,5.81-12.62.55-2.35,1.13-4.86.59-8.09-.6-3.58-2-4.69-3.15-7.94-.21-.6-.42-1.28-.61-2.05-.01-.08-.03-.16-.06-.24-.56-2.44-1.14-4.92-.34-8.01.06-.2.25-.9.61-1.79,0,0,.09-.23.28-.6-.01.32.04.75.24,1.2.59,1.28,2.01,1.65,2.84,2.09,1.3.7,2,2.05,3.45,9.08.56,2.7.91,4.77,1.21,6.53,1.52,8.82,1.56,9.97,1.52,11.15Z" fill="#fff"/>
              <path d="M86.66,152.08c.44,5.8.9,12.33-1.54,18.87-.01.04-1.68,3.1-5.03,9.22-3.11,5.7-4.14,7.61-4.03,10.44.05,1.32.76,3.25,2.18,7.06,1.98,5.3,2.66,6.42,3.19,8.01,1.44,4.32-.7,10.49-5.02,22.66-2.65,7.49-3.38,8.49-3.31,11.47.1,3.78,1.35,5.97,1.42,11.22.03,3.06-.36,5.56-.69,7.22l-12.3,7.31c.3-2.57.58-6.41.32-11.05-.57-10.2-3.07-11.82-1.71-16.8,1.36-4.97,4.12-4.34,9.79-13.79,2.42-4.04,3.63-6.06,4.37-9.12,1.4-5.79.12-10.81-1.38-16.42-2.19-8.2-3.92-8.03-3.81-12.15.16-5.64,3.52-10.13,6.72-14.43,3.77-5.06,5.63-5.37,7.74-9.83.97-2.02,2.59-5.44,2.24-9.84l.85-.05Z" fill="#fff"/>
              <path d="M85.81,152.13c.35,4.4-1.27,7.82-2.24,9.84-2.11,4.45-3.97,4.77-7.74,9.83-3.2,4.3-6.57,8.79-6.72,14.43-.11,4.12,1.62,3.95,3.81,12.15,1.49,5.61,2.77,10.63,1.38,16.42-.73,3.06-1.95,5.07-4.37,9.12-5.66,9.45-8.43,8.82-9.79,13.79-1.36,4.98,1.14,6.6,1.71,16.8.26,4.64-.03,8.48-.32,11.05l-6.09-.67c-.02-.5-.05-1.26-.07-2.17-.1-3.93,0-5.57,0-7.62-.04-4.24-.57-3.92-.78-9.17-.1-2.41-.06-4.14.01-6.84.1-4.16.16-6.27.57-7.92.62-2.45,1.43-3.3,3.52-6.95,0,0,4.17-7.26,8.15-18.8.28-.82.46-1.58.84-3.13.62-2.49.71-3.49.43-4.55-.24-.94-.67-1.57-.83-1.81-1.5-2.29-4.63-10.18-4.16-16.17.16-2.1,2.59-6.21,7.45-14.45,2.46-4.14,3.78-6.04,4.69-9.6,1.23-4.8.65-8.46.51-9.22-.66-3.85-1.83-3.8-2.93-7.82-.97-3.54-.74-6.88-.27-13.54.32-4.57.81-7.99.93-8.84,1.29-8.8,2.35-9.04,3.24-15.63.61-4.52,1.28-9.43.77-15.79-.24-3.12-.75-6.22.69-10.06.96-2.58,1.61-2.31,2.99-5.35,1.73-3.79,1.92-6.84,2.25-12,.3-4.72-.22-5.83-.76-6.57-.62-.84-1.51-1.52-2.72-3.29-.68-1-.87-1.31-1.15-1.91.05,0,.1,0,.14,0,.53-.02.97-.03,1.71.42.9.55,1.48,1.09,1.8,1.38,2.95,2.77,4.19,6.29,4.19,6.29.5,1.43.58,3.23.72,6.83.21,4.95-.26,7.01-.92,8.66-.32.81-.66,1.46-.91,1.9l-1.01,2.17c-.85,1.11-1.41,1.9-1.97,2.91-1.22,2.26-1.74,4.22-1.96,5.18-.38,1.69-.5,3.22-.49,4.52,0,.74.16,1.46.43,2.16l1.83,4.75h.05c1.15,3.24,2.55,4.35,3.15,7.93.54,3.23-.05,5.74-.59,8.09-1.13,4.9-2.7,5.66-5.81,12.62-3.75,8.41-3.15,11.12-2.82,12.21.57,1.9,1.2,1.8,3.71,5.55,2.82,4.25,5.38,8.09,5.76,12.86Z" fill="#fff"/>
              <path d="M82.29,80.18c-.19.37-.28.6-.28.6-.37.88-.55,1.58-.61,1.79-.8,3.08-.22,5.57.34,8.01.02.08.04.17.06.24.19.77.39,1.46.61,2.05h-.05s-1.83-4.74-1.83-4.74c-.26-.7-.43-1.42-.43-2.16,0-1.3.11-2.83.49-4.52.22-.96.74-2.93,1.96-5.18.56-1.02,1.12-1.8,1.97-2.91.3-.39.63-.82,1.02-1.3,3.04-3.87,3.39-3.57,4.37-5.3,1.17-2.08,1.48-3.9,1.91-6.58.51-3.16.77-4.74.25-6.56-.86-3.07-3.09-4.93-5.24-6.74-1.7-1.43-2.79-1.86-3.67-2.08-1.11-.27-3.31.41-4.24.64-.28.07-.44.1-.41.05,0-.02.01-.04.06-.07,1.14-.87,3.15-1.6,3.96-1.72,5.59-.82,10.24,4.79,10.55,5.17,5.09,6.3,2.67,15.31.21,19.08-1.76,2.7-4.34,4.96-4.34,4.96-1.2,1.05-1.63,1.23-2.33,1.76,0,0-.31.24-.66.55-1.93,1.72-3.17,3.93-3.68,4.97Z" fill="#fff"/>
              <path d="M92.08,53.61c.52,1.82.26,3.4-.25,6.56-.44,2.68-.74,4.5-1.91,6.58-.99,1.72-1.33,1.42-4.37,5.3-.39.48-.72.91-1.02,1.3l1.01-2.17c.25-.44.6-1.09.91-1.9.66-1.65,1.13-3.71.92-8.66-.15-3.6-.23-5.4-.72-6.83,0,0-1.24-3.52-4.19-6.29-.31-.29-.89-.83-1.8-1.38-.74-.45-1.17-.43-1.71-.42l-.02-.26c.93-.23,3.13-.91,4.24-.64.88.22,1.97.65,3.67,2.08,2.16,1.81,4.38,3.67,5.24,6.74Z" fill="#fff"/>
              <path d="M75.76,146.49c.14.76.72,4.42-.51,9.22-.91,3.55-2.24,5.45-4.69,9.6-4.86,8.24-7.29,12.35-7.45,14.45-.47,6,2.66,13.88,4.16,16.17.16.24.59.87.83,1.81.28,1.06.19,2.05-.43,4.55-.38,1.54-.56,2.31-.84,3.13-3.98,11.54-8.15,18.8-8.15,18.8-2.09,3.65-2.9,4.5-3.52,6.95-.41,1.64-.47,3.76-.57,7.92-.07,2.7-.11,4.43-.01,6.84.21,5.25.74,4.93.78,9.17.01,2.05-.09,3.69,0,7.62.02.91.05,1.67.07,2.17l-3.2-.22c-.59-2.64-1.39-6.43-2.26-11.05-1.22-6.56-1.84-9.9-1.83-12.65,0-3.54.52-8.73,2.84-14.37,1.36-3.28,1.63-2.61,3.38-6.43,1.67-3.65,4.58-10.15,4-17.82-.29-4.07-1.19-3.23-1.66-7.7-.78-7.45,1.31-13.42,2.65-17.07,1.4-3.86,1.58-2.89,5.51-11.43,2.97-6.47,4.46-9.76,4.81-12.8.31-2.73.28-7.34-2.51-13.24-.57-2.29-1.16-5.51-1.21-9.38-.04-2.6-.08-8.24,2.41-14.67,2.29-5.93,4.04-5.6,5.27-10.76.95-4.03.72-7.74.54-10.52-.29-4.54-.92-4.72-1.22-8.43-.55-6.72.99-12.3,1.98-15.84,1.02-3.68,1.54-7.5,2.9-11.07.44-1.14,1.09-2.71.53-4.45-.44-1.3-1.79-3.4-1.95-3.66-.46-.7-.96-1.4-.88-2.34.05-.65.37-1.15.49-1.33.1-.15.26-.37,1.03-1.02.13-.1.27-.22.44-.36.11-.08.23-.18.35-.28.29-.23.54-.41.69-.54h.02c-.04.06.13.03.41-.04l.02.26s-.09,0-.14,0c.28.59.48.91,1.15,1.91,1.21,1.77,2.1,2.44,2.72,3.29.54.74,1.06,1.85.76,6.57-.33,5.16-.52,8.22-2.25,12-1.39,3.05-2.03,2.77-2.99,5.35-1.44,3.84-.93,6.95-.69,10.06.51,6.36-.16,11.27-.77,15.79-.89,6.59-1.95,6.83-3.24,15.63-.12.85-.62,4.27-.93,8.84-.47,6.66-.69,10,.27,13.54,1.1,4.02,2.27,3.97,2.93,7.82Z" fill="#fff"/>
              <path d="M67.16,140.12c2.79,5.89,2.82,10.5,2.51,13.24-.35,3.04-1.84,6.33-4.81,12.8-3.93,8.53-4.11,7.57-5.51,11.43-1.33,3.66-3.43,9.62-2.65,17.07.47,4.46,1.36,3.63,1.66,7.7.57,7.67-2.33,14.16-4,17.82-1.75,3.82-2.02,3.15-3.38,6.43-2.32,5.64-2.83,10.83-2.84,14.37-.01,2.75.6,6.09,1.83,12.65.87,4.61,1.67,8.41,2.26,11.05l-5.95-6.04h.27c.28-3.21-.27-5.54-.84-7.09-.53-1.46-1.19-2.52-2-5.01,0,0-.63-1.86-1.03-3.73-.26-1.18-.53-3.03-.41-5.85.12-.3.24-.6.36-.92.01-.02,1.28-4.7,3.83-14.06,2.89-10.64,4.76-17.5,4.15-26.11-.19-2.67-.5-3.74-.35-6.4.06-1.26.38-6.07,4.29-14.67,1.96-4.31,4.99-9.92,6.79-13.26,1.36-2.52,2.58-4.7,2.83-7.91.2-2.64-.34-4.71-.98-7.11-1.5-5.71-2.96-5.69-3.38-9.42-.29-2.62.19-4.77,1.13-8.99.17-.74.25-.99,1.49-5.45,1.46-5.23,2.2-7.86,2.32-8.36.93-3.96,1.57-6.67,1.53-10.25-.05-4.23-.98-4.52-.73-8.25.07-1.2.29-2.85,1.84-7.76,2.33-7.34,2.75-6.52,3.4-9.55.9-4.22-.27-4.19.14-14.54.21-5.03.46-4.42.36-6.6-.15-2.99-.64-4.44.43-5.94.66-.91,2.04-2.04,2.73-2.6.36-.3.69-.54.98-.75.22-.16.41-.29.56-.4-.12.19-.44.69-.49,1.33-.08.94.43,1.64.88,2.34.17.26,1.51,2.36,1.95,3.66.57,1.74-.09,3.31-.53,4.45-1.36,3.58-1.87,7.4-2.9,11.07-.98,3.55-2.53,9.12-1.98,15.84.31,3.71.93,3.89,1.22,8.43.18,2.78.4,6.49-.54,10.52-1.23,5.16-2.97,4.83-5.27,10.76-2.48,6.43-2.45,12.07-2.41,14.67.05,3.87.65,7.1,1.21,9.38Z" fill="#fff"/>
              <path d="M75.98,44.41l2.52,1.06c-.15.13-.4.31-.69.54-.12.1-.24.19-.35.28l-.05-.05c-1.09-.34-2.95-.89-4.96-.99-.21-.01-1.25-.06-2.49.02-3.63.26-6.91,1.57-9.35,2.49-6.49,2.44-5.76,1.62-7.99,2.75-5.69,2.88-8.67,7.41-10.33,9.93-2.74,4.14-3.81,7.82-4.61,10.61-.35,1.22-.72,2.73-1.78,11.52-.79,6.43-1.31,10.8-1.76,16.99-.34,4.59-.51,6.88-.53,9.82-.04,6.38.54,7.77.27,11.73-.33,4.65-1.5,7.92-2.94,11.94-3.36,9.41-5.76,9.68-8.01,17.42-1.39,4.78-1.64,8.67-1.89,12.56-.37,5.9.03,10.66.45,15.64.63,7.54,1.19,7.93,1.15,12.45,0,1.33-.1,6-1.43,12.08-1.96,9-4.1,9.48-4.41,15.82-.06,1.16.22,4.31.79,10.6.31,3.54.57,5.85.84,9.95.25,3.86.38,5.82.24,7.69-.29,3.68-1.21,6.64-1.98,8.61l-2.58.06c.04-2.36.02-5.83-.29-10.03-.09-1.22-.29-3.6-.73-6.83-1.71-12.61-3.89-14.58-3.09-21.08.48-3.85,1.73-7.16,1.81-7.37.71-1.83,1.2-2.56,3.09-6.34,2.02-4.03,3.03-6.04,3.27-6.84,1.01-3.19.94-5.99.84-11.61-.05-2.62-.21-3.71-.29-4.19-.55-3.42-1.66-5.33-2.35-7.11-1.4-3.6-.95-7.55-.04-15.47.49-4.25.73-6.37,1.35-8.32,2.03-6.42,5.17-8.38,8.96-17.21,0,0,.78-1.82,1.65-4.26,4.79-13.46,1.79-25.01,3.76-45.14.11-1.12.63-6.3,2.2-12.91,1.35-5.74,2.57-8.64,3.16-9.97,1.27-2.88,2.54-5.73,5.26-8.85,3.78-4.34,7.91-6.39,8.8-6.83,1.07-.52,4.73-2.2,9.92-2.69,4.27-.4,7.78.18,10.01.7l4.61.83Z" fill="#fff"/>
              <path d="M77.42,46.24l.05.05c-.16.14-.31.25-.44.36h0c-.32-.05-.76-.08-1.28-.09-.78-.02-2.75,0-5.18.72-2.26.67-2.17,1.15-7.26,3.77-1.45.75-2.82,1.41-4.92,2.43-2.71,1.31-2.85,1.35-3.47,1.66-.48.25-4.57,2.42-7.29,6.45-2.13,3.17-.95,3.82-3.35,8.17-1.91,3.44-2.87,3.45-4.06,5.94-1.68,3.47-1.13,6.23-.93,10.66.07,1.59-.25,6.09-.89,15.08-.45,6.28-.94,10.8-1.65,17.26-.52,4.7-.78,7.08-1.09,8.47-.24,1.1-.84,3.61-4.63,13.76-2.08,5.57-2.22,5.69-2.52,7.13-.55,2.71-.6,5.28-.71,10.41-.05,2.33-.07,3.49-.04,5.11.16,5.29.76,6.73.87,11.17.06,2.47-.15,1.43-.27,6.64-.15,6.38.16,8.36-.83,11.62-.63,2.09-1.3,3.12-2,4.58-2.69,5.61-2.35,10.55-2.48,16.4-.22,10.14-.22,9.77-1.57,28.01-.45,6.11-1.92,9.27-2.07,13.83l-2.71.05c.77-1.97,1.69-4.93,1.98-8.61.14-1.87.01-3.83-.24-7.69-.27-4.1-.52-6.42-.84-9.95-.56-6.3-.85-9.44-.79-10.6.31-6.34,2.45-6.82,4.41-15.82,1.32-6.09,1.42-10.75,1.43-12.08.04-4.53-.53-4.91-1.15-12.45-.42-4.98-.82-9.74-.45-15.64.25-3.89.5-7.78,1.89-12.56,2.26-7.74,4.65-8.01,8.01-17.42,1.44-4.02,2.6-7.29,2.94-11.94.28-3.96-.3-5.34-.27-11.73.02-2.94.19-5.23.53-9.82.45-6.19.98-10.56,1.76-16.99,1.06-8.79,1.44-10.3,1.78-11.52.8-2.79,1.87-6.47,4.61-10.61,1.66-2.52,4.64-7.05,10.33-9.93,2.23-1.13,1.5-.3,7.99-2.75,2.44-.92,5.72-2.23,9.35-2.49,1.24-.08,2.28-.03,2.49-.02,2.01.11,3.87.65,4.96.99Z" fill="#fff"/>
              <path d="M35.4,167.15c.08.82.15,1.7.22,2.63.16,2.38.24,4.13.24,5.49,0,1.65-.08,2.72-.18,3.61-.62,5.47-1.9,6.22-3.64,13.07-.42,1.62-1.98,8.05-2.21,16.43-.05,1.46-.11,4.2.17,7.82.49,6.29,1.51,8.34,1.82,13.77.03.47.04.92.06,1.36.08,3.11-.16,5.54-.35,7.45-.43,4.15-1.45,10.03-4.1,16.85l-8.03.18c.15-4.56,1.62-7.71,2.07-13.83,1.35-18.24,1.35-17.87,1.57-28.01.13-5.85-.2-10.79,2.48-16.4.7-1.46,1.37-2.49,2-4.58.98-3.26.68-5.24.83-11.62.13-5.21.33-4.17.27-6.64-.11-4.44-.71-5.88-.87-11.17-.04-1.62-.02-2.78.04-5.11.11-5.13.16-7.7.71-10.41.3-1.44.44-1.56,2.52-7.13,3.79-10.16,4.39-12.66,4.63-13.76.31-1.4.57-3.78,1.09-8.47.71-6.46,1.2-10.97,1.65-17.26.64-8.99.96-13.49.89-15.08-.2-4.43-.75-7.18.93-10.66,1.19-2.49,2.16-2.5,4.06-5.94,2.41-4.36,1.22-5,3.35-8.17,2.72-4.03,6.81-6.2,7.29-6.45.62-.32.77-.35,3.47-1.66,2.11-1.02,3.48-1.68,4.92-2.43,5.09-2.63,5-3.1,7.26-3.77,2.43-.71,4.4-.73,5.18-.72.52.01.96.04,1.28.08h0c-.77.66-.93.88-1.03,1.03-.15.11-.34.24-.56.4l-.03-.03c-.6.18-1.44.45-2.39.91-.55.26-1.07.51-1.55.79-.72.41-1.35.89-1.89,1.57-.95,1.21-.86,2.13-1.39,2.79-.11.15-.27.29-.48.41-.84.49-1.71.25-2.5.2-3.34-.26-6.26,2.41-8.43,4.39-.74.67-2.15,2.06-4.64,6.23-2.04,3.39-4.11,6.83-5.5,11.34-.9,2.91-1.13,6.44-1.56,13.37-.52,8.62-.29,10.6-.84,17.43,0,.17-.02.34-.04.52-.45,5.5-.68,8.25-1.44,11.21-1.46,5.69-3.13,7.42-5.49,13.25-1.79,4.39-3.9,9.6-4.29,15.97-.4,6.47,1.4,7.52,2.43,18.76Z" fill="#fff"/>
              <path d="M75.41,48.03l.03.03c-.28.21-.62.45-.98.75-.69.56-2.07,1.68-2.73,2.6-1.07,1.5-.57,2.94-.43,5.94.1,2.18-.15,1.57-.36,6.6-.42,10.35.75,10.32-.14,14.54-.65,3.03-1.07,2.21-3.4,9.55-1.54,4.91-1.76,6.56-1.84,7.76-.26,3.73.68,4.02.73,8.25.04,3.58-.6,6.29-1.53,10.25-.12.5-.85,3.13-2.32,8.36-1.25,4.46-1.32,4.71-1.49,5.45-.94,4.22-1.42,6.37-1.13,8.99.42,3.73,1.88,3.72,3.38,9.42.63,2.41,1.18,4.47.98,7.11-.25,3.21-1.47,5.39-2.83,7.91-1.81,3.35-4.83,8.96-6.79,13.26-3.91,8.59-4.23,13.4-4.29,14.67-.14,2.66.17,3.73.35,6.4.6,8.62-1.26,15.48-4.15,26.11-2.55,9.36-3.82,14.04-3.83,14.06-.12.32-.24.62-.36.92.11-2.38.5-5.45,1.45-9.4.33-1.37.57-2.2.78-2.84.45-1.39.75-1.82,1.46-4.74,2.24-9.23,1.93-16.13,1.77-18.55-.21-3.2-.43-2.3-.69-5.78-.32-4.5-.76-11.2,1.76-18.42,1.23-3.49,1.55-2.57,3.13-6.72.85-2.24,2.84-7.6,3.03-14.4.21-7.42-1.96-8.26-1.18-15.06.41-3.67,1.07-3.68,2.4-9.26,1.66-7.02,1.97-12.66,2.26-17.85.49-9.1-.35-10.93,1.16-16.53.85-3.16.98-2.03,2.97-7.91,2.77-8.17,4.15-12.26,4.41-17.25.09-1.77.05-3.73.89-6.41.79-2.53,1.43-2.71,1.86-5.02.32-1.75.1-2.48.4-5.67.13-1.36.29-2.46.39-3.17.61-.83.85-1.67.95-2.26.48-.28,1-.53,1.55-.79.95-.46,1.79-.73,2.39-.91Z" fill="#fff"/>
              <path d="M71.47,49.72c-.1.6-.34,1.43-.95,2.26-.28.38-.46.52-.73.88-.62.85-.85,1.73-.98,2.59-.47,2.96.27,4.31-.32,6.3-.29.95-.6,1.11-2.45,3.49-.64.81-2.85,3.66-4.36,6.08-.96,1.56-2.59,4.22-3.39,7.65-.74,3.11-.49,5.51-.39,6.9.35,4.94-.45,8.86-2.06,16.7-2.4,11.75-5.67,13.04-6.99,24.11-.29,2.45-.36,4.33-.49,8.1-.35,9.52.39,12.66.12,18.9-.11,2.38-.86,6.65-2.38,15.19-2.85,16.09-3.8,18.35-3.64,24.7.1,4.08.49,2.59,1.25,11.9.97,11.74.56,16.48-.22,19.05-.26.84-.56,1.44-.86,1.99-1.3,2.34-2.69,3.56-4.19,7.32-.96,2.38-2,5.06-1.54,8.34.38,2.58,1.32,3.03,2.03,5.75.53,2,.86,4.92-.2,8.81l-11.31-1.08c2.65-6.82,3.67-12.7,4.1-16.85.19-1.91.43-4.34.35-7.45l.68-1.47c1.72-3.78,2.7-6.99,3.27-9.21.73-2.8,1.19-6.2,2.05-12.88.65-4.93.98-7.4,1.08-9.26.05-1.1.02-.81-.32-12.07-.07-2.32-.12-4.19-.83-6.66-.57-1.96-1.31-3.49-1.87-4.51h-.07c0-1.36-.07-3.11-.24-5.49-.07-.93-.14-1.81-.22-2.63l.72-1.65c1.66-3.66,3.75-8.78,5.68-15.05,1.43-4.7,2.15-7.04,2.64-10.24,1.47-9.82-1.38-12.01.69-19.77.69-2.63.67-1.06,4.13-9.57,3.36-8.25,4.51-12.52,5.12-15.01,1.43-5.96,1.4-8.75,1.37-9.57-.11-3.9-.94-4.23-.71-7,.25-2.96,1.24-2.86,4.87-10.45,2.37-4.97,3.33-7.89,5.33-9.63.26-.22,1.17-.98,1.96-2.24.71-1.11,1.03-2.14,1.19-2.83l-.2-.04c.54-.66.44-1.58,1.39-2.79.54-.68,1.17-1.16,1.89-1.57Z" fill="#fff"/>
              <path d="M70.13,55.16c-.31,3.2-.08,3.93-.4,5.67-.42,2.31-1.06,2.49-1.86,5.02-.85,2.68-.81,4.64-.89,6.41-.26,4.99-1.64,9.07-4.41,17.25-1.99,5.88-2.11,4.75-2.97,7.91-1.51,5.6-.67,7.43-1.16,16.53-.29,5.19-.59,10.83-2.26,17.85-1.33,5.58-1.99,5.59-2.4,9.26-.78,6.8,1.39,7.63,1.18,15.06-.2,6.8-2.19,12.16-3.03,14.4-1.58,4.15-1.91,3.23-3.13,6.72-2.52,7.21-2.08,13.91-1.76,18.42.26,3.48.49,2.58.69,5.78.16,2.42.47,9.32-1.77,18.55-.71,2.92-1,3.35-1.46,4.74l-1.01-.21c.78-2.56,1.19-7.3.22-19.05-.77-9.3-1.15-7.82-1.25-11.9-.16-6.35.79-8.61,3.64-24.7,1.52-8.54,2.27-12.81,2.38-15.19.26-6.24-.47-9.38-.12-18.9.13-3.76.2-5.65.49-8.1,1.33-11.07,4.6-12.36,6.99-24.11,1.6-7.84,2.41-11.75,2.06-16.7-.1-1.38-.35-3.79.39-6.9.8-3.43,2.43-6.09,3.39-7.65,1.51-2.42,3.72-5.27,4.36-6.08,1.86-2.39,2.16-2.55,2.45-3.49.59-1.99-.15-3.33.32-6.3.13-.86.36-1.74.98-2.59.26-.35.45-.5.73-.88-.11.71-.26,1.81-.39,3.17Z" fill="#fff"/>
              <path d="M68.19,54.08l.2.04c-.17.68-.49,1.72-1.19,2.83-.79,1.27-1.7,2.02-1.96,2.24-2,1.74-2.96,4.66-5.33,9.63-3.63,7.59-4.61,7.49-4.87,10.45-.23,2.77.6,3.1.71,7,.03.83.07,3.61-1.37,9.57-.61,2.5-1.76,6.76-5.12,15.01-3.46,8.51-3.44,6.95-4.13,9.57-2.08,7.76.78,9.95-.69,19.77-.49,3.2-1.2,5.54-2.64,10.24-1.93,6.28-4.02,11.39-5.68,15.05l-.72,1.65c-1.03-11.24-2.82-12.29-2.43-18.76.39-6.38,2.5-11.58,4.29-15.97,2.36-5.83,4.04-7.56,5.49-13.25.77-2.96.99-5.71,1.44-11.21.02-.18.03-.35.04-.52h0s.89-1.64.89-1.64c1.34-2.1,2.89-4.88,4.28-8.25.55-1.33,1.49-3.61,2.18-6.38,1.89-7.58-.25-9.98,1.63-18.03.92-3.91,1.99-5.76,2.36-6.36,1.19-1.96,2.58-3.36,5.37-6.16,1.64-1.65,3.19-3.03,3.84-3.62,1.14-1.02,2.15-1.86,2.91-2.49.21-.12.37-.26.48-.41Z" fill="#fff"/>
              <path d="M65.21,54.69c.79.06,1.66.29,2.5-.2-.76.64-1.77,1.48-2.91,2.49-.65.58-2.2,1.97-3.84,3.62-2.79,2.81-4.18,4.21-5.37,6.16-.37.6-1.44,2.44-2.36,6.36-1.88,8.05.26,10.45-1.63,18.03-.69,2.77-1.63,5.06-2.18,6.38-1.4,3.38-2.95,6.15-4.28,8.25l-.89,1.65h0c.55-6.82.32-8.8.84-17.43.43-6.93.66-10.45,1.56-13.37,1.39-4.5,3.46-7.95,5.5-11.34,2.5-4.18,3.91-5.57,4.64-6.23,2.17-1.98,5.09-4.65,8.43-4.39Z" fill="#fff"/>
              <path d="M46.28,258.63l-1.52-.04c.68-3.46.25-6.03-.23-7.68-1.06-3.7-2.97-4.81-3.36-8.12-.27-2.22.34-3.85,1.11-5.82-.13,2.82.15,4.67.41,5.85.4,1.87,1.03,3.73,1.03,3.73.82,2.49,1.47,3.55,2,5.01.57,1.55,1.12,3.88.84,7.1h-.27Z" fill="#fff"/>
              <path d="M44.53,250.9c.48,1.65.91,4.22.23,7.68l-6.03-1.87c1.05-3.89.73-6.82.2-8.81-.71-2.72-1.66-3.17-2.03-5.75-.46-3.28.58-5.96,1.54-8.34,1.5-3.75,2.9-4.98,4.19-7.32.3-.55.6-1.15.86-1.99l1.01.21c-.21.64-.45,1.47-.78,2.84-.95,3.95-1.34,7.01-1.45,9.4-.77,1.98-1.38,3.6-1.11,5.82.4,3.31,2.3,4.43,3.36,8.12Z" fill="#fff"/>
              <path d="M38.95,198.51c-.1,1.86-.42,4.33-1.08,9.26-.87,6.68-1.33,10.09-2.05,12.88-.57,2.22-1.55,5.43-3.27,9.21l-.68,1.47c-.02-.44-.04-.89-.06-1.36-.3-5.44-1.32-7.49-1.82-13.77-.28-3.62-.22-6.36-.17-7.82.23-8.38,1.8-14.81,2.21-16.43,1.74-6.85,3.02-7.6,3.64-13.07.11-.9.19-1.97.18-3.61h.07c.56,1.02,1.3,2.55,1.87,4.51.71,2.47.76,4.34.83,6.66.34,11.26.38,10.97.32,12.07Z" fill="#fff"/>
            </g>
            <g>
              <path d="M55.44,264.89l6.09.67c.3-2.57.58-6.41.32-11.05-.57-10.2-3.07-11.82-1.71-16.8,1.36-4.97,4.12-4.34,9.79-13.79,2.42-4.04,3.63-6.06,4.37-9.12,1.4-5.79.12-10.81-1.38-16.42-2.19-8.2-3.92-8.03-3.81-12.15.16-5.64,3.52-10.13,6.72-14.43,3.77-5.06,5.63-5.37,7.74-9.83.97-2.02,2.59-5.44,2.24-9.84-.39-4.77-2.95-8.6-5.76-12.86-2.5-3.75-3.14-3.65-3.71-5.55-.33-1.09-.92-3.8,2.82-12.21,3.11-6.96,4.67-7.72,5.81-12.62.55-2.35,1.13-4.86.59-8.09-.6-3.58-2-4.69-3.15-7.94-.21-.6-.42-1.28-.61-2.05-.01-.08-.03-.16-.06-.24-.56-2.44-1.14-4.92-.34-8.01.06-.2.25-.9.61-1.79,0,0,.09-.23.28-.6.51-1.05,1.75-3.26,3.68-4.97.34-.31.66-.55.66-.55.69-.53,1.13-.71,2.33-1.76,0,0,2.58-2.26,4.34-4.96,2.46-3.77,4.89-12.77-.21-19.08-.31-.38-4.95-5.99-10.55-5.17-.82.12-2.82.86-3.96,1.72-.04.03-.06.05-.06.07-.04.05.13.02.41-.05.93-.23,3.13-.91,4.24-.64.88.22,1.97.65,3.67,2.08,2.16,1.81,4.38,3.67,5.24,6.74.52,1.82.26,3.4-.25,6.56-.44,2.68-.74,4.5-1.91,6.58-.99,1.72-1.33,1.42-4.37,5.3-.39.48-.72.91-1.02,1.3-.85,1.11-1.41,1.9-1.97,2.91-1.22,2.26-1.74,4.22-1.96,5.18-.38,1.69-.5,3.22-.49,4.52,0,.74.16,1.46.43,2.16l1.83,4.75" fill="none" stroke="#231f20" stroke-linecap="round" stroke-linejoin="round" stroke-width=".5"/>
              <path d="M82.29,80.05s0,.08,0,.13c-.01.32.04.75.24,1.2.59,1.28,2.01,1.65,2.84,2.09,1.3.7,2,2.05,3.45,9.08.56,2.7.91,4.77,1.21,6.53,1.52,8.82,1.56,9.97,1.52,11.15-.07,1.73-.3,2.56-1.69,7.98-2.02,7.89-3.03,11.85-3.1,12.26-1.27,7.31-.82,13.66-.55,17.28.19,2.46.26,1.93.42,4.2,0,.04,0,.09,0,.12.44,5.8.9,12.33-1.54,18.87-.01.04-1.68,3.1-5.03,9.22-3.11,5.7-4.14,7.61-4.03,10.44.05,1.32.76,3.25,2.18,7.06,1.98,5.3,2.66,6.42,3.19,8.01,1.44,4.32-.7,10.49-5.02,22.66-2.65,7.49-3.38,8.49-3.31,11.47.1,3.78,1.35,5.97,1.42,11.22.03,3.06-.36,5.56-.69,7.22l-12.3,7.31" fill="none" stroke="#231f20" stroke-linecap="round" stroke-linejoin="round" stroke-width=".5"/>
              <path d="M84.48,73.42l.04-.07,1.01-2.17c.25-.44.6-1.09.91-1.9.66-1.65,1.13-3.71.92-8.66-.15-3.6-.23-5.4-.72-6.83,0,0-1.24-3.52-4.19-6.29-.31-.29-.89-.83-1.8-1.38-.74-.45-1.17-.43-1.71-.42-.04,0-.09,0-.14,0,.28.59.48.91,1.15,1.91,1.21,1.77,2.1,2.44,2.72,3.29.54.74,1.06,1.85.76,6.57-.33,5.16-.52,8.22-2.25,12-1.39,3.05-2.03,2.77-2.99,5.35-1.44,3.84-.93,6.95-.69,10.06.51,6.36-.16,11.27-.77,15.79-.89,6.59-1.95,6.83-3.24,15.63-.12.85-.62,4.27-.93,8.84-.47,6.66-.69,10,.27,13.54,1.1,4.02,2.27,3.97,2.93,7.82.14.76.72,4.42-.51,9.22-.91,3.55-2.24,5.45-4.69,9.6-4.86,8.24-7.29,12.35-7.45,14.45-.47,6,2.66,13.88,4.16,16.17.16.24.59.87.83,1.81.28,1.06.19,2.05-.43,4.55-.38,1.54-.56,2.31-.84,3.13-3.98,11.54-8.15,18.8-8.15,18.8-2.09,3.65-2.9,4.5-3.52,6.95-.41,1.64-.47,3.76-.57,7.92-.07,2.7-.11,4.43-.01,6.84.21,5.25.74,4.93.78,9.17.01,2.05-.09,3.69,0,7.62.02.91.05,1.67.07,2.17l-3.2-.22" fill="none" stroke="#231f20" stroke-linecap="round" stroke-linejoin="round" stroke-width=".5"/>
              <path d="M46.03,258.36l.26.26,5.95,6.04c-.59-2.64-1.39-6.43-2.26-11.05-1.22-6.56-1.84-9.9-1.83-12.65,0-3.54.52-8.73,2.84-14.37,1.36-3.28,1.63-2.61,3.38-6.43,1.67-3.65,4.58-10.15,4-17.82-.29-4.07-1.19-3.23-1.66-7.7-.78-7.45,1.31-13.42,2.65-17.07,1.4-3.86,1.58-2.89,5.51-11.43,2.97-6.47,4.46-9.76,4.81-12.8.31-2.73.28-7.34-2.51-13.24-.57-2.29-1.16-5.51-1.21-9.38-.04-2.6-.08-8.24,2.41-14.67,2.29-5.93,4.04-5.6,5.27-10.76.95-4.03.72-7.74.54-10.52-.29-4.54-.92-4.72-1.22-8.43-.55-6.72.99-12.3,1.98-15.84,1.02-3.68,1.54-7.5,2.9-11.07.44-1.14,1.09-2.71.53-4.45-.44-1.3-1.79-3.4-1.95-3.66-.46-.7-.96-1.4-.88-2.34.05-.65.37-1.15.49-1.33.1-.15.26-.37,1.03-1.02.13-.1.27-.22.44-.36.11-.08.23-.18.35-.28.29-.23.54-.41.69-.54l-2.52-1.06-4.61-.83c-2.23-.53-5.74-1.1-10.01-.7-5.19.5-8.85,2.17-9.92,2.69-.89.44-5.02,2.49-8.8,6.83-2.72,3.13-3.99,5.98-5.26,8.85-.59,1.33-1.81,4.23-3.16,9.97-1.56,6.6-2.09,11.78-2.2,12.91-1.97,20.13,1.03,31.67-3.76,45.14-.88,2.44-1.65,4.26-1.65,4.26-3.79,8.83-6.93,10.79-8.96,17.21-.62,1.95-.86,4.07-1.35,8.32-.91,7.92-1.36,11.87.04,15.47.69,1.78,1.81,3.69,2.35,7.11.08.48.24,1.57.29,4.19.11,5.62.17,8.42-.84,11.61-.25.8-1.25,2.81-3.27,6.84-1.89,3.77-2.38,4.5-3.09,6.34-.08.2-1.33,3.51-1.81,7.37-.8,6.51,1.38,8.47,3.09,21.08.44,3.23.64,5.61.73,6.83.31,4.2.33,7.67.29,10.03l2.58-.06,2.71-.05,8.03-.18c2.65-6.82,3.67-12.7,4.1-16.85.19-1.91.43-4.34.35-7.45-.02-.44-.04-.89-.06-1.36-.3-5.44-1.32-7.49-1.82-13.77-.28-3.62-.22-6.36-.17-7.82.23-8.38,1.8-14.81,2.21-16.43,1.74-6.85,3.02-7.6,3.64-13.07.11-.9.19-1.97.18-3.61,0-1.36-.07-3.11-.24-5.49-.07-.93-.14-1.81-.22-2.63-1.03-11.24-2.82-12.29-2.43-18.76.39-6.38,2.5-11.58,4.29-15.97,2.36-5.83,4.04-7.56,5.49-13.25.77-2.96.99-5.71,1.44-11.21.02-.18.03-.35.04-.52.55-6.82.32-8.8.84-17.43.43-6.93.66-10.45,1.56-13.37,1.39-4.5,3.46-7.95,5.5-11.34,2.5-4.18,3.91-5.57,4.64-6.23,2.17-1.98,5.09-4.65,8.43-4.39.79.06,1.66.29,2.5-.2.21-.12.37-.26.48-.41.54-.66.44-1.58,1.39-2.79.54-.68,1.17-1.16,1.89-1.57.48-.28,1-.53,1.55-.79.95-.46,1.79-.73,2.39-.91" fill="none" stroke="#231f20" stroke-linecap="round" stroke-linejoin="round" stroke-width=".5"/>
              <path d="M38.73,256.71l6.03,1.87c.68-3.46.25-6.03-.23-7.68-1.06-3.7-2.97-4.81-3.36-8.12-.27-2.22.34-3.85,1.11-5.82.12-.3.24-.6.36-.92.01-.02,1.28-4.7,3.83-14.06,2.89-10.64,4.76-17.5,4.15-26.11-.19-2.67-.5-3.74-.35-6.4.06-1.26.38-6.07,4.29-14.67,1.96-4.31,4.99-9.92,6.79-13.26,1.36-2.52,2.58-4.7,2.83-7.91.2-2.64-.34-4.71-.98-7.11-1.5-5.71-2.96-5.69-3.38-9.42-.29-2.62.19-4.77,1.13-8.99.17-.74.25-.99,1.49-5.45,1.46-5.23,2.2-7.86,2.32-8.36.93-3.96,1.57-6.67,1.53-10.25-.05-4.23-.98-4.52-.73-8.25.07-1.2.29-2.85,1.84-7.76,2.33-7.34,2.75-6.52,3.4-9.55.9-4.22-.27-4.19.14-14.54.21-5.03.46-4.42.36-6.6-.15-2.99-.64-4.44.43-5.94.66-.91,2.04-2.04,2.73-2.6.36-.3.69-.54.98-.75.22-.16.41-.29.56-.4" fill="none" stroke="#231f20" stroke-linecap="round" stroke-linejoin="round" stroke-width=".5"/>
              <path d="M16.56,256.16c.04-.09.08-.19.12-.29.77-1.97,1.69-4.93,1.98-8.61.14-1.87.01-3.83-.24-7.69-.27-4.1-.52-6.42-.84-9.95-.56-6.3-.85-9.44-.79-10.6.31-6.34,2.45-6.82,4.41-15.82,1.32-6.09,1.42-10.75,1.43-12.08.04-4.53-.53-4.91-1.15-12.45-.42-4.98-.82-9.74-.45-15.64.25-3.89.5-7.78,1.89-12.56,2.26-7.74,4.65-8.01,8.01-17.42,1.44-4.02,2.6-7.29,2.94-11.94.28-3.96-.3-5.34-.27-11.73.02-2.94.19-5.23.53-9.82.45-6.19.98-10.56,1.76-16.99,1.06-8.79,1.44-10.3,1.78-11.52.8-2.79,1.87-6.47,4.61-10.61,1.66-2.52,4.64-7.05,10.33-9.93,2.23-1.13,1.5-.3,7.99-2.75,2.44-.92,5.72-2.23,9.35-2.49,1.24-.08,2.28-.03,2.49-.02,2.01.11,3.87.65,4.96.99" fill="none" stroke="#231f20" stroke-linecap="round" stroke-linejoin="round" stroke-width=".5"/>
              <path d="M77.02,46.63c-.32-.04-.76-.07-1.28-.08-.78-.02-2.75,0-5.18.72-2.26.67-2.17,1.15-7.26,3.77-1.45.75-2.82,1.41-4.92,2.43-2.71,1.31-2.85,1.35-3.47,1.66-.48.25-4.57,2.42-7.29,6.45-2.13,3.17-.95,3.82-3.35,8.17-1.91,3.44-2.87,3.45-4.06,5.94-1.68,3.47-1.13,6.23-.93,10.66.07,1.59-.25,6.09-.89,15.08-.45,6.28-.94,10.8-1.65,17.26-.52,4.7-.78,7.08-1.09,8.47-.24,1.1-.84,3.61-4.63,13.76-2.08,5.57-2.22,5.69-2.52,7.13-.55,2.71-.6,5.28-.71,10.41-.05,2.33-.07,3.49-.04,5.11.16,5.29.76,6.73.87,11.17.06,2.47-.15,1.43-.27,6.64-.15,6.38.16,8.36-.83,11.62-.63,2.09-1.3,3.12-2,4.58-2.69,5.61-2.35,10.55-2.48,16.4-.22,10.14-.22,9.77-1.57,28.01-.45,6.11-1.92,9.27-2.07,13.83,0,.06,0,.12,0,.18" fill="none" stroke="#231f20" stroke-linecap="round" stroke-linejoin="round" stroke-width=".5"/>
              <path d="M67.71,54.49c-.76.64-1.77,1.48-2.91,2.49-.65.58-2.2,1.97-3.84,3.62-2.79,2.81-4.18,4.21-5.37,6.16-.37.6-1.44,2.44-2.36,6.36-1.88,8.05.26,10.45-1.63,18.03-.69,2.77-1.63,5.06-2.18,6.38-1.4,3.38-2.95,6.15-4.28,8.25l-.89,1.65" fill="none" stroke="#231f20" stroke-linecap="round" stroke-linejoin="round" stroke-width=".5"/>
              <path d="M71.48,49.65s0,.05-.02.07c-.1.6-.34,1.43-.95,2.26-.28.38-.46.52-.73.88-.62.85-.85,1.73-.98,2.59-.47,2.96.27,4.31-.32,6.3-.29.95-.6,1.11-2.45,3.49-.64.81-2.85,3.66-4.36,6.08-.96,1.56-2.59,4.22-3.39,7.65-.74,3.11-.49,5.51-.39,6.9.35,4.94-.45,8.86-2.06,16.7-2.4,11.75-5.67,13.04-6.99,24.11-.29,2.45-.36,4.33-.49,8.1-.35,9.52.39,12.66.12,18.9-.11,2.38-.86,6.65-2.38,15.19-2.85,16.09-3.8,18.35-3.64,24.7.1,4.08.49,2.59,1.25,11.9.97,11.74.56,16.48-.22,19.05-.26.84-.56,1.44-.86,1.99-1.3,2.34-2.69,3.56-4.19,7.32-.96,2.38-2,5.06-1.54,8.34.38,2.58,1.32,3.03,2.03,5.75.53,2,.86,4.92-.2,8.81l-11.31-1.08" fill="none" stroke="#231f20" stroke-linecap="round" stroke-linejoin="round" stroke-width=".5"/>
              <path d="M68.39,54.12c-.17.68-.49,1.72-1.19,2.83-.79,1.27-1.7,2.02-1.96,2.24-2,1.74-2.96,4.66-5.33,9.63-3.63,7.59-4.61,7.49-4.87,10.45-.23,2.77.6,3.1.71,7,.03.83.07,3.61-1.37,9.57-.61,2.5-1.76,6.76-5.12,15.01-3.46,8.51-3.44,6.95-4.13,9.57-2.08,7.76.78,9.95-.69,19.77-.49,3.2-1.2,5.54-2.64,10.24-1.93,6.28-4.02,11.39-5.68,15.05l-.72,1.65-.1.25" fill="none" stroke="#231f20" stroke-linecap="round" stroke-linejoin="round" stroke-width=".5"/>
              <path d="M35.93,175.27c.56,1.02,1.3,2.56,1.87,4.51.71,2.47.76,4.34.83,6.66.34,11.26.38,10.97.32,12.07-.1,1.86-.42,4.33-1.08,9.26-.87,6.68-1.33,10.09-2.05,12.88-.57,2.22-1.55,5.43-3.27,9.21l-.68,1.47v.03" fill="none" stroke="#231f20" stroke-linecap="round" stroke-linejoin="round" stroke-width=".5"/>
              <path d="M70.52,51.99c-.11.71-.26,1.81-.39,3.17-.31,3.2-.08,3.93-.4,5.67-.42,2.31-1.06,2.49-1.86,5.02-.85,2.68-.81,4.64-.89,6.41-.26,4.99-1.64,9.07-4.41,17.25-1.99,5.88-2.11,4.75-2.97,7.91-1.51,5.6-.67,7.43-1.16,16.53-.29,5.19-.59,10.83-2.26,17.85-1.33,5.58-1.99,5.59-2.4,9.26-.78,6.8,1.39,7.63,1.18,15.06-.2,6.8-2.19,12.16-3.03,14.4-1.58,4.15-1.91,3.23-3.13,6.72-2.52,7.21-2.08,13.91-1.76,18.42.26,3.48.49,2.58.69,5.78.16,2.42.47,9.32-1.77,18.55-.71,2.92-1,3.35-1.46,4.74-.21.64-.45,1.47-.78,2.84-.95,3.95-1.34,7.01-1.45,9.4-.13,2.82.15,4.67.41,5.85.4,1.87,1.03,3.73,1.03,3.73.82,2.49,1.47,3.55,2,5.01.57,1.55,1.12,3.88.84,7.1h-.27s-1.52-.05-1.52-.05" fill="none" stroke="#231f20" stroke-linecap="round" stroke-linejoin="round" stroke-width=".5"/>
            </g>
          </g>
        </g>
      </g>
    </g>
  </g>
</svg>