<?xml version="1.0" encoding="UTF-8"?>
<svg id="Layer_2" data-name="Layer 2" xmlns="http://www.w3.org/2000/svg" viewBox="0 0 856.83 397.28">
  <g id="outlines">
    <g id="Page_4" data-name="Page 4">
      <g id="Panel_21" data-name="Panel 21">
        <g id="Background">
          <rect x=".5" y="5.42" width="855.02" height="391.36" fill="none" stroke="#231f20" stroke-miterlimit="10"/>
          <g>
            <ellipse cx="76.94" cy="363.26" rx="27.84" ry="18.95" fill="#434551" stroke="#231f20" stroke-miterlimit="10"/>
            <ellipse cx="169.74" cy="348.68" rx="29.61" ry="26.24" fill="#434551" stroke="#231f20" stroke-miterlimit="10"/>
            <ellipse cx="253.25" cy="355.97" rx="14.14" ry="17.49" fill="#434551" stroke="#231f20" stroke-miterlimit="10"/>
            <ellipse cx="201.11" cy="286.74" rx="14.14" ry="21.13" fill="#434551" stroke="#231f20" stroke-miterlimit="10"/>
            <ellipse cx="328.81" cy="323.18" rx="16.35" ry="24.05" fill="#434551" stroke="#231f20" stroke-miterlimit="10"/>
            <ellipse cx="335.44" cy="273.62" rx="8.84" ry="16.76" fill="#434551" stroke="#231f20" stroke-miterlimit="10"/>
            <ellipse cx="279.76" cy="307.87" rx="8.84" ry="14.58" fill="#434551" stroke="#231f20" stroke-miterlimit="10"/>
            <ellipse cx="407.02" cy="372.73" rx="12.37" ry="15.3" fill="#434551" stroke="#231f20" stroke-miterlimit="10"/>
            <ellipse cx="395.97" cy="322.45" rx="11.93" ry="11.66" fill="#434551" stroke="#231f20" stroke-miterlimit="10"/>
            <ellipse cx="319.09" cy="374.92" rx="9.28" ry="16.03" fill="#434551" stroke="#231f20" stroke-miterlimit="10"/>
            <ellipse cx="465.79" cy="347.96" rx="14.58" ry="16.76" fill="#434551" stroke="#231f20" stroke-miterlimit="10"/>
            <ellipse cx="540.02" cy="369.82" rx="6.63" ry="15.3" fill="#434551" stroke="#231f20" stroke-miterlimit="10"/>
            <ellipse cx="610.72" cy="361.07" rx="7.51" ry="5.1" fill="#434551" stroke="#231f20" stroke-miterlimit="10"/>
            <ellipse cx="502.46" cy="341.4" rx="11.49" ry="34.98" fill="#434551" stroke="#231f20" stroke-miterlimit="10"/>
            <ellipse cx="696" cy="378.56" rx="13.26" ry="10.93" fill="#434551" stroke="#231f20" stroke-miterlimit="10"/>
            <ellipse cx="765.38" cy="380.75" rx="10.16" ry="8.75" fill="#434551" stroke="#231f20" stroke-miterlimit="10"/>
            <ellipse cx="569.19" cy="350.87" rx="12.81" ry="18.22" fill="#434551" stroke="#231f20" stroke-miterlimit="10"/>
            <ellipse cx="430.88" cy="329.01" rx="8.84" ry="21.13" fill="#434551" stroke="#231f20" stroke-miterlimit="10"/>
            <ellipse cx="361.95" cy="364.72" rx="9.72" ry="13.12" fill="#434551" stroke="#231f20" stroke-miterlimit="10"/>
          </g>
          <rect x=".5" y=".51" width="855.28" height="238.36" fill="#666c7c" stroke="#231f20" stroke-miterlimit="10"/>
          <polygon points="1.42 316.27 854.15 320.06 854.69 282.07 854.33 240.36 1.51 237.91 1.42 316.27" fill="#62646e" stroke="#56585f" stroke-miterlimit="10"/>
          <line x1="379.81" y1="217.61" x2="469.95" y2="216.51" fill="#666c7c" stroke="#231f20" stroke-miterlimit="10"/>
          <line x1="358.92" y1="239.59" x2="446.86" y2="237.94" fill="#666c7c" stroke="#231f20" stroke-miterlimit="10"/>
          <line x1="469.95" y1="300.05" x2="488.63" y2="300.6" fill="#62646e" stroke="#231f20" stroke-miterlimit="10"/>
          <line x1="462.8" y1="312.14" x2="486.44" y2="313.24" fill="#62646e" stroke="#231f20" stroke-miterlimit="10"/>
          <line x1="295.17" y1="302.8" x2="363.87" y2="301.7" fill="#62646e" stroke="#231f20" stroke-miterlimit="10"/>
          <line x1="406.19" y1="264.33" x2="320.45" y2="264.33" fill="#62646e" stroke="#231f20" stroke-miterlimit="10"/>
          <line x1="286.92" y1="224.2" x2="222.62" y2="223.65" fill="#62646e" stroke="#231f20" stroke-miterlimit="10"/>
          <line x1="332.54" y1="245.64" x2="280.33" y2="245.09" fill="#62646e" stroke="#231f20" stroke-miterlimit="10"/>
          <line x1="338.59" y1="281.91" x2="258.34" y2="281.36" fill="#62646e" stroke="#231f20" stroke-miterlimit="10"/>
          <line x1="268.79" y1="201.12" x2="446.86" y2="200.57" fill="#ffe600" stroke="#020202" stroke-miterlimit="10"/>
        </g>
        <g id="Person">
          <g id="Hair">
            <path d="M558.16,188.29c-.41-.8-.92-1.17-5.8-3.77-2.94-1.57-5.46-2.92-7.6-4.05-5.2-2.75-8.16-4.25-9.58-4.72-5.16-1.72-11.75-1.17-18.35,1.14-1.48.52-2.95,1.12-4.42,1.81-9.02,4.23-17.45,11.57-21.57,20.62-4.81,10.57.8,13.5-4.43,25.21-5.47,12.25-18.02,23.46-32.15,25.21-9.48,1.18-11.77-2.87-19.95-2.19-17.24,1.43-17.57,23.57-34.36,30.7-18.69,7.93-42.12-3.84-42.12-3.84l40.46,72.36s41.37-6.48,49.33-21.93c5.04-9.79,1.26-16.45,8.31-24.12,7.94-8.64,16.55-4.34,30.48-11.51,10.35-5.33,15.77-13.24,26.6-29.05,13.68-19.97,9.32-21.72,21.06-37.82,13.1-17.97,27.29-27.82,24.09-34.05Z" fill="#fff" stroke="#231f20" stroke-miterlimit="10"/>
            <g id="Inside_Layers" data-name="Inside Layers">
              <g id="Layer_222" data-name="Layer 222">
                <path d="M509.52,180.23c-3.3,4.76-7.69,8.06-8.06,12.82s-3.66,17.22-3.66,20.15-5.13,16.12-5.13,16.12c0,0-5.5,11.36-10.26,16.49-4.76,5.13-15.02,12.18-17.59,12.18h-17.95s-2.93,1.37-6.23,1.74-6.23-.73-11.73,6.6-13.92,15.02-16.49,16.85c-2.56,1.83-2.56,4.03-9.53,7.33-6.96,3.3-6.6,4.4-10.63,4.03s-28.95-9.89-28.95-9.89" fill="none" stroke="#231f20" stroke-miterlimit="10"/>
                <path d="M513.55,178.4c-2.56,6.23-8.79,12.46-8.06,16.49.73,4.03,0,6.23,0,8.06s.73,2.93,0,5.13c-.73,2.2-2.93,9.16-3.66,10.99s-1.47,3.66-2.93,7.69c-1.47,4.03.73-2.2-3.66,6.96-4.4,9.16-3.66,7.69-6.6,14.66-2.93,6.96,3.66.18-5.86,9.62-9.53,9.44-6.23,9.8-12.82,10.9s-14.66,1.1-16.85,1.83-4.03,0-7.69.73-4.4-.73-9.53,7.33c-5.13,8.06-.37,5.86-8.43,11.36s-2.93,5.13-14.66,9.16-20.89,5.13-20.89,5.13c0,0-4.03,1.47-6.96,2.2s-8.79.37-8.79.37" fill="none" stroke="#231f20" stroke-miterlimit="10"/>
                <path d="M556.49,187.87s3.73-.43,0,0-4.47-.67-5.57,1.53-.37,2.2-2.56,3.66-3.66,3.3-6.6,3.3-7.69,1.47-9.89,2.2-5.5,2.56-6.96,5.86-1.83,2.93-2.2,5.86.73,12.82.73,12.82" fill="none" stroke="#231f20" stroke-miterlimit="10"/>
                <path d="M556.49,187.87s-.07.06-2.27-.67-8.06-.73-8.06-.73c0,0,0,.37-1.83,2.2-1.83,1.83-10.26,4.03-12.09,4.03s-4.76.37-9.53,4.4c-4.76,4.03-5.86,8.43-5.86,10.26s-.73,0-.73,5.5-.37,3.3-1.83,9.89c-1.47,6.6-1.47,2.56-1.83,11.36s-4.76,15.39-6.96,21.25c-2.2,5.86-3.16,11.6-6.16,13.13s-3.37.06-8.86,3.73c-5.5,3.66-19.05,10.26-19.05,10.26,0,0-2.93-1.1-9.89,1.1s-14.66,18.32-14.66,18.32c0,0,.37-2.2-1.1,5.86-1.47,8.06-1.47,9.53-4.76,12.82-3.3,3.3-1.1,2.93-9.89,6.6s2.2,2.2-10.63,4.4-29.68,1.83-29.68,1.83" fill="none" stroke="#231f20" stroke-miterlimit="10"/>
                <path d="M546.16,186.46s2.93-.37-1.83-.37-12.09,4.03-12.09,4.03c0,0-8.43,1.1-10.99,2.2-2.56,1.1-3.3-1.47-5.5,5.5s-3.3,9.16-4.76,14.29-3.66,1.83-6.23,13.92c-2.56,12.09-2.2,5.86-4.76,16.12-2.56,10.26,6.6,2.2-4.4,13.19-10.99,10.99-5.13,10.26-13.19,13.92-8.06,3.66-1.1,2.93-12.46,4.76-11.36,1.83,3.66-7.69-12.46,2.93s-8.79-2.2-17.22,11.36-1.47,9.16-10.99,15.76-2.2,4.4-11.73,7.33c-9.53,2.93-7.69,4.03-18.32,5.5s-16.12,2.2-16.12,2.2" fill="none" stroke="#231f20" stroke-miterlimit="10"/>
                <path d="M544.76,180.47c-6.3.5-5.57.13-9.96.5s-1.1-.73-7.33,1.47c-6.23,2.2-2.2-5.86-8.06,2.93-5.86,8.79-7.69,9.89-8.06,12.82s-.73,4.76-1.83,8.06-2.56,11.36-2.56,11.36" fill="none" stroke="#231f20" stroke-miterlimit="10"/>
                <path d="M530.04,174.74c-2.56,1.1-5.13,3.66-5.13,3.66l-2.2,2.93" fill="none" stroke="#231f20" stroke-miterlimit="10"/>
              </g>
            </g>
          </g>
          <g id="Body">
            <path d="M522.05,222.13c-3.86,15.52-5.67,28.55-6.6,37.92-1.2,12.08-1.76,18.27,0,25.28,1.68,6.71,3.81,9.49,13.19,26.93,4.66,8.67,12.83,21.53,15.5,25.99,5.77,9.62,6.05,6.32,8.24,41.5l23.45-1.65c1.53-9.21-3.66-27.76-7.79-37.65-4.17-10.01-12.34-19.97-14.13-25.44-3.03-9.29-6.83-18.16-11.54-29.13-1.59-3.71-2.94-6.76-3.85-8.79l11.54-56.61-14.29,15.94-13.74-14.29Z" fill="#ffe600" stroke="#020202" stroke-miterlimit="10"/>
            <path d="M485.96,369.15c12.49,3.89,20.89-.55,20.89-.55,0,0,1.5-7.1,3.3-22.53,1.42-12.2,4.07-21.84,5.5-26.93,1.43-5.12,2.84-9.28,3.85-12.09l2.31-7.17-7.33-27.3c-3.54,5.76-9.07,15.73-14.77,26.23-3.81,7.02-7.3,13.44-9.34,18.14-3.73,8.59-4.4,52.21-4.4,52.21Z" fill="#ffe600" stroke="#020202" stroke-miterlimit="10"/>
            <path d="M486.55,370.09l-.07,3.71,1.58.55c9.55,1.79,16.08.82,16.08.82l1.99-5.77-5.84,1.79-2.89.21-3.85-.21-3.44-.48-1.99-.55-1.58-.07Z" fill="#231f20" stroke="#010101" stroke-miterlimit="10"/>
            <path d="M556.73,378.08l-.06,3.7,1.29.55c7.79,1.78,13.12.82,13.12.82l1.63-5.75-4.76,1.78-2.35.21-3.14-.21-2.8-.48-1.63-.55-1.29-.07Z" fill="#231f20" stroke="#010101" stroke-miterlimit="10"/>
            <path d="M521.52,225.27c3.07-2.05,3.59-3.02,3.82-4.06.57-2.61-1.01-4.25-.37-9.53.22-1.82.37-3.02,1.1-4.4,1.22-2.3,3.2-3.5,7.33-5.5,3.51-1.7,5.34-2.42,9.89-4.4,7.46-3.24,8.67-3.98,9.89-5.5,1.71-2.12,1.83-3.75,3.3-4.03,2.55-.5,5.31,3.85,5.86,4.76,3.1,5.14,1.93,10.59,1.83,10.99-.12.51-1.63,6.64-6.96,9.53-2.86,1.55-4.53.93-12.82,3.66-1.44.48-2.74.94-3.66,2.2-1.52,2.09-1.36,5.47,0,7.69,2.19,3.59,5.89,3.29,12.57,6.47.13.38,8.1,3.28.18,25.28-1.65,4.58-.45,9.93,4.45,19.1h0s1.56-.22,2.53.07c1.51.45,2.73,2.49,2.26,3.36-.61,1.11-3.82.02-4.28,1.12-.26.63.68,1.21.42,2.26-.17.69-.8,1.26-1.45,1.41-1.24.29-2.61-.93-2.9-2.13-.36-1.46.91-2.8.58-3.07-.37-.3-1.68,1.62-3.14,1.37-1.02-.18-1.83-1.37-1.96-2.42-.15-1.17.54-2.04.78-2.52,1.51-2.93-7.87-11-5.53-19.01,4.76-16.31,3.66-12.92,2.75-16.21-.41-1.46-3.05-3.5-6.24-4.19-1.62-.35-3.25-1.06-6.15-1.37-.48-.05-1.72-1.07-2.2-1.1-5.41-.34-10.14-.05-13.55,1.73" fill="#906126" stroke="#020202" stroke-miterlimit="10"/>
            <polyline points="514.63 270.77 531.12 253.18 529.74 245.03 535.6 236.23 535.82 236.52 540.18 242.46 540.46 243.56 537.99 252.91 542.11 257.58 548.29 229.24 550.08 221.03 537.16 235.87 535.93 237.38 522.32 223.5 518.61 242.19 515.04 269.26" fill="#159e49" stroke="#020202" stroke-miterlimit="10"/>
            <path d="M560.52,198.49c-.72-1.83-3.24-3.49-4.95-3.85-2.98-.63-7.53,1.82-7.69,5.5-.11,2.45,1.75,5.06,3.85,5.5,2.37.49,4.45-1.93,7.15-1.65,2.52.26,2.84.37,2.84.37.52.17.84.34,1.19.18.58-.25.69-1.14.82-2.11.16-1.21.27-2.01-.18-2.38-.54-.44-1.28.19-2.11-.27-.6-.33-.79-.97-.92-1.28Z" fill="#fff" stroke="#020202" stroke-miterlimit="10"/>
            <ellipse cx="554.34" cy="200.14" rx="1.51" ry="1.74" fill="#fff" stroke="#020202" stroke-miterlimit="10"/>
            <polyline points="551.09 208.84 555.5 211.2 561.53 209.03" fill="none" stroke="#020202" stroke-miterlimit="10"/>
            <path d="M517.21,241.43c-1.79,8.19-3.85,16.5-6.23,24.92-.13.47-.05,1.55-.73,2.56-1.02,1.51-2.38,1.23-3.48,2.75-.92,1.27-1.13,3.06-.55,3.48.68.49,2.19-1.09,2.93-.55.59.43-.13,1.58.55,2.56.58.83,2.04,1.36,2.93.73.83-.58,1.07-2.09.18-3.3l1.47-.37,2.93-32.79Z" fill="#906126" stroke="#020202" stroke-miterlimit="10"/>
          </g>
        </g>
        <path d="M803.57,21.81c.21,2.8,1.27,12.43,8.99,20.79,8.1,8.77,23.16,8.75,23.16,8.75l-32.15-29.54" fill="#ece6e1" stroke="#020202" stroke-miterlimit="10"/>
        <polygon points="826.34 1.07 824.18 6.28 847.53 23.59 856.33 19.2 856.01 .51 826.34 1.07" fill="#ece6e1" stroke="#020202" stroke-miterlimit="10"/>
        <polygon points="844.04 32.31 821.21 15.28 815.97 11.37 821.56 3.88 849.62 24.82 844.04 32.31" fill="#fffdfb" stroke="#020202" stroke-miterlimit="10"/>
        <rect x="817.86" y="34.86" width="4.95" height="4.12" fill="#897e76" stroke="#020202" stroke-miterlimit="10"/>
        <polygon points="819.5 17.55 821.21 15.28 839.29 28.54 836.82 30.46 838.74 47.23 836.54 51.62 803.57 22.22 809.34 17.55 819.5 17.55" fill="#e84225" stroke="#020202" stroke-miterlimit="10"/>
      </g>
    </g>
  </g>
</svg>