<?xml version="1.0" encoding="UTF-8"?>
<svg id="Layer_2" data-name="Layer 2" xmlns="http://www.w3.org/2000/svg" viewBox="0 0 429.58 392.23">
  <g id="outlines">
    <g id="Page_1" data-name="Page 1">
      <g id="Frame_3" data-name="Frame 3">
        <g id="Layer_61" data-name="Layer 61">
          <g id="Hair">
            <path d="M201.43,59.81c-.55,2.2-3.3,6.6-4.95,6.6s-4.4.55-6.05,0-5.5-2.75-7.69-3.3-8.79,1.65-8.79,1.65l-5.5,5.5-5.5,5.5s-9.89.55-12.09,1.1-9.34,6.6-9.34,6.6c0,0-4.4,6.05-4.4,9.34s-3.85,12.09-3.85,12.09c0,0-5.5,4.4-5.5,6.05s-1.65,11.54-1.65,11.54l2.75,12.64,2.2,7.69s.55,4.4.55,10.44-.55,17.04,0,19.79.55,14.84,1.65,16.49,4.4,13.19,4.4,13.19l.55,9.34.55,7.69-3.3,7.15-2.75,8.79s0,3.3.55,6.05,4.95,14.29,4.95,14.29c0,0-.55-.55.55,4.95s-3.3,20.34-3.3,21.98-2.2,16.49-2.2,16.49l2.75,21.98,47.27,2.2,118.72-2.75s-3.3-2.75-1.65-6.05,2.2-11.54,2.2-11.54c0,0-.55-3.3-4.4-5.5-3.85-2.2-12.09-12.09-12.09-14.84s.55-9.34.55-9.34l4.4-13.74,7.69-14.84,2.2-7.69-2.2-7.69s-1.65-.55-1.65-2.75-3.85-13.19-3.85-13.19l-4.4-7.69-1.65-11.54,3.3-8.24s2.2,0,0-6.05-2.2-11.54-2.2-11.54l3.85-7.69,2.2-12.09s-1.1-7.15-2.2-8.79-5.5-8.24-5.5-8.24l-1.65-8.79s-.55-4.95-.55-8.79-.55-10.44-.55-10.44l-1.65-7.69-6.6-6.05s-4.4-2.2-7.69-3.3-9.34-3.3-10.99-4.4c-1.65-1.1-5.5-3.85-6.6-5.5s-3.85-4.4-5.5-6.6-3.85-4.4-6.6-4.4-8.24-.55-10.44,0-9.34,2.2-11.54,2.2-7.69-1.65-7.69-1.65l-7.15-6.6Z" fill="#fff" stroke="#231f20" stroke-miterlimit="10"/>
            <path d="M144.82,320.88s1.1-1.1,0-2.75c-1.1-1.65-2.2-4.4-2.75-7.15s1.1-9.34,1.1-9.34l2.2-8.24s1.65-4.4,1.65-7.15v-15.39l-1.65-12.09v-13.19l-.55-9.34,3.85-14.84.55-12.64s-.55-5.5-.55-7.15-1.1-7.15-1.1-7.15c0,0-1.65-7.15-3.85-10.44-2.2-3.3-2.2-5.5-2.2-5.5v-6.6l1.65-4.95,2.75-6.6s-1.1-.55-1.1-4.4-.55-7.69-1.1-10.44c-.55-2.75-3.85-9.34-3.85-9.34,0,0-2.2-8.79-2.75-11.54s-1.1-17.59-1.1-17.59l4.95-3.85,2.2-5.5,5.5-7.69,9.89-4.95,10.44-4.95,4.95-2.2,3.3-4.4s.55-2.75,4.95-3.85c4.4-1.1,6.6-1.1,6.6-1.1l2.75,4.4-6.05,4.4-8.79,4.4-6.05,5.5s-2.75.55-4.4,1.1-13.74,14.84-13.74,14.84l-4.4,7.15s-3.85,1.1-4.95,5.5c-1.1,4.4-2.2,12.09-1.1,13.74s7.15,14.84,7.15,14.84l1.1,10.44,1.1,7.69s-3.85,15.94-1.1,20.89c2.75,4.95,6.6,12.09,6.6,12.09l1.1,9.89v6.6s-1.65,7.15-.55,9.89,1.65,4.4,1.65,4.4v2.75c0,2.2,1.92,17.59,1.92,17.59l-3.3,13.19-2.97,9.5c-.76,2.43-.97,5-.61,7.52l1.1,7.71-2.47,16.49-1.5,2.25c-3.11,4.67-3.26,10.71-.37,15.52l1.41,3.48-7.51-1.47Z" fill="none" stroke="#231f20" stroke-miterlimit="10"/>
            <path d="M166.26,154.16s-.37.73-1.1,2.56-1.83.37-1.47,4.76,1.47,7.69,1.83,10.26,1.1,4.76,1.47,5.86.37,3.66.37,6.23-.37,6.6-.73,10.26-.73,8.06-.73,9.53,1.47,4.4,1.83,6.6.37,9.53.37,9.53v11.73l-.37,2.2" fill="none" stroke="#231f20" stroke-miterlimit="10"/>
            <path d="M180.91,163.69l-1.83,2.56-3.3,6.23s1.1,4.03,1.83,8.06c.73,4.03,1.1,3.66-.73,7.69-1.83,4.03-2.93,3.3-2.93,8.06s0,2.2,1.1,6.96,1.47,6.23.73,8.79-1.47,3.66-.73,6.23.73,5.86.73,5.86" fill="none" stroke="#231f20" stroke-miterlimit="10"/>
            <path d="M176.52,265.18c1.1,2.2,1.83,0,2.56,7.33s1.1,7.69,0,10.26-3.66,11.36-3.66,12.46-.73,1.83-.37,4.4,2.2,6.23,2.93,7.69.73,9.16.73,9.16l-1.83,6.23" fill="none" stroke="#231f20" stroke-miterlimit="10"/>
            <path d="M196.29,167.83s.02-.48-1.81,2.46c-1.83,2.93-2.56,2.2-2.2,4.76.37,2.56,1.1,3.66,1.83,4.76s1.1,5.5,1.1,5.5c0,0,0,2.2-.73,4.03s-1.1,4.4-.37,5.5,1.47,5.5,1.47,5.5v3.66l-1.1,9.53" fill="none" stroke="#231f20" stroke-linecap="round" stroke-miterlimit="10"/>
            <path d="M204.37,73.55c0,1.1-1.1,3.3,1.1,4.4s2.56,1.47,4.4,1.83,2.2,1.1,5.86,1.47,5.13.37,5.86,1.47.37,3.66,1.1,5.5,1.1,2.93,2.2,4.03c1.1,1.1,1.1,1.47,2.93,2.2s4.03,1.1,5.13,1.47,5.13,5.13,5.13,5.13c0,0,0,4.4,2.93,5.13s4.4,1.47,6.6,1.83,2.56.37,4.03.37-1.1,1.47,1.47,0,7.69-1.83,2.93-2.93-2.56,2.2-4.76-1.1-3.3-4.4-4.03-5.5-1.1-2.2-1.83-3.66-.73-1.1-1.83-3.3-1.47-2.2-3.3-3.3c-1.83-1.1-1.83-.73-4.03-1.1s-2.2.73-4.03-.37c-1.83-1.1-2.2,0-3.3-2.2s.37,1.1-1.1-2.2,1.1-.73-1.47-4.4c-2.56-3.66,1.1-2.56-3.66-3.66q-4.76-1.1-6.6-.37c-1.83.73-1.1,1.1-3.66,1.1s0,1.1-3.66.37-4.4-2.2-4.4-2.2Z" fill="none" stroke="#231f20" stroke-linecap="round" stroke-miterlimit="10"/>
            <path d="M230.01,165.15s2.56,2.2,2.56,4.03-.37,4.76-.73,6.6c-.37,1.83-1.1,5.13-.73,6.6s1.47,1.47,2.93,4.4,2.56.73,1.47,5.13-2.2,5.13-2.2,6.96.73,5.13.73,8.06" fill="none" stroke="#231f20" stroke-linecap="round" stroke-miterlimit="10"/>
            <path d="M239.54,159.66c1.47,2.56,2.2,2.93,2.56,4.76s-1.47,9.53-1.47,9.53v5.5s.73,2.56,2.93,4.4,3.66,10.26,3.66,10.26l-.73,6.96s-.73,3.3.37,4.4,2.93,6.23,2.93,7.69-3.3,6.05-3.3,6.05" fill="none" stroke="#231f20" stroke-linecap="round" stroke-miterlimit="10"/>
            <path d="M244.3,256.57c-1.1,1.65.73,9.34.73,9.34,0,0-.73,4.76-.73,6.23s-.73,4.4,1.47,7.69,1.83,6.96,1.1,9.89-2.2,8.79-2.2,10.63,3.66,9.16,3.66,9.16l-.73,8.06-1.83,4.4" fill="none" stroke="#231f20" stroke-linecap="round" stroke-miterlimit="10"/>
            <path d="M286.44,320.88s-.73-1.47-2.2-6.23,0,0-4.03-9.89c-4.03-9.89,0,0,0-8.79s.37-1.47,1.1-10.99,1.1-2.93,2.2-7.69,0,0,.37-2.2,2.56-9.16,2.56-9.16l-1.83-14.66s-1.83-10.63-3.66-20.15c-1.83-9.53,0-1.83-2.93-10.63-2.93-8.79-1.47-4.4-1.1-12.09s.37-3.66,1.83-9.53.37-3.66,1.83-7.33c1.47-3.66,1.83-4.4.73-12.09s-.37-4.76-1.83-8.79c-1.47-4.03-2.56-6.96-4.4-10.99s-2.2-8.79-6.23-17.95-1.1-1.83-1.47-5.86-.37-7.33-.73-11.36-.37-6.6-.73-10.99-1.1-6.23-1.47-9.53c-.37-3.3-3.66-6.6-3.66-6.6,0,0-5.86-4.76-7.69-6.23s-5.5-3.3-7.33-4.03-5.5-4.03-5.5-4.03c0,0-2.2-4.76-4.76-5.86s-4.48-1.29-3.66-2.93c1.47-2.93,3.3-2.56,5.86-2.2s5.5,3.66,5.5,3.66c0,0-.73-.37,2.56,3.66,3.3,4.03,2.93,4.4,6.96,5.86s9.89,6.96,10.99,7.69,1.83,1.47,5.13,4.4,3.3-1.1,3.66,6.23c.37,7.33.73,2.2.37,12.46s-5.5,2.93.37,12.09c5.86,9.16,7.69,14.66,9.89,18.69s2.2,9.53,2.56,12.09.73,5.13.73,10.63,0,19.42-1.47,26.75-3.3,1.83-1.47,9.89,3.3,17.22,4.76,22.35c1.47,5.13,1.83,4.03.73,11.36-1.1,7.33,2.2-2.2-1.83,9.53-4.03,11.73-6.23,19.05-7.33,23.82-1.1,4.76-3.66,2.56-3.66,13.19s-1.83,9.53,0,14.29,0-5.13,1.83,4.76,4.4,16.12,4.4,16.12" fill="none" stroke="#231f20" stroke-linecap="round" stroke-miterlimit="10"/>
            <path d="M258.23,116.05c1.47,1.47,4.4,1.47,4.4,4.76s.73,2.93,0,5.13.37-.73-1.1,5.13-3.3,10.99-2.93,15.02-2.56-3.66,1.47,9.16,6.6,19.05,6.96,22.72-.37,5.5-.73,10.99-2.93,3.3-1.1,10.63c1.83,7.33-.37,2.93,2.93,8.43s5.13-3.3,3.3,9.89c-1.83,13.19-2.93,4.76-2.93,15.02s.73,15.39,2.56,17.22c1.83,1.83,10.63,13.92,10.63,13.92" fill="none" stroke="#231f20" stroke-linecap="round" stroke-miterlimit="10"/>
            <path d="M248.33,150.5c3.3,1.83,2.93,2.2,3.3,5.13s.73,5.5.73,7.69-2.2,12.46-2.2,13.92-1.1.73,0,5.86c1.1,5.13.73,9.16,3.3,13.56s2.93,7.69,3.3,10.99c.37,3.3,1.1,2.93,0,8.06-1.1,5.13-1.47,4.03-1.1,8.43s1.83,6.96,1.83,6.96" fill="none" stroke="#231f20" stroke-linecap="round" stroke-miterlimit="10"/>
          </g>
          <g id="person">
            <g>
              <path d="M267.94,320.88l-13.74.55-2.75-53.32c-1.1-3.84-7.15-11.54-7.15-11.54l-3.95-3.23-.97-36.97c3.73,1.65,7.12,2.83,7.12,2.83,4.95,3.3,12.64,14.29,13.19,16.49s3.3,10.44,3.85,13.74,4.4,71.45,4.4,71.45Z" fill="#905f26"/>
              <path d="M198.13,136.22l-5.05-1.76.69-4.95,3.23-5.08c.32.08.61.16.86.23,5.29,1.48,5.76,3.43,14.02,7.15,4.7,2.12,7.99,2.68,9.39,2.52h.18c1.32-5.68,5.44-10.96,13.73-11.32.54-1.36.6-3.96.61-5.49,0-2.3.02-6.9-3.3-10.44-1.05-1.13-2.24-1.92-3.48-2.49l.32-.65c.37.19.77.32,1.23.39,2.63.39,4.2-1.71,6.05-.55,1.86,1.16.82,3.63,2.75,6.59,2.16,3.33,6.11,4.29,6.59,4.4,4.89,1.12,7.64-2.16,10.45-.55,2.24,1.29,2.59,4.59,2.74,6.05.84,7.89-3.82,28.43-21.98,40.67-4.81,3.24-9.69,5.21-14.29,6.37-8.21,2.08-15.49,1.6-19.79,1.32-2.26-.14-4.53-.41-6.79-.8-2.45-.42-4.89-.98-7.31-1.68l-.41-11.69,5.58-.2,9.28-.33.07-1.72c-.49-2.95-3.58-6.39-4.54-7.14-.9-.71-2.47-1.48-3.34-1.63l2.51-7.22Z" fill="#905f26"/>
              <path d="M240.35,253.34l1.76,67.54-31.13,1.46-.02-.36,16.12-1.1-1.46-21.25c6.59-20.52,5.49-20.16,5.49-20.16l-14.29-23.45,15.5-43.39c1.61,1.12,3.78,2.25,5.94,3.23v35.77l2.09,1.71Z" fill="#7bc144"/>
              <path d="M239.38,216.37l.97,36.97-2.09-1.71v-35.77c.37.18.75.35,1.12.51Z" fill="#7bc144"/>
              <path d="M238.26,215.86c-2.16-.98-4.33-2.11-5.94-3.23l6.49-18.16.57,21.9c-.37-.16-.75-.33-1.12-.51Z" fill="#7bc144"/>
              <path d="M232.49,107.08c3.32,3.54,3.3,8.14,3.3,10.44,0,1.53-.07,4.13-.61,5.49-8.29.36-12.41,5.64-13.73,11.32h-.18c-1.4.16-4.69-.4-9.39-2.52-8.26-3.72-8.73-5.67-14.02-7.15-.25-.07-.54-.15-.86-.23-1.93-.49-5.16-1.13-9.03-.59-4.83.67-6.09,2.54-10.17,3.02-.83.1-1.6.28-3.39.05h-.02c-2.13-3.94-6.07-7.01-12.44-7.21v-.07c-2.03-2.75-2.85-6.71-3.11-7.7l-.11-.13c.13-.11.26-.22.38-.33,6.03-5.4,8.9-11.19,11.82-15.11,1.35-.36,8.63-1.54,10.99-1.1,5.48,1.03,6.02,5.17,10.99,7.69,3.4,1.73,8.87,1.25,19.79.28,4.03-.36,5.97-.71,9.34-.28,2.32.31,4.75.62,6.97,1.64,1.24.57,2.43,1.36,3.48,2.49ZM220.12,116.42c1.67,0,3.02-1.17,3.02-2.61s-1.35-2.61-3.02-2.61-3.02,1.17-3.02,2.61,1.35,2.61,3.02,2.61ZM176.01,111.2c1.45,0,2.61-1.11,2.61-2.47s-1.16-2.48-2.61-2.48-2.61,1.11-2.61,2.48,1.17,2.47,2.61,2.47Z" fill="#fff"/>
              <path d="M232.32,212.63l-15.5,43.39-22.53-42.24c.75-.58,1.33-1.17,1.65-1.73,0,0,6.04-25.28,7.14-36.82v-6.6c4.3.28,11.58.76,19.79-1.32v6.27c1.1,11.54,7.14,36.83,7.14,36.83.41.71,1.23,1.46,2.31,2.22Z" fill="#905f26"/>
              <path d="M231.11,279.47s1.1-.36-5.49,20.16l1.46,21.25-16.12,1.1s-.73-19.79-.73-20.89-6.23-14.65-7.33-15.75c0,0,11.72-20.89,13.92-29.32l14.29,23.45Z" fill="#f7ec13"/>
              <path d="M229.33,103.94l-.32.65c-2.22-1.02-4.65-1.33-6.97-1.64-3.37-.43-5.31-.08-9.34.28-10.92.97-16.39,1.45-19.79-.28-4.97-2.52-5.51-6.66-10.99-7.69-2.36-.44-9.64.74-10.99,1.1,1.95-2.62,3.92-4.41,6.87-4.67,3.44-.31,5.87,1.64,10.44,0,2.84-1.02,5.05-2.91,5.5-3.3,3.59-3.13,5.5-6.05,5.5-6.05,0,0,.15,6.33,2.74,7.7,1.66.87,3.29-1.02,6.6-1.65,5.34-1.02,10.13,2.17,10.99,2.75,6.21,4.14,6.2,11.01,9.76,12.8Z" fill="#905f26"/>
              <ellipse cx="220.12" cy="113.81" rx="3.02" ry="2.61" fill="#fff"/>
              <path d="M194.29,213.78l22.53,42.24c-2.2,8.43-13.92,29.32-13.92,29.32,1.1,1.1,7.33,14.65,7.33,15.75s.73,20.89.73,20.89l.02.36-27.68,1.29,1.49-67.98,2.9-2.37v-35.77c2.47-1.12,4.95-2.43,6.6-3.73Z" fill="#7bc144"/>
              <path d="M203.5,152.21l-.07,1.72-9.28.33v-.05l-3.5-10.79-.02-.06c.1-.03.2-.06.29-.08.76-.2,3.71.07,4.54.14.05,0,.11.01.16.02.87.15,2.44.92,3.34,1.63.96.75,4.05,4.19,4.54,7.14Z" fill="#fff"/>
              <path d="M190.63,143.36l.02.06,3.5,10.79v.05l-5.58.2.41,11.69c-16.91-4.87-32.55-16.33-39.76-32.69-2.37-5.38-3.37-10.26-3.85-13.74,6.24-2.39,10.52-5.43,13.36-7.92l.11.13c.26.99,1.08,4.95,3.11,7.7v.07c6.37.2,10.31,3.27,12.44,7.22h.02c1.79.22,2.56.04,3.39-.06,4.08-.48,5.34-2.35,10.17-3.02,3.87-.54,7.1.1,9.03.59l-3.23,5.08-.69,4.95,5.05,1.76-2.51,7.22s-.11-.02-.16-.02c-.83-.07-3.78-.34-4.54-.14-.09.02-.19.05-.29.08Z" fill="#905f26"/>
              <path d="M187.69,217.51c-.7.34-1.41.65-2.09.94l.44-20.14,8.25,15.47c-1.65,1.3-4.13,2.61-6.6,3.73Z" fill="#7bc144"/>
              <path d="M187.69,217.51v35.77l-2.9,2.37.81-37.2c.68-.29,1.39-.6,2.09-.94Z" fill="#7bc144"/>
              <path d="M185.6,218.45l-.81,37.2-3.14,2.57s-6.05,7.7-7.15,11.54l-2.75,53.32-13.74-.55s3.85-68.16,4.4-71.45c.55-3.3,3.3-11.55,3.85-13.74.55-2.2,8.24-13.19,13.19-16.49,0,0,2.82-.98,6.15-2.4Z" fill="#905f26"/>
              <path d="M178.62,108.73c0,1.36-1.16,2.47-2.61,2.47s-2.61-1.11-2.61-2.47,1.17-2.48,2.61-2.48,2.61,1.11,2.61,2.48Z" fill="#fff"/>
            </g>
            <g>
              <rect x="1" y="1" width="427.58" height="390.23" fill="none" stroke="#231f20" stroke-miterlimit="10" stroke-width="2"/>
              <path d="M145.37,119.72c.48,3.48,1.48,8.36,3.85,13.74,7.21,16.36,22.85,27.82,39.76,32.69,2.42.7,4.86,1.26,7.31,1.68,2.26.39,4.53.66,6.79.8,4.3.28,11.58.76,19.79-1.32,4.6-1.16,9.48-3.13,14.29-6.37,18.16-12.24,22.82-32.78,21.98-40.67-.15-1.46-.5-4.76-2.74-6.05-2.81-1.61-5.56,1.67-10.45.55-.48-.11-4.43-1.07-6.59-4.4-1.93-2.96-.89-5.43-2.75-6.59-1.85-1.16-3.42.94-6.05.55-.46-.07-.86-.2-1.23-.39-3.56-1.79-3.55-8.66-9.76-12.8-.86-.58-5.65-3.77-10.99-2.75-3.31.63-4.94,2.52-6.6,1.65-2.59-1.37-2.74-7.7-2.74-7.7,0,0-1.91,2.92-5.5,6.05-.45.39-2.66,2.28-5.5,3.3-4.57,1.64-7-.31-10.44,0-2.95.26-4.92,2.05-6.87,4.67-2.92,3.92-5.79,9.71-11.82,15.11-.12.11-.25.22-.38.33-2.84,2.49-7.12,5.53-13.36,7.92" fill="none" stroke="#231f20" stroke-linecap="round" stroke-miterlimit="10"/>
              <path d="M185.6,218.45c-3.33,1.42-6.15,2.4-6.15,2.4-4.95,3.3-12.64,14.29-13.19,16.49-.55,2.19-3.3,10.44-3.85,13.74-.55,3.29-4.4,71.45-4.4,71.45l13.74.55,2.75-53.32c1.1-3.84,7.15-11.54,7.15-11.54l3.14-2.57" fill="none" stroke="#231f20" stroke-miterlimit="10" stroke-width=".5"/>
              <path d="M203.08,168.63v6.6c-1.1,11.54-7.14,36.82-7.14,36.82-.32.56-.9,1.15-1.65,1.73" fill="none" stroke="#231f20" stroke-miterlimit="10" stroke-width=".5"/>
              <path d="M239.38,216.37c3.73,1.65,7.12,2.83,7.12,2.83,4.95,3.3,12.64,14.29,13.19,16.49s3.3,10.44,3.85,13.74,4.4,71.45,4.4,71.45l-13.74.55-2.75-53.32c-1.1-3.84-7.15-11.54-7.15-11.54l-3.95-3.23" fill="none" stroke="#231f20" stroke-miterlimit="10"/>
              <path d="M222.87,166.99v6.59c1.1,11.54,7.14,36.83,7.14,36.83.41.71,1.23,1.46,2.31,2.22" fill="none" stroke="#231f20" stroke-miterlimit="10"/>
              <polygon points="194.29 213.78 186.04 198.31 185.6 218.45 184.79 255.65 183.3 323.63 210.98 322.34 242.11 320.88 240.35 253.34 239.38 216.37 238.81 194.47 232.32 212.63 216.82 256.02 194.29 213.78" fill="none" stroke="#231f20" stroke-miterlimit="10"/>
              <path d="M216.82,256.02c-2.2,8.43-13.92,29.32-13.92,29.32,1.1,1.1,7.33,14.65,7.33,15.75s.73,20.89.73,20.89l16.12-1.1-1.46-21.25c6.59-20.52,5.49-20.16,5.49-20.16l-14.29-23.45Z" fill="none" stroke="#231f20" stroke-miterlimit="10"/>
              <path d="M161.95,119.63c-2.03-2.75-2.85-6.71-3.11-7.7" fill="none" stroke="#231f20" stroke-miterlimit="10"/>
              <path d="M221.27,134.33c-1.4.16-4.69-.4-9.39-2.52-8.26-3.72-8.73-5.67-14.02-7.15-.25-.07-.54-.15-.86-.23-1.93-.49-5.16-1.13-9.03-.59-4.83.67-6.09,2.54-10.17,3.02-.83.1-1.6.28-3.39.05" fill="none" stroke="#231f20" stroke-miterlimit="10"/>
              <path d="M170.93,96.36c1.35-.36,8.63-1.54,10.99-1.1,5.48,1.03,6.02,5.17,10.99,7.69,3.4,1.73,8.87,1.25,19.79.28,4.03-.36,5.97-.71,9.34-.28,2.32.31,4.75.62,6.97,1.64,1.24.57,2.43,1.36,3.48,2.49,3.32,3.54,3.3,8.14,3.3,10.44,0,1.53-.07,4.13-.61,5.49-.01.04-.03.07-.04.1" fill="none" stroke="#231f20" stroke-miterlimit="10"/>
              <path d="M178.62,108.73c0,1.36-1.16,2.47-2.61,2.47s-2.61-1.11-2.61-2.47,1.17-2.48,2.61-2.48,2.61,1.11,2.61,2.48Z" fill="none" stroke="#231f20" stroke-miterlimit="10"/>
              <ellipse cx="220.12" cy="113.81" rx="3.02" ry="2.61" fill="none" stroke="#231f20" stroke-miterlimit="10"/>
              <path d="M220.95,138.41c.02-1.34.18-2.72.5-4.08,1.32-5.68,5.44-10.96,13.73-11.32,2.19-.1,4.68.15,7.48.83" fill="none" stroke="#231f20" stroke-miterlimit="10"/>
              <path d="M176.43,135.11c-.04-2.74-.67-5.65-2.04-8.19-2.13-3.95-6.07-7.02-12.44-7.22-2.13-.06-4.53.19-7.23.84" fill="none" stroke="#231f20" stroke-miterlimit="10"/>
              <line x1="193.77" y1="129.51" x2="193.08" y2="134.46" fill="none" stroke="#231f20" stroke-miterlimit="10"/>
              <polyline points="198.23 136.25 198.13 136.22 193.08 134.46" fill="none" stroke="#231f20" stroke-linecap="round" stroke-miterlimit="10"/>
              <path d="M187.9,154.48l.67-.02,5.58-.2,9.28-.33.07-1.72c-.49-2.95-3.58-6.39-4.54-7.14-.9-.71-2.47-1.48-3.34-1.63-.05-.01-.11-.02-.16-.02-.83-.07-3.78-.34-4.54-.14-.09.02-.19.05-.29.08-.84.24-2.23.65-2.66.95-.48.35-1.1,1.17-1.1,1.17" fill="none" stroke="#231f20" stroke-linecap="round" stroke-miterlimit="10"/>
              <line x1="190.65" y1="143.42" x2="194.15" y2="154.21" fill="none" stroke="#231f20" stroke-linecap="round" stroke-miterlimit="10"/>
            </g>
          </g>
          <g id="Keyboard">
            <rect x="30.78" y="318.41" width="361.1" height="72.82" fill="#55caf5" stroke="#231f20" stroke-miterlimit="10" stroke-width=".75"/>
            <g id="Layer_64" data-name="Layer 64">
              <ellipse cx="54.27" cy="337.78" rx="11.13" ry="8.66" fill="#516cb3" stroke="#231f20" stroke-miterlimit="10" stroke-width=".75"/>
              <ellipse cx="132.18" cy="371.99" rx="11.13" ry="8.66" fill="#516cb3" stroke="#231f20" stroke-miterlimit="10" stroke-width=".75"/>
              <ellipse cx="200.61" cy="353.03" rx="11.13" ry="8.66" fill="#516cb3" stroke="#231f20" stroke-miterlimit="10" stroke-width=".75"/>
              <ellipse cx="294.59" cy="360.45" rx="11.13" ry="8.66" fill="#516cb3" stroke="#231f20" stroke-miterlimit="10" stroke-width=".75"/>
              <ellipse cx="361.37" cy="341.49" rx="11.13" ry="8.66" fill="#516cb3" stroke="#231f20" stroke-miterlimit="10" stroke-width=".75"/>
              <ellipse cx="243.27" cy="370.55" rx="4.74" ry="5.15" fill="#516cb3" stroke="#231f20" stroke-miterlimit="10" stroke-width=".75"/>
              <ellipse cx="157.74" cy="341.49" rx="4.74" ry="5.15" fill="#516cb3" stroke="#231f20" stroke-miterlimit="10" stroke-width=".75"/>
              <ellipse cx="58.19" cy="376.94" rx="4.74" ry="5.15" fill="#516cb3" stroke="#231f20" stroke-miterlimit="10" stroke-width=".75"/>
              <ellipse cx="100.85" cy="344.79" rx="4.74" ry="5.15" fill="#516cb3" stroke="#231f20" stroke-miterlimit="10" stroke-width=".75"/>
              <ellipse cx="88.49" cy="373.64" rx="4.74" ry="5.15" fill="#516cb3" stroke="#231f20" stroke-miterlimit="10" stroke-width=".75"/>
              <ellipse cx="172.58" cy="378.79" rx="4.74" ry="5.15" fill="#516cb3" stroke="#231f20" stroke-miterlimit="10" stroke-width=".75"/>
              <ellipse cx="258.32" cy="345.82" rx="4.74" ry="5.15" fill="#516cb3" stroke="#231f20" stroke-miterlimit="10" stroke-width=".75"/>
              <ellipse cx="342.41" cy="377.97" rx="4.74" ry="5.15" fill="#516cb3" stroke="#231f20" stroke-miterlimit="10" stroke-width=".75"/>
              <ellipse cx="314.38" cy="337.57" rx="4.74" ry="5.15" fill="#516cb3" stroke="#231f20" stroke-miterlimit="10" stroke-width=".75"/>
              <ellipse cx="374.87" cy="379.21" rx="5.26" ry="4.74" fill="#516cb3" stroke="#231f20" stroke-miterlimit="10" stroke-width=".75"/>
              <ellipse cx="273.16" cy="377.76" rx="5.26" ry="4.74" fill="#516cb3" stroke="#231f20" stroke-miterlimit="10" stroke-width=".75"/>
              <ellipse cx="217.92" cy="334.07" rx="5.26" ry="4.74" fill="#516cb3" stroke="#231f20" stroke-miterlimit="10" stroke-width=".75"/>
              <ellipse cx="215.45" cy="375.29" rx="5.26" ry="4.74" fill="#516cb3" stroke="#231f20" stroke-miterlimit="10" stroke-width=".75"/>
              <ellipse cx="129.71" cy="336.54" rx="5.26" ry="4.74" fill="#516cb3" stroke="#231f20" stroke-miterlimit="10" stroke-width=".75"/>
            </g>
          </g>
        </g>
      </g>
    </g>
  </g>
</svg>