<?xml version="1.0" encoding="UTF-8"?>
<svg id="Layer_2" data-name="Layer 2" xmlns="http://www.w3.org/2000/svg" viewBox="0 0 161.97 179.93">
  <g id="outlines">
    <g id="Page_1" data-name="Page 1">
      <g id="Frame_4" data-name="Frame 4">
        <g id="planet">
          <g>
            <path d="M161.6,89.97c0,10.07-1.5,19.76-4.25,28.8l-.14-.04-.37-1.09-3.3-2.57c-2.96-1.11-7.65-2.6-13.55-3.3-7.25-.85-10.85.14-21.62.74-11.21.62-16.82.93-20.89,0-9.59-2.21-10.18-6.16-21.98-9.16-1.44-.37-6.6-1.63-13.19-2.94-2.38-.47-4.38-.83-5.8-1.09,2.09-1.21,4.37-2.55,6.9-4.04,11.52-6.79,12.95-8.8,19.78-10.99,3.86-1.23,3.23-.54,17.22-2.93,16.78-2.87,21.03-4.44,24.19-5.86,3.84-1.73,6.37-3.37,11.36-6.6,7.46-4.83,13.25-9.44,17.22-12.82l1.83-1.47.06-.02c4.2,10.85,6.53,22.81,6.53,35.38Z" fill="#1972a8"/>
            <path d="M157.2,118.73l.14.04c-4.67,15.29-12.96,28.73-23.73,39.05l-.23-.25-3.66.37c-3.44.01-8.71-.16-15.03-1.1-12.96-1.92-17.37-4.97-37.37-12.09-6.6-2.35-25.82-9.31-35.91-6.6-1.91.52-4.8,1.73-9.89,2.57-2.73.45-4.97.6-8.06,1.83-.97.38-5.53,2.19-5.32,3.54-8.13-11.24-13.88-24.71-16.37-39.45.99-.02,2.41-.03,4.1,0,5.78.11,10.05.6,11.36.74,1.01.1,12.06,1.28,19.78.36,5.32-.63,10.66-3.3,19.49-8.42,1.42.26,3.42.62,5.8,1.09,6.59,1.31,11.75,2.57,13.19,2.94,11.8,3,12.39,6.95,21.98,9.16,4.07.93,9.68.62,20.89,0,10.77-.6,14.37-1.59,21.62-.74,5.9.7,10.59,2.19,13.55,3.3l3.3,2.57.37,1.09Z" fill="#3a90ba"/>
            <path d="M56.51,99.32c-8.83,5.12-14.17,7.79-19.49,8.42-7.72.92-18.77-.26-19.78-.36-1.31-.14-5.58-.63-11.36-.74-1.69-.03-3.11-.02-4.1,0-.92-5.4-1.4-10.97-1.4-16.67,0-5.09.38-10.08,1.12-14.93l6.94,4.85c4.21,2.27,12.85,6.17,24.19,5.87,3.81-.1,11.52-.39,19.42-4.77,2.06-1.14,2.11-1.44,12.09-9.16,3.26-2.52,5.79-4.47,7.73-5.92,2.28-1.71,3.77-2.74,4.73-3.24,6.14-3.14,11.65-3.72,18.68-4.39,12.77-1.22,12.75,1.5,19.79-.37,9.38-2.49,16.35-9.16,19.42-13.92,1.06-1.66,3.03-5.22,4.76-9.53.66-1.65,1.15-3.04,1.47-4.03l.3-.24c5.81,7.18,10.57,15.41,14.05,24.4l-.06.02-1.83,1.47c-3.97,3.38-9.76,7.99-17.22,12.82-4.99,3.23-7.52,4.87-11.36,6.6-3.16,1.42-7.41,2.99-24.19,5.86-13.99,2.39-13.36,1.7-17.22,2.93-6.83,2.19-8.26,4.2-19.78,10.99-2.53,1.49-4.81,2.83-6.9,4.04Z" fill="#4b57a6"/>
            <path d="M141.02,30.19l-.3.24c-.32.99-.81,2.38-1.47,4.03-1.73,4.31-3.7,7.87-4.76,9.53-3.07,4.76-10.04,11.43-19.42,13.92-7.04,1.87-7.02-.85-19.79.37-7.03.67-12.54,1.25-18.68,4.39-.96.5-2.45,1.53-4.73,3.24,2.3-3.11,5.68-7.86,9.49-13.86,4.98-7.86,9.19-15.51,9.53-16.12,6.8-12.4,8-16.68,13.55-20.52,3.1-2.15,6.12-3.16,8.07-3.67l4.39-1.46.22-.41c9.09,5.06,17.19,11.99,23.9,20.32ZM116.9,32.99c0-4.85-4.1-8.79-9.16-8.79s-9.16,3.94-9.16,8.79,4.1,8.8,9.16,8.8,9.16-3.94,9.16-8.8Z" fill="#b6dcf4"/>
            <path d="M133.39,157.57l.23.25c-14.12,13.55-32.51,21.74-52.63,21.74-25.22,0-47.75-12.88-62.52-33.05,1.24.78,5.79.24,10.49,1.9,6.69,2.36,7.43,6.96,13.93,12.83.98.89,9.52,8.43,20.88,10.26,2.04.33,3.05.29,23.45-3.3,24.68-4.34,23.34-4.31,24.92-4.4,2.62-.14,7.17-.26,12.82-2.2,3.69-1.26,6.55-2.84,8.43-4.03Z" fill="#2b92d0"/>
            <path d="M129.73,157.94l3.66-.37c-1.88,1.19-4.74,2.77-8.43,4.03-5.65,1.94-10.2,2.06-12.82,2.2-1.58.09-.24.06-24.92,4.4-20.4,3.59-21.41,3.63-23.45,3.3-11.36-1.83-19.9-9.37-20.88-10.26-6.5-5.87-7.24-10.47-13.93-12.83-4.7-1.66-9.25-1.12-10.49-1.9-.01.01-.01,0-.01,0-.1-.14-.21-.28-.31-.42-.21-1.35,4.35-3.16,5.32-3.54,3.09-1.23,5.33-1.38,8.06-1.83,5.09-.84,7.98-2.05,9.89-2.57,10.09-2.71,29.31,4.25,35.91,6.6,20,7.12,24.41,10.17,37.37,12.09,6.32.94,11.59,1.11,15.03,1.1ZM70.36,153.73c0-4.96-4.84-8.98-10.81-8.98s-10.81,4.02-10.81,8.98,4.84,8.97,10.81,8.97,10.81-4.02,10.81-8.97Z" fill="#b6dcf4"/>
            <path d="M117.11,9.87l-.22.41-4.39,1.46c-1.95.51-4.97,1.52-8.07,3.67-5.55,3.84-6.75,8.12-13.55,20.52-.34.61-4.55,8.26-9.53,16.12-3.81,6-7.19,10.75-9.49,13.86-1.94,1.45-4.47,3.4-7.73,5.92-9.98,7.72-10.03,8.02-12.09,9.16-7.9,4.38-15.61,4.67-19.42,4.77-11.34.3-19.98-3.6-24.19-5.87l-6.94-4.85c.84-5.63,2.16-11.08,3.91-16.3,1.21.48,2.88,1.1,4.87,1.74,0,0,4.59,1.46,8.42,2.19,8.35,1.6,19.69-2.69,24.19-4.39,6.52-2.47,12.53-4.75,18.68-10.26,5.07-4.55,8.68-9.91,9.16-10.63,3.17-4.75,3.36-6.63,6.6-10.62,2.52-3.12,4.45-4.5,8.79-8.07,3.32-2.71,8.13-6.77,13.93-12.09l2.35-3.03c5.13,1.56,10.05,3.68,14.72,6.29Z" fill="#2b92d0"/>
            <path d="M107.73,24.2c5.06,0,9.16,3.94,9.16,8.79s-4.1,8.8-9.16,8.8-9.16-3.94-9.16-8.8,4.1-8.79,9.16-8.79Z" fill="#1972a8"/>
            <path d="M102.4,3.58l-2.35,3.03c-5.8,5.32-10.61,9.38-13.93,12.09-4.34,3.57-6.27,4.95-8.79,8.07-3.24,3.99-3.43,5.87-6.6,10.62-.48.72-4.09,6.08-9.16,10.63-6.15,5.51-12.16,7.79-18.68,10.26-4.5,1.7-15.84,5.99-24.19,4.39-3.83-.73-8.42-2.19-8.42-2.19-1.99-.64-3.66-1.26-4.87-1.74C16.81,24.66,46.35.38,80.98.38c7.41,0,14.59,1.11,21.41,3.2Z" fill="#1972a8"/>
            <path d="M59.56,144.75c5.97,0,10.81,4.02,10.81,8.98s-4.84,8.97-10.81,8.97-10.81-4.02-10.81-8.97,4.84-8.98,10.81-8.98Z" fill="#1972a8"/>
            <path d="M18.15,146.09c.1.14.21.28.31.42-.18-.11-.28-.24-.31-.42Z" fill="#b6dcf4"/>
          </g>
          <g>
            <path d="M18.15,146.09c-8.13-11.24-13.88-24.71-16.37-39.45-.92-5.4-1.4-10.97-1.4-16.67,0-5.09.38-10.08,1.12-14.93.84-5.63,2.16-11.08,3.91-16.3C16.81,24.66,46.35.38,80.98.38c7.41,0,14.59,1.11,21.41,3.2,5.13,1.56,10.05,3.68,14.72,6.29,9.09,5.06,17.19,11.99,23.9,20.32,5.81,7.18,10.57,15.41,14.05,24.4,4.2,10.85,6.53,22.81,6.53,35.38,0,10.07-1.5,19.76-4.25,28.8-4.67,15.29-12.96,28.73-23.73,39.05-14.12,13.55-32.51,21.74-52.63,21.74-25.22,0-47.75-12.88-62.52-33.05" fill="none" stroke="#231f20" stroke-miterlimit="10" stroke-width=".75"/>
            <path d="M18.15,146.09c-.21-1.35,4.35-3.16,5.32-3.54,3.09-1.23,5.33-1.38,8.06-1.83,5.09-.84,7.98-2.05,9.89-2.57,10.09-2.71,29.31,4.25,35.91,6.6,20,7.12,24.41,10.17,37.37,12.09,6.32.94,11.59,1.11,15.03,1.1l3.66-.37c-1.88,1.19-4.74,2.77-8.43,4.03-5.65,1.94-10.2,2.06-12.82,2.2-1.58.09-.24.06-24.92,4.4-20.4,3.59-21.41,3.63-23.45,3.3-11.36-1.83-19.9-9.37-20.88-10.26-6.5-5.87-7.24-10.47-13.93-12.83-4.7-1.66-9.25-1.12-10.49-1.9-.01.01-.01,0-.01,0-.18-.11-.28-.24-.31-.42Z" fill="none" stroke="#231f20" stroke-miterlimit="10"/>
            <path d="M1.48,106.64h.3c.99-.02,2.41-.03,4.1,0,5.78.11,10.05.6,11.36.74,1.01.1,12.06,1.28,19.78.36,5.32-.63,10.66-3.3,19.49-8.42,2.09-1.21,4.37-2.55,6.9-4.04,11.52-6.79,12.95-8.8,19.78-10.99,3.86-1.23,3.23-.54,17.22-2.93,16.78-2.87,21.03-4.44,24.19-5.86,3.84-1.73,6.37-3.37,11.36-6.6,7.46-4.83,13.25-9.44,17.22-12.82l1.83-1.47" fill="none" stroke="#231f20" stroke-miterlimit="10"/>
            <path d="M140.72,30.43c-.32.99-.81,2.38-1.47,4.03-1.73,4.31-3.7,7.87-4.76,9.53-3.07,4.76-10.04,11.43-19.42,13.92-7.04,1.87-7.02-.85-19.79.37-7.03.67-12.54,1.25-18.68,4.39-.96.5-2.45,1.53-4.73,3.24-1.94,1.45-4.47,3.4-7.73,5.92-9.98,7.72-10.03,8.02-12.09,9.16-7.9,4.38-15.61,4.67-19.42,4.77-11.34.3-19.98-3.6-24.19-5.87l-6.94-4.85-.38-.27" fill="none" stroke="#231f20" stroke-miterlimit="10"/>
            <path d="M5.15,58.64c.08.03.17.07.26.1,1.21.48,2.88,1.1,4.87,1.74,0,0,4.59,1.46,8.42,2.19,8.35,1.6,19.69-2.69,24.19-4.39,6.52-2.47,12.53-4.75,18.68-10.26,5.07-4.55,8.68-9.91,9.16-10.63,3.17-4.75,3.36-6.63,6.6-10.62,2.52-3.12,4.45-4.5,8.79-8.07,3.32-2.71,8.13-6.77,13.93-12.09l2.35-3.03.21-.27" fill="none" stroke="#231f20" stroke-miterlimit="10"/>
            <path d="M71.82,65.97s.03-.04.04-.06c2.3-3.11,5.68-7.86,9.49-13.86,4.98-7.86,9.19-15.51,9.53-16.12,6.8-12.4,8-16.68,13.55-20.52,3.1-2.15,6.12-3.16,8.07-3.67l4.39-1.46" fill="none" stroke="#231f20" stroke-miterlimit="10"/>
            <path d="M116.9,32.99c0,4.86-4.1,8.8-9.16,8.8s-9.16-3.94-9.16-8.8,4.1-8.79,9.16-8.79,9.16,3.94,9.16,8.79Z" fill="none" stroke="#231f20" stroke-miterlimit="10"/>
            <path d="M70.36,153.73c0,4.95-4.84,8.97-10.81,8.97s-10.81-4.02-10.81-8.97,4.84-8.98,10.81-8.98,10.81,4.02,10.81,8.98Z" fill="none" stroke="#231f20" stroke-miterlimit="10"/>
            <path d="M56.44,99.31s.04.01.07.01c1.42.26,3.42.62,5.8,1.09,6.59,1.31,11.75,2.57,13.19,2.94,11.8,3,12.39,6.95,21.98,9.16,4.07.93,9.68.62,20.89,0,10.77-.6,14.37-1.59,21.62-.74,5.9.7,10.59,2.19,13.55,3.3l3.3,2.57.37,1.09" fill="none" stroke="#231f20" stroke-miterlimit="10"/>
          </g>
        </g>
      </g>
    </g>
  </g>
</svg>