<?xml version="1.0" encoding="UTF-8"?>
<svg id="Layer_2" data-name="Layer 2" xmlns="http://www.w3.org/2000/svg" viewBox="0 0 443.25 492.81">
  <g id="outlines">
    <g id="Page_3" data-name="Page 3">
      <g id="Frame_12" data-name="Frame 12">
        <polygon points="271.65 115.28 3.85 490.85 3.85 1.73 268.4 .85 271.65 115.28" fill="#61559f" stroke="#231f20" stroke-miterlimit="10"/>
        <polygon points="442.48 492.19 .97 491.14 271.65 115.28 441.1 116.46 442.48 492.19" fill="#b4bcc2" stroke="#231f20" stroke-miterlimit="10"/>
        <polygon points="442.75 116.46 271.65 115.28 268.35 .85 442.75 .85 442.75 116.46" fill="#242751" stroke="#231f20" stroke-miterlimit="10"/>
        <g id="Hair">
          <polygon points="268.35 .85 3.85 151.51 3.85 398.4 269.31 83.49 268.35 .85" fill="#faf178" stroke="#231f20" stroke-miterlimit="10"/>
          <rect x="27.37" y="193.74" width="40.88" height="8.21" fill="#3d3c32" stroke="#231f20" stroke-miterlimit="10"/>
          <rect x="66.04" y="183.18" width="31.48" height="29.91" fill="#3d3c32" stroke="#231f20" stroke-miterlimit="10"/>
          <rect x="16.88" y="254.72" width="40.88" height="8.21" fill="#3d3c32" stroke="#231f20" stroke-miterlimit="10"/>
          <rect x="55.54" y="244.17" width="31.48" height="29.91" fill="#3d3c32" stroke="#231f20" stroke-miterlimit="10"/>
          <rect x="28.48" y="147.41" width="40.88" height="8.21" fill="#3d3c32" stroke="#231f20" stroke-miterlimit="10"/>
          <rect x="67.14" y="136.86" width="31.48" height="29.91" fill="#3d3c32" stroke="#231f20" stroke-miterlimit="10"/>
          <rect x="124.59" y="113.4" width="67.39" height="17.59" fill="#3d3c32" stroke="#231f20" stroke-miterlimit="10"/>
          <rect x="131.77" y="124.54" width="8.29" height="19.35" fill="#3d3c32" stroke="#231f20" stroke-miterlimit="10"/>
          <rect x="153.59" y="73.82" width="67.39" height="17.59" fill="#3d3c32" stroke="#231f20" stroke-miterlimit="10"/>
          <rect x="160.77" y="84.96" width="8.29" height="19.35" fill="#3d3c32" stroke="#231f20" stroke-miterlimit="10"/>
          <rect x="110.5" y="166.18" width="67.39" height="17.59" fill="#3d3c32" stroke="#231f20" stroke-miterlimit="10"/>
          <rect x="117.68" y="177.32" width="8.29" height="19.35" fill="#3d3c32" stroke="#231f20" stroke-miterlimit="10"/>
          <polygon points="251.7 89.48 248.64 90.94 246.78 25.77 249.85 24.31 251.7 89.48" fill="#3d3c32" stroke="#231f20" stroke-miterlimit="10"/>
          <polygon points="254.58 96.94 247.25 100.44 246.91 88.55 254.24 85.06 254.58 96.94" fill="#faf178" stroke="#231f20" stroke-miterlimit="10"/>
          <polygon points="263.07 75.5 260.01 76.96 258.15 11.79 261.22 10.33 263.07 75.5" fill="#3d3c32" stroke="#231f20" stroke-miterlimit="10"/>
          <polygon points="265.95 82.96 258.62 86.46 258.28 74.57 265.61 71.08 265.95 82.96" fill="#faf178" stroke="#231f20" stroke-miterlimit="10"/>
          <polygon points="240.26 101.19 237.2 102.65 235.34 37.48 238.41 36.02 240.26 101.19" fill="#3d3c32" stroke="#231f20" stroke-miterlimit="10"/>
          <polygon points="243.14 108.65 235.81 112.15 235.47 100.26 242.8 96.77 243.14 108.65" fill="#faf178" stroke="#231f20" stroke-miterlimit="10"/>
          <polygon points="269.31 83.49 3.85 398.4 34.55 406.61 269.31 107.07 269.31 83.49" fill="#6d6f71" stroke="#231f20" stroke-miterlimit="10"/>
        </g>
        <rect x="279.25" y="8.43" width="152.45" height="64.51" fill="#231f20" opacity=".76" stroke="#231f20" stroke-miterlimit="10"/>
        <g id="Person">
          <g id="Hair-2" data-name="Hair">
            <path d="M181.51,124.17c-.41,3.16-3.69-2.1-4.91-1.97-1.22.13-3.25,1.13-4.47.48s-4.06-3.46-5.69-4.07-6.5,3.04-6.5,3.04l-4.06,8.24-4.06,8.24s-7.31,1.57-8.93,2.53-6.9,10.11-6.9,10.11c0,0-3.25,8.93-3.25,13.61s-2.84,17.47-2.84,17.47c0,0-4.06,6.68-4.06,9.02s-1.22,16.52-1.22,16.52l2.03,17.73,1.62,10.75s.41,6.2.41,14.78-.41,24.23,0,28.09c.41,3.86.41,21.02,1.22,23.27.81,2.25,3.25,18.37,3.25,18.37l.41,13.22.41,10.88-2.44,10.41-2.03,12.7s0,4.68.41,8.54c.41,3.86,3.65,19.89,3.65,19.89,0,0-.41-.74.41,6.98.81,7.71-2.44,29.13-2.44,31.47s-1.62,23.58-1.62,23.58l2.03,30.99,34.92-.65,87.72-13.38s-2.44-3.64-1.22-8.45c1.22-4.81,1.62-16.56,1.62-16.56,0,0-.41-4.64-3.25-7.45-2.84-2.81-8.93-16.2-8.93-20.1s.41-13.31.41-13.31l3.25-19.86,5.69-21.68,1.62-11.1-1.62-10.75s-1.22-.65-1.22-3.77-2.84-18.42-2.84-18.42l-3.25-10.57-1.22-16.25,2.44-11.97s1.62-.18,0-8.58c-1.62-8.41-1.62-16.21-1.62-16.21l2.84-11.23,1.62-17.34s-.81-10.05-1.62-12.31-4.06-11.26-4.06-11.26l-1.22-12.35s-.41-6.98-.41-12.44-.41-14.78-.41-14.78l-1.22-10.79-4.87-8.06s-3.25-2.77-5.69-4.07c-2.44-1.3-6.9-3.93-8.12-5.36s-4.06-5.02-4.87-7.28c-.81-2.25-2.84-5.93-4.06-8.92s-2.84-5.93-4.87-5.71-6.09-.12-7.72.83-6.9,3.87-8.53,4.04-5.69-1.73-5.69-1.73l-4.02,2.94Z" fill="#fff" stroke="#231f20" stroke-miterlimit="10"/>
            <path d="M138.42,487.56s.81-1.65,0-3.9-1.62-6.07-2.03-9.92.81-13.35.81-13.35l1.62-11.88s1.22-6.37,1.22-10.27v-21.85l-1.22-17.03v-18.72l-.41-13.22,2.84-21.37.41-17.99s-.41-7.76-.41-10.1-.81-10.05-.81-10.05c0,0-1.22-10.01-2.84-14.52-1.62-4.51-1.62-7.63-1.62-7.63v-9.36l1.22-7.15,2.03-9.58s-.81-.69-.81-6.15-.41-10.88-.81-14.74c-.41-3.86-2.84-12.96-2.84-12.96,0,0-1.62-12.31-2.03-16.16-.41-3.86-.81-24.88-.81-24.88l3.65-5.86,1.62-7.98,4.06-11.36,7.31-7.81,7.72-7.86,3.65-3.52,2.44-6.51s.41-3.94,3.65-5.86c3.25-1.91,4.87-2.09,4.87-2.09l2.03,6.02-4.47,6.72-6.5,6.94-4.47,8.28s-2.03,1-3.25,1.91c-1.22.91-10.15,22.16-10.15,22.16l-3.25,10.49s-2.84,1.87-3.65,8.2c-.81,6.33-1.62,17.34-.81,19.59s5.28,20.49,5.28,20.49l.81,14.74.81,10.84s-2.84,22.93-.81,29.74c2.03,6.8,4.87,16.64,4.87,16.64l.81,13.96v9.36s-1.22,10.27-.41,14.09c.81,3.81,1.22,6.11,1.22,6.11v3.9c0,3.12,1.42,24.81,1.42,24.81l-2.44,18.99-2.19,13.72c-.56,3.51-.71,7.18-.45,10.73l.81,10.86-1.83,23.6-1.11,3.31c-2.3,6.87-2.41,15.46-.27,22.06l1.04,4.83-5.55-1.48Z" fill="none" stroke="#231f20" stroke-miterlimit="10"/>
            <path d="M161.84,405.96c.81,3.03,1.35-.15,1.9,10.2.54,10.34.81,10.84,0,14.56-.81,3.73-2.71,16.42-2.71,17.98s-.54,2.66-.27,6.27c.27,3.61,1.62,8.67,2.17,10.69s.54,12.94.54,12.94l-1.35,8.99" fill="none" stroke="#231f20" stroke-miterlimit="10"/>
            <path d="M176.45,266.18s.01-.68-1.34,3.63c-1.35,4.31-1.9,3.33-1.62,6.94s.81,5.11,1.35,6.62.81,7.71.81,7.71c0,0,0,3.12-.54,5.78-.54,2.66-.81,6.33-.27,7.83s1.08,7.68,1.08,7.68v5.2l-.81,13.61" fill="none" stroke="#231f20" stroke-linecap="round" stroke-miterlimit="10"/>
            <path d="M182.42,131.71c0,1.56-.81,4.77.81,6.15,1.62,1.38,1.9,1.88,3.25,2.25s1.62,1.38,4.33,1.61,3.79.11,4.33,1.61.27,5.17.81,7.71.81,4.07,1.62,5.55.81,1.99,2.17,2.89,2.98,1.24,3.79,1.67c.81.43,3.79,6.87,3.79,6.87,0,0,0,6.24,2.17,7.05,2.17.81,3.25,1.73,4.87,2.07,1.62.34,3.6,1.68,4.68,1.56,1.08-.12-2.51.8-.62-1.48,1.9-2.29,5.69-3.22,2.17-4.4-3.52-1.18-1.9,3.33-3.52-1.18-1.62-4.51-2.44-5.98-2.98-7.48s-.81-3.03-1.35-5.06-.54-1.5-1.35-4.53c-.81-3.03-1.08-3-2.44-4.42s-1.35-.89-2.98-1.24c-1.62-.34-1.62,1.22-2.98-.2-1.35-1.41-1.62.18-2.44-2.86-.81-3.03.27,1.53-.81-3.03-1.08-4.56.81-1.13-1.08-6.12-1.9-5,.81-3.73-2.71-4.91s-3.52-1.18-4.87,0c-1.35,1.19-.81,1.65-2.71,1.85-1.9.2,0,1.56-2.71.81s-3.25-2.77-3.25-2.77Z" fill="none" stroke="#231f20" stroke-linecap="round" stroke-miterlimit="10"/>
            <path d="M201.37,259.69s1.9,2.92,1.9,5.52-.27,6.79-.54,9.42c-.27,2.63-.81,7.37-.54,9.42.27,2.05,1.08,1.96,2.17,6.01s1.9.84,1.08,7.16c-.81,6.33-1.62,7.46-1.62,10.06s.54,7.22.54,11.38" fill="none" stroke="#231f20" stroke-linecap="round" stroke-miterlimit="10"/>
            <path d="M208.41,251.13c1.08,3.52,1.62,3.99,1.9,6.56.27,2.57-1.08,13.64-1.08,13.64v7.8s.54,3.58,2.17,6.01c1.62,2.43,2.71,14.27,2.71,14.27l-.54,9.94s-.54,4.74.27,6.21,2.17,8.61,2.17,10.69-2.44,8.85-2.44,8.85c-1.87,8.4-4.08-.59-1.87,10.74s2.21,11.73,1.84,17.98,1.1,13.29,2.58,17.2-.37,11.34-.37,14.07.37,3.52,1.84,10.16c1.47,6.65.74,12.9.74,17.98s-1.1,3.91,0,14.07,1.1,10.95.37,15.25-1.1,5.86,1.1,9.77c2.21,3.91,1.47,9.38,1.47,9.38v7.82" fill="none" stroke="#231f20" stroke-linecap="round" stroke-miterlimit="10"/>
            <path d="M243.06,476.24s-.54-2.02-1.62-8.67,0,0-2.98-13.72c-2.98-13.72,0,0,0-12.48s.27-2.11.81-15.69c.54-13.58.81-4.25,1.62-11.1.81-6.85,0,0,.27-3.15.27-3.15,1.9-13.21,1.9-13.21l-1.35-20.66s-1.35-14.94-2.71-28.31c-1.35-13.38,0-2.6-2.17-14.85-2.17-12.25-1.08-6.12-.81-17.08.27-10.95.27-5.23,1.35-13.67,1.08-8.44.27-5.23,1.35-10.55,1.08-5.32,1.35-6.39.54-17.22-.81-10.84-.27-6.73-1.35-12.34s-1.9-9.68-3.25-15.25c-1.35-5.58-1.62-12.31-4.6-24.99-2.98-12.68-.81-2.51-1.08-8.21-.27-5.69-.27-10.37-.54-16.07-.27-5.69-.27-9.33-.54-15.55-.27-6.21-.81-8.75-1.08-13.41-.27-4.65-2.71-9.07-2.71-9.07,0,0-4.33-6.29-5.69-8.23s-4.06-4.24-5.41-5.14-4.06-5.28-4.06-5.28c0,0-1.62-6.59-3.52-7.94s-3.31-1.48-2.71-3.87c1.08-4.28,2.44-3.9,4.33-3.59s4.06,4.76,4.06,4.76c0,0-.54-.46,1.9,5,2.44,5.46,2.17,6.01,5.14,7.77s7.31,9.09,8.12,10.04c.81.95,1.35,1.93,3.79,5.83s2.44-1.82,2.71,8.55c.27,10.37.54,3.06.27,17.66s-4.06,4.6.27,17.14c4.33,12.54,5.69,20.19,7.31,25.74,1.62,5.55,1.62,13.35,1.9,16.96s.54,7.22.54,15.03,0,27.57-1.08,38.09c-1.08,10.52-2.44,2.86-1.08,14.16,1.35,11.3,2.44,24.18,3.52,31.35,1.08,7.16,1.35,5.58.54,16.07-.81,10.49,1.62-3.3-1.35,13.67-2.98,16.97-4.6,27.54-5.41,34.39-.81,6.85-2.71,3.93-2.71,19.02s-1.35,13.67,0,20.29c1.35,6.62,0-7.28,1.35,6.62,1.35,13.9,3.25,22.53,3.25,22.53" fill="none" stroke="#231f20" stroke-linecap="round" stroke-miterlimit="10"/>
            <path d="M239.54,396s-6.5-16.46-7.85-18.92c-1.35-2.45-1.9-9.68-1.9-24.24s.81-2.69,2.17-21.56c1.35-18.87,0-6.24-2.44-13.78s-.81-1.47-2.17-11.73c-1.35-10.26.54-7.34.81-15.17.27-7.83.81-10.49.54-15.66s-2.17-13.81-5.14-31.69c-2.98-17.88-.81-7.19-1.08-12.89-.27-5.69,1.08-13.12,2.17-21.56,1.08-8.44.27-4.19.81-7.37s0-2.6,0-7.28-1.13-6.78-3.25-6.41c-3.17.55-4.28,1.33-4.64-1.02l-.37-2.35-4.05.78" fill="none" stroke="#231f20" stroke-linecap="round" stroke-miterlimit="10"/>
            <path d="M227.88,479.15s.37-1.17,2.58-5.47,1.47-3.13-3.31-9.77c-4.79-6.65-1.84-5.08-1.47-12.12.37-7.04.37-5.47-1.84-9.38s-3.68-12.9-2.95-16.03,4.79-11.34,3.68-17.98.37-8.21.37-12.9.74-9.38-.74-14.46.37-11.73,1.1-17.98,0-5.86-3.63-11.92c0,0-1.08-3.52-1.35-9.74-.27-6.21,0-4.68.81-12.05.81-7.37.27-6.79,0-11.44-.27-4.65-.54-9.3-2.44-15.34s-1.62-11.79-2.44-18.98c-.81-7.19,0-6.24,0-8.32s1.62-16.82,1.62-19.94-.27-6.73-.54-10.86c-.27-4.13-.25-4.42-2.44-7.02-2.86-3.4-4.33-7.7-4.33-9.26s1.1-3.91-.37-5.08-3.31,1.95-.37-5.08,1.47-10.56,1.47-10.56l-2.58-5.08" fill="none" stroke="#231f20" stroke-linecap="round" stroke-miterlimit="10"/>
            <path d="M157.92,367.34l-2.3-8.56v-16.64s0-10.4-.27-13.49c-.27-3.09-1.35-7.14-1.35-9.22s.27-8.35.54-13.58.54-10.98.54-14.62,0-7.28-.27-8.81-.81-4.59-1.08-8.21-1.08-8.21-1.35-14.42c-.27-6.21.54-4.22,1.08-6.88s.81-3.73.81-3.73c0,0-5.18-8.51-3.34-12.81s-2.21-11.73-.37-16.81,0-4.69-1.47-7.82-1.47-7.04-2.58-11.73,1.1-5.86,2.95-16.03l1.1-5.08s6.63,34.79,7.36,36.75.74-1.17.74,3.91-.74,7.43-1.1,9.38-.74,1.95-.37,5.08,4.42,10.52,4.42,10.52c0,0,2.95,26.62,2.95,31.31s.74,15.25.74,16.42-1.1,10.56-1.1,12.51-1.1,5.86-1.1,10.16-.37,6.26.37,9.77.74,5.86,1.1,11.34c.37,5.47-4.79,32.45-4.79,35.97s-.37,10.16-.37,11.34-2.21,50.43-4.05,55.51-4.79,12.51-4.79,14.46-1.84,7.04-1.84,13.68-1.1,21.89-1.1,21.89c0,0-1.47-15.25-1.47-20.72s.37-3.52.74-8.6,1.1-4.3,1.47-6.65,1.47-8.6,1.47-12.9.74-7.43,1.47-13.29c.74-5.86,2.58-9.38,2.58-16.81s.74-9.38,0-15.25,0-7.82,1.1-17.59,1.1-6.65,2.21-13.68,1.47-4.69,4.12-15.66c0,0,0-4.68-.54-8.26-.54-3.58,0-5.2.54-8.9s.27-5.75-.54-12.42c-.81-6.67-.81-3.03-.81-9.79s.81-5.81,2.17-11.68c1.35-5.87,1.08-5.32.54-10.98-.54-5.66-1.35-11.3-1.35-11.3l2.44-9.11,1.35-3.79" fill="none" stroke="#231f20" stroke-miterlimit="10"/>
            <path d="M204.35,318.67s-2.18-9.19,0,0,1.44,10.75,2.18,14.66-.37,8.99-.37,12.12-.74,5.86.74,10.95,1.47,16.42,1.47,17.59,3.31,11.34,3.31,11.34l.25,3c-.81,2.43.54,13.2.54,13.2,0,0-.54,6.82-.54,8.9s-.54,6.3,1.08,10.81c1.62,4.51,1.35,9.74.81,13.96-.54,4.22-1.62,12.66-1.62,15.26s2.71,12.71,2.71,12.71l-.54,11.5-1.35,6.39" fill="none" stroke="#231f20" stroke-linecap="round" stroke-miterlimit="10"/>
            <path d="M170.07,209.01c-1.47,3.13-3.31-2.35-1.47,4.3s2.21,8.21,1.1,9.77-.37,11.73-.37,11.73" fill="#fff" stroke="#231f20" stroke-miterlimit="10"/>
            <path d="M163.8,206.31c-2.57,5.83-4.41,3.87-2.2,7.39s.37,8.99.37,8.99c0,0,.37,9.77.74,11.34s1.84,9.77,1.84,9.77" fill="#fff" stroke="#231f20" stroke-miterlimit="10"/>
            <path d="M197.91,210.13s-3.09-8.66,0,0c3.09,8.66,4.2,10.22,4.2,12.18s-1.1.78,1.84,5.47,3.68,5.47,3.31,7.43.37,7.04.37,7.04" fill="#fff" stroke="#231f20" stroke-miterlimit="10"/>
            <path d="M212.42,195.33c1.84,1.17,2.95,1.95,2.95,4.69s-1.47,3.13,0,9.38c1.47,6.26,1.84,11.34,2.21,13.29s0,5.86,1.84,10.56.37,12.12,1.47,16.42,4.79,18.77,4.79,18.77c0,0-1.84,13.29-1.47,17.59s1.1,21.5,1.1,29.71-.37,6.26-.37,14.07-2.58,10.95-.37,16.03,1.1,16.03,1.84,19.94,1.1,11.34,2.95,16.03,2.21,13.29,2.21,25.02-10.68,19.55-6.26,26.97c4.42,7.43,5.16,16.81,5.89,21.5s0,4.3,2.95,12.12,1.1,10.56,1.1,10.56" fill="#fff" stroke="#231f20" stroke-miterlimit="10"/>
            <path d="M214.91,237.43c1.19,2.86-1.39,5.6-1.39,5.6" fill="#fff" stroke="#231f20" stroke-miterlimit="10"/>
          </g>
          <g id="Face">
            <path d="M149.59,159.86s-.05,6.2,1.19,16.04c.38,3.01.52,4.97.62,6.5.16,2.46.22,3.76,1.03,6.41.29.94,1.65,5.26,4.86,10.07,1.48,2.22,3.29,4.95,6.51,7.43,3.31,2.56,6.39,3.53,8.62,4.21,6.34,1.93,11.63,1.4,19.71.59,3.52-.35,4.84-.69,5.78-.98,1.94-.6,6.46-2.04,10.09-6.26,3.42-3.98,4.3-8.39,4.95-11.83.8-4.26.41-6.42-.09-14.67-.63-10.26-6.7-10.18-6.7-10.18,0,0,2.02-5.74.37-4.69-.83.53.1-.23-1.84-.39-3.23-.27-1.65-2.09-4.02-2.34-3.78-.4-6-.64-7.98-2.05-.88-.63-1.91-2.42-3.94-5.97-3.48-6.09-5.23-9.14-5.59-10.07-.5-1.28-1.43-2.33-2.11-3.52-.2-.36-1.01-.98-1.01-.98l-1.65.98s-1.08,1.52-1.19,1.76c-.69,1.5-.91,2.74-1.1,3.62-.18.83-.64,2.97-1.56,4.89-.56,1.17-1.41,2.22-3.12,4.3-2.05,2.5-2.98,3.19-3.48,3.52-.66.44-1.29.72-2.57,1.27-1.54.67-3.37,1.46-5.87,2.05-1.32.31-2.64.63-4.4.68-3.67.12-5.5-.39-5.5-.39Z" fill="#8d5923" stroke="#231f20" stroke-miterlimit="10"/>
            <path d="M155.09,162.01c.92-3.96,4.47-5.64,4.77-5.77.57-.26,2.84-1.24,5.32-.39.56.19,1.33.55,4.49,3.81,3.23,3.34,3.32,3.89,4.86,4.79,2.24,1.31,4.29,1.44,4.86,1.47,1.52.06,2.66-.25,3.48-.49.51-.14,2.91-.86,5.5-3.03.9-.76.64-.69,2.02-1.96,2.09-1.92,3.14-2.87,4.58-3.42,2.07-.79,3.94-.38,4.77-.2,3.53.77,5.61,3.36,6.6,4.6.88,1.1,2.32,2.88,2.84,5.67.45,2.38.02,4.37-.28,5.77-.41,1.9-1.03,3.31-1.38,4.01-1.12,2.3-2.47,3.73-2.93,4.21-1.06,1.08-2.52,2.57-4.86,3.23-.65.18-2.38.65-4.4.1-2.62-.72-3.32-2.49-8.07-5.87-.61-.43-1.72-1.2-3.12-1.08-.43.04-.87.16-2.02.78-1.88,1.02-2.54,1.69-3.76,2.45-.57.35-2.07,1.26-3.94,1.66-2.21.47-3.98.04-5.32-.29-1.2-.3-3.88-.99-6.42-3.23-1.12-.99-2.85-1.7-5.23-5.48-1.58-2.52-1.9-4.13-2.11-4.69-.61-1.62-.87-4.09-.28-6.65Z" fill="#fff" stroke="#231f20" stroke-miterlimit="10"/>
            <ellipse cx="166.14" cy="169.59" rx="2.52" ry="3.86" fill="none" stroke="#231f20" stroke-miterlimit="10"/>
            <ellipse cx="196.99" cy="169.73" rx="2.57" ry="3.42" fill="none" stroke="#231f20" stroke-miterlimit="10"/>
            <line x1="183.42" y1="186.56" x2="183.42" y2="192.62" fill="none" stroke="#231f20" stroke-miterlimit="10"/>
            <path d="M178.38,198.04c3.15,3.02,7.76,3.21,11.45.9-2.8,3.69-9.37,3.36-11.45-.9h0Z" fill="#231f20"/>
          </g>
        </g>
        <g>
          <g>
            <polygon points="442.2 107.07 442.11 115.29 440.83 115.28 398.02 115.28 400.39 105.9 442.2 107.07" fill="#808285"/>
            <path d="M413.8,139.95s-.08-.01-.12-.01c-.96,0-1.74.69-1.74,1.56s.78,1.57,1.74,1.57,1.74-.7,1.74-1.57-.71-1.49-1.62-1.55ZM420.72,156.83s-.02.09-.02.13c-.07,1.01.53,1.9,1.33,1.96.81.05,1.52-.73,1.59-1.75s-.53-1.9-1.34-1.96c-.78-.05-1.46.66-1.56,1.62ZM442.11,115.29l-1.01,95.06h-.04s.04-21.72.04-21.72c-.68-1.88-1.89-4.55-4.12-7.04-8.15-9.11-21.95-7.06-29.98-5.87-6.01.9-17.52,2.61-24.76,12.03-1.95,2.54-2.94,4.78-3.29,5.57-.38.84-.86,1.86-1.44,3.04l20.52-81.09h44.09Z" fill="#808285"/>
            <polygon points="441.1 358.22 441.1 492.02 305.22 492.02 305.22 358.22 439.45 358.22 441.1 358.22" fill="#8d5923"/>
            <path d="M441.1,334.76v23.47c-43.64-3.51-87.29-7.04-130.94-10.56l-2.2.29-.55-6.16c-.32-4.13-.36-10.1,1.1-17.02.64-3.01,3.65-16.05,14.3-27.58l118.01,32.28h.01c.24,2.06.29,3.85.27,5.29Z" fill="#8d5923"/>
            <path d="M441.1,188.63l-.04,21.73-69.55,9.67,5.99-23.66c.58-1.19,1.06-2.2,1.44-3.04.35-.79,1.34-3.03,3.29-5.57,7.25-9.43,18.76-11.14,24.76-12.03,8.03-1.19,21.83-3.24,29.98,5.87,2.23,2.49,3.44,5.16,4.12,7.04Z" fill="#8d5923"/>
            <path d="M441.06,210.36l-.23,119.11h-.01c-.16-1.45-.42-3.03-.82-4.7-6.55-27.24-40.4-38.28-48.96-41.07-8.52-2.78-19.13-6.11-33.01-4.11-6.16.89-22.12,3.44-35.21,17.61,31.41-56.53,48.61-88.34,54.68-100.82l-5.99,23.66,69.55-9.67Z" fill="#8d5923"/>
            <path d="M440.82,329.47l-118.01-32.28c13.09-14.17,29.06-16.72,35.21-17.61,13.88-2,24.49,1.33,33.01,4.11,8.56,2.8,42.41,13.84,48.96,41.07.4,1.67.66,3.25.82,4.7Z" fill="#8d5923"/>
            <polygon points="427.2 357.5 305.22 358.22 310.16 347.66 427.2 357.5" fill="#231f20"/>
            <path d="M420.72,156.83c.1-.96.78-1.68,1.56-1.62.81.06,1.41.94,1.34,1.96s-.78,1.8-1.59,1.75c-.8-.06-1.4-.95-1.33-1.96,0-.04.01-.09.02-.13Z" fill="#808285"/>
            <path d="M413.8,139.95c.91.05,1.62.72,1.62,1.55s-.78,1.57-1.74,1.57-1.74-.7-1.74-1.57.78-1.56,1.74-1.56c.04,0,.08,0,.12.01Z" fill="#808285"/>
            <path d="M285.99,228.86c.71,2.05.9,4.21.53,6.31-.18,1.06-1.05,1.93-2.25,2.31l-1.11.33c-1.45.44-3.04.44-4.48-.01l.31.67c.87,1.86.86,3.93-.03,5.78,0,0-.14.23-.6.51-.45.29-1.22.64-2.48.86-2.52.47-6.79.47-7.56,0-.13-.07-.34-.23-.59-.46-2.34-2-3.73-4.61-4.04-7.38l-.12-1.13-.28-3.92-.84-4.38-35.83,23.49-20.51-1.36c-.21-5.73-.36-10.73-.48-14.77v-.68l21.27,2.75,29.95-14.73c1.47-1.64,2.37-2.77,2.97-3.6,1.19-1.62,3.32-2.62,5.64-2.62,2.49,0,4.97.27,7.38.78,2.39.51,4.71,1.28,6.9,2.28.23.11.43.25.59.42.86.92,3.75,4.03,4.23,4.8.27.46.89,2.14,1.44,3.73Z" fill="#8d5923"/>
            <path d="M234.54,466.96c.22,5.43.17,13.23-1.21,22.72h-26.12v-.46s1.67-2.93,2.23-3.22c.56-.31,3.92-4.76,3.92-4.76,0,0,2.98-3.37,5.03-5.06s6.16-3.38,6.53-4.3c.38-.92,2.43-2,3.92-2.77,1.49-.76,5.6-2.15,5.6-2.15h.09Z" fill="#1c4520"/>
            <path d="M234.54,466.96h-.09s-4.1,1.39-5.6,2.15c-1.49.77-3.54,1.85-3.92,2.77-.37.92-4.47,2.62-6.53,4.3s-5.03,5.06-5.03,5.06c0,0-3.36,4.45-3.92,4.76-.56.3-2.23,3.22-2.23,3.22,0,0-.94-2.77-1.31-3.38-.37-.61-1.68-3.06-2.42-4.29-.25-.4-1.31-1.3-2.75-2.36.32-.2.62-.4.88-.56,1.5-.93,1.68-1.69,2.99-3.84,1.3-2.15.93-3.98,1.12-5.68.18-1.69.18-2.91-1.68-5.52-1.83-2.55-3.3-3.2-7.94-5.98l.17-.28c1.08.02,3.69.2,6.09-.34,3.36-.77,6.91-1.69,8.21-2.31,1.31-.61,4.1-2.15,4.1-2.15l2.54-2.54,16.68,11.14.25-.02c.12,1.35.23,2.73.31,4.16.03.53.06,1.1.09,1.69Z" fill="#0c9948"/>
            <path d="M217.21,449.99l-11.59-7.74-9.35,15.08c-.43-.01-.62.01-.44.12l.27.16-4.65,7.51c.03-3.78.08-7.33.14-10.66h.04l13.15-22.79,27.43,18.64.33-.07c.69,3.42,1.23,6.98,1.6,10.88l-.25.02-16.68-11.14Z" fill="#6dbe45"/>
            <path d="M186.81,393.44c-2.1,37.76-2.57,54.25-2.18,58.94.02.17.09,1.07.2,2.46h-.01l-20.06-26.39-17.44,27.11c.1-.42.2-.84.31-1.29,3.04-12.58,8.9-38.21,15.16-73.24,0,0,2.02-11.26,3.92-26.71.84-6.79,1.54-13.46,2.13-19.95,5.42-7.58,10.23-22.46,11.86-24.71,1.68-2.31,3.35-10.59,2.23-13.36-1.11-2.75-3.35-14.73-3.35-14.73l15.11-19.34,6.72,22.1c-2.24,4.99-3.37,10.24-3.37,15.5,0,3.41.47,6.81,1.42,10.15.03.12.06.22.09.33,1.94,6.83,5.49,13.28,10.44,18.98l.65.75c1.4,16.93,3.14,33.77,5.33,48.68,1.4,9.58,2.1,14.37,3.35,20.72,4.82,24.35,10.28,36.27,13.2,50.8l-.33.07-27.43-18.64-13.15,22.79h-.04c.41-23.62,1.34-35.93,2.56-40.75.26-1.04,1.35-4.94,0-9.67-1.33-4.66-4.46-8.16-7.28-10.59h-.06Z" fill="#faed24"/>
            <path d="M217.21,449.99l-2.54,2.54s-2.79,1.54-4.1,2.15c-1.3.62-4.84,1.54-8.21,2.31-2.39.54-5,.36-6.09.34l9.35-15.08,11.59,7.74Z" fill="#1c4520"/>
            <path d="M210.65,330.03l-.65-.75c-4.95-5.7-8.5-12.15-10.44-18.98-.03-.11-.06-.21-.09-.33-.95-3.34-1.42-6.75-1.42-10.15,0-5.26,1.13-10.52,3.37-15.5l-6.72-22.1,7.88-27.99,2.75-9.76s.08,4.15.28,11.27v14.73l.48.03c.74,20.37,2.11,50.1,4.55,79.53Z" fill="#6dbe45"/>
            <path d="M207.21,489.22v.46h-15.87v-6.3h1.68c.75,0,3.36-1.69,3.91-1.84.46-.13,2.31-1.4,3.78-2.36,1.44,1.06,2.5,1.96,2.75,2.36.74,1.23,2.05,3.68,2.42,4.29.37.62,1.31,3.38,1.31,3.38Z" fill="#1c4520"/>
            <path d="M206.1,250.49l-.48-.03v-14.73c.12,4.04.27,9.03.48,14.77Z" fill="#8d5923"/>
            <path d="M204.04,463.58c1.86,2.61,1.86,3.83,1.68,5.52-.19,1.7.18,3.53-1.12,5.68-1.31,2.16-1.49,2.91-2.99,3.84-.26.16-.56.35-.88.56-2.88-2.1-7.25-4.82-9.35-5.27.02-3.06.04-5.99.07-8.8l4.65-7.51c4.63,2.78,6.11,3.43,7.94,5.98Z" fill="#1c4520"/>
            <path d="M202.58,234.21l-7.88,27.99-17.99-26.63c.57-.15,1.94-.38,2.31-.62.37-.22,1.03-2.91,1.03-3.14s.74-20.41.74-20.41l12.13.38s1.77,17.34,2.23,18.18c.47.84,1.68,2.53,2.33,2.91.66.38,4.57,1.15,4.57,1.15l.47.16h.04Z" fill="#8d5923"/>
            <path d="M200.72,479.18c-1.47.96-3.32,2.23-3.78,2.36-.55.15-3.16,1.84-3.91,1.84h-1.68c0-3.29.01-6.44.03-9.47,2.1.46,6.47,3.17,9.35,5.27Z" fill="#0c9948"/>
            <path d="M171.39,254.79l-.24-3.07c-.59-16.84-1.64-26.8-1.64-26.8l7.21,10.67,17.99,26.63-15.11,19.34s2.24,11.98,3.35,14.73c1.12,2.77-.55,11.05-2.23,13.36-1.63,2.24-6.45,17.13-11.86,24.71.11-1.25.22-2.49.32-3.72,2.53-29.82,2.65-55.93,2.11-74.73.06-.04.13-.09.19-.14l-.08-.97Z" fill="#6dbe45"/>
            <path d="M185.84,476.93c.15,7.88-.09,12.29-.09,12.29l-22.2.25v-.25s2.98-1.23,3.54-1.85c.56-.61,3.92-4.45,4.66-5.22.75-.77,4.47-3.06,5.6-3.98,1.12-.93,2.43-1.23,8.21-1.23h.28Z" fill="#0c9948"/>
            <path d="M185.84,476.93h-.28c-5.78.01-7.09.31-8.21,1.24-1.12.92-4.84,3.21-5.6,3.98-.74.77-4.1,4.61-4.66,5.22-.56.62-3.54,1.85-3.54,1.85,0,0-.19-1.7-.75-3.53-.56-1.85-.93-2.61-2.79-5.83-.36-.62-.66-1.16-.93-1.63,2.03-1.07,3.84-2.73,4.28-2.98.56-.3.75-2.3.75-3.21,0-.81.71-1.38.27-3.56l3.64-.29c.56.92.38,1.08,2.24,1.08s2.42.77,4.29-.31c1.86-1.08,1.49-.46,3.54-2.15s1.86-.92,3.17-3.22c.69-1.22,1.01-1.79,1.16-2.06l2.75,3.14h.24c.12,2.73.21,5.48.32,8.89.04,1.19.06,2.32.09,3.37Z" fill="#1c4520"/>
            <path d="M152.6,453.68l-7.15,9.28s.68-2.55,1.87-7.42l17.44-27.11,20.06,26.39h.01c.08,1.08.18,2.46.28,4.03.14,2.07.24,3.94.32,5.8h-.24s-2.75-3.13-2.75-3.13l-10.51-12.01-8.57-9.8-10.76,13.98Z" fill="#6dbe45"/>
            <path d="M171.92,449.51l10.51,12.01c-.15.27-.47.84-1.16,2.06-1.31,2.31-1.12,1.54-3.17,3.22s-1.68,1.07-3.54,2.15c-1.87,1.08-2.43.31-4.29.31s-1.68-.16-2.24-1.08-.93-3.99-1.12-5.37c-.18-1.38-.18-2.61-.18-4.14s1.12-3.37,2.05-5.22c.9-1.78,1.11-1.84,3.15-3.94Z" fill="#0c9948"/>
            <path d="M163.36,439.71l8.57,9.8c-2.04,2.1-2.25,2.16-3.15,3.94-.93,1.85-2.05,3.68-2.05,5.22s0,2.77.18,4.14c.19,1.38.56,4.45,1.12,5.37l-3.64.29c-.06-.32-.15-.67-.27-1.06-.93-3.06-1.68-5.37-1.68-6.75s0-1.85-1.49-3.07-4.29-1.69-5.03-2.46c-.75-.77-.19-.31-1.87-.92-.8-.3-1.22-.46-1.43-.53l10.76-13.98Z" fill="#1c4520"/>
            <path d="M171.39,254.79l.08.97c-.06.05-.13.1-.19.14,0-.31-.01-.62-.02-.92l.13-.19Z" fill="#8d5923"/>
            <path d="M171.15,251.71l.24,3.07-.13.19c-.03-1.12-.07-2.21-.11-3.27Z" fill="#8d5923"/>
            <path d="M171.26,254.98c.01.3.02.61.02.92-.55.43-1.08.84-1.59,1.25l1.57-2.17Z" fill="#8d5923"/>
            <path d="M171.26,254.98l-1.57,2.17c-5.54,4.46-9.11,8.47-10.53,11.51-.97,2.06-.8,2.37-1.89,5.73l-15.66,21.71c-.04-.79-.07-1.57-.09-2.35-.18-7.05-.48-24.32,7.56-37.29,2.27-3.65,2.81-3.13,7.84-10.36,3.03-4.37,4.78-7.52,8.68-8.3.99-.19,2.52-.35,4.47,0l1.08,13.91c.04,1.06.08,2.15.11,3.27Z" fill="#8d5923"/>
            <path d="M164.38,468.47c.44,2.18-.27,2.74-.27,3.56,0,.92-.19,2.91-.75,3.21-.44.25-2.25,1.91-4.28,2.98-1.12-2.01-1.56-2.87-2.61-3.74-1.31-1.08-7.47-4.91-12.13-5.38l-.17-.03c.31-1.96.73-4,1.29-6.11l7.15-9.28c.21.07.63.23,1.43.53,1.68.61,1.12.15,1.87.92.74.77,3.54,1.23,5.03,2.46s1.49,1.69,1.49,3.07.75,3.68,1.68,6.75c.12.38.21.74.27,1.06Z" fill="#0c9948"/>
            <path d="M163.55,489.22v.25l-19.22.21s-.83-3.49-.96-9.05h.03c2.23-.16,4.47-.16,6.72-.62s4.66-.31,7.28-1.08c.56-.16,1.13-.42,1.68-.7.27.47.57,1.01.93,1.63,1.86,3.22,2.23,3.98,2.79,5.83.56,1.84.75,3.53.75,3.53Z" fill="#0c9948"/>
            <path d="M156.46,474.48c1.05.86,1.49,1.73,2.61,3.74-.55.29-1.12.54-1.68.7-2.61.77-5.03.62-7.28,1.08s-4.48.46-6.72.62h-.03c-.08-3.24.09-7.19.79-11.55l.17.03c4.66.47,10.82,4.3,12.13,5.38Z" fill="#1c4520"/>
            <path d="M158.04,325.52c.01,1.62.02,2.94-.07,4.01-.13,1.69-.47,2.84-1.33,3.81-.32.36-7.13,2.54-7.84,2.99-1.76,1.15,1.75,4.78,0,8.98-.28.69-1.12,2.61-3.35,3.46-.28.11-2.01.74-3.92.22-1.14-.3-1.9-.9-2.51-1.38-1.41-1.1-1.21-1.6-1.96-1.84-1.63-.52-3.07,1.69-5.03,1.38-1.47-.23-2.26-1.73-2.8-2.77-1.54-2.94-.55-5.89-.28-6.67.59-1.68,1.12-1.7,2.24-4.38.7-1.69,1.05-2.53,1.12-3.45.21-3.05-2.46-3.74-2.8-6.45-.45-3.58,3.51-7.77,7.28-8.06,1.78-.13,2.36.69,3.36.46,3.17-.74,1.9-10.36,1.48-19.75l15.66-21.71c-.35,1.05-.81,2.38-1.47,4.16-2.39,6.48-4.16,25.88-5.03,33.15-.23,1.93-.36,3.52.84,4.84,1.53,1.68,6.42,5.54,6.44,8.98Z" fill="#8d5923"/>
          </g>
          <g>
            <line x1="398.02" y1="115.28" x2="271.65" y2="115.28" fill="none" stroke="#231f20" stroke-miterlimit="10"/>
            <polyline points="377.5 196.37 398.02 115.28 400.39 105.9 442.2 107.07 442.11 115.29 441.1 210.35 441.06 210.36" fill="none" stroke="#231f20" stroke-miterlimit="10"/>
            <line x1="207.93" y1="203.51" x2="271.65" y2="115.28" fill="none" stroke="#231f20" stroke-miterlimit="10"/>
            <line x1="171.39" y1="254.79" x2="172.63" y2="253.09" fill="none" stroke="#231f20" stroke-miterlimit="10"/>
            <line x1="157.27" y1="274.39" x2="169.69" y2="257.15" fill="none" stroke="#231f20" stroke-miterlimit="10"/>
            <line x1=".98" y1="491.14" x2="141.61" y2="296.09" fill="none" stroke="#231f20" stroke-miterlimit="10"/>
            <path d="M171.28,255.9c.54,18.8.42,44.91-2.11,74.73-.1,1.23-.21,2.47-.32,3.72-.59,6.49-1.29,13.16-2.13,19.95-1.9,15.45-3.92,26.71-3.92,26.71-6.27,35.03-12.12,60.67-15.16,73.24-.11.45-.21.88-.31,1.29-1.19,4.87-1.87,7.42-1.87,7.42-.56,2.1-.98,4.14-1.29,6.11-.7,4.37-.87,8.32-.79,11.55.13,5.56.96,9.05.96,9.05l19.22-.21,22.2-.25s.24-4.41.09-12.29c-.03-1.06-.05-2.19-.09-3.37-.11-3.42-.2-6.16-.32-8.9-.08-1.86-.18-3.73-.32-5.8-.1-1.57-.2-2.95-.28-4.03-.11-1.39-.18-2.28-.2-2.46-.39-4.69.08-21.17,2.18-58.94.62-11.03,1.37-23.88,2.28-38.79.01-.12.01-.23.02-.35" fill="none" stroke="#231f20" stroke-miterlimit="10"/>
            <path d="M205.62,235.73c-.2-7.12-.28-11.27-.28-11.27l-2.75,9.76-7.88,27.99-17.99-26.63-7.21-10.67s1.05,9.96,1.64,26.8" fill="none" stroke="#231f20" stroke-miterlimit="10"/>
            <path d="M186.87,393.44c2.81,2.43,5.95,5.94,7.28,10.59,1.35,4.73.26,8.64,0,9.67-1.22,4.83-2.15,17.14-2.56,40.75-.06,3.32-.11,6.88-.14,10.66-.03,2.81-.05,5.73-.07,8.8-.02,3.03-.03,6.18-.03,9.47v6.3h41.98c1.38-9.49,1.43-17.29,1.21-22.72-.03-.59-.06-1.15-.09-1.69-.08-1.43-.19-2.82-.31-4.16-.37-3.9-.91-7.46-1.6-10.88-2.92-14.53-8.38-26.45-13.2-50.8-1.25-6.35-1.95-11.15-3.35-20.72-2.18-14.9-3.92-31.74-5.33-48.68-2.44-29.44-3.81-59.16-4.55-79.53" fill="none" stroke="#231f20" stroke-miterlimit="10"/>
            <path d="M168.4,334.96c.15-.2.3-.41.45-.62,5.42-7.58,10.23-22.46,11.86-24.71,1.68-2.31,3.35-10.59,2.23-13.36-1.11-2.75-3.35-14.73-3.35-14.73l15.11-19.34,6.72,22.1c-2.24,4.99-3.37,10.24-3.37,15.5,0,3.41.47,6.81,1.42,10.15.03.12.06.22.09.33,1.94,6.83,5.49,13.28,10.44,18.98l.65.75.28.33" fill="none" stroke="#231f20" stroke-miterlimit="10"/>
            <polyline points="186.03 355.91 189.09 354.65 191.06 353.83" fill="none" stroke="#231f20" stroke-miterlimit="10"/>
            <polyline points="184.82 454.83 164.76 428.43 147.32 455.54 147.13 455.83" fill="none" stroke="#231f20" stroke-miterlimit="10"/>
            <polyline points="191.62 454.45 204.78 431.66 232.2 450.3" fill="none" stroke="#231f20" stroke-miterlimit="10"/>
            <polyline points="145.45 462.96 152.6 453.68 163.36 439.71 171.92 449.51 182.43 461.52 185.19 464.66" fill="none" stroke="#231f20" stroke-miterlimit="10"/>
            <polyline points="191.34 465.27 191.44 465.11 196.1 457.6 196.27 457.33 205.62 442.25 217.21 449.99 233.89 461.13" fill="none" stroke="#231f20" stroke-miterlimit="10"/>
            <path d="M172.12,449.31c-.07.07-.14.14-.2.2-2.04,2.1-2.25,2.16-3.15,3.94-.93,1.85-2.05,3.68-2.05,5.22s0,2.77.18,4.14c.19,1.38.56,4.45,1.12,5.37s.38,1.08,2.24,1.08,2.42.77,4.29-.31c1.86-1.08,1.49-.46,3.54-2.15s1.86-.92,3.17-3.22c.69-1.22,1.01-1.79,1.16-2.06l.14-.25" fill="none" stroke="#231f20" stroke-miterlimit="10"/>
            <path d="M185.56,476.94c-5.78,0-7.09.3-8.21,1.23-1.12.92-4.84,3.21-5.6,3.98-.74.77-4.1,4.61-4.66,5.22-.56.62-3.54,1.85-3.54,1.85,0,0-.19-1.7-.75-3.53-.56-1.85-.93-2.61-2.79-5.83-.36-.62-.66-1.16-.93-1.63-1.12-2.01-1.56-2.87-2.61-3.74-1.31-1.08-7.47-4.91-12.13-5.38" fill="none" stroke="#231f20" stroke-miterlimit="10"/>
            <path d="M143.4,480.62c2.23-.16,4.47-.16,6.72-.62s4.66-.31,7.28-1.08c.56-.16,1.13-.42,1.68-.7,2.03-1.07,3.84-2.73,4.28-2.98.56-.3.75-2.3.75-3.21,0-.81.71-1.38.27-3.56-.06-.32-.15-.67-.27-1.06-.93-3.06-1.68-5.37-1.68-6.75s0-1.85-1.49-3.07-4.29-1.69-5.03-2.46c-.75-.77-.19-.31-1.87-.92-.8-.3-1.22-.46-1.43-.53l-.24-.09" fill="none" stroke="#231f20" stroke-miterlimit="10"/>
            <polyline points="168.02 468.18 164.38 468.47 164.11 468.49" fill="none" stroke="#231f20" stroke-miterlimit="10"/>
            <path d="M217.28,449.92l-.07.07-2.54,2.54s-2.79,1.54-4.1,2.15c-1.3.62-4.84,1.54-8.21,2.31-2.39.54-5,.36-6.09.34-.43-.01-.62.01-.44.12l.27.16c4.63,2.78,6.11,3.43,7.94,5.98,1.86,2.61,1.86,3.83,1.68,5.52-.19,1.7.18,3.53-1.12,5.68-1.31,2.16-1.49,2.91-2.99,3.84-.26.16-.56.35-.88.56-1.47.96-3.32,2.23-3.78,2.36-.55.15-3.16,1.84-3.91,1.84h-1.68" fill="none" stroke="#231f20" stroke-miterlimit="10"/>
            <path d="M191.16,473.86c.07.01.14.02.21.04,2.1.46,6.47,3.17,9.35,5.27,1.44,1.06,2.5,1.96,2.75,2.36.74,1.23,2.05,3.68,2.42,4.29.37.62,1.31,3.38,1.31,3.38,0,0,1.67-2.93,2.23-3.22.56-.31,3.92-4.76,3.92-4.76,0,0,2.98-3.37,5.03-5.06s6.16-3.38,6.53-4.3c.38-.92,2.43-2,3.92-2.77,1.49-.76,5.6-2.15,5.6-2.15" fill="none" stroke="#231f20" stroke-miterlimit="10"/>
            <path d="M176.7,235.58h.02c.57-.15,1.94-.38,2.31-.62.37-.22,1.03-2.91,1.03-3.14s.74-20.41.74-20.41l12.13.38s1.77,17.34,2.23,18.18c.47.84,1.68,2.53,2.33,2.91.66.38,4.57,1.15,4.57,1.15l.47.16" fill="none" stroke="#231f20" stroke-miterlimit="10"/>
            <path d="M171.15,251.71l-1.08-13.91c-1.95-.35-3.48-.19-4.47,0-3.89.78-5.65,3.93-8.68,8.3-5.02,7.23-5.57,6.71-7.84,10.36-8.04,12.97-7.74,30.25-7.56,37.29.02.78.05,1.56.09,2.35.42,9.4,1.69,19.02-1.48,19.75-1,.23-1.58-.59-3.36-.46-3.76.29-7.73,4.48-7.28,8.06.34,2.71,3.01,3.4,2.8,6.45-.07.92-.42,1.76-1.12,3.45-1.12,2.68-1.65,2.7-2.24,4.38-.27.78-1.26,3.74.28,6.67.54,1.04,1.33,2.53,2.8,2.77,1.96.31,3.4-1.9,5.03-1.38.75.23.55.74,1.96,1.84.61.48,1.37,1.08,2.51,1.38,1.91.51,3.64-.12,3.92-.22,2.23-.85,3.07-2.77,3.35-3.46,1.75-4.2-1.76-7.83,0-8.98.71-.45,7.52-2.63,7.84-2.99.86-.97,1.2-2.12,1.33-3.81.09-1.08.08-2.39.07-4.01-.02-3.44-4.9-7.3-6.44-8.98-1.2-1.31-1.07-2.9-.84-4.84.87-7.27,2.64-26.67,5.03-33.15.66-1.78,1.12-3.12,1.47-4.16,1.09-3.36.92-3.67,1.89-5.73,1.42-3.04,4.99-7.05,10.53-11.51.51-.41,1.04-.82,1.59-1.25.06-.04.13-.09.19-.14l-.08-.97-.24-3.07Z" fill="none" stroke="#231f20" stroke-miterlimit="10"/>
            <path d="M205.62,235.73v-.68l21.27,2.75,29.95-14.73c1.47-1.64,2.37-2.77,2.97-3.6,1.19-1.62,3.32-2.62,5.64-2.62,2.49,0,4.97.27,7.38.78,2.39.51,4.71,1.28,6.9,2.28.23.11.43.25.59.42.86.92,3.75,4.03,4.23,4.8.27.46.89,2.14,1.44,3.73.71,2.05.9,4.21.53,6.31-.18,1.06-1.05,1.93-2.25,2.31l-1.11.33c-1.45.44-3.04.44-4.48-.01l.31.67c.87,1.86.86,3.93-.03,5.78,0,0-.14.23-.6.51-.45.29-1.22.64-2.48.86-2.52.47-6.79.47-7.56,0-.13-.07-.34-.23-.59-.46-2.34-2-3.73-4.61-4.04-7.38l-.12-1.13-.28-3.92-.84-4.38-35.83,23.49-20.51-1.36-.48-.03v-14.73Z" fill="none" stroke="#231f20" stroke-miterlimit="10"/>
            <line x1="410.57" y1="168.39" x2="431.2" y2="169.56" fill="none" stroke="#231f20" stroke-miterlimit="10"/>
            <line x1="420.47" y1="128.19" x2="420.47" y2="145.8" fill="none" stroke="#fff" stroke-miterlimit="10"/>
            <line x1="410.57" y1="164.87" x2="431.2" y2="165.75" fill="none" stroke="#fff" stroke-miterlimit="10"/>
            <line x1="408.67" y1="145.9" x2="428.47" y2="146.78" fill="none" stroke="#fff" stroke-miterlimit="10"/>
            <polyline points="413.59 132.59 413.8 139.95 413.87 142.27" fill="none" stroke="#231f20" stroke-miterlimit="10" stroke-width="2"/>
            <path d="M415.42,141.49c0,.86-.78,1.57-1.74,1.57s-1.74-.7-1.74-1.57.78-1.56,1.74-1.56c.04,0,.08,0,.12.01.91.05,1.62.72,1.62,1.55Z" fill="none" stroke="#231f20" stroke-miterlimit="10" stroke-width="2"/>
            <line x1="424.78" y1="143.26" x2="425.05" y2="133.57" fill="none" stroke="#231f20" stroke-miterlimit="10" stroke-width="2"/>
            <polyline points="413.83 156.53 420.72 156.83 422.9 156.92" fill="none" stroke="#231f20" stroke-miterlimit="10" stroke-width="2"/>
            <path d="M422.28,155.2c.81.06,1.41.94,1.34,1.96s-.78,1.8-1.59,1.75c-.8-.06-1.4-.95-1.33-1.96,0-.04.01-.09.02-.13.1-.96.78-1.68,1.56-1.62Z" fill="none" stroke="#231f20" stroke-miterlimit="10" stroke-width="2"/>
            <polygon points="441.1 358.22 441.1 492.02 305.22 492.02 305.22 358.22 439.45 358.22 441.1 358.22" fill="none" stroke="#231f20" stroke-miterlimit="10"/>
            <path d="M440.83,329.47l.23-119.11.04-21.73c-.68-1.88-1.89-4.55-4.12-7.04-8.15-9.11-21.95-7.06-29.98-5.87-6.01.9-17.52,2.61-24.76,12.03-1.95,2.54-2.94,4.78-3.29,5.57-.38.84-.86,1.86-1.44,3.04-6.08,12.48-23.27,44.29-54.68,100.82" fill="none" stroke="#231f20" stroke-miterlimit="10"/>
            <path d="M440.82,329.47c-.16-1.45-.42-3.03-.82-4.7-6.55-27.24-40.4-38.28-48.96-41.07-8.52-2.78-19.13-6.11-33.01-4.11-6.16.89-22.12,3.44-35.21,17.61-10.65,11.53-13.66,24.57-14.3,27.58-1.46,6.92-1.42,12.89-1.1,17.02l.55,6.16,2.2-.29c43.65,3.52,87.3,7.05,130.94,10.56v-23.47c.02-1.43-.03-3.22-.27-5.29" fill="none" stroke="#231f20" stroke-miterlimit="10"/>
            <polygon points="310.16 347.66 305.22 358.22 427.2 357.5 310.16 347.66" fill="none" stroke="#231f20" stroke-miterlimit="10"/>
          </g>
        </g>
        <g id="Table">
          <line x1="409.19" y1="111.76" x2="429.55" y2="112.35" fill="none" stroke="#231f20" stroke-miterlimit="10"/>
          <line x1="409.47" y1="114.7" x2="429" y2="115.28" fill="none" stroke="#fff" stroke-miterlimit="10"/>
          <line x1="409.74" y1="127.31" x2="428.45" y2="127.9" fill="none" stroke="#fff" stroke-miterlimit="10"/>
          <ellipse cx="424.87" cy="134.36" rx="1.74" ry="1.56" fill="none" stroke="#231f20" stroke-miterlimit="10" stroke-width="2"/>
          <line x1="414.56" y1="121.32" x2="423.64" y2="121.71" fill="none" stroke="#231f20" stroke-miterlimit="10" stroke-width="2"/>
          <ellipse cx="422.89" cy="121.85" rx="1.86" ry="1.47" transform="translate(279.56 537.95) rotate(-87.07)" fill="none" stroke="#231f20" stroke-miterlimit="10" stroke-width="2"/>
        </g>
        <g id="Whip">
          <rect x="357.69" y="409.54" width="25.41" height="5.86" fill="#231f20" stroke="#231f20" stroke-miterlimit="10"/>
          <rect x="269.31" y="83.49" width="172.89" height="23.58" fill="#808285" stroke="#231f20" stroke-miterlimit="10"/>
          <rect x="274.83" y="106.95" width="3.87" height="14.66" fill="#808285" stroke="#231f20" stroke-miterlimit="10" stroke-width=".5"/>
          <rect x="390.46" y="106.56" width="3.87" height="14.66" fill="#808285" stroke="#231f20" stroke-miterlimit="10" stroke-width=".5"/>
          <rect x="281.64" y="107.34" width="3.87" height="9.48" fill="#808285" stroke="#231f20" stroke-miterlimit="10" stroke-width=".5"/>
          <rect x="381.81" y="107.24" width="3.87" height="10.46" fill="#808285" stroke="#231f20" stroke-miterlimit="10" stroke-width=".5"/>
          <rect x="279.25" y="88.48" width="24.03" height=".88" fill="#b4bcc2" stroke="#231f20" stroke-miterlimit="10"/>
          <rect x="307.42" y="96.98" width="23.2" height="1.17" fill="#b4bcc2" stroke="#231f20" stroke-miterlimit="10"/>
          <rect x="343.88" y="91.11" width="23.2" height="9.97" fill="#b4bcc2" stroke="#231f20" stroke-miterlimit="10"/>
          <rect x="376.47" y="88.77" width="19.89" height=".59" fill="#b4bcc2" stroke="#231f20" stroke-miterlimit="10"/>
          <rect x="390.28" y="96.98" width="26.51" height=".59" fill="#b4bcc2" stroke="#231f20" stroke-miterlimit="10"/>
          <rect x="293.84" y="58.9" width="6.77" height="4.65" fill="#be9069" stroke="#231f20" stroke-miterlimit="10"/>
          <path d="M290.48,61.48c-.6.83-4.92,6.37-5.9,7.92-9.29,14.63-11.64,29.97-12.41,40.32-1.8,24.11,3.5,40.99,4.75,60.06.23,3.51.32,7.09.2,10.8-.69,22.38-8.13,24.85-44.31,111.48,0,0-10.37,24.84-7.98,51.58.24,2.66,1.13,12.61,2.99,12.72,1.46.08,2.86-5.89,3.54-8.78,0,0,8.76-37.26,13.44-53.3,2.6-8.92,5.87-15.79,12.41-29.51,19.22-40.33,29.43-42.39,33.51-65.37,1.72-9.7.35-25.57-1.37-40.13-1.4-11.84-3.02-22.81-3.4-28.89-.93-15.21,1.13-26.77,1.93-30.78,2.39-12.09,6.36-21.98,10.13-29.45l3.52-5.98-11.03-2.71Z" fill="#be9069" stroke="#231f20" stroke-miterlimit="10"/>
          <line x1="295.9" y1="72.07" x2="284.57" y2="69.4" fill="#be9069" stroke="#231f20" stroke-miterlimit="10"/>
          <line x1="290.98" y1="84.73" x2="277.32" y2="85.1" fill="#be9069" stroke="#231f20" stroke-miterlimit="10"/>
          <line x1="288.4" y1="94.33" x2="273.54" y2="100.43" fill="#be9069" stroke="#231f20" stroke-miterlimit="10"/>
          <line x1="285.04" y1="110.36" x2="272.57" y2="121.23" fill="#be9069" stroke="#231f20" stroke-miterlimit="10"/>
          <line x1="285.57" y1="137.52" x2="275.08" y2="147.05" fill="#be9069" stroke="#231f20" stroke-miterlimit="10"/>
          <line x1="277.05" y1="172.75" x2="289.64" y2="161.31" fill="none" stroke="#231f20" stroke-miterlimit="10"/>
          <line x1="274.23" y1="199.72" x2="290.17" y2="188.47" fill="none" stroke="#231f20" stroke-miterlimit="10"/>
          <line x1="264.75" y1="217.91" x2="287.28" y2="213.02" fill="none" stroke="#231f20" stroke-miterlimit="10"/>
          <line x1="254.26" y1="238.26" x2="277.27" y2="231.08" fill="none" stroke="#231f20" stroke-miterlimit="10"/>
          <line x1="245.51" y1="258.42" x2="261.69" y2="256.83" fill="none" stroke="#231f20" stroke-miterlimit="10"/>
          <line x1="227.76" y1="305.29" x2="242.86" y2="303.45" fill="none" stroke="#231f20" stroke-miterlimit="10"/>
          <line x1="224.7" y1="327.99" x2="236.98" y2="326.09" fill="none" stroke="#231f20" stroke-miterlimit="10"/>
          <line x1="286.71" y1="57.01" x2="284.57" y2="51.11" fill="none" stroke="#231f20" stroke-miterlimit="10"/>
          <polyline points="315.8 57.23 317.47 59.44 317.66 59.95" fill="#be9069" stroke="#231f20" stroke-miterlimit="10"/>
          <line x1="342.46" y1="55.91" x2="349.73" y2="58.33" fill="#be9069" stroke="#231f20" stroke-miterlimit="10"/>
          <line x1="359.24" y1="51.87" x2="369.31" y2="53.42" fill="#be9069" stroke="#231f20" stroke-miterlimit="10"/>
          <line x1="363.71" y1="46.29" x2="375.09" y2="45.71" fill="#be9069" stroke="#231f20" stroke-miterlimit="10"/>
          <path d="M360.54,42.55c3.92-1.39,7.46-2.86,7.46-2.86" fill="#be9069" stroke="#231f20" stroke-miterlimit="10"/>
          <line x1="349.54" y1="38.81" x2="354.58" y2="36.16" fill="#be9069" stroke="#231f20" stroke-miterlimit="10"/>
          <line x1="329.97" y1="36.31" x2="331.46" y2="33.74" fill="#be9069" stroke="#231f20" stroke-miterlimit="10"/>
          <line x1="314.49" y1="36.53" x2="310.02" y2="33.96" fill="#be9069" stroke="#231f20" stroke-miterlimit="10"/>
          <line x1="301.44" y1="37.7" x2="294.91" y2="35.72" fill="#be9069" stroke="#231f20" stroke-miterlimit="10"/>
          <path d="M287.08,41.23c-6.9-1.54-8.76-1.91-8.76-1.91" fill="#be9069" stroke="#231f20" stroke-miterlimit="10"/>
          <line x1="281.3" y1="45.56" x2="271.79" y2="45.93" fill="#be9069" stroke="#231f20" stroke-miterlimit="10"/>
          <g>
            <g>
              <path d="M323.71,33.06c29.6,0,53.58,6.1,53.58,13.63s-23.98,13.64-53.58,13.64-53.58-6.1-53.58-13.64,23.99-13.63,53.58-13.63ZM364.03,46.69c0-6.02-18.3-10.91-40.87-10.91s-40.87,4.88-40.87,10.91c0,.11.01.22.02.33.02.17.05.34.1.51.08.29.21.58.38.87.05.09.11.19.18.28.08.12.17.24.27.36.04.07.1.13.16.19.09.1.19.21.29.31l.24.22c.4.37.86.72,1.4,1.07l.36.22c.1.06.2.12.31.18.18.11.38.22.59.33,1.99,1.06,4.61,2.02,7.73,2.85.44.12.88.24,1.35.34.48.12.98.24,1.49.34.4.09.8.18,1.22.26.28.06.56.11.85.17,1.24.24,2.52.46,3.86.66.39.06.79.12,1.2.17.86.12,1.76.24,2.66.34.42.05.85.1,1.3.14.05,0,.09.01.14.02.32.03.64.07.96.1,1.05.1,2.12.19,3.22.27.01,0,.03,0,.04,0,.25.02.49.04.74.05.52.04,1.05.07,1.57.1.49.03.97.05,1.48.07.19,0,.4.02.6.02.21,0,.43.02.65.02.39.02.78.03,1.19.04.48.02.97.02,1.47.03.33,0,.67.01,1.03.02.6,0,1.22.01,1.83.01,22.57,0,40.87-4.88,40.87-10.91Z" fill="#be9069"/>
              <path d="M320.31,57.57c.34,0,.68.01,1.03.02-.35,0-.69,0-1.03-.02Z" fill="#be9069"/>
              <path d="M316.4,57.45l.6.02c-.2,0-.41-.02-.6-.02Z" fill="#be9069"/>
              <path d="M312.61,57.23c.25.02.49.03.74.05-.25-.01-.49-.03-.74-.05Z" fill="#be9069"/>
              <path d="M308.39,56.86c.32.03.64.07.96.1-.32-.03-.64-.06-.96-.1Z" fill="#be9069"/>
              <path d="M306.95,56.71c.43.05.86.1,1.3.14-.44-.04-.87-.09-1.3-.14Z" fill="#be9069"/>
              <path d="M303.09,56.19c.39.06.79.12,1.2.17-.4-.05-.8-.11-1.2-.17Z" fill="#be9069"/>
              <path d="M298.38,55.37c.28.06.56.11.85.17-.29-.05-.57-.11-.85-.17Z" fill="#be9069"/>
              <path d="M285.33,50.83l.36.22-.36-.22Z" fill="#be9069"/>
              <path d="M283.69,49.54l.24.22-.24-.22Z" fill="#be9069"/>
              <path d="M283.24,49.04c.05.07.1.13.16.19-.06-.07-.12-.13-.16-.19Z" fill="#be9069"/>
              <path d="M282.79,48.4c.05.1.11.19.18.28-.07-.09-.13-.19-.18-.28Z" fill="#be9069"/>
              <path d="M282.31,47.02c.02.17.05.34.1.51-.05-.17-.08-.34-.1-.51Z" fill="#be9069"/>
            </g>
            <g>
              <path d="M323.71,33.06c-29.59,0-53.58,6.1-53.58,13.63s23.99,13.64,53.58,13.64,53.58-6.1,53.58-13.64-23.98-13.63-53.58-13.63Z" fill="none" stroke="#231f20" stroke-miterlimit="10"/>
              <path d="M282.41,47.53c-.05-.17-.08-.34-.1-.51" fill="none" stroke="#231f20" stroke-miterlimit="10"/>
              <path d="M282.97,48.68c-.07-.09-.13-.19-.18-.28" fill="none" stroke="#231f20" stroke-miterlimit="10"/>
              <path d="M283.4,49.23c-.06-.07-.12-.13-.16-.19" fill="none" stroke="#231f20" stroke-miterlimit="10"/>
              <path d="M283.94,49.76l-.24-.22" fill="none" stroke="#231f20" stroke-miterlimit="10"/>
              <path d="M285.69,51.06l-.36-.22" fill="none" stroke="#231f20" stroke-miterlimit="10"/>
              <path d="M286.6,51.57c-.21-.11-.41-.22-.59-.33" fill="none" stroke="#231f20" stroke-miterlimit="10"/>
              <path d="M299.23,55.53c-.29-.05-.57-.11-.85-.17-.41-.08-.81-.17-1.22-.26-.5-.11-1.01-.22-1.49-.34-.46-.11-.9-.22-1.35-.34" fill="none" stroke="#231f20" stroke-miterlimit="10"/>
              <path d="M304.29,56.37c-.4-.05-.8-.11-1.2-.17" fill="none" stroke="#231f20" stroke-miterlimit="10"/>
              <path d="M308.25,56.85c-.44-.04-.87-.09-1.3-.14" fill="none" stroke="#231f20" stroke-miterlimit="10"/>
              <path d="M312.57,57.23c-1.1-.07-2.16-.17-3.22-.27-.32-.03-.64-.06-.96-.1" fill="none" stroke="#231f20" stroke-miterlimit="10"/>
              <path d="M317,57.48c-.2,0-.41-.02-.6-.02-.5-.02-.98-.05-1.48-.07-.52-.03-1.05-.06-1.57-.1-.25-.01-.49-.03-.74-.05" fill="none" stroke="#231f20" stroke-miterlimit="10"/>
              <path d="M318.84,57.54c-.39,0-.79-.02-1.19-.04" fill="none" stroke="#231f20" stroke-miterlimit="10"/>
              <path d="M321.33,57.59c-.35,0-.69,0-1.03-.02" fill="none" stroke="#231f20" stroke-miterlimit="10"/>
              <path d="M282.31,47.02c-.01-.11-.02-.22-.02-.33,0-6.02,18.3-10.91,40.87-10.91s40.87,4.88,40.87,10.91-18.3,10.91-40.87,10.91c-.61,0-1.23,0-1.83-.01-.34,0-.68,0-1.03-.02-.49,0-.98-.02-1.47-.03-.4,0-.79-.02-1.19-.04-.22,0-.44-.02-.65-.02l-.6-.02c-.5-.02-.98-.05-1.48-.07-.52-.03-1.05-.06-1.57-.1-.25-.02-.49-.03-.74-.05-.01,0-.03,0-.04,0-1.1-.08-2.17-.17-3.22-.27-.32-.03-.64-.06-.96-.1-.05,0-.09,0-.14-.02-.43-.04-.86-.09-1.3-.14-.9-.1-1.8-.22-2.66-.34-.4-.05-.8-.11-1.2-.17-1.34-.2-2.62-.42-3.86-.66-.29-.05-.57-.11-.85-.17-.41-.08-.81-.17-1.22-.26-.5-.11-1.01-.22-1.49-.34-.46-.11-.9-.22-1.35-.34-3.12-.83-5.74-1.79-7.73-2.85-.21-.11-.41-.22-.59-.33-.11-.06-.21-.12-.31-.18l-.36-.22c-.53-.35-.99-.7-1.4-1.07l-.24-.22c-.1-.1-.2-.21-.29-.31-.06-.07-.11-.13-.16-.19-.1-.12-.19-.24-.27-.36-.07-.09-.13-.18-.18-.28-.17-.29-.3-.58-.38-.87-.05-.17-.08-.34-.1-.51Z" fill="none" stroke="#231f20" stroke-miterlimit="10"/>
            </g>
          </g>
        </g>
        <g id="Storage_Thing" data-name="Storage Thing">
          <polyline points="415.13 173.8 377.57 279.35 370.94 350.9 370.94 491.63" fill="none" stroke="#231f20" stroke-miterlimit="10"/>
          <polyline points="436.97 181.59 411.82 293.43 409.61 353.24 409.61 492.81" fill="none" stroke="#231f20" stroke-miterlimit="10"/>
          <polyline points="382.23 187.76 347.74 281.7 338.91 349.72 338.91 492.81" fill="none" stroke="#231f20" stroke-miterlimit="10"/>
        </g>
      </g>
    </g>
  </g>
</svg>