<?xml version="1.0" encoding="UTF-8"?>
<svg id="Layer_2" data-name="Layer 2" xmlns="http://www.w3.org/2000/svg" xmlns:xlink="http://www.w3.org/1999/xlink" viewBox="0 0 390.21 499.09">
  <g id="outlines">
    <g id="Page_4" data-name="Page 4">
      <g id="Panel_18" data-name="Panel 18">
        <g id="Planet">
          <polygon points="389.63 105.42 389.63 493.55 .5 493.55 .5 123.66 33.55 105.42 389.63 105.42" fill="#c4e8ee" opacity=".47" stroke="#231f20" stroke-miterlimit="10" stroke-width=".75"/>
          <g id="planet">
            <g>
              <path d="M292.2,104.68c2.25,11.3,3.44,23.17,3.44,35.4,0,15.76-1.99,30.91-5.65,45.05l-.2-.08-.48-1.72-4.39-4c-3.94-1.74-10.17-4.08-18.03-5.16-9.63-1.34-14.43.2-28.73,1.14-14.9.97-22.36,1.47-27.77,0-12.75-3.44-13.55-9.62-29.24-14.32-1.9-.58-8.76-2.55-17.54-4.58-3.16-.73-5.82-1.31-7.7-1.7,2.77-1.89,5.81-3.99,9.16-6.32,15.33-10.62,17.23-13.78,26.31-17.18,5.13-1.94,4.29-.84,22.89-4.58,22.3-4.49,27.96-6.96,32.15-9.18,5.12-2.69,8.48-5.25,15.1-10.3,1.17-.89,2.31-1.78,3.42-2.66l27.24.2Z" fill="#1972a8"/>
              <path d="M289.8,185.05l.2.08c-6.22,23.89-17.23,44.91-31.55,61.03l-.31-.38-4.88.58c-4.56,0-11.57-.25-19.97-1.72-17.23-3.02-23.11-7.79-49.69-18.9-8.79-3.69-34.33-14.57-47.74-10.32-2.54.8-6.38,2.7-13.15,4-3.64.7-6.61.95-10.73,2.88-1.28.59-7.35,3.42-7.06,5.52-10.82-17.57-18.45-38.62-21.76-61.67,1.32-.03,3.2-.06,5.45,0,7.68.16,13.35.92,15.1,1.14,1.34.17,16.03,2,26.3.58,7.07-.99,14.17-5.16,25.91-13.17,1.87.39,4.53.97,7.7,1.7,8.77,2.03,15.64,4,17.54,4.58,15.69,4.71,16.49,10.88,29.24,14.32,5.41,1.47,12.87.97,27.77,0,14.31-.94,19.11-2.49,28.73-1.14,7.86,1.08,14.09,3.42,18.03,5.16l4.39,4,.48,1.72Z" fill="#3a90ba"/>
              <path d="M155.92,154.7c-11.74,8.01-18.84,12.18-25.91,13.17-10.26,1.42-24.96-.41-26.3-.58-1.75-.22-7.42-.99-15.1-1.14-2.25-.06-4.13-.03-5.45,0-1.22-8.44-1.86-17.15-1.86-26.06,0-7.96.51-15.76,1.49-23.36l9.23,7.6c5.58,3.55,17.08,9.63,32.15,9.16,5.07-.16,15.33-.61,25.82-7.44,2.74-1.78,2.81-2.25,16.09-14.32,3.04-2.77,5.6-5.1,7.75-7.02l91.14-.22c-1.1.88-2.25,1.77-3.42,2.66-6.62,5.05-9.98,7.61-15.1,10.3-4.19,2.22-9.85,4.69-32.15,9.18-18.6,3.74-17.76,2.64-22.89,4.58-9.08,3.41-10.98,6.57-26.31,17.18-3.35,2.33-6.4,4.42-9.16,6.32Z" fill="#4b57a6"/>
              <path d="M258.14,245.78l.31.38c-18.77,21.19-43.22,33.99-69.97,33.99-33.54,0-63.5-20.14-83.12-51.68,1.64,1.24,7.7.39,13.95,2.99,8.88,3.69,9.88,10.87,18.51,20.04,1.32,1.41,12.66,13.18,27.77,16.04,2.71.52,4.06.47,31.18-5.14,32.81-6.8,31.03-6.75,33.13-6.88,3.48-.22,9.52-.41,17.04-3.44,4.91-1.97,8.7-4.46,11.21-6.3Z" fill="#2b92d0"/>
              <path d="M253.26,246.36l4.88-.58c-2.51,1.85-6.3,4.33-11.21,6.3-7.53,3.03-13.56,3.22-17.04,3.44-2.1.13-.32.08-33.13,6.88-27.12,5.61-28.47,5.66-31.18,5.14-15.12-2.86-26.46-14.63-27.77-16.04-8.63-9.18-9.63-16.35-18.51-20.04-6.25-2.6-12.31-1.75-13.95-2.99t-.01,0c-.13-.22-.28-.44-.41-.66-.29-2.1,5.78-4.93,7.06-5.52,4.12-1.92,7.09-2.17,10.73-2.88,6.77-1.3,10.61-3.21,13.15-4,13.42-4.25,38.96,6.63,47.74,10.32,26.58,11.12,32.45,15.89,49.69,18.9,8.4,1.47,15.41,1.72,19.97,1.72ZM174.35,239.76c0-7.76-6.43-14.03-14.37-14.03s-14.37,6.27-14.37,14.03,6.43,14.04,14.37,14.04,14.37-6.29,14.37-14.04Z" fill="#b6dcf4"/>
              <path d="M84.75,104.68l89.07.02c-2.15,1.92-4.71,4.25-7.75,7.02-13.28,12.07-13.35,12.54-16.09,14.32-10.49,6.83-20.75,7.29-25.82,7.44-15.06.47-26.56-5.61-32.15-9.16l-9.23-7.6c.52-4.08,1.18-8.1,1.97-12.04Z" fill="#b6dcf4"/>
              <path d="M159.98,225.73c7.94,0,14.37,6.27,14.37,14.03s-6.43,14.04-14.37,14.04-14.37-6.29-14.37-14.04,6.43-14.03,14.37-14.03Z" fill="#1972a8"/>
              <path d="M104.92,227.81c.13.22.28.44.41.66-.24-.17-.37-.38-.41-.66Z" fill="#b6dcf4"/>
            </g>
            <g>
              <path d="M105.33,228.47c-.24-.17-.37-.38-.41-.66-.29-2.1,5.78-4.93,7.06-5.52,4.12-1.92,7.09-2.17,10.73-2.88,6.77-1.3,10.61-3.21,13.15-4,13.42-4.25,38.96,6.63,47.74,10.32,26.58,11.12,32.45,15.89,49.69,18.9,8.4,1.47,15.41,1.72,19.97,1.72l4.88-.58c-2.51,1.85-6.3,4.33-11.21,6.3-7.53,3.03-13.56,3.22-17.04,3.44-2.1.13-.32.08-33.13,6.88-27.12,5.61-28.47,5.66-31.18,5.14-15.12-2.86-26.46-14.63-27.77-16.04-8.63-9.18-9.63-16.35-18.51-20.04-6.25-2.6-12.31-1.75-13.95-2.99" fill="none" stroke="#231f20" stroke-miterlimit="10"/>
              <path d="M173.82,104.7c-2.15,1.92-4.71,4.25-7.75,7.02-13.28,12.07-13.35,12.54-16.09,14.32-10.49,6.83-20.75,7.29-25.82,7.44-15.06.47-26.56-5.61-32.15-9.16l-9.23-7.6-.52-.42" fill="none" stroke="#231f20" stroke-miterlimit="10"/>
              <line x1="217.22" y1="4.58" x2="213.8" y2="9.74" fill="none" stroke="#231f20" stroke-miterlimit="10"/>
              <line x1="230.36" y1="17.76" x2="236.21" y2="15.47" fill="none" stroke="#231f20" stroke-miterlimit="10"/>
              <path d="M174.35,239.76c0,7.76-6.43,14.04-14.37,14.04s-14.37-6.29-14.37-14.04,6.43-14.03,14.37-14.03,14.37,6.27,14.37,14.03Z" fill="none" stroke="#231f20" stroke-miterlimit="10"/>
              <path d="M155.83,154.69s.05.02.09.02c1.87.39,4.53.97,7.7,1.7,8.77,2.03,15.64,4,17.54,4.58,15.69,4.71,16.49,10.88,29.24,14.32,5.41,1.47,12.87.97,27.77,0,14.31-.94,19.11-2.49,28.73-1.14,7.86,1.08,14.09,3.42,18.03,5.16l4.39,4,.48,1.72" fill="none" stroke="#231f20" stroke-miterlimit="10"/>
              <path d="M292.2,104.68l-27.24-.2c-1.1.88-2.25,1.77-3.42,2.66-6.62,5.05-9.98,7.61-15.1,10.3-4.19,2.22-9.85,4.69-32.15,9.18-18.6,3.74-17.76,2.64-22.89,4.58-9.08,3.41-10.98,6.57-26.31,17.18-3.35,2.33-6.4,4.42-9.16,6.32-11.74,8.01-18.84,12.18-25.91,13.17-10.26,1.42-24.96-.41-26.3-.58-1.75-.22-7.42-.99-15.1-1.14-2.25-.06-4.13-.03-5.45,0h-.4" fill="none" stroke="#231f20" stroke-linecap="round" stroke-linejoin="round"/>
              <path d="M264.96,104.48l-91.14.22-89.07-.02c-.78,3.94-1.45,7.96-1.97,12.04-.98,7.6-1.49,15.4-1.49,23.36,0,8.91.64,17.62,1.86,26.06,3.31,23.05,10.94,44.09,21.76,61.67.13.22.28.44.41.66t.01,0c19.62,31.54,49.58,51.68,83.12,51.68,26.75,0,51.2-12.81,69.97-33.99,14.32-16.12,25.33-37.13,31.55-61.03,3.66-14.13,5.65-29.29,5.65-45.05,0-12.23-1.2-24.09-3.44-35.4" fill="none" stroke="#231f20" stroke-linecap="round" stroke-linejoin="round"/>
            </g>
          </g>
          <polyline points="84.75 104.68 293.08 104.69 299.31 104.69" fill="#c4e8ee" stroke="#231f20" stroke-miterlimit="10" stroke-width=".75"/>
          <path d="M288.32,289.52s-.18-.73,1.47.97c1.65,1.7,1.1,1.46,3.11,2.92,2.02,1.46.55.49,4.03,1.95,3.48,1.46,1.65.24,6.96,2.19s2.93.24,7.15,3.16c4.21,2.92,2.38.73,5.31,5.35,2.93,4.62.73,1.46,3.66,6.57s3.48,8.51,3.48,8.51" fill="#c4e8ee" stroke="#231f20" stroke-miterlimit="10" stroke-width=".75"/>
        </g>
        <g id="Floor">
          <g>
            <g>
              <polygon points="389.63 490.74 389.63 497.93 300.84 497.65 300.84 497.59 234.09 346.9 234.09 346.6 286.73 346.6 388.56 489.03 389.63 490.74" fill="#4a494a"/>
              <polygon points="389.63 404.23 389.63 490.74 388.56 489.03 286.73 346.6 312.97 346.6 388.02 402.78 389.45 404.23 389.63 404.23" fill="#3b3b3b"/>
              <polygon points="389.63 346.6 389.63 404.23 389.45 404.23 388.02 402.78 312.97 346.6 389.63 346.6" fill="#616262"/>
              <polygon points="300.84 497.59 300.84 497.65 64.82 496.93 154.26 346.6 234.09 346.6 234.09 346.9 300.84 497.59" fill="#4a494a"/>
              <polygon points="154.26 346.6 64.82 496.93 63.36 496.93 5.33 496.54 110.38 346.6 154.26 346.6" fill="#4a494a"/>
              <polygon points="110.38 346.6 5.33 496.54 63.36 496.93 .5 496.74 .95 412.94 1.04 412.94 70.72 346.6 110.38 346.6" fill="#3b3b3b"/>
              <polygon points="70.72 346.6 1.04 412.94 .95 412.94 1.3 346.6 70.72 346.6" fill="#616262"/>
            </g>
            <g>
              <polygon points=".95 412.94 1.3 346.6 70.72 346.6 110.38 346.6 154.26 346.6 234.09 346.6 286.73 346.6 312.97 346.6 389.63 346.6 389.63 404.23 389.63 490.74 389.63 497.93 300.84 497.65 64.82 496.93 63.36 496.93 .5 496.74 .95 412.94" fill="none" stroke="#231f20" stroke-miterlimit="10"/>
              <line x1="70.72" y1="346.6" x2="1.04" y2="412.94" fill="none" stroke="#231f20" stroke-miterlimit="10"/>
              <polyline points="311.92 345.81 312.97 346.6 388.02 402.78 389.45 404.23" fill="none" stroke="#231f20" stroke-miterlimit="10"/>
              <polyline points="286.73 346.6 388.56 489.03 389.63 490.74" fill="none" stroke="#231f20" stroke-miterlimit="10"/>
              <line x1="234.09" y1="346.9" x2="300.84" y2="497.59" fill="none" stroke="#231f20" stroke-miterlimit="10"/>
              <polyline points="154.95 345.45 154.26 346.6 64.82 496.93 64.82 496.94 63.36 496.93 5.33 496.54 110.38 346.6" fill="none" stroke="#231f20" stroke-miterlimit="10"/>
            </g>
          </g>
          <line x1="187.92" y1="346.18" x2="188.47" y2="497.93" fill="#171c17" stroke="#231f20" stroke-miterlimit="10"/>
          <rect x=".5" y="300.94" width="389.13" height="45.66" fill="#171c17" stroke="#231f20" stroke-miterlimit="10"/>
          <ellipse cx="16.99" cy="314.56" rx="4.76" ry="6.08" fill="#7a7f7a"/>
          <ellipse cx="43.74" cy="333.05" rx="4.76" ry="6.08" fill="#7a7f7a"/>
          <ellipse cx="89.91" cy="316.02" rx="4.76" ry="6.08" fill="#7a7f7a"/>
          <ellipse cx="136.44" cy="327.7" rx="4.76" ry="6.08" fill="#7a7f7a"/>
          <ellipse cx="166.85" cy="334.02" rx="4.76" ry="6.08" fill="#7a7f7a"/>
          <ellipse cx="188.84" cy="325.26" rx="4.76" ry="6.08" fill="#7a7f7a"/>
          <ellipse cx="377.54" cy="314.08" rx="4.76" ry="6.08" fill="#7a7f7a"/>
          <ellipse cx="358.85" cy="334.02" rx="4.76" ry="6.08" fill="#7a7f7a"/>
          <ellipse cx="326.98" cy="322.83" rx="4.76" ry="6.08" fill="#7a7f7a"/>
          <ellipse cx="287.77" cy="312.62" rx="4.76" ry="6.08" fill="#7a7f7a"/>
          <ellipse cx="241.24" cy="318.94" rx="4.76" ry="6.08" fill="#7a7f7a"/>
          <ellipse cx="216.14" cy="320.89" rx="3.11" ry="3.65" fill="#394239"/>
          <ellipse cx="158.43" cy="316.51" rx="3.3" ry="4.62" fill="#394239"/>
          <ellipse cx="267.62" cy="334.26" rx="3.3" ry="4.62" fill="#394239"/>
          <ellipse cx="301.33" cy="327.94" rx="3.3" ry="4.62" fill="#394239"/>
          <ellipse cx="343.46" cy="314.81" rx="3.3" ry="4.62" fill="#394239"/>
          <ellipse cx="73.79" cy="329.88" rx="3.3" ry="4.62" fill="#394239"/>
          <ellipse cx="55.83" cy="311.4" rx="3.3" ry="4.62" fill="#394239"/>
          <ellipse cx="9.3" cy="335.72" rx="3.3" ry="4.62" fill="#394239"/>
          <ellipse cx="112.62" cy="312.37" rx="3.3" ry="4.62" fill="#394239"/>
          <ellipse cx="103.1" cy="337.18" rx="3.3" ry="4.62" fill="#394239"/>
        </g>
        <g id="Wall_Background" data-name="Wall Background">
          <g id="Layer_180" data-name="Layer 180">
            <polygon points="33.55 105.42 .5 123.66 .5 105.42 33.55 105.42" fill="#f57f20" stroke="#231f20" stroke-miterlimit="10"/>
            <polygon points="33.55 105.42 33.55 497.13 .5 497.13 .5 123.66 33.55 105.42" fill="#c1bfb0" stroke="#231f20" stroke-miterlimit="10"/>
            <rect x="356.66" y="104.69" width="33.05" height="393.9" fill="#c1bfb0" stroke="#231f20" stroke-miterlimit="10"/>
            <polyline points="355.49 106.03 389.71 104.69 389.63 124.76 355.49 106.03" fill="#f57f20" stroke="#231f20" stroke-miterlimit="10"/>
          </g>
          <g id="Layer_181" data-name="Layer 181">
            <path d="M286.85,289.52s2.02-3.16,0,0-1.83,1.95-3.11,3.89c-1.28,1.95-2.38,1.95-3.48,4.86s-2.56,5.59-2.56,5.59" fill="none" stroke="#231f20" stroke-miterlimit="10"/>
            <polygon points="389.63 124.76 389.63 151.74 81.57 154.15 33.55 154.53 .5 154.78 .5 123.66 33.55 105.42 355.49 106.03 389.63 124.76" fill="#7b7c88" stroke="#231f20" stroke-miterlimit="10"/>
            <polyline points="261.3 116.43 276.8 123.48 265.21 129.36 281.93 140.64" fill="#7b7c88" stroke="#231f20" stroke-miterlimit="10" stroke-width="2"/>
            <polyline points="70.91 141.85 71.17 114.67 96.73 114.85 96.47 142.04" fill="#7b7c88" stroke="#231f20" stroke-miterlimit="10" stroke-width="2"/>
            <ellipse cx="119.16" cy="128.63" rx="18" ry="13.23" fill="#7b7c88" stroke="#231f20" stroke-miterlimit="10" stroke-width="2"/>
            <path d="M106.93,124.37c-.83,1.78-4.59,2.51-8.38,1.63-3.8-.88-6.2-3.04-5.37-4.82s4.59-2.51,8.38-1.63c3.8.88,6.2,3.04,5.37,4.82Z" fill="#7b7c88" stroke="#231f20" stroke-miterlimit="10" stroke-width="2"/>
            <path d="M192.46,114.85c-11.96-.58-21.76,5.86-22.17,13.04-.44,7.73,10.06,15.07,22.95,14.14" fill="#7b7c88" stroke="#231f20" stroke-miterlimit="10" stroke-width="2"/>
            <line x1="170.29" y1="127.89" x2="183.59" y2="127.89" fill="#7b7c88" stroke="#231f20" stroke-miterlimit="10" stroke-width="2"/>
            <ellipse cx="190.51" cy="128.08" rx="1.96" ry="1.29" fill="#7b7c88" stroke="#231f20" stroke-miterlimit="10" stroke-width="2"/>
            <ellipse cx="237.72" cy="140.38" rx="1.96" ry="1.29" fill="#7b7c88" stroke="#231f20" stroke-miterlimit="10" stroke-width="2"/>
            <ellipse cx="259.47" cy="116.43" rx="1.83" ry="1.21" fill="#7b7c88" stroke="#231f20" stroke-miterlimit="10" stroke-width="2"/>
            <ellipse cx="258.98" cy="140.12" rx="1.83" ry="1.21" fill="#7b7c88" stroke="#231f20" stroke-miterlimit="10" stroke-width="2"/>
            <path d="M281.93,141.85c-1.01,0-1.83-.54-1.83-1.21s.82-1.21,1.83-1.21,1.83.54,1.83,1.21-.82,1.21-1.83,1.21" fill="#7b7c88" stroke="#231f20" stroke-miterlimit="10" stroke-width="2"/>
            <ellipse cx="277.23" cy="123.39" rx="1.83" ry="1.21" fill="#7b7c88" stroke="#231f20" stroke-miterlimit="10" stroke-width="2"/>
            <polyline points="200.03 141.85 199.77 115.03 224.29 115.03 224.29 142.04" fill="#7b7c88" stroke="#231f20" stroke-miterlimit="10" stroke-width="2"/>
            <line x1="231.33" y1="115.4" x2="253.76" y2="115.4" fill="#7b7c88" stroke="#231f20" stroke-miterlimit="10" stroke-width="2"/>
            <line x1="238.11" y1="115.4" x2="237.85" y2="135.61" fill="#7b7c88" stroke="#231f20" stroke-miterlimit="10" stroke-width="2"/>
            <polyline points="259.47 117.64 265.21 129.36 258.98 138.91" fill="#7b7c88" stroke="#231f20" stroke-miterlimit="10" stroke-width="2"/>
            <path d="M301.37,141.85c-2.23,0-4.04-2.18-4.04-4.87s1.81-4.87,4.04-4.87,4.04,2.18,4.04,4.87-1.81,4.87-4.04,4.87" fill="#7b7c88" stroke="#231f20" stroke-miterlimit="10" stroke-width="2"/>
            <polyline points="291.53 113.81 301.37 132.12 311.31 114.91" fill="#7b7c88" stroke="#231f20" stroke-miterlimit="10" stroke-width="2"/>
          </g>
        </g>
        <g id="Wires">
          <g id="Layer_182" data-name="Layer 182">
            <path d="M81.57,156.86c-.64.16-1.62.47-2.75,1.09-14.75,8.25-13.04,49.36-15.39,80.98-1.65,22.28-20.06,90.83-20.06,90.83l2.47,5.11s3.87-7.27,5.22-12.4c6.18-23.43,5.82-15.47,9.62-32.47,2.65-11.85,7.08-31.67,8.52-58.37,1.23-22.78-.71-32.32,4.4-48.88,2.62-8.49,6.7-14.51,9.07-18.6l-1.1-7.3Z" fill="#3cb657" stroke="#231f20" stroke-miterlimit="10"/>
            <path d="M294.4,157.59c.55.15,1.41.44,2.38,1.03,12.79,7.79,11.31,46.63,13.34,76.5,1.43,21.05,17.4,85.81,17.4,85.81l-2.14,4.82s-3.35-6.87-4.53-11.72c-5.36-22.13-5.05-14.62-8.34-30.67-2.3-11.19-6.14-29.92-7.39-55.14-1.06-21.52.62-30.54-3.81-46.18-2.27-8.02-5.81-13.71-7.86-17.57l.95-6.89Z" fill="#3cb657" stroke="#231f20" stroke-miterlimit="10"/>
            <path d="M277.79,217.96c.41.1.01.35.73.74,9.49,5.09,8.39,30.48,9.9,50.01,1.06,13.76,12.91,56.09,12.91,56.09l-1.59,3.15s-2.49-4.49-3.36-7.66c-3.97-14.47-3.74-9.55-6.19-20.05-1.7-7.32-4.56-19.56-5.48-36.04-.79-14.07.46-19.96-2.83-30.18-1.69-5.25-4.77-8.78-6.29-11.31l2.2-4.74Z" fill="#3cb657" stroke="#231f20" stroke-miterlimit="10"/>
            <path d="M190.84,279.88c.7.04,2.53,11.02,5.09,18.75,1.81,5.45,21.94,22.22,21.94,22.22l-2.7,1.25s-4.23-1.78-5.71-3.03c-6.75-5.73-6.36-3.78-10.52-7.94-2.9-2.9-7.75-7.75-9.32-14.28-1.34-5.57.78-7.91-4.81-11.96-2.87-2.08-2.82-4.11-5.41-5.11l11.44.09Z" fill="#3cb657" stroke="#231f20" stroke-miterlimit="10"/>
            <path d="M127.46,255.71c-.42.07-1.53.94-2.28,1.23-9.8,3.77-8.67,22.56-10.22,37.01-1.1,10.18-13.33,41.51-13.33,41.51l1.64,2.33s2.57-3.32,3.47-5.67c4.1-10.71,3.87-7.07,6.39-14.84,1.76-5.41,4.71-14.47,5.66-26.67.81-10.41-.47-14.77,2.92-22.34,1.74-3.88,6.51-7.96,8.09-9.83l-2.34-2.74Z" fill="#3cb657" stroke="#231f20" stroke-miterlimit="10"/>
          </g>
        </g>
        <g id="Villain">
          <g id="Layer_184" data-name="Layer 184">
            <path d="M106.47,316.6c-.16-.89-.61-11.55.98-14.57l1.77-3.97c.69-1.18,1.75-1.84,2.84-1.76,1.74.12,4.3.54,5.5,1.94.44.51,1.2,1.06,1.2,1.06,0,0-.15-1.82-.54-3.49-1.36-5.69-.76-6.21-1.74-8.8-.53-1.4-1.48-3.91-3.37-5.16-3.03-2.01-7.51-1.21-7.51-1.21,0,0-.5-1.18-1.31-3.95,0,0-1.03-3.51-2.94-7.89-1.25-2.87-2.66-6.09-5.33-8.95-.97-1.03-3.22-3.4-6.64-4.4-3.14-.92-5.64-.22-7.51.3-1.48.41-3.48.97-5.66,2.73-2.77,2.23-4.29,5.15-5.77,8.04-3.48,6.83-5.22,12.45-5.22,12.45,0,0-3.34,1.91-6.09,5.46-1.96,2.53-2.97,5.03-4.13,7.89-1.66,4.08-2.83,10.93-2.83,10.93,0,0,1.06-1.01,3.05-2.73,1.68-1.46,4.75-4.13,7.83-3.04.36.13,2.74.97,3.48,3.64.17.6.21,1.14.22,1.52l-.87,13.96" fill="#d2d2d2" stroke="#231f20" stroke-miterlimit="10"/>
            <line x1="65.88" y1="316.6" x2="106.47" y2="316.6" fill="#d2d2d2" stroke="#231f20" stroke-miterlimit="10"/>
            <path d="M74.2,316.32l-8.32.28c-1.05,2.52-2.36,5.85-3.7,9.87-.18.55-2.87,8.66-4.57,16.85-3.2,15.44-2.92,31.33-2.72,37.19l-.98,75.28h63.62c-.19-4.04-.5-10.1-1.02-17.45-1.08-15.34-1.78-18.25-2.03-26.71-.19-6.37.21-12.9,1.02-25.7,1.33-21.14,2.5-19.55,2.18-29.55-.58-17.81-2.01-25.1-4.35-28.33-1.35-1.87-5.92-10.68-6.86-11.43l-2.84-.5" fill="#4f459c" stroke="#231f20" stroke-miterlimit="10"/>
            <rect x="72.33" y="278.1" width="8.37" height="12.95" fill="#444d54" stroke="#231f20" stroke-miterlimit="10"/>
            <rect x="91.07" y="278.1" width="8.37" height="12.95" fill="#444d54" stroke="#231f20" stroke-miterlimit="10"/>
            <rect x="74.34" y="283.68" width="4.35" height="2.46" fill="#fff" stroke="#231f20" stroke-miterlimit="10"/>
            <rect x="92.97" y="283.26" width="4.35" height="2.46" fill="#fff" stroke="#231f20" stroke-miterlimit="10"/>
            <path d="M90.57,306.73c0,2.87-1.74,5.19-3.89,5.19-.9,0-1.73-.41-2.39-1.1-.91-.95-1.5-2.43-1.5-4.09,0-2.87,1.74-5.19,3.89-5.19s3.89,2.32,3.89,5.19Z" fill="#141717" stroke="#231f20" stroke-miterlimit="10" stroke-width=".75"/>
            <polygon points="86.64 308.8 88.98 310.36 88.14 311.48 86.68 311.93 85.55 311.37 84.21 310.25 86.64 308.8" fill="#fff" stroke="#231f20" stroke-miterlimit="10" stroke-width=".75"/>
          </g>
          <g id="body">
            <polyline points="88.56 455.29 108.99 455.29 106.03 392.9 115.65 354.61 103.62 316.1 74.2 316.32 59.77 356.41 67.91 394.7 69.39 455.29 84.38 455.29 84.71 403.59 88.06 403.59 88.56 455.29" fill="#d2d2d2" stroke="#231f20" stroke-miterlimit="10"/>
            <polyline points="79.78 336.71 69.74 359.83 68.48 395.67" fill="#d2d2d2" stroke="#231f20" stroke-miterlimit="10"/>
            <polyline points="94.04 334.03 104.72 358.49 106.03 392.9" fill="#d2d2d2" stroke="#231f20" stroke-miterlimit="10"/>
          </g>
        </g>
        <g id="Person">
          <g id="Hair">
            <path id="Hair-2" data-name="Hair" d="M266.52,306.26c-.14-5.68,1.37-10.42,1.37-10.42s.12-.35.23-.69c.98-2.84,4.63-12.22,11.31-12.44,3.88-.13,5.09,5.27,8.17,6.38.44.16.92.23,1.45.18.69-.06,1.28-.29,1.82-.63,1.6-1.03,2.65-3.07,4.23-4.47,6.63-5.9,17.89,2.48,21.98,5.47,4.07,2.98,19.53,14.2,21.44,33.2.68,6.78-1.26,5.63-3.85,30.64-1.51,14.58-1.29,19.18-.82,22.98,1.28,10.53,3.96,11.63,4.95,20.43.88,7.79-.88,10.05-4.12,27.72-2.48,13.54-4.23,23.34-4.12,36.11.08,9.59,1.18,17.02,3.57,24.08,1.23,3.64,2.57,6.47,3.57,8.39l-43.15-1.09c.01-.94.02-2.33,0-4.01-.11-10.52-1.06-16.11-1.37-21.16-.67-10.95,2.17-11.03,2.2-22.62,0-2.42-.11-5.52-3.85-24.08-4.41-21.92-5.6-24.25-5.5-31.01.16-11.06,4.39-11.13,5.22-23.35.29-4.3,1.15-16.94-4.4-26.63-4.28-7.48-7.51-4.7-13.74-14.23-4.75-7.26-6.49-14.4-6.6-18.76Z" fill="#fff" stroke="#020202" stroke-miterlimit="10"/>
            <path d="M297.85,282.34s6.6,2.19,8.24,4.01c1.65,1.82.82,1.09,4.12,4.74,3.3,3.65.27.36,5.5,6.57,5.22,6.2,3.02.36,6.6,9.12s3.3,1.82,3.57,11.67c.27,9.85.55,7.66.55,14.23,0,6.57.82,19.7.82,21.16s.27,5.11.55,12.4c.27,7.3,1.1,12.77,2.2,18.24,1.1,5.47.27,1.82,0,11.67-.27,9.85-.27,2.92-1.65,12.4-1.37,9.48-1.65.73-2.2,12.77s-.55,2.55-1.1,16.05c-.55,13.5-1.1,4.74-.55,17.51s-.27,8.03.82,16.05c1.1,8.03,7.42,22.25,7.42,22.25" fill="none" stroke="#020202" stroke-miterlimit="10"/>
            <path d="M288.45,292.94c1.88,1.44,2.06,1.93,3.16,3.63s-1.47-1.22,1.1,1.7-.55,1.46,3.11,2.92.37,1.22,4.21,1.46,2.38-1.46,4.58.24-.55.73,2.56,1.7,1.47-.73,3.66,1.7,2.38,2.92,3.48,4.62c1.1,1.7-.73-1.7,1.1,1.7,1.83,3.4,4.21,8.75,4.21,8.75" fill="none" stroke="#020202" stroke-miterlimit="10"/>
            <path d="M283.37,284.89s-.18.73-1.65.24-.73-.97-2.75-.24-2.38,1.22-3.66,2.92c-1.28,1.7-3.66,6.32-3.66,6.32l-2.38,5.35s-.55-1.46-.55,1.95-.18,5.11-.18,5.11" fill="none" stroke="#020202" stroke-miterlimit="10"/>
            <path d="M292.99,286.2s3.48.97,6.41,3.4c2.93,2.43,6.6,4.62,8.24,6.08,1.65,1.46,4.4,3.16,6.05,4.86s4.4,6.08,5.13,7.3,3.11,6.57,3.66,7.54,2.38,7.78,2.38,7.78" fill="none" stroke="#231f20" stroke-miterlimit="10"/>
            <path d="M316.26,289.64s-2.75-2.92.82,3.28,4.67,8.39,7.42,11.31,3.3,3.65,4.4,8.39c1.1,4.74.27.73,1.1,7.66.82,6.93.83,5.11.82,8.75,0,3.65-.27,6.93-.27,14.96s-.55,9.12-.27,16.42c.27,7.3.27,14.59,1.1,18.24.82,3.65-1.37-2.55.82,7.66s2.2-3.28,1.92,13.13,1.1,8.03-1.65,19.7c-2.75,11.67-4.12,9.85-4.12,20.06s2.2,24.08,2.2,24.08" fill="none" stroke="#231f20" stroke-miterlimit="10"/>
            <path d="M271.28,306.3c1.66.04,2.75-5.35,3.3-7.05s.92-3.16,2.38-5.84c1.47-2.68,2.56-4.13,3.66-4.86s1.28-.24,2.75-.24,1.83-.24,1.83-.24c0,0,2.38-1.7-.92-.24" fill="none" stroke="#231f20" stroke-miterlimit="10"/>
            <path d="M275.5,305.08s-1.1.24.18-1.46c1.28-1.7,2.75-3.65,3.11-5.11s-1.28.24.73-2.19,0-.49,2.02-2.43c2.02-1.95,5.31-4.38,5.31-4.38" fill="#fff" stroke="#020202" stroke-miterlimit="10"/>
            <path d="M290.88,289.76c1.47,1.22,2.38,2.68,3.66,3.4s-.55.97,2.38,2.19.73.97,4.21,2.43c3.48,1.46.18-.49,3.48,1.46,3.3,1.95,1.1.24,3.85,2.19,2.75,1.95-.73-2.43,2.75,1.95s.92.49,3.48,4.38c2.56,3.89,7.15,12.65,7.15,12.65" fill="none" stroke="#020202" stroke-miterlimit="10"/>
            <path d="M322.85,347.27s0-5.84,0,0-.82,8.75.27,12.77c1.1,4.01.55,9.12,1.65,13.13,1.1,4.01.82,5.11.82,9.85v8.39c0,5.84,1.1-3.28,0,6.93-1.1,10.21,1.1,1.09-1.1,12.4s-1.1,4.74-2.2,14.23-.55,2.92-2.2,15.32c-1.65,12.4-2.47,6.57-1.65,17.51.82,10.94.27,9.48,1.65,16.42,1.37,6.93,0,2.55,1.92,8.39,1.92,5.84,2.2,9.48,2.2,9.48" fill="none" stroke="#020202" stroke-miterlimit="10"/>
            <path d="M318.46,349.1c0,5.47,1.37,3.28-.55,10.21-1.92,6.93-.27.36-1.92,6.93-1.65,6.57-1.65,14.59-1.65,19.7s-1.92,4.01-.27,14.59c1.65,10.58,1.92,4.74,1.92,16.05s1.1,0,0,13.13c-1.1,13.13-.82,1.82-1.37,14.96-.55,13.13-1.65,2.19-.82,13.5.82,11.31.27,6.2.82,14.96.55,8.75.82,18.97.82,18.97" fill="#fff" stroke="#020202" stroke-miterlimit="10"/>
            <path d="M313.51,350.19v5.84l-2.47,24.08c-1.81,3.54-3.68,8.17-4.95,13.86-4.11,18.52,1.31,34.8,3.3,40.13" fill="none" stroke="#231f20" stroke-miterlimit="10"/>
            <path d="M303.89,349.83s0-11.31,0,0-1.1,14.23.27,20.79c1.37,6.57,1.65,11.67,2.75,15.69s1.1,10.58,1.1,14.59-.82,4.74-2.75,12.4-3.3,9.85-3.57,18.97c-.27,9.12-.27,6.57-.27,15.32s2.2-6.93,0,8.75-4.12,34.65-4.12,34.65" fill="none" stroke="#231f20" stroke-miterlimit="10"/>
          </g>
          <path d="M266.52,306.26c.02,4.1.31,10.18,1.67,17.4.94,5.01,1.42,7.52,2.86,10.33,3.34,6.51,9,9.05,15.5,11.96,2.25,1.01,4.4,1.78,6.45,2.37,6.15,1.77,11.41,1.91,15.72,1.98,5.86.11,8.82-.64,11.21-1.63,4.73-1.96,10.56-6.26,10.01-9.51-.07-.4-.16-.38-1.43-2.17,0,0-.36-.51-4.53-7.07.38-.63.95-1.75,1.19-3.26.2-1.22.56-3.5-.72-4.89-.93-1.01-2.34-1.13-3.34-.82-.19.06-1.29.4-1.98,1.5-.27.43-.24.6-.4.68-.78.37-3.1-2.96-4.77-6.8-1.97-4.52-1.47-6.16-3.34-7.88-1.51-1.39-3.28-1.67-4.77-1.9-2.8-.44-3.52.5-6.68,0-1.2-.19-2.55-.42-4.05-1.36-.4-.25-2.12-1.37-3.58-3.81-2.49-4.18-1.72-8.09-3.1-8.43-.44-.11-.79.23-2.62,2.17-2.08,2.21-4.02,4.32-4.29,4.62-1.98,2.15-3.26,3.54-5.01,4.62-1.34.83-3.59,1.88-6.91,1.9h-3.1Z" fill="#906126" stroke="#020202" stroke-miterlimit="10"/>
          <path d="M276.77,310.06c-.22.19-2,1.82-2.15,4.35-.21,3.67,3.15,7.11,6.2,7.61,1.32.22,3.26-.49,7.15-1.9,2.9-1.05,3.66-1.56,4.77-1.09,1.8.77,1.54,2.88,3.58,4.35,1.16.83,2.52.83,5.25.82,4.1-.02,6.15-.03,7.39-1.63,1.41-1.82,1.1-4.51.95-5.71-.09-.74-.6-4.45-3.34-6.52-3.73-2.83-8.71-.45-9.06-.27-1.42.7-2.01,1.47-3.58,1.63-1.45.15-2.29-.36-4.29-1.09-1.11-.41-3.62-1.32-6.2-1.63-2.48-.3-4.79-.58-6.68,1.09Z" fill="#fff" stroke="#010101" stroke-linejoin="round" stroke-width=".5"/>
          <ellipse cx="280.82" cy="315.64" rx="1.43" ry="1.77" fill="#fff" stroke="#010101" stroke-linejoin="round" stroke-width=".5"/>
          <ellipse cx="303.71" cy="316.73" rx="1.67" ry="1.5" fill="#fff" stroke="#010101" stroke-linejoin="round" stroke-width=".5"/>
          <polyline points="288.45 325.02 288.22 326.38 292.98 326.38" fill="none" stroke="#010101" stroke-linejoin="round" stroke-width=".5"/>
          <polygon points="292.03 358.18 297.28 368.79 302.52 360.63 301.33 357.64 301.33 350.03 296.56 349.21 294.18 348.4 294.42 355.74 292.03 358.18" fill="#906126" stroke="#020202" stroke-miterlimit="10"/>
          <path d="M309.03,359.63c.96.03,4.04-.04,5.48.82,3.28,1.95,4.78,6.14,5.96,12.23,2.51,12.94,3.26,32.85,2.15,37.52-.08.33-.4,1.56.12,2.17.7.83,2.21-.3,2.98.54.6.66.51,2.24-.12,2.85-.6.58-1.57.18-1.67.54-.07.28.53.5.95,1.36.14.28.55,1.11.24,1.77-.35.73-1.35.68-1.43.68-.56-.04-.96-.37-1.09-.49-.59-.52-.69-1.18-.82-1.15-.28.07.52,2.78-.48,3.81-.44.45-1.18.54-1.67.27-.81-.45-1.19-2.04-1.19-2.04-.42.21-1.33.57-2.38.27-.31-.07-1.01-.24-1.43-.95-.56-.94-.15-2.08-.12-2.17.41-1.12,1.69-.66,2.38-1.63.67-.93.36-2.39.24-2.99-.69-3.47-3.34-20.25-3.7-29.36-.23-5.85.37-11.18-1.67-12.1-.59-.26-1.93-.08-2.38.14l-.36-12.1Z" fill="#906126" stroke="#020202" stroke-miterlimit="10"/>
          <path d="M283.37,413.91c-1.13,4.15-2.19,8.44-3.18,12.87-5.43,24.38-7.16,47.17-6.99,67.24l16.85.36c.15-4.52.36-9.11.64-13.77,1.09-18.49,3.04-35.92,5.56-52.2.09,2.74.26,6.83.64,11.78,1,13.05,2.43,18.66,3.18,27.55.48,5.61.78,13.64-.16,23.56l13.51,1.45c0-2.72-.16-3.26-.16-3.26,0-2.21,1.06-32.74.64-47.85-.17-6.27-.76-15.43-2.7-26.64l-.64-1.09-7.95-45.85-9.38-.54-9.86,46.4Z" fill="#ffe600" stroke="#020202" stroke-miterlimit="10"/>
          <path d="M287.18,351.57l-3.82,62.35,2.7-1.99c4.45-4.89,6.68-8.7,6.99-9.79s2.38-17.58,2.38-17.58l-.79-2.9-2.86-4.35,5.48-8.52,5.01,8.16-2.86,5.8c-.16,1.09.79,17.58.95,18.3s.95,5.98,1.75,6.89,3.02,3.81,3.66,3.81,4.77,2.17,4.77,2.17l-1.91-59.81-11.13,13.96-10.33-16.49Z" fill="#65bc46" stroke="#020202" stroke-miterlimit="10"/>
          <rect x="275.74" y="494.2" width="10.81" height="3.24" fill="#231f20" stroke="#020202" stroke-miterlimit="10"/>
          <polygon points="310.79 497.17 301.46 496.44 301.75 491.56 311.08 492.29 310.79 497.17" fill="#231f20" stroke="#020202" stroke-miterlimit="10"/>
          <path d="M286.58,358.27c-.74-.47-1.83-.93-3.02-.46-2.03.81-3.28,3.93-4.95,9.66-3.64,12.52-3.43,17.4-5.5,18.4-1.02.49-1.1-.69-6.32-4.6-3.5-2.62-7.42-5.06-7.42-5.06.09-.37.39-1.74,0-2.76-.63-1.66-2.8-1.67-3.44.23-.4,1.2-.15,3.06.69,4.37.57.25.69.44.69.58,0,.31-.7.68-1.37.58-.6-.09-.72-.49-1.03-.35-.59.28-1.07,2.11-.69,3.11.25.66.81.75,1.17.8.91.15,1.61-.48,1.65-.35.04.16-1.09.66-1.58,2.19-.34,1.06-.4,2.68.07,3.22.4.46,1.08,0,1.44-.46.55-.69.77-1.86.89-2.53.19-1.01.14-1.53.41-1.84.31-.36.77-.11.96,0,1.84,1.06,9.81,10.03,13.47,10.12,3.43.09,7.22-7.88,8.31-14.26.52-3.02.88-8.52,3.3-10.58.28-.24.53-.38.69-.46l1.24-.12.34-9.43Z" fill="#906126" stroke="#020202" stroke-miterlimit="10"/>
          <path d="M301.33,339.61c0,3.36-1.6,6.08-3.57,6.08-1.48,0-2.75-1.53-3.29-3.71-.18-.73-.28-1.53-.28-2.37,0-3.36,1.6-6.08,3.57-6.08s3.57,2.72,3.57,6.08Z" fill="#fff" stroke="#231f20" stroke-linecap="round" stroke-linejoin="round" stroke-width=".5"/>
          <polyline points="295.15 341.3 296.93 339.25 298.58 340.58 300.5 338.76" fill="none" stroke="#020202" stroke-miterlimit="10" stroke-width=".25"/>
          <polyline points="277.88 306.05 280.81 304.35 283.19 307.27 284.11 305.81" fill="none" stroke="#231f20" stroke-miterlimit="10"/>
          <polyline points="295.46 307.75 296.93 308.24 298.21 307.27" fill="#906126" stroke="#020202" stroke-miterlimit="10"/>
          <image width="77" height="78" transform="translate(239.34 287.57)" xlink:href="Frame 18-1.png"/>
          <image width="77" height="77" transform="translate(273.34 290.57)" xlink:href="Frame 18-2.png"/>
        </g>
      </g>
    </g>
  </g>
</svg>