<?xml version="1.0" encoding="UTF-8"?>
<svg id="Layer_2" data-name="Layer 2" xmlns="http://www.w3.org/2000/svg" viewBox="0 0 394.83 406.15">
  <g id="outlines">
    <g id="Page_2" data-name="Page 2">
      <g id="Frame_11" data-name="Frame 11">
        <g id="Layer_110" data-name="Layer 110">
          <g>
            <line x1="275.18" y1="4.06" x2="276.56" y2="2.7" fill="#ccbfb2" stroke="#231f20" stroke-miterlimit="10" stroke-width="2"/>
            <polygon points="392.43 2.37 249.69 3.52 173.12 146.85 173.12 293.65 394.32 293.62 392.43 2.37" fill="#2e2e2e" stroke="#231f20" stroke-miterlimit="10"/>
            <polygon points="308.83 19.11 258.73 19.11 200.13 132.38 310.62 131.36 308.83 19.11" fill="#4d4e4e" stroke="#231f20" stroke-miterlimit="10"/>
            <polyline points="393.37 128.89 342.33 129.23 342.33 19.13 391.35 16.79 393.11 20.19" fill="#4d4e4e" stroke="#231f20" stroke-miterlimit="10"/>
            <rect x="193.45" y="152.63" width="116.27" height="140.44" fill="#4d4e4e" stroke="#231f20" stroke-miterlimit="10"/>
            <rect x="342.33" y="156.1" width="51.05" height="137.52" fill="#4d4e4e" stroke="#231f20" stroke-miterlimit="10"/>
            <path d="M2.24,101.58l-.1-98.79c-2.95,33.15-1.26,65.93.1,98.79Z" fill="#2e2e2e" stroke="#231f20" stroke-miterlimit="10"/>
            <path d="M51.89,103.63l24.34-51.56L51.89.52H3.2l-1.07,2.27c-2.95,33.15-1.26,65.93.1,98.79l.97,2.05h48.69Z" fill="#2e2e2e" stroke="#231f20" stroke-miterlimit="10"/>
            <path d="M1.47,83.19C.67,63.04.09,42.9.88,22.64" fill="#4d4e4e" stroke="#231f20" stroke-miterlimit="10"/>
            <path d="M46.51,9.59H6.93L.88,22.64c-.79,20.26-.21,40.4.6,60.56l5.45,11.76h39.59l19.79-42.68L46.51,9.59Z" fill="#4d4e4e" stroke="#231f20" stroke-miterlimit="10"/>
            <path d="M.74,61.38c-.05-1.84-.08-3.68-.12-5.52" fill="#9c9fa0" stroke="#231f20" stroke-miterlimit="10"/>
            <path d="M.62,55.86c.03,1.84.07,3.68.12,5.52l11.15,27.19h26.82l13.41-32.71H.62Z" fill="#9c9fa0" stroke="#231f20" stroke-miterlimit="10"/>
            <path d="M.53,49.55c-.02-1.65-.03-3.29-.03-4.94" fill="#9c9fa0" stroke="#231f20" stroke-miterlimit="10"/>
            <path d="M38.71,16.84H11.89L.5,44.61c0,1.65.01,3.29.03,4.94h51.59l-13.41-32.71Z" fill="#9c9fa0" stroke="#231f20" stroke-miterlimit="10"/>
            <polygon points="75.52 154.95 51.65 103.74 75.52 52.53 123.26 52.53 147.13 103.74 123.26 154.95 75.52 154.95" fill="#2e2e2e" stroke="#231f20" stroke-miterlimit="10"/>
            <polygon points="79.71 146.97 59.92 104.29 79.71 61.61 119.3 61.61 139.09 104.29 119.3 146.97 79.71 146.97" fill="#4d4e4e" stroke="#231f20" stroke-miterlimit="10"/>
            <polyline points="124.91 107.88 111.5 140.59 84.68 140.59 71.27 107.88" fill="#9c9fa0" stroke="#231f20" stroke-miterlimit="10"/>
            <polyline points="71.97 100.15 84.54 66.79 109.69 66.79 122.26 100.15" fill="#9c9fa0" stroke="#231f20" stroke-miterlimit="10"/>
            <polygon points="148.28 2.49 124.56 52.56 75.87 52.56 51.89 .52 148.28 2.49" fill="#2e2e2e" stroke="#231f20" stroke-miterlimit="10"/>
            <polyline points="139.52 4.24 119.73 46.92 80.14 46.92 60.35 4.24" fill="#4d4e4e" stroke="#231f20" stroke-miterlimit="10"/>
            <polyline points="124.79 4.8 111.38 37.51 84.56 37.51 71.15 4.8" fill="#9c9fa0" stroke="#231f20" stroke-miterlimit="10"/>
            <polyline points="147.04 105.24 122.43 54.09 147.04 2.95 196.28 2.95" fill="#2e2e2e" stroke="#231f20" stroke-miterlimit="10"/>
            <polyline points="150.49 93.6 130.7 50.92 150.49 8.23 190.08 8.23" fill="#4d4e4e" stroke="#231f20" stroke-miterlimit="10"/>
            <polyline points="154.2 85.68 140.78 52.96 169.18 54.58 154.53 85.01" fill="#9c9fa0" stroke="#231f20" stroke-miterlimit="10"/>
            <polygon points="182.28 15.48 155.46 15.48 142.04 48.19 172.18 48.19 187.3 16.24 187.07 15.36 182.28 15.48" fill="#9c9fa0" stroke="#231f20" stroke-miterlimit="10"/>
            <path d="M2.8,116.28l-.08,53.3c.2-1.9.36-3.81.44-5.72.5-15.93.19-31.77-.36-47.57Z" fill="#2e2e2e" stroke="#231f20" stroke-miterlimit="10"/>
            <path d="M51.77,103.19H3.08l-.72,1.53c.8,19.64-.28,102.24-.28,102.24l49.68-.65,24.34-51.56-24.34-51.56Z" fill="#2e2e2e" stroke="#231f20" stroke-miterlimit="10"/>
            <path d="M46.39,112.26H6.81l-3.86,8.33c.46,14.37-.17,76.88-.17,76.88l43.62.16,19.79-42.68-19.79-42.68Z" fill="#4d4e4e" stroke="#231f20" stroke-miterlimit="10"/>
            <path d="M4.15,159.13c-.04,1.77-.35,8.93-.54,10.72l9.01,21.99h26.82l13.41-32.71H4.15Z" fill="#9c9fa0" stroke="#231f20" stroke-miterlimit="10"/>
            <path d="M38.59,117.73H11.77l-8.4,20.48c.04,4.07.05,8.15.01,12.23h48.62l-13.41-32.71Z" fill="#9c9fa0" stroke="#231f20" stroke-miterlimit="10"/>
            <polygon points="75.31 257.16 51.53 205.6 75.31 154.05 122.87 154.05 146.65 205.6 122.87 257.16 75.31 257.16" fill="#2e2e2e" stroke="#231f20" stroke-miterlimit="10"/>
            <polygon points="79.6 248.49 59.8 205.8 79.6 163.12 119.18 163.12 138.97 205.8 119.18 248.49 79.6 248.49" fill="#4d4e4e" stroke="#231f20" stroke-miterlimit="10"/>
            <polyline points="124.79 209.39 111.38 242.11 84.56 242.11 71.15 209.39" fill="#9c9fa0" stroke="#231f20" stroke-miterlimit="10"/>
            <polyline points="71.15 203.08 84.56 170.37 111.38 170.37 124.79 203.08" fill="#9c9fa0" stroke="#231f20" stroke-miterlimit="10"/>
            <polygon points="75.17 257.62 50.82 206.06 1.99 206.31 1.08 308.54 50.82 309.17 75.17 257.62" fill="#2e2e2e" stroke="#231f20" stroke-miterlimit="10"/>
            <polygon points="43.43 213.12 2.36 211.44 .59 250.7 .53 291.33 3.85 298.49 43.43 298.49 63.22 255.8 43.43 213.12" fill="#4d4e4e" stroke="#231f20" stroke-miterlimit="10"/>
            <polyline points=".61 269.21 10.82 294.12 37.65 294.12 51.06 261.41 .62 261.41" fill="#9c9fa0" stroke="#231f20" stroke-miterlimit="10"/>
            <polygon points=".53 255.1 51.06 255.1 37.65 222.39 10.82 222.39 .54 247.48 .53 255.1" fill="#9c9fa0" stroke="#231f20" stroke-miterlimit="10"/>
            <polygon points="75.87 357.72 51.53 306.16 75.87 254.61 124.56 254.61 148.9 306.16 124.56 357.72 75.87 357.72" fill="#2e2e2e" stroke="#231f20" stroke-miterlimit="10"/>
            <polygon points="79.6 349.05 59.8 306.37 79.6 263.68 119.18 263.68 138.97 306.37 119.18 349.05 79.6 349.05" fill="#4d4e4e" stroke="#231f20" stroke-miterlimit="10"/>
            <polyline points="124.79 309.96 111.38 342.67 84.56 342.67 71.15 309.96" fill="#9c9fa0" stroke="#231f20" stroke-miterlimit="10"/>
            <polyline points="71.15 303.65 84.56 270.93 111.38 270.93 124.79 303.65" fill="#9c9fa0" stroke="#231f20" stroke-miterlimit="10"/>
            <polygon points="393.38 404.93 .71 404.93 .71 291.32 41.89 291.32 77.69 291.32 393.38 291.32 393.38 404.93" fill="#975e25" stroke="#231f20" stroke-miterlimit="10"/>
            <path d="M77.63,291.32l-24.15,1.42-2.68,11.72s-21.47,25.56-22.36,28.76-8.05,18.11-8.05,18.11c0,0-9.84,30.89-11.63,53.25l33.09,1.07s6.26-51.12,11.63-54.32c5.37-3.2,25.94-36.21,25.94-54.32l-1.79-5.68Z" fill="#b97129" stroke="#231f20" stroke-miterlimit="10"/>
            <path d="M145.61,291.32l-24.15,1.42-2.68,11.72s-21.47,25.56-22.36,28.76-8.05,18.11-8.05,18.11c0,0-9.84,30.89-11.63,53.25l33.09,1.07s6.26-51.12,11.63-54.32c5.37-3.2,25.94-36.21,25.94-54.32l-1.79-5.68Z" fill="#b97129" stroke="#231f20" stroke-miterlimit="10"/>
            <path d="M213.59,291.32l-24.15,1.42-2.68,11.72s-21.47,25.56-22.36,28.76c-.89,3.2-8.05,18.11-8.05,18.11,0,0-9.84,30.89-11.63,53.25l33.09,1.07s6.26-51.12,11.63-54.32c5.37-3.2,25.94-36.21,25.94-54.32l-1.79-5.68Z" fill="#b97129" stroke="#231f20" stroke-miterlimit="10"/>
            <path d="M281.57,291.32l-24.15,1.42-2.68,11.72s-21.47,25.56-22.36,28.76-8.05,18.11-8.05,18.11c0,0-9.84,30.89-11.63,53.25l33.09,1.07s6.26-51.12,11.63-54.32c5.37-3.2,25.94-36.21,25.94-54.32l-1.79-5.68Z" fill="#b97129" stroke="#231f20" stroke-miterlimit="10"/>
            <path d="M349.55,291.32l-24.15,1.42-2.68,11.72s-21.47,25.56-22.36,28.76c-.89,3.2-8.05,18.11-8.05,18.11,0,0-9.84,30.89-11.63,53.25l33.09,1.07s6.26-51.12,11.63-54.32c5.37-3.2,25.94-36.21,25.94-54.32l-1.79-5.68Z" fill="#b97129" stroke="#231f20" stroke-miterlimit="10"/>
            <path d="M390.69,304.45s-21.47,25.56-22.36,28.76-8.05,18.11-8.05,18.11c0,0-9.84,30.89-11.63,53.25l33.09,1.07s6.26-51.12,11.63-54.32v-58.58l-2.68,11.72Z" fill="#b97129" stroke="#231f20" stroke-miterlimit="10"/>
            <line x1=".62" y1="261.82" x2=".71" y2="269.51" fill="#9c9fa0" stroke="#231f20" stroke-miterlimit="10"/>
            <g>
              <g>
                <path d="M151.78,155.69l-2.68,5.92c-1.24,1.83-3.33,4.27-6.59,5.49-2.63.99-3.66.3-7.15,1.1-2.3.53-6.54,1.51-9.34,4.95-2.83,3.47-2.78,7.69-2.75,9.89.07,5.64,2.42,9.81,2.75,10.45,1.28,2.44,2.07,8.32,2.35,16.44l-1.25.04-3.85,6.05-6.59,4.95c-2.75,3.84-3.85,4.94-3.85,8.24s-.55,8.79-2.2,10.99c0,0-.55.55-2.2,4.4s-3.85,4.4-4.94,8.79c-1.1,4.4-1.65,1.65-2.75,8.25-1.1,6.59-2.75,10.44-2.75,12.09s-1.1,8.79-1.1,8.79l-1.1,3.3c-1.1,9.34-2.2,6.6-1.1,15.39s3.3,8.79-.55,16.49c-3.85,7.69-1.1,4.95-5.49,11.54-4.4,6.6-8.25,17.04-8.25,17.04l-.26.79c-1.88-.62-3.74-1.28-5.43-1.9l.2-.54,1.09-6.05c1.66-2.87,3.91-7.35,5.5-13.19.5-1.81,1.16-4.63,2.2-14.29,1.51-14.11.64-13.29,1.65-17.58,2.1-8.95,4.95-8.55,7.69-18.14,2.74-9.6-.03-10.29,2.75-18.14,3.22-9.1,6.9-8.03,10.44-18.14,1.9-5.39,1.54-7.68,4.4-14.29,2.36-5.45,3.01-4.85,4.95-9.34,4.3-9.99,3.97-19.7,3.84-22.53-.13-3.11-.48-4.6-.55-9.35-.07-5.44-.08-8.22,1.1-10.99,2.08-4.85,6.37-7.27,7.15-7.69,7.17-3.91,13.02.19,18.14-3.85,1.74-1.38,2.75-3.2,3.36-4.81.57-.17,1.11-.34,1.61-.5.05,0,.11-.01.16-.01.69-.04,1.13-.06,1.4-.07v.02Z" fill="#fff"/>
                <path d="M90.28,248.02c-.05-.01-.46.35-3.1,2.99-5.13,5.13-4.58-1.1-5.86,5.86-1.29,6.97-3.3,5.32-1.65,10.45s1.83,5.13,1.83,8.42,2.2-1.83-.55,5.32c-2.75,7.14-3.11,6.41-4.95,10.99-1.83,4.58-3.11,2.75-3.11,7.51s-.55,8.98-.73,12.46c-.19,3.48-.74,6.6-1.47,8.24-.73,1.65-2.2,3.12-1.83,6.78.37,3.67-1.28,8.98-1.28,9.53s-1.1,4.95-1.1,4.95l-.11.19c-2.16-1.17-4.02-2.57-4.66-4.77-1.08-3.7,2.32-6.03,3.3-12.1.79-4.86-1.07-5.35-1.1-10.99-.03-5.84,2-10.2,6.05-18.69,5.22-10.93,6.06-8.9,7.14-13.19,2.93-11.53-5.15-18.38-.55-25.83,1.65-2.65,2.66-1.77,6.6-6.04,1.46-1.59,4.99-5.7,8.24-13.74,5.99-14.81,1.54-19.52,7.7-30.23,3.46-6.03,5.41-5.35,6.59-9.9,2.28-8.78-4.4-13.42-2.74-21.98,1.55-8.06,9.18-12.87,13.19-15.39,9.09-5.73,18.24-5.58,23.08-5.5,3.72.07,7.07.54,9.94,1.18-.1.4-.23.83-.38,1.29-1.97.1-2.6.1-6.63.1-4.94,0-6.23-1.28-11.36.36-5.13,1.65-6.04,1.47-9.89,3.49-3.85,2.01-6.05,2.19-8.61,5.67-2.57,3.49-2.38-.18-3.67,5.32-1.28,5.49-3.84,4.76-1.83,9.71,2.02,4.94,1.47,2.2,2.2,6.78s3.12-3.3.73,5.13c-2.38,8.42-7.69,21.98-7.87,22.71-.19.74-8.8,30.23-10.81,32.25-.89.88-.75.71-.75.67Z" fill="#fff"/>
                <path d="M148.77,155.83l-.15.42c-2.14.64-4.76,1.37-7.76,2.06-7.05,1.64-8.33,1.3-12.64,2.75-5.13,1.72-10.22,3.44-13.19,8.24-2.83,4.58-2.35,9.74-2.2,10.99.7,5.8,3.93,7.23,3.3,11.55-.46,3.12-2.34,3.7-4.95,7.69-2.55,3.9-3.35,7.73-4.95,15.39-2.27,10.87-.68,10.76-2.74,17.59-2.15,7.12-5.47,12.52-6.6,14.29-3.83,5.98-5.15,5.56-7.15,9.89-2.02,4.4-.84,5.24-2.74,15.39-1.13,6-1.96,10.28-4.4,15.39-2.23,4.65-3.02,4.2-4.4,7.69-1.87,4.76-.88,6.8-1.1,17.04-.24,11.57-1.67,17.3-2.19,19.24-.77,2.84-1.61,5.11-2.2,6.6l-2.2,4.94-1.25.07c-.89-.36-1.44-.59-1.5-.62-.47-.23-.94-.47-1.39-.72l.11-.19s1.1-4.4,1.1-4.95,1.65-5.86,1.28-9.53c-.37-3.66,1.1-5.13,1.83-6.78.73-1.64,1.28-4.76,1.47-8.24.18-3.48.73-7.69.73-12.46s1.28-2.93,3.11-7.51c1.84-4.58,2.2-3.85,4.95-10.99,2.75-7.15.55-2.02.55-5.32s-.18-3.29-1.83-8.42.36-3.48,1.65-10.45c1.28-6.96.73-.73,5.86-5.86,2.64-2.64,3.05-3,3.1-2.99,0,.04-.14.21.75-.67,2.01-2.02,10.62-31.51,10.81-32.25.18-.73,5.49-14.29,7.87-22.71,2.39-8.43,0-.55-.73-5.13s-.18-1.84-2.2-6.78c-2.01-4.95.55-4.22,1.83-9.71,1.29-5.5,1.1-1.83,3.67-5.32,2.56-3.48,4.76-3.66,8.61-5.67,3.85-2.02,4.76-1.84,9.89-3.49,5.13-1.64,6.42-.36,11.36-.36,4.03,0,4.66,0,6.63-.1Z" fill="#fff"/>
                <path d="M148.62,156.25c-.61,1.61-1.62,3.43-3.36,4.81-5.12,4.04-10.97-.06-18.14,3.85-.78.42-5.07,2.84-7.15,7.69-1.18,2.77-1.17,5.55-1.1,10.99.07,4.75.42,6.24.55,9.35.13,2.83.46,12.54-3.84,22.53-1.94,4.49-2.59,3.89-4.95,9.34-2.86,6.61-2.5,8.9-4.4,14.29-3.54,10.11-7.22,9.04-10.44,18.14-2.78,7.85-.01,8.54-2.75,18.14-2.74,9.59-5.59,9.19-7.69,18.14-1.01,4.29-.14,3.47-1.65,17.58-1.04,9.66-1.7,12.48-2.2,14.29-1.59,5.84-3.84,10.32-5.5,13.19l-1.09,6.05-.2.54c-2.25-.84-4.2-1.61-5.45-2.12l1.25-.07,2.2-4.94c.59-1.49,1.43-3.76,2.2-6.6.52-1.94,1.95-7.67,2.19-19.24.22-10.24-.77-12.28,1.1-17.04,1.38-3.49,2.17-3.04,4.4-7.69,2.44-5.11,3.27-9.39,4.4-15.39,1.9-10.15.72-10.99,2.74-15.39,2-4.33,3.32-3.91,7.15-9.89,1.13-1.77,4.45-7.17,6.6-14.29,2.06-6.83.47-6.72,2.74-17.59,1.6-7.66,2.4-11.49,4.95-15.39,2.61-3.99,4.49-4.57,4.95-7.69.63-4.32-2.6-5.75-3.3-11.55-.15-1.25-.63-6.41,2.2-10.99,2.97-4.8,8.06-6.52,13.19-8.24,4.31-1.45,5.59-1.11,12.64-2.75,3-.69,5.62-1.42,7.76-2.06Z" fill="#fff"/>
                <path d="M128.37,209.93c1.42,40.6-9.88,137.18-36.43,139.65-2.49.23-7.19-1.01-11.8-2.51l.26-.79s3.85-10.44,8.25-17.04c4.39-6.59,1.64-3.85,5.49-11.54,3.85-7.7,1.65-7.7.55-16.49s0-6.05,1.1-15.39l1.1-3.3s1.1-7.14,1.1-8.79,1.65-5.5,2.75-12.09c1.1-6.6,1.65-3.85,2.75-8.25,1.09-4.39,3.29-4.94,4.94-8.79s2.2-4.4,2.2-4.4c1.65-2.2,2.2-7.69,2.2-10.99s1.1-4.4,3.85-8.24l6.59-4.95,3.85-6.05,1.25-.04Z" fill="#fff"/>
              </g>
              <g>
                <path d="M156.25,156.66s1.28.37,2.56.18c1.29-.18,0-.73,1.29-.18,1.28.55,1.28.73,1.83,1.65s.73,2.38,1.1,2.93c.36.55,1.1,4.95,1.1,4.95" fill="none" stroke="#231f20" stroke-miterlimit="10" stroke-width=".5"/>
                <path d="M90.28,248.01h0c-.05,0-.46.36-3.1,3-5.13,5.13-4.58-1.1-5.86,5.86-1.29,6.97-3.3,5.32-1.65,10.45s1.83,5.13,1.83,8.42,2.2-1.83-.55,5.32c-2.75,7.14-3.11,6.41-4.95,10.99-1.83,4.58-3.11,2.75-3.11,7.51s-.55,8.98-.73,12.46c-.19,3.48-.74,6.6-1.47,8.24-.73,1.65-2.2,3.12-1.83,6.78.37,3.67-1.28,8.98-1.28,9.53s-1.1,4.95-1.1,4.95" fill="none" stroke="#231f20" stroke-miterlimit="10" stroke-width=".5"/>
                <path d="M152.13,155.66s-.15,0-.34.01c-.27.01-.71.03-1.4.07-.05,0-.11.01-.16.01-.57.03-1.05.05-1.46.08-1.97.1-2.6.1-6.63.1-4.94,0-6.23-1.28-11.36.36-5.13,1.65-6.04,1.47-9.89,3.49-3.85,2.01-6.05,2.19-8.61,5.67-2.57,3.49-2.38-.18-3.67,5.32-1.28,5.49-3.84,4.76-1.83,9.71,2.02,4.94,1.47,2.2,2.2,6.78s3.12-3.3.73,5.13c-2.38,8.42-7.69,21.98-7.87,22.71-.19.74-8.8,30.23-10.81,32.25-.89.88-.75.71-.75.67" fill="none" stroke="#231f20" stroke-miterlimit="10" stroke-width=".5"/>
                <path d="M151.12,155.74s.37-.02.66-.05c.16,0,.3-.02.35-.03" fill="none" stroke="#231f20" stroke-miterlimit="10" stroke-width=".5"/>
                <path d="M74.91,344.63l1.09-6.05c1.66-2.87,3.91-7.35,5.5-13.19.5-1.81,1.16-4.63,2.2-14.29,1.51-14.11.64-13.29,1.65-17.58,2.1-8.95,4.95-8.55,7.69-18.14,2.74-9.6-.03-10.29,2.75-18.14,3.22-9.1,6.9-8.03,10.44-18.14,1.9-5.39,1.54-7.68,4.4-14.29,2.36-5.45,3.01-4.85,4.95-9.34,4.3-9.99,3.97-19.7,3.84-22.53-.13-3.11-.48-4.6-.55-9.35-.07-5.44-.08-8.22,1.1-10.99,2.08-4.85,6.37-7.27,7.15-7.69,7.17-3.91,13.02.19,18.14-3.85,1.74-1.38,2.75-3.2,3.36-4.81l.15-.42c.15-.46.28-.89.38-1.29" fill="none" stroke="#231f20" stroke-miterlimit="10" stroke-width=".5"/>
                <path d="M127.12,209.97l-3.85,6.05-6.59,4.95c-2.75,3.84-3.85,4.94-3.85,8.24s-.55,8.79-2.2,10.99c0,0-.55.55-2.2,4.4s-3.85,4.4-4.94,8.79c-1.1,4.4-1.65,1.65-2.75,8.25-1.1,6.59-2.75,10.44-2.75,12.09s-1.1,8.79-1.1,8.79l-1.1,3.3c-1.1,9.34-2.2,6.6-1.1,15.39s3.3,8.79-.55,16.49c-3.85,7.69-1.1,4.95-5.49,11.54-4.4,6.6-8.25,17.04-8.25,17.04" fill="none" stroke="#231f20" stroke-miterlimit="10" stroke-width=".5"/>
                <path d="M164.49,167.47l.74-2.93c.09-1.05.11-2.61-.37-4.4-.3-1.1-1.34-4.99-3.66-5.49-1.74-.38-2.34,1.54-4.95,2.01-1.59.29-2.74-.33-4.12-1-.09-.04-.18-.09-.27-.13-.12-.06-.25-.12-.38-.18-.68-.31-1.44-.61-2.33-.81-2.87-.64-6.22-1.11-9.94-1.18-4.84-.08-13.99-.23-23.08,5.5-4.01,2.52-11.64,7.33-13.19,15.39-1.66,8.56,5.02,13.2,2.74,21.98-1.18,4.55-3.13,3.87-6.59,9.9-6.16,10.71-1.71,15.42-7.7,30.23-3.25,8.04-6.78,12.15-8.24,13.74-3.94,4.27-4.95,3.39-6.6,6.04-4.6,7.45,3.48,14.3.55,25.83-1.08,4.29-1.92,2.26-7.14,13.19-4.05,8.49-6.08,12.85-6.05,18.69.03,5.64,1.89,6.13,1.1,10.99-.98,6.07-4.38,8.4-3.3,12.1.64,2.2,2.5,3.6,4.66,4.77.45.25.92.49,1.39.72.06.03.61.26,1.5.62,1.25.51,3.2,1.28,5.45,2.12,1.69.62,3.55,1.28,5.43,1.9,4.61,1.5,9.31,2.74,11.8,2.51,26.55-2.47,37.85-99.05,36.43-139.65-.28-8.12-1.07-14-2.35-16.44-.33-.64-2.68-4.81-2.75-10.45-.03-2.2-.08-6.42,2.75-9.89,2.8-3.44,7.04-4.42,9.34-4.95,3.49-.8,4.52-.11,7.15-1.1,3.26-1.22,5.35-3.66,6.59-5.49l2.68-5.92v-.02s.08-.14.08-.14l.16-.36c-.17.06-.35.12-.54.18-.39.12-.81.26-1.25.4-.5.16-1.04.33-1.61.5-2.14.64-4.76,1.37-7.76,2.06-7.05,1.64-8.33,1.3-12.64,2.75-5.13,1.72-10.22,3.44-13.19,8.24-2.83,4.58-2.35,9.74-2.2,10.99.7,5.8,3.93,7.23,3.3,11.55-.46,3.12-2.34,3.7-4.95,7.69-2.55,3.9-3.35,7.73-4.95,15.39-2.27,10.87-.68,10.76-2.74,17.59-2.15,7.12-5.47,12.52-6.6,14.29-3.83,5.98-5.15,5.56-7.15,9.89-2.02,4.4-.84,5.24-2.74,15.39-1.13,6-1.96,10.28-4.4,15.39-2.23,4.65-3.02,4.2-4.4,7.69-1.87,4.76-.88,6.8-1.1,17.04-.24,11.57-1.67,17.3-2.19,19.24-.77,2.84-1.61,5.11-2.2,6.6l-2.2,4.94" fill="none" stroke="#231f20" stroke-miterlimit="10" stroke-width=".5"/>
              </g>
            </g>
            <path d="M86.59,349.51l-.07,3.71,1.58.55c9.55,1.79,16.08.82,16.08.82l1.99-5.77-5.84,1.79-2.89.21-3.85-.21-3.44-.48-1.99-.55-1.58-.07Z" fill="#231f20" stroke="#010101" stroke-miterlimit="10"/>
            <path d="M143.58,349.07l-.06,3.7,1.29.55c7.79,1.78,13.12.82,13.12.82l1.63-5.75-4.76,1.78-2.35.21-3.14-.21-2.8-.48-1.63-.55-1.29-.07Z" fill="#231f20" stroke="#010101" stroke-miterlimit="10"/>
            <path d="M122.73,195.13c-3.86,15.52-5.67,28.55-6.6,37.92-1.2,12.08-1.76,18.27,0,25.28,1.68,6.71,3.91,9.43,13.19,26.93,4.66,8.79,7.7,14.52,9.34,18.14,4.33,9.55,8.05,24.59,3.85,47.82l17.59-1.65c1.53-9.21,2.58-21.95.55-36.82-1.47-10.75-4.26-19.27-6.05-24.73-3.03-9.29-6.83-18.16-11.54-29.13-1.59-3.71-2.94-6.76-3.85-8.79l11.54-56.61-14.29,15.94-13.74-14.29Z" fill="#ffe600" stroke="#020202" stroke-miterlimit="10"/>
            <path d="M85.9,349.03c12.49,3.89,20.89-.55,20.89-.55,0,0,1.5-7.1,3.3-22.53,1.42-12.2,4.07-21.84,5.5-26.93,1.43-5.12,2.84-9.28,3.85-12.09l4.95-9.34-10.44-23.63c-3.54,5.76-8.59,14.23-14.29,24.73-3.81,7.02-7.3,13.44-9.34,18.14-3.73,8.59-4.4,52.21-4.4,52.21Z" fill="#ffe600" stroke="#020202" stroke-miterlimit="10"/>
            <path d="M152.77,213.64c2.24,1.83,3.77,3.73,4.76,5.13.37,2.93-.37,17.59-.37,17.59,0,2.56-2.56,5.13-2.56,5.13-2.58-.67-4.8.65-5.13,2.2-.32,1.48,1.07,3.2,2.56,3.66,2.06.64,4.07-1.16,4.4-.73.48.63-4.39,3.98-3.66,5.86.48,1.25,3.44,1.83,5.13.73.82-.53,1.25-1.35,1.25-1.35.54-1.02.31-1.87.58-1.95.56-.16,1.37,3.53,2.93,3.66,1.47.12,3.3-2.93,3.3-2.93-.25-1.68-.7-2.94-1.09-3.82-.31-.69-.53-1.03-.37-1.31.55-.96,4.46.99,5.13,0,.41-.61-1.05-1.76-2.2-4.4,0,0-.69-1.58-1.1-4.03-.66-3.91.6-6.47,1.1-9.53.97-5.89-1.3-10.92-1.83-12.09-3.04-6.73-9.66-9.81-11.36-10.63-6.68-3.18-10.63-1.54-12.82-5.13-1.36-2.22-1.52-5.61,0-7.69.92-1.26,2.22-1.72,3.66-2.2,8.29-2.73,9.97-2.11,12.82-3.66,5.33-2.89,6.84-9.01,6.96-9.53.09-.4,1.27-5.85-1.83-10.99-.55-.92-3.31-5.26-5.86-4.76-1.46.29-1.59,1.92-3.3,4.03-1.23,1.52-2.43,2.25-9.89,5.5-4.55,1.98-6.39,2.7-9.89,4.4-4.13,2-6.11,3.19-7.33,5.5-.73,1.38-.88,2.57-1.1,4.4-.65,5.27.94,6.92.37,9.53-.34,1.54-1.34,2.97-10.63,8.06-8.82,4.83-11.08,5.27-15.39,8.79-2.68,2.19-4.27,3.49-5.86,5.86-3.92,5.84-3.25,11.31-6.23,12.09-2.03.53-3.12-1.8-5.5-1.1-2.1.62-3.94,3.21-3.66,5.86.02.15.34,2.9,2.56,4.03.22.11,1.41.72,2.82.46.95-.18,1.36-.63,1.58-.46.54.44-2.16,3.12-1.47,5.5.45,1.52,2.26,2.82,3.66,2.56,2-.36,2.34-3.73,3.66-3.66,1.16.06,1.08,2.61,3.3,4.03,1.36.87,3.47,1.25,4.4.37,1.26-1.2-.56-3.9.73-5.13,1.09-1.04,2.96.31,4.03-.73.95-.93.78-3.31-.37-4.76-1.86-2.35-5.3-1.07-6.23-2.93-.8-1.6,1.01-4.03,1.83-5.13,1.45-1.94,2.61-2.43,6.6-5.13,3.55-2.4,5.55-3.77,7.69-5.86,2.27-2.21,3.09-3.67,4.03-4.76,3.27-3.82,9.28-4.49,16.49-4.03.48.03,1.72,1.05,2.2,1.1,5.84.62,11.82.59,16.49,4.4Z" fill="#906126" stroke="#020202" stroke-miterlimit="10"/>
            <polyline points="115.31 243.77 131.79 226.19 130.42 218.03 136.28 209.24 136.5 209.53 140.86 215.47 141.14 216.57 138.66 225.91 142.79 230.58 148.97 202.25 150.76 194.03 137.84 208.87 136.6 210.38 123 196.51 119.29 215.19 115.72 242.26" fill="#159e49" stroke="#020202" stroke-miterlimit="10"/>
            <path d="M161.2,171.5c-.72-1.83-3.24-3.49-4.95-3.85-2.98-.63-7.53,1.82-7.69,5.5-.11,2.45,1.75,5.06,3.85,5.5,2.37.49,4.45-1.93,7.15-1.65,2.52.26,2.84.37,2.84.37.52.17.84.34,1.19.18.58-.25.69-1.14.82-2.11.16-1.21.27-2.01-.18-2.38-.54-.44-1.28.19-2.11-.27-.6-.33-.79-.97-.92-1.28Z" fill="#fff" stroke="#020202" stroke-miterlimit="10"/>
            <ellipse cx="155.02" cy="173.15" rx="1.51" ry="1.74" fill="#fff" stroke="#020202" stroke-miterlimit="10"/>
            <line x1="151.76" y1="181.85" x2="162.21" y2="182.03" fill="none" stroke="#020202" stroke-miterlimit="10"/>
          </g>
        </g>
      </g>
    </g>
  </g>
</svg>