<?xml version="1.0" encoding="UTF-8"?>
<svg id="Layer_2" data-name="Layer 2" xmlns="http://www.w3.org/2000/svg" viewBox="0 0 488.14 372.31">
  <g id="outlines">
    <g id="Page_1" data-name="Page 1">
      <g id="Frame_2" data-name="Frame 2">
        <g id="Layer_9" data-name="Layer 9">
          <ellipse cx="105.6" cy="90.62" rx="87.21" ry="83.27" fill="#fff" stroke="#231f20" stroke-miterlimit="10" stroke-width="2"/>
          <path d="M158.94,129.66c-21.94,29.68-63.77,35.72-93.43,13.5-29.66-22.22-35.92-64.29-13.98-93.97,21.94-29.68,63.77-35.72,93.43-13.5,29.66,22.22,35.92,64.29,13.98,93.97Z" fill="#fff" stroke="#231f20" stroke-miterlimit="10" stroke-width="2"/>
          <ellipse cx="106.51" cy="88.97" rx="48.55" ry="47.18" fill="#fff" stroke="#231f20" stroke-miterlimit="10" stroke-width="2"/>
          <ellipse cx="105.6" cy="89.06" rx="28.21" ry="26.75" fill="#fff" stroke="#231f20" stroke-miterlimit="10" stroke-width="2"/>
          <ellipse cx="105.6" cy="89.06" rx="12.82" ry="11.73" fill="#fff" stroke="#231f20" stroke-miterlimit="10" stroke-width="2"/>
          <line x1="99.37" y1=".02" x2="99.73" y2="7.62" fill="none" stroke="#231f20" stroke-miterlimit="10"/>
          <line x1="81.78" y1="2.59" x2="84.35" y2="9.92" fill="none" stroke="#231f20" stroke-miterlimit="10"/>
          <line x1="65.66" y1="9.55" x2="69.69" y2="15.05" fill="none" stroke="#231f20" stroke-miterlimit="10"/>
          <line x1="52.1" y1="17.25" x2="55.4" y2="22.38" fill="none" stroke="#231f20" stroke-miterlimit="10"/>
          <line x1="36.71" y1="31.17" x2="41.11" y2="33.73" fill="none" stroke="#231f20" stroke-miterlimit="10"/>
          <line x1="22.79" y1="52.42" x2="27.92" y2="52.79" fill="none" stroke="#231f20" stroke-miterlimit="10"/>
          <line x1="119.52" y1="2.22" x2="119.52" y2="8.09" fill="none" stroke="#231f20" stroke-miterlimit="10"/>
          <line x1="139.31" y1="7.35" x2="139.31" y2="13.21" fill="none" stroke="#231f20" stroke-miterlimit="10"/>
          <line x1="153.96" y1="15.05" x2="151.4" y2="19.08" fill="none" stroke="#231f20" stroke-miterlimit="10"/>
          <line x1="167.15" y1="24.94" x2="164.59" y2="28.24" fill="none" stroke="#231f20" stroke-miterlimit="10"/>
          <line x1="181.44" y1="38.86" x2="177.41" y2="41.8" fill="none" stroke="#231f20" stroke-miterlimit="10"/>
          <line x1="185.47" y1="57.55" x2="189.87" y2="56.82" fill="none" stroke="#231f20" stroke-miterlimit="10"/>
          <line x1="192.07" y1="95.66" x2="196.47" y2="95.29" fill="none" stroke="#231f20" stroke-miterlimit="10"/>
          <line x1="188.04" y1="116.18" x2="194.64" y2="118.01" fill="none" stroke="#231f20" stroke-miterlimit="10"/>
          <line x1="180.35" y1="131.93" x2="186.57" y2="135.96" fill="none" stroke="#231f20" stroke-miterlimit="10"/>
          <line x1="173.02" y1="142.92" x2="177.41" y2="145.86" fill="none" stroke="#231f20" stroke-miterlimit="10"/>
          <line x1="160.93" y1="155.02" x2="164.22" y2="157.58" fill="none" stroke="#231f20" stroke-miterlimit="10"/>
          <line x1="145.9" y1="163.81" x2="149.2" y2="171.14" fill="none" stroke="#231f20" stroke-miterlimit="10"/>
          <line x1="129.05" y1="170.41" x2="130.51" y2="176.63" fill="none" stroke="#231f20" stroke-miterlimit="10"/>
          <line x1="113.66" y1="173.7" x2="114.02" y2="181.03" fill="none" stroke="#231f20" stroke-miterlimit="10"/>
          <line x1="94.6" y1="172.97" x2="93.87" y2="178.83" fill="none" stroke="#231f20" stroke-miterlimit="10"/>
          <line x1="73.35" y1="168.21" x2="71.89" y2="174.44" fill="none" stroke="#231f20" stroke-miterlimit="10"/>
          <line x1="64.56" y1="164.18" x2="63.09" y2="169.31" fill="none" stroke="#231f20" stroke-miterlimit="10"/>
          <line x1="49.9" y1="155.75" x2="45.51" y2="159.78" fill="none" stroke="#231f20" stroke-miterlimit="10"/>
          <line x1="191.34" y1="74.77" x2="195.37" y2="74.04" fill="none" stroke="#231f20" stroke-miterlimit="10"/>
          <line x1="15.09" y1="78.07" x2="19.12" y2="78.44" fill="none" stroke="#231f20" stroke-miterlimit="10"/>
          <line x1="14.36" y1="98.22" x2="18.39" y2="98.22" fill="none" stroke="#231f20" stroke-miterlimit="10"/>
          <line x1="14.36" y1="115.08" x2="21.32" y2="113.25" fill="none" stroke="#231f20" stroke-miterlimit="10"/>
          <line x1="29.02" y1="130.47" x2="23.15" y2="134.13" fill="none" stroke="#231f20" stroke-miterlimit="10"/>
          <line x1="37.44" y1="142.92" x2="32.68" y2="147.69" fill="none" stroke="#231f20" stroke-miterlimit="10"/>
          <path d="M105.96,83.7c-.8,0-1.51.16-2.11.43s-1.11.66-1.51,1.13c-.1.12-.2.24-.28.37-.35.51-.6,1.08-.76,1.68-.3,1.21-.2,2.53.3,3.66.13.28.28.55.45.8.09.13.18.25.28.37.6.7,1.43,1.23,2.49,1.45.35.07.73.11,1.13.11,6.43,0,6.45-10,0-10Z" fill="#231f20"/>
          <rect x="221.02" y="7.17" width="145.65" height="32.15" fill="#2e2f2d" stroke="#231f20" stroke-miterlimit="10" stroke-width="2"/>
          <rect x="229.81" y="17.34" width="28.31" height="11.27" fill="#47464c" stroke="#231f20" stroke-miterlimit="10" stroke-width=".75"/>
          <rect x="329.77" y="17.34" width="28.31" height="11.27" fill="#47464c" stroke="#231f20" stroke-miterlimit="10" stroke-width=".75"/>
          <rect x="266.54" y="17.34" width="55.24" height="11.27" fill="#47464c" stroke="#231f20" stroke-miterlimit="10" stroke-width=".75"/>
          <circle cx="380.82" cy="24.07" r="6.18" fill="#47464c" stroke="#231f20" stroke-miterlimit="10" stroke-width=".75"/>
          <circle cx="210.44" cy="24.07" r="5.36" fill="#47464c" stroke="#231f20" stroke-miterlimit="10" stroke-width=".75"/>
          <rect x="395.8" y="10.74" width="83.82" height="168.46" fill="#233323" stroke="#231f20" stroke-miterlimit="10" stroke-width=".75"/>
          <path d="M416.96,43.72c.71,1.28.51,2.15.27,6.87-.12,2.3-.2,4.64,0,7.42.2,2.84.52,3.69,1.1,4.4,1.21,1.48,3.09,1.74,4.4,1.92,1.03.14,5.47.76,8.79-2.47.46-.44,2.36-2.39,2.75-5.5.39-3.19-1.06-5.64-1.65-6.6-1.64-2.67-2.96-2.35-4.4-4.95-1.25-2.27-1.33-4.48-1.37-5.77-.12-3.65,1.16-4.2,1.37-8.24.11-2.09.24-4.59-1.1-7.15-1.57-2.99-4.27-4.34-6.05-5.22-1.57-.78-4.74-2.36-8.79-1.65-2.99.53-4.96,2.04-5.5,2.47-.69.56-3.36,2.78-4.12,6.6-.84,4.2.99,8.65,3.85,10.99,1.66,1.36,2.46,1.01,6.87,3.85,2.69,1.73,3.22,2.39,3.57,3.02Z" fill="#65c193" stroke="#231f20" stroke-miterlimit="10" stroke-width=".75"/>
          <path d="M421.63,162.16c1.04-1.48.92-1.34,1.1-1.56.28-.35,2.59-3.2,5.77-3.93,2.61-.6,3.14.83,6.32.82,3.3,0,5.76-1.54,7.69-2.75,1.97-1.23,5.55-3.47,7.15-7.97.34-.96,1.27-3.7.55-6.87-1.59-6.97-9.75-9.88-12.09-10.72-1.68-.6-7.74-2.54-14.84-.27-5.47,1.75-8.75,5.1-10.44,6.87-3.24,3.39-4.74,6.67-6.05,9.62-1.79,4.02-4.35,9.78-3.02,16.49.39,1.98,1.11,5.59,3.85,6.87,1.7.79,3.58.4,5.5,0,1.69-.35,3.8-.8,5.5-2.47.39-.38,1.26-1.63,3.02-4.12Z" fill="#65c193" stroke="#231f20" stroke-miterlimit="10" stroke-width=".75"/>
          <path d="M481.54,25.86c-1.08-.91-2.74-2.16-4.95-3.3-2.49-1.28-6.23-3.21-10.99-2.75-1.52.15-5.59.55-8.24,3.57-2.33,2.65-2.39,5.99-2.47,8.52-.3,9.56-1.12,17.86-1.37,20.06-1.49,12.68-7.95,23.45-9.07,25.28-2.01,3.29-4.28,6.26-5.77,11.54-1.6,5.65-1.22,10.08-1.1,11.27.34,3.32.85,8.28,4.67,12.64.55.63,3.97,4.43,9.34,5.77,1.4.35,1.27.12,5.22.82,6.12,1.1,7.39,1.83,7.97,2.2,1.02.66.92.86,4.12,4.67,2.85,3.39,4.31,5.11,6.05,6.6,1.25,1.06,3.21,2.53,6.05,3.85l.55-110.75Z" fill="#65c193" stroke="#231f20" stroke-miterlimit="10" stroke-width=".75"/>
          <polyline points="487.76 187.26 487.76 263.11 .38 263.11 .38 187.26" fill="#55caf5" stroke="#231f20" stroke-miterlimit="10" stroke-width=".75"/>
          <circle cx="21.87" cy="203.2" r="6.05" fill="#516cb3" stroke="#231f20" stroke-miterlimit="10" stroke-width=".75"/>
          <ellipse cx="37.08" cy="234.71" rx="5.86" ry="5.68" fill="#516cb3" stroke="#231f20" stroke-miterlimit="10" stroke-width=".75"/>
          <ellipse cx="22.42" cy="253.4" rx="7.33" ry="6.05" fill="#516cb3" stroke="#231f20" stroke-miterlimit="10" stroke-width=".75"/>
          <ellipse cx="64.38" cy="219.51" rx="5.68" ry="5.5" fill="#516cb3" stroke="#231f20" stroke-miterlimit="10" stroke-width=".75"/>
          <circle cx="65.11" cy="239.47" r="3.11" fill="#516cb3" stroke="#231f20" stroke-miterlimit="10" stroke-width=".75"/>
          <ellipse cx="54.67" cy="255.23" rx="6.23" ry="5.31" fill="#516cb3" stroke="#231f20" stroke-miterlimit="10" stroke-width=".75"/>
          <ellipse cx="109.63" cy="222.8" rx="4.4" ry="4.76" fill="#516cb3" stroke="#231f20" stroke-miterlimit="10" stroke-width=".75"/>
          <ellipse cx="114.76" cy="244.6" rx="5.5" ry="4.95" fill="#516cb3" stroke="#231f20" stroke-miterlimit="10" stroke-width=".75"/>
          <ellipse cx="141.51" cy="240.57" rx="6.6" ry="7.15" fill="#516cb3" stroke="#231f20" stroke-miterlimit="10" stroke-width=".75"/>
          <ellipse cx="167.34" cy="223.17" rx="4.95" ry="4.76" fill="#516cb3" stroke="#231f20" stroke-miterlimit="10" stroke-width=".75"/>
          <circle cx="190.79" cy="236.91" r="5.68" fill="#516cb3" stroke="#231f20" stroke-miterlimit="10" stroke-width=".75"/>
          <circle cx="163.31" cy="251.57" r="3.85" fill="#516cb3" stroke="#231f20" stroke-miterlimit="10" stroke-width=".75"/>
          <ellipse cx="215.52" cy="246.8" rx="5.5" ry="5.68" fill="#516cb3" stroke="#231f20" stroke-miterlimit="10" stroke-width=".75"/>
          <ellipse cx="212.96" cy="218.96" rx="4.76" ry="5.68" fill="#516cb3" stroke="#231f20" stroke-miterlimit="10" stroke-width=".75"/>
          <circle cx="141.32" cy="202.1" r="4.58" fill="#516cb3" stroke="#231f20" stroke-miterlimit="10" stroke-width=".75"/>
          <ellipse cx="382.97" cy="200.63" rx="6.6" ry="6.41" fill="#516cb3" stroke="#231f20" stroke-miterlimit="10" stroke-width=".75"/>
          <circle cx="368.68" cy="235.26" r="6.6" fill="#516cb3" stroke="#231f20" stroke-miterlimit="10" stroke-width=".75"/>
          <ellipse cx="422.54" cy="219.69" rx="5.86" ry="6.05" fill="#516cb3" stroke="#231f20" stroke-miterlimit="10" stroke-width=".75"/>
          <ellipse cx="455.43" cy="216.85" rx="5.86" ry="6.05" fill="#516cb3" stroke="#231f20" stroke-miterlimit="10" stroke-width=".75"/>
          <ellipse cx="478.42" cy="250.47" rx="5.68" ry="6.41" fill="#516cb3" stroke="#231f20" stroke-miterlimit="10" stroke-width=".75"/>
          <ellipse cx="422.54" cy="248.63" rx="6.23" ry="6.05" fill="#516cb3" stroke="#231f20" stroke-miterlimit="10" stroke-width=".75"/>
          <circle cx="436.28" cy="233.98" r="4.58" fill="#516cb3" stroke="#231f20" stroke-miterlimit="10" stroke-width=".75"/>
          <ellipse cx="455.89" cy="245.15" rx="4.03" ry="4.76" fill="#516cb3" stroke="#231f20" stroke-miterlimit="10" stroke-width=".75"/>
          <ellipse cx="476.22" cy="226.1" rx="5.68" ry="7.33" fill="#516cb3" stroke="#231f20" stroke-miterlimit="10" stroke-width=".75"/>
          <ellipse cx="477.87" cy="206.5" rx="3.66" ry="3.85" fill="#516cb3" stroke="#231f20" stroke-miterlimit="10" stroke-width=".75"/>
          <circle cx="408.25" cy="205.58" r="5.5" fill="#516cb3" stroke="#231f20" stroke-miterlimit="10" stroke-width=".75"/>
          <ellipse cx="384.25" cy="218.96" rx="3.48" ry="3.11" fill="#516cb3" stroke="#231f20" stroke-miterlimit="10" stroke-width=".75"/>
          <ellipse cx="391.76" cy="244.97" rx="6.23" ry="5.31" fill="#516cb3" stroke="#231f20" stroke-miterlimit="10" stroke-width=".75"/>
          <rect x=".38" y="262.19" width="486.66" height="109.74" fill="#e17826" opacity=".65" stroke="#231f20" stroke-miterlimit="10" stroke-width=".75"/>
          <rect x="10.15" y="263.29" width="13.15" height="106.99" fill="#eca871" opacity=".65" stroke="#231f20" stroke-miterlimit="10" stroke-width=".75"/>
          <rect x="39.11" y="263.66" width="13.15" height="106.99" fill="#eca871" opacity=".65" stroke="#231f20" stroke-miterlimit="10" stroke-width=".75"/>
          <rect x="64.56" y="263.47" width="13.19" height="106.99" fill="#eca871" opacity=".65" stroke="#231f20" stroke-miterlimit="10" stroke-width=".75"/>
          <rect x="90.57" y="264.11" width="13.19" height="106.99" fill="#eca871" opacity=".65" stroke="#231f20" stroke-miterlimit="10" stroke-width=".75"/>
          <rect x="116.59" y="263.74" width="13.19" height="106.99" fill="#eca871" opacity=".65" stroke="#231f20" stroke-miterlimit="10" stroke-width=".75"/>
          <rect x="142.6" y="264.38" width="13.19" height="106.99" fill="#eca871" opacity=".65" stroke="#231f20" stroke-miterlimit="10" stroke-width=".75"/>
          <rect x="168.62" y="264.01" width="13.19" height="106.99" fill="#eca871" opacity=".65" stroke="#231f20" stroke-miterlimit="10" stroke-width=".75"/>
          <rect x="194.64" y="263.64" width="13.19" height="106.99" fill="#eca871" opacity=".65" stroke="#231f20" stroke-miterlimit="10" stroke-width=".75"/>
          <rect x="220.65" y="264.28" width="13.19" height="106.99" fill="#eca871" opacity=".65" stroke="#231f20" stroke-miterlimit="10" stroke-width=".75"/>
          <rect x="246.67" y="263.91" width="13.19" height="106.99" fill="#eca871" opacity=".65" stroke="#231f20" stroke-miterlimit="10" stroke-width=".75"/>
          <rect x="272.68" y="263.54" width="13.19" height="106.99" fill="#eca871" opacity=".65" stroke="#231f20" stroke-miterlimit="10" stroke-width=".75"/>
          <rect x="298.7" y="264.18" width="13.19" height="106.99" fill="#eca871" opacity=".65" stroke="#231f20" stroke-miterlimit="10" stroke-width=".75"/>
          <rect x="324.71" y="263.81" width="13.19" height="106.99" fill="#eca871" opacity=".65" stroke="#231f20" stroke-miterlimit="10" stroke-width=".75"/>
          <rect x="350.73" y="263.44" width="13.19" height="106.99" fill="#eca871" opacity=".65" stroke="#231f20" stroke-miterlimit="10" stroke-width=".75"/>
          <rect x="376.74" y="264.08" width="13.19" height="106.99" fill="#eca871" opacity=".65" stroke="#231f20" stroke-miterlimit="10" stroke-width=".75"/>
          <rect x="402.76" y="263.71" width="13.19" height="106.99" fill="#eca871" opacity=".65" stroke="#231f20" stroke-miterlimit="10" stroke-width=".75"/>
          <rect x="428.77" y="263.34" width="13.19" height="106.99" fill="#eca871" opacity=".65" stroke="#231f20" stroke-miterlimit="10" stroke-width=".75"/>
          <rect x="454.79" y="263.98" width="13.19" height="106.99" fill="#eca871" opacity=".65" stroke="#231f20" stroke-miterlimit="10" stroke-width=".75"/>
        </g>
        <g id="Layer_11" data-name="Layer 11">
          <g>
            <g>
              <path d="M371.75,330.53c.59,4.94-1.04,9.13-2.33,11.68v2.99l.14.54c-3.89-.04-7.79-.08-11.68-.13h0s-6.82-.07-6.82-.07c-.2,0-.41,0-.61,0l-.13-.88c-.1-.84-.32-2.15-.83-3.67-1.71-5.12-4.88-6.97-6.87-9.64-4.43-5.97-2.19-15.01-.13-23.37,1.66-6.72,3.03-6.83,3.84-12.63.12-.83.21-1.65.26-2.44l10.94.94c-.21,3.69,1.07,6.85,3.51,12.64,1.82,4.35,2.54,5.13,6.73,13.86,3.26,6.79,3.76,8.25,3.98,10.18Z" fill="#fff"/>
              <path d="M315.98,72.81c2.02-.35,4.85-.68,8.23-.61,4.51.08,6.83.12,8.93,1.35,5.82,3.42,5.4,13.26,5.36,14-.3,5.44-2.86,9.44-7.97,17.25-3.17,4.84-3.73,4.88-6.73,9.23-4.33,6.28-10.41,15.08-11.68,25.27-.09.75-.15,1.46-.18,2.18l-4.06-.1.67-25.87c1.79-3.09,4.3-6.85,8.11-11.4,4.72-5.64,5.77-6.79,5.77-6.79,3.44-3.77,5.09-5.08,5.77-7.88.25-1.05.93-3.83-.55-5.7-1.46-1.85-4.45-2.12-8.25-2.44-.84-.08-2.31-.17-4.39-.54-1.52-.29-2.25-.82-2.48-.54-.41.48,1.8,2.07,2.89,4.74,1.3,3.2.41,6.48-.55,10.05-.63,2.33-1.06,2.86-2.2,5.98-1.35,3.71-2.15,6.81-2.61,8.83l-.96,4.21-.55,1.35v.13c-.88,1.51-1.59,2.87-2.2,4.08-1.3,2.58-2.02,4.03-2.75,6.12-.61,1.75-.98,2.32-.96,3.25h-.79c-.01-.17-.02-.36-.02-.53-.03-2.19.4-3.82.53-4.31.65-2.28,1.77-3.4,2.57-5.07,2.15-4.47,3.68-7.64,3.66-11.59-.01-3.26-1.06-3.85-.36-6.16.8-2.67,2.4-2.56,4.03-5.44,2.75-4.85.99-10.13.73-10.86-.78-2.22-1.93-3.37-2.2-3.62-1.07-1.03-2.2-1.55-2.93-1.82l-.37-1.08c-.29.37-.65.85-1.06,1.41l-.7-.13c.48-.67.68-1.13.48-1.33-.26-.27-.87.2-2.61.68-3.69,1.01-6.08.33-7.83.41-4.64.22-9.41,6.07-10.86,11.55-1.82,6.93,1.16,15.26,5.78,17.79,1.23.67,3.76,1.58,4.26,3.67.12.52.09,1.03.09,1.57,0,.65.05,1.36.45,2.23.46.97.81.96,1.24,1.76.93,1.76.11,3.4-.14,5.58-.16,1.41-.11,3.43.83,5.97.76,2.09,1.7,5.28,1.92,9.23.23,4.13-.43,6.99-1.23,11.42-.3,1.65-.54,3.04-.72,4.22l-6.97-1.07c.3-2.04.5-4.23.54-6.55.24-14.38-5.87-26.42-11.54-37.62-1.75-3.45-2.62-5.17-3.71-6.93-3.45-5.57-5.25-6.49-5.64-9.37-.43-3.25,1.37-5.87,3.58-9.09,4.26-6.23,10.08-9.05,12.5-10.19,3.75-1.77,7.26-2.59,10.03-2.99-1.04-.32-2.5-.72-4.26-1.09-1.87-.39-4.71-.98-8.1-1.12l.33-7.54c4.17.19,9.23,1.03,14.23,4.17,3.04,1.92,5.14,4.11,6.46,5.7.48-1.27,1.22-2.93,2.33-4.74.49-.8,2.51-4.02,6.05-7.07,2.03-1.75,7.08-6.09,14.84-7.06,7.77-.98,13.71,2,16.76,3.53,2.72,1.35,7.67,3.84,11,8.69,9.82,14.32-2,38.36-3.58,41.57-2.06,4.19-3.53,5.99-4.81,10.6-.7,2.53-3.08,11.59.42,21.59,1.04,2.99,1.37,2.53,8.24,14.13,4.76,8.04,7.14,12.06,7.69,13.86,3.22,10.44-.2,20.37-1.64,24.58-1.03,2.98-.88,1.63-5.09,10.86-4.82,10.58-7.24,15.97-7.83,21.05-.32,2.78-1.03,8.82,1.51,15.35,3.93,10.06,10.67,8.67,14.15,17.25,3.59,8.83.89,21.3-3.57,29.2-1.5,2.66-3.26,4.9-3.71,8.83-.03.28-.05.53-.07.8l-10.94-.94c.45-5.76-.52-10.33-1.08-12.9-1.14-5.21-3.85-10.74-9.21-21.6-4.76-9.64-5.54-10.47-6.04-13.72-.94-6.04.57-10.85,2.61-17.11,3.44-10.57,6.44-11.43,8.93-20.92.58-2.21,1.88-7.72,1.79-14.81-.14-10.54-3.29-18.46-5.23-23.22-4.94-12.14-8.19-11.55-10.3-20.24-.58-2.38-2.72-11.71.96-21.73,3.51-9.56,8.3-8.8,14.29-21.6,3.6-7.69,4.41-13.4,4.67-15.89.8-7.6-.6-12.98-.96-14.25-1.4-5.06-2.54-9.18-6.46-11.82-6.12-4.11-13.87-1.11-14.97-.67-1.41.54-6.57,2.55-8.8,7.6-.47,1.07-.7,2.03-.82,2.72v.07Z" fill="#fff"/>
              <path d="M360.5,363.05l1.22,8.1h-8.1v-.14c.25-.91.81-2.96,1.51-4.35.76-1.52,1.25-2.53,2.33-3.39,1.44-1.15,2.32-.13,2.96-.21h.08Z" fill="#196030"/>
              <path d="M360.23,361.22l.27,1.83h-.08c-.64.09-1.52-.93-2.96.22-1.08.86-1.57,1.87-2.33,3.39-.7,1.39-1.26,3.44-1.51,4.35v.14h-11.97v-.96h.01s-.2-.43-.68-1.06h0c-.24-.55-.47-1.29-.55-2.19-.08-.83.16-1.9.63-2.72,1.64.49,2.82-.11,3.84-.9,3.68.54,10.01.14,13.04-3.12.87.32,1.64.68,2.29,1.03Z" fill="#6fbe44"/>
              <path d="M359.58,356.88l.65,4.34c-.65-.35-1.42-.71-2.29-1.03.83-.88,1.42-1.97,1.64-3.31Z" fill="#6fbe44"/>
              <path d="M337.22,362.37l.05-.11,3.02,1.28,18.92-9.08.37,2.43c-.22,1.34-.81,2.43-1.64,3.31-1.45-.53-3.19-.96-5.15-1.01-2.71-.06-2.42,1.94-4.74,2.11-1.11.09-2.03,1.17-3.15,2.03-.58-.09-1.1-.2-1.52-.33-.99-.3-1.8.32-2.32,1.23-.47.82-.71,1.89-.63,2.72.08.91.31,1.64.55,2.18-.88-1.16-2.6-3.08-5.19-4.9.41-.38.74-.92.93-1.7.05-.22.24-.24.5-.15Z" fill="#1ca049"/>
              <polygon points="357.88 345.62 359.53 354.3 359.21 354.45 357.88 345.62" fill="#dce245"/>
              <path d="M303.84,348.15l-6.01-2.54,10.99.28,29.27,12.77,19.77-13.04h.02l1.33,8.84-18.92,9.08-3.02-1.28-33.43-14.12Z" fill="#dce245"/>
              <path d="M357.88,345.61h0s0,0-.02,0h.02Z" fill="#dce245"/>
              <path d="M357.88,345.61h-.02c-2.27,0-4.53-.03-6.8-.06l6.82.06Z" fill="#fff"/>
              <path d="M350.45,345.55h.61c2.27.03,4.53.05,6.8.07l-19.77,13.04-29.27-12.77-10.99-.28v-.51l52.62.45Z" fill="#f89820"/>
              <path d="M352.79,359.19c1.96.05,3.7.47,5.15,1.01-3.03,3.26-9.36,3.67-13.04,3.12,1.12-.86,2.04-1.94,3.15-2.03,2.32-.17,2.03-2.16,4.74-2.11Z" fill="#1ca049"/>
              <path d="M350.32,344.66l.13.88c-5.68-.06-11.35-.12-17.03-.18v-.16l-1.1-1.35c-1.74-4.56-3.87-11.7-3.85-20.51.03-11.46,3.69-14.49,3.57-24.58-.07-6.37-2.88-13.3-8.51-27.16-3.49-8.6-6.11-13.67-7.8-17.74-1.64-3.95-2.41-6.96-2.24-11.33.17-4.25,1.17-8.17,3.17-16.02,3.91-15.4,5.89-16.03,7.14-22.81,1.79-9.72-1.61-11.88-9.62-47.81-1.74-7.8-2.35-11.18-2.24-14.38.03-.72.09-1.43.18-2.18,1.27-10.18,7.35-18.99,11.68-25.27,3-4.35,3.56-4.39,6.73-9.23,5.11-7.81,7.67-11.81,7.97-17.25.04-.74.46-10.58-5.36-14-2.1-1.24-4.42-1.28-8.93-1.35-3.38-.07-6.21.27-8.23.61v-.07c.11-.69.34-1.65.81-2.72,2.23-5.05,7.39-7.06,8.8-7.6,1.1-.43,8.85-3.44,14.97.67,3.92,2.64,5.06,6.76,6.46,11.82.36,1.28,1.76,6.65.96,14.25-.26,2.49-1.07,8.2-4.67,15.89-5.99,12.8-10.78,12.04-14.29,21.6-3.68,10.01-1.54,19.34-.96,21.73,2.11,8.7,5.36,8.11,10.3,20.24,1.94,4.75,5.09,12.68,5.23,23.22.09,7.09-1.21,12.59-1.79,14.81-2.49,9.49-5.49,10.35-8.93,20.92-2.04,6.26-3.55,11.07-2.61,17.11.5,3.25,1.28,4.08,6.04,13.72,5.36,10.85,8.07,16.39,9.21,21.6.56,2.57,1.53,7.14,1.08,12.9-.05.79-.14,1.61-.26,2.44-.81,5.8-2.18,5.91-3.84,12.63-2.06,8.36-4.3,17.4.13,23.37,1.99,2.67,5.16,4.52,6.87,9.64.51,1.52.73,2.83.83,3.67Z" fill="#fff"/>
              <path d="M343.38,362.99c.42.13.94.24,1.52.33-1.02.79-2.2,1.39-3.84.9.52-.91,1.33-1.52,2.32-1.23Z" fill="#196030"/>
              <path d="M341.65,370.19v.96h-11.39v-.14c.23-1.62-2.76-5.24-1.1-5.98,1.64-.72,4.9.74,6.63-.81,2.59,1.82,4.31,3.75,5.19,4.9h0c.3.7.62,1.07.67,1.07Z" fill="#1ca049"/>
              <path d="M337.27,362.26l-.05.11c-.26-.09-.45-.07-.5.15-.19.78-.52,1.32-.93,1.7-.72-.51-1.51-1.02-2.37-1.49-5.5-3.05-6.61-3.17-7.01-3-1.19.55-2.02,2.16-1.92,3.54.14,1.94,2.06,2.46,2.06,4.48,0,.97-.44,2.17-1.24,2.44-1.21.41-2.82-1.51-3.71-2.58s-2.1-2.83-2.88-5.43l-1.65-7.2c-.68.16-2.56.69-3.99,2.44-.25.31-1.06,1.29-1.45,2.47l-.2-.03c-.67-.83-1.64-2.27-2.33-3.26-.9-1.27-1.67-2.5-2.34-3.67l-3.02-4.48-.12-.2c.08-.04.15-.09.22-.12l33.43,14.12Z" fill="#196030"/>
              <path d="M333.42,362.73c.86.47,1.65.98,2.37,1.49-1.73,1.55-4.99.09-6.63.81-1.66.74,1.33,4.36,1.1,5.98v.14h-31.54v-.14c.76-.73,2.86-2.94,3.23-4.49.61-2.53-.71-4.37.14-5.02.68-.52,2.17.2,3.98,1.09,1.35.65,2.27,1.3,2.34,1.35,4.23,3.03,5.63,6.47,6.87,6.12.88-.26,1.42-2.36.83-3.94-.8-2.14-3.8-1.93-4.54-4.07-.25-.72-.16-1.46.06-2.15.39-1.18,1.2-2.16,1.45-2.47,1.43-1.75,3.31-2.28,3.99-2.44l1.65,7.2c.78,2.6,1.99,4.36,2.88,5.43s2.5,2.99,3.71,2.58c.8-.27,1.24-1.47,1.24-2.44,0-2.02-1.92-2.54-2.06-4.48-.1-1.37.73-2.99,1.92-3.54.4-.18,1.51-.06,7.01,3Z" fill="#6fbe44"/>
              <path d="M333.42,345.2v.16c-10.26-.11-20.52-.22-30.78-.33v-.1l1.51-2.86c.68-1.28,1.58-3.22,2.2-5.7,1.38-5.56-.17-9.49-.82-15.48-.53-4.83-1.62-11.93-1.81-18.07l.14-5.32c.12-1.2.31-2.28.59-3.24.77-2.6,1.75-4.77,2.72-6.65,2.46-4.72,3.62-3.34,5.64-7.88,4.2-9.45,1.18-19.99-1.06-25.65l3.98-.24c1.69,4.07,4.31,9.14,7.8,17.74,5.63,13.87,8.44,20.8,8.51,27.16.12,10.09-3.54,13.13-3.57,24.58-.02,8.81,2.11,15.95,3.85,20.51l1.1,1.35Z" fill="#fff"/>
              <path d="M327.65,83.74c1.48,1.88.8,4.66.55,5.7-.68,2.8-2.33,4.11-5.77,7.88,0,0-1.05,1.15-5.77,6.79-3.81,4.55-6.32,8.3-8.11,11.4v-.13l.55-1.35.96-4.21c.46-2.02,1.26-5.12,2.61-8.83,1.14-3.12,1.57-3.65,2.2-5.98.96-3.57,1.85-6.85.55-10.05-1.09-2.68-3.3-4.26-2.89-4.74.23-.28.96.26,2.48.54,2.08.38,3.55.46,4.39.54,3.8.33,6.79.59,8.25,2.44Z" fill="#fff"/>
              <path d="M314.18,155.87c8.01,35.93,11.41,38.1,9.62,47.81-1.25,6.78-3.23,7.41-7.14,22.81-2,7.85-3,11.77-3.17,16.02-.17,4.37.6,7.37,2.24,11.33l-3.98.24c-.65-1.64-1.23-2.87-1.55-3.55-2.32-4.9-3.12-4.45-4.93-7.91l1.04-40.21c1.52-2.68,3.07-5.93,4.3-11.77,1.86-8.88,1.36-15.96,1.24-17.53-.19-2.35-1.37-7.5-3.71-17.79-.19-.83-.38-1.63-.56-2.41l.3-11.53,4.06.1c-.11,3.2.5,6.58,2.24,14.38Z" fill="#fff"/>
              <path d="M316.11,366.12c.59,1.58.05,3.69-.83,3.94-1.24.36-2.64-3.08-6.87-6.12-.07-.05-.99-.7-2.34-1.35-1.81-.89-3.3-1.61-3.98-1.09l-.07-.17c.29-.11.55-.28.76-.51.39-.44.58-1.11-.14-4.88-.69-3.66-1.2-4.82-.55-6.12.38-.74.99-1.24,1.53-1.55l.12.2,3.02,4.48c.67,1.17,1.44,2.4,2.34,3.67.69.99,1.66,2.43,2.33,3.26l.2.03c-.22.68-.31,1.42-.06,2.15.74,2.15,3.74,1.94,4.54,4.07Z" fill="#1ca049"/>
              <path d="M311.75,254.08c2.24,5.66,5.26,16.2,1.06,25.65-2.02,4.54-3.18,3.15-5.64,7.88-.97,1.88-1.95,4.05-2.72,6.65-.28.96-.47,2.05-.59,3.24l1.41-54.88c1.81,3.46,2.61,3.01,4.93,7.91.32.68.9,1.91,1.55,3.55Z" fill="#fff"/>
              <path d="M312.99,85.01c.26.73,2.02,6.01-.73,10.86-1.63,2.88-3.23,2.77-4.03,5.44-.7,2.31.35,2.9.36,6.16.02,3.94-1.51,7.12-3.66,11.59-.8,1.67-1.92,2.79-2.57,5.07-.13.49-.56,2.12-.53,4.31,0,.18.01.37.02.53.05,1.28.25,2.39.47,3.29-.84-2.64-2.06-6.69-2.13-7.96-.02-.27-.02-.53-.02-.53-.11-3.53.61-4.02,1.46-11.23.53-4.47.8-6.73.73-9.79-.16-8.23-2.45-9.02-1.09-13.39,1.01-3.29,3.66-7.24,4.39-8.33.27-.41.53-.78.77-1.12.41-.56.77-1.05,1.06-1.41l.37,1.08c.73.27,1.86.79,2.93,1.82.27.25,1.42,1.39,2.2,3.62Z" fill="#fff"/>
              <path d="M311.85,173.11c.12,1.56.62,8.65-1.24,17.53-1.23,5.84-2.78,9.09-4.3,11.77l1.27-49.5c.18.78.37,1.58.56,2.41,2.34,10.29,3.52,15.44,3.71,17.79Z" fill="#fff"/>
              <path d="M308.55,115.52l-.67,25.87-.3,11.53c-1.65-7.15-2.88-12.19-3.02-15.65-.04-1.13.02-2.44-.55-4.21-.6-1.89-1.33-2.53-1.37-4.08-.02-.93.35-1.5.96-3.25.73-2.09,1.45-3.54,2.75-6.12.61-1.22,1.32-2.57,2.2-4.08Z" fill="#fff"/>
              <path d="M302.32,132.26c-.22-.9-.42-2.02-.47-3.29h.79c.04,1.55.77,2.19,1.37,4.08.57,1.77.51,3.08.55,4.21.14,3.46,1.37,8.5,3.02,15.65l-1.27,49.5c-2.06,3.6-4.06,6.15-5.18,12.53-.5,2.87-.67,5.62-.62,8.2h-.39c-.18-7.15-.3-6.57-.23-10.24.25-13.24,2.13-35.61,5.5-49.03.49-1.99,1.4-5.26,1.1-9.65-.27-3.86-1.14-3.78-2.34-11.14-.43-2.65-.62-4.51-1.65-7.2-.66-1.72-1.08-2.26-1.92-4.21-.76-1.76-1.65-4.17-2.34-7.2.07-.49.17-1.2.28-2.04.35-2.83.52-4.26.27-4.89-.66-1.71-2.28-1.89-2.33-3.39v-.06c0-.76.39-1.31.55-1.57,1.56-2.61-2.36-7.96-3.3-10.86-2.49-7.67,9.29-18.1,12.02-21.9l.7.13c-.24.34-.5.71-.77,1.12-.73,1.1-3.38,5.04-4.39,8.33-1.36,4.38.93,5.16,1.09,13.39.07,3.05-.2,5.32-.73,9.79-.85,7.21-1.57,7.7-1.46,11.23,0,0,0,.27.02.53.07,1.27,1.29,5.32,2.13,7.96ZM303.02,134.41c-.12-.36-.37-1.13-.68-2.11.23.97.5,1.68.64,2.05.01.02.02.04.04.06ZM303.03,134.42c.04.14.07.21.07.21.07-.03-.02-.13-.07-.21Z" fill="#fff"/>
              <path d="M306.49,154.23c.3,4.39-.61,7.66-1.1,9.65-3.37,13.42-5.25,35.79-5.5,49.03-.07,3.67.05,3.09.23,10.24.06,2.25.12,5.28.18,9.45.19,12.17.14,18.46-.27,22.5l-5.51-.59c.33-3.77-.75-7.07-1.22-8.59-2.29-7.34-3.63-18.98-6.32-42.24-.99-8.49-1.46-12.81-.69-16.44,2-9.41,6.8-10.43,9.62-22,.99-4.06.49-4.36,1.48-10.72.18-1.18.42-2.57.72-4.22.8-4.43,1.46-7.29,1.23-11.42-.22-3.95-1.16-7.15-1.92-9.23-.94-2.54-.99-4.56-.83-5.97.25-2.17,1.07-3.82.14-5.58-.43-.8-.78-.79-1.24-1.76-.4-.87-.45-1.58-.45-2.23h1.42v.06c.05,1.5,1.67,1.68,2.33,3.39.25.63.08,2.07-.27,4.89-.11.84-.21,1.54-.28,2.04.69,3.02,1.58,5.44,2.34,7.2.84,1.95,1.26,2.49,1.92,4.21,1.03,2.69,1.22,4.55,1.65,7.2,1.2,7.36,2.07,7.28,2.34,11.14Z" fill="#fff"/>
              <path d="M305.53,320.89c.65,5.99,2.2,9.92.82,15.48-.62,2.48-1.52,4.43-2.2,5.7l-1.51,2.86,1.08-42.11c.19,6.14,1.28,13.24,1.81,18.07Z" fill="#fff"/>
              <path d="M306.31,202.41l-1.04,40.21c-.22-.43-.46-.91-.71-1.46-.79-1.74-3.86-8.75-4.05-18.01-.05-2.58.12-5.34.62-8.2,1.12-6.39,3.12-8.94,5.18-12.53Z" fill="#fff"/>
              <path d="M306.21,78.45c.2.21,0,.66-.48,1.33-2.73,3.8-14.51,14.22-12.02,21.9.94,2.91,4.86,8.25,3.3,10.86-.16.26-.56.81-.55,1.57h-1.42c0-.54.03-1.05-.09-1.57-.5-2.09-3.03-3-4.26-3.67-4.62-2.53-7.6-10.86-5.78-17.79,1.45-5.48,6.22-11.33,10.86-11.55,1.75-.08,4.14.6,7.83-.41,1.74-.48,2.35-.95,2.61-.68Z" fill="#fff"/>
              <path d="M305.27,242.62l-1.41,54.88c-.16,1.62-.19,3.42-.14,5.32l-1.08,42.11v.1c-4.46-.05-8.91-.1-13.37-.14l-1.74-.1h2.19l1.38-1.9c4.79-13.41,4.45-22.84,3.16-29.07-.66-3.16-1.63-5.86-1.51-10.46.2-8.22,3.57-9.82,3.71-17.65.11-6.2-1.96-6.92-1.38-13.04.47-4.84,2.04-7.31,3.44-11,.73-1.93,1.22-3.67,1.51-6.57.41-4.04.46-10.33.27-22.5-.06-4.17-.12-7.2-.18-9.45h.39c.19,9.26,3.26,16.27,4.05,18.01.25.55.49,1.04.71,1.46Z" fill="#fff"/>
              <path d="M303.86,297.51l-.14,5.32c-.05-1.9-.02-3.7.14-5.32Z" fill="#fff"/>
              <path d="M297.83,345.61l6.01,2.54c-.07.03-.14.08-.22.12-.54.32-1.15.81-1.53,1.55-.65,1.29-.14,2.46.55,6.12.72,3.78.53,4.44.14,4.88-.21.24-.47.41-.76.51-.19.08-.39.14-.59.18-.84.15-1.78.02-2.36-.15-1.32-.36-2.15-1.2-2.51-1.64l.31-14.64h.96v.52Z" fill="#196030"/>
              <path d="M303.03,134.42c.05.08.14.18.07.21,0,0-.03-.07-.07-.21Z" fill="#fff"/>
              <path d="M303.02,134.41s-.03-.04-.04-.06c-.14-.37-.41-1.08-.64-2.05.31.98.56,1.75.68,2.11Z" fill="#fff"/>
              <path d="M302.02,361.33l.07.17c-.85.65.47,2.49-.14,5.02-.37,1.55-2.47,3.76-3.23,4.49v.14h-2.4l.22-10.6.02-.83c.36.44,1.19,1.29,2.51,1.64.58.17,1.52.3,2.36.15.2-.04.4-.1.59-.18Z" fill="#6fbe44"/>
              <path d="M294.52,254.51l5.51.59c-.29,2.91-.78,4.65-1.51,6.57-1.4,3.69-2.97,6.16-3.44,11-.58,6.12,1.49,6.84,1.38,13.04-.14,7.84-3.51,9.43-3.71,17.65-.12,4.6.85,7.3,1.51,10.46,1.29,6.23,1.63,15.66-3.16,29.07l-1.38,1.9h-2.19l-4.95-.27-.5.27h-1.66l-2.79-.03.14-1.2c.48-1.34,1.12-3.25,1.79-5.57.67-2.33,2.79-9.99,3.71-20.92.5-5.96.86-10.23.27-16.02-1.12-11.13-4.2-10.66-3.3-16.72,1.07-7.14,5.88-15.71,10.45-21.18.79-.95,1.88-2.17,2.74-4.21.64-1.5.96-3.01,1.09-4.45Z" fill="#fff"/>
              <path d="M290.42,153.45l6.97,1.07c-.99,6.36-.49,6.65-1.48,10.72-2.82,11.58-7.62,12.59-9.62,22-.77,3.63-.3,7.95.69,16.44,2.69,23.26,4.03,34.89,6.32,42.24.47,1.52,1.55,4.82,1.22,8.59-.13,1.44-.45,2.95-1.09,4.45-.86,2.04-1.95,3.26-2.74,4.21-4.57,5.48-9.38,14.05-10.45,21.18-.9,6.06,2.18,5.58,3.3,16.72.59,5.79.23,10.06-.27,16.02-.92,10.92-3.04,18.58-3.71,20.92-.67,2.31-1.31,4.22-1.79,5.57l-.14,1.2c-7.1-.08-14.2-.15-21.3-.23v-.15l.83-1.09c1.28-2.06,2.98-5.14,4.4-9.1,1.89-5.28,2.37-9.6,2.61-11.95,1.89-18.84-1.03-22.41,1.78-32.73,1.91-6.98,5.24-12.69,8.38-18.07,5.23-8.95,8.7-11.81,9.21-18.06.37-4.46-1.17-5.72-4.12-14.4-2.14-6.29-6.12-18.27-5.91-32.19.06-3.86.19-9.75,2.34-16.98,3.05-10.28,7.11-12.98,10.99-23.22,1.02-2.7,2.71-7.28,3.58-13.15Z" fill="#fff"/>
              <path d="M296.56,359.72l-.02.83h-.08c-.31.4-1.16,1.36-2.61,1.77-.59.16-1.53.29-2.37.14-.21-.04-.41-.1-.59-.18-.29-.11-.54-.28-.75-.5-.4-.44-.58-1.12.13-4.89.7-3.66,1.21-4.82.55-6.11-.38-.75-.99-1.25-1.53-1.56-.06-.03-.12-.07-.17-.1l7.75-4.03-.31,14.64Z" fill="#6fbe44"/>
              <path d="M256.65,358.11l-14.57-3.94-9.41-2.55.44-7.09,2.25.02,27.98,10.3,18.45-9.89,10.27.09.41.02,4.4.02-7.75,4.03-13.15,6.85-.12-.03-.02.1-9.14,4.75c-.06-.04-.13-.07-.19-.1-.1-.05-.24-.07-.49-.04l-9.36-2.54Z" fill="#dce245"/>
              <path d="M296.54,360.55l-.22,10.6h-3.3v-.28c-.76-.72-1.69-1.85-2.06-3.39-.61-2.53.71-4.38-.14-5.03l.07-.17c.18.08.38.14.59.18.84.15,1.78.02,2.37-.14,1.45-.41,2.3-1.37,2.61-1.77h.08Z" fill="#1ca049"/>
              <path d="M293.02,370.87v.28h-15.21v-.11c1.2,0,2.66-3.26,6.69-6.14.08-.06.99-.71,2.34-1.36,1.82-.88,3.3-1.61,3.98-1.09.85.65-.47,2.5.14,5.03.37,1.54,1.3,2.67,2.06,3.39Z" fill="#196030"/>
              <path d="M296.18,70.71c-2.77.4-6.28,1.22-10.03,2.99-2.42,1.14-8.24,3.96-12.5,10.19-2.21,3.22-4.01,5.84-3.58,9.09.39,2.88,2.19,3.81,5.64,9.37,1.09,1.76,1.96,3.48,3.71,6.93,5.67,11.2,11.78,23.24,11.54,37.62-.04,2.32-.24,4.52-.54,6.55-.87,5.87-2.56,10.45-3.58,13.15-3.88,10.24-7.94,12.94-10.99,23.22-2.15,7.24-2.28,13.12-2.34,16.98-.21,13.92,3.77,25.9,5.91,32.19,2.95,8.68,4.49,9.94,4.12,14.4-.51,6.25-3.98,9.11-9.21,18.06-3.14,5.38-6.47,11.09-8.38,18.07-2.81,10.32.11,13.89-1.78,32.73-.24,2.35-.72,6.67-2.61,11.95-1.42,3.96-3.12,7.05-4.4,9.1l-.83,1.09-17.72-.28,1.51-2.17c3.89-4.42,5.61-8.53,6.46-11.54,1-3.58.86-5.94.96-15.08,0,0,0-.18.28-13.31.26-12.67.41-19.11,1.37-24.04.71-3.66,1.09-3.88,4.81-14.81,9.25-27.2,9.15-32.47,8.93-35.32-.62-8.16-3.03-7.26-3.85-17.25-.38-4.72-1.15-14.19,2.89-24.58,2.96-7.59,5.79-8.73,8.65-17.79.39-1.22,1.46-4.73,2.48-12.36,1.62-12.13,4.25-31.85-2.34-42.11-.59-.92-2.76-4.09-5.36-8.83-1.5-2.74-1.52-3.01-3.43-6.65-4.42-8.38-5.1-8.31-5.36-10.32-.75-5.85,4.46-10.94,6.05-12.49,5.03-4.93,11.08-5.99,14.15-6.52,2.49-.43,4.86-.52,7.01-.43,3.39.14,6.23.73,8.1,1.12,1.76.37,3.22.77,4.26,1.09Z" fill="#fff"/>
              <path d="M292.06,345.04l-10.27-.09.26-.14c2.41.02,4.81.05,7.22.08l2.79.15Z" fill="#dce245"/>
              <path d="M290.82,350.78c.66,1.29.15,2.45-.55,6.11-.71,3.78-.53,4.45-.13,4.89.21.23.46.4.75.5l-.07.17c-.68-.52-2.16.21-3.98,1.09-1.35.65-2.26,1.3-2.34,1.36-4.03,2.88-5.49,6.14-6.69,6.14-.06,0-.12,0-.18-.03-.88-.26-1.41-2.36-.82-3.94.8-2.14,3.8-1.93,4.53-4.07.25-.71.16-1.46-.06-2.15l.2-.03c.68-.83,1.64-2.27,2.34-3.25.89-1.28,1.66-2.51,2.33-3.67l3.02-4.49.12-.2c.54.32,1.15.81,1.53,1.56Z" fill="#1ca049"/>
              <path d="M289.29,349.21l-.12.2-3.02,4.49c-.67,1.16-1.44,2.39-2.33,3.67-.7.98-1.66,2.42-2.34,3.25l-.2.03c-.39-1.18-1.2-2.16-1.45-2.47-1.35-1.66-3.11-2.22-3.86-2.41l13.15-6.85s.11.07.17.1Z" fill="#196030"/>
              <path d="M289.27,344.89c-2.41-.03-4.81-.06-7.22-.08l.03-.02h5.45l1.74.1Z" fill="#dce245"/>
              <polygon points="287.53 344.79 282.08 344.79 282.58 344.53 287.53 344.79" fill="#dce245"/>
              <path d="M284.15,60.96l-.33,7.54c-2.15-.09-4.52,0-7.01.43-3.07.53-9.12,1.59-14.15,6.52-1.59,1.55-6.8,6.64-6.05,12.49.26,2.01.94,1.94,5.36,10.32,1.91,3.64,1.93,3.91,3.43,6.65,2.6,4.73,4.77,7.91,5.36,8.83,6.59,10.26,3.96,29.98,2.34,42.11-1.02,7.62-2.09,11.14-2.48,12.36-2.86,9.06-5.69,10.2-8.65,17.79-4.04,10.39-3.27,19.87-2.89,24.58.82,9.99,3.23,9.09,3.85,17.25.22,2.85.32,8.12-8.93,35.32-3.72,10.92-4.1,11.15-4.81,14.81-.96,4.93-1.11,11.37-1.37,24.04-.28,13.13-.28,13.31-.28,13.31-.1,9.14.04,11.51-.96,15.08-.85,3.01-2.57,7.12-6.46,11.54l-1.51,2.17,17.72.28v.15c-13.33-.14-26.65-.29-39.98-.43l1.37-1.22c1.1-1.43,2.7-3.7,4.26-6.66,1.58-2.98,4.9-10.05,6.05-25.26.6-7.92-.24-6.81.27-15.21.41-6.65.91-14.93,3.71-23.91,4.23-13.54,8.34-11.62,9.48-20.78.3-2.34.14-3.39-3.02-25.53-.88-6.22-1.33-9.33-1.37-10.05-.24-3.96-.53-15.1,4.26-26.62,4.12-9.91,7.49-9.25,11.81-17.65,9.18-17.84,3.03-38.44,2.48-40.2-4.2-13.4-12.9-21.83-12.09-34.78.22-3.51.96-7.33.96-7.33.89-4.58,2.32-11.96,6.18-17.25,7.53-10.31,22.8-10.61,29.13-10.73,1.27-.02,2.73-.05,4.32.04Z" fill="#fff"/>
              <path d="M282.08,344.79l-.03.02c-.51,0-1.01,0-1.52-.02h1.55Z" fill="#fff"/>
              <polygon points="281.79 344.95 263.34 354.85 235.36 344.55 241.35 344.6 281.79 344.95" fill="#f89820"/>
              <path d="M281.28,360.85c.22.68.31,1.43.06,2.15-.73,2.15-3.73,1.94-4.53,4.07-.59,1.58-.06,3.69.82,3.94.06.02.12.03.18.03v.11h-9.46c1.06-.32,2.24-1.73,2.96-2.58.9-1.08,2.1-2.83,2.89-5.44l1.63-7.1.14-.07c.75.19,2.51.75,3.86,2.41.25.31,1.06,1.29,1.45,2.47Z" fill="#6fbe44"/>
              <path d="M280.42,344.79h-2.79v-.03l2.79.03Z" fill="#fff"/>
              <path d="M275.85,355.94l.12.03-.14.07.02-.1Z" fill="#dce245"/>
              <path d="M275.83,356.03l-1.63,7.1c-.79,2.61-1.99,4.36-2.89,5.44-.72.85-1.9,2.26-2.96,2.58h-.75c-.6-.2-1-.94-1.16-1.7-.05-.25-.08-.5-.08-.75.01-2.02,1.93-2.54,2.07-4.48.09-1.3-.65-2.82-1.74-3.43l9.14-4.75Z" fill="#196030"/>
              <path d="M266.69,360.79c1.09.61,1.83,2.13,1.74,3.43-.14,1.94-2.06,2.46-2.07,4.48,0,.25.03.5.08.75l-.41.08c-.33-1.42-.96-2.96-2.28-3.54-2.03-.9-4.06,1.2-5.49.13-.37-.28-.52-.63-.64-1.29.58-.41,1.21-.79,1.87-1.16,4.14-2.3,5.8-2.94,6.52-3.02l.63.17.05-.03Z" fill="#1ca049"/>
              <path d="M266.03,369.53l.41-.08c.16.76.56,1.5,1.16,1.7h-16.34c.06,0,.38-.38.69-1.1.94-1.23,2.82-3.31,5.67-5.22.12.65.27,1.01.64,1.29,1.43,1.07,3.46-1.03,5.49-.13,1.32.58,1.95,2.12,2.28,3.54Z" fill="#6fbe44"/>
              <path d="M266.69,360.79l-.05.03-.63-.17c.25-.03.39,0,.49.04.06.03.13.06.19.1Z" fill="#dce245"/>
              <path d="M256.65,358.11l9.36,2.54c-.72.09-2.38.72-6.52,3.02-.66.37-1.29.75-1.87,1.16-.17-.83-.31-2.15-.87-4.42-.22-.86-.42-1.57-.55-2.04l.45-.27Z" fill="#6fbe44"/>
              <path d="M256.75,360.41c.56,2.27.7,3.59.87,4.42-2.85,1.91-4.73,3.99-5.67,5.22.23-.53.45-1.27.54-2.16.17-1.75-1.46-3.12-2.89-4.49-.71-.67-1.5-1.47-2.35-2.4,2.22.03,5.23-.47,8.95-2.62.13.46.33,1.18.55,2.04Z" fill="#6fbe44"/>
              <path d="M256.65,358.11l-.45.27c-3.72,2.15-6.73,2.65-8.95,2.62-1.58-1.73-3.37-3.92-5.21-6.69l.04-.14,14.57,3.94Z" fill="#6fbe44"/>
              <path d="M249.6,363.4c1.43,1.36,3.06,2.74,2.89,4.49-.09.9-.31,1.63-.54,2.16-.49.65-.72,1.07-.7,1.1h-12.09c-.26-.91-.68-2.15-1.38-3.54-.76-1.52-1.25-2.53-2.33-3.39-1.37-1.09-2.78-1.38-3.47-1.48l.03-.44.42.03c1.73-.96,4.39-2.11,7.69-2.17,2.71-.07,4,.63,6.32.81.25.02.52.03.81.04.85.93,1.64,1.73,2.35,2.4Z" fill="#196030"/>
              <path d="M247.25,361c-.29,0-.56-.02-.81-.04-2.32-.18-3.61-.88-6.32-.81-3.3.07-5.96,1.22-7.69,2.17l-.42-.03.66-10.68,9.41,2.55-.04.14c1.84,2.77,3.63,4.96,5.21,6.69Z" fill="#1ca049"/>
              <path d="M239.16,371.15h-7.7l.52-8.41c.69.1,2.1.4,3.47,1.48,1.08.86,1.57,1.87,2.33,3.39.7,1.39,1.12,2.63,1.38,3.54Z" fill="#1ca049"/>
              <polygon points="235.36 344.55 233.11 344.53 235.31 344.53 235.36 344.55" fill="#dce245"/>
              <polygon points="233.11 344.53 232.67 351.62 232.56 351.59 233.11 344.53" fill="#dce245"/>
            </g>
            <g>
              <path d="M277.63,344.77c-7.1-.08-14.2-.15-21.3-.23-13.33-.14-26.65-.29-39.98-.43l1.37-1.22c1.1-1.43,2.7-3.7,4.26-6.66,1.58-2.98,4.9-10.05,6.05-25.26.6-7.92-.24-6.81.27-15.21.41-6.65.91-14.93,3.71-23.91,4.23-13.54,8.34-11.62,9.48-20.78.3-2.34.14-3.39-3.02-25.53-.88-6.22-1.33-9.33-1.37-10.05-.24-3.96-.53-15.1,4.26-26.62,4.12-9.91,7.49-9.25,11.81-17.65,9.18-17.84,3.03-38.44,2.48-40.2-4.2-13.4-12.9-21.83-12.09-34.78.22-3.51.96-7.33.96-7.33.89-4.58,2.32-11.96,6.18-17.25,7.53-10.31,22.8-10.61,29.13-10.73,1.27-.02,2.73-.05,4.32.04,4.17.19,9.23,1.03,14.23,4.17,3.04,1.92,5.14,4.11,6.46,5.7.48-1.27,1.22-2.93,2.33-4.74.49-.8,2.51-4.02,6.05-7.07,2.03-1.75,7.08-6.09,14.84-7.06,7.77-.98,13.71,2,16.76,3.53,2.72,1.35,7.67,3.84,11,8.69,9.82,14.32-2,38.36-3.58,41.57-2.06,4.19-3.53,5.99-4.81,10.6-.7,2.53-3.08,11.59.42,21.59,1.04,2.99,1.37,2.53,8.24,14.13,4.76,8.04,7.14,12.06,7.69,13.86,3.22,10.44-.2,20.37-1.64,24.58-1.03,2.98-.88,1.63-5.09,10.86-4.82,10.58-7.24,15.97-7.83,21.05-.32,2.78-1.03,8.82,1.51,15.35,3.93,10.06,10.67,8.67,14.15,17.25,3.59,8.83.89,21.3-3.57,29.2-1.5,2.66-3.26,4.9-3.71,8.83-.03.28-.05.53-.07.8-.21,3.69,1.07,6.85,3.51,12.64,1.82,4.35,2.54,5.13,6.73,13.86,3.26,6.79,3.76,8.25,3.98,10.18.59,4.94-1.04,9.13-2.33,11.68v2.99" fill="none" stroke="#231f20" stroke-miterlimit="10"/>
              <path d="M282.05,344.81c-.51,0-1.01,0-1.52-.02" fill="none" stroke="#231f20" stroke-miterlimit="10"/>
              <path d="M357.86,345.62c-2.27-.02-4.53-.04-6.8-.07-.2,0-.41,0-.61,0-5.68-.06-11.35-.12-17.03-.18-10.26-.11-20.52-.22-30.78-.33-4.46-.05-8.91-.1-13.37-.14" fill="none" stroke="#231f20" stroke-miterlimit="10"/>
              <path d="M369.56,345.74c-3.89-.04-7.79-.08-11.68-.13" fill="none" stroke="#231f20" stroke-miterlimit="10"/>
              <path d="M302.64,344.93l1.51-2.86c.68-1.28,1.58-3.22,2.2-5.7,1.38-5.56-.17-9.49-.82-15.48-.53-4.83-1.62-11.93-1.81-18.07-.05-1.9-.02-3.7.14-5.32.12-1.2.31-2.28.59-3.24.77-2.6,1.75-4.77,2.72-6.65,2.46-4.72,3.62-3.34,5.64-7.88,4.2-9.45,1.18-19.99-1.06-25.65-.65-1.64-1.23-2.87-1.55-3.55-2.32-4.9-3.12-4.45-4.93-7.91-.22-.43-.46-.91-.71-1.46-.79-1.74-3.86-8.75-4.05-18.01-.05-2.58.12-5.34.62-8.2,1.12-6.39,3.12-8.94,5.18-12.53,1.52-2.68,3.07-5.93,4.3-11.77,1.86-8.88,1.36-15.96,1.24-17.53-.19-2.35-1.37-7.5-3.71-17.79-.19-.83-.38-1.63-.56-2.41-1.65-7.15-2.88-12.19-3.02-15.65-.04-1.13.02-2.44-.55-4.21-.6-1.89-1.33-2.53-1.37-4.08-.02-.93.35-1.5.96-3.25.73-2.09,1.45-3.54,2.75-6.12.61-1.22,1.32-2.57,2.2-4.08,1.79-3.09,4.3-6.85,8.11-11.4,4.72-5.64,5.77-6.79,5.77-6.79,3.44-3.77,5.09-5.08,5.77-7.88.25-1.05.93-3.83-.55-5.7-1.46-1.85-4.45-2.12-8.25-2.44-.84-.08-2.31-.17-4.39-.54-1.52-.29-2.25-.82-2.48-.54-.41.48,1.8,2.07,2.89,4.74,1.3,3.2.41,6.48-.55,10.05-.63,2.33-1.06,2.86-2.2,5.98-1.35,3.71-2.15,6.81-2.61,8.83l-.96,4.21-.55,1.35" fill="none" stroke="#231f20" stroke-miterlimit="10"/>
              <path d="M302.32,132.26c-.22-.9-.42-2.02-.47-3.29-.01-.17-.02-.36-.02-.53-.03-2.19.4-3.82.53-4.31.65-2.28,1.77-3.4,2.57-5.07,2.15-4.47,3.68-7.64,3.66-11.59-.01-3.26-1.06-3.85-.36-6.16.8-2.67,2.4-2.56,4.03-5.44,2.75-4.85.99-10.13.73-10.86-.78-2.22-1.93-3.37-2.2-3.62-1.07-1.03-2.2-1.55-2.93-1.82l-.37-1.08c-.29.37-.65.85-1.06,1.41-.24.34-.5.71-.77,1.12-.73,1.1-3.38,5.04-4.39,8.33-1.36,4.38.93,5.16,1.09,13.39.07,3.05-.2,5.32-.73,9.79-.85,7.21-1.57,7.7-1.46,11.23,0,0,0,.27.02.53.07,1.27,1.29,5.32,2.13,7.96" fill="none" stroke="#231f20" stroke-miterlimit="10"/>
              <path d="M303.02,134.41s-.03-.04-.04-.06c-.14-.37-.41-1.08-.64-2.05" fill="none" stroke="#231f20" stroke-miterlimit="10"/>
              <path d="M303.03,134.42c.04.14.07.21.07.21.07-.03-.02-.13-.07-.21Z" fill="none" stroke="#231f20" stroke-miterlimit="10"/>
              <line x1="303.03" y1="134.42" x2="303.02" y2="134.41" fill="none" stroke="#231f20" stroke-miterlimit="10"/>
              <path d="M302.34,132.31c.31.98.56,1.75.68,2.11" fill="none" stroke="#231f20" stroke-miterlimit="10"/>
              <path d="M302.34,132.31s-.01-.03-.02-.05" fill="none" stroke="#231f20" stroke-miterlimit="10"/>
              <path d="M289.72,344.79l1.38-1.9c4.79-13.41,4.45-22.84,3.16-29.07-.66-3.16-1.63-5.86-1.51-10.46.2-8.22,3.57-9.82,3.71-17.65.11-6.2-1.96-6.92-1.38-13.04.47-4.84,2.04-7.31,3.44-11,.73-1.93,1.22-3.67,1.51-6.57.41-4.04.46-10.33.27-22.5-.06-4.17-.12-7.2-.18-9.45-.18-7.15-.3-6.57-.23-10.24.25-13.24,2.13-35.61,5.5-49.03.49-1.99,1.4-5.26,1.1-9.65-.27-3.86-1.14-3.78-2.34-11.14-.43-2.65-.62-4.51-1.65-7.2-.66-1.72-1.08-2.26-1.92-4.21-.76-1.76-1.65-4.17-2.34-7.2.07-.49.17-1.2.28-2.04.35-2.83.52-4.26.27-4.89-.66-1.71-2.28-1.89-2.33-3.39v-.06c0-.76.39-1.31.55-1.57,1.56-2.61-2.36-7.96-3.3-10.86-2.49-7.67,9.29-18.1,12.02-21.9.48-.67.68-1.13.48-1.33-.26-.27-.87.2-2.61.68-3.69,1.01-6.08.33-7.83.41-4.64.22-9.41,6.07-10.86,11.55-1.82,6.93,1.16,15.26,5.78,17.79,1.23.67,3.76,1.58,4.26,3.67.12.52.09,1.03.09,1.57,0,.65.05,1.36.45,2.23.46.97.81.96,1.24,1.76.93,1.76.11,3.4-.14,5.58-.16,1.41-.11,3.43.83,5.97.76,2.09,1.7,5.28,1.92,9.23.23,4.13-.43,6.99-1.23,11.42-.3,1.65-.54,3.04-.72,4.22-.99,6.36-.49,6.65-1.48,10.72-2.82,11.58-7.62,12.59-9.62,22-.77,3.63-.3,7.95.69,16.44,2.69,23.26,4.03,34.89,6.32,42.24.47,1.52,1.55,4.82,1.22,8.59-.13,1.44-.45,2.95-1.09,4.45-.86,2.04-1.95,3.26-2.74,4.21-4.57,5.48-9.38,14.05-10.45,21.18-.9,6.06,2.18,5.58,3.3,16.72.59,5.79.23,10.06-.27,16.02-.92,10.92-3.04,18.58-3.71,20.92-.67,2.31-1.31,4.22-1.79,5.57l-.14,1.2v.03" fill="none" stroke="#231f20" stroke-miterlimit="10"/>
              <path d="M256.33,344.39l.83-1.09c1.28-2.06,2.98-5.14,4.4-9.1,1.89-5.28,2.37-9.6,2.61-11.95,1.89-18.84-1.03-22.41,1.78-32.73,1.91-6.98,5.24-12.69,8.38-18.07,5.23-8.95,8.7-11.81,9.21-18.06.37-4.46-1.17-5.72-4.12-14.4-2.14-6.29-6.12-18.27-5.91-32.19.06-3.86.19-9.75,2.34-16.98,3.05-10.28,7.11-12.98,10.99-23.22,1.02-2.7,2.71-7.28,3.58-13.15.3-2.04.5-4.23.54-6.55.24-14.38-5.87-26.42-11.54-37.62-1.75-3.45-2.62-5.17-3.71-6.93-3.45-5.57-5.25-6.49-5.64-9.37-.43-3.25,1.37-5.87,3.58-9.09,4.26-6.23,10.08-9.05,12.5-10.19,3.75-1.77,7.26-2.59,10.03-2.99-1.04-.32-2.5-.72-4.26-1.09-1.87-.39-4.71-.98-8.1-1.12-2.15-.09-4.52,0-7.01.43-3.07.53-9.12,1.59-14.15,6.52-1.59,1.55-6.8,6.64-6.05,12.49.26,2.01.94,1.94,5.36,10.32,1.91,3.64,1.93,3.91,3.43,6.65,2.6,4.73,4.77,7.91,5.36,8.83,6.59,10.26,3.96,29.98,2.34,42.11-1.02,7.62-2.09,11.14-2.48,12.36-2.86,9.06-5.69,10.2-8.65,17.79-4.04,10.39-3.27,19.87-2.89,24.58.82,9.99,3.23,9.09,3.85,17.25.22,2.85.32,8.12-8.93,35.32-3.72,10.92-4.1,11.15-4.81,14.81-.96,4.93-1.11,11.37-1.37,24.04-.28,13.13-.28,13.31-.28,13.31-.1,9.14.04,11.51-.96,15.08-.85,3.01-2.57,7.12-6.46,11.54l-1.51,2.17" fill="none" stroke="#231f20" stroke-miterlimit="10"/>
              <path d="M315.56,72.88c.14-.02.28-.05.42-.07,2.02-.35,4.85-.68,8.23-.61,4.51.08,6.83.12,8.93,1.35,5.82,3.42,5.4,13.26,5.36,14-.3,5.44-2.86,9.44-7.97,17.25-3.17,4.84-3.73,4.88-6.73,9.23-4.33,6.28-10.41,15.08-11.68,25.27-.09.75-.15,1.46-.18,2.18-.11,3.2.5,6.58,2.24,14.38,8.01,35.93,11.41,38.1,9.62,47.81-1.25,6.78-3.23,7.41-7.14,22.81-2,7.85-3,11.77-3.17,16.02-.17,4.37.6,7.37,2.24,11.33,1.69,4.07,4.31,9.14,7.8,17.74,5.63,13.87,8.44,20.8,8.51,27.16.12,10.09-3.54,13.13-3.57,24.58-.02,8.81,2.11,15.95,3.85,20.51l1.1,1.35" fill="none" stroke="#231f20" stroke-miterlimit="10"/>
              <path d="M315.97,72.74c.12-.69.35-1.65.82-2.72,2.23-5.05,7.39-7.06,8.8-7.6,1.1-.43,8.85-3.44,14.97.67,3.92,2.64,5.06,6.76,6.46,11.82.36,1.28,1.76,6.65.96,14.25-.26,2.49-1.07,8.2-4.67,15.89-5.99,12.8-10.78,12.04-14.29,21.6-3.68,10.01-1.54,19.34-.96,21.73,2.11,8.7,5.36,8.11,10.3,20.24,1.94,4.75,5.09,12.68,5.23,23.22.09,7.09-1.21,12.59-1.79,14.81-2.49,9.49-5.49,10.35-8.93,20.92-2.04,6.26-3.55,11.07-2.61,17.11.5,3.25,1.28,4.08,6.04,13.72,5.36,10.85,8.07,16.39,9.21,21.6.56,2.57,1.53,7.14,1.08,12.9-.05.79-.14,1.61-.26,2.44-.81,5.8-2.18,5.91-3.84,12.63-2.06,8.36-4.3,17.4.13,23.37,1.99,2.67,5.16,4.52,6.87,9.64.51,1.52.73,2.83.83,3.67l.13.88h0s0,.07,0,.07" fill="none" stroke="#231f20" stroke-miterlimit="10"/>
              <polyline points="281.79 344.95 241.35 344.6 235.36 344.55" fill="none" stroke="#231f20" stroke-miterlimit="10"/>
              <polyline points="357.88 345.61 351.06 345.55 350.45 345.55 297.83 345.09 296.87 345.08 292.06 345.04" fill="none" stroke="#231f20" stroke-miterlimit="10"/>
              <polyline points="251.26 371.15 267.6 371.15 268.35 371.15 277.81 371.15 293.02 371.15 296.32 371.15 298.72 371.15 330.26 371.15 341.65 371.15 353.62 371.15 361.72 371.15 360.5 363.05 360.23 361.22 359.58 356.88 359.21 354.45" fill="none" stroke="#231f20" stroke-miterlimit="10"/>
              <polyline points="232.67 351.62 232.01 362.29 231.98 362.74 231.46 371.15 239.16 371.15 251.25 371.15" fill="none" stroke="#231f20" stroke-miterlimit="10"/>
              <polygon points="233.11 344.53 235.31 344.53 235.36 344.55 263.34 354.85 281.79 344.95 282.05 344.81 282.08 344.79 282.58 344.53 287.53 344.79 289.27 344.89 292.06 345.04 292.47 345.06 296.87 345.08 289.12 349.11 275.97 355.96 275.83 356.03 266.69 360.79 266.64 360.82 266.01 360.65 256.65 358.11 242.08 354.17 232.67 351.62 232.56 351.59 233.11 344.53" fill="none" stroke="#231f20" stroke-miterlimit="10"/>
              <polyline points="308.82 345.88 338.09 358.65 357.86 345.62 357.88 345.61 357.88 345.62 359.53 354.3 359.21 354.45 340.29 363.54 337.27 362.26 303.84 348.15 297.83 345.61" fill="none" stroke="#231f20" stroke-miterlimit="10"/>
              <polyline points="296.87 345.08 296.56 359.72 296.54 360.55 296.32 371.15" fill="none" stroke="#231f20" stroke-miterlimit="10"/>
              <path d="M231.88,362.73s.06,0,.1,0c.69.1,2.1.4,3.47,1.48,1.08.86,1.57,1.87,2.33,3.39.7,1.39,1.12,2.63,1.38,3.54" fill="none" stroke="#231f20" stroke-miterlimit="10"/>
              <path d="M232.43,362.32c1.73-.96,4.39-2.11,7.69-2.17,2.71-.07,4,.63,6.32.81.25.02.52.03.81.04,2.22.03,5.23-.47,8.95-2.62l.45-.27c.08-.04.15-.09.23-.14" fill="none" stroke="#231f20" stroke-miterlimit="10"/>
              <path d="M242.04,354.3c1.84,2.77,3.63,4.96,5.21,6.69.85.93,1.64,1.73,2.35,2.4,1.43,1.36,3.06,2.74,2.89,4.49-.09.9-.31,1.63-.54,2.16-.31.72-.63,1.1-.69,1.1h-.01s.21-.44.7-1.1c.94-1.23,2.82-3.31,5.67-5.22.58-.41,1.21-.79,1.87-1.16,4.14-2.3,5.8-2.94,6.52-3.02.25-.03.39,0,.49.04.06.03.13.06.19.1,1.09.61,1.83,2.13,1.74,3.43-.14,1.94-2.06,2.46-2.07,4.48,0,.25.03.5.08.75.16.76.56,1.5,1.16,1.7.24.08.49.07.75,0,1.06-.32,2.24-1.73,2.96-2.58.9-1.08,2.1-2.83,2.89-5.44l1.63-7.1.02-.1.12.03c.75.19,2.51.75,3.86,2.41.25.31,1.06,1.29,1.45,2.47.22.68.31,1.43.06,2.15-.73,2.15-3.73,1.94-4.53,4.07-.59,1.58-.06,3.69.82,3.94.06.02.12.03.18.03,1.2,0,2.66-3.26,6.69-6.14.08-.06.99-.71,2.34-1.36,1.82-.88,3.3-1.61,3.98-1.09.85.65-.47,2.5.14,5.03.37,1.54,1.3,2.67,2.06,3.39" fill="none" stroke="#231f20" stroke-miterlimit="10"/>
              <path d="M288.9,349.01c.07.03.14.07.22.11.05.03.11.07.17.1.54.32,1.15.81,1.53,1.56.66,1.29.15,2.45-.55,6.11-.71,3.78-.53,4.45-.13,4.89.21.23.46.4.75.5.18.08.38.14.59.18.84.15,1.78.02,2.37-.14,1.45-.41,2.3-1.37,2.61-1.77" fill="none" stroke="#231f20" stroke-miterlimit="10"/>
              <path d="M256.2,358.38c.13.46.33,1.18.55,2.04.56,2.27.7,3.59.87,4.42.12.65.27,1.01.64,1.29,1.43,1.07,3.46-1.03,5.49-.13,1.32.58,1.95,2.12,2.28,3.54.09.38.15.74.2,1.08" fill="none" stroke="#231f20" stroke-miterlimit="10"/>
              <path d="M289.17,349.41l-3.02,4.49c-.67,1.16-1.44,2.39-2.33,3.67-.7.98-1.66,2.42-2.34,3.25" fill="none" stroke="#231f20" stroke-miterlimit="10"/>
              <path d="M360.42,363.06c-.64.08-1.52-.94-2.96.21-1.08.86-1.57,1.87-2.33,3.39-.7,1.39-1.26,3.44-1.51,4.35" fill="none" stroke="#231f20" stroke-miterlimit="10"/>
              <path d="M360.49,361.36c-.08-.05-.17-.09-.26-.14-.65-.35-1.42-.71-2.29-1.03-1.45-.53-3.19-.96-5.15-1.01-2.71-.06-2.42,1.94-4.74,2.11-1.11.09-2.03,1.17-3.15,2.03-1.02.79-2.2,1.39-3.84.9-.45-.14-.93-.36-1.46-.68" fill="none" stroke="#231f20" stroke-miterlimit="10"/>
              <path d="M340.98,369.12c-.88-1.16-2.6-3.08-5.19-4.9-.72-.51-1.51-1.02-2.37-1.49-5.5-3.05-6.61-3.17-7.01-3-1.19.55-2.02,2.16-1.92,3.54.14,1.94,2.06,2.46,2.06,4.48,0,.97-.44,2.17-1.24,2.44-1.21.41-2.82-1.51-3.71-2.58s-2.1-2.83-2.88-5.43l-1.65-7.2c-.68.16-2.56.69-3.99,2.44-.25.31-1.06,1.29-1.45,2.47-.22.68-.31,1.42-.06,2.15.74,2.15,3.74,1.94,4.54,4.07.59,1.58.05,3.69-.83,3.94-1.24.36-2.64-3.08-6.87-6.12-.07-.05-.99-.7-2.34-1.35-1.81-.89-3.3-1.61-3.98-1.09-.85.65.47,2.49-.14,5.02-.37,1.55-2.47,3.76-3.23,4.49" fill="none" stroke="#231f20" stroke-miterlimit="10"/>
              <path d="M340.98,369.13c.3.69.62,1.06.67,1.06h.01s-.2-.43-.68-1.06" fill="none" stroke="#231f20" stroke-miterlimit="10"/>
              <line x1="340.98" y1="369.13" x2="340.98" y2="369.12" fill="none" stroke="#231f20" stroke-miterlimit="10"/>
              <path d="M359.59,356.81s-.01.05-.01.07c-.22,1.34-.81,2.43-1.64,3.31-3.03,3.26-9.36,3.67-13.04,3.12-.58-.09-1.1-.2-1.52-.33-.99-.3-1.8.32-2.32,1.23-.47.82-.71,1.89-.63,2.72.08.91.31,1.64.55,2.18" fill="none" stroke="#231f20" stroke-miterlimit="10"/>
              <path d="M304.01,348.06c-.05.03-.11.06-.17.09-.07.03-.14.08-.22.12-.54.32-1.15.81-1.53,1.55-.65,1.29-.14,2.46.55,6.12.72,3.78.53,4.44.14,4.88-.21.24-.47.41-.76.51-.19.08-.39.14-.59.18-.84.15-1.78.02-2.36-.15-1.32-.36-2.15-1.2-2.51-1.64-.04-.04-.07-.08-.1-.12" fill="none" stroke="#231f20" stroke-miterlimit="10"/>
              <path d="M339.33,363.4c-.1.36-1.38-.78-2.11-1.03-.26-.09-.45-.07-.5.15-.19.78-.52,1.32-.93,1.7-1.73,1.55-4.99.09-6.63.81-1.66.74,1.33,4.36,1.1,5.98" fill="none" stroke="#231f20" stroke-miterlimit="10"/>
              <path d="M303.74,348.46l3.02,4.48c.67,1.17,1.44,2.4,2.34,3.67.69.99,1.66,2.43,2.33,3.26" fill="none" stroke="#231f20" stroke-miterlimit="10"/>
            </g>
          </g>
        </g>
      </g>
    </g>
  </g>
</svg>