<?xml version="1.0" encoding="UTF-8"?>
<svg id="Layer_2" data-name="Layer 2" xmlns="http://www.w3.org/2000/svg" viewBox="0 0 448.39 424.01">
  <g id="outlines">
    <g id="Page_4" data-name="Page 4">
      <g id="Panel_19" data-name="Panel 19">
        <g id="Background">
          <g id="planet">
            <g>
              <path d="M335.8,88.92c2.58,9.6,3.96,19.68,3.96,30.07,0,13.37-2.29,26.24-6.5,38.25l-.21-.05-.57-1.46-5.04-3.4c-4.52-1.47-11.69-3.45-20.71-4.38-11.08-1.14-16.58.17-33.04.97-17.13.84-25.71,1.25-31.93,0-14.66-2.92-15.56-8.17-33.59-12.17-2.2-.49-10.09-2.15-20.16-3.89-3.64-.62-6.69-1.12-8.85-1.45,3.19-1.59,6.68-3.39,10.53-5.37,17.61-9.02,19.79-11.7,30.23-14.6,5.9-1.65,4.94-.72,26.32-3.89,25.64-3.81,32.14-5.91,36.97-7.8,5.87-2.28,9.74-4.46,17.36-8.75,1.33-.76,2.64-1.51,3.91-2.26l31.31.17Z" fill="#1972a8"/>
              <path d="M333.05,157.18l.21.05c-7.14,20.31-19.81,38.16-36.27,51.86l-.35-.33-5.59.49c-5.26,0-13.31-.21-22.97-1.46-19.81-2.56-26.55-6.6-57.11-16.06-10.09-3.12-39.46-12.38-54.88-8.77-2.92.68-7.34,2.3-15.11,3.41-4.17.58-7.6.8-12.32,2.43-1.48.5-8.45,2.91-8.13,4.69-12.42-14.91-21.21-32.8-25.02-52.38,1.51-.03,3.68-.04,6.27,0,8.83.13,15.36.78,17.36.97,1.54.15,18.43,1.7,30.23.49,8.13-.84,16.29-4.38,29.8-11.18,2.15.33,5.21.82,8.85,1.45,10.07,1.74,17.96,3.4,20.16,3.89,18.03,4,18.94,9.24,33.59,12.17,6.22,1.25,14.79.84,31.93,0,16.46-.8,21.96-2.11,33.04-.97,9.02.93,16.18,2.91,20.71,4.38l5.04,3.4.57,1.46Z" fill="#3a90ba"/>
              <path d="M179.17,131.41c-13.51,6.8-21.67,10.35-29.8,11.18-11.8,1.21-28.69-.35-30.23-.49-2-.19-8.53-.84-17.36-.97-2.58-.04-4.75-.03-6.27,0-1.41-7.17-2.14-14.57-2.14-22.14,0-6.76.58-13.39,1.71-19.84l10.61,6.45c6.43,3.01,19.64,8.18,36.97,7.78,5.81-.13,17.61-.5,29.68-6.32,3.15-1.51,3.21-1.91,18.48-12.17,3.5-2.35,6.43-4.33,8.91-5.96l104.76-.19c-1.27.74-2.58,1.5-3.91,2.26-7.63,4.29-11.49,6.47-17.36,8.75-4.83,1.89-11.32,3.98-36.97,7.8-21.38,3.17-20.42,2.24-26.32,3.89-10.44,2.9-12.62,5.58-30.23,14.6-3.85,1.98-7.34,3.77-10.53,5.37Z" fill="#4b57a6"/>
              <path d="M296.65,208.77l.35.33c-21.58,18-49.68,28.87-80.43,28.87-38.54,0-72.97-17.12-95.55-43.91,1.88,1.05,8.85.33,16.03,2.54,10.22,3.13,11.36,9.23,21.29,17.03,1.5,1.2,14.55,11.21,31.91,13.63,3.12.44,4.66.4,35.84-4.37,37.72-5.78,35.67-5.74,38.08-5.84,4-.19,10.94-.35,19.59-2.92,5.64-1.67,10.01-3.79,12.88-5.35Z" fill="#2b92d0"/>
              <path d="M291.05,209.26l5.59-.49c-2.87,1.57-7.24,3.68-12.88,5.35-8.65,2.58-15.59,2.74-19.59,2.92-2.41.11-.37.07-38.08,5.84-31.18,4.77-32.72,4.81-35.84,4.37-17.36-2.42-30.41-12.43-31.91-13.63-9.93-7.8-11.06-13.89-21.29-17.03-7.18-2.2-14.15-1.49-16.03-2.54,0,0-.02.01-.02,0-.15-.19-.32-.37-.47-.56-.32-1.78,6.65-4.18,8.13-4.69,4.72-1.63,8.15-1.85,12.32-2.43,7.78-1.12,12.2-2.74,15.11-3.41,15.42-3.61,44.79,5.64,54.88,8.77,30.57,9.46,37.3,13.49,57.11,16.06,9.66,1.25,17.71,1.46,22.97,1.46ZM200.33,203.66c0-6.57-7.4-11.91-16.52-11.91s-16.52,5.34-16.52,11.91,7.4,11.93,16.52,11.93,16.52-5.34,16.52-11.93Z" fill="#b6dcf4"/>
              <path d="M97.34,88.92h102.38c-2.48,1.65-5.41,3.63-8.91,5.98-15.27,10.25-15.33,10.65-18.48,12.17-12.07,5.82-23.87,6.19-29.68,6.32-17.33.4-30.53-4.77-36.97-7.78l-10.61-6.45c.6-3.47,1.36-6.88,2.26-10.23Z" fill="#b6dcf4"/>
              <path d="M183.81,191.74c9.12,0,16.52,5.34,16.52,11.91s-7.4,11.93-16.52,11.93-16.52-5.34-16.52-11.93,7.4-11.91,16.52-11.91Z" fill="#1972a8"/>
              <path d="M120.53,193.51c.15.19.32.37.47.56-.26-.15-.43-.32-.47-.56Z" fill="#b6dcf4"/>
            </g>
            <g>
              <path d="M121,194.07c-.26-.15-.43-.32-.47-.56-.32-1.78,6.65-4.18,8.13-4.69,4.72-1.63,8.15-1.85,12.32-2.43,7.78-1.12,12.2-2.74,15.11-3.41,15.42-3.61,44.79,5.64,54.88,8.77,30.57,9.46,37.3,13.49,57.11,16.06,9.66,1.25,17.71,1.46,22.97,1.46l5.59-.49c-2.87,1.57-7.24,3.68-12.88,5.35-8.65,2.58-15.59,2.74-19.59,2.92-2.41.11-.37.07-38.08,5.84-31.18,4.77-32.72,4.81-35.84,4.37-17.36-2.42-30.41-12.43-31.91-13.63-9.93-7.8-11.06-13.89-21.29-17.03-7.18-2.2-14.15-1.49-16.03-2.54" fill="none" stroke="#231f20" stroke-miterlimit="10"/>
              <path d="M199.72,88.93c-2.48,1.63-5.41,3.61-8.91,5.96-15.27,10.25-15.33,10.65-18.48,12.17-12.07,5.82-23.87,6.19-29.68,6.32-17.33.4-30.53-4.77-36.97-7.78l-10.61-6.45-.58-.36" fill="none" stroke="#231f20" stroke-miterlimit="10"/>
              <line x1="249.61" y1="3.89" x2="245.69" y2="8.27" fill="none" stroke="#231f20" stroke-miterlimit="10"/>
              <line x1="264.74" y1="15.09" x2="271.44" y2="13.14" fill="none" stroke="#231f20" stroke-miterlimit="10"/>
              <path d="M200.33,203.66c0,6.59-7.4,11.93-16.52,11.93s-16.52-5.34-16.52-11.93,7.4-11.91,16.52-11.91,16.52,5.34,16.52,11.91Z" fill="none" stroke="#231f20" stroke-miterlimit="10"/>
              <path d="M179.05,131.39s.08.01.12.01c2.15.33,5.21.82,8.85,1.45,10.07,1.74,17.96,3.4,20.16,3.89,18.03,4,18.94,9.24,33.59,12.17,6.22,1.25,14.79.84,31.93,0,16.46-.8,21.96-2.11,33.04-.97,9.02.93,16.18,2.91,20.71,4.38l5.04,3.4.57,1.46" fill="none" stroke="#231f20" stroke-miterlimit="10"/>
              <path d="M335.8,88.92l-31.31-.17c-1.27.74-2.58,1.5-3.91,2.26-7.63,4.29-11.49,6.47-17.36,8.75-4.83,1.89-11.32,3.98-36.97,7.8-21.38,3.17-20.42,2.24-26.32,3.89-10.44,2.9-12.62,5.58-30.23,14.6-3.85,1.98-7.34,3.77-10.53,5.37-13.51,6.8-21.67,10.35-29.8,11.18-11.8,1.21-28.69-.35-30.23-.49-2-.19-8.53-.84-17.36-.97-2.58-.04-4.75-.03-6.27,0h-.46" fill="none" stroke="#231f20" stroke-linecap="round" stroke-linejoin="round"/>
              <path d="M304.49,88.75l-104.76.19h-102.38c-.9,3.33-1.67,6.75-2.26,10.21-1.13,6.45-1.71,13.08-1.71,19.84,0,7.57.73,14.97,2.14,22.14,3.81,19.58,12.59,37.47,25.02,52.38.15.19.32.37.47.56,0,.01.02,0,.02,0,22.57,26.79,57,43.91,95.55,43.91,30.75,0,58.85-10.88,80.43-28.87,16.46-13.71,29.13-31.56,36.27-51.86,4.2-12.01,6.5-24.88,6.5-38.25,0-10.39-1.38-20.47-3.96-30.07" fill="none" stroke="#231f20" stroke-linecap="round" stroke-linejoin="round"/>
            </g>
          </g>
          <polygon points="94.22 77.98 342.5 77.98 342.92 88.93 93.8 88.31 94.22 77.98" fill="#fff"/>
          <polyline points="97.34 88.92 336.82 88.93 343.98 88.93" fill="#c4e8ee" stroke="#231f20" stroke-miterlimit="10" stroke-width=".75"/>
          <g>
            <g>
              <polygon points="447.8 416.85 447.8 422.95 345.73 422.72 345.73 422.67 269.01 294.67 269.01 294.42 329.51 294.42 446.57 415.39 447.8 416.85" fill="#4a494a"/>
              <polygon points="447.8 343.37 447.8 416.85 446.57 415.39 329.51 294.42 359.67 294.42 445.95 342.13 447.59 343.37 447.8 343.37" fill="#3b3b3b"/>
              <polygon points="447.8 294.42 447.8 343.37 447.59 343.37 445.95 342.13 359.67 294.42 447.8 294.42" fill="#616262"/>
              <polygon points="345.73 422.67 345.73 422.72 74.44 422.11 177.24 294.42 269.01 294.42 269.01 294.67 345.73 422.67" fill="#4a494a"/>
              <polygon points="177.24 294.42 74.44 422.11 6.05 421.77 126.8 294.42 177.24 294.42" fill="#4a494a"/>
              <polygon points="126.8 294.42 6.05 421.77 74.44 422.11 .5 421.94 1.02 350.76 1.12 350.76 81.21 294.42 126.8 294.42" fill="#3b3b3b"/>
              <polygon points="81.21 294.42 1.12 350.76 1.02 350.76 1.43 294.42 81.21 294.42" fill="#616262"/>
            </g>
            <g>
              <polygon points="1.02 350.76 1.43 294.42 81.21 294.42 126.8 294.42 177.24 294.42 269.01 294.42 329.51 294.42 359.67 294.42 447.8 294.42 447.8 343.37 447.8 416.85 447.8 422.95 345.73 422.72 74.44 422.11 .5 421.94 1.02 350.76" fill="none" stroke="#231f20" stroke-miterlimit="10"/>
              <line x1="81.21" y1="294.42" x2="1.12" y2="350.76" fill="none" stroke="#231f20" stroke-miterlimit="10"/>
              <polyline points="358.46 293.74 359.67 294.42 445.95 342.13 447.59 343.37" fill="none" stroke="#231f20" stroke-miterlimit="10"/>
              <polyline points="329.51 294.42 446.57 415.39 447.8 416.85" fill="none" stroke="#231f20" stroke-miterlimit="10"/>
              <line x1="269.01" y1="294.67" x2="345.73" y2="422.67" fill="none" stroke="#231f20" stroke-miterlimit="10"/>
              <polyline points="178.03 293.43 177.24 294.42 74.44 422.11 6.05 421.77 126.8 294.42" fill="none" stroke="#231f20" stroke-miterlimit="10"/>
            </g>
          </g>
          <line x1="215.94" y1="294.05" x2="216.57" y2="422.95" fill="#171c17" stroke="#231f20" stroke-miterlimit="10"/>
          <rect x=".51" y="255.63" width="447.29" height="38.79" fill="#171c17" stroke="#231f20" stroke-miterlimit="10"/>
          <ellipse cx="19.46" cy="267.2" rx="5.48" ry="5.16" fill="#7a7f7a"/>
          <ellipse cx="50.21" cy="282.9" rx="5.48" ry="5.16" fill="#7a7f7a"/>
          <ellipse cx="103.27" cy="268.44" rx="5.48" ry="5.16" fill="#7a7f7a"/>
          <ellipse cx="156.76" cy="278.35" rx="5.48" ry="5.16" fill="#7a7f7a"/>
          <ellipse cx="191.72" cy="283.72" rx="5.48" ry="5.16" fill="#7a7f7a"/>
          <ellipse cx="216.99" cy="276.29" rx="5.48" ry="5.16" fill="#7a7f7a"/>
          <ellipse cx="433.9" cy="266.78" rx="5.48" ry="5.16" fill="#7a7f7a"/>
          <ellipse cx="412.42" cy="283.72" rx="5.48" ry="5.16" fill="#7a7f7a"/>
          <ellipse cx="375.78" cy="274.22" rx="5.48" ry="5.16" fill="#7a7f7a"/>
          <ellipse cx="330.71" cy="265.55" rx="5.48" ry="5.16" fill="#7a7f7a"/>
          <ellipse cx="277.22" cy="270.92" rx="5.48" ry="5.16" fill="#7a7f7a"/>
          <ellipse cx="248.37" cy="272.57" rx="3.58" ry="3.1" fill="#394239"/>
          <ellipse cx="182.03" cy="268.85" rx="3.79" ry="3.92" fill="#394239"/>
          <ellipse cx="307.54" cy="283.93" rx="3.79" ry="3.92" fill="#394239"/>
          <ellipse cx="346.29" cy="278.56" rx="3.79" ry="3.92" fill="#394239"/>
          <ellipse cx="394.73" cy="267.4" rx="3.79" ry="3.92" fill="#394239"/>
          <ellipse cx="84.74" cy="280.21" rx="3.79" ry="3.92" fill="#394239"/>
          <ellipse cx="64.1" cy="264.51" rx="3.79" ry="3.92" fill="#394239"/>
          <ellipse cx="10.61" cy="285.17" rx="3.79" ry="3.92" fill="#394239"/>
          <ellipse cx="129.39" cy="265.34" rx="3.79" ry="3.92" fill="#394239"/>
          <ellipse cx="118.44" cy="286.41" rx="3.79" ry="3.92" fill="#394239"/>
          <polygon points="38.5 89.54 .51 105.04 .51 89.54 38.5 89.54" fill="#f57f20" stroke="#231f20" stroke-miterlimit="10"/>
          <polygon points="38.5 89.54 38.5 422.28 .51 422.28 .51 105.04 38.5 89.54" fill="#c1bfb0" stroke="#231f20" stroke-miterlimit="10"/>
          <rect x="409.89" y="88.93" width="37.99" height="334.58" fill="#c1bfb0" stroke="#231f20" stroke-miterlimit="10"/>
          <polyline points="408.55 90.06 447.89 88.93 447.8 105.97 408.55 90.06" fill="#f57f20" stroke="#231f20" stroke-miterlimit="10"/>
          <polygon points="447.8 105.97 447.8 128.89 93.69 130.94 38.5 131.26 .51 131.48 .51 105.04 38.5 89.54 408.55 90.06 447.8 105.97" fill="#7b7c88" stroke="#231f20" stroke-miterlimit="10"/>
          <polyline points="300.29 98.9 318.1 104.88 304.78 109.88 324 119.46" fill="#7b7c88" stroke="#231f20" stroke-miterlimit="10" stroke-width="2"/>
          <polyline points="81.43 120.49 81.73 97.4 111.12 97.56 110.82 120.65" fill="#7b7c88" stroke="#231f20" stroke-miterlimit="10" stroke-width="2"/>
          <ellipse cx="136.9" cy="109.26" rx="20.69" ry="11.23" fill="#7b7c88" stroke="#231f20" stroke-miterlimit="10" stroke-width="2"/>
          <path d="M122.84,105.64c-.96,1.51-5.27,2.13-9.64,1.39-4.37-.75-7.13-2.58-6.17-4.09.96-1.51,5.27-2.13,9.64-1.39,4.37.75,7.13,2.58,6.17,4.09Z" fill="#7b7c88" stroke="#231f20" stroke-miterlimit="10" stroke-width="2"/>
          <path d="M221.16,97.56c-13.74-.5-25.01,4.98-25.49,11.08-.51,6.56,11.57,12.8,26.39,12.01" fill="#7b7c88" stroke="#231f20" stroke-miterlimit="10" stroke-width="2"/>
          <line x1="195.67" y1="108.63" x2="210.96" y2="108.63" fill="#7b7c88" stroke="#231f20" stroke-miterlimit="10" stroke-width="2"/>
          <ellipse cx="218.91" cy="108.79" rx="2.25" ry="1.09" fill="#7b7c88" stroke="#231f20" stroke-miterlimit="10" stroke-width="2"/>
          <ellipse cx="273.18" cy="119.24" rx="2.25" ry="1.09" fill="#7b7c88" stroke="#231f20" stroke-miterlimit="10" stroke-width="2"/>
          <ellipse cx="298.18" cy="98.9" rx="2.1" ry="1.03" fill="#7b7c88" stroke="#231f20" stroke-miterlimit="10" stroke-width="2"/>
          <ellipse cx="297.62" cy="119.02" rx="2.1" ry="1.03" fill="#7b7c88" stroke="#231f20" stroke-miterlimit="10" stroke-width="2"/>
          <path d="M324,120.49c-1.16,0-2.1-.46-2.1-1.03s.94-1.03,2.1-1.03,2.1.46,2.1,1.03-.94,1.03-2.1,1.03" fill="#7b7c88" stroke="#231f20" stroke-miterlimit="10" stroke-width="2"/>
          <ellipse cx="318.59" cy="104.81" rx="2.1" ry="1.03" fill="#7b7c88" stroke="#231f20" stroke-miterlimit="10" stroke-width="2"/>
          <polyline points="229.85 120.49 229.55 97.71 257.74 97.71 257.74 120.65" fill="#7b7c88" stroke="#231f20" stroke-miterlimit="10" stroke-width="2"/>
          <line x1="265.83" y1="98.02" x2="291.62" y2="98.02" fill="#7b7c88" stroke="#231f20" stroke-miterlimit="10" stroke-width="2"/>
          <line x1="273.63" y1="98.02" x2="273.33" y2="115.19" fill="#7b7c88" stroke="#231f20" stroke-miterlimit="10" stroke-width="2"/>
          <polyline points="298.18 99.93 304.78 109.88 297.62 118" fill="#7b7c88" stroke="#231f20" stroke-miterlimit="10" stroke-width="2"/>
          <path d="M346.34,120.49c-2.57,0-4.65-1.85-4.65-4.13s2.08-4.13,4.65-4.13,4.65,1.85,4.65,4.13-2.08,4.13-4.65,4.13" fill="#7b7c88" stroke="#231f20" stroke-miterlimit="10" stroke-width="2"/>
          <polyline points="335.03 96.67 346.34 112.22 357.77 97.6" fill="#7b7c88" stroke="#231f20" stroke-miterlimit="10" stroke-width="2"/>
          <path d="M93.69,133.24c-.73.13-1.87.4-3.16.93-16.96,7.01-14.99,41.93-17.69,68.79-1.9,18.92-23.06,77.15-23.06,77.15l2.84,4.34s4.45-6.18,6-10.54c7.1-19.9,6.69-13.14,11.06-27.58,3.05-10.06,8.14-26.9,9.79-49.58,1.41-19.35-.82-27.46,5.05-41.52,3.01-7.22,7.7-12.32,10.42-15.8l-1.26-6.2Z" fill="#3cb657" stroke="#231f20" stroke-miterlimit="10"/>
          <path d="M339.49,134.65c.63.13.46-.42,1.58.08,14.71,6.62,13,39.61,15.34,64.98,1.65,17.88,20,72.88,20,72.88l-2.47,4.1s-3.86-5.83-5.2-9.95c-6.16-18.8-5.8-12.42-9.59-26.05-2.64-9.51-7.06-25.42-8.49-46.83-1.22-18.28.71-25.94-4.38-39.22-2.61-6.82-5.53-11.05-7.89-14.33l1.1-5.65Z" fill="#3cb657" stroke="#231f20" stroke-miterlimit="10"/>
          <path d="M319.23,185.14c.47.08.01.3.84.63,10.91,4.33,9.65,25.89,11.38,42.48,1.22,11.68,14.84,47.64,14.84,47.64l-1.83,2.68s-2.86-3.81-3.86-6.51c-4.57-12.29-4.3-8.12-7.11-17.03-1.96-6.21-5.24-16.61-6.3-30.61-.91-11.95.53-16.95-3.25-25.64-1.94-4.46-5.48-7.46-7.23-9.61l2.53-4.03Z" fill="#3cb657" stroke="#231f20" stroke-miterlimit="10"/>
          <path d="M219.29,237.74c.8.03,2.91,9.36,5.86,15.93,2.08,4.63,25.22,18.87,25.22,18.87l-3.11,1.06s-4.86-1.51-6.56-2.58c-7.76-4.87-7.31-3.21-12.09-6.75-3.33-2.46-8.9-6.58-10.71-12.13-1.54-4.73.9-6.72-5.53-10.16-3.3-1.76-3.25-3.49-6.22-4.34l13.15.08Z" fill="#3cb657" stroke="#231f20" stroke-miterlimit="10"/>
          <path d="M146.44,217.21c-.49.06-1.76.8-2.62,1.04-11.27,3.2-9.96,19.16-11.75,31.43-1.26,8.65-15.32,35.26-15.32,35.26l1.89,1.98s2.95-2.82,3.99-4.81c4.72-9.09,4.44-6.01,7.34-12.6,2.02-4.6,5.41-12.29,6.51-22.66.94-8.84-.55-12.55,3.36-18.97,2-3.3,7.49-6.76,9.29-8.35l-2.69-2.32Z" fill="#3cb657" stroke="#231f20" stroke-miterlimit="10"/>
          <path d="M115.18,278.44c-.16-.89-.61-11.55.98-14.57l1.77-3.97c.69-1.18,1.75-1.84,2.84-1.76,1.74.12,4.3.54,5.5,1.94.44.51,1.2,1.06,1.2,1.06,0,0-.15-1.82-.54-3.49-1.36-5.69-.76-6.21-1.74-8.8-.53-1.4-1.48-3.91-3.37-5.16-3.03-2.01-7.51-1.21-7.51-1.21,0,0-.5-1.18-1.31-3.95,0,0-1.03-3.51-2.94-7.89-1.25-2.87-2.66-6.09-5.33-8.95-.97-1.03-3.22-3.4-6.64-4.4-3.14-.92-5.64-.22-7.51.3-1.48.41-3.48.97-5.66,2.73-2.77,2.23-4.29,5.15-5.77,8.04-3.48,6.83-5.22,12.45-5.22,12.45,0,0-3.34,1.91-6.09,5.46-1.96,2.53-2.97,5.03-4.13,7.89-1.66,4.08-2.83,10.93-2.83,10.93,0,0,1.06-1.01,3.05-2.73,1.68-1.46,4.75-4.13,7.83-3.04.36.13,2.74.97,3.48,3.64.17.6.21,1.14.22,1.52l-.87,13.96" fill="#d2d2d2" stroke="#231f20" stroke-miterlimit="10"/>
          <line x1="74.59" y1="278.44" x2="115.18" y2="278.44" fill="#d2d2d2" stroke="#231f20" stroke-miterlimit="10"/>
          <path d="M82.91,278.17l-8.32.28c-1.05,2.52-2.36,5.85-3.7,9.87-.18.55-2.87,8.66-4.57,16.85-3.2,15.44-2.92,31.33-2.72,37.19l-.98,75.28h63.62c-.19-4.04-.5-10.1-1.02-17.45-1.08-15.34-1.78-18.25-2.03-26.71-.19-6.37.21-12.9,1.02-25.7,1.33-21.14,2.5-19.55,2.18-29.55-.58-17.81-2.01-25.1-4.35-28.33-1.35-1.87-5.92-10.68-6.86-11.43l-2.84-.5" fill="#4f459c" stroke="#231f20" stroke-miterlimit="10"/>
          <rect x="81.04" y="239.94" width="8.37" height="12.95" fill="#444d54" stroke="#231f20" stroke-miterlimit="10"/>
          <rect x="99.78" y="239.94" width="8.37" height="12.95" fill="#444d54" stroke="#231f20" stroke-miterlimit="10"/>
          <rect x="82.33" y="245.83" width="5.77" height="1.85" transform="translate(-161.53 331.97) rotate(-90)" fill="#fff" stroke="#231f20" stroke-miterlimit="10"/>
          <polygon points="104.89 243.51 104.67 249.28 102.82 249.15 103.05 243.39 104.89 243.51" fill="#fff" stroke="#231f20" stroke-miterlimit="10"/>
          <path d="M114.74,354.75l.87-38.37,9.71.24,25.65-25.05-26.75,10.46-11.89-24.08-24.02.25-9.35,13.3c-3.71,5.28-4.92,12.85-3.13,19.67l1.49,5.69-.7,39.69-6.99,60.26,17.04-.73,6.76-50.64,7.4-.08,5.45,51.45" fill="#d2d2d2" stroke="#231f20" stroke-miterlimit="10"/>
          <polyline points="81.17 314.91 107 308.83 113.78 290.6 102.42 299.11 80.25 301.05" fill="#d2d2d2" stroke="#231f20" stroke-miterlimit="10"/>
          <polyline points="106.27 416.81 122.02 416.81 114.74 354.75 114.93 354.01" fill="#d2d2d2" stroke="#231f20" stroke-miterlimit="10"/>
          <line x1="88.31" y1="265.06" x2="97.8" y2="268.44" fill="#fff" stroke="#231f20" stroke-miterlimit="10" stroke-width=".75"/>
          <path d="M339.76,131.37c-.82,4.92-7.07,24.54-5.91,29.36,0,5.47.69.91-1.21,12.05-3.91,22.92-33.68,62.19-79.72,86.74-46.04,24.55-87.08,26.45-86.99,2.18.06-14.56.36-12.21,5.36-30.81.05-.2.56.8.57.6.05-2.25-7.69-4.99-7.97-4.56-4.94,7.51-10.33,21.7-8.79,39.72,2.46,28.62,47.7,28.76,101.05.3,53.35-28.45,94.6-74.72,92.13-103.34-1.82-21.16,2.61-13.28-8.52-32.25Z" fill="#be9069" stroke="#231f20" stroke-miterlimit="10"/>
          <line x1="225.88" y1="271.22" x2="225.23" y2="278.5" fill="none" stroke="#231f20" stroke-miterlimit="10"/>
          <line x1="255.1" y1="258.1" x2="256.94" y2="264.57" fill="none" stroke="#231f20" stroke-miterlimit="10"/>
          <line x1="276.28" y1="245.86" x2="280.2" y2="251.75" fill="none" stroke="#231f20" stroke-miterlimit="10"/>
          <line x1="295.16" y1="231.81" x2="300.97" y2="234.73" fill="none" stroke="#231f20" stroke-miterlimit="10"/>
          <line x1="327.81" y1="188.27" x2="337.81" y2="195.86" fill="none" stroke="#231f20" stroke-miterlimit="10"/>
          <line x1="161.94" y1="231.76" x2="168.42" y2="241.94" fill="none" stroke="#231f20" stroke-miterlimit="10"/>
          <line x1="170.53" y1="273.71" x2="163.89" y2="281.67" fill="none" stroke="#231f20" stroke-miterlimit="10"/>
          <line x1="193.24" y1="279.41" x2="192.18" y2="286.93" fill="none" stroke="#231f20" stroke-miterlimit="10"/>
          <path d="M254.98,271.31c-2.76,2.61-5.45,3.89-6,2.86s1.24-3.98,4-6.58,5.45-3.89,6-2.86-1.24,3.98-4,6.58Z" fill="#be9069" stroke="#231f20" stroke-miterlimit="10"/>
          <line x1="333.58" y1="166.93" x2="347.73" y2="163.1" fill="none" stroke="#231f20" stroke-miterlimit="10"/>
        </g>
        <g id="Person">
          <path id="Hair" d="M323.77,228.27c-.14-5.68,1.37-10.42,1.37-10.42s.12-.35.23-.69c.98-2.84,4.63-12.22,11.31-12.44,3.88-.13,5.09,5.27,8.17,6.38.44.16.92.23,1.45.18.69-.06,1.28-.29,1.82-.63,1.6-1.03,2.65-3.07,4.23-4.47,6.63-5.9,17.89,2.48,21.98,5.47,4.07,2.98,19.53,14.2,21.44,33.2.68,6.78-1.26,5.63-3.85,30.64-1.51,14.58-1.29,19.18-.82,22.98,1.28,10.53,3.96,11.63,4.95,20.43.88,7.79-.88,10.05-4.12,27.72-2.48,13.54-4.23,23.34-4.12,36.11.08,9.59,1.18,17.02,3.57,24.08,1.23,3.64,2.57,6.47,3.57,8.39l-43.15-1.09c.01-.94.02-2.33,0-4.01-.11-10.52-1.06-16.11-1.37-21.16-.67-10.95,2.17-11.03,2.2-22.62,0-2.42-.11-5.52-3.85-24.08-4.41-21.92-5.6-24.25-5.5-31.01.16-11.06,4.39-11.13,5.22-23.35.29-4.3,1.15-16.94-4.4-26.63-4.28-7.48-7.51-4.7-13.74-14.23-4.75-7.26-6.49-14.4-6.6-18.76Z" fill="#fff" stroke="#020202" stroke-miterlimit="10"/>
          <path d="M355.1,204.36s6.6,2.19,8.24,4.01c1.65,1.82.82,1.09,4.12,4.74,3.3,3.65.27.36,5.5,6.57,5.22,6.2,3.02.36,6.6,9.12,3.57,8.75,3.3,1.82,3.57,11.67.27,9.85.55,7.66.55,14.23,0,6.57.82,19.7.82,21.16s.27,5.11.55,12.4c.27,7.3,1.1,12.77,2.2,18.24s.27,1.82,0,11.67-.27,2.92-1.65,12.4c-1.37,9.48-1.65.73-2.2,12.77-.55,12.04-.55,2.55-1.1,16.05s-1.1,4.74-.55,17.51c.55,12.77-.27,8.03.82,16.05,1.1,8.03,7.42,22.25,7.42,22.25" fill="none" stroke="#020202" stroke-miterlimit="10"/>
          <path d="M345.7,214.95c1.88,1.44,2.06,1.93,3.16,3.63s-1.47-1.22,1.1,1.7-.55,1.46,3.11,2.92.37,1.22,4.21,1.46,2.38-1.46,4.58.24-.55.73,2.56,1.7,1.47-.73,3.66,1.7,2.38,2.92,3.48,4.62c1.1,1.7-.73-1.7,1.1,1.7,1.83,3.4,4.21,8.75,4.21,8.75" fill="none" stroke="#020202" stroke-miterlimit="10"/>
          <path d="M340.62,206.91s-.18.73-1.65.24-.73-.97-2.75-.24-2.38,1.22-3.66,2.92c-1.28,1.7-3.66,6.32-3.66,6.32l-2.38,5.35s-.55-1.46-.55,1.95-.18,5.11-.18,5.11" fill="none" stroke="#020202" stroke-miterlimit="10"/>
          <path d="M350.24,208.22s3.48.97,6.41,3.4c2.93,2.43,6.6,4.62,8.24,6.08,1.65,1.46,4.4,3.16,6.05,4.86s4.4,6.08,5.13,7.3,3.11,6.57,3.66,7.54,2.38,7.78,2.38,7.78" fill="none" stroke="#231f20" stroke-miterlimit="10"/>
          <path d="M373.51,211.65s-2.75-2.92.82,3.28,4.67,8.39,7.42,11.31c2.75,2.92,3.3,3.65,4.4,8.39,1.1,4.74.27.73,1.1,7.66.82,6.93.83,5.11.82,8.75,0,3.65-.27,6.93-.27,14.96s-.55,9.12-.27,16.42c.27,7.3.27,14.59,1.1,18.24.82,3.65-1.37-2.55.82,7.66s2.2-3.28,1.92,13.13,1.1,8.03-1.65,19.7c-2.75,11.67-4.12,9.85-4.12,20.06s2.2,24.08,2.2,24.08" fill="none" stroke="#231f20" stroke-miterlimit="10"/>
          <path d="M328.53,228.31c1.66.04,2.75-5.35,3.3-7.05.55-1.7.92-3.16,2.38-5.84s2.56-4.13,3.66-4.86,1.28-.24,2.75-.24,1.83-.24,1.83-.24c0,0,2.38-1.7-.92-.24" fill="none" stroke="#231f20" stroke-miterlimit="10"/>
          <path d="M332.74,227.09s-1.1.24.18-1.46c1.28-1.7,2.75-3.65,3.11-5.11s-1.28.24.73-2.19,0-.49,2.02-2.43c2.02-1.95,5.31-4.38,5.31-4.38" fill="#fff" stroke="#020202" stroke-miterlimit="10"/>
          <path d="M348.13,211.77c1.47,1.22,2.38,2.68,3.66,3.4s-.55.97,2.38,2.19.73.97,4.21,2.43c3.48,1.46.18-.49,3.48,1.46s1.1.24,3.85,2.19c2.75,1.95-.73-2.43,2.75,1.95,3.48,4.38.92.49,3.48,4.38,2.56,3.89,7.15,12.65,7.15,12.65" fill="none" stroke="#020202" stroke-miterlimit="10"/>
          <path d="M380.1,269.29s0-5.84,0,0-.82,8.75.27,12.77c1.1,4.01.55,9.12,1.65,13.13,1.1,4.01.82,5.11.82,9.85v8.39c0,5.84,1.1-3.28,0,6.93-1.1,10.21,1.1,1.09-1.1,12.4-2.2,11.31-1.1,4.74-2.2,14.23-1.1,9.48-.55,2.92-2.2,15.32s-2.47,6.57-1.65,17.51c.82,10.94.27,9.48,1.65,16.42,1.37,6.93,0,2.55,1.92,8.39,1.92,5.84,2.2,9.48,2.2,9.48" fill="none" stroke="#020202" stroke-miterlimit="10"/>
          <path d="M375.71,271.11c0,5.47,1.37,3.28-.55,10.21-1.92,6.93-.27.36-1.92,6.93s-1.65,14.59-1.65,19.7-1.92,4.01-.27,14.59,1.92,4.74,1.92,16.05,1.1,0,0,13.13c-1.1,13.13-.82,1.82-1.37,14.96-.55,13.13-1.65,2.19-.82,13.5.82,11.31.27,6.2.82,14.96.55,8.75.82,18.97.82,18.97" fill="#fff" stroke="#020202" stroke-miterlimit="10"/>
          <path d="M370.76,272.21v5.84l-2.47,24.08c-1.81,3.54-3.68,8.17-4.95,13.86-4.11,18.52,1.31,34.8,3.3,40.13" fill="none" stroke="#231f20" stroke-miterlimit="10"/>
          <path d="M361.14,271.84s0-11.31,0,0-1.1,14.23.27,20.79c1.37,6.57,1.65,11.67,2.75,15.69s1.1,10.58,1.1,14.59-.82,4.74-2.75,12.4-3.3,9.85-3.57,18.97c-.27,9.12-.27,6.57-.27,15.32s2.2-6.93,0,8.75c-2.2,15.69-4.12,34.65-4.12,34.65" fill="none" stroke="#231f20" stroke-miterlimit="10"/>
          <path d="M323.77,228.27c.02,4.1.31,10.18,1.67,17.4.94,5.01,1.42,7.52,2.86,10.33,3.34,6.51,9,9.05,15.5,11.96,2.25,1.01,4.4,1.78,6.45,2.37,6.15,1.77,11.41,1.91,15.72,1.98,5.86.11,8.82-.64,11.21-1.63,4.73-1.96,10.56-6.26,10.01-9.51-.07-.4-.16-.38-1.43-2.17,0,0-.36-.51-4.53-7.07.38-.63.95-1.75,1.19-3.26.2-1.22.56-3.5-.72-4.89-.93-1.01-2.34-1.13-3.34-.82-.19.06-1.29.4-1.98,1.5-.27.43-.24.6-.4.68-.78.37-3.1-2.96-4.77-6.8-1.97-4.52-1.47-6.16-3.34-7.88-1.51-1.39-3.28-1.67-4.77-1.9-2.8-.44-3.52.5-6.68,0-1.2-.19-2.55-.42-4.05-1.36-.4-.25-2.12-1.37-3.58-3.81-2.49-4.18-1.72-8.09-3.1-8.43-.44-.11-.79.23-2.62,2.17-2.08,2.21-4.02,4.32-4.29,4.62-1.98,2.15-3.26,3.54-5.01,4.62-1.34.83-3.59,1.88-6.91,1.9h-3.1Z" fill="#906126" stroke="#020202" stroke-miterlimit="10"/>
          <path d="M334.02,232.08c-.22.19-2,1.82-2.15,4.35-.21,3.67,3.15,7.11,6.2,7.61,1.32.22,3.26-.49,7.15-1.9,2.9-1.05,3.66-1.56,4.77-1.09,1.8.77,1.54,2.88,3.58,4.35,1.16.83,2.52.83,5.25.82,4.1-.02,6.15-.03,7.39-1.63,1.41-1.82,1.1-4.51.95-5.71-.09-.74-.6-4.45-3.34-6.52-3.73-2.83-8.71-.45-9.06-.27-1.42.7-2.01,1.47-3.58,1.63-1.45.15-2.29-.36-4.29-1.09-1.11-.41-3.62-1.32-6.2-1.63-2.48-.3-4.79-.58-6.68,1.09Z" fill="#fff" stroke="#010101" stroke-linejoin="round" stroke-width=".5"/>
          <ellipse cx="338.07" cy="237.65" rx="1.43" ry="1.77" fill="#fff" stroke="#010101" stroke-linejoin="round" stroke-width=".5"/>
          <ellipse cx="360.96" cy="238.74" rx="1.67" ry="1.5" fill="#fff" stroke="#010101" stroke-linejoin="round" stroke-width=".5"/>
          <polyline points="346.51 248.07 346.26 249.72 351.23 249.72" fill="none" stroke="#010101" stroke-linejoin="round" stroke-width=".5"/>
          <polygon points="349.28 280.2 354.53 290.8 359.77 282.65 358.58 279.65 358.58 272.04 353.81 271.23 351.43 270.41 351.67 277.75 349.28 280.2" fill="#906126" stroke="#020202" stroke-miterlimit="10"/>
          <path d="M340.62,335.93c-1.13,4.15-2.19,8.44-3.18,12.87-5.43,24.38-7.16,47.17-6.99,67.24l16.85.36c.15-4.52.36-9.11.64-13.77,1.09-18.49,3.04-35.92,5.56-52.2.09,2.74.26,6.83.64,11.78,1,13.05,2.43,18.66,3.18,27.55.48,5.61.78,13.64-.16,23.56l13.51,1.45c0-2.72-.16-3.26-.16-3.26,0-2.21,1.06-32.74.64-47.85-.17-6.27-.76-15.43-2.7-26.64l-.64-1.09-7.95-45.85-9.38-.54-9.86,46.4Z" fill="#ffe600" stroke="#020202" stroke-miterlimit="10"/>
          <path d="M344.43,273.58l-3.82,62.35,2.7-1.99c4.45-4.89,6.68-8.7,6.99-9.79s2.38-17.58,2.38-17.58l-.79-2.9-2.86-4.35,5.48-8.52,5.01,8.16-2.86,5.8c-.16,1.09.79,17.58.95,18.3s.95,5.98,1.75,6.89,3.02,3.81,3.66,3.81,4.77,2.17,4.77,2.17l-1.91-59.81-11.13,13.96-10.33-16.49Z" fill="#65bc46" stroke="#020202" stroke-miterlimit="10"/>
          <rect x="332.99" y="416.22" width="10.81" height="3.24" fill="#231f20" stroke="#020202" stroke-miterlimit="10"/>
          <polygon points="368.04 419.18 358.71 418.46 359 413.58 368.33 414.3 368.04 419.18" fill="#231f20" stroke="#020202" stroke-miterlimit="10"/>
          <path d="M343.89,280.34c-.74-.51-1.84-1.02-3.03-.5-2.03.88-3.29,4.29-4.96,10.53-3.65,13.64-3.43,18.97-5.51,20.05-1.03.54-1.11-.75-6.33-5.01-3.5-2.86-7.43-5.51-7.43-5.51.09-.4.39-1.9,0-3.01-.63-1.81-2.81-1.82-3.44.25-.4,1.31-.15,3.34.69,4.76.57.28.69.48.69.63,0,.33-.7.74-1.38.63-.6-.1-.72-.54-1.03-.38-.59.31-1.08,2.3-.69,3.38.26.72.81.81,1.17.88.91.16,1.62-.52,1.65-.38.04.18-1.09.72-1.58,2.38-.34,1.15-.4,2.92.07,3.51.4.5,1.08,0,1.45-.5.55-.76.77-2.03.89-2.76.19-1.1.14-1.67.41-2.01.31-.39.77-.12.96,0,1.85,1.16,9.83,10.93,13.49,11.03,3.43.1,8.35-3.17,9.44-10.12.52-3.29,1.31-5.2,2.19-16.95.03-.45.53-.41.69-.5l1.24-.13.34-10.28Z" fill="#906126" stroke="#020202" stroke-miterlimit="10"/>
          <polyline points="348.56 260.68 356.25 263.97 359.55 262.51" fill="none" stroke="#020202" stroke-miterlimit="10" stroke-width=".25"/>
          <line x1="336.19" y1="227.49" x2="342.79" y2="227.85" fill="#906126" stroke="#020202" stroke-miterlimit="10"/>
          <line x1="352.95" y1="228.95" x2="355.43" y2="228.22" fill="#906126" stroke="#020202" stroke-miterlimit="10"/>
          <g id="Lasso">
            <path d="M351.88,326.89c13.56,6.81,19.07,13.05,24.73,13.86,5.56.8,7.95-1.63,13.56.97,8.85,4.11,13.45,15.06,14.47,17.51,3.91,9.31,3.66,14.35,3.66,14.35l-2.02,3.16s-3-2.82-3.85-4.62c-6.85-14.6-6.47-17.94-9.89-21.4-4.33-4.37-10.44-4.58-11.54-4.62-2.42-.08-3.02.46-5.31.24-5.29-.49-9.01-4-10.63-5.35-7.3-6.1-14.58-4.03-21.71-5.96-11.65-3.14-18.61-16.5-26.93-29.55-6.51-10.2-4.47-9.76-7.69-13.5-13.84-16.02-42.6-16.74-51.32-16.57-1.63.03-3.66-2.58-3.66-2.58l4.21-4.62s3.24-1.83,7.07-.67c9.16,2.76,16.1,5.68,16.49,5.84,12.28,4.95,14.32-.41,26.32,5.01,4.23,1.91,7.58,7.63,11.5,11.72,8.71,9.08,8.06,14.66,15.32,24.62,3.06,4.2,8.23,9.34,17.22,12.16" fill="#be9069" stroke="#231f20" stroke-miterlimit="10"/>
            <line x1="406.36" y1="364.04" x2="404.34" y2="374.5" fill="none" stroke="#231f20" stroke-miterlimit="10"/>
            <line x1="401.78" y1="353.58" x2="399.03" y2="364.28" fill="none" stroke="#231f20" stroke-miterlimit="10"/>
            <line x1="393.35" y1="344.1" x2="391.15" y2="349.2" fill="none" stroke="#231f20" stroke-miterlimit="10"/>
            <line x1="389.69" y1="341.91" x2="386.94" y2="347.01" fill="none" stroke="#231f20" stroke-miterlimit="10"/>
            <line x1="376.89" y1="344.58" x2="376.86" y2="345.56" fill="none" stroke="#231f20" stroke-miterlimit="10"/>
            <line x1="370.45" y1="338.5" x2="369.72" y2="343.61" fill="none" stroke="#231f20" stroke-miterlimit="10"/>
            <line x1="365.32" y1="335.1" x2="361.47" y2="338.5" fill="none" stroke="#231f20" stroke-miterlimit="10"/>
            <line x1="361.47" y1="332.42" x2="357.81" y2="337.29" fill="none" stroke="#231f20" stroke-miterlimit="10"/>
            <line x1="355.43" y1="329.02" x2="349.57" y2="335.83" fill="none" stroke="#231f20" stroke-miterlimit="10"/>
            <line x1="344.25" y1="324.16" x2="337.84" y2="332.18" fill="none" stroke="#231f20" stroke-miterlimit="10"/>
            <line x1="334.91" y1="315.64" x2="324.83" y2="318.81" fill="none" stroke="#231f20" stroke-miterlimit="10"/>
            <line x1="327.58" y1="302.75" x2="316.95" y2="305.67" fill="none" stroke="#231f20" stroke-miterlimit="10"/>
            <line x1="316.95" y1="287.43" x2="308.71" y2="291.32" fill="none" stroke="#231f20" stroke-miterlimit="10"/>
            <line x1="304.68" y1="277.22" x2="299.55" y2="284.27" fill="none" stroke="#231f20" stroke-miterlimit="10"/>
            <line x1="291.12" y1="276" x2="289.29" y2="279.41" fill="none" stroke="#231f20" stroke-miterlimit="10"/>
            <line x1="283.43" y1="274.3" x2="282.15" y2="277.71" fill="none" stroke="#231f20" stroke-miterlimit="10"/>
            <line x1="277.75" y1="272.11" x2="276.28" y2="276.73" fill="none" stroke="#231f20" stroke-miterlimit="10"/>
            <line x1="269.5" y1="269.19" x2="268.77" y2="276" fill="none" stroke="#231f20" stroke-miterlimit="10"/>
            <line x1="262.18" y1="267.01" x2="262.36" y2="276.25" fill="none" stroke="#231f20" stroke-miterlimit="10"/>
          </g>
          <path d="M366.28,281.65c.96.03,4.04-.04,5.48.82,3.28,1.95,4.78,6.14,5.96,12.23,2.51,12.94,3.26,32.85,2.15,37.52-.08.33-.4,1.56.12,2.17.7.83,2.21-.3,2.98.54.6.66.51,2.24-.12,2.85-.6.58-1.57.18-1.67.54-.07.28.53.5.95,1.36.14.28.55,1.11.24,1.77-.35.73-1.35.68-1.43.68-.56-.04-.96-.37-1.09-.49-.59-.52-.69-1.18-.82-1.15-.28.07.52,2.78-.48,3.81-.44.45-1.18.54-1.67.27-.81-.45-1.19-2.04-1.19-2.04-.42.21-1.33.57-2.38.27-.31-.07-1.01-.24-1.43-.95-.56-.94-.15-2.08-.12-2.17.41-1.12,1.69-.66,2.38-1.63.67-.93.36-2.39.24-2.99-.69-3.47-3.34-20.25-3.7-29.36-.23-5.85.37-11.18-1.67-12.1-.59-.26-1.93-.08-2.38.14l-.36-12.1Z" fill="#906126" stroke="#020202" stroke-miterlimit="10"/>
        </g>
      </g>
    </g>
  </g>
</svg>