<?xml version="1.0" encoding="UTF-8"?>
<svg id="Layer_2" data-name="Layer 2" xmlns="http://www.w3.org/2000/svg" viewBox="0 0 390.17 419.87">
  <g id="outlines">
    <g id="Page_4" data-name="Page 4">
      <g id="Panel_20" data-name="Panel 20">
        <g id="Background">
          <g id="planet">
            <g>
              <path d="M292.17,85.33c2.25,9.6,3.46,19.67,3.46,30.07,0,13.39-1.99,26.26-5.65,38.26l-.2-.07-.49-1.46-4.37-3.41c-3.95-1.46-10.18-3.45-18.03-4.37-9.64-1.14-14.42.17-28.74.97-14.9.82-22.36,1.25-27.77,0-12.74-2.94-13.53-8.17-29.22-12.17-1.91-.49-8.77-2.16-17.54-3.89-3.18-.62-5.84-1.12-7.71-1.45,2.78-1.61,5.81-3.39,9.17-5.37,15.31-9.03,17.22-11.7,26.3-14.6,5.13-1.65,4.29-.72,22.91-3.9,22.29-3.81,27.94-5.9,32.15-7.78,5.1-2.3,8.47-4.46,15.1-8.75,1.17-.76,2.3-1.51,3.4-2.26l27.24.17Z" fill="#1972a8"/>
              <path d="M289.77,153.6l.2.07c-6.22,20.31-17.24,38.14-31.56,51.85l-.31-.33-4.87.48c-4.57.01-11.58-.21-19.97-1.45-17.23-2.56-23.11-6.61-49.69-16.07-8.77-3.12-34.33-12.36-47.74-8.75-2.53.68-6.38,2.28-13.15,3.4-3.63.6-6.61.81-10.72,2.44-1.28.5-7.35,2.91-7.07,4.69-10.81-14.93-18.45-32.8-21.76-52.38,1.33-.03,3.22-.05,5.45,0,7.68.13,13.36.78,15.1.97,1.36.15,16.03,1.7,26.31.49,7.06-.84,14.16-4.38,25.9-11.18,1.87.33,4.53.82,7.71,1.45,8.76,1.73,15.62,3.4,17.54,3.89,15.69,4,16.48,9.23,29.22,12.17,5.41,1.25,12.87.82,27.77,0,14.32-.8,19.1-2.11,28.74-.97,7.84.92,14.08,2.91,18.03,4.37l4.37,3.41.49,1.46Z" fill="#3a90ba"/>
              <path d="M155.9,127.82c-11.74,6.8-18.84,10.35-25.9,11.18-10.28,1.21-24.95-.35-26.31-.49-1.74-.19-7.42-.84-15.1-.97-2.23-.05-4.12-.03-5.45,0-1.22-7.17-1.86-14.57-1.86-22.14,0-6.76.52-13.39,1.49-19.84l9.24,6.45c5.58,3.01,17.07,8.18,32.15,7.78,5.07-.13,15.31-.52,25.82-6.32,2.74-1.51,2.81-1.91,16.07-12.17,3.04-2.35,5.61-4.33,7.75-5.96l91.13-.19c-1.1.74-2.23,1.5-3.4,2.26-6.63,4.29-10,6.45-15.1,8.75-4.2,1.89-9.85,3.97-32.15,7.78-18.61,3.19-17.77,2.26-22.91,3.9-9.08,2.9-10.98,5.56-26.3,14.6-3.36,1.98-6.39,3.76-9.17,5.37Z" fill="#4b57a6"/>
              <path d="M258.11,205.18l.31.33c-18.77,17.98-43.22,28.86-69.95,28.86-33.54,0-63.49-17.11-83.13-43.89,1.65,1.05,7.71.33,13.96,2.54,8.88,3.13,9.86,9.23,18.51,17.03,1.32,1.18,12.66,11.2,27.76,13.63,2.71.44,4.05.39,31.17-4.38,32.81-5.76,31.03-5.72,33.13-5.83,3.5-.19,9.53-.35,17.06-2.92,4.89-1.67,8.69-3.79,11.19-5.35Z" fill="#2b92d0"/>
              <path d="M253.24,205.66l4.87-.48c-2.5,1.57-6.3,3.68-11.19,5.35-7.52,2.58-13.56,2.74-17.06,2.92-2.1.11-.32.07-33.13,5.83-27.12,4.77-28.46,4.82-31.17,4.38-15.1-2.43-26.44-12.44-27.76-13.63-8.64-7.8-9.62-13.89-18.51-17.03-6.25-2.2-12.31-1.49-13.96-2.54t-.01,0c-.13-.19-.28-.37-.41-.56-.28-1.78,5.8-4.18,7.07-4.69,4.11-1.63,7.09-1.85,10.72-2.44,6.77-1.12,10.62-2.72,13.15-3.4,13.41-3.61,38.97,5.63,47.74,8.75,26.59,9.46,32.46,13.51,49.69,16.07,8.39,1.24,15.39,1.46,19.97,1.45ZM174.33,200.07c0-6.59-6.43-11.93-14.37-11.93s-14.37,5.34-14.37,11.93,6.43,11.93,14.37,11.93,14.37-5.34,14.37-11.93Z" fill="#b6dcf4"/>
              <path d="M84.74,85.33h89.06c-2.14,1.65-4.71,3.63-7.75,5.98-13.27,10.25-13.33,10.65-16.07,12.17-10.5,5.8-20.75,6.19-25.82,6.32-15.08.4-26.56-4.77-32.15-7.78l-9.24-6.45c.52-3.47,1.18-6.88,1.97-10.23Z" fill="#b6dcf4"/>
              <ellipse cx="159.95" cy="200.07" rx="14.37" ry="11.93" fill="#1972a8"/>
              <path d="M104.9,189.92c.13.19.28.37.41.56-.24-.15-.37-.32-.41-.56Z" fill="#b6dcf4"/>
            </g>
            <g>
              <path d="M105.32,190.48c-.24-.15-.37-.32-.41-.56-.28-1.78,5.8-4.18,7.07-4.69,4.11-1.63,7.09-1.85,10.72-2.44,6.77-1.12,10.62-2.72,13.15-3.4,13.41-3.61,38.97,5.63,47.74,8.75,26.59,9.46,32.46,13.51,49.69,16.07,8.39,1.24,15.39,1.46,19.97,1.45l4.87-.48c-2.5,1.57-6.3,3.68-11.19,5.35-7.52,2.58-13.56,2.74-17.06,2.92-2.1.11-.32.07-33.13,5.83-27.12,4.77-28.46,4.82-31.17,4.38-15.1-2.43-26.44-12.44-27.76-13.63-8.64-7.8-9.62-13.89-18.51-17.03-6.25-2.2-12.31-1.49-13.96-2.54" fill="none" stroke="#231f20" stroke-miterlimit="10"/>
              <path d="M173.79,85.35c-2.14,1.63-4.71,3.61-7.75,5.96-13.27,10.25-13.33,10.65-16.07,12.17-10.5,5.8-20.75,6.19-25.82,6.32-15.08.4-26.56-4.77-32.15-7.78l-9.24-6.45-.51-.36" fill="none" stroke="#231f20" stroke-miterlimit="10"/>
              <line x1="217.19" y1=".31" x2="213.78" y2="4.69" fill="none" stroke="#231f20" stroke-miterlimit="10"/>
              <line x1="230.35" y1="11.5" x2="236.18" y2="9.55" fill="none" stroke="#231f20" stroke-miterlimit="10"/>
              <ellipse cx="159.95" cy="200.07" rx="14.37" ry="11.93" fill="none" stroke="#231f20" stroke-miterlimit="10"/>
              <path d="M155.82,127.81s.05.01.08.01c1.87.33,4.53.82,7.71,1.45,8.76,1.73,15.62,3.4,17.54,3.89,15.69,4,16.48,9.23,29.22,12.17,5.41,1.25,12.87.82,27.77,0,14.32-.8,19.1-2.11,28.74-.97,7.84.92,14.08,2.91,18.03,4.37l4.37,3.41.49,1.46" fill="none" stroke="#231f20" stroke-miterlimit="10"/>
              <path d="M292.17,85.33l-27.24-.17c-1.1.74-2.23,1.5-3.4,2.26-6.63,4.29-10,6.45-15.1,8.75-4.2,1.89-9.85,3.97-32.15,7.78-18.61,3.19-17.77,2.26-22.91,3.9-9.08,2.9-10.98,5.56-26.3,14.6-3.36,1.98-6.39,3.76-9.17,5.37-11.74,6.8-18.84,10.35-25.9,11.18-10.28,1.21-24.95-.35-26.31-.49-1.74-.19-7.42-.84-15.1-.97-2.23-.05-4.12-.03-5.45,0h-.4" fill="none" stroke="#231f20" stroke-linecap="round" stroke-linejoin="round"/>
              <path d="M264.93,85.16l-91.13.19h-89.06c-.78,3.33-1.45,6.75-1.97,10.21-.97,6.45-1.49,13.08-1.49,19.84,0,7.57.64,14.97,1.86,22.14,3.31,19.58,10.95,37.45,21.76,52.38.13.19.28.37.41.56t.01,0c19.64,26.79,49.59,43.89,83.13,43.89,26.73,0,51.18-10.88,69.95-28.86,14.32-13.71,25.34-31.54,31.56-51.85,3.66-12.01,5.65-24.88,5.65-38.26,0-10.4-1.21-20.47-3.46-30.07" fill="none" stroke="#231f20" stroke-linecap="round" stroke-linejoin="round"/>
            </g>
          </g>
          <polygon points="82.02 74.39 298 74.39 298.36 85.34 81.65 84.72 82.02 74.39" fill="#fff"/>
          <polyline points="84.74 85.33 293.05 85.34 299.28 85.34" fill="#c4e8ee" stroke="#231f20" stroke-miterlimit="10" stroke-width=".75"/>
          <g>
            <g>
              <polygon points="389.59 413.26 389.59 419.36 300.81 419.13 300.81 419.08 234.06 291.08 234.06 290.83 286.69 290.83 388.52 411.8 389.59 413.26" fill="#4a494a"/>
              <polygon points="389.59 339.78 389.59 413.26 388.52 411.8 286.69 290.83 312.93 290.83 387.99 338.54 389.42 339.78 389.59 339.78" fill="#3b3b3b"/>
              <polygon points="389.59 290.83 389.59 339.78 389.42 339.78 387.99 338.54 312.93 290.83 389.59 290.83" fill="#616262"/>
              <polygon points="300.81 419.08 300.81 419.13 64.81 418.52 154.24 290.83 234.06 290.83 234.06 291.08 300.81 419.08" fill="#4a494a"/>
              <polygon points="154.24 290.83 64.81 418.52 5.32 418.18 110.37 290.83 154.24 290.83" fill="#4a494a"/>
              <polygon points="110.37 290.83 5.32 418.18 64.81 418.52 .5 418.36 .95 347.17 1.04 347.17 70.71 290.83 110.37 290.83" fill="#3b3b3b"/>
              <polygon points="70.71 290.83 1.04 347.17 .95 347.17 1.3 290.83 70.71 290.83" fill="#616262"/>
            </g>
            <g>
              <polygon points=".95 347.17 1.3 290.83 70.71 290.83 110.37 290.83 154.24 290.83 234.06 290.83 286.69 290.83 312.93 290.83 389.59 290.83 389.59 339.78 389.59 413.26 389.59 419.36 300.81 419.13 64.81 418.52 .5 418.36 .95 347.17" fill="none" stroke="#231f20" stroke-miterlimit="10"/>
              <line x1="70.71" y1="290.83" x2="1.04" y2="347.17" fill="none" stroke="#231f20" stroke-miterlimit="10"/>
              <polyline points="311.88 290.15 312.93 290.83 387.99 338.54 389.42 339.78" fill="none" stroke="#231f20" stroke-miterlimit="10"/>
              <polyline points="286.69 290.83 388.52 411.8 389.59 413.26" fill="none" stroke="#231f20" stroke-miterlimit="10"/>
              <line x1="234.06" y1="291.08" x2="300.81" y2="419.08" fill="none" stroke="#231f20" stroke-miterlimit="10"/>
              <polyline points="154.93 289.84 154.24 290.83 64.81 418.52 5.32 418.18 110.37 290.83" fill="none" stroke="#231f20" stroke-miterlimit="10"/>
            </g>
          </g>
          <line x1="187.9" y1="290.46" x2="188.45" y2="419.36" fill="#171c17" stroke="#231f20" stroke-miterlimit="10"/>
          <rect x=".5" y="252.04" width="389.09" height="38.79" fill="#171c17" stroke="#231f20" stroke-miterlimit="10"/>
          <ellipse cx="16.99" cy="263.61" rx="4.76" ry="5.16" fill="#7a7f7a"/>
          <ellipse cx="43.73" cy="279.31" rx="4.76" ry="5.16" fill="#7a7f7a"/>
          <ellipse cx="89.9" cy="264.85" rx="4.76" ry="5.16" fill="#7a7f7a"/>
          <ellipse cx="136.43" cy="274.76" rx="4.76" ry="5.16" fill="#7a7f7a"/>
          <ellipse cx="166.84" cy="280.13" rx="4.76" ry="5.16" fill="#7a7f7a"/>
          <ellipse cx="188.82" cy="272.7" rx="4.76" ry="5.16" fill="#7a7f7a"/>
          <ellipse cx="377.5" cy="263.2" rx="4.76" ry="5.16" fill="#7a7f7a"/>
          <ellipse cx="358.82" cy="280.13" rx="4.76" ry="5.16" fill="#7a7f7a"/>
          <ellipse cx="326.94" cy="270.63" rx="4.76" ry="5.16" fill="#7a7f7a"/>
          <ellipse cx="287.74" cy="261.96" rx="4.76" ry="5.16" fill="#7a7f7a"/>
          <ellipse cx="241.21" cy="267.33" rx="4.76" ry="5.16" fill="#7a7f7a"/>
          <ellipse cx="216.11" cy="268.98" rx="3.11" ry="3.1" fill="#394239"/>
          <ellipse cx="158.41" cy="265.26" rx="3.3" ry="3.92" fill="#394239"/>
          <ellipse cx="253.64" cy="248.83" rx="3.3" ry="3.92" fill="#394239"/>
          <ellipse cx="301.3" cy="274.97" rx="3.3" ry="3.92" fill="#394239"/>
          <ellipse cx="343.43" cy="263.82" rx="3.3" ry="3.92" fill="#394239"/>
          <ellipse cx="73.78" cy="276.62" rx="3.3" ry="3.92" fill="#394239"/>
          <ellipse cx="55.82" cy="260.92" rx="3.3" ry="3.92" fill="#394239"/>
          <ellipse cx="9.29" cy="281.58" rx="3.3" ry="3.92" fill="#394239"/>
          <ellipse cx="112.61" cy="261.75" rx="3.3" ry="3.92" fill="#394239"/>
          <ellipse cx="103.09" cy="282.82" rx="3.3" ry="3.92" fill="#394239"/>
          <polygon points="33.55 85.96 .5 101.45 .5 85.96 33.55 85.96" fill="#f57f20" stroke="#231f20" stroke-miterlimit="10"/>
          <polygon points="33.55 85.96 33.55 418.69 .5 418.69 .5 101.45 33.55 85.96" fill="#c1bfb0" stroke="#231f20" stroke-miterlimit="10"/>
          <polyline points="355.46 86.47 389.67 85.34 389.59 102.38 355.46 86.47" fill="#f57f20" stroke="#231f20" stroke-miterlimit="10"/>
          <polygon points="389.59 102.38 389.59 125.31 81.56 127.35 33.55 127.67 .5 127.89 .5 101.45 33.55 85.96 355.46 86.47 389.59 102.38" fill="#7b7c88" stroke="#231f20" stroke-miterlimit="10"/>
          <polyline points="261.28 95.31 276.77 101.3 265.18 106.29 281.9 115.88" fill="#7b7c88" stroke="#231f20" stroke-miterlimit="10" stroke-width="2"/>
          <polyline points="70.9 116.9 71.16 93.81 96.72 93.97 96.46 117.06" fill="#7b7c88" stroke="#231f20" stroke-miterlimit="10" stroke-width="2"/>
          <ellipse cx="119.15" cy="105.67" rx="18" ry="11.23" fill="#7b7c88" stroke="#231f20" stroke-miterlimit="10" stroke-width="2"/>
          <path d="M106.91,102.05c-.83,1.51-4.59,2.13-8.38,1.39-3.8-.75-6.2-2.58-5.37-4.09.83-1.51,4.59-2.13,8.38-1.39,3.8.75,6.2,2.58,5.37,4.09Z" fill="#7b7c88" stroke="#231f20" stroke-miterlimit="10" stroke-width="2"/>
          <path d="M192.44,93.97c-11.96-.5-21.76,4.98-22.17,11.08-.44,6.56,10.06,12.8,22.95,12.01" fill="#7b7c88" stroke="#231f20" stroke-miterlimit="10" stroke-width="2"/>
          <line x1="170.27" y1="105.05" x2="183.57" y2="105.05" fill="#7b7c88" stroke="#231f20" stroke-miterlimit="10" stroke-width="2"/>
          <ellipse cx="190.49" cy="105.2" rx="1.96" ry="1.09" fill="#7b7c88" stroke="#231f20" stroke-miterlimit="10" stroke-width="2"/>
          <ellipse cx="237.69" cy="115.66" rx="1.96" ry="1.09" fill="#7b7c88" stroke="#231f20" stroke-miterlimit="10" stroke-width="2"/>
          <ellipse cx="259.44" cy="95.31" rx="1.83" ry="1.03" fill="#7b7c88" stroke="#231f20" stroke-miterlimit="10" stroke-width="2"/>
          <ellipse cx="258.96" cy="115.44" rx="1.83" ry="1.03" fill="#7b7c88" stroke="#231f20" stroke-miterlimit="10" stroke-width="2"/>
          <path d="M281.9,116.9c-1.01,0-1.83-.46-1.83-1.03s.82-1.03,1.83-1.03,1.83.46,1.83,1.03-.82,1.03-1.83,1.03" fill="#7b7c88" stroke="#231f20" stroke-miterlimit="10" stroke-width="2"/>
          <ellipse cx="277.2" cy="101.22" rx="1.83" ry="1.03" fill="#7b7c88" stroke="#231f20" stroke-miterlimit="10" stroke-width="2"/>
          <polyline points="200.01 116.9 199.74 94.12 224.26 94.12 224.26 117.06" fill="#7b7c88" stroke="#231f20" stroke-miterlimit="10" stroke-width="2"/>
          <line x1="231.3" y1="94.44" x2="253.74" y2="94.44" fill="#7b7c88" stroke="#231f20" stroke-miterlimit="10" stroke-width="2"/>
          <line x1="238.09" y1="94.44" x2="237.82" y2="111.6" fill="#7b7c88" stroke="#231f20" stroke-miterlimit="10" stroke-width="2"/>
          <polyline points="259.44 96.34 265.18 106.29 258.96 114.41" fill="#7b7c88" stroke="#231f20" stroke-miterlimit="10" stroke-width="2"/>
          <path d="M301.34,116.9c-2.23,0-4.04-1.85-4.04-4.13s1.81-4.13,4.04-4.13,4.04,1.85,4.04,4.13-1.81,4.13-4.04,4.13" fill="#7b7c88" stroke="#231f20" stroke-miterlimit="10" stroke-width="2"/>
          <polyline points="291.5 93.09 301.34 108.64 311.28 94.02" fill="#7b7c88" stroke="#231f20" stroke-miterlimit="10" stroke-width="2"/>
          <path d="M81.56,129.65c-.64.13-1.62.4-2.75.93-14.75,7.01-13.04,41.93-15.39,68.79-1.65,18.92-20.06,77.15-20.06,77.15l2.47,4.34s3.87-6.18,5.22-10.54c6.18-19.9,5.82-13.14,9.62-27.58,2.65-10.06,7.08-26.9,8.52-49.58,1.23-19.35-.71-27.46,4.4-41.52,2.62-7.22,6.7-12.32,9.07-15.8l-1.1-6.2Z" fill="#3cb657" stroke="#231f20" stroke-miterlimit="10"/>
          <path d="M294.37,130.27c.55.13,1.41.37,2.38.88,12.79,6.62,11.31,39.61,13.34,64.98,1.43,17.88,17.39,72.88,17.39,72.88l-2.14,4.1s-3.35-5.83-4.53-9.95c-5.35-18.8-5.04-12.42-8.34-26.05-2.3-9.51-6.14-25.42-7.39-46.83-1.06-18.28.62-25.94-3.81-39.22-2.27-6.82-5.81-11.64-7.86-14.93l.95-5.85Z" fill="#3cb657" stroke="#231f20" stroke-miterlimit="10"/>
          <path d="M277.76,181.55c.41.08.01.3.73.63,9.49,4.33,8.39,25.89,9.9,42.48,1.06,11.68,12.91,47.64,12.91,47.64l-1.59,2.68s-2.49-3.81-3.36-6.51c-3.97-12.29-3.74-8.12-6.19-17.03-1.7-6.21-4.56-16.61-5.48-30.61-.79-11.95.46-16.95-2.83-25.64-1.69-4.46-4.77-7.46-6.29-9.61l2.2-4.03Z" fill="#3cb657" stroke="#231f20" stroke-miterlimit="10"/>
          <path d="M190.82,234.15c.7.03,2.53,9.36,5.09,15.93,1.81,4.63,21.94,18.87,21.94,18.87l-2.7,1.06s-4.23-1.51-5.71-2.58c-6.75-4.87-6.36-3.21-10.52-6.75-2.9-2.46-7.75-6.58-9.32-12.13-1.34-4.73.78-6.72-4.81-10.16-2.87-1.76-2.82-3.49-5.41-4.34l11.44.08Z" fill="#3cb657" stroke="#231f20" stroke-miterlimit="10"/>
          <path d="M127.45,213.62c-.42.06-1.53.8-2.28,1.04-9.8,3.2-8.66,19.16-10.22,31.43-1.1,8.65-13.33,35.26-13.33,35.26l1.64,1.98s2.57-2.82,3.47-4.81c4.1-9.09,3.86-6.01,6.39-12.6,1.76-4.6,4.71-12.29,5.66-22.66.81-8.84-.47-12.55,2.92-18.97,1.74-3.3,6.51-6.76,8.09-8.35l-2.34-2.32Z" fill="#3cb657" stroke="#231f20" stroke-miterlimit="10"/>
        </g>
        <g id="Fire" opacity=".9">
          <path d="M31.87,269.17l69.8,1.46s-.26-3.77-.55-6.57c-1.52-14.49-3.2-30.54-10.44-35.75-5.02-3.61-8.39,1.07-11.54-2.92-3.61-4.58-.07-11.9-1.65-24.08-1.48-11.46-7.12-24.4-12.09-24.08-4.46.29-8.83,11.3-9.34,21.16-.71,13.59,6.15,20.09,3.3,26.99-2.26,5.46-7.4,3.45-13.74,8.03-10.24,7.4-13.74,35.75-13.74,35.75Z" fill="#fcb017"/>
          <path d="M44.3,267.37l48.34,3.16s-.12-2.07-.28-3.62c-.83-8-1.75-16.85-6.69-19.95-3.42-2.15-5.83.3-7.95-1.99-2.43-2.63.13-6.52-.78-13.25-.85-6.33-4.57-13.62-8.01-13.61-3.09,0-6.29,5.9-6.8,11.28-.7,7.42,3.96,11.22,1.87,14.91-1.65,2.92-5.18,1.64-9.64,3.93-7.21,3.71-10.06,19.13-10.06,19.13Z" fill="#f26722"/>
          <path d="M286.34,261.14l69.8,1.46s-.26-3.77-.55-6.57c-1.52-14.49-3.2-30.54-10.44-35.75-5.02-3.61-8.39,1.07-11.54-2.92-3.61-4.58-.07-11.9-1.65-24.08-1.48-11.46-7.12-24.4-12.09-24.08-4.46.29-8.83,11.3-9.34,21.16-.71,13.59,6.15,20.09,3.3,26.99-2.26,5.46-7.4,3.45-13.74,8.03-10.24,7.4-13.74,35.75-13.74,35.75Z" fill="#fcb017"/>
          <path d="M298.77,259.34l48.34,3.16s-.12-2.07-.28-3.62c-.83-8-1.75-16.85-6.69-19.95-3.42-2.15-5.83.3-7.95-1.99-2.43-2.63.13-6.52-.78-13.25-.85-6.33-4.57-13.62-8.01-13.61-3.09,0-6.29,5.9-6.8,11.28-.7,7.42,3.96,11.22,1.87,14.91-1.65,2.92-5.18,1.64-9.64,3.93-7.21,3.71-10.06,19.13-10.06,19.13Z" fill="#f26722"/>
          <path d="M229.18,279.38l69.8,1.46s-.26-3.77-.55-6.57c-1.52-14.49-3.2-30.54-10.44-35.75-5.02-3.61-8.39,1.07-11.54-2.92-3.61-4.58-.07-11.9-1.65-24.08-1.48-11.46-7.12-24.4-12.09-24.08-4.46.29-8.83,11.3-9.34,21.16-.71,13.59,6.15,20.09,3.3,26.99-2.26,5.46-7.4,3.45-13.74,8.03-10.24,7.4-13.74,35.75-13.74,35.75Z" fill="#fcb017"/>
          <path d="M241.61,277.58l48.34,3.16s-.12-2.07-.28-3.62c-.83-8-1.75-16.85-6.69-19.95-3.42-2.15-5.83.3-7.95-1.99-2.43-2.63.13-6.52-.78-13.25-.85-6.33-4.57-13.62-8.01-13.61-3.09,0-6.29,5.9-6.8,11.28-.7,7.42,3.96,11.22,1.87,14.91-1.65,2.92-5.18,1.64-9.64,3.93-7.21,3.71-10.06,19.13-10.06,19.13Z" fill="#f26722"/>
          <path d="M168.72,278.65l69.8,1.46s-.26-3.77-.55-6.57c-1.52-14.49-3.2-30.54-10.44-35.75-5.02-3.61-8.39,1.07-11.54-2.92-3.61-4.58-.07-11.9-1.65-24.08-1.48-11.46-7.12-24.4-12.09-24.08-4.46.29-8.83,11.3-9.34,21.16-.71,13.59,6.15,20.09,3.3,26.99-2.26,5.46-7.4,3.45-13.74,8.03-10.24,7.4-13.74,35.75-13.74,35.75Z" fill="#fcb017"/>
          <path d="M181.15,276.85l48.34,3.16s-.12-2.07-.28-3.62c-.83-8-1.75-16.85-6.69-19.95-3.42-2.15-5.83.3-7.95-1.99-2.43-2.63.13-6.52-.78-13.25-.85-6.33-4.57-13.62-8.01-13.61-3.09,0-6.29,5.9-6.8,11.28-.7,7.42,3.96,11.22,1.87,14.91-1.65,2.92-5.18,1.64-9.64,3.93-7.21,3.71-10.06,19.13-10.06,19.13Z" fill="#f26722"/>
          <path d="M96.72,264.06l69.8,1.46s-.26-3.77-.55-6.57c-1.52-14.49-3.2-30.54-10.44-35.75-5.02-3.61-8.39,1.07-11.54-2.92-3.61-4.58-.07-11.9-1.65-24.08-1.48-11.46-7.12-24.4-12.09-24.08-4.46.29-8.83,11.3-9.34,21.16-.71,13.59,6.15,20.09,3.3,26.99-2.26,5.46-7.4,3.45-13.74,8.03-10.24,7.4-13.74,35.75-13.74,35.75Z" fill="#fcb017"/>
          <path d="M109.15,262.26l48.34,3.16s-.12-2.07-.28-3.62c-.83-8-1.75-16.85-6.69-19.95-3.42-2.15-5.83.3-7.95-1.99-2.43-2.63.13-6.52-.78-13.25-.85-6.33-4.57-13.62-8.01-13.61-3.09,0-6.29,5.9-6.8,11.28-.7,7.42,3.96,11.22,1.87,14.91-1.65,2.92-5.18,1.64-9.64,3.93-7.21,3.71-10.06,19.13-10.06,19.13Z" fill="#f26722"/>
          <path d="M123.65,285.95l69.8,1.46s-.26-3.77-.55-6.57c-1.52-14.49-3.2-30.54-10.44-35.75-5.02-3.61-8.39,1.07-11.54-2.92-3.61-4.58-.07-11.9-1.65-24.08-1.48-11.46-7.12-24.4-12.09-24.08-4.46.29-8.83,11.3-9.34,21.16-.71,13.59,6.15,20.09,3.3,26.99-2.26,5.46-7.4,3.45-13.74,8.03-10.24,7.4-13.74,35.75-13.74,35.75Z" fill="#fcb017"/>
          <path d="M136.09,284.15l48.34,3.16s-.12-2.07-.28-3.62c-.83-8-1.75-16.85-6.69-19.95-3.42-2.15-5.83.3-7.95-1.99-2.43-2.63.13-6.52-.78-13.25-.85-6.33-4.57-13.62-8.01-13.61-3.09,0-6.29,5.9-6.8,11.28-.7,7.42,3.96,11.22,1.87,14.91-1.65,2.92-5.18,1.64-9.64,3.93-7.21,3.71-10.06,19.13-10.06,19.13Z" fill="#f26722"/>
        </g>
        <g id="Villain">
          <g id="Layer_205" data-name="Layer 205">
            <path d="M100.25,274.85c-.14-.89-.53-11.55.85-14.57l1.54-3.97c.6-1.18,1.52-1.84,2.47-1.76,1.52.12,3.74.54,4.79,1.94.38.51,1.04,1.06,1.04,1.06,0,0-.13-1.82-.47-3.49-1.18-5.69-.66-6.21-1.51-8.8-.46-1.4-1.29-3.91-2.93-5.16-2.64-2.01-6.53-1.21-6.53-1.21,0,0-.43-1.18-1.14-3.95,0,0-.89-3.51-2.56-7.89-1.09-2.87-2.31-6.09-4.64-8.95-.84-1.03-2.8-3.4-5.77-4.4-2.73-.92-4.91-.22-6.53.3-1.29.41-3.02.97-4.92,2.73-2.41,2.23-3.73,5.15-5.02,8.04-3.03,6.83-4.54,12.45-4.54,12.45,0,0-2.91,1.91-5.3,5.46-1.7,2.53-2.59,5.03-3.6,7.89-1.44,4.08-2.46,10.93-2.46,10.93,0,0,.92-1.01,2.65-2.73,1.46-1.46,4.13-4.13,6.82-3.04.31.13,2.38.97,3.03,3.64.14.6.18,1.14.19,1.52l-.76,13.96" fill="#d2d2d2" stroke="#231f20" stroke-miterlimit="10"/>
            <line x1="64.94" y1="274.85" x2="100.25" y2="274.85" fill="#d2d2d2" stroke="#231f20" stroke-miterlimit="10"/>
            <path d="M72.18,274.58l-7.24.28c-.92,2.52-2.05,5.85-3.22,9.87-.16.55-2.5,8.66-3.98,16.85-2.79,15.44-2.54,31.33-2.37,37.19l-.85,75.28h55.34c-.16-4.04-.43-10.1-.88-17.45-.94-15.34-1.55-18.25-1.77-26.71-.16-6.37.18-12.9.88-25.7,1.16-21.14,2.18-19.55,1.89-29.55-.5-17.81-1.75-25.1-3.79-28.33-1.17-1.87-5.15-10.68-5.96-11.43l-2.47-.5" fill="#4f459c" stroke="#231f20" stroke-miterlimit="10"/>
            <rect x="70.56" y="236.35" width="7.28" height="10.2" fill="#444d54" stroke="#231f20" stroke-miterlimit="10"/>
            <rect x="86.86" y="236.35" width="7.28" height="10.2" fill="#444d54" stroke="#231f20" stroke-miterlimit="10"/>
            <rect x="72.38" y="241.11" width="3.63" height="1.61" transform="translate(-167.72 316.11) rotate(-90)" fill="#fff" stroke="#231f20" stroke-miterlimit="10"/>
            <polygon points="91.31 239.88 91.11 243.5 89.5 243.42 89.7 239.8 91.31 239.88" fill="#fff" stroke="#231f20" stroke-miterlimit="10"/>
            <polyline points="92.5 413.22 87.76 361.77 81.33 361.85 85.81 413.95 74.65 413.46 66.71 352.96 67.32 313.27 55.53 315.22 39.11 288.22 56.8 298.44 72.18 274.58 97.78 274.35 108.12 298.44 131.39 287.98 109.08 313.03 100.63 312.78 99.87 351.16" fill="#d2d2d2" stroke="#231f20" stroke-miterlimit="10"/>
            <polyline points="92.5 413.22 106.21 413.22 99.87 351.16 100.03 350.42" fill="#d2d2d2" stroke="#231f20" stroke-miterlimit="10"/>
            <path d="M77.53,256.46c1.39,1.84,2.55,2.29,3.35,2.37,1.28.13,1.7-.66,3.23-.55,1.54.12,3.22,1.1,3.23,2.01,0,.82-1.35,1.38-1.79,1.64-2.64,1.57-5.18-.18-5.98-.73-1.8-1.24-2.95-3.12-3.59-4.38l1.55-.36Z" fill="#fff" stroke="#231f20" stroke-miterlimit="10" stroke-width=".75"/>
          </g>
        </g>
        <g id="Person">
          <path d="M353.59,325.59c.55,1.38,1.82,3.82,1.8,5.54-.09,6.54.28,4.2-.89,7.64l-2.87,1.5-27.29,16.62" fill="#f3ae62" stroke="#231f20" stroke-miterlimit="10"/>
          <path d="M356.07,228.27c1.08.66,2.47,1.59,3.85,2.78.46.4,2.02,1.77,3.55,3.88.8,1.1,2.71,3.96,3.47,7.83.81,4.1-.02,7.58-1.12,10.16l-.15.29s-2.1,12.21-2.21,12.44c-.26.53-.54.93-.66,1.09-.8,1.06-2.4,1.84-3.7,2.48-.32.16-1,.48-2.06.63-.32.04-.48.07-.61.05-.99-.15-1.22-1.73-1.6-3.56-.24-1.18-.58-2.35-.82-3.53-.31-1.56-1.26-3.34-3.16-6.89-2.13-3.99-3.23-6-4.55-6.78-.26-.15-1.19-.66-1.47-1.42-.23-.62.08-1.11.27-1.4,1.31-1.98,1.97-2.97,3.82-4.09,1.81-1.1,2.45-.95,5.66-2.74,1.38-.77,1.17-.78,1.48-1.46.16-.34.72-1.5.81-3.52.09-2.14.34-3.8-.63-5.21l-.19-1.03Z" fill="#905f26" stroke="#231f20" stroke-miterlimit="10" stroke-width=".5"/>
          <g>
            <g>
              <path d="M359.96,414.32l-38.94-.11.34-4.51,2.97-54.53,30.35-17.34c-.92,4.17,4.26,40.27,5.05,51.05.43,6.04.79,14.77.23,25.44Z" fill="#f9ed30"/>
              <polygon points="325.59 324.68 319.46 414.5 289.43 414.3 299.54 347.54 325.59 324.68" fill="#f9ed30"/>
            </g>
            <g>
              <polygon points="299.54 347.54 289.43 414.3 319.46 414.5 325.59 324.68 299.54 347.54" fill="none" stroke="#231f20" stroke-miterlimit="10"/>
              <path d="M321.02,414.21l38.94.11c.56-10.67.2-19.39-.23-25.44-.79-10.78-5.97-46.89-5.05-51.05l-30.35,17.34-2.97,54.53-.34,4.51Z" fill="none" stroke="#231f20" stroke-miterlimit="10"/>
            </g>
          </g>
          <path d="M366.94,242.76c-.35-.18-1.32-.69-1.95-.98-1.29-.6-1.55-.63-1.73-.63-.95,0-1.67.73-2.03,1.09-1.22,1.24-1.35,2.85-1.4,3.44-.05.65-.12,1.43.29,2.25.41.84,1.08,1.24,1.53,1.51.94.57,1.8.67,2.59.76.62.07,1.32.08,2.42-.11l.26-1.65.33-2.47-.3-3.22Z" fill="#fff" opacity=".96" stroke="#231f20" stroke-miterlimit="10" stroke-width=".5"/>
          <g>
            <g>
              <path d="M359.54,274.57c-.06,1.46-.27,2.16-1.56,6.71-1.86,6.64-2.79,9.95-2.86,10.31-1.17,6.14-.76,11.48-.5,14.51.17,2.07.24,1.62.39,3.52,0,.04,0,.07,0,.11l-.78.04c-.36-4-2.72-7.23-5.32-10.8-2.31-3.16-2.89-3.06-3.42-4.66-.3-.92-.85-3.2,2.61-10.26,2.86-5.84,4.31-6.48,5.35-10.6.5-1.98,1.04-4.08.55-6.79-.55-3-1.85-3.95-2.91-6.67-.19-.5-.38-1.07-.55-1.72-.01-.07-.03-.14-.05-.2-.52-2.06-1.05-4.14-.31-6.73.05-.17.23-.76.57-1.5,0,0,.08-.19.26-.51,0,.27.03.63.22,1.01.55,1.07,1.86,1.39,2.62,1.75,1.2.58,1.85,1.72,3.18,7.63.51,2.27.84,4,1.12,5.49,1.4,7.41,1.44,8.37,1.4,9.36Z" fill="#fff"/>
              <path d="M355.01,309.73c.41,4.87.83,10.36-1.42,15.86-.01.02-1.55,2.6-4.64,7.75-2.87,4.79-3.82,6.39-3.72,8.78.05,1.1.71,2.72,2.01,5.93,1.82,4.45,2.46,5.39,2.94,6.73,1.33,3.62-.65,8.8-4.63,19.04-2.45,6.3-3.12,7.13-3.05,9.63.09,3.18,1.24,5.03,1.31,9.44.03,2.56-.33,4.67-.64,6.06l-11.35,6.15c.27-2.16.54-5.39.3-9.29-.53-8.58-2.83-9.93-1.58-14.12,1.25-4.17,3.8-3.66,9.03-11.59,2.24-3.4,3.35-5.1,4.03-7.66,1.29-4.87.11-9.09-1.27-13.79-2.02-6.89-3.62-6.74-3.52-10.21.14-4.74,3.25-8.52,6.2-12.13,3.48-4.25,5.19-4.52,7.14-8.26.89-1.7,2.39-4.58,2.06-8.27l.78-.04Z" fill="#fff"/>
              <path d="M354.23,309.78c.33,3.69-1.17,6.57-2.06,8.27-1.95,3.74-3.66,4-7.14,8.26-2.95,3.61-6.06,7.39-6.2,12.13-.1,3.46,1.5,3.32,3.52,10.21,1.38,4.71,2.56,8.92,1.27,13.79-.68,2.56-1.79,4.26-4.03,7.66-5.22,7.93-7.77,7.41-9.03,11.59-1.25,4.18,1.05,5.53,1.58,14.12.24,3.9-.02,7.13-.3,9.29l-5.62-.56-2.95-.19c-.55-2.22-1.29-5.41-2.08-9.28-1.13-5.52-1.69-8.32-1.68-10.63,0-2.97.48-7.33,2.62-12.07,1.25-2.76,1.5-2.19,3.12-5.41,1.54-3.06,4.22-8.52,3.69-14.96-.27-3.42-1.1-2.72-1.53-6.47-.71-6.27,1.21-11.28,2.44-14.35,1.29-3.24,1.46-2.43,5.08-9.6,2.74-5.44,4.11-8.2,4.44-10.76.29-2.3.26-6.17-2.32-11.12-.52-1.92-1.07-4.63-1.12-7.89-.04-2.19-.07-6.92,2.22-12.33,2.12-4.97,3.73-4.7,4.86-9.04.87-3.38.66-6.5.5-8.83-.27-3.81-.84-3.97-1.13-7.09l6.63.15c.05.46.18.91.37,1.35l1.68,3.99h.04c1.07,2.71,2.37,3.66,2.91,6.66.49,2.71-.04,4.81-.55,6.79-1.04,4.11-2.49,4.76-5.35,10.6-3.46,7.07-2.91,9.34-2.61,10.26.53,1.6,1.11,1.5,3.42,4.66,2.6,3.57,4.96,6.8,5.32,10.8Z" fill="#fff"/>
              <path d="M350.99,249.32c-.17.32-.26.51-.26.51-.34.74-.51,1.33-.57,1.5-.73,2.58-.2,4.67.31,6.73.02.07.04.13.05.2.17.65.36,1.22.55,1.72h-.04s-1.68-3.98-1.68-3.98c-.19-.44-.31-.89-.37-1.35-.02-.16-.02-.31-.03-.46,0-1.09.1-2.38.45-3.8.21-.81.68-2.46,1.81-4.36.7-1.16,1.39-1.97,2.75-3.54,2.81-3.25,3.12-3,4.03-4.46,1.08-1.74,1.36-3.27,1.76-5.52.47-2.65.71-3.98.23-5.51-.8-2.58-2.85-4.15-4.84-5.67-1.57-1.2-2.57-1.57-3.38-1.75-1.34-.31-4.44.79-4.29.57.01-.01.03-.03.06-.05,1.05-.73,2.9-1.34,3.65-1.45,5.16-.69,9.45,4.02,9.73,4.34,4.7,5.29,2.46,12.86.19,16.03-1.63,2.26-4,4.17-4,4.17-1.1.87-1.51,1.04-2.15,1.48,0,0-.29.21-.6.46-1.78,1.43-2.91,3.29-3.39,4.17Z" fill="#fff"/>
              <path d="M360.02,227.01c.48,1.53.24,2.86-.23,5.51-.4,2.25-.68,3.78-1.76,5.52-.91,1.45-1.23,1.2-4.03,4.46-1.36,1.57-2.06,2.39-2.75,3.54-1.13,1.9-1.6,3.55-1.81,4.36-.35,1.42-.46,2.71-.45,3.8,0,.15,0,.3.03.46l-6.63-.15c-.51-5.64.92-10.32,1.82-13.3.94-3.09,1.43-6.3,2.67-9.3.41-.96,1.01-2.29.48-3.74-.4-1.09-1.65-2.86-1.8-3.07-.42-.58-.89-1.17-.81-1.96.02-.28.11-.52.21-.72.09-.18.19-.33.25-.41.11-.14.29-.36,1.36-1.15.09-.07.2-.15.31-.23l.64-.45h0c-.14.22,2.96-.88,4.29-.57.81.18,1.81.55,3.38,1.75,1.99,1.52,4.04,3.09,4.84,5.67Z" fill="#fff"/>
              <path d="M337.03,299.69c2.58,4.95,2.61,8.82,2.32,11.12-.32,2.55-1.7,5.32-4.44,10.76-3.62,7.17-3.79,6.36-5.08,9.6-1.23,3.06-3.15,8.08-2.44,14.35.43,3.75,1.26,3.05,1.53,6.47.53,6.44-2.15,11.9-3.69,14.96-1.62,3.22-1.86,2.65-3.12,5.41-2.14,4.74-2.61,9.1-2.62,12.07,0,2.3.56,5.11,1.68,10.63.8,3.87,1.54,7.06,2.08,9.28l-5.5-5.09h.26c.25-2.69-.25-4.65-.77-5.96-.49-1.22-1.09-2.1-1.85-4.2,0,0-.58-1.56-.95-3.14-.43-1.82-.95-5.56.96-12.8.3-1.14.53-1.85.71-2.39.43-1.17.7-1.54,1.35-3.99,2.06-7.74,1.78-13.55,1.63-15.58-.19-2.69-.4-1.93-.64-4.86-.3-3.78-.7-9.41,1.62-15.47,1.13-2.92,1.43-2.15,2.89-5.65.78-1.87,2.61-6.38,2.8-12.09.19-6.25-1.81-6.94-1.09-12.65.38-3.08.99-3.1,2.21-7.78,1.54-5.9,1.82-10.63,2.08-15,.45-7.65-.33-9.18,1.07-13.89.79-2.66.9-1.71,2.74-6.64,2.55-6.87,3.84-10.3,4.07-14.5.08-1.49.04-3.13.82-5.39.73-2.12,1.32-2.28,1.71-4.21.29-1.48.1-2.08.37-4.78.12-1.13.97-2.66.36-2.66.57-.71.79-1.4.88-1.9.44-.23.93-.44,1.43-.66.87-.38,1.65-.61,2.2-.75l.3.09c-.09.2-.18.44-.21.72-.07.79.39,1.38.81,1.96.15.21,1.4,1.98,1.8,3.07.52,1.45-.08,2.78-.48,3.74-1.24,3.01-1.73,6.22-2.67,9.3-.91,2.98-2.33,7.66-1.82,13.3.28,3.12.86,3.28,1.13,7.09.16,2.33.37,5.45-.5,8.83-1.13,4.34-2.74,4.07-4.86,9.04-2.29,5.41-2.26,10.14-2.22,12.33.05,3.25.6,5.96,1.12,7.89Z" fill="#fff"/>
              <path d="M345.17,219.27l2.32.89-.64.45c-.11.08-.22.16-.31.23l-.04-.04c-.93-.49-2.73-.74-4.58-.83-.19-.02-1.15-.06-2.3.01-3.35.22-6.37,1.32-8.62,2.09-5.99,2.06-5.31,1.36-7.37,2.31-5.25,2.43-8,6.23-9.53,8.34-2.52,3.48-3.51,6.57-4.25,8.91-.32,1.04-.67,2.3-1.65,9.69-.72,5.4-1.21,9.07-1.63,14.27-.31,3.85-.47,5.78-.49,8.25-.03,5.36.5,6.53.25,9.85-.29,3.76-1.31,6.45-2.57,9.66-.72,1.08-1.33,2-1.7,3.89-2.31,4.65-4.12,5.75-5.84,11.12-1.28,4.01-1.51,7.28-1.75,10.55-.34,4.96.03,8.95.41,13.13.58,6.34,1.1,6.67,1.06,10.47,0,1.12-.09,5.04-1.31,10.14-1.81,7.57-3.77,7.97-4.07,13.3-.06.97.2,3.62.72,8.91.29,2.97.53,4.91.77,8.36.23,3.24.35,4.89.22,6.46-.26,3.08-1.11,5.58-1.82,7.23l-2.38.05c.04-1.99.02-4.9-.26-8.43-.09-1.02-.27-3.03-.67-5.74-1.58-10.6-3.6-12.26-2.86-17.72.44-3.24,1.6-6.03,1.67-6.19.65-1.55,1.11-2.15,2.85-5.32,1.87-3.38,2.79-5.07,3.02-5.74.93-2.68.87-5.04.77-9.75-.05-2.2-.19-3.12-.27-3.52-.5-2.87-1.53-4.49-2.17-5.97-1.3-3.02-.87-6.35-.04-13,.45-3.58.67-5.36,1.24-7,1.87-5.38,4.77-7.03,8.26-14.46,0,0,.72-1.52,1.52-3.58,4.42-11.31,1.65-21.01,3.47-37.91.1-.94.58-5.3,2.03-10.85,1.25-4.81,2.37-7.25,2.92-8.37,1.17-2.42,2.34-4.81,4.85-7.44,3.49-3.65,7.3-5.38,8.12-5.74.99-.44,4.36-1.85,9.15-2.26,3.94-.34,7.18.14,9.23.59l4.25.7Z" fill="#fff"/>
              <path d="M341.01,223.73c-.67.35-1.25.75-1.74,1.32-.17.2-.31.39-.41.58-8.84-.22-11.97-3.65-14.77,1.96-2.93,5.86-5.13,8.24-6.23,10.9-1.09,2.65-1.83,1.56-2.93,7.79-1.1,6.23-1.83,4.76-1.83,9.15,0,4.4-3.67,8.8-4.03,12.46-.37,3.66-.73,3.3-.37,8.43.36,5.13,0,2.93-2.2,10.99-.92,3.37-1.9,4.82-2.73,6.06,1.26-3.21,2.28-5.9,2.57-9.66.26-3.32-.28-4.49-.25-9.85.02-2.47.17-4.4.49-8.25.42-5.2.9-8.87,1.63-14.27.98-7.38,1.32-8.65,1.65-9.69.74-2.34,1.73-5.43,4.25-8.91,1.53-2.11,4.28-5.91,9.53-8.34,2.05-.95,1.38-.25,7.37-2.31,2.25-.77,5.27-1.87,8.62-2.09,1.15-.07,2.11-.03,2.3-.01,1.85.09,3.65.33,4.58.83l.04.04c-1.07.79-1.26,1.01-1.36,1.15-.05.08-.15.23-.25.41l-.3-.09c-.55.14-1.33.38-2.2.75-.5.22-.99.43-1.43.66Z" fill="#fff"/>
              <path d="M341.01,223.73c-.09.5-.31,1.2-.88,1.9-.44,0-.87,0-1.28,0,.1-.18.24-.38.41-.58.5-.57,1.07-.97,1.74-1.32Z" fill="#fff"/>
              <path d="M340.13,225.63c.61,0-.24,1.53-.36,2.66-.27,2.69-.08,3.3-.37,4.78-.39,1.94-.98,2.09-1.71,4.21-.78,2.26-.74,3.9-.82,5.39-.23,4.2-1.51,7.63-4.07,14.5-1.83,4.93-1.95,3.99-2.74,6.64-1.39,4.7-.62,6.24-1.07,13.89-.26,4.36-.55,9.1-2.08,15-1.22,4.68-1.84,4.7-2.21,7.78-.72,5.71,1.28,6.41,1.09,12.65-.18,5.71-2.02,10.22-2.8,12.09-1.46,3.5-1.76,2.72-2.89,5.65-2.32,6.06-1.92,11.7-1.62,15.47.24,2.93.45,2.18.64,4.86.15,2.02.43,7.83-1.63,15.58-.66,2.45-.93,2.82-1.35,3.99l-.93-.18c.72-2.15,1.1-6.13.2-16-.71-7.82-1.06-6.57-1.16-10-.15-5.33.74-7.22,3.36-20.74,1.4-7.17,2.09-10.76,2.19-12.77.24-5.23-.43-7.88-.11-15.88.12-3.16.18-4.74.45-6.8,1.23-9.3,4.24-10.38,6.45-20.25,1.48-6.59,2.22-9.88,1.9-14.04-.09-1.15-.32-3.18.36-5.79.74-2.88,2.24-5.11,3.13-6.42,1.39-2.03,3.43-4.43,4.02-5.11,1.71-2.01,1.99-2.14,2.26-2.93.55-1.67-.14-2.8.3-5.29.12-.72.33-1.47.9-2.18.25-.3.41-.42.67-.74Z" fill="#fff"/>
              <path d="M340.13,225.63c-.26.33-.43.44-.67.74-.58.71-.78,1.46-.9,2.18-.44,2.49.25,3.62-.3,5.29-.27.8-.55.92-2.26,2.93-.59.68-2.63,3.08-4.02,5.11-.89,1.31-2.39,3.54-3.13,6.42-.68,2.61-.45,4.64-.36,5.79.32,4.15-.42,7.45-1.9,14.04-2.21,9.87-5.23,10.95-6.45,20.25-.27,2.07-.34,3.64-.45,6.8-.32,8,.36,10.65.11,15.88-.1,2.01-.79,5.6-2.19,12.77-2.62,13.52-3.51,15.41-3.36,20.74.09,3.43.45,2.18,1.16,10,.89,9.87.51,13.85-.2,16-.24.7-.52,1.22-.8,1.67-1.2,1.96-2.48,2.99-3.87,6.14-.89,2-1.85,4.26-1.41,7.01.34,2.17,1.21,2.54,1.87,4.82.49,1.69.79,4.15-.18,7.41l-10.43-.91c2.44-5.73,3.39-10.67,3.78-14.16.18-1.61.4-3.64.32-6.26l.63-1.23c1.58-3.18,2.49-5.87,3.02-7.74.67-2.36,1.09-5.21,1.9-10.83.59-4.14.89-6.22.98-7.77.05-.93.02-.69-.3-10.14-.06-1.95-.11-3.52-.77-5.6-.52-1.64-1.21-2.93-1.72-3.79h-.07c0-1.14-.06-2.62-.22-4.62-.9-11.55-2.83-12.13-2.44-17.97.36-5.36,2.31-9.72,3.95-13.41,2.18-4.9,3.72-6.35,5.07-11.13.71-2.49.91-4.8,1.33-9.42.02-.15.02-.29.04-.43h0s.82-1.39.82-1.39c1.23-1.77,2.66-4.09,3.95-6.94.51-1.11,1.37-3.03,2.01-5.36,1.74-6.37-.23-8.39,1.51-15.16.85-3.29,1.83-4.83,2.17-5.34,1.1-1.64,2.38-2.81,4.95-5.17,1.52-1.39,2.95-2.55,3.54-3.04,1.05-.86,1.98-1.57,2.69-2.1.86-.46.73-1.16,1.31-2.11.41.01.84.02,1.28,0Z" fill="#fff"/>
              <path d="M304.48,376.33c.08,2.61-.14,4.64-.32,6.26-.39,3.49-1.34,8.43-3.78,14.16l-5.23.1v-.34s1.09-8.07,1.09-15.76c0-7.69.36-2.93.37-11.36,0-8.43,0-1.84.37-6.96.36-5.13,0-1.84,1.1-8.43,1.1-6.6.37-2.57.37-4.76,0-2.2,2.56-22.72,2.2-32.61-.36-9.89,1.1-5.13,1.1-14.65,0-2.09.12-3.57.34-4.71.5-.99,1.01-2.14,1.56-3.53.05-.12.1-.24.14-.36.83-1.24,1.81-2.69,2.73-6.06,2.2-8.06,2.56-5.86,2.2-10.99-.37-5.13,0-4.77.37-8.43.37-3.66,4.03-8.06,4.03-12.46,0-4.39.73-2.92,1.83-9.15,1.1-6.23,1.84-5.13,2.93-7.79,1.1-2.66,3.3-5.04,6.23-10.9,2.8-5.6,5.94-2.18,14.77-1.96-.58.95-.45,1.65-1.31,2.11-.77.41-1.58.22-2.31.16-3.08-.21-5.77,2.03-7.77,3.69-.68.56-1.98,1.73-4.28,5.23-1.88,2.86-3.79,5.75-5.08,9.53-.83,2.44-1.04,5.41-1.44,11.23-.48,7.25-.27,8.91-.78,14.64-.01.14-.02.28-.04.43-.42,4.62-.62,6.93-1.33,9.42-1.34,4.78-2.89,6.23-5.07,11.13-1.65,3.69-3.6,8.06-3.95,13.41-.39,5.84,1.54,6.42,2.44,17.97.16,2,.22,3.48.22,4.62,0,1.38-.07,2.28-.17,3.03-.57,4.6-1.75,5.24-3.36,10.99-.38,1.36-1.83,6.76-2.04,13.8-.05,1.23-.1,3.53.16,6.56.46,5.29,1.4,7,1.68,11.57.02.39.04.77.06,1.15Z" fill="#fff"/>
              <path d="M335.23,227.9c.73.06,1.53.24,2.31-.16-.7.53-1.63,1.24-2.69,2.1-.6.49-2.03,1.64-3.54,3.04-2.57,2.36-3.85,3.53-4.95,5.17-.34.51-1.33,2.05-2.17,5.34-1.74,6.77.24,8.79-1.51,15.16-.63,2.33-1.5,4.25-2.01,5.36-1.29,2.84-2.72,5.17-3.95,6.94l-.82,1.39h0c.51-5.73.29-7.4.78-14.64.4-5.82.61-8.79,1.44-11.23,1.29-3.78,3.19-6.68,5.08-9.53,2.3-3.5,3.6-4.67,4.28-5.23,2-1.66,4.69-3.91,7.77-3.69Z" fill="#fff"/>
              <path d="M311.01,348.75c-.09,1.56-.39,3.63-.98,7.77-.81,5.62-1.23,8.48-1.9,10.83-.53,1.87-1.43,4.56-3.02,7.74l-.63,1.23c-.02-.37-.03-.76-.06-1.15-.28-4.57-1.22-6.28-1.68-11.57-.26-3.03-.2-5.33-.16-6.56.21-7.04,1.66-12.44,2.04-13.8,1.6-5.76,2.78-6.39,3.36-10.99.1-.75.17-1.65.17-3.03h.07c.51.85,1.2,2.14,1.72,3.79.65,2.08.7,3.65.77,5.6.32,9.45.35,9.22.3,10.14Z" fill="#fff"/>
              <path d="M295.14,396.5v.34s-4.67.09-4.67.09c.71-1.65,1.57-4.15,1.82-7.23.13-1.57.01-3.23-.22-6.46-.24-3.45-.48-5.39-.77-8.36-.52-5.29-.78-7.94-.72-8.91.3-5.33,2.26-5.73,4.07-13.3,1.22-5.11,1.31-9.02,1.31-10.14.04-3.8-.48-4.13-1.06-10.47-.39-4.18-.76-8.17-.41-13.13.23-3.27.46-6.54,1.75-10.55,1.72-5.37,3.52-6.46,5.84-11.12-.21,1.14-.34,2.62-.34,4.71,0,9.52-1.46,4.76-1.1,14.65.36,9.89-2.2,30.41-2.2,32.61,0,2.19.73-1.84-.37,4.76-1.1,6.6-.73,3.3-1.1,8.43-.37,5.13-.36-1.47-.37,6.96,0,8.42-.37,3.66-.37,11.36,0,7.69-1.1,15.76-1.1,15.76Z" fill="#fff"/>
              <path d="M303.77,293.36c-.04.12-.09.24-.14.36-.54,1.39-1.05,2.54-1.56,3.53.37-1.89.97-2.81,1.7-3.89Z" fill="#fff"/>
            </g>
            <g>
              <path d="M326.22,404.52l5.62.56c.27-2.16.54-5.39.3-9.29-.53-8.58-2.83-9.93-1.58-14.12,1.25-4.17,3.8-3.66,9.03-11.59,2.24-3.4,3.35-5.1,4.03-7.66,1.29-4.87.11-9.09-1.27-13.79-2.02-6.89-3.62-6.74-3.52-10.21.14-4.74,3.25-8.52,6.2-12.13,3.48-4.25,5.19-4.52,7.14-8.26.89-1.7,2.39-4.58,2.06-8.27-.36-4-2.72-7.23-5.32-10.8-2.31-3.16-2.89-3.06-3.42-4.66-.3-.92-.85-3.2,2.61-10.26,2.86-5.84,4.31-6.48,5.35-10.6.5-1.98,1.04-4.08.55-6.79-.55-3-1.85-3.95-2.91-6.67-.19-.5-.38-1.07-.55-1.72-.01-.07-.03-.14-.05-.2-.52-2.06-1.05-4.14-.31-6.73.05-.17.23-.76.57-1.5,0,0,.08-.19.26-.51.48-.88,1.61-2.74,3.39-4.17.31-.26.6-.46.6-.46.64-.44,1.05-.61,2.15-1.48,0,0,2.38-1.91,4-4.17,2.27-3.17,4.51-10.74-.19-16.03-.28-.33-4.57-5.03-9.73-4.34-.75.1-2.61.72-3.65,1.45-.03.02-.05.04-.06.05-.14.22,2.96-.88,4.29-.57.81.18,1.81.55,3.38,1.75,1.99,1.52,4.04,3.09,4.84,5.67.48,1.53.24,2.86-.23,5.51-.4,2.25-.68,3.78-1.76,5.52-.91,1.45-1.23,1.2-4.03,4.46-1.36,1.57-2.06,2.39-2.75,3.54-1.13,1.9-1.6,3.55-1.81,4.36-.35,1.42-.46,2.71-.45,3.8,0,.15,0,.3.03.46.05.46.18.91.37,1.35l1.68,3.99" fill="none" stroke="#231f20" stroke-linecap="round" stroke-linejoin="round" stroke-width=".5"/>
              <path d="M350.99,249.22s0,.06,0,.1c0,.27.03.63.22,1.01.55,1.07,1.86,1.39,2.62,1.75,1.2.58,1.85,1.72,3.18,7.63.51,2.27.84,4,1.12,5.49,1.4,7.41,1.44,8.37,1.4,9.36-.06,1.46-.27,2.16-1.56,6.71-1.86,6.64-2.79,9.95-2.86,10.31-1.17,6.14-.76,11.48-.5,14.51.17,2.07.24,1.62.39,3.52,0,.04,0,.07,0,.11.41,4.87.83,10.36-1.42,15.86-.01.02-1.55,2.6-4.64,7.75-2.87,4.79-3.82,6.39-3.72,8.78.05,1.1.71,2.72,2.01,5.93,1.82,4.45,2.46,5.39,2.94,6.73,1.33,3.62-.65,8.8-4.63,19.04-2.45,6.3-3.12,7.13-3.05,9.63.09,3.18,1.24,5.03,1.31,9.44.03,2.56-.33,4.67-.64,6.06l-11.35,6.15" fill="none" stroke="#231f20" stroke-linecap="round" stroke-linejoin="round" stroke-width=".5"/>
              <path d="M317.54,399.04l.23.21,5.5,5.09c-.55-2.22-1.29-5.41-2.08-9.28-1.13-5.52-1.69-8.32-1.68-10.63,0-2.97.48-7.33,2.62-12.07,1.25-2.76,1.5-2.19,3.12-5.41,1.54-3.06,4.22-8.52,3.69-14.96-.27-3.42-1.1-2.72-1.53-6.47-.71-6.27,1.21-11.28,2.44-14.35,1.29-3.24,1.46-2.43,5.08-9.6,2.74-5.44,4.11-8.2,4.44-10.76.29-2.3.26-6.17-2.32-11.12-.52-1.92-1.07-4.63-1.12-7.89-.04-2.19-.07-6.92,2.22-12.33,2.12-4.97,3.73-4.7,4.86-9.04.87-3.38.66-6.5.5-8.83-.27-3.81-.84-3.97-1.13-7.09-.51-5.64.92-10.32,1.82-13.3.94-3.09,1.43-6.3,2.67-9.3.41-.96,1.01-2.29.48-3.74-.4-1.09-1.65-2.86-1.8-3.07-.42-.58-.89-1.17-.81-1.96.02-.28.11-.52.21-.72.09-.18.19-.33.25-.41.11-.14.29-.36,1.36-1.15.09-.07.2-.15.31-.23l.64-.45-2.32-.89-4.25-.7c-2.06-.45-5.3-.93-9.23-.59-4.79.41-8.16,1.83-9.15,2.26-.82.36-4.63,2.09-8.12,5.74-2.51,2.63-3.68,5.02-4.85,7.44-.54,1.12-1.67,3.56-2.92,8.37-1.44,5.56-1.93,9.91-2.03,10.85-1.82,16.9.95,26.61-3.47,37.91-.81,2.06-1.52,3.58-1.52,3.58-3.49,7.43-6.39,9.08-8.26,14.46-.57,1.64-.79,3.42-1.24,7-.84,6.65-1.26,9.97.04,13,.64,1.49,1.67,3.1,2.17,5.97.08.4.22,1.32.27,3.52.1,4.71.16,7.08-.77,9.75-.23.67-1.16,2.36-3.02,5.74-1.74,3.17-2.19,3.77-2.85,5.32-.07.16-1.23,2.95-1.67,6.19-.74,5.46,1.27,7.11,2.86,17.72.4,2.71.58,4.72.67,5.74.29,3.53.31,6.44.26,8.43l2.38-.05,4.68-.09,5.23-.1c2.44-5.73,3.39-10.67,3.78-14.16.18-1.61.4-3.64.32-6.26-.02-.37-.03-.76-.06-1.15-.28-4.57-1.22-6.28-1.68-11.57-.26-3.03-.2-5.33-.16-6.56.21-7.04,1.66-12.44,2.04-13.8,1.6-5.76,2.78-6.39,3.36-10.99.1-.75.17-1.65.17-3.03,0-1.14-.06-2.62-.22-4.62-.9-11.55-2.83-12.13-2.44-17.97.36-5.36,2.31-9.72,3.95-13.41,2.18-4.9,3.72-6.35,5.07-11.13.71-2.49.91-4.8,1.33-9.42.02-.15.02-.29.04-.43.51-5.73.29-7.4.78-14.64.4-5.82.61-8.79,1.44-11.23,1.29-3.78,3.19-6.68,5.08-9.53,2.3-3.5,3.6-4.67,4.28-5.23,2-1.66,4.69-3.91,7.77-3.69.73.06,1.53.24,2.31-.16.86-.46.73-1.16,1.31-2.11.1-.18.24-.38.41-.58.5-.57,1.07-.97,1.74-1.32.44-.23.93-.44,1.43-.66.87-.38,1.65-.61,2.2-.75" fill="none" stroke="#231f20" stroke-linecap="round" stroke-linejoin="round" stroke-width=".5"/>
              <path d="M337.54,227.74c-.7.53-1.63,1.24-2.69,2.1-.6.49-2.03,1.64-3.54,3.04-2.57,2.36-3.85,3.53-4.95,5.17-.34.51-1.33,2.05-2.17,5.34-1.74,6.77.24,8.79-1.51,15.16-.63,2.33-1.5,4.25-2.01,5.36-1.29,2.84-2.72,5.17-3.95,6.94l-.82,1.39" fill="none" stroke="#231f20" stroke-linecap="round" stroke-linejoin="round" stroke-width=".5"/>
              <path d="M341.02,223.68s0,.04-.01.05c-.09.5-.31,1.2-.88,1.9-.26.33-.43.44-.67.74-.58.71-.78,1.46-.9,2.18-.44,2.49.25,3.62-.3,5.29-.27.8-.55.92-2.26,2.93-.59.68-2.63,3.08-4.02,5.11-.89,1.31-2.39,3.54-3.13,6.42-.68,2.61-.45,4.64-.36,5.79.32,4.15-.42,7.45-1.9,14.04-2.21,9.87-5.23,10.95-6.45,20.25-.27,2.07-.34,3.64-.45,6.8-.32,8,.36,10.65.11,15.88-.1,2.01-.79,5.6-2.19,12.77-2.62,13.52-3.51,15.41-3.36,20.74.09,3.43.45,2.18,1.16,10,.89,9.87.51,13.85-.2,16-.24.7-.52,1.22-.8,1.67-1.2,1.96-2.48,2.99-3.87,6.14-.89,2-1.85,4.26-1.41,7.01.34,2.17,1.21,2.54,1.87,4.82.49,1.69.79,4.15-.18,7.41l-10.43-.91" fill="none" stroke="#231f20" stroke-linecap="round" stroke-linejoin="round" stroke-width=".5"/>
              <path d="M308.22,329.22c.51.86,1.2,2.15,1.72,3.79.65,2.08.7,3.65.77,5.6.32,9.45.35,9.22.3,10.14-.09,1.56-.39,3.63-.98,7.77-.81,5.62-1.23,8.48-1.9,10.83-.53,1.87-1.43,4.56-3.02,7.74l-.63,1.23v.02" fill="none" stroke="#231f20" stroke-linecap="round" stroke-linejoin="round" stroke-width=".5"/>
              <path d="M316.37,399.22l1.4.03h.26c.25-2.69-.25-4.65-.77-5.96-.49-1.22-1.09-2.1-1.85-4.2,0,0-.58-1.56-.95-3.14-.43-1.82-.95-5.56.96-12.8.3-1.14.53-1.85.71-2.39.43-1.17.7-1.54,1.35-3.99,2.06-7.74,1.78-13.55,1.63-15.58-.19-2.69-.4-1.93-.64-4.86-.3-3.78-.7-9.41,1.62-15.47,1.13-2.92,1.43-2.15,2.89-5.65.78-1.87,2.61-6.38,2.8-12.09.19-6.25-1.81-6.94-1.09-12.65.38-3.08.99-3.1,2.21-7.78,1.54-5.9,1.82-10.63,2.08-15,.45-7.65-.33-9.18,1.07-13.89.79-2.66.9-1.71,2.74-6.64,2.55-6.87,3.84-10.3,4.07-14.5.08-1.49.04-3.13.82-5.39.73-2.12,1.32-2.28,1.71-4.21.29-1.48.1-2.08.37-4.78.12-1.13.97-2.66.36-2.66-.44,0-.87,0-1.28,0-8.84-.22-11.97-3.65-14.77,1.96-2.93,5.86-5.13,8.24-6.23,10.9-1.09,2.65-1.83,1.56-2.93,7.79-1.1,6.23-1.83,4.76-1.83,9.15,0,4.4-3.67,8.8-4.03,12.46-.37,3.66-.73,3.3-.37,8.43.36,5.13,0,2.93-2.2,10.99-.92,3.37-1.9,4.82-2.73,6.06-.72,1.08-1.33,2-1.7,3.89-.21,1.14-.34,2.62-.34,4.71,0,9.52-1.46,4.76-1.1,14.65.36,9.89-2.2,30.41-2.2,32.61,0,2.19.73-1.84-.37,4.76-1.1,6.6-.73,3.3-1.1,8.43-.37,5.13-.36-1.47-.37,6.96,0,8.42-.37,3.66-.37,11.36,0,7.69-1.1,15.76-1.1,15.76" fill="none" stroke="#231f20" stroke-linecap="round" stroke-linejoin="round" stroke-width=".5"/>
            </g>
          </g>
          <ellipse cx="365.08" cy="245.63" rx="1.37" ry="1.24" fill="#fff" stroke="#231f20" stroke-miterlimit="10" stroke-width=".5"/>
          <polyline points="364.73 257.72 362.19 259.2 361.6 259.75" fill="none" stroke="#231f20" stroke-miterlimit="10" stroke-width=".5"/>
          <path d="M356.83,286.44l12.78,33.66c7.62,3.44,10.73,3.23,12.09,2.2.33-.25,2.74-2.19,2.75-2.2,1.65.29,2.82,1.74,2.75,3.3-.08,1.84-1.85,3.05-2.61,3-.04,0-.1-.01-.14.03-.34.31,2.19,2.41,1.92,4.4-.16,1.18-1.31,2.36-2.47,2.47-1.72.17-2.2-2.12-4.4-3.3-3.46-1.86-6.59,1.52-10.72.82-3.17-.53-4.96-3.25-7.97-7.42-2.67-3.7-4.13-7.2-4.95-9.62l-.32-.64-.27-3.25-.32-3.71-.37-4.12.05-3.48.92-7.56,1.28-4.58Z" fill="#905f26" stroke="#231f20" stroke-miterlimit="10" stroke-width=".5"/>
          <rect x="295.27" y="414.22" width="17.18" height="3.98" stroke="#231f20" stroke-miterlimit="10"/>
          <rect x="330.45" y="414.91" width="17.18" height="3.98" stroke="#231f20" stroke-miterlimit="10"/>
        </g>
      </g>
    </g>
  </g>
</svg>