<?xml version="1.0" encoding="UTF-8"?>
<svg id="Layer_2" data-name="Layer 2" xmlns="http://www.w3.org/2000/svg" viewBox="0 0 319.35 225.93">
  <g id="outlines">
    <g id="Page_3" data-name="Page 3">
      <g id="Frame_14" data-name="Frame 14">
        <g id="Layer_41" data-name="Layer 41">
          <path d="M59.12,42.26c.28-4.71,1.48-13.86,7.57-22.93,2.45-3.65,13.38-18.73,30.22-18.83,9.4-.05,16.23,4.59,21.41,8.21,17.9,12.52,24.13,32,26.3,40.77l-85.5-7.23Z" fill="#a4a1a1" stroke="#231f20" stroke-miterlimit="10"/>
          <polygon points="24.75 128.55 23.58 163.69 165.47 158.88 167.37 124.03 24.75 128.55" fill="#a4a1a1" stroke="#231f20" stroke-miterlimit="10"/>
          <polygon points="59.12 42.26 53.91 126.9 142.18 125.18 144.62 49.49 59.12 42.26" fill="#706d6d" stroke="#231f20" stroke-miterlimit="10"/>
          <polygon points="56.42 162.27 59.9 181.69 146.15 180.84 146.2 159.91 56.42 162.27" fill="#4c4b4c" stroke="#231f20" stroke-miterlimit="10"/>
          <path d="M48.28,182.45l107.46-1.52c.41,1.09.94,2.83.92,4.98-.02,4.21-2.08,7.47-4.07,10.09-10.35,13.65-19.9,19.22-19.9,19.22-5.95,3.47-28.99,16.88-53.57,6.06-24.06-10.59-30.19-35.88-30.86-38.84" fill="#848484" stroke="#231f20" stroke-miterlimit="10"/>
          <ellipse cx="180.97" cy="139.14" rx="10.44" ry="9.34" transform="translate(-40.03 81.95) rotate(-23.05)" fill="#b7b7b7" stroke="#231f20" stroke-miterlimit="10"/>
          <ellipse cx="10.78" cy="143.45" rx="10.44" ry="9.34" transform="translate(-55.3 15.67) rotate(-23.05)" fill="#b7b7b7" stroke="#231f20" stroke-miterlimit="10"/>
          <rect x="65" y="56.18" width="24.73" height="59.36" transform="translate(3.32 -2.88) rotate(2.18)" fill="#dcdbdb" stroke="#231f20" stroke-miterlimit="10"/>
          <rect x="109.1" y="55.94" width="24.73" height="59.36" transform="translate(3.35 -4.56) rotate(2.18)" fill="#dcdbdb" stroke="#231f20" stroke-miterlimit="10"/>
          <line x1="69.37" y1="55.82" x2="66.72" y2="114.88" fill="#dcdbdb" stroke="#231f20" stroke-miterlimit="10"/>
          <line x1="73.77" y1="56.33" x2="71.12" y2="115.4" fill="#dcdbdb" stroke="#231f20" stroke-miterlimit="10"/>
          <line x1="78.93" y1="56.53" x2="76.28" y2="115.59" fill="#dcdbdb" stroke="#231f20" stroke-miterlimit="10"/>
          <line x1="84.09" y1="56.72" x2="81.44" y2="115.78" fill="#dcdbdb" stroke="#231f20" stroke-miterlimit="10"/>
          <line x1="89.25" y1="56.92" x2="86.6" y2="115.98" fill="#dcdbdb" stroke="#231f20" stroke-miterlimit="10"/>
          <line x1="114.22" y1="55.25" x2="111.57" y2="114.31" fill="#dcdbdb" stroke="#231f20" stroke-miterlimit="10"/>
          <line x1="118.52" y1="55.51" x2="115.87" y2="114.58" fill="#dcdbdb" stroke="#231f20" stroke-miterlimit="10"/>
          <line x1="123.42" y1="55.82" x2="120.77" y2="114.88" fill="#dcdbdb" stroke="#231f20" stroke-miterlimit="10"/>
          <line x1="128.33" y1="56.12" x2="125.68" y2="115.18" fill="#dcdbdb" stroke="#231f20" stroke-miterlimit="10"/>
          <line x1="133.24" y1="56.42" x2="130.59" y2="115.48" fill="#dcdbdb" stroke="#231f20" stroke-miterlimit="10"/>
        </g>
        <g id="new_ship" data-name="new ship">
          <path d="M46.68,139.14l-11.62.42c-.61.02-1.1.32-1.09.66l.41,12.99c.01.35.52.61,1.13.59l11.72-.32" fill="none" stroke="#010101" stroke-linejoin="round" stroke-width="2"/>
          <path d="M50.69,139.22l.42,13.14c.01.35.52.61,1.14.59l7.58-.24c.62-.02,1.11-.32,1.1-.67l-.42-13.14c-.01-.35-.52-.61-1.14-.59l-7.58.24c-.62.02-1.11.32-1.1.67Z" fill="none" stroke="#010101" stroke-linejoin="round" stroke-width="2"/>
          <path d="M90.75,137.38l.42,13.14c.01.35.52.61,1.14.59l7.58-.24c.62-.02,1.11-.32,1.1-.67l-.42-13.14c-.01-.35-.52-.61-1.14-.59l-7.58.24c-.62.02-1.11.32-1.1.67Z" fill="none" stroke="#010101" stroke-linejoin="round" stroke-width="2"/>
          <path d="M65.22,152.89l-.43-13.6c-.01-.35.49-.65,1.11-.67l7.2-.19c.61-.02,1.11.25,1.13.59l.21,4.15c.02.36-.49.66-1.12.67l-7.99.16c-.87.02,9.32,8.75,9.32,8.75" fill="none" stroke="#010101" stroke-linejoin="round" stroke-width="2"/>
          <path d="M106.1,150.94l-.43-13.6c-.01-.35.49-.65,1.11-.67l7.2-.19c.61-.02,1.11.25,1.13.59l.21,4.15c.02.36-.49.66-1.12.67l-7.89.15c-2.07-.21,9.23,8.75,9.23,8.75" fill="none" stroke="#010101" stroke-linejoin="round" stroke-width="2"/>
          <path d="M78.36,152.02l-.62-13.65c-.02-.35.48-.65,1.1-.67l7.49-.24c.61-.02,1.12.24,1.14.59l.21,4.2c.02.36-.5.66-1.13.67l-8.76.13" fill="none" stroke="#010101" stroke-linejoin="round" stroke-width="2"/>
          <path d="M119.6,150.77l2.65-13.79c.06-.32.53-.57,1.09-.59l4.44-.14c.57-.02,1.05.21,1.13.52l3.33,13.65" fill="none" stroke="#010101" stroke-linejoin="round" stroke-width="2"/>
          <line x1="121.36" y1="141.77" x2="129.91" y2="141.61" fill="none" stroke="#010101" stroke-linejoin="round" stroke-width="2"/>
          <line x1="133.28" y1="136.67" x2="146.11" y2="136.32" fill="none" stroke="#010101" stroke-linejoin="round" stroke-width="2"/>
          <line x1="139.4" y1="136.48" x2="139.47" y2="150.78" fill="none" stroke="#010101" stroke-linejoin="round" stroke-width="2"/>
          <path d="M159.53,135.75l-8.31.26c-.62.02-1.11.32-1.1.67l.41,13.03c.01.35.52.61,1.14.59l8.11-.26" fill="none" stroke="#010101" stroke-linejoin="round" stroke-width="2"/>
          <line x1="150.37" y1="141.36" x2="156.39" y2="141.17" fill="none" stroke="#010101" stroke-linejoin="round" stroke-width="2"/>
        </g>
        <g>
          <g>
            <path d="M277.43,47.18l.03-.03c.96-.86,1.79-1.9,2.39-3.19,2.25-.98,4.23-2.99,5.75-5.12-2.12.85-3.63,1.09-4.7.96.23-2.51-.13-5.29-1.44-7.1h0c.02-.06.04-.11.06-.16.42-1.02,1.16-2.35,2.02-3.74l.07.04c2.09-1.33,5.86-4.96,8.44-5.32-.23,1.61-.61,2.77-.83,4.38,1.57-1.05,2.49-2.89,4.19-3.86.7-.66,1.4-1.32,2.11-1.97,3.53-3.28,7.21-6.49,11.45-8.88-2,4.51-4.68,7.84-7.37,11.22-.54.68-1.08,1.36-1.62,2.06.66-.14,1.32-.38,1.98-.66.66-.29,1.32-.62,1.99-.95,2.66-1.32,5.4-2.59,8.41-.54-1.69,1.85-3.29,3.67-5.01,5.28-.57.53-1.16,1.05-1.77,1.53-1.35,1.06-2.58,1.99-3.96,2.46,1.38-.47,3.11-1.06,4.68-1.35.77-.25,1.53-.49,2.3-.74,3.8-1.22,7.57-2.46,11.66-3.2-2.07,3-4.51,5.49-7.22,7.56-.68.52-1.38,1.01-2.1,1.48-2.3,1.03-4.26,3.23-6.83,3.59,1.5,1.03,4.8-.6,5.2,2.84-.04,1.04-.92,1.85-1.61,2.08-1.54.01-3.23-.44-4.27-.09-5.19,1.76-15.62,5.02-22.06,1.29l-.09.14c-.38-.3-.6-.48-.6-.48-1.61,1.45-3.46,2.59-5.49,3.53-7.55,3.54-17.47,4.32-26.06,8.02l-.11-.26c8.17-3.51,17.1-4.85,25.39-8.04,1.77-.6,3.54-1.47,5.02-2.78Z" fill="#ef4123"/>
            <path d="M290.97,11.44c-.13,1.15-.36,2.21-.67,3.2-.33,1.85-1.11,3.33-2.04,4.68-.47.67-.97,1.32-1.47,1.95-.95,1.14-3.39,4.49-5.25,7.53-.86,1.39-1.6,2.72-2.02,3.74-.1-.05-.2-.11-.29-.15-.05-.07-.11-.14-.18-.21.23-2.43,3.43-7.9,4.54-10.09.5-.82.99-1.65,1.47-2.49.96-1.68,1.88-3.42,2.66-5.32.37-.75.72-1.51,1.08-2.28.7-.24,1.42-.43,2.17-.56Z" fill="#49a146"/>
            <path d="M268.21,29.45c-.85.04-1.68.14-2.49.28,4.27-1.61,8.57-5.06,10.64-8.07.7-.81,1.41-1.61,2.14-2.37,3.07-3.25,6.37-5.99,10.3-7.29-.36.77-.71,1.53-1.08,2.28-.78,1.9-1.7,3.64-2.66,5.32-.48.84-.97,1.67-1.47,2.49-1.11,2.19-4.31,7.66-4.54,10.09-.51-.55-1.14-.98-1.9-1.22-3.17-1.24-6.13-1.65-8.94-1.51Z" fill="#8dc740"/>
            <path d="M279.28,47.19c2.3,1.85,10.25,8.43,8.3,9.53-1.05.7-2.12,1.33-3.22,1.89-3.81-3.32-7.77-4.09-11.17-8.37,2.03-.94,3.88-2.08,5.49-3.53,0,0,.22.18.6.48Z" fill="#8dc740"/>
            <path d="M279.85,43.96s-.07.04-.1.05c-.01,0-.03,0-.05.02-.05.02-.09.04-.14.05-1.94.77-4.06.77-6.25-.57-2.51-1.71-3.43-3.1-2.19-6.15.12-.41.58-.9,1.09-1.35.92-.81,2.11-1.24,3.33-1.2l3.14.12s-1.29,4.42,2.19,4.87c.01.01.02.01.03,0,1.07.13,2.58-.11,4.7-.96-1.52,2.13-3.5,4.14-5.75,5.12Z" fill="#49a146"/>
            <path d="M279.46,32.7c1.31,1.81,1.67,4.59,1.44,7.1,0,.01-.02.01-.03,0-.01-.02,0-.05,0-.07,0-.09.01-.17.01-.26.04-2.69.13-2.66-1.62-6.21.05-.17.12-.36.2-.56Z" fill="#ef4123"/>
            <path d="M279.26,33.26c1.75,3.55,1.66,3.52,1.62,6.21,0,.09-.01.17-.01.26,0,.02-.01.05,0,.07-3.48-.45-2.19-4.87-2.19-4.87l-3.14-.12c-1.22-.04-2.41.39-3.33,1.2-.51.45-.97.94-1.09,1.35-1.24,3.05-.32,4.44,2.19,6.15,2.19,1.34,4.31,1.34,6.25.57-.56,1.09-1.28,2.14-2.1,3.07l-.03.03c-1.48,1.31-3.25,2.18-5.02,2.78-8.29,3.19-17.22,4.53-25.39,8.04-2.58,1.11-5.08,2.43-7.46,4.1-.86.53-1.71,1.06-2.57,1.59-4.6,2.86-9.18,5.72-13.93,8.27l-.02-.05c-.34-2.57-1.65-4.17-3.58-5.28-.14-.15-.85-.32-1.65-.44-.79-.12-1.66-.19-2.12-.16l-.07-.09c.2-.15.43-.32.69-.51.82-.59,1.48-1.03,2.02-1.39,3.96-2.75,4.67-8.62,7.39-13.12,1.42-1.5,2.33-3.35,4.45-3.58.97-.57,1.8-1.09,2.55-1.59,2.69-1.73,5.43-3.36,8.23-4.88.93-.5,1.87-1,2.81-1.48,2.46-1,4.86-2.27,7.28-3.58,4.71-2.55,9.45-5.2,14.68-6.08.81-.14,1.64-.24,2.49-.28,6.71,1.03,7.89,1.22,10.83,2.83-.02.3.01.55.1.73.04.09.08.17.12.25ZM265.95,38.37l-1.65-6.37-5.53,1.59,2.73,7.21,4.45-2.43ZM257.46,42.23l-3.02-6.66-9.35,3.27,1.96,7.93,10.41-4.54ZM233.75,53.21c5.45-2.2,9.85-4.48,9.85-4.48,0,0-2.77-6.62-3.44-6.62-3.32.12-9.89,5.83-9.89,5.83,1.83,2.75,1.74,2.66,3.48,5.27ZM229.9,56.78s-.71-2.43-2.18-4.51c0,0-4.4,6.19-2.58,8.13,1.31,1.6,4.76-3.62,4.76-3.62Z" fill="#f68b1f"/>
            <path d="M279.75,44.01s.07-.03.1-.05c-.6,1.29-1.43,2.33-2.39,3.19.82-.93,1.54-1.98,2.1-3.07.05-.01.09-.03.14-.05.02-.01.04-.02.05-.02Z" fill="#ef4123"/>
            <path d="M279.52,32.54l-.06.15c-.06-.1-.14-.2-.23-.3.09.04.19.1.29.15Z" fill="#ef4123"/>
            <path d="M273.19,50.24c3.4,4.28,7.36,5.05,11.17,8.37-13.39,6.89-30.36,4.01-45.71,4.95,2.55-2.3,5.43-3.98,8.48-5.3,8.59-3.7,18.51-4.48,26.06-8.02Z" fill="#49a146"/>
            <path d="M279.46,32.69h0c-.08.21-.15.4-.2.57-.04-.08-.08-.16-.12-.25-.09-.18-.12-.43-.1-.73.06.03.12.07.19.11.09.1.17.2.23.3Z" fill="#ef4123"/>
            <path d="M279.23,32.39c-.07-.04-.13-.08-.19-.11,0-.03,0-.07.01-.1.07.07.13.14.18.21Z" fill="#ef4123"/>
            <path d="M279.05,32.18s-.01.07-.01.1c-2.94-1.61-4.12-1.8-10.83-2.83,2.81-.14,5.77.27,8.94,1.51.76.24,1.39.67,1.9,1.22Z" fill="#ef4123"/>
            <polygon points="264.3 32 265.95 38.37 261.5 40.8 258.77 33.59 264.3 32" fill="#1eb1e7"/>
            <path d="M252.09,30.87c3.99-.48,9.09-1.19,12.34-1.02-5.84,1.61-9.01,3.03-13.19,5.19.39-1.22,1.01-2.42.86-4.04v-.13Z" fill="#8dc740"/>
            <polygon points="254.44 35.57 257.46 42.23 247.05 46.77 245.09 38.84 254.44 35.57" fill="#1eb1e7"/>
            <path d="M252.1,31c.15,1.62-.47,2.82-.86,4.04-3.43,1.78-7.55,4.06-14.38,7.36-.63.31-2.93,2.24-2.93,2.24,2.79-5.07,8.63-9.47,12.93-11.84.26-.15.49-.29.71-.42,1.24-.79,2.65-1.28,4.12-1.46.13-.02.27-.03.4-.05v.13Z" fill="#227a3d"/>
            <path d="M243.6,48.73s-4.4,2.28-9.85,4.48c-1.74-2.61-1.65-2.52-3.48-5.27,0,0,6.57-5.71,9.89-5.83.67,0,3.44,6.62,3.44,6.62Z" fill="#1eb1e7"/>
            <path d="M227.72,52.27c1.47,2.08,2.18,4.51,2.18,4.51,0,0-3.45,5.22-4.76,3.62-1.82-1.94,2.58-8.13,2.58-8.13Z" fill="#1eb1e7"/>
            <path d="M223.04,71.91l.02.05c-.56.3-1.12.6-1.68.89-.83.42-1.56.79-2.28.98-.72.18-1.42.17-2.17-.16-1.45-.65-2.23-2.13-2.3-2.27-.07-.13-.97-1.96-.48-3.67.2-.69.55-1.09,1.47-1.79l.07.09c.46-.03,1.33.04,2.12.16.8.12,1.51.29,1.65.44,1.93,1.11,3.24,2.71,3.58,5.28Z" fill="#49b749"/>
          </g>
          <g>
            <path d="M279.28,47.19c-.38-.3-.6-.48-.6-.48-1.61,1.45-3.46,2.59-5.49,3.53-7.55,3.54-17.47,4.32-26.06,8.02-3.05,1.32-5.93,3-8.48,5.3,15.35-.94,32.32,1.94,45.71-4.95,1.1-.56,2.17-1.19,3.22-1.89,1.95-1.1-6-7.68-8.3-9.53Z" fill="none" stroke="#231f20" stroke-miterlimit="10"/>
            <path d="M251.24,35.04c-3.43,1.78-7.55,4.06-14.38,7.36-.63.31-2.93,2.24-2.93,2.24,2.79-5.07,8.63-9.47,12.93-11.84.26-.15.49-.29.71-.42,1.24-.79,2.65-1.28,4.12-1.46.13-.02.27-.03.4-.05,3.99-.48,9.09-1.19,12.34-1.02-5.84,1.61-9.01,3.03-13.19,5.19Z" fill="none" stroke="#231f20" stroke-miterlimit="10" stroke-width=".5"/>
            <path d="M273.11,50.14s.05.07.08.1c3.4,4.28,7.36,5.05,11.17,8.37.12.09.24.2.36.31" fill="none" stroke="#231f20" stroke-miterlimit="10"/>
            <path d="M215.69,66.03c.46-.03,1.33.04,2.12.16.8.12,1.51.29,1.65.44,1.93,1.11,3.24,2.71,3.58,5.28" fill="none" stroke="#231f20" stroke-miterlimit="10"/>
            <path d="M227.72,52.27c1.47,2.08,2.18,4.51,2.18,4.51,0,0-3.45,5.22-4.76,3.62-1.82-1.94,2.58-8.13,2.58-8.13Z" fill="none" stroke="#231f20" stroke-miterlimit="10"/>
            <path d="M230.27,47.94c1.83,2.75,1.74,2.66,3.48,5.27,5.45-2.2,9.85-4.48,9.85-4.48,0,0-2.77-6.62-3.44-6.62-3.32.12-9.89,5.83-9.89,5.83Z" fill="none" stroke="#231f20" stroke-miterlimit="10"/>
            <polygon points="245.09 38.84 247.05 46.77 257.46 42.23 254.44 35.57 245.09 38.84" fill="none" stroke="#231f20" stroke-miterlimit="10"/>
            <polygon points="258.77 33.59 264.3 32 265.95 38.37 261.5 40.8 258.77 33.59" fill="none" stroke="#231f20" stroke-miterlimit="10"/>
            <path d="M252.1,31c.15,1.62-.47,2.82-.86,4.04-.08.25-.15.51-.2.77-.03.1-.05.21-.06.32" fill="none" stroke="#231f20" stroke-miterlimit="10"/>
            <path d="M279.7,44.03c-.05.02-.09.04-.14.05-1.94.77-4.06.77-6.25-.57-2.51-1.71-3.43-3.1-2.19-6.15.12-.41.58-.9,1.09-1.35.92-.81,2.11-1.24,3.33-1.2l3.14.12s-1.29,4.42,2.19,4.87c.01.01.02.01.03,0,1.07.13,2.58-.11,4.7-.96-1.52,2.13-3.5,4.14-5.75,5.12-.03.02-.07.04-.1.05" fill="none" stroke="#231f20" stroke-miterlimit="10"/>
            <path d="M279.75,44.01s-.03,0-.05.02" fill="none" stroke="#231f20" stroke-miterlimit="10"/>
            <path d="M280.87,39.73c0-.09.01-.17.01-.26.04-2.69.13-2.66-1.62-6.21-.04-.08-.08-.16-.12-.25-.09-.18-.12-.43-.1-.73,0-.03,0-.07.01-.1.23-2.43,3.43-7.9,4.54-10.09.5-.82.99-1.65,1.47-2.49.96-1.68,1.88-3.42,2.66-5.32.37-.75.72-1.51,1.08-2.28,0-.01.01-.02.01-.03" fill="none" stroke="#231f20" stroke-miterlimit="10"/>
            <path d="M280.86,39.89s0-.06.01-.09c-.01-.02,0-.05,0-.07" fill="none" stroke="#231f20" stroke-miterlimit="10"/>
            <path d="M277.46,47.15c.82-.93,1.54-1.98,2.1-3.07l.03-.06" fill="none" stroke="#231f20" stroke-miterlimit="10"/>
            <path d="M276.85,47.8c.2-.2.39-.4.58-.62" fill="none" stroke="#231f20" stroke-miterlimit="10"/>
            <path d="M279.46,32.69l.06-.15c.42-1.02,1.16-2.35,2.02-3.74,1.86-3.04,4.3-6.39,5.25-7.53.5-.63,1-1.28,1.47-1.95.93-1.35,1.71-2.83,2.04-4.68.31-.99.54-2.05.67-3.2-.75.13-1.47.32-2.17.56-3.93,1.3-7.23,4.04-10.3,7.29-.73.76-1.44,1.56-2.14,2.37-2.07,3.01-6.37,6.46-10.64,8.07-1.12.42-2.23.72-3.3.85" fill="none" stroke="#231f20" stroke-miterlimit="10"/>
            <path d="M279.23,33.38l.03-.12c.05-.17.12-.36.2-.56" fill="none" stroke="#231f20" stroke-miterlimit="10"/>
            <path d="M266.91,29.25c.46.07.89.14,1.3.2,6.71,1.03,7.89,1.22,10.83,2.83.06.03.12.07.19.11.09.04.19.1.29.15.28.16.58.34.9.52" fill="none" stroke="#231f20" stroke-miterlimit="10"/>
            <path d="M281.61,28.84c2.09-1.33,5.86-4.96,8.44-5.32-.23,1.61-.61,2.77-.83,4.38,1.57-1.05,2.49-2.89,4.19-3.86.7-.66,1.4-1.32,2.11-1.97,3.53-3.28,7.21-6.49,11.45-8.88-2,4.51-4.68,7.84-7.37,11.22-.54.68-1.08,1.36-1.62,2.06.66-.14,1.32-.38,1.98-.66.66-.29,1.32-.62,1.99-.95,2.66-1.32,5.4-2.59,8.41-.54-1.69,1.85-3.29,3.67-5.01,5.28-.57.53-1.16,1.05-1.77,1.53-1.35,1.06-2.58,1.99-3.96,2.46,1.38-.47,3.11-1.06,4.68-1.35.77-.25,1.53-.49,2.3-.74,3.8-1.22,7.57-2.46,11.66-3.2-2.07,3-4.51,5.49-7.22,7.56-.68.52-1.38,1.01-2.1,1.48-2.3,1.03-4.26,3.23-6.83,3.59,1.5,1.03,4.8-.6,5.2,2.84-.04,1.04-.92,1.85-1.61,2.08-1.54.01-3.23-.44-4.27-.09-5.19,1.76-15.62,5.02-22.06,1.29" fill="none" stroke="#231f20" stroke-miterlimit="10"/>
            <path d="M280.86,40.32c.02-.17.04-.34.04-.52.23-2.51-.13-5.29-1.44-7.1h0c-.06-.11-.14-.21-.23-.31-.05-.07-.11-.14-.18-.21-.51-.55-1.14-.98-1.9-1.22-3.17-1.24-6.13-1.65-8.94-1.51-.85.04-1.68.14-2.49.28-5.23.88-9.97,3.53-14.68,6.08-2.42,1.31-4.82,2.58-7.28,3.58-.94.48-1.88.98-2.81,1.48-2.8,1.52-5.54,3.15-8.23,4.88-.75.5-1.58,1.02-2.55,1.59-2.12.23-3.03,2.08-4.45,3.58-2.72,4.5-3.43,10.37-7.39,13.12-.54.36-1.2.8-2.02,1.39-.26.19-.49.36-.69.51-.92.7-1.27,1.1-1.47,1.79-.49,1.71.41,3.54.48,3.67.07.14.85,1.62,2.3,2.27.75.33,1.45.34,2.17.16.72-.19,1.45-.56,2.28-.98.56-.29,1.12-.59,1.68-.89,4.75-2.55,9.33-5.41,13.93-8.27.86-.53,1.71-1.06,2.57-1.59,2.38-1.67,4.88-2.99,7.46-4.1,8.17-3.51,17.1-4.85,25.39-8.04,1.77-.6,3.54-1.47,5.02-2.78l.03-.03c.96-.86,1.79-1.9,2.39-3.19.05-.09.09-.18.13-.27" fill="none" stroke="#231f20" stroke-miterlimit="10" stroke-width=".5"/>
          </g>
        </g>
      </g>
    </g>
  </g>
</svg>