<?xml version="1.0" encoding="UTF-8"?>
<svg id="Layer_2" data-name="Layer 2" xmlns="http://www.w3.org/2000/svg" viewBox="0 0 396.07 410.25">
  <g id="outlines">
    <g id="Page_2" data-name="Page 2">
      <g id="Frame_9" data-name="Frame 9">
        <g id="Person">
          <g id="Layer_86" data-name="Layer 86">
            <g id="Layer_87" data-name="Layer 87">
              <g>
                <g>
                  <g>
                    <path d="M394.95,146.63l.62,119.55-10.64-1.28c-162.28,21.47-205.25,15.85-207.38,3.86-.35-1.97.83-8.2,3.19-20.64.86-4.55,1.75-8.81,2.59-12.63l.48.16c1.52,1.85,2.01,2.6,5.44,3.44,6.02,1.49,11.4-2.86,12.76-3.86,15.08-11.22,61.13-.08,107.42-7.74,8.76-1.46,21.69-4.27,37.22-10.33l7.44-2.57c15.96-9.04,40.42-33.54,40.42-33.54l.45-34.42Z" fill="#2a62ae"/>
                    <path d="M394.69,98.16l.26,48.47-.45,34.42s-24.46,24.5-40.42,33.54l-7.44,2.57c-15.53,6.05-28.46,8.87-37.22,10.33-46.29,7.67-92.34-3.47-107.42,7.74-1.35,1-6.73,5.35-12.76,3.86-3.43-.84-3.92-1.6-5.44-3.44l-.48-.16c2.31-10.47,4.33-17.79,4.85-19.62,4.67-16.29,23.14-58.55,60.63-94.15,21.66-20.59,61.88-38.83,83.49-47.53,5.5,2.1,51.5,19.6,62.4,23.97Z" fill="#6b83c1"/>
                    <path d="M394.49,61.1l.19,37.06c-10.9-4.37-56.9-21.87-62.4-23.97,7.71-3.11,13.05-4.99,14.34-5.35,19.4-5.29,36.03-7.1,47.86-7.74Z" fill="#779dd2"/>
                  </g>
                  <g>
                    <path d="M394.69,98.16l-.19-37.06c-11.83.64-28.46,2.46-47.86,7.74-1.29.36-6.63,2.24-14.34,5.35-21.61,8.7-61.83,26.94-83.49,47.53-37.49,35.61-55.96,77.87-60.63,94.15-.52,1.83-2.54,9.15-4.85,19.62-.84,3.82-1.73,8.07-2.59,12.63-2.36,12.44-3.53,18.67-3.19,20.64,2.13,11.98,45.1,17.6,207.38-3.86l10.64,1.28-.62-119.55-.26-48.47Z" fill="none" stroke="#231f20" stroke-miterlimit="10"/>
                    <path d="M183.8,235.65c1.52,1.85,2.01,2.6,5.44,3.44,6.02,1.49,11.4-2.86,12.76-3.86,15.08-11.22,61.13-.08,107.42-7.74,8.76-1.46,21.69-4.27,37.22-10.33l7.44-2.57c15.96-9.04,40.42-33.54,40.42-33.54l.45-34.42.62-48.13c-.26-.11-.55-.22-.88-.34-10.9-4.37-56.9-21.87-62.4-23.97-.36-.13-.54-.2-.54-.2" fill="none" stroke="#231f20" stroke-miterlimit="10"/>
                  </g>
                </g>
                <path d="M351.1,4.88c-.87-.94-2.75-2.66-5.86-3.62-1.25-.38-6.63-1.85-10.97.73-2.42,1.44-3.38,3.46-4.1,5.02-2.46,5.37-.73,10.4.21,12.57l20.72-14.7Z" fill="#a4a1a1" stroke="#231f20" stroke-miterlimit="10"/>
                <polygon points="374.66 17.59 380.96 24.74 343.7 45.62 337.26 38.64 374.66 17.59" fill="#a4a1a1" stroke="#231f20" stroke-miterlimit="10"/>
                <polygon points="351.1 4.88 366.89 21.74 343.93 35 330.38 19.58 351.1 4.88" fill="#706d6d" stroke="#231f20" stroke-miterlimit="10"/>
                <polygon points="372.28 29.51 374.7 34.1 352.41 47.23 348.82 42.87 372.28 29.51" fill="#4c4b4c" stroke="#231f20" stroke-miterlimit="10"/>
                <path d="M378.86,31.66l-27.86,16.26c.08.29.24.74.61,1.18.72.88,1.81,1.24,2.77,1.48,4.99,1.25,8.39.94,8.39.94,2.12-.19,10.33-.95,14.79-7,4.37-5.92,1.63-12.14,1.29-12.87" fill="#848484" stroke="#231f20" stroke-miterlimit="10"/>
                <ellipse cx="336.35" cy="43.9" rx="3.23" ry="2.42" transform="translate(-2.64 55.89) rotate(-9.46)" fill="#b7b7b7" stroke="#231f20" stroke-miterlimit="10"/>
                <ellipse cx="380.79" cy="18.54" rx="3.23" ry="2.42" transform="translate(2.13 62.85) rotate(-9.46)" fill="#b7b7b7" stroke="#231f20" stroke-miterlimit="10"/>
                <polygon points="362.3 20.81 356.12 24.81 345.41 12.78 351.59 8.77 362.3 20.81" fill="#dcdbdb" stroke="#231f20" stroke-miterlimit="10"/>
                <polygon points="350.94 27.56 344.75 31.57 334.04 19.53 340.23 15.53 350.94 27.56" fill="#dcdbdb" stroke="#231f20" stroke-miterlimit="10"/>
                <line x1="350.78" y1="9.29" x2="361.54" y2="21.21" fill="#dcdbdb" stroke="#231f20" stroke-miterlimit="10"/>
                <line x1="349.74" y1="10.08" x2="360.5" y2="22" fill="#dcdbdb" stroke="#231f20" stroke-miterlimit="10"/>
                <line x1="348.45" y1="10.91" x2="359.21" y2="22.83" fill="#dcdbdb" stroke="#231f20" stroke-miterlimit="10"/>
                <line x1="347.16" y1="11.75" x2="357.92" y2="23.67" fill="#dcdbdb" stroke="#231f20" stroke-miterlimit="10"/>
                <line x1="345.86" y1="12.59" x2="356.63" y2="24.5" fill="#dcdbdb" stroke="#231f20" stroke-miterlimit="10"/>
                <line x1="339.17" y1="16.09" x2="349.93" y2="28.01" fill="#dcdbdb" stroke="#231f20" stroke-miterlimit="10"/>
                <line x1="338.11" y1="16.81" x2="348.87" y2="28.73" fill="#dcdbdb" stroke="#231f20" stroke-miterlimit="10"/>
                <line x1="336.9" y1="17.63" x2="347.66" y2="29.55" fill="#dcdbdb" stroke="#231f20" stroke-miterlimit="10"/>
                <line x1="335.69" y1="18.45" x2="346.46" y2="30.37" fill="#dcdbdb" stroke="#231f20" stroke-miterlimit="10"/>
                <line x1="334.48" y1="19.27" x2="345.25" y2="31.19" fill="#dcdbdb" stroke="#231f20" stroke-miterlimit="10"/>
                <path d="M346.75,35.95l-2.24,1.28c-.12.07-.16.2-.1.31l2.44,3.84c.06.1.21.13.33.06l2.28-1.26" fill="none" stroke="#010101" stroke-linejoin="round" stroke-width=".75"/>
                <path d="M347.56,35.58l2.47,3.88c.07.1.22.13.33.06l1.47-.83c.12-.07.16-.21.1-.31l-2.47-3.88c-.07-.1-.22-.13-.33-.06l-1.47.83c-.12.07-.16.21-.1.31Z" fill="none" stroke="#010101" stroke-linejoin="round" stroke-width=".75"/>
                <path d="M357.4,29.74l2.47,3.88c.07.1.22.13.33.06l1.47-.83c.12-.07.16-.21.1-.31l-2.47-3.88c-.07-.1-.22-.13-.33-.06l-1.47.83c-.12.07-.16.21-.1.31Z" fill="none" stroke="#010101" stroke-linejoin="round" stroke-width=".75"/>
                <path d="M353.49,37.7l-2.56-4.02c-.07-.1-.02-.24.1-.31l1.4-.77c.12-.07.27-.04.33.06l.8,1.22c.07.1.02.25-.1.31l-1.56.84c-.17.09,3.45,1.68,3.45,1.68" fill="none" stroke="#010101" stroke-linejoin="round" stroke-width=".75"/>
                <path d="M363.46,31.9l-2.56-4.02c-.07-.1-.02-.24.1-.31l1.4-.77c.12-.07.27-.04.33.06l.8,1.22c.07.1.02.25-.1.31l-1.54.83c-.45.14,3.43,1.69,3.43,1.69" fill="none" stroke="#010101" stroke-linejoin="round" stroke-width=".75"/>
                <path d="M356.65,35.76l-2.6-4.02c-.07-.1-.02-.24.1-.31l1.45-.82c.12-.07.27-.04.33.06l.8,1.23c.07.1.02.25-.1.31l-1.72.91" fill="none" stroke="#010101" stroke-linejoin="round" stroke-width=".75"/>
                <path d="M366.46,30.18l-1.97-4.38c-.05-.1,0-.22.11-.28l.86-.48c.11-.06.25-.04.32.04l3.14,3.74" fill="none" stroke="#010101" stroke-linejoin="round" stroke-width=".75"/>
                <line x1="365.18" y1="27.32" x2="366.85" y2="26.41" fill="none" stroke="#010101" stroke-linejoin="round" stroke-width=".75"/>
                <line x1="366.63" y1="24.6" x2="369.12" y2="23.22" fill="none" stroke="#010101" stroke-linejoin="round" stroke-width=".75"/>
                <line x1="367.81" y1="23.93" x2="370.42" y2="28.2" fill="none" stroke="#010101" stroke-linejoin="round" stroke-width=".75"/>
                <path d="M371.69,21.71l-1.61.91c-.12.07-.16.21-.1.31l2.45,3.85c.07.1.22.13.33.06l1.57-.89" fill="none" stroke="#010101" stroke-linejoin="round" stroke-width=".75"/>
                <line x1="370.89" y1="24.3" x2="372.05" y2="23.64" fill="none" stroke="#010101" stroke-linejoin="round" stroke-width=".75"/>
                <path d="M144.87,163.15c.69,1,1.33,2.04,1.88,3.13.14.28,1.01,1.81.29.56.31.53.46,1.24.64,1.83.95,2.99,4.21,5.22,7.38,4.19,2.99-.97,5.21-4.18,4.19-7.38-.94-2.96-2.25-5.82-4.02-8.38s-5.34-4-8.21-2.15c-2.56,1.65-4.06,5.45-2.15,8.21h0Z" fill="#fff"/>
                <path d="M150.09,253.34c2.75,10.45,9.33,18.94,13.35,28.81,4.32,10.62,3.63,21.92-.92,32.31-3.06,7.01,7.27,13.12,10.36,6.06,5.14-11.74,7.15-24.05,3.77-36.63s-11.83-21.72-15-33.74c-1.96-7.46-13.54-4.3-11.57,3.19h0Z" fill="#fff"/>
                <path d="M161.48,318.13c-6.59,9.81-5.39,23.07-5.84,34.34-.52,13.13-1.09,26.27.31,39.37l7.6-5.79c-7.64-1.71-14.61-5.92-22.1-.99,2.74,2.74,5.47,5.47,8.21,8.21,1.68-3.91,2.54-7.83,1.43-12.06-.47-1.8-1.29-3.14-1.48-4.95-.25-2.4-.19-4.78-.54-7.19-1.25-8.5-5.4-17.28-2.29-25.78l-11.79-1.6c.63,13.22,3.38,26.11,8.43,38.35,2.25,5.45,9.46,5.89,11.57,0,6.32-17.63,8.6-36.46,6.58-55.08-.66-6.09-10.57-8.86-11.79-1.6l-5.43,32.4,11.79,1.6c1.43-15.1,2.86-30.2,4.29-45.3.63-6.7-10.47-8.21-11.79-1.6-1.89,9.53-3.79,19.05-5.68,28.58l11.79,1.6c-1.39-13.54-2.77-27.09-4.16-40.63-.64-6.27-10.14-8.69-11.79-1.6-1.51,6.52-3.02,13.04-4.53,19.55h11.57c-1.26-7.13-2.52-14.25-3.78-21.38s-11.28-4.72-11.79,1.6c-.85,10.68-.86,21.35-.03,32.02h12c-.17-2.15-.35-4.3-.52-6.45-.62-7.64-12.59-7.72-12,0,.3,3.91.6,7.83.9,11.74.48,6.3,10.38,8.67,11.79,1.6.8-4.01,1.6-8.01,2.39-12.02h-11.57c.97,5.91,1.78,11.84,2.43,17.8.82,7.49,11.99,7.91,12,0,0-12.3.02-24.59.03-36.89l-11.79,1.6c1.25,3.8,2.28,7.67,2.8,11.64.97,7.42,11.84,7.97,12,0,.08-4.28.1-8.57.02-12.85-.07-3.5-.97-7.6-.6-10.99l-1.76,4.24.45-.35h-8.49l.37.37v-8.49l-.27.33c-4.81,5.95,3.63,14.49,8.49,8.49l.27-.33c2.03-2.51,2.5-6.01,0-8.49l-.37-.37c-2.51-2.49-5.91-2.01-8.49,0-3.56,2.77-1.83,8.13-1.71,11.91.17,5.51.18,11.02.07,16.53h12c-.66-5.07-1.63-9.96-3.23-14.83-2.07-6.29-11.78-5.39-11.79,1.6,0,12.3-.02,24.59-.03,36.89h12c-.77-7.02-1.72-14.02-2.86-20.99-.95-5.83-10.45-5.62-11.57,0-.8,4.01-1.6,8.01-2.39,12.02l11.79,1.6c-.3-3.91-.6-7.83-.9-11.74h-12c.17,2.15.35,4.3.52,6.45.62,7.64,12.6,7.72,12,0-.83-10.68-.82-21.35.03-32.02l-11.79,1.6c1.26,7.13,2.52,14.25,3.78,21.38,1.04,5.89,10.29,5.55,11.57,0,1.51-6.52,3.02-13.04,4.53-19.55l-11.79-1.6c1.39,13.54,2.77,27.09,4.16,40.63.63,6.18,10.36,8.78,11.79,1.6l5.68-28.58-11.79-1.6c-1.43,15.1-2.86,30.2-4.29,45.3-.63,6.67,10.67,8.27,11.79,1.6,1.81-10.8,3.62-21.6,5.43-32.4l-11.79-1.6c1.93,17.7-.14,35.13-6.15,51.89h11.57c-4.64-11.26-7.42-22.99-8-35.16-.33-6.93-9.47-7.93-11.79-1.6-2.92,7.99-1.16,16.13.7,24.15.94,4.04,1.61,7.87,1.71,12.01.04,1.9.13,3.49.72,5.32.64,1.97,1.89,3.48.97,5.64-2.12,4.94,2.63,11.89,8.21,8.21,3.51-2.31,9.13,1.37,12.85,2.2,3.43.77,8.03-1.69,7.6-5.79-1.25-11.79-.92-23.6-.46-35.43.23-5.89.43-11.78.7-17.67.24-5.22.67-10.11,3.65-14.56,4.32-6.43-6.07-12.44-10.36-6.06h0Z" fill="#fff"/>
                <path d="M128.99,254.07c.81,8.08,3.08,15.49,7.22,22.51,1.95,3.31,6.7,3.97,9.42,1.21,5.3-5.37,10.59-14.28,7.99-22.12-2.27-6.85-12.24-9.99-16.85-3.5s1.77,16.11,9.24,16.12c4.1,0,7.31-3.41,7.59-7.36s-2.43-6.73-5.54-8.74c-5.72-3.7-12.2,4.74-7.27,9.42,4.68,4.44,9.36,8.88,14.04,13.31,4.16,3.95,11.94.08,10.03-5.84-1.22-3.79-3.35-6.55-6.82-8.52-4.1-2.34-8.79.67-9.03,5.18-.65,12.36,7.05,22.33,9.8,33.92,1.56,6.57,11.94,5.18,11.79-1.6l-.04-1.76c-.15-6.53-10.34-8.44-11.79-1.6-1.62,7.65-3.23,15.29-4.85,22.94h11.57c-1.16-7.74,1.41-15.34-.71-23.09s-6.81-13.51-11.45-19.47c-2.73-3.51-9.21-1.48-10.03,2.65-2.08,10.52,1.91,21.84,4.16,32.09,1.47,6.71,11.74,5.07,11.79-1.6.09-13.78-.63-27.52-2.16-41.22-.7-6.3-9.98-8.65-11.79-1.6-1.7,6.63-3.4,13.27-5.11,19.9h11.57c-3.89-10.22-9.44-19.31-16.81-27.4-3.32-3.65-8.49-1.26-10.03,2.65-.78,1.99-1.57,3.98-2.35,5.97h11.57c-.37-.6-.52-1.25-.45-1.94-.06-6.58-10.33-8.39-11.79-1.6-1.26,5.88-.3,11.28,1.95,16.8s5.51,10.53,5.96,16.32c.61,7.75,11.29,7.68,12,0,.55-5.98,1.1-11.96,1.66-17.94.72-7.79-11.02-7.47-12,0-.86,6.55-1.71,13.11-2.57,19.66l11.79-1.6c-1.39-6.59-2.77-13.18-4.16-19.77-1.1-5.23-8.42-5.62-10.97-1.43-4.95,8.13-2.77,19.8-1.37,28.66,1.71,10.9,3.46,21.77,4.75,32.74,1.17,9.99,1.79,20.03,2.89,30.03.97,8.87,3.05,16.83,8.64,23.95,4.77,6.07,13.21-2.48,8.49-8.49-4.37-5.57-4.98-13.26-5.54-20.04-.76-9.14-1.6-18.26-2.7-27.37s-2.29-17.62-3.7-26.39c-.73-4.56-1.62-9.11-2.03-13.71-.35-3.94-1.21-9.79.95-13.33l-10.97-1.43c1.39,6.59,2.77,13.18,4.16,19.77,1.52,7.23,10.99,4.53,11.79-1.6.86-6.55,1.71-13.11,2.57-19.66h-12c-.55,5.98-1.1,11.96-1.66,17.94h12c-.44-5.59-2.28-10.46-4.56-15.53-2-4.43-4.85-9.38-3.78-14.4l-11.79-1.6c.02,1.79.25,3.45.88,5.13,2.16,5.74,9.36,5.61,11.57,0l2.35-5.97-10.03,2.65c5.91,6.49,10.6,13.89,13.72,22.11,1.98,5.2,9.99,6.17,11.57,0l5.11-19.9-11.79-1.6c1.52,13.7,2.24,27.44,2.16,41.22l11.79-1.6c-.94-4.28-1.86-8.55-2.77-12.84s-2.24-8.58-1.39-12.88l-10.03,2.65c4.02,5.17,8.42,10.84,8.95,17.61.52,6.61-.88,13.01.12,19.66.89,5.9,10.4,5.55,11.57,0,1.62-7.65,3.23-15.29,4.85-22.94l-11.79-1.6.04,1.76,11.79-1.6c-2.46-10.35-9.94-19.81-9.37-30.73l-9.03,5.18c.73.19,1.17.64,1.3,1.35l10.03-5.84c-4.68-4.44-9.36-8.88-14.04-13.31-2.42,3.14-4.85,6.28-7.27,9.42l-.15-3.66,3.59-2.76c4.1-1.49-2.99,3.33-3.19,3.68-.52.87-.49,2.37-.89,3.37-.95,2.39-2.42,4.32-4.22,6.14l9.42,1.21c-3-5.09-4.99-10.54-5.58-16.45-.76-7.61-12.77-7.69-12,0h0Z" fill="#fff"/>
                <path d="M135.36,134.68c-2.96,1.44-4.55,4.55-4.72,7.76-.03.51-.15,1.26.03,1.75,0-.03.4.92.23.49-.26-.65.74-.07.12-.3-.09-.03,0,.02-.51.31-4.09,2.32-7.61,4.13-9.41,8.79-1.93,4.97,4.62,9.38,8.81,6.78.7-.44,1.4-.87,2.11-1.31,6.55-4.07.53-14.45-6.06-10.36-.7.44-1.4.87-2.11,1.31l8.81,6.78c-.29.75-.98.94-.08.55.56-.25,1.14-.66,1.69-.94,1.61-.85,3.14-1.65,4.55-2.84,1.53-1.28,2.78-2.88,3.38-4.82.3-.96.47-2.05.52-3.05,0-.61-.02-1.22-.09-1.83.09-1.72-.31-1.28-1.21,1.32,2.91-1.42,3.7-5.56,2.15-8.21-1.74-2.97-5.29-3.58-8.21-2.15h0Z" fill="#fff"/>
                <path d="M140.63,137.75c-4.76-1.48-9.53-2.96-14.29-4.44-2.37-.74-9.55-1.73-10.53-3.9-3.18-7.03-13.52-.93-10.36,6.06,2.17,4.79,7.38,6.2,11.99,7.64,6.67,2.07,13.34,4.15,20,6.22,7.39,2.3,10.55-9.28,3.19-11.57h0Z" fill="#fff"/>
                <path d="M138.32,121.52c-4.76-.83-9.56-1.49-14.38-1.84-2.45-.18-4.91-.28-7.36-.3-1.45-.01-4.11.55-5.34-.26l-3.03,11.18c6.84-.68,13.21-.03,19.74,2.11,7.35,2.41,10.51-9.17,3.19-11.57s-15.15-3.31-22.93-2.54c-5.86.58-8.24,7.75-3.03,11.18,3.94,2.6,8.76,1.82,13.24,1.93,5.61.14,11.18.72,16.71,1.68,7.55,1.32,10.8-10.24,3.19-11.57h0Z" fill="#fff"/>
                <path d="M158.07,130.44c.73,5.66-.59,11.11-1.5,16.68s-1.79,11.43-2.57,17.16c-1.54,11.36-2.79,22.74-3.73,34.16-.58,6.96,9.85,7.82,11.79,1.6.54-1.72,1.07-3.44,1.61-5.17l-11.79-1.6c.03,17.84-5.77,35.26-3.86,53.15.65,6.07,10.73,8.88,11.79,1.6.92-6.36,1.84-12.71,2.76-19.07,1.09-7.55-10.47-10.82-11.57-3.19-.92,6.36-1.84,12.71-2.76,19.07l11.79,1.6c-1.91-17.88,3.89-35.31,3.86-53.15-.01-6.86-9.79-8.02-11.79-1.6-.54,1.72-1.07,3.44-1.61,5.17l11.79,1.6c.96-11.63,2.2-23.24,3.83-34.79.77-5.41,1.61-10.81,2.52-16.19s2.19-11.28,1.45-17.02c-.97-7.55-12.98-7.65-12,0h0Z" fill="#fff"/>
                <path d="M151.91,216.48c-.89,11.42-3.27,23.73-.41,34.99,1.9,7.48,13.48,4.31,11.57-3.19-2.54-9.98.05-21.66.84-31.8.6-7.7-11.4-7.66-12,0h0Z" fill="#fff"/>
                <path d="M137.91,110.18c-9.5,7.18-19.14,14.19-28.9,21.01,2.42,3.14,4.85,6.28,7.27,9.42,1.52-1.79,3-3.07,5.05-4.23,4.26-2.42,3.73-9.95-1.43-10.97-4.8-.94-10.76-1.6-15.27.77-4.25,2.23-4.94,7.1-4.08,11.47,2.06,10.5,12.08,14.07,17.78,21.92,2.03,2.79,6.77,4.5,9.42,1.21,3.63-4.5,7.12-10.06,4.23-15.92-2.72-5.51-8.75-7.07-14.02-4.57l8.81,3.59c-.41-1.42-1.44-3.73-1.21-5.27-.86,1.48-.71,1.89.44,1.21.86-.32,1.74-.6,2.62-.86,3.27-.98,6.61-1.41,9.94-2.1,5.29-1.09,10.23-4.22,11.15-9.91s-2.72-10.72-8.52-11.17c-6.35-.5-11.11,5.13-14.07,10.01-2.78,4.59-5.12,10.33-3.52,15.71,1.72,5.78,8.07,8.14,13.39,5.84,11.52-4.98,14.72-23.65,13.67-34.58-.56-5.85-7.77-8.26-11.18-3.03-4.88,7.48-8.13,15.79-9.46,24.62-.84,5.56,5.41,10.44,10.03,5.84,3.87-3.87,5.42-9.02,7.02-14.13,2-6.4,3.54-12.92,4.73-19.52,1.01-5.59-5.53-10.41-10.03-5.84-14.71,14.96-20.97,36.14-16.5,56.66,1.09,5,8.59,5.89,10.97,1.43,5.42-10.18,9.53-20.96,13.55-31.75l-11.57-3.19c-2.38,9.29-4.32,18.67-5.8,28.14-1.19,7.57,8.89,10.55,11.57,3.19,1.04-2.85,2.08-5.7,3.12-8.56l-11.57-3.19c-1.21,6.74-1.74,13.43-1.35,20.27s9.67,8.16,11.79,1.6c1.29-4,1.55-8.78-1.8-11.91-3.01-2.81-8.02-3.32-11.31-.72-3.66,2.9-3.47,7.96-.79,11.44,3.32,4.33,6.41,7.34,7.94,12.8,2.09,7.42,13.67,4.27,11.57-3.19-1.01-3.59-2.43-7.13-4.49-10.25-.87-1.31-1.86-2.62-2.87-3.83-.7-.84-1.44-1.64-2.22-2.4-4.38.02-6.91,1.64-7.59,4.86l11.79,1.6c-.32-5.75-.1-11.41.92-17.08,1.37-7.6-8.91-10.49-11.57-3.19l-3.12,8.56,11.57,3.19c1.48-9.48,3.42-18.85,5.8-28.14,1.95-7.6-8.91-10.32-11.57-3.19-3.67,9.83-7.41,19.6-12.34,28.88l10.97,1.43c-3.55-16.3,1.79-33.16,13.41-44.98l-10.03-5.84c-.96,5.34-2.15,10.63-3.64,15.85-1.14,3.98-2.01,9.48-5.03,12.51l10.03,5.84c1.19-7.93,3.87-15.03,8.25-21.75l-11.18-3.03c.69,7.14-.41,14.08-4,20.36-.41.74-.85,1.46-1.32,2.16-1.93,1.24-1.36,2.2,1.7,2.89.22-.17.83-3.25.97-3.56.94-2.17,7.27-8.74,1.84-9.95-.59-.13-3.25.77-3.86.88-1.67.3-3.34.54-5,.93-3.41.78-7.07,1.75-10.18,3.38-6.9,3.62-5.46,10.85-3.61,17.24,1.15,3.97,5.32,5.24,8.81,3.59-1.77-1.39-2.95-1.41-3.54-.04-.35.6-.75,1.17-1.21,1.69l9.42,1.21c-2.75-3.79-6-6.66-9.55-9.67-1.52-1.29-8.4-7.02-7.02-9.16l-3.59,2.76c2.62-1.1,5.42-1.01,8.18-.47-.48-3.66-.96-7.31-1.43-10.97-2.86,1.62-5.34,3.59-7.48,6.11-4.09,4.82,1.3,13.6,7.27,9.42,9.76-6.83,19.4-13.83,28.9-21.01,6.08-4.6.11-15.02-6.06-10.36h0Z" fill="#fff"/>
                <path d="M112,173.93c6.65,5.6,13.57,13.29,13.38,22.48-.21,10.22.3,18.85,5.25,28.07,3.19,5.94,13.04,1.9,10.97-4.62-4.76-14.94-9.52-29.87-14.27-44.81-1.71-5.37-10.19-6.04-11.57,0-7.53,32.91-2.75,66.39,2.26,99.28.91,5.95,10.32,5.49,11.57,0,5.32-23.29,1.71-47.94.25-71.5h-12c1.69,19.12,3.49,38.38,9.72,56.66,2.27,6.67,11.04,5.05,11.79-1.6,1.4-12.46,2.39-24.95,2.99-37.47h-12c.07,12.14.57,24.26,1.5,36.37.53,6.87,9.38,7.99,11.79,1.6,3.36-8.96,5.71-18.16,7.05-27.63h-11.57c1.26,6.39,1.85,12.78,1.89,19.29.05,7.73,11.84,7.72,12,0,.34-15.76.1-31.48-.17-47.24-.13-7.71,0-15.4,1.56-22.99s3.99-14.89,6.42-22.2l-11.79-1.6c-.31,4.88-.62,9.77-.94,14.65h12c-.5-12.36.08-25.36-2.56-37.49-.81-3.72-5.66-5.58-8.81-3.59-4.79,3.04-8.03,7.16-9.61,12.63-2.14,7.44,9.44,10.61,11.57,3.19.71-2.45,1.95-4.1,4.09-5.46l-8.81-3.59c2.39,11.01,1.68,23.07,2.13,34.3.31,7.76,11.51,7.69,12,0,.31-4.88.62-9.77.94-14.65.45-7.03-9.74-7.75-11.79-1.6-5.11,15.38-8.62,30.15-8.44,46.45.18,16.4.55,32.76.2,49.16h12c-.05-7.57-.86-15.05-2.32-22.48-1.1-5.57-10.74-5.88-11.57,0-1.33,9.48-3.68,18.67-7.05,27.63l11.79,1.6c-.93-12.11-1.43-24.23-1.5-36.37-.05-7.76-11.63-7.69-12,0-.6,12.52-1.6,25.01-2.99,37.47l11.79-1.6c-5.89-17.3-7.69-35.37-9.29-53.47-.67-7.59-12.48-7.78-12,0,1.38,22.33,5.22,46.25.18,68.31h11.57c-4.67-30.66-9.28-62.23-2.26-92.9h-11.57c4.76,14.94,9.52,29.87,14.27,44.81l10.97-4.62c-2.42-4.52-3.86-9.36-3.92-14.5-.07-5.43.89-10.72-.66-16.05-2.56-8.79-9.03-16.63-15.92-22.43-5.87-4.94-14.4,3.5-8.49,8.49h0Z" fill="#fff"/>
                <path d="M142.94,104.61c2.66,4.43,5.32,8.87,8.25,13.13,1.3,1.9,2.66,3.75,4.07,5.57.84,1.09,1.69,2.17,2.57,3.22.37.45.74.89,1.12,1.32,1.64,2.27,2.66.57,3.05-5.1l4.62.6c-1.32-.6-2.88-3.09-3.88-4.21-1.65-1.87-3.31-3.74-4.96-5.6-3.31-3.74-10.69-.9-10.24,4.24.51,5.87,1.71,11.42,3.99,16.87,1.26,3.01,3.96,5.09,7.38,4.19,2.83-.75,5.44-4.39,4.19-7.38-1.85-4.41-3.15-8.9-3.56-13.68l-10.24,4.24c3.26,3.69,6.77,9.56,11.27,11.69,4.8,2.28,10.07-1.07,10.52-6.26s-5.21-9.69-8.06-13.65c-3.52-4.9-6.63-10.07-9.74-15.24-3.97-6.61-14.35-.59-10.36,6.06h0Z" fill="#fff"/>
                <path d="M91.41,49.77c3.62,5.37,7.25,10.75,10.87,16.12,2.77,4.11,5.4,8.45,9.26,11.64,4.34,3.58,9.16,6.64,13.76,9.88,4.85,3.42,9.61,7.35,15.03,9.84,3.91,1.79,9.18-.26,9.03-5.18-.37-12.21-10.51-20.7-18.59-28.67-9.23-9.09-19.06-17.59-29.97-24.63l-4.62,10.97c10.96,1.92,23.61,4.21,33.04,10.51,9.2,6.15,9.49,17.09,9.57,27.13l9.03-5.18c-2.19-1.5-1.94-5.68-2.24-7.95-.48-3.61-1.32-6.82-3.42-9.87-4.27-6.21-10.36-11.53-15.5-17.01-2.76-2.94-7.39-1.91-9.42,1.21-5.11,7.85-5.27,17.19-1.18,25.5,3.41,6.93,13.77.85,10.36-6.06-2.24-4.54-1.52-9.25,1.18-13.38l-9.42,1.21c3.05,3.25,6.1,6.49,9.15,9.74,2.71,2.89,5.63,5.37,6.33,9.46,1.22,7.15,1.64,13.06,8.11,17.51,3.82,2.62,9.06-.87,9.03-5.18-.1-12.71-1.39-26.17-11.9-34.81s-26.16-12.05-39.52-14.39c-6.56-1.15-10.58,7.12-4.62,10.97,9.06,5.85,17.23,12.8,24.99,20.27,3.59,3.46,7.12,6.99,10.56,10.59,3.21,3.36,6.91,7.16,7.06,12.07l9.03-5.18c-4.56-2.09-8.54-5.27-12.63-8.15-4.57-3.22-9.37-6.26-13.75-9.73-3.62-2.87-5.9-7.01-8.45-10.79l-9.79-14.51c-4.3-6.37-14.7-.37-10.36,6.06h0Z" fill="#fff"/>
                <path d="M85.29,52.41c-14.32-2.34-28.94.53-40.65,9.35-3.57,2.69-4.26,10.05,1.43,10.97,10.05,1.62,20.48,3.08,30.09-1.23,9.06-4.06,13.11-12.37,16.44-21.19,2.73-7.23-8.86-10.36-11.57-3.19-2.22,5.88-4.7,11.62-10.99,13.98s-14.08,1.14-20.78.05c.48,3.66.96,7.31,1.43,10.97,9.01-6.78,20.17-9.97,31.41-8.14,7.55,1.24,10.8-10.33,3.19-11.57h0Z" fill="#fff"/>
                <path d="M27.77,244.61c-3.14,6.29-6.37,12.78-7.82,19.71-.7,3.35-1.08,6.84-.84,10.26.18,2.55,1.68,6.21.05,8.33l10.97,1.43c-2.14-7.02,2.8-13.83-2.13-20.59-3.15-4.33-9.06-3.57-10.97,1.43-5.52,14.45-5.48,28.93-3.01,44,1.12,6.84,2.71,13.36,7.23,18.8,2.03,2.45,4.64,4.5,6.18,7.31,1.81,3.28,2.23,7.28,2.64,10.94l7.6-5.79c4.81,1.94,1.28,3.08,2.4.8.61-1.24.59-3.15.85-4.55.6-3.2,1.22-6.39,1.83-9.58,1.17-6.07,2.35-12.13,3.45-18.21,2.24-12.35,4.15-24.75,5.27-37.26.62-6.91-9.93-7.88-11.79-1.6-1.43,4.83-2.7,9.7-3.83,14.61h11.57c-2.35-6.49-4.12-13.08-5.33-19.87-1.36-7.59-12.92-4.37-11.57,3.19,1.21,6.79,2.98,13.38,5.33,19.87,1.88,5.19,10.15,6.2,11.57,0,1.13-4.91,2.4-9.78,3.83-14.61l-11.79-1.6c-1.38,15.33-4.11,30.46-7.01,45.57-1.41,7.33-3.05,14.66-4.19,22.04-.89,5.74.51,10.46,6.19,12.75,3.39,1.37,8-2.16,7.6-5.79-.72-6.37-1.53-12.88-5.12-18.37-1.75-2.67-4.15-4.73-6.18-7.17-2.44-2.93-3.51-6.03-4.29-9.74-3.06-14.51-3.22-28.6,2.12-42.58l-10.97,1.43c1.75,2.41.76,5.4.41,8.17-.41,3.26-.46,6.36.52,9.55,1.64,5.37,7.91,5.4,10.97,1.43,4.18-5.42,1.22-11.74,1.54-17.87.37-7.24,3.91-14.07,7.08-20.43,3.44-6.89-6.91-12.97-10.36-6.06h0Z" fill="#fff"/>
                <path d="M31.16,286.96c1.7,8.8-4.28,19.03-7.4,26.98-3.45,8.77-6.25,17.56-6.74,27.04-.4,7.72,11.6,7.7,12,0,.52-10.12,4.6-19.53,8.3-28.83s7.35-18.37,5.42-28.38c-1.46-7.57-13.03-4.37-11.57,3.19h0Z" fill="#fff"/>
                <path d="M20.08,348.91c3.99,5.85,4.6,12.58,5.15,19.47.64,8.03,1.09,16.01.08,24.03-.46,3.63,4.24,7.15,7.6,5.79s7.06-2.69,10.7-3.73c3.17-.9,7.11-1.14,10.09-2.47,6.65-2.96,5.37-12.83,5.46-18.59.13-7.37,3.03-14.82,4.53-22,1.63-7.83,2.86-15.72,3.84-23.66.31-2.47-2.07-5.26-4.4-5.79,1.77,3.48,2.59,3.94,2.47,1.4l.28-1.94c.26-1.94.56-3.88.83-5.82.56-3.88,1.11-7.76,1.67-11.64,1.11-7.76,2.22-15.52,3.33-23.28,1.06-7.43-9.34-10.83-11.57-3.19-4.66,15.91-9.32,31.83-13.98,47.74l11.57,3.19c3.05-20.14,6.1-40.28,9.15-60.42,1.13-7.44-9.9-10.89-11.57-3.19-6.93,31.9-4.87,65.26-14.79,96.56l11.79,1.6c.32-11.36.64-22.72.97-34.08.19-6.64-10.43-8.32-11.79-1.6-2.48,12.33-4.96,24.66-7.44,36.98h11.57c-1.13-5.05-2.27-10.09-3.4-15.14l-11.57,3.19c1.19,4.93,1.85,8.78,1.43,13.88s-.89,10.59-1.33,15.89c-.51,6.04,8.41,8.01,11.18,3.03,2.99-5.38,5.97-10.76,8.96-16.14h-10.36l.14,1.22c-.29,6.66,10.48,8.3,11.79,1.6,2.56-13.17,5.12-26.34,7.68-39.51,2.04-10.49,6.92-24.28-4.19-31.29-3.39-2.14-7.69.02-8.81,3.59-2,6.37-4,12.74-6.01,19.1l11.79,1.6c.52-10.55,1.61-21.02,3.34-31.44,1.26-7.55-10.3-10.8-11.57-3.19-1.91,11.47-3.2,23.01-3.77,34.63-.34,6.96,9.81,7.87,11.79,1.6,2-6.37,4-12.74,6.01-19.1l-8.81,3.59c3.2,2.02.18,10.01-.39,12.92-.94,4.82-1.87,9.64-2.81,14.45-1.94,9.96-3.87,19.91-5.81,29.87l11.79,1.6c.12-2.75-.52-4.88-1.78-7.28-2.1-3.97-8.23-3.84-10.36,0-2.99,5.38-5.97,10.76-8.96,16.14l11.18,3.03c.5-5.96,1.07-11.91,1.5-17.88.39-5.36-.77-9.92-2.02-15.09-1.81-7.52-13.26-4.33-11.57,3.19,1.13,5.05,2.27,10.09,3.4,15.14,1.27,5.64,10.4,5.8,11.57,0,2.48-12.33,4.96-24.66,7.44-36.98l-11.79-1.6c-.32,11.36-.64,22.72-.97,34.08-.2,6.94,9.78,7.91,11.79,1.6,9.93-31.33,7.86-64.66,14.79-96.56l-11.57-3.19c-3.05,20.14-6.1,40.28-9.15,60.42-1.13,7.44,9.34,10.8,11.57,3.19,4.66-15.91,9.32-31.83,13.98-47.74l-11.57-3.19c-1.57,10.99-3.15,21.99-4.72,32.98-.98,6.81-5.53,20.81,4.52,23.06l-4.4-5.79c-1.2,9.64-2.97,19.21-5.26,28.66-1.07,4.42-2.37,8.8-2.86,13.34s1.02,9.66-1.21,13.74l3.59-2.76c-6.9,1.3-13.56,3.26-20.07,5.9l7.6,5.79c1.16-9.12.48-18.28-.36-27.41-.72-7.83-1.99-15.51-6.51-22.14s-14.73-.35-10.36,6.06h0Z" fill="#fff"/>
                <path d="M47.44,255.77c-.29,6.49-3.76,12.23-3.02,18.9.82,7.49,12.26,7.89,12,0-.31-9.54-.62-19.09-.93-28.63-.23-7.05-9.42-7.78-11.79-1.6-3.98,10.4-2.31,21.41-.42,32.07,1.24,7.01,11.36,4.78,11.79-1.6s.72-13.33.84-20.01c.14-7.83-11.33-7.58-12,0-.87,9.93-1.75,19.86-2.62,29.78h12c.15-7.31.31-14.63.46-21.94.16-7.74-11.71-7.7-12,0-.25,6.7-.14,13.38.34,20.07.54,7.66,12.55,7.72,12,0-.48-6.69-.59-13.37-.34-20.07h-12c-.15,7.31-.31,14.63-.46,21.94-.16,7.83,11.33,7.58,12,0,.87-9.93,1.75-19.86,2.62-29.78h-12c-.12,6.68-.4,13.34-.84,20.01l11.79-1.6c-1.54-8.67-2.81-17.25.42-25.69l-11.79-1.6c.31,9.54.62,19.09.93,28.63h12c-.7-6.38,2.74-12.49,3.02-18.9.35-7.72-11.66-7.7-12,0h0Z" fill="#fff"/>
                <path d="M57.63,59.75c6.58-1.93,13.4,2,20.24.43,5.2-1.19,10.19-4.72,11.3-10.19,2.56-12.59-20.94-14.54-29.16-13.7-11.38,1.16-25.07,6.75-29.84,18-5.46,12.87,5.61,22.69,9.15,34.15l10.97-4.62c-2.06-4.83-5.75-8.58-10.34-11.08-4.22-2.31-8.65.66-9.03,5.18-1.15,13.57,6.64,24.86,9.84,37.54,3.82,15.11-7.6,29.06-13.65,42.1-6.53,14.07-11.98,29.12-12.02,44.83-.02,7.6,1.43,15.01,3.85,22.19s5.5,14.27,5.82,21.94l11.79-1.6c-2.12-10.33-5.43-20.21-9.67-29.86-1.32-3-5.65-3.6-8.21-2.15-7.17,4.04-7.73,12.44-5.53,19.63,3.04,9.97,7.84,19.66,11.75,29.33,2.86,7.07,14.47,3.98,11.57-3.19-2.91-7.18-5.82-14.37-8.73-21.55-.84-2.07-6.16-12.08-3.01-13.85l-8.21-2.15c3.81,8.67,6.56,17.72,8.46,26.99,1.36,6.62,12.07,5.15,11.79-1.6-.62-15.05-9.49-28.11-9.67-43.24-.19-16.34,6.46-32,13.62-46.36,6.56-13.15,14.92-25.67,12.37-41.02-2.15-12.97-11.31-24.48-10.17-37.97l-9.03,5.18c3.03,1.66,4.68,3.62,6.03,6.78,2.68,6.27,12.95,1.79,10.97-4.62-1.88-6.09-5.37-11.29-8.2-16.94-3.02-6.04-2.35-10.6,3.29-14.65,9.98-7.17,23.89-7.31,34.36-1.21l-2.97-5.18c.03,2.32-7.4,1.14-8.4.97-4.96-.84-9.6-1.51-14.52-.06-7.39,2.18-4.25,13.76,3.19,11.57h0Z" fill="#fff"/>
                <path d="M81.23,56.73l-.47-.09-2.76-6.78c-.24,1.61-.5,2.88-1.91,3.88l8.81,3.59c-3.64-13.95-19.75-12.05-30.54-9.38s-22.97,11.54-18.14,24.08l5.79-7.6c-1.93.04-2.73-.3-4.31-1.41-2.77-1.97-6.51-.33-8.21,2.15-4.63,6.79-1.22,13.76,1.57,20.47,3.22,7.75,3.29,16.19,7.9,23.47,8.02,12.66,22.14,19.67,35.33,25.68,4.91,2.24,11.94-2.74,8.21-8.21-10.28-15.06-20.91-29.88-31.88-44.44-4.01-5.32-12.4-2.37-10.97,4.62,3.04,14.8,7.45,29.21,13.2,43.18,2.34,5.7,12.23,5.79,11.79-1.6-.73-12.26-2.14-24.47-4.26-36.56-.88-5-1.29-11.03-3.87-15.52-1.16-2.02-2.85-3.65-4.97-4.61-1.04-.47-1.91-.65-3.03-.82-.74-.17-1.49-.23-2.25-.19-1.69-.16-1.2.5,1.47,1.96l-.6,4.62.43-.85-5.18,2.97c8.16.6,14.45-4.76,18.78-11.15,3.74-5.52,5.78-14.77,13.15-16.38l-6.78-8.81c-8.88,18.66-11.36,39.28-9.65,59.75.77,9.23,1.61,19.42,7,27.29,5.22,7.61,13.94,11.5,23.02,9.77l-7.6-5.79c.33,1.23.2,2.42-.39,3.56l11.18,3.03c-.12-2.86-.25-5.72-.37-8.59h-12c.28,6.05-1.51,17.31-10.3,14.1l4.19,7.38c2.05-5.28,4.11-10.56,6.16-15.84.7-1.81-.06-4.6-1.54-5.84-7.99-6.66-21.16-5.37-26.13,4.47l11.18,3.03c.09-8.96.18-17.92.27-26.88.07-6.77-10.01-8.15-11.79-1.6-10.54,38.81-14.6,79.19-11.84,119.32.46,6.63,9.76,8.29,11.79,1.6,5.03-16.61,10.06-33.22,15.09-49.83l-11.79-1.6c.57,20.84.52,41.68-.14,62.52-.22,6.82,9.99,8.07,11.79,1.6,2.84-10.22,5.69-20.44,8.53-30.66l-11.79-1.6c-5.12,42.02-9.07,84.18-11.86,126.42h12c-4.61-53.65,10.93-106.03,15.93-159.07.63-6.67-10.66-8.27-11.79-1.6-.96,5.72-1.92,11.43-2.89,17.15l11.79,1.6c-.27-11.8.09-23.58,1.06-35.35.64-7.77-11.14-7.53-12,0l-1.2,10.55h12c.03-11.51.06-23.01.1-34.52h-12c.25,10.44,2.31,20.6,6.32,30.25,2.65,6.38,10.9,5.27,11.79-1.6.8-6.19,1.5-12.4,2.4-18.57.69-4.72,1.47-9.28,5.26-12.48l-8.49-8.49c-6.02,5.61-9.7,12.82-13.14,20.18-3.23,6.91-6.45,14.59-12.93,19.09l8.81,3.59c-.85-5.55-1.3-11.13-1.48-16.75-.23-7.06-9.41-7.77-11.79-1.6-3.81,9.9-7.25,19.93-10.31,30.08l11.57,3.19c3.45-11.69,6.91-23.37,10.36-35.06l-11.57-3.19c-5.13,17.92-9.36,36.07-12.66,54.42-1.11,6.18,7.82,11.21,10.97,4.62,8.15-17.05,15.7-34.37,22.7-51.92,1.65-4.14-3.32-8.87-7.38-7.38-7.27,2.67-12.24,7.61-16.67,13.81-4.05,5.66-7.32,12.42-13.14,16.52l8.81,3.59c-1.06-5.32-.38-10.65,1.97-15.54l-10.97-4.62c-5.46,18.84-8.4,38.29-8.79,57.89-.15,7.81,11.38,7.6,12,0,.69-8.46.96-16.92.8-25.41-.12-6.5-10.53-8.48-11.79-1.6-2.32,12.74-4.51,25.93-1.55,38.76,1.36,5.89,4.07,11.19,7.38,16.2,2.91,4.41,8.12,10.26,7.36,15.97l10.97-1.43c-4.78-8.59-9.56-17.18-14.34-25.78l-10.36,6.06c3.35,4.98,6.7,9.96,10.05,14.94,3.35,4.99,10.84,3.03,11.18-3.03.66-11.7.36-23.36-.88-35.01-.8-7.5-12.18-7.89-12,0,.33,14.65.66,29.29.98,43.94.17,7.79,11.47,7.65,12,0,1.57-22.51,1.61-45.07.11-67.59-.51-7.69-11.56-7.75-12,0-.74,13.07.38,26.07,3.17,38.85,1.45,6.67,11.84,5.1,11.79-1.6-.05-6.05-.1-12.09-.15-18.14l-11.79,1.6c3.67,12.74,7.34,25.49,11.01,38.23,1.52,5.29,10.56,6.12,11.57,0,1.23-7.43,2.45-14.87,3.68-22.3l-11.79-1.6.04,16.95,11.79-1.6c-1.16-6.03-2.32-12.06-3.49-18.1-1.33-6.91-11.47-4.88-11.79,1.6l-2.32,48.07h12c-3.14-41.62,1.8-83.15,7.95-124.26l-11.79-1.6c2.83,36.58,5.79,75.53-9.35,110.03-3.07,7,7.26,13.12,10.36,6.06,16.14-36.76,14.02-76.97,10.99-116.08-.48-6.23-10.72-8.74-11.79-1.6-6.31,42.17-11.6,84.76-8.38,127.45.58,7.66,11.62,7.78,12,0l2.32-48.07-11.79,1.6,3.49,18.1c1.3,6.74,11.8,5.05,11.79-1.6l-.04-16.95c-.01-6.53-10.65-8.46-11.79-1.6l-3.68,22.3h11.57c-3.67-12.74-7.34-25.49-11.01-38.23-1.85-6.43-11.84-5.28-11.79,1.6.05,6.05.1,12.09.15,18.14l11.79-1.6c-2.57-11.77-3.42-23.65-2.74-35.66h-12c1.5,22.52,1.46,45.08-.11,67.59h12c-.33-14.65-.66-29.29-.98-43.94h-12c1.24,11.65,1.53,23.32.88,35.01l11.18-3.03c-3.35-4.98-6.7-9.96-10.05-14.94-4.28-6.36-14.16-.76-10.36,6.06,4.78,8.59,9.56,17.18,14.34,25.78,2.29,4.11,10.26,3.86,10.97-1.43,1.79-13.32-7.46-20.93-12.6-32.07-5.56-12.05-2.86-26.37-.58-38.87l-11.79-1.6c.15,8.49-.11,16.95-.8,25.41h12c.37-18.59,3.18-36.84,8.36-54.7,1.85-6.38-7.96-10.87-10.97-4.62-3.85,8-4.92,16.07-3.18,24.78.72,3.6,5.77,5.73,8.81,3.59,5.9-4.16,9.99-9.68,13.94-15.64,3.4-5.12,6.92-11.24,13-13.48l-7.38-7.38c-6.61,16.59-13.79,32.94-21.49,49.06l10.97,4.62c3.3-18.35,7.53-36.5,12.66-54.42,2.13-7.44-9.39-10.59-11.57-3.19-3.45,11.69-6.91,23.37-10.36,35.06-2.19,7.43,9.34,10.57,11.57,3.19,3.07-10.15,6.51-20.18,10.31-30.08l-11.79-1.6c.22,6.69.9,13.32,1.91,19.94.56,3.69,5.88,5.63,8.81,3.59,7.2-5,11.76-11.93,15.51-19.73,3.64-7.57,6.72-15.58,12.99-21.41,5.72-5.33-2.67-13.41-8.49-8.49-4.94,4.19-7.14,10.27-8.15,16.51-1.23,7.63-2.03,15.36-3.02,23.03l11.79-1.6c-3.62-8.71-5.66-17.62-5.89-27.06-.19-7.71-11.98-7.75-12,0-.03,11.51-.06,23.01-.1,34.52-.02,7.91,11.15,7.48,12,0l1.2-10.55h-12c-.97,11.76-1.33,23.54-1.06,35.35.15,6.47,10.62,8.52,11.79,1.6.96-5.72,1.92-11.43,2.89-17.15l-11.79-1.6c-5,53.05-20.55,105.39-15.93,159.07.66,7.66,11.49,7.77,12,0,2.79-42.24,6.74-84.4,11.86-126.42.83-6.84-10.02-7.93-11.79-1.6-2.84,10.22-5.69,20.44-8.53,30.66l11.79,1.6c.66-20.84.71-41.68.14-62.52-.18-6.77-9.8-8.14-11.79-1.6-5.03,16.61-10.06,33.22-15.09,49.83l11.79,1.6c-2.69-39.13,1.13-78.28,11.41-116.13l-11.79-1.6c-.09,8.96-.18,17.92-.27,26.88-.06,5.75,8.45,8.44,11.18,3.03,1.23-2.43,4.88-4.04,7.29-2.04l-1.54-5.84c-2.05,5.28-4.11,10.56-6.16,15.84-1.24,3.19,1.4,6.36,4.19,7.38,6.61,2.41,14.06.23,18.98-4.66,5.53-5.51,6.85-13.52,6.51-21.01s-12.33-7.74-12,0c.12,2.86.25,5.72.37,8.59.24,5.53,8.41,8.7,11.18,3.03,1.54-3.16,2.36-6.07,2.02-9.62-.39-4.08-3.51-6.56-7.6-5.79-15.17,2.89-15.1-25.52-15.32-34.32-.37-15.39,1.83-30.87,8.49-44.87,2.27-4.76-1.45-9.98-6.78-8.81-7.31,1.6-12.13,7.2-15.65,13.48-2.88,5.14-5.87,14.15-13.08,13.61-1.97-.15-4.29,1.22-5.18,2.97-2.21,4.34-.85,9.26,3.76,11.38,1.24.57,2.41.79,3.78.89.5.07,1.01.09,1.52.06,1.06.08,1.02-.03-.11-.32,1.26,1.94,1.37,5.74,1.8,7.97,2.41,12.58,3.92,25.28,4.69,38.06l11.79-1.6c-5.75-13.97-10.16-28.38-13.2-43.18l-10.97,4.62c10.98,14.56,21.61,29.37,31.88,44.44l8.21-8.21c-10.44-4.76-22.23-9.92-29.49-19.19-4.07-5.2-4.89-10.99-6.39-17.23-.77-3.2-2.02-6.11-3.35-9.11-1.03-2.34-2.85-5.34-1.26-7.67l-8.21,2.15c3.14,2.22,6.54,3.13,10.36,3.05,3.56-.08,7.24-3.83,5.79-7.6-2.25-5.83,5.45-8.25,9.76-9.32,3.6-.89,14.36-4.47,15.78,1,.91,3.5,5.63,5.83,8.81,3.59,3.87-2.73,6.7-6.25,7.43-11.05.43-2.87-.35-5.1-2.76-6.78-2.61-1.81-5.79-2.23-8.78-1.12-7.17,2.68-4.06,14.29,3.19,11.57h0Z" fill="#fff"/>
                <path d="M87.84,45.98c-3.95,1.79-2.32,1.51-5.75,1.91s-5.88.19-7.02.17-2.95.56-5.89.97-4.92,1.3-6.75,2.82-3.32,2.58-4.65,3.8,1.16-.76-2.32,1.82-3.48,2.42-5.13,3.33-3.94,1.32-3.94,1.32c0,0,1.95.35,3.59.08s4.57-.22,10.12-.1,2.95-.56,7.85-.77,3.29-1.18,8.21-2.33,3.64-2.42,6.28-3.93,1.68-2.15,3.05-5.55,4.65-3.96,4.65-3.96c-1.87,3.39-2.54,4.47-3.22,5.55s.16.16-1.52,2.62-1.66,1.53-3.51,3.98-.69,2.01-4.49,4.28-1.03,2.48-5.77,2.84-1.31.44-6.71,1.26c-5.4.82-1.48.75-8.51,1.54s-10.95.86-10.95.86" fill="none" stroke="#231f20" stroke-miterlimit="10"/>
                <path d="M87.18,46.44s-1.01,1.54-2.49,2.29.98-.29-2.48,1.51-3.66,3.2-6.6,3.45c-2.94.25-3.61,1.02-5.58,1.44s-4.1,1.16-5.42,1.6-.17.15-2.8,1.35-2.48,1.35-3.95,1.63-9.18,2.3-9.18,2.3" fill="none" stroke="#231f20" stroke-miterlimit="10"/>
                <ellipse cx="48.22" cy="76.29" rx=".08" ry=".82" transform="translate(-29.06 122.9) rotate(-88.8)" fill="none" stroke="#231f20" stroke-miterlimit="10"/>
                <path d="M90.6,46.98c2.68,4.27,9.04,12.52,11.27,15.06,2.23,2.54,10.46,14.89,11.41,15.84s4.11,6.33,5.07,7.28,1.28.96,4.48,4.15c3.2,3.19.26,3.13,5.77,5.11,5.5,1.99.95,1.58,6.48,2.01s11.09-.08,11.09-.08" fill="none" stroke="#231f20" stroke-miterlimit="10"/>
                <path d="M144.42,86.34s-2.94-.06-6.19-.44-5.84-1.37-12.34-2.76c-6.5-1.38,0,0-4.81-4.16s-4.19-2.58-9.6-8.94c-5.41-6.36-2.85-4.12-5.39-7.6s-6.35-8.25-7.95-9.84-9.37-8.01-7.18-7.64,1.79.35,5.37.42,1.97-.58,7.16,1.09,3.25.69,8.08,3.6c4.83,2.91,1.29.65,7.72,5.16s.98-.29,7.05,6.08c6.07,6.37-.61-1.89,6.07,6.37,6.68,8.25,5.1,5.72,6.98,9.51s5.03,9.16,5.03,9.16Z" fill="none" stroke="#231f20" stroke-miterlimit="10"/>
                <path d="M104.49,61.16s6.91,12.63,8.2,13.28,5.11,5.41,6.39,6.69,6.41,5.44,7.7,6.09-2.6-.37,2.6.68,7.77,2.97,9.4,3.01,5.86.43,5.86.43" fill="none" stroke="#231f20" stroke-miterlimit="10"/>
                <path d="M90.96,44.96s-.16,0,4.34,3.21.32.32,7.08,4.83c6.76,4.51,7.72,5.16,12.86,9.32,5.13,4.16,1.96.04,8.66,7.05,6.7,7.01,2.2,3.79,7.67,7.65,5.47,3.86,12.86,9.32,12.86,9.32" fill="none" stroke="#231f20" stroke-miterlimit="10"/>
                <path d="M72.09,112.6c2.07,2.99,4.77,7.56,6.57,13.56.84,2.79,1.38,5.56,2.03,11.9.94,9.19,1.47,14.3,1.21,20-.41,9.13-3.22,16.95-8.84,32.59-4.3,11.96-5.26,12.47-6.59,18.59-2.25,10.38-1.55,18.5-1.15,23.7,0,0,1.09,14.24,1.68,44.36.73,37.27-7.6,34.05-3.79,56.41,2.25,13.2,6.83,24.26,2.75,40.32-1.55,6.08-3.82,10.84-5.51,13.93" fill="none" stroke="#231f20" stroke-miterlimit="10"/>
                <path d="M107.16,120.52c1.94,3.67,3.38,6.82,4.38,9.14,3.51,8.16,3.66,10.89,3.66,12.25-.01,3.15-.89,4.6-1.79,7.77,0,0-3.09,10.78.17,23.1,1.67,6.33,4.12,8.55,7.21,14.2,7.8,14.28,11.69,35.96,6.05,54.12-2.03,6.52-4.67,10.63-3.97,18.02.77,8.04,4.77,12.38,7.15,17,6.88,13.35-3.99,20.8-6.88,47.92-2.39,22.45,2.3,43.36,5.33,56.92.9,4,1.76,7.34,2.41,9.73" fill="none" stroke="#231f20" stroke-miterlimit="10"/>
                <path d="M126.85,115.31c2.84,2.95,6.62,7.69,8.51,14.22,3.25,11.18-2.59,15.3-2.99,33.96-.23,10.71,1.46,20.29,2.4,25.64.95,5.42,3.06,9.88,2.98,13.48-.2,9.67.38,12.81.38,12.81" fill="none" stroke="#231f20" stroke-miterlimit="10"/>
                <path d="M122.5,120.52c2.86,3.81,1.92,1.91,4.12,6.02,2.2,4.1,1.81,7.22,1.71,11.9s.12,9.68.08,11.86-.38,2.8.21,5.62,3.08,8.8,3.08,8.8" fill="none" stroke="#231f20" stroke-miterlimit="10"/>
                <path d="M119.2,122.02c1.17,6.58,2.43,8.48,3.05,10.36s1.56,3.47,1.5,6.27-1.37,3.09.19,6.56,1.55,4.09,1.5,6.27-.5,8.1-.5,8.1" fill="none" stroke="#231f20" stroke-miterlimit="10"/>
                <path d="M83.4,117.83c.89,4.08,1.54,4.4,2.75,8.8,1.21,4.4,1.95.35,1.16,6.89s.9,3.76-1.17,9.03c-2.07,5.26-3.79,9.6-3.79,9.6" fill="none" stroke="#231f20" stroke-miterlimit="10"/>
                <path d="M30.01,393.1c1.27-4.48,2.78-11.52,2.38-20.08-.86-18.43-9.63-24.38-8.48-39.04.89-11.41,6.38-10.11,10.31-25.07,4.61-17.55.65-33.06-2.03-43.12-5.42-20.27-11.11-18.68-14.44-34.95-4.28-20.93,1.97-39.05,4.38-45.79,6.85-19.13,13.5-17.97,18.87-36.59,2.88-9.98,6.73-23.33,2.27-38.34-2.65-8.9-7.24-15.13-10.14-30.18-.69-3.59-1.39-8.25-.68-14.06.6-4.91,1.32-11.46,6.22-16.72,5.31-5.71,12.23-6.99,20.24-8.47,4.32-.8,10.9-1.95,19.09-.07,5.3,1.22,15.38,5,12.13,4.94-8.81-.18-18.04-3.19-21.96-2.8-3.92.39-11.81,3.03-13.79,3.93-1.98.9-12.35,5.36-13.4,9.08-1.06,3.72-5.08,8.79-3.74,14.9,1.34,6.11,8.34,22.65,9.27,24.54.94,1.89,5.12,12.75,5.98,18.38.86,5.64,2.27,8.47,2.02,20.17-.24,11.7,2.74,9.42-3.41,22.4-4.33,9.14-5.86,12.53-7.64,16-1.32,2.58-2.32,4.35-2.59,4.85-12.33,22.75-11.73,46.1-11.73,46.1.2,7.63,2.53,15.13,7.2,30.11,9.04,29.01,13.94,28.53,13.36,39.61-.81,15.57-10.57,17.99-11.08,38.16-.15,5.91.43,15.7.6,18.27.66,10.46,1.46,14.36,1.03,21.09-.47,7.36-2.1,13.21-3.29,16.79" fill="none" stroke="#231f20" stroke-miterlimit="10"/>
                <path d="M169.3,394.3c-.71-.86-1.72-2.24-2.52-4.11-2.4-5.6-.54-10.06-.31-16.55.22-6.07-1.29-5.15-1.69-12.83-.14-2.7-.06-4.85,3.5-27.08.64-4,.89-5.51,1.47-7.77,1.87-7.32,4.46-11.99,5.52-14.24,6.23-13.31-.06-30.41-2.8-37.83-3.91-10.61-5.93-8.28-9.09-17.67-2.69-7.98-2.45-17.51-1.85-36.24.13-4.06.48-13.47,1.53-26.19.3-3.67.92-10.79,2.06-20.56,4.36-37.42,7.92-41.79,3.34-50.49-2.19-4.17-4.37-5.75-11.06-17.09-3.68-6.23-5.54-9.42-6.58-12.93-2.76-9.34.76-12.07-1.2-20.63-2.32-10.1-9.59-16.53-12.01-18.67-5.16-4.56-10.76-6.52-21.97-10.45-16.48-5.77-20.36-3.61-21.81-2.49-1.69,1.32-4.02,5.33-2.87,4.47,2.82-2.13,3.48-2.42,6.09-2.37s1.01-1.54,6.2.13c1.62.52,2.98,1.04,4.22,1.57,5.25,2.26,7.74,3.99,7.74,3.99,11.04,6.76,14.66,6.95,19.66,11.65,3.66,3.44,6.9,7.99,8.83,14.54,2.43,8.24-.58,10.83,2.5,20.65,1.39,4.41,3.33,8.14,4.67,10.71,3.02,5.8,5.06,8.12,6.63,10.75,4.78,8.05,2.14,14.1,1.85,36.24-.12,9.17.33,8.62.29,17.17-.13,31.88-6.49,76.59-2.58,92.33.54,2.2,1.22,4.08,1.22,4.08,2.87,8.02,7.02,11.51,9.46,15.8,2.92,5.15,2.54,10.01,1.9,18.14-1.31,16.71-9.01,18.58-10.17,33.81-.71,9.24,2.14,8.47,1.52,20.94-.45,9.16-2.16,13.17-1.76,21.81.32,6.87,1.77,12.41,2.93,15.98" fill="none" stroke="#231f20" stroke-miterlimit="10"/>
                <path d="M44.3,388.25c2.56-2.98,5.86-7.63,7.63-13.89,1.86-6.6.99-11.3-.06-20.6-1.83-16.28-2.75-24.43-1.82-30,2.17-13,8.51-13.36,11.79-25.5,1.97-7.27.69-10.81-5.57-38.04-7.66-33.35-8.63-40.64-8.76-49.34-.15-10.87-.26-18.2,3.02-27.56,5.64-16.07,14.14-17.79,17.3-31.47,2.24-9.71-.05-17.42-4.24-31.46-3.9-13.08-11.17-28.5-14.37-38.22-.14-.43-1.05-3.54-1.86-6.32-.67-2.3-1.28-4.38-1.34-4.52-1.86-4.72-.42-3.29.16-7.49.58-4.2,1.6-6.52,5.11-10.19,3.5-3.67,3.95-1.79,9.9-5.41,5.95-3.62,6.37-.33,15.2-1.55s13.73-1.12,13.73-1.12c0,0,3.55-6.01.46,1.41-3.09,7.43-9.15,16.19-13.13,19.39s-13.4,9.08-16.34,9.02-9.31.74-9.31.74l-2.78.1" fill="none" stroke="#231f20" stroke-miterlimit="10"/>
                <path d="M141.93,96.27c4.06,8.82,6.33,9.18,8.74,18.91s.23,51.5.16,54.62,3.58,15.99,2.48,21.59c-1.1,5.6-2.06,35.85-2.5,41.46-.44,5.61,1.51,21.57,1.36,28.43-.14,6.86,1.11,9.39,4.25,15.38s-.31,30.27.31,31.84-1.58,13.08-2.31,16.81-2.02,3.08-1.23,12.15c.79,9.07.95,17.19.79,24.67-.16,7.49-.16,23.09-.16,23.09" fill="#fdfefe" stroke="#fcfafc" stroke-miterlimit="10"/>
                <path d="M68.41,117.21c-2.57-5.14-3.14-6.3-3.13-6.31.02,0,4.94,8.14,8.11,17.65,1.73,5.19,4.5,13.5,3.77,22.55-1.16,14.37-10.05,17.03-16.06,34.62-2.48,7.26-2.91,13.03-3.78,24.58-.65,8.65-1.31,26.13,2.58,48.12,2.36,13.32,3.95,26.76,6.34,40.08.65,3.61,1.88,10.31-1.65,16.51-2.22,3.89-4.57,4.53-6.7,8.29-3.21,5.68-2.02,11.63-1.01,17.15,6.48,35.43,3.52,42.13.68,45.58-1.17,1.42-3,3.13-5.97,4.56" fill="none" stroke="#231f20" stroke-miterlimit="10"/>
                <path d="M114.94,123.18c1.06,2.08,2.54,5.32,3.72,9.44,2.07,7.22,1.04,9.55,2.28,15.97,2.25,11.69,7.14,11.64,7.09,19.81-.04,7.15-3.79,8.26-2.92,14.92.69,5.27,3.38,7.29,6.58,12.93,3.86,6.8,4.8,12.46,6.39,21.98,2.18,13.08-.26,15.42,1,29.98,1.05,12.09,3.07,14.38,4.4,23.81,2.62,18.7-2.07,32.99-4.12,41.11-4.06,16.07-6.18,41.27,2.54,81.2" fill="none" stroke="#231f20" stroke-miterlimit="10"/>
                <path d="M135.6,102.38c2.66,4.58,5.88,11.17,8.07,19.52.91,3.45,2.72,10.53,2.53,19.4-.25,11.92-3.87,15.88-5.77,26.41-1.76,9.75-.1,14.4,1.66,29.69,5.64,48.79-4.85,56.69,5.61,75.03,2.23,3.91,6.61,10.4,6.44,19.49-.14,7.54-3.31,11.6-6.25,17.97-11.73,25.42,1.37,41.63-4.92,63.57-.63,2.21-2.65,8.62.7,13.44,1.44,2.07,3.45,3.22,4.81,3.85" fill="none" stroke="#231f20" stroke-miterlimit="10"/>
                <rect x=".5" y="228.95" width="394.63" height="179.81" fill="#f79420" stroke="#231f20" stroke-miterlimit="10"/>
                <rect x=".5" y="252.68" width="9.92" height="156.99" fill="#f6ab61" stroke="#231f20" stroke-miterlimit="10"/>
                <rect x="25.78" y="253.59" width="42.14" height="155.16" fill="#f6ab61" stroke="#231f20" stroke-miterlimit="10"/>
                <rect x="102.63" y="253.59" width="42.14" height="155.16" fill="#f6ab61" stroke="#231f20" stroke-miterlimit="10"/>
                <rect x="179.47" y="253.59" width="42.14" height="152.43" fill="#f6ab61" stroke="#231f20" stroke-miterlimit="10"/>
                <rect x="256.31" y="253.59" width="42.14" height="155.16" fill="#f6ab61" stroke="#231f20" stroke-miterlimit="10"/>
                <rect x="333.16" y="253.59" width="42.14" height="155.16" fill="#f6ab61" stroke="#231f20" stroke-miterlimit="10"/>
                <path d="M71.98,47.53c3.4-.56,6.77-1.1,9.94-2.53-3.38.53-6.72,1.39-9.94,2.53Z" fill="#906226" stroke="#020202" stroke-miterlimit="10"/>
                <path d="M115.33,58.56c-1.82-1.13-3.64-2.26-5.47-3.38.77.62,1.54,1.23,2.31,1.84,1.25,1,2.47,2.04,3.68,3.09-.2-.51-.38-1.03-.53-1.56Z" fill="#906226" stroke="#020202" stroke-miterlimit="10"/>
                <path d="M121.39,86.66c-2.33-1.33-4.61-2.72-6.73-4.22-8.98-6.34-16.04-24.05-22.28-32.88-1.53,1-17.19,21.07-24.43,24.48-.13.12-.27.24-.4.36-4.17,3.72-7.58,8.03-12.49,10.84-.6.34-1.05-6.71-1.62-6.65-1.18,1.41-.87-.7-2.78.19-.64.3-3.33.8-3.93.81.64,1.99,1.56,14.44,2.42,17.01,3.87,11.56,5.8,17.34,9.33,21.72,7.37,9.15,17.8,11.81,29.54,14.81,1.64.42,19.79,4.08,28.35,1.57,4.1-1.2,11.5-4.09,17.85-10.88,4.7-5.03,9.73-18.42,11.22-23.65-9.02-4.58-19.13-5.16-24.05-13.52Z" fill="#906226" stroke="#020202" stroke-miterlimit="10"/>
                <path id="mask" d="M54.24,76.91c3.04-9.9,15.76-13.68,22.75-11.27,2.23.77,5.05,2.57,5.81,3.06,4.16,2.66,4.86,4.21,7.7,6.03,1.06.68,5.54,3.54,10.7,3.16,6.11-.45,6.94-4.99,14.32-6.06,4.29-.62,7.54.41,8.31.66,1.09.36,6.09,2.04,8.67,6.54,3.57,6.23.66,14.68-3.83,19.49-6.1,6.53-14.89,6.11-16.28,6.02-6.38-.42-12.59-4.04-14.57-5.2-3.81-2.22-5.06-3.77-8.23-4.09-3.21-.32-4.08,1.05-9.35,2.25-2.92.67-7.09,1.62-11.76.73-1.86-.35-6.86-1.3-10.65-5.6-3.56-4.05-5.28-10.2-3.59-15.73Z" fill="#fff" stroke="#020202" stroke-miterlimit="10"/>
                <ellipse cx="75.62" cy="84.45" rx="5.14" ry="6.36" transform="translate(-10.4 158.29) rotate(-88.8)" fill="#fff" stroke="#020202" stroke-miterlimit="10"/>
                <ellipse cx="116.37" cy="89.95" rx="4.89" ry="5.14" transform="translate(24 204.41) rotate(-88.8)" fill="none" stroke="#020202" stroke-miterlimit="10"/>
                <path d="M145.14,233.06c1.44,1.86,0,0,.95,1.62s-.03,1.6-.57,3.87,0,0-2.72.86-.74-.02-1.71-.72-.7-1.61-.92-3.21,0,0-1.5,1.34,0,0-1.51,1.57,0,0-1.47-.26-.73-.24-.69-2.3-.23-.69-.23-.69l-1.97.42c-1.97.42-.74-.02-1.47-.26s-.97-.48-1.2-1.17.01-.68,1.52-2.25.51-.67-2.7-.28,0,0-.73-.24-1.95-.95-1.95-.95c0,0,.04-2.05.3-2.73s1.02-1.58,2.76-2.91.74.02.74.02c.88-1.35,2.04-3.42,2.83-6.1,1.63-5.56.63-10.22-.43-14.84-1.45-6.35-2.51-5.65-5.33-15.4-.86-2.99-1.33-5.02-2.78-8.04-2.04-4.27-4.22-6.73-6.95-8.36-1.52-.91-2.28-1.36-2.92-1.2-4.49,1.08-.91,26.82-.39,30.57,6.75,49.1-.67,46.77,6.33,85.01,5.67,30.97,7.25,62.51,13.53,93.38.27,1.33,1.19,5.81-1.42,9.33-6.41,8.61-30.92,7.19-35.84-1.89-.84-1.56-.9-2.95-.92-3.21-.97-22.41-5.22-69.02-4.95-69.01.29,0-7.47,51.36-3.13,67.47.14.52.65,2.33-.33,3.87-3.7,5.84-26.26,3.74-31.59-5.68-3.17-5.61.44-12.62,1.8-15.48,6.78-14.2.76-14.5,7.37-70.35,0,0,6.31-53.29,8.47-110.94.1-2.69.21-6.37-1.33-6.87-3.8-1.25-16.78,17.15-20.7,37.9-.86,4.56-1.13,8.43-1.22,11.16h0s.18,3.2-.12,5.7c-.3,2.5.73.24,2.68,1.2,1.95.95,0,0,1.95.73,1.95.73,0,0,.97.7s0,0-.06,2.96-.77,1.35-.77,1.35c0,0-1,.66-2.23,1.09-1.24.43,0,0-1.21-.94-1.21-.94,0,0,.21,1.83s0,0-.8,3.18c-.2.8-.74.21-1.72-.04q-.98-.25-1.21-.94c-.23-.69.02-.91-.67-2.98,0,0-.31,3.19-.82,4.09l-.51.9s-1.72.19-2.71.17l-1.23-.03.05-2.51.56-3.18-2.7-.06c-.74-.02-1.71-.26-1.71-.26l-1.44-1.63s.78-2.04,2.03-2.92c1.25-.89.99-.44.99-.44l3.46-.84c.59-11.65,1.86-21.4,3.06-28.69,3.58-21.8,7.56-28.34,10.5-32.18,5.05-6.59,11.09-10.55,12.03-11.16,4.15-2.67,8.05-4.28,10.92-5.25,0,0,7.54-8.06,8.61-12.14l.2-9.58,12.75,1.41.2,2.06c-.2,1.03-.39,2.65-.1,4.56,1.22,7.84,9.46,12.57,13.21,14.65,8.39,4.66,10.48,2.26,15.86,5.58,10.35,6.39,11.69,20.9,12.42,28.78.36,3.86,1.37,19.21-.81,27.14-.24.86-1.12,3.84-.4,7.52.47,2.39,1.44,4.22,2.1,5.29" fill="#906126" stroke="#020202" stroke-miterlimit="10"/>
                <polyline points="59.32 99.36 63.9 98.8 63.82 102.39 70.04 101.54 69.65 104.79 74.23 103.91" fill="none" stroke="#020202" stroke-miterlimit="10"/>
                <path d="M112.62,109.28l1.02-1.94,4.51,2.7s.39-3.25,2.68-3.21,4.42,7.27,5.48,3.05" fill="none" stroke="#020202" stroke-miterlimit="10"/>
                <path d="M106.53,119.75c-.07,3.15-3.11,5.64-6.8,5.57s-6.63-2.69-6.57-5.85c.02-.98.33-1.89.85-2.68.12-.18.25-.35.39-.52,1.24-1.47,3.28-2.41,5.57-2.36,3.69.08,6.63,2.69,6.57,5.85Z" fill="#fff" stroke="#020202" stroke-miterlimit="10"/>
                <path d="M93.54,116.87l1.22.15c1.57,1.13,2.61,3.72,2.61,3.72" fill="none" stroke="#020202" stroke-miterlimit="10"/>
                <path d="M96.44,118.52l.62-.6c1.49-.83,1.86-1.18,2.72-1.17s3.76,1.55,3.76,1.55l2.62,3.24-.89,1.57-3.23,2.13-3.91-.08-3.51-1.91-1.54-2.48.3-2.68.62-1.3.39-.52" fill="#e21c45" stroke="#020202" stroke-miterlimit="10"/>
                <path d="M92.84,314.03l4.79,86.7,38.92-.65c-6.7-38.32-10.01-69.52-11.79-91.25-.36-4.4-1.07-13.36-3.7-56.83-1.75-28.77-5.43-52.27-3.97-67.6,3.76-39.55,4.77-41,4.77-41l-21.08,48.48-28.81-50.02c3.17,38.31,1.61,68.75-.41,89.52-.42,4.37-.42,3.63-2.74,21.49-1.06,8.11-2.59,20.05-4.87,38.04-4.59,36.26-6.51,52.23-7.66,61.97-2.36,19.91-4.18,36.29-5.4,47.34l38.35,3,3.51-85.79,1.42-21.01" fill="#65bc46" stroke="#020202" stroke-miterlimit="10"/>
                <path d="M93.59,323.83l4.58,76.91,39.86-1.12c-2.46-11.22-4.71-22.85-6.69-34.88-7.21-43.8-11.19-84.3-10.59-120.82-1.73-.94-2.4-2.71-4.59-5.23-5.04-5.79-15.83-47.79-15.83-47.79-1.34,5.38-3.2,11.28-5.81,17.49-6.91,16.43-16.33,28.53-24.03,36.68l-20.06,154.67,39.27,3.51,5.52-110.21" fill="#ece70e" stroke="#020202" stroke-miterlimit="10"/>
                <rect x="65.74" y="389.12" width="7.34" height="31.31" transform="translate(-339.69 440.92) rotate(-85.32)" fill="#231f20" stroke="#020202" stroke-miterlimit="10"/>
                <rect x="102.21" y="400.66" width="31.31" height="7.34" transform="translate(-26.53 8.7) rotate(-3.8)" fill="#231f20" stroke="#020202" stroke-miterlimit="10"/>
              </g>
            </g>
          </g>
        </g>
      </g>
    </g>
  </g>
</svg>